<svg width="627" height="564" viewBox="0 0 627 564" fill="none" xmlns="http://www.w3.org/2000/svg">
<ellipse cx="203.5" cy="2.50034" rx="2.5" ry="2.50034" fill="#D7D7D7"/>
<ellipse cx="222.5" cy="2.50034" rx="2.5" ry="2.50034" fill="#D7D7D7"/>
<ellipse cx="242.5" cy="2.50034" rx="2.5" ry="2.50034" fill="#D7D7D7"/>
<ellipse cx="261.5" cy="2.50034" rx="2.5" ry="2.50034" fill="#D7D7D7"/>
<ellipse cx="164.5" cy="22.5003" rx="2.5" ry="2.50034" fill="#D7D7D7"/>
<ellipse cx="183.5" cy="22.5003" rx="2.5" ry="2.50034" fill="#D7D7D7"/>
<ellipse cx="203.5" cy="22.5003" rx="2.5" ry="2.50034" fill="#D7D7D7"/>
<ellipse cx="222.5" cy="22.5003" rx="2.5" ry="2.50034" fill="#D7D7D7"/>
<ellipse cx="242.5" cy="22.5003" rx="2.5" ry="2.50034" fill="#D7D7D7"/>
<ellipse cx="261.5" cy="22.5003" rx="2.5" ry="2.50034" fill="#D7D7D7"/>
<ellipse cx="281.5" cy="22.5003" rx="2.5" ry="2.50034" fill="#D7D7D7"/>
<ellipse cx="300.5" cy="22.5003" rx="2.5" ry="2.50034" fill="#D7D7D7"/>
<ellipse cx="144.5" cy="41.5003" rx="2.5" ry="2.50034" fill="#D7D7D7"/>
<ellipse cx="164.5" cy="41.5003" rx="2.5" ry="2.50034" fill="#D7D7D7"/>
<ellipse cx="183.5" cy="41.5003" rx="2.5" ry="2.50034" fill="#D7D7D7"/>
<ellipse cx="203.5" cy="41.5003" rx="2.5" ry="2.50034" fill="#D7D7D7"/>
<ellipse cx="222.5" cy="41.5003" rx="2.5" ry="2.50034" fill="#D7D7D7"/>
<ellipse cx="242.5" cy="41.5003" rx="2.5" ry="2.50034" fill="#D7D7D7"/>
<ellipse cx="261.5" cy="41.5003" rx="2.5" ry="2.50034" fill="#D7D7D7"/>
<ellipse cx="281.5" cy="41.5003" rx="2.5" ry="2.50034" fill="#D7D7D7"/>
<ellipse cx="300.5" cy="41.5003" rx="2.5" ry="2.50034" fill="#D7D7D7"/>
<ellipse cx="320.5" cy="41.5003" rx="2.5" ry="2.50034" fill="#D7D7D7"/>
<ellipse cx="144.5" cy="61.5003" rx="2.5" ry="2.50034" fill="#D7D7D7"/>
<ellipse cx="164.5" cy="61.5003" rx="2.5" ry="2.50034" fill="#D7D7D7"/>
<ellipse cx="183.5" cy="61.5003" rx="2.5" ry="2.50034" fill="#D7D7D7"/>
<ellipse cx="203.5" cy="61.5003" rx="2.5" ry="2.50034" fill="#D7D7D7"/>
<ellipse cx="222.5" cy="61.5003" rx="2.5" ry="2.50034" fill="#D7D7D7"/>
<ellipse cx="242.5" cy="61.5003" rx="2.5" ry="2.50034" fill="#D7D7D7"/>
<ellipse cx="261.5" cy="61.5003" rx="2.5" ry="2.50034" fill="#D7D7D7"/>
<ellipse cx="281.5" cy="61.5003" rx="2.5" ry="2.50034" fill="#D7D7D7"/>
<ellipse cx="300.5" cy="61.5003" rx="2.5" ry="2.50034" fill="#D7D7D7"/>
<ellipse cx="320.5" cy="61.5003" rx="2.5" ry="2.50034" fill="#D7D7D7"/>
<ellipse cx="144.5" cy="80.5003" rx="2.5" ry="2.50034" fill="#D7D7D7"/>
<ellipse cx="164.5" cy="80.5003" rx="2.5" ry="2.50034" fill="#D7D7D7"/>
<ellipse cx="183.5" cy="80.5003" rx="2.5" ry="2.50034" fill="#D7D7D7"/>
<ellipse cx="203.5" cy="80.5003" rx="2.5" ry="2.50034" fill="#D7D7D7"/>
<ellipse cx="222.5" cy="80.5003" rx="2.5" ry="2.50034" fill="#D7D7D7"/>
<ellipse cx="242.5" cy="80.5003" rx="2.5" ry="2.50034" fill="#D7D7D7"/>
<ellipse cx="261.5" cy="80.5003" rx="2.5" ry="2.50034" fill="#D7D7D7"/>
<ellipse cx="281.5" cy="80.5003" rx="2.5" ry="2.50034" fill="#D7D7D7"/>
<ellipse cx="300.5" cy="80.5003" rx="2.5" ry="2.50034" fill="#D7D7D7"/>
<ellipse cx="320.5" cy="80.5003" rx="2.5" ry="2.50034" fill="#D7D7D7"/>
<ellipse cx="144.5" cy="100.5" rx="2.5" ry="2.50034" fill="#D7D7D7"/>
<ellipse cx="164.5" cy="100.5" rx="2.5" ry="2.50034" fill="#D7D7D7"/>
<ellipse cx="183.5" cy="100.5" rx="2.5" ry="2.50034" fill="#D7D7D7"/>
<ellipse cx="203.5" cy="100.5" rx="2.5" ry="2.50034" fill="#D7D7D7"/>
<ellipse cx="222.5" cy="100.5" rx="2.5" ry="2.50034" fill="#D7D7D7"/>
<ellipse cx="242.5" cy="100.5" rx="2.5" ry="2.50034" fill="#D7D7D7"/>
<ellipse cx="261.5" cy="100.5" rx="2.5" ry="2.50034" fill="#D7D7D7"/>
<ellipse cx="281.5" cy="100.5" rx="2.5" ry="2.50034" fill="#D7D7D7"/>
<ellipse cx="300.5" cy="100.5" rx="2.5" ry="2.50034" fill="#D7D7D7"/>
<ellipse cx="320.5" cy="100.5" rx="2.5" ry="2.50034" fill="#D7D7D7"/>
<ellipse cx="144.5" cy="119.5" rx="2.5" ry="2.50034" fill="#D7D7D7"/>
<ellipse cx="164.5" cy="119.5" rx="2.5" ry="2.50034" fill="#D7D7D7"/>
<ellipse cx="183.5" cy="119.5" rx="2.5" ry="2.50034" fill="#D7D7D7"/>
<ellipse cx="203.5" cy="119.5" rx="2.5" ry="2.50034" fill="#D7D7D7"/>
<ellipse cx="222.5" cy="119.5" rx="2.5" ry="2.50034" fill="#D7D7D7"/>
<ellipse cx="242.5" cy="119.5" rx="2.5" ry="2.50034" fill="#D7D7D7"/>
<ellipse cx="261.5" cy="119.5" rx="2.5" ry="2.50034" fill="#D7D7D7"/>
<ellipse cx="281.5" cy="119.5" rx="2.5" ry="2.50034" fill="#D7D7D7"/>
<ellipse cx="300.5" cy="119.5" rx="2.5" ry="2.50034" fill="#D7D7D7"/>
<ellipse cx="320.5" cy="119.5" rx="2.5" ry="2.50034" fill="#D7D7D7"/>
<ellipse cx="144.5" cy="139.5" rx="2.5" ry="2.50034" fill="#D7D7D7"/>
<ellipse cx="164.5" cy="139.5" rx="2.5" ry="2.50034" fill="#D7D7D7"/>
<ellipse cx="183.5" cy="139.5" rx="2.5" ry="2.50034" fill="#D7D7D7"/>
<ellipse cx="203.5" cy="139.5" rx="2.5" ry="2.50034" fill="#D7D7D7"/>
<ellipse cx="222.5" cy="139.5" rx="2.5" ry="2.50034" fill="#D7D7D7"/>
<ellipse cx="242.5" cy="139.5" rx="2.5" ry="2.50034" fill="#D7D7D7"/>
<ellipse cx="261.5" cy="139.5" rx="2.5" ry="2.50034" fill="#D7D7D7"/>
<ellipse cx="281.5" cy="139.5" rx="2.5" ry="2.50034" fill="#D7D7D7"/>
<ellipse cx="300.5" cy="139.5" rx="2.5" ry="2.50034" fill="#D7D7D7"/>
<ellipse cx="320.5" cy="139.5" rx="2.5" ry="2.50034" fill="#D7D7D7"/>
<ellipse cx="164.5" cy="158.5" rx="2.5" ry="2.50034" fill="#D7D7D7"/>
<ellipse cx="183.5" cy="158.5" rx="2.5" ry="2.50034" fill="#D7D7D7"/>
<ellipse cx="203.5" cy="158.5" rx="2.5" ry="2.50034" fill="#D7D7D7"/>
<ellipse cx="222.5" cy="158.5" rx="2.5" ry="2.50034" fill="#D7D7D7"/>
<ellipse cx="242.5" cy="158.5" rx="2.5" ry="2.50034" fill="#D7D7D7"/>
<ellipse cx="261.5" cy="158.5" rx="2.5" ry="2.50034" fill="#D7D7D7"/>
<ellipse cx="281.5" cy="158.5" rx="2.5" ry="2.50034" fill="#D7D7D7"/>
<ellipse cx="300.5" cy="158.5" rx="2.5" ry="2.50034" fill="#D7D7D7"/>
<ellipse cx="203.5" cy="178.5" rx="2.5" ry="2.50034" fill="#D7D7D7"/>
<ellipse cx="222.5" cy="178.5" rx="2.5" ry="2.50034" fill="#D7D7D7"/>
<ellipse cx="242.5" cy="178.5" rx="2.5" ry="2.50034" fill="#D7D7D7"/>
<ellipse cx="261.5" cy="178.5" rx="2.5" ry="2.50034" fill="#D7D7D7"/>
<path fill-rule="evenodd" clip-rule="evenodd" d="M243.225 561.453C183.188 559.523 116.514 568.596 70.0242 533.993C24.1687 499.862 19.9684 439.44 8.31192 386.603C-1.98316 339.937 -2.96852 294.079 6.78015 247.316C17.9191 193.883 21.2167 131.755 68.4038 98.3499C115.857 64.756 184.13 90.0568 243.225 79.9275C322.815 66.2852 397.404 3.7358 473.518 28.9102C551.952 54.8517 603.646 131.204 622.081 205.232C639.821 276.472 606.656 348.88 569.301 413.542C536.852 469.713 487.991 517.104 425.557 545.424C369.545 570.832 305.778 563.464 243.225 561.453Z" fill="#E5D7CA"/>
<g clip-path="url(#clip0)">
<path d="M176.644 361.921C175.916 361.648 175.256 361.219 174.712 360.663C174.167 360.108 173.751 359.44 173.492 358.706C173.234 357.972 173.139 357.19 173.215 356.416C173.292 355.642 173.536 354.893 173.933 354.224L161.727 339.782L171.48 338.616L181.576 352.508C182.656 353.249 183.426 354.361 183.742 355.632C184.057 356.903 183.896 358.246 183.288 359.406C182.68 360.567 181.668 361.463 180.444 361.927C179.219 362.39 177.867 362.388 176.644 361.921V361.921Z" fill="#FFB6B6"/>
<path d="M126.388 497.274L132.873 497.273L135.958 472.245L126.387 472.245L126.388 497.274Z" fill="#FFB6B6"/>
<path d="M124.734 495.155L126.56 495.155L133.686 492.255L137.506 495.155H137.506C139.665 495.155 141.735 496.013 143.261 497.54C144.788 499.067 145.645 501.138 145.645 503.298V503.563L124.735 503.563L124.734 495.155Z" fill="#2F2E41"/>
<path d="M151.52 493.185L157.845 494.614L166.364 470.88L157.028 468.771L151.52 493.185Z" fill="#FFB6B6"/>
<path d="M150.374 490.753L152.155 491.156L159.745 489.898L162.832 493.568L162.833 493.568C164.938 494.044 166.768 495.337 167.921 497.163C169.074 498.989 169.454 501.198 168.979 503.305L168.92 503.563L148.523 498.955L150.374 490.753Z" fill="#2F2E41"/>
<path d="M114.516 368.532L120.38 434.273C120.38 434.273 118.183 473.741 125.273 487.629H135.556L140.647 430.668L141.286 392.436L163.331 424.691L149.29 486.698L161.946 487.83L184.731 420.538L159.698 357.368L114.516 368.532Z" fill="#2F2E41"/>
<path d="M120.659 263.841C129.011 263.841 135.782 257.066 135.782 248.709C135.782 240.352 129.011 233.577 120.659 233.577C112.306 233.577 105.535 240.352 105.535 248.709C105.535 257.066 112.306 263.841 120.659 263.841Z" fill="#FFB8B8"/>
<path d="M152.408 278.262L134.837 272.935L132.551 265.9L113.709 268.96L109.706 275.828L96.7461 287.885L111.93 356.578L111.47 371.581C111.47 371.581 121.188 375.958 163.332 365.88C163.838 365.759 162.78 365.229 162.78 365.229L152.408 278.262Z" fill="#3F3D56"/>
<path d="M169.095 353.982L148.499 326.386L142.66 277.478L142.83 277.396C144.425 276.628 146.186 276.268 147.954 276.35C149.722 276.432 151.442 276.952 152.959 277.864C154.476 278.776 155.743 280.051 156.645 281.574C157.547 283.098 158.057 284.822 158.128 286.591L159.342 316.813L179.798 343.823L169.095 353.982Z" fill="#3F3D56"/>
<path d="M104.931 257.295C104.826 257.152 104.722 257.006 104.618 256.86C104.577 256.948 104.544 257.039 104.496 257.125L104.931 257.295Z" fill="#2F2E41"/>
<path d="M135.703 237.64C134.692 235.437 132.889 233.695 130.654 232.76C128.438 231.865 125.961 231.867 123.746 232.766C121.747 231.502 119.525 230.5 117.186 230.376C114.846 230.252 112.373 231.12 110.931 233.032C110.609 233.536 110.243 234.012 109.838 234.452C108.679 235.526 106.918 235.371 105.378 235.152C106.069 235.744 106.76 236.337 107.451 236.929C106.615 237.148 105.778 237.366 104.942 237.585C105.918 238.177 106.894 238.77 107.87 239.362C105.036 241.063 103.748 244.778 104.089 248.151C104.41 251.344 105.951 254.265 107.793 256.86C108.528 255.309 108.37 253.452 108.358 251.705C108.345 249.858 108.672 247.761 110.15 246.73C111.148 246.033 112.43 246.002 113.633 246.009C119.701 246.042 125.761 246.421 131.785 247.143C132.603 247.178 133.4 247.409 134.11 247.817C135.442 248.727 135.701 250.603 135.835 252.25C136.539 249.531 136.883 246.732 136.86 243.924C136.919 241.771 136.525 239.63 135.703 237.64Z" fill="#2F2E41"/>
<path d="M134.218 421.332C147.364 421.332 158.021 410.669 158.021 397.515C158.021 384.361 147.364 373.698 134.218 373.698C121.071 373.698 110.414 384.361 110.414 397.515C110.414 410.669 121.071 421.332 134.218 421.332Z" fill="#F0F0F0"/>
<path d="M134.215 373.168C132.992 373.169 131.77 373.261 130.56 373.444C129.941 373.534 129.338 373.65 128.74 373.793C124.349 374.806 120.325 377.02 117.118 380.187C113.911 383.355 111.646 387.352 110.577 391.732C109.508 396.112 109.676 400.704 111.063 404.994C112.45 409.284 115.001 413.105 118.431 416.029C118.838 416.373 119.251 416.706 119.679 417.024C122.767 419.328 126.358 420.865 130.156 421.509C133.954 422.153 137.85 421.885 141.525 420.728C145.199 419.571 148.546 417.557 151.291 414.853C154.035 412.148 156.099 408.83 157.311 405.172C158.524 401.514 158.851 397.62 158.265 393.81C157.68 390.001 156.199 386.385 153.944 383.26C151.688 380.135 148.724 377.591 145.294 375.837C141.865 374.082 138.067 373.168 134.215 373.168H134.215ZM134.215 420.803C129.266 420.808 124.446 419.226 120.462 416.288C120.029 415.971 119.611 415.643 119.203 415.293C115.861 412.472 113.381 408.766 112.048 404.6C110.715 400.433 110.583 395.975 111.666 391.736C112.75 387.498 115.005 383.651 118.174 380.636C121.343 377.622 125.296 375.562 129.582 374.693C130.174 374.571 130.766 374.476 131.37 374.402C132.314 374.285 133.264 374.226 134.215 374.227C140.388 374.227 146.308 376.681 150.673 381.048C155.038 385.415 157.49 391.339 157.49 397.515C157.49 403.691 155.038 409.615 150.673 413.982C146.308 418.35 140.388 420.803 134.215 420.803Z" fill="#3F3D56"/>
<path d="M122.58 392.752H145.855C146.731 392.752 147.441 392.041 147.441 391.164C147.441 390.287 146.731 389.576 145.855 389.576H122.58C121.704 389.576 120.993 390.287 120.993 391.164C120.993 392.041 121.704 392.752 122.58 392.752Z" fill="#59AC80"/>
<path d="M122.58 399.103H145.855C146.731 399.103 147.441 398.392 147.441 397.515C147.441 396.638 146.731 395.927 145.855 395.927H122.58C121.704 395.927 120.993 396.638 120.993 397.515C120.993 398.392 121.704 399.103 122.58 399.103Z" fill="#59AC80"/>
<path d="M122.58 405.454H145.855C146.731 405.454 147.441 404.743 147.441 403.866C147.441 402.989 146.731 402.278 145.855 402.278H122.58C121.704 402.278 120.993 402.989 120.993 403.866C120.993 404.743 121.704 405.454 122.58 405.454Z" fill="#59AC80"/>
<path d="M135.74 380.459C134.971 380.34 134.238 380.054 133.592 379.621C132.946 379.188 132.403 378.619 132 377.953C131.598 377.287 131.346 376.541 131.263 375.768C131.18 374.994 131.267 374.212 131.519 373.475L116.629 361.824L125.94 358.694L138.652 370.238C139.86 370.743 140.841 371.675 141.409 372.855C141.977 374.035 142.092 375.383 141.733 376.643C141.374 377.903 140.566 378.987 139.461 379.69C138.357 380.393 137.033 380.667 135.74 380.459H135.74Z" fill="#FFB6B6"/>
<path d="M105.917 287.691L96.7476 287.885C94.9488 289.543 93.5174 291.56 92.5457 293.806C91.574 296.051 91.0836 298.476 91.1062 300.923V344.275L125.515 373.059L136.641 362.279L111.03 334.36L105.917 287.691Z" fill="#3F3D56"/>
<path d="M517 184.521H176.418V402.771H517V184.521Z" fill="#E6E6E6"/>
<path d="M507.26 211.895H186.156V389.859H507.26V211.895Z" fill="white"/>
<path d="M516.855 184.328H176.273V198.805H516.855V184.328Z" fill="#59AC80"/>
<path d="M187.026 194.413C188.507 194.413 189.707 193.211 189.707 191.729C189.707 190.247 188.507 189.046 187.026 189.046C185.544 189.046 184.344 190.247 184.344 191.729C184.344 193.211 185.544 194.413 187.026 194.413Z" fill="white"/>
<path d="M197.205 194.413C198.686 194.413 199.887 193.211 199.887 191.729C199.887 190.247 198.686 189.046 197.205 189.046C195.724 189.046 194.523 190.247 194.523 191.729C194.523 193.211 195.724 194.413 197.205 194.413Z" fill="white"/>
<path d="M207.385 194.413C208.866 194.413 210.067 193.211 210.067 191.729C210.067 190.247 208.866 189.046 207.385 189.046C205.904 189.046 204.703 190.247 204.703 191.729C204.703 193.211 205.904 194.413 207.385 194.413Z" fill="white"/>
<path d="M380.843 230.36H312.086V269.181H380.843V230.36Z" fill="#59AC80"/>
<path d="M380.843 279.992H312.086V321.762H380.843V279.992Z" fill="#E6E6E6"/>
<path d="M478.083 230.36H395.574V291.822H478.083V230.36Z" fill="#E6E6E6"/>
<path d="M478.083 309.932H395.574V371.394H478.083V309.932Z" fill="#59AC80"/>
<path d="M298.235 230.36H215.727V291.822H298.235V230.36Z" fill="#E6E6E6"/>
<path d="M369.598 159.152L346.094 247.623L347.171 247.909L370.454 160.267L369.598 159.152Z" fill="#3F3D56"/>
<path d="M437.444 340.138L414.16 427.78L415.017 428.895L438.521 340.424L437.444 340.138Z" fill="#3F3D56"/>
<path d="M296.611 329.052H217.265C216.774 329.052 216.304 328.857 215.956 328.51C215.609 328.162 215.414 327.691 215.414 327.2C215.414 326.708 215.609 326.237 215.956 325.89C216.304 325.542 216.774 325.347 217.265 325.347H296.611C297.102 325.347 297.573 325.542 297.92 325.89C298.267 326.237 298.462 326.708 298.462 327.2C298.462 327.691 298.267 328.162 297.92 328.51C297.573 328.857 297.102 329.052 296.611 329.052Z" fill="#E6E6E6"/>
<path d="M296.611 318.467H217.265C216.774 318.467 216.304 318.271 215.956 317.924C215.609 317.577 215.414 317.105 215.414 316.614C215.414 316.123 215.609 315.652 215.956 315.304C216.304 314.957 216.774 314.762 217.265 314.762H296.611C297.102 314.762 297.573 314.957 297.92 315.304C298.267 315.652 298.462 316.123 298.462 316.614C298.462 317.105 298.267 317.577 297.92 317.924C297.573 318.271 297.102 318.467 296.611 318.467Z" fill="#E6E6E6"/>
<path d="M296.611 339.638H217.265C216.774 339.638 216.304 339.442 215.956 339.095C215.609 338.748 215.414 338.276 215.414 337.785C215.414 337.294 215.609 336.823 215.956 336.475C216.304 336.128 216.774 335.933 217.265 335.933H296.611C297.102 335.933 297.573 336.128 297.92 336.475C298.267 336.823 298.462 337.294 298.462 337.785C298.462 338.276 298.267 338.748 297.92 339.095C297.573 339.442 297.102 339.638 296.611 339.638V339.638Z" fill="#E6E6E6"/>
<path d="M296.611 350.223H217.265C216.774 350.223 216.304 350.028 215.956 349.681C215.609 349.333 215.414 348.862 215.414 348.371C215.414 347.879 215.609 347.408 215.956 347.061C216.304 346.713 216.774 346.518 217.265 346.518H296.611C297.102 346.518 297.573 346.713 297.92 347.061C298.267 347.408 298.462 347.879 298.462 348.371C298.462 348.862 298.267 349.333 297.92 349.681C297.573 350.028 297.102 350.223 296.611 350.223V350.223Z" fill="#E6E6E6"/>
<path d="M296.611 360.809H217.265C216.774 360.809 216.304 360.613 215.956 360.266C215.609 359.919 215.414 359.447 215.414 358.956C215.414 358.465 215.609 357.994 215.956 357.646C216.304 357.299 216.774 357.104 217.265 357.104H296.611C297.102 357.104 297.573 357.299 297.92 357.646C298.267 357.994 298.462 358.465 298.462 358.956C298.462 359.447 298.267 359.919 297.92 360.266C297.573 360.613 297.102 360.809 296.611 360.809Z" fill="#E6E6E6"/>
<path d="M296.611 371.394H217.265C216.774 371.394 216.304 371.199 215.956 370.851C215.609 370.504 215.414 370.033 215.414 369.542C215.414 369.05 215.609 368.579 215.956 368.232C216.304 367.884 216.774 367.689 217.265 367.689H296.611C297.102 367.689 297.573 367.884 297.92 368.232C298.267 368.579 298.462 369.05 298.462 369.542C298.462 370.033 298.267 370.504 297.92 370.851C297.573 371.199 297.102 371.394 296.611 371.394Z" fill="#E6E6E6"/>
<path d="M379.26 339.638H313.668C313.177 339.638 312.706 339.442 312.359 339.095C312.011 338.748 311.816 338.276 311.816 337.785C311.816 337.294 312.011 336.823 312.359 336.475C312.706 336.128 313.177 335.933 313.668 335.933H379.26C379.751 335.933 380.222 336.128 380.569 336.475C380.916 336.823 381.111 337.294 381.111 337.785C381.111 338.276 380.916 338.748 380.569 339.095C380.222 339.442 379.751 339.638 379.26 339.638V339.638Z" fill="#E6E6E6"/>
<path d="M379.26 350.223H313.668C313.177 350.223 312.706 350.028 312.359 349.681C312.011 349.333 311.816 348.862 311.816 348.371C311.816 347.879 312.011 347.408 312.359 347.061C312.706 346.713 313.177 346.518 313.668 346.518H379.26C379.751 346.518 380.222 346.713 380.569 347.061C380.916 347.408 381.111 347.879 381.111 348.371C381.111 348.862 380.916 349.333 380.569 349.681C380.222 350.028 379.751 350.223 379.26 350.223V350.223Z" fill="#E6E6E6"/>
<path d="M379.26 360.809H313.668C313.177 360.809 312.706 360.613 312.359 360.266C312.011 359.919 311.816 359.447 311.816 358.956C311.816 358.465 312.011 357.994 312.359 357.646C312.706 357.299 313.177 357.104 313.668 357.104H379.26C379.751 357.104 380.222 357.299 380.569 357.646C380.916 357.994 381.111 358.465 381.111 358.956C381.111 359.447 380.916 359.919 380.569 360.266C380.222 360.613 379.751 360.809 379.26 360.809V360.809Z" fill="#E6E6E6"/>
<path d="M379.26 371.394H313.668C313.177 371.394 312.706 371.199 312.359 370.851C312.011 370.504 311.816 370.033 311.816 369.542C311.816 369.05 312.011 368.579 312.359 368.232C312.706 367.884 313.177 367.689 313.668 367.689H379.26C379.751 367.689 380.222 367.884 380.569 368.232C380.916 368.579 381.111 369.05 381.111 369.542C381.111 370.033 380.916 370.504 380.569 370.851C380.222 371.199 379.751 371.394 379.26 371.394V371.394Z" fill="#E6E6E6"/>
<path d="M371.194 165.164C384.34 165.164 394.998 154.501 394.998 141.347C394.998 128.193 384.34 117.529 371.194 117.529C358.048 117.529 347.391 128.193 347.391 141.347C347.391 154.501 358.048 165.164 371.194 165.164Z" fill="#F0F0F0"/>
<path d="M371.196 117C369.972 117 368.75 117.092 367.541 117.275C366.922 117.365 366.319 117.482 365.721 117.625C361.33 118.637 357.306 120.851 354.099 124.019C350.891 127.186 348.627 131.183 347.558 135.564C346.489 139.944 346.657 144.535 348.043 148.826C349.43 153.116 351.981 156.936 355.412 159.861C355.819 160.205 356.231 160.538 356.66 160.856C359.748 163.159 363.339 164.697 367.137 165.341C370.934 165.984 374.831 165.717 378.505 164.56C382.179 163.402 385.527 161.389 388.271 158.684C391.016 155.98 393.079 152.662 394.292 149.004C395.504 145.345 395.831 141.451 395.246 137.642C394.66 133.832 393.179 130.216 390.924 127.092C388.669 123.967 385.705 121.422 382.275 119.668C378.845 117.914 375.048 116.999 371.196 117V117ZM371.196 164.635C366.247 164.64 361.427 163.058 357.443 160.12C357.009 159.802 356.591 159.474 356.184 159.125C352.842 156.304 350.362 152.598 349.029 148.431C347.696 144.264 347.563 139.806 348.647 135.568C349.73 131.329 351.986 127.482 355.154 124.468C358.323 121.453 362.277 119.393 366.562 118.524C367.154 118.403 367.747 118.307 368.35 118.233C369.294 118.116 370.245 118.058 371.196 118.059C377.369 118.059 383.289 120.512 387.653 124.879C392.018 129.247 394.47 135.17 394.47 141.347C394.47 147.523 392.018 153.446 387.653 157.814C383.289 162.181 377.369 164.635 371.196 164.635V164.635Z" fill="#3F3D56"/>
<path d="M359.556 136.583H382.831C383.707 136.583 384.418 135.872 384.418 134.995C384.418 134.118 383.707 133.407 382.831 133.407H359.556C358.68 133.407 357.97 134.118 357.97 134.995C357.97 135.872 358.68 136.583 359.556 136.583Z" fill="#59AC80"/>
<path d="M359.556 142.934H382.831C383.707 142.934 384.418 142.224 384.418 141.347C384.418 140.47 383.707 139.759 382.831 139.759H359.556C358.68 139.759 357.97 140.47 357.97 141.347C357.97 142.224 358.68 142.934 359.556 142.934Z" fill="#59AC80"/>
<path d="M359.556 149.286H382.831C383.707 149.286 384.418 148.575 384.418 147.698C384.418 146.821 383.707 146.11 382.831 146.11H359.556C358.68 146.11 357.97 146.821 357.97 147.698C357.97 148.575 358.68 149.286 359.556 149.286Z" fill="#59AC80"/>
<path d="M411.397 473.201C424.544 473.201 435.201 462.538 435.201 449.384C435.201 436.23 424.544 425.567 411.397 425.567C398.251 425.567 387.594 436.23 387.594 449.384C387.594 462.538 398.251 473.201 411.397 473.201Z" fill="#F0F0F0"/>
<path d="M411.395 425.037C410.171 425.037 408.95 425.13 407.74 425.313C407.121 425.403 406.518 425.519 405.92 425.662C401.529 426.675 397.505 428.888 394.298 432.056C391.091 435.224 388.826 439.221 387.757 443.601C386.688 447.981 386.856 452.573 388.243 456.863C389.63 461.153 392.18 464.974 395.611 467.898C396.018 468.242 396.431 468.575 396.859 468.893C399.947 471.197 403.538 472.734 407.336 473.378C411.134 474.022 415.03 473.754 418.704 472.597C422.379 471.44 425.726 469.426 428.47 466.722C431.215 464.017 433.278 460.699 434.491 457.041C435.703 453.383 436.03 449.489 435.445 445.679C434.859 441.87 433.378 438.254 431.123 435.129C428.868 432.004 425.904 429.46 422.474 427.705C419.044 425.951 415.247 425.037 411.395 425.037V425.037ZM411.395 472.672C406.446 472.677 401.626 471.095 397.642 468.157C397.208 467.84 396.79 467.512 396.383 467.162C393.041 464.341 390.561 460.635 389.228 456.468C387.895 452.302 387.762 447.844 388.846 443.605C389.929 439.367 392.185 435.519 395.354 432.505C398.522 429.49 402.476 427.431 406.761 426.562C407.354 426.44 407.946 426.345 408.549 426.271C409.493 426.154 410.444 426.095 411.395 426.096C417.568 426.096 423.488 428.549 427.853 432.917C432.218 437.284 434.67 443.208 434.67 449.384C434.67 455.56 432.218 461.484 427.853 465.851C423.488 470.218 417.568 472.672 411.395 472.672Z" fill="#3F3D56"/>
<path d="M399.76 444.62H423.034C423.911 444.62 424.621 443.909 424.621 443.033C424.621 442.156 423.911 441.445 423.034 441.445H399.76C398.883 441.445 398.173 442.156 398.173 443.033C398.173 443.909 398.883 444.62 399.76 444.62Z" fill="#59AC80"/>
<path d="M399.76 450.972H423.034C423.911 450.972 424.621 450.261 424.621 449.384C424.621 448.507 423.911 447.796 423.034 447.796H399.76C398.883 447.796 398.173 448.507 398.173 449.384C398.173 450.261 398.883 450.972 399.76 450.972Z" fill="#59AC80"/>
<path d="M399.76 457.323H423.034C423.911 457.323 424.621 456.612 424.621 455.735C424.621 454.858 423.911 454.147 423.034 454.147H399.76C398.883 454.147 398.173 454.858 398.173 455.735C398.173 456.612 398.883 457.323 399.76 457.323Z" fill="#59AC80"/>
</g>
<defs>
<clipPath id="clip0">
<rect width="476" height="387" fill="white" transform="translate(41 117)"/>
</clipPath>
</defs>
</svg>
