<svg width="562" height="430" viewBox="0 0 562 430" fill="none" xmlns="http://www.w3.org/2000/svg">
    <g class="dots">
<circle cx="81.5" cy="2.5" r="2.5" fill="#D7D7D7"/>
<circle cx="100.5" cy="2.5" r="2.5" fill="#D7D7D7"/>
<circle cx="120.5" cy="2.5" r="2.5" fill="#D7D7D7"/>
<circle cx="139.5" cy="2.5" r="2.5" fill="#D7D7D7"/>
<circle cx="42.5" cy="22.5" r="2.5" fill="#D7D7D7"/>
<circle cx="61.5" cy="22.5" r="2.5" fill="#D7D7D7"/>
<circle cx="81.5" cy="22.5" r="2.5" fill="#D7D7D7"/>
<circle cx="100.5" cy="22.5" r="2.5" fill="#D7D7D7"/>
<circle cx="120.5" cy="22.5" r="2.5" fill="#D7D7D7"/>
<circle cx="139.5" cy="22.5" r="2.5" fill="#D7D7D7"/>
<circle cx="159.5" cy="22.5" r="2.5" fill="#D7D7D7"/>
<circle cx="178.5" cy="22.5" r="2.5" fill="#D7D7D7"/>
<circle cx="22.5" cy="41.5" r="2.5" fill="#D7D7D7"/>
<circle cx="42.5" cy="41.5" r="2.5" fill="#D7D7D7"/>
<circle cx="61.5" cy="41.5" r="2.5" fill="#D7D7D7"/>
<circle cx="81.5" cy="41.5" r="2.5" fill="#D7D7D7"/>
<circle cx="100.5" cy="41.5" r="2.5" fill="#D7D7D7"/>
<circle cx="120.5" cy="41.5" r="2.5" fill="#D7D7D7"/>
<circle cx="139.5" cy="41.5" r="2.5" fill="#D7D7D7"/>
<circle cx="159.5" cy="41.5" r="2.5" fill="#D7D7D7"/>
<circle cx="178.5" cy="41.5" r="2.5" fill="#D7D7D7"/>
<circle cx="198.5" cy="41.5" r="2.5" fill="#D7D7D7"/>
<circle cx="22.5" cy="61.5" r="2.5" fill="#D7D7D7"/>
<circle cx="42.5" cy="61.5" r="2.5" fill="#D7D7D7"/>
<circle cx="61.5" cy="61.5" r="2.5" fill="#D7D7D7"/>
<circle cx="81.5" cy="61.5" r="2.5" fill="#D7D7D7"/>
<circle cx="100.5" cy="61.5" r="2.5" fill="#D7D7D7"/>
<circle cx="120.5" cy="61.5" r="2.5" fill="#D7D7D7"/>
<circle cx="139.5" cy="61.5" r="2.5" fill="#D7D7D7"/>
<circle cx="159.5" cy="61.5" r="2.5" fill="#D7D7D7"/>
<circle cx="178.5" cy="61.5" r="2.5" fill="#D7D7D7"/>
<circle cx="198.5" cy="61.5" r="2.5" fill="#D7D7D7"/>
<circle cx="22.5" cy="80.5" r="2.5" fill="#D7D7D7"/>
<circle cx="42.5" cy="80.5" r="2.5" fill="#D7D7D7"/>
<circle cx="61.5" cy="80.5" r="2.5" fill="#D7D7D7"/>
<circle cx="81.5" cy="80.5" r="2.5" fill="#D7D7D7"/>
<circle cx="100.5" cy="80.5" r="2.5" fill="#D7D7D7"/>
<circle cx="120.5" cy="80.5" r="2.5" fill="#D7D7D7"/>
<circle cx="139.5" cy="80.5" r="2.5" fill="#D7D7D7"/>
<circle cx="159.5" cy="80.5" r="2.5" fill="#D7D7D7"/>
<circle cx="178.5" cy="80.5" r="2.5" fill="#D7D7D7"/>
<circle cx="198.5" cy="80.5" r="2.5" fill="#D7D7D7"/>
<circle cx="22.5" cy="100.5" r="2.5" fill="#D7D7D7"/>
<circle cx="42.5" cy="100.5" r="2.5" fill="#D7D7D7"/>
<circle cx="61.5" cy="100.5" r="2.5" fill="#D7D7D7"/>
<circle cx="81.5" cy="100.5" r="2.5" fill="#D7D7D7"/>
<circle cx="100.5" cy="100.5" r="2.5" fill="#D7D7D7"/>
<circle cx="120.5" cy="100.5" r="2.5" fill="#D7D7D7"/>
<circle cx="139.5" cy="100.5" r="2.5" fill="#D7D7D7"/>
<circle cx="159.5" cy="100.5" r="2.5" fill="#D7D7D7"/>
<circle cx="178.5" cy="100.5" r="2.5" fill="#D7D7D7"/>
<circle cx="198.5" cy="100.5" r="2.5" fill="#D7D7D7"/>
<circle cx="22.5" cy="119.5" r="2.5" fill="#D7D7D7"/>
<circle cx="42.5" cy="119.5" r="2.5" fill="#D7D7D7"/>
<circle cx="61.5" cy="119.5" r="2.5" fill="#D7D7D7"/>
<circle cx="81.5" cy="119.5" r="2.5" fill="#D7D7D7"/>
<circle cx="100.5" cy="119.5" r="2.5" fill="#D7D7D7"/>
<circle cx="120.5" cy="119.5" r="2.5" fill="#D7D7D7"/>
<circle cx="139.5" cy="119.5" r="2.5" fill="#D7D7D7"/>
<circle cx="159.5" cy="119.5" r="2.5" fill="#D7D7D7"/>
<circle cx="178.5" cy="119.5" r="2.5" fill="#D7D7D7"/>
<circle cx="198.5" cy="119.5" r="2.5" fill="#D7D7D7"/>
<circle cx="22.5" cy="139.5" r="2.5" fill="#D7D7D7"/>
<circle cx="42.5" cy="139.5" r="2.5" fill="#D7D7D7"/>
<circle cx="61.5" cy="139.5" r="2.5" fill="#D7D7D7"/>
<circle cx="81.5" cy="139.5" r="2.5" fill="#D7D7D7"/>
<circle cx="100.5" cy="139.5" r="2.5" fill="#D7D7D7"/>
<circle cx="120.5" cy="139.5" r="2.5" fill="#D7D7D7"/>
<circle cx="139.5" cy="139.5" r="2.5" fill="#D7D7D7"/>
<circle cx="159.5" cy="139.5" r="2.5" fill="#D7D7D7"/>
<circle cx="178.5" cy="139.5" r="2.5" fill="#D7D7D7"/>
<circle cx="198.5" cy="139.5" r="2.5" fill="#D7D7D7"/>
<circle cx="42.5" cy="158.5" r="2.5" fill="#D7D7D7"/>
<circle cx="61.5" cy="158.5" r="2.5" fill="#D7D7D7"/>
<circle cx="81.5" cy="158.5" r="2.5" fill="#D7D7D7"/>
<circle cx="100.5" cy="158.5" r="2.5" fill="#D7D7D7"/>
<circle cx="120.5" cy="158.5" r="2.5" fill="#D7D7D7"/>
<circle cx="139.5" cy="158.5" r="2.5" fill="#D7D7D7"/>
<circle cx="159.5" cy="158.5" r="2.5" fill="#D7D7D7"/>
<circle cx="178.5" cy="158.5" r="2.5" fill="#D7D7D7"/>
<circle cx="198.5" cy="158.5" r="2.5" fill="#D7D7D7"/>
<circle cx="61.5" cy="178.5" r="2.5" fill="#D7D7D7"/>
<circle cx="81.5" cy="178.5" r="2.5" fill="#D7D7D7"/>
<circle cx="100.5" cy="178.5" r="2.5" fill="#D7D7D7"/>
<circle cx="120.5" cy="178.5" r="2.5" fill="#D7D7D7"/>
<circle cx="139.5" cy="178.5" r="2.5" fill="#D7D7D7"/>
<circle cx="186.5" cy="218.5" r="2.5" fill="#D7D7D7"/>
<circle cx="178.5" cy="178.5" r="2.5" fill="#D7D7D7"/>
<circle cx="198.5" cy="178.5" r="2.5" fill="#D7D7D7"/>
    </g>
<path fill-rule="evenodd" clip-rule="evenodd" d="M257.803 65.9731C323.939 60.8178 381.027 20.0944 443.806 38.9502C507.021 57.9371 545.507 119.938 558.808 177.067C571.47 231.455 544.477 287.062 512.807 335.201C485.861 376.161 453.092 414.869 394.805 426.279C341.777 432.924 305.613 429.222 257.803 426.279C212.469 423.488 174.821 429.044 134.801 410.265C87.4757 388.057 21.6028 378.413 3.79941 334.201C-13.9896 290.024 35.6232 249.002 50.8001 204.09C66.6177 157.283 46.8658 92.5551 93.8008 65.9731C141.176 39.1416 201.534 70.3593 257.803 65.9731Z" fill="#E5D7CA"/>
<path d="M162.121 223C158.152 201.637 164.703 176.931 182.074 164C181.089 187.612 188.633 210.314 203.023 229C208.599 236.186 215.211 243.888 214.995 253C214.861 258.67 212.03 264.021 208.012 268C203.993 271.979 198.936 275.176 194.045 278L193.047 279C178.709 262.738 166.091 244.363 162.121 223Z" fill="#44715A"/>
<path d="M182.182 164.169C175.031 180.666 173.661 198.647 177.233 216.336C177.936 220.159 179.376 223.962 181.192 227.372C183.065 230.635 184.899 233.567 188.12 235.398C191.091 237.167 194.527 237.931 197.028 240.414C198.29 241.704 199.358 243.72 199.998 245.43C200.637 247.139 201.082 248.616 200.987 250.446C200.868 255.011 198.835 259.392 197.028 263.488C195.022 268.035 192.939 273.424 193.069 278.536C193.085 279.155 192.095 279.154 192.079 278.536C191.853 269.641 198.608 261.99 199.998 253.455C200.646 249.473 199.744 245.507 197.028 242.42C194.653 239.721 191.143 238.165 188.12 236.401C184.952 234.662 182.211 232.444 180.202 229.378C178.223 226.074 177.041 222.138 176.243 218.343C174.314 209.829 173.549 200.971 174.263 192.259C175.025 182.312 177.244 172.277 181.192 163.166C181.436 162.602 182.425 163.609 182.182 164.169Z" fill="white"/>
<path d="M175.552 209.957C172.587 210.157 169.243 209.686 166.848 207.999C164.454 206.313 162.698 203.917 162.013 201.147C161.877 200.586 162.843 199.606 162.98 200.168C163.613 202.749 165.582 205.454 167.815 207.02C170.048 208.586 172.792 209.18 175.552 208.978C176.151 208.935 176.148 209.914 175.552 209.957Z" fill="white"/>
<path d="M187.088 234.858C190.994 230.147 193.137 223.754 193.008 217.467C192.995 216.844 193.981 216.845 193.995 217.467C194.117 224.01 192.149 230.988 188.075 235.881C187.686 236.347 186.702 235.322 187.088 234.858Z" fill="white"/>
<path d="M176.024 183.004C177.236 183.176 177.827 182.497 178.972 182.048C180.117 181.6 181.116 181.1 181.92 180.138C182.331 179.643 183.311 180.602 182.902 181.093C182.009 182.152 181.219 182.505 179.955 183.004C178.69 183.502 176.382 184.136 175.041 183.959C174.914 183.953 175.131 184.054 175.041 183.959C174.952 183.864 175.044 183.137 175.041 183.004C175.043 182.869 174.949 183.098 175.041 183.004C175.133 182.909 175.895 183.003 176.024 183.004Z" fill="white"/>
<path d="M253 181.003C252.756 181.299 252.246 181.699 252.004 182.003C248.746 186.006 245.602 190.528 243.037 195.002C242.834 195.345 243.231 195.654 243.037 196.002C236.975 206.847 232.79 218.706 231.082 230.999C230.407 235.892 230.008 240.061 230.086 244.998C230.194 251.817 231.19 259.725 229.09 265.997C228.878 266.654 228.385 267.371 228.094 267.997L194.221 278.996C194.132 278.982 194.31 279.01 194.221 278.996H193.225C193.203 278.742 193.246 278.25 193.225 277.996C193.211 277.849 193.238 278.144 193.225 277.996C193.218 277.897 193.236 277.085 193.225 276.996C193.222 276.963 193.224 277.022 193.225 276.996C193.213 276.907 193.234 277.078 193.225 276.996C193.124 275.519 192.305 274.481 192.228 272.996C192.226 272.989 192.223 273.006 192.228 272.996C191.65 261.69 192.12 250.033 194.221 238.999C194.284 238.667 194.142 238.336 194.221 237.999C195.195 233.03 196.432 227.745 198.206 223C199.185 220.405 200.953 218.484 202.191 216.001C205.402 209.591 209.102 203.111 214.146 198.002C224.202 187.817 237.841 181.219 252.004 181.003C252.366 180.998 252.635 181.001 253 181.003Z" fill="#44715A"/>
<path d="M253.846 182.052C238.072 190.678 225.672 203.839 217.982 219.978C216.264 223.424 214.554 227.154 213.997 230.957C213.576 234.679 214.445 238.518 215.99 241.936C217.365 245.152 219.412 248.426 219.975 251.917C220.236 253.708 219.48 255.167 218.978 256.907C218.477 258.647 218.162 260.512 216.986 261.897C214.146 265.424 209.969 267.76 206.027 269.882C201.651 272.238 197.036 274.753 194.073 278.864C193.714 279.363 192.718 278.364 193.077 277.866C198.231 270.713 207.732 268.774 213.997 262.895C216.921 260.152 219.354 257.014 218.978 252.915C218.65 249.33 216.415 246.178 214.993 242.934C213.437 239.621 212.81 235.604 213.001 231.955C213.361 228.137 214.367 224.458 215.99 220.976C219.518 213.08 224.12 205.451 229.937 199.019C236.535 191.641 244.139 185.818 252.85 181.054C253.389 180.759 254.382 181.759 253.846 182.052Z" fill="white"/>
<path d="M219.841 213.937C217.143 212.331 215.758 209.859 214.836 207.034C213.914 204.209 213.544 200.86 214.836 198.159C215.1 197.614 216.101 198.599 215.837 199.146C214.628 201.658 214.973 204.405 215.837 207.034C216.701 209.663 218.32 211.469 220.842 212.951C221.389 213.273 220.385 214.257 219.841 213.937Z" fill="white"/>
<path d="M214.176 240.003C220.037 238.772 225.448 235.149 228.943 230.136C229.289 229.639 230.273 230.626 229.928 231.123C226.281 236.332 221.262 239.723 215.161 240.99C214.579 241.11 213.598 240.123 214.176 240.003Z" fill="white"/>
<path d="M237.013 193.036C237.855 193.773 238.792 194.575 239.929 194.872C241.065 195.168 241.685 195.087 242.844 194.872C243.438 194.759 244.406 195.678 243.816 195.789C242.534 196.022 241.185 196.114 239.929 195.789C238.672 195.465 236.979 194.76 236.041 193.954C235.946 193.884 236.057 194.062 236.041 193.954C236.026 193.845 235.969 193.124 236.041 193.036C236.118 192.949 235.918 193.05 236.041 193.036C236.165 193.022 236.914 192.969 237.013 193.036Z" fill="white"/>
<path d="M306.053 64.0674C306.166 64.5588 306.019 65.5613 306.053 66.0641L346.018 88.0282L356.009 83.0364L366 96.0151L350.014 107.996C348.713 108.911 346.617 109.032 345.019 108.994C343.421 108.956 342.277 107.974 341.022 106.997L300.058 76.0478C298.213 76.7217 295.971 76.5281 294.064 76.0478C292.157 75.5674 290.36 74.517 289.068 73.0527C287.776 71.5884 287.289 69.99 287.07 68.0609C286.851 66.1317 287.138 63.7808 288.069 62.0707C289 60.3605 290.314 58.962 292.065 58.0772C293.817 57.1923 296.109 56.8247 298.06 57.0788C300.011 57.3329 301.597 57.7725 303.056 59.0755C304.515 60.3786 305.604 62.1774 306.053 64.0674Z" fill="#FFB6B6"/>
<path d="M346.095 86.0354C346.22 85.4533 346.734 85.5186 347.089 85.0417C347.445 84.5648 347.562 83.3392 348.084 83.0543L365.981 73.1175C368.408 71.2818 371.919 70.7122 374.93 71.1301C377.942 71.548 381.047 73.6711 382.885 76.0985C384.722 78.5259 385.282 81.0286 384.873 84.048C384.464 87.0675 382.319 90.1492 379.902 91.9975L365.981 106.903C365.564 107.327 364.548 107.685 363.993 107.897C363.437 108.108 363.591 107.936 362.998 107.897C362.406 107.857 361.533 107.186 361.01 106.903C360.487 106.62 359.379 106.385 359.021 105.909L347.089 90.0102C346.731 89.5348 346.223 88.6045 346.095 88.0228C345.967 87.4411 345.969 86.6175 346.095 86.0354Z" fill="#3F3D56"/>
<path d="M379.149 28.8864C381.746 20.5069 387.878 12.6824 396.046 9.84965C404.214 7.01692 415.748 11.6694 421.888 17.8651C433.121 29.1985 436.563 67.6816 428.846 79.9852C427.311 79.9029 421.454 80.0441 419.9 79.9852L417.913 71.9697V79.9852C405.786 79.6058 392.775 79.7395 380.143 79.9852C379.011 71.2741 376.552 37.266 379.149 28.8864Z" fill="#2F2E41"/>
<path d="M376 380H364L359 337H376V380Z" fill="#FFB6B6"/>
<path d="M474 373L463 376L447 335L463 331L474 373Z" fill="#FFB6B6"/>
<path d="M411 115L414 122L413 128L364 145L366 117L372 110L411 115Z" fill="#FFB6B6"/>
<path d="M397 55C406.665 55 414 47.665 414 38C414 28.335 406.665 20 397 20C387.335 20 379 28.335 379 38C379 47.665 387.335 55 397 55Z" fill="#FFB7B7"/>
<path d="M384.006 14.9997C387.448 12.9284 390.973 12.0543 395.003 12.0018C399.034 11.9494 403.504 13.0187 407 14.9997C410.495 16.9806 413.01 19.5317 414.997 22.9939C416.984 26.456 418.072 31.0068 417.996 34.9852C408.232 37.4486 398.032 37.8857 387.006 34.9852L384.006 28.9895L383.007 34.9852C379.633 37.3276 376.148 37.336 373.01 34.9852C372.877 31.018 374.12 27.4972 376.009 23.9931C377.898 20.4891 380.599 17.1069 384.006 14.9997Z" fill="#2F2E41"/>
<path d="M381 401H373.048L372.054 393L368.079 401H347.206C346.197 401 345.037 400.602 344.224 400C343.411 399.398 342.536 398.97 342.236 398C341.936 397.03 341.907 395.96 342.236 395C342.565 394.04 343.394 392.577 344.224 392L361.121 381V373L379.012 374L381 401Z" fill="#2F2E41"/>
<path d="M485 390.827L477.002 392.813L474.002 385.861L472.003 394.799L452.006 399.764C451.027 400.017 449.948 400.135 449.007 399.764C448.066 399.394 447.543 398.627 447.007 397.778C446.472 396.929 445.929 395.796 446.008 394.799C446.086 393.802 446.346 392.577 447.007 391.82L461.005 376.924L459.005 368.979L476.002 366L485 390.827Z" fill="#2F2E41"/>
<path d="M470.761 345L438.826 278L427.849 196C434.912 182.864 421.861 156 421.861 156V145L371.963 155C361.571 183.386 356.424 212.771 356.994 243L358.99 352H357.992C356.926 352 355.752 352.245 354.998 353C354.244 353.755 354 354.933 354 356C354 357.067 354.244 358.245 354.998 359C355.752 359.755 356.926 360 357.992 360H377.951C379.017 360 380.191 359.755 380.945 359C381.699 358.245 381.943 357.067 381.943 356C381.943 354.933 381.699 353.755 380.945 353C380.191 352.245 379.017 352 377.951 352L391.922 214L408.888 282L449.804 345C448.77 345.081 447.499 345.224 446.81 346C446.121 346.776 445.771 347.962 445.812 349C445.854 350.038 446.061 351.282 446.81 352C447.559 352.718 448.767 353.003 449.804 353H469.763C470.698 353.001 472.037 352.596 472.757 352C473.478 351.404 473.579 349.919 473.755 349C473.931 348.081 474.205 347.82 473.755 347C473.305 346.18 471.63 345.345 470.761 345Z" fill="#2F2E41"/>
<path d="M426.752 162.815C426.587 162.161 426.276 162.249 425.76 161.818C425.243 161.387 424.444 160.865 423.774 160.821C423.109 153.183 418.977 104.443 418.809 103.006L416.824 75.095C416.777 74.1033 416.523 73.8098 415.831 73.1014C415.138 72.3929 414.831 71.1725 413.845 71.1077H406.895C406.803 71.1046 406.959 71.1743 406.895 71.1077C406.831 71.0411 406.895 71.2004 406.895 71.1077C406.895 70.3621 406.186 69.8029 405.902 69.1141C405.618 68.4252 405.434 67.6477 404.909 67.1204C404.384 66.5932 403.609 65.4121 402.923 65.1268C402.238 64.8415 401.68 65.1268 400.937 65.1268H381.08C379.791 65.1273 378.074 65.2669 377.108 66.1236C376.142 66.9804 376.276 68.8263 376.115 70.1109C376.106 70.1993 375.189 70.052 375.122 70.1109C375.056 70.1698 375.211 70.1129 375.122 70.1109C372.862 70.0641 370.91 70.6593 369.165 72.1045C367.42 73.5497 366.572 75.8469 366.186 78.0854C363.466 93.9854 357.534 129.794 360.229 149.856C361.167 156.84 360.584 167.936 360.229 173.78C360.194 174.345 360.046 174.242 360.229 174.777C360.412 175.312 360.849 176.347 361.222 176.77C360.429 177 359.648 177.048 359.236 177.767C358.824 178.486 359.035 179.953 359.236 180.758C359.443 181.582 360.495 182.315 361.222 182.751C361.949 183.187 362.387 182.959 363.208 182.751L424.767 166.802C425.588 166.594 426.318 166.536 426.752 165.805C427.187 165.075 426.959 163.64 426.752 162.815Z" fill="#3F3D56"/>
<path d="M325.997 279.138C325.986 277.331 325.176 275.516 323.997 274.143C322.819 272.771 321.786 271.437 319.997 271.147L209.999 253.167C208.944 252.993 208.034 252.9 206.999 253.167L180.999 260.159L166 264.155L139 271.147C137.352 271.574 136.042 272.8 135 274.143C133.958 275.487 133 276.441 133 278.139V393.009C133.008 394.762 133.894 396.641 135 398.003C136.106 399.365 137.283 400.628 139 401L250.998 400.001C251.524 400.114 252.46 400.003 252.998 400.001C253.782 400.003 254.25 399.236 254.998 399.002L321.997 401C323.569 400.511 325.03 399.331 325.997 398.003C326.965 396.676 327.016 395.649 326.997 394.008L325.997 279.138Z" fill="white"/>
<path d="M325.997 279.105C325.986 277.3 325.176 275.487 323.997 274.117C322.819 272.746 321.786 271.413 319.997 271.124L209.999 253.167C208.944 252.993 208.034 252.9 206.999 253.167L180.999 260.15L166 264.141L139 271.124C137.352 271.55 136.042 272.775 135 274.117C133.958 275.458 133 276.411 133 278.107V392.831C133.008 394.581 133.894 396.459 135 397.819C136.106 399.179 137.283 400.44 139 400.812L250.998 399.814C251.524 399.927 252.46 399.817 252.998 399.814C253.782 399.816 254.25 399.051 254.998 398.817L321.997 400.812C323.569 400.324 325.03 399.145 325.997 397.819C326.965 396.493 327.016 395.468 326.997 393.829L325.997 279.105ZM320.997 398.817L253.998 400.812C253.049 401.107 252.972 401.015 251.998 400.812L139 398.817C137.712 398.537 136.829 397.842 136 396.822C135.171 395.801 135.006 394.144 135 392.831V278.107C135.001 276.932 135.324 276.078 136 275.114C136.676 274.15 137.892 273.525 139 273.119C139.176 273.053 138.818 273.164 139 273.119L168 265.138L184.999 261.148L206.999 255.162C207.469 255.037 208.513 255.16 208.999 255.162C209.312 255.162 208.69 255.111 208.999 255.162L319.997 273.119C320.883 273.264 321.271 273.593 321.997 274.117C322.724 274.64 323.582 275.32 323.997 276.112C324.413 276.915 323.992 278.201 323.997 279.105L324.997 393.829C325.011 395.058 324.723 395.827 323.997 396.822C323.272 397.816 322.176 398.45 320.997 398.817Z" fill="#CCCCCC"/>
<path d="M322.936 277.061C322.862 277.109 322.023 277.038 321.937 277.061L289.962 286.028L279.97 288.021L251.991 295.991C251.91 296.011 251.076 295.99 250.992 295.991C250.935 295.99 251.049 295.999 250.992 295.991L136.082 275.068C135.833 275.021 135.227 275.276 135.083 275.068C134.94 274.859 135.038 274.321 135.083 274.072C135.129 273.823 134.875 273.22 135.083 273.075C135.291 272.931 135.833 273.031 136.082 273.075H138.081L250.992 293.999L275.973 287.024L289.962 284.035L320.937 275.068H321.937C322.154 275.011 321.733 274.973 321.937 275.068C322.14 275.163 322.841 274.864 322.936 275.068C322.961 275.117 322.922 276.011 322.936 276.064C322.988 276.264 323.014 275.873 322.936 276.064C322.858 276.256 323.113 276.954 322.936 277.061Z" fill="#CCCCCC"/>
<path d="M252 400C251.452 400 251.005 399.31 251 402L250 298C249.995 294.261 250.448 294.005 251 294C251.548 294 251.995 294.264 252 298L253 402C253.005 399.313 252.552 399.995 252 400Z" fill="#CCCCCC"/>
<path d="M291 401H281L276 287L168 265C167.894 264.981 168.103 265.032 168 265C167.17 264.764 166.502 264.701 166 264L181 260L185 261L288 281C288.539 281.106 288.555 281.679 289 282C289.445 282.321 289.73 282.522 290 283C290.319 283.555 290.994 400.337 291 401Z" fill="#CCCCCC"/>
<path d="M373 70.0901C372.991 68.7363 372.886 68.1241 372 67.0957C371.113 66.0672 370.345 65.3166 369 65.0994L286 51.1253C285.206 50.9947 283.779 50.9253 283 51.1253L264 56.116L253 59.1105L232 64.1012C230.76 64.4211 229.784 65.0911 229 66.0975C228.216 67.1039 228 68.8177 228 70.0901V136.966C228.006 138.279 228.168 139.938 229 140.959C229.832 141.979 231.708 142.676 233 142.955L317 160.922C317.396 161.006 317.595 160.924 318 160.922C318.59 160.923 319.437 161.097 320 160.922L370 144.951C371.182 144.585 372.271 143.95 373 142.955C373.728 141.96 374.013 140.192 374 138.962L373 70.0901Z" fill="white"/>
<path d="M285.013 56.0068C284.952 56.0067 285.071 55.9915 285.013 56.0068L234.045 69.0028C233.891 69.0428 233.144 68.877 233.046 69.0028C232.948 69.1287 233.046 69.8433 233.046 70.0025V136.982C233.047 137.147 232.942 137.854 233.046 137.982C233.15 138.11 233.884 137.947 234.045 137.982L317.992 155.976C318.114 156.002 317.873 156.013 317.992 155.976L367.96 139.981C368.107 139.935 368.868 140.106 368.959 139.981C369.05 139.857 368.961 140.135 368.959 139.981L367.96 70.0025C367.959 69.8331 368.071 70.1312 367.96 70.0025C367.849 69.8739 368.128 70.0297 367.96 70.0025L285.013 56.0068C285.052 56.0069 284.974 56.0007 285.013 56.0068Z" fill="#59AC80"/>
<path d="M373 70.0901C372.991 68.7363 372.886 68.1241 372 67.0957C371.113 66.0672 370.345 65.3166 369 65.0994L286 51.1253C285.206 50.9947 283.779 50.9253 283 51.1253L264 56.116L253 59.1105L232 64.1012C230.76 64.4211 229.784 65.0911 229 66.0975C228.216 67.1039 228 68.8177 228 70.0901V136.966C228.006 138.279 228.168 139.938 229 140.959C229.832 141.979 231.708 142.676 233 142.955L317 160.922C317.396 161.006 317.595 160.924 318 160.922C318.59 160.923 319.437 161.097 320 160.922L370 144.951C371.182 144.585 372.271 143.95 373 142.955C373.728 141.96 374.013 140.192 374 138.962L373 70.0901ZM370 143.953L319 158.925C318.285 159.147 317.733 159.077 317 158.925L233 141.957C232.031 141.747 230.624 140.726 230 139.961C229.376 139.195 229.004 137.951 229 136.966V70.0901C229.001 69.2082 229.492 67.8187 230 67.0957C230.508 66.3726 231.166 66.4019 232 66.0975C232.132 66.0482 232.863 66.1311 233 66.0975L254 60.1086L267 57.1142L284 53.1216C284.353 53.0278 284.634 52.1218 285 52.1234C285.236 52.1233 285.767 52.0851 286 52.1234L368 66.0975C368.666 66.2061 369.452 66.7028 370 67.0957C370.547 67.4885 371.687 67.4995 372 68.0938C372.312 68.6963 371.995 69.4122 372 70.0901L373 138.962C373.01 139.885 372.546 141.21 372 141.957C371.454 142.703 370.886 143.678 370 143.953Z" fill="#3F3D56"/>
<path d="M371.945 68.0447C371.889 68.0807 371.011 68.0278 370.946 68.0447L346.966 74.0228L339.972 76.0155L317.99 81.9936C317.928 82.0084 318.053 81.9928 317.99 81.9936C317.946 81.9928 318.033 81.9991 317.99 81.9936L231.062 66.052C230.874 66.0176 230.171 66.2062 230.063 66.052C229.954 65.8978 230.028 66.2361 230.063 66.052C230.097 65.8678 229.906 65.1624 230.063 65.0556C230.22 64.9488 230.874 65.0228 231.062 65.0556H233.06L317.99 80.9973L335.975 76.0155L346.966 73.0264L370.946 67.0483V66.052C371.11 66.0096 371.791 65.9815 371.945 66.052C372.099 66.1225 371.873 66.8977 371.945 67.0483C371.964 67.0843 371.935 67.0093 371.945 67.0483C371.985 67.1963 372.004 66.9067 371.945 67.0483C371.886 67.19 372.079 67.9659 371.945 68.0447Z" fill="#3F3D56"/>
<path d="M318 160.94C317.833 160.94 318.118 161.073 318 160.94C317.882 160.806 318.002 160.131 318 159.941L317.052 82.0586C317.051 81.8678 316.935 81.1963 317.052 81.0601C317.17 80.924 317.832 81.0619 318 81.0601C318.167 81.0601 317.882 80.9266 318 81.0601C318.118 81.1937 317.998 81.8689 318 82.0586L318.948 159.941C318.949 160.132 319.065 160.804 318.948 160.94C318.83 161.076 318.168 160.938 318 160.94Z" fill="#3F3D56"/>
<path d="M346.894 152L338.903 154L335.907 76L254.998 60C254.918 59.9859 255.075 60.0244 254.998 60C254.373 59.8217 253.378 59.5299 253 59L263.988 56L266.984 57L344.896 72C345.302 72.0803 345.56 72.7571 345.895 73C346.231 73.2429 346.691 72.6389 346.894 73C347.135 73.4193 346.889 151.499 346.894 152Z" fill="#3F3D56"/>
<path d="M344.072 106.944C344.459 107.269 344.741 107.559 345.071 107.94L390.023 102.96L395.017 93L411 97.9799L405.006 115.907C404.517 117.397 403.311 118.988 402.01 119.891C400.709 120.794 399.606 120.932 398.014 120.887L346.07 119.891C345.001 121.507 342.89 122.147 341.076 122.879C339.261 123.611 337.997 124.286 336.081 123.875C334.165 123.464 332.425 122.296 331.086 120.887C329.748 119.479 328.376 117.814 328.09 115.907C327.803 114.001 328.221 111.66 329.089 109.932C329.956 108.203 331.371 106.885 333.084 105.948C334.798 105.01 337.126 104.766 339.078 104.952C341.03 105.137 342.573 105.701 344.072 106.944Z" fill="#FFB6B6"/>
<path d="M388.113 101.809C387.86 101.26 388.112 100.39 388.113 99.786C388.115 99.1825 387.858 98.3109 388.113 97.7629L397.234 78.5436C398.111 75.58 400.578 72.9485 403.315 71.4629C406.052 69.9772 409.437 69.5916 412.435 70.4513C415.434 71.3111 418.02 73.8174 419.529 76.5206C421.039 79.2238 421.404 82.6562 420.543 85.6244L417.503 105.855C417.419 106.453 416.817 107.369 416.489 107.878C416.161 108.387 415.988 108.562 415.476 108.89C414.963 109.217 414.053 109.815 413.449 109.901C412.845 109.988 412.008 110.071 411.422 109.901L391.154 103.832C390.568 103.663 389.588 103.216 389.127 102.821C388.666 102.425 388.366 102.359 388.113 101.809Z" fill="#3F3D56"/>
<path d="M139 300C155.016 300 168 287.016 168 271C168 254.984 155.016 242 139 242C122.984 242 110 254.984 110 271C110 287.016 122.984 300 139 300Z" fill="#59AC80"/>
<path d="M134.987 285.893C134.491 285.893 134.434 286.115 133.99 285.893C133.546 285.672 133.29 285.295 132.992 284.899L125.013 273.961C124.504 273.284 123.895 272.809 124.015 271.972C124.135 271.135 124.334 270.49 125.013 269.983C125.691 269.476 127.166 268.869 128.005 268.989C128.844 269.108 129.491 269.307 130 269.983L134.987 276.944L147.954 257.056C148.186 256.706 148.602 257.29 148.951 257.056C149.3 256.822 149.536 256.144 149.949 256.061C150.361 255.979 150.533 255.98 150.946 256.061C151.359 256.143 152.591 256.823 152.941 257.056C153.291 257.289 152.707 256.707 152.941 257.056C153.175 257.405 153.856 258.633 153.938 259.045C154.02 259.456 154.021 259.628 153.938 260.039C153.856 260.45 153.175 260.685 152.941 261.033L137.979 284.899C137.696 285.323 137.429 285.647 136.982 285.893C136.535 286.14 135.498 285.879 134.987 285.893C135.017 285.893 134.957 285.894 134.987 285.893Z" fill="white"/>
<path d="M261.917 116.914C261.829 116.914 262.003 116.934 261.917 116.914L237.085 111.047C236.78 110.978 236.259 111.31 236.092 111.047C235.925 110.784 236.023 110.373 236.092 110.069C236.161 109.766 236.82 109.258 237.085 109.091C237.35 108.925 236.779 109.023 237.085 109.091L261.917 114.959C262.201 115.022 262.742 114.724 262.91 114.959C263.079 115.194 262.943 115.65 262.91 115.937C262.878 116.223 263.127 116.722 262.91 116.914C262.694 117.107 262.208 116.914 261.917 116.914Z" fill="white"/>
<path d="M174.916 358.991C174.829 359.01 175.006 358.993 174.916 358.991H149.093C148.776 358.985 148.321 358.262 148.1 358.028C147.88 357.794 148.095 357.39 148.1 357.065C148.106 356.74 147.872 356.328 148.1 356.102C148.328 355.875 148.776 356.097 149.093 356.102H174.916C175.211 356.107 175.693 356.86 175.91 357.065C176.126 357.27 175.882 357.728 175.91 358.028C175.938 358.328 176.085 357.785 175.91 358.028C175.735 358.271 175.205 358.93 174.916 358.991Z" fill="#E6E6E6"/>
<path d="M161.167 336.439C161.167 337.387 161.002 338.263 160.672 339.067C160.348 339.865 159.889 340.558 159.295 341.146C158.701 341.728 157.984 342.184 157.144 342.514C156.31 342.838 155.383 343 154.363 343H149.269V329.887H154.363C155.383 329.887 156.31 330.052 157.144 330.382C157.984 330.712 158.701 331.168 159.295 331.75C159.889 332.332 160.348 333.025 160.672 333.829C161.002 334.627 161.167 335.497 161.167 336.439ZM158.053 336.439C158.053 335.791 157.969 335.206 157.801 334.684C157.633 334.162 157.39 333.721 157.072 333.361C156.76 332.995 156.376 332.716 155.92 332.524C155.464 332.326 154.945 332.227 154.363 332.227H152.329V340.66H154.363C154.945 340.66 155.464 340.564 155.92 340.372C156.376 340.174 156.76 339.895 157.072 339.535C157.39 339.169 157.633 338.725 157.801 338.203C157.969 337.681 158.053 337.093 158.053 336.439ZM178.532 336.439C178.532 337.387 178.367 338.269 178.037 339.085C177.713 339.901 177.254 340.612 176.66 341.218C176.066 341.818 175.349 342.289 174.509 342.631C173.675 342.973 172.748 343.144 171.728 343.144C170.708 343.144 169.778 342.973 168.938 342.631C168.098 342.289 167.378 341.818 166.778 341.218C166.184 340.612 165.722 339.901 165.392 339.085C165.068 338.269 164.906 337.387 164.906 336.439C164.906 335.491 165.068 334.609 165.392 333.793C165.722 332.977 166.184 332.269 166.778 331.669C167.378 331.069 168.098 330.598 168.938 330.256C169.778 329.914 170.708 329.743 171.728 329.743C172.748 329.743 173.675 329.917 174.509 330.265C175.349 330.607 176.066 331.078 176.66 331.678C177.254 332.278 177.713 332.986 178.037 333.802C178.367 334.618 178.532 335.497 178.532 336.439ZM175.418 336.439C175.418 335.791 175.334 335.209 175.166 334.693C174.998 334.171 174.755 333.73 174.437 333.37C174.125 333.01 173.741 332.734 173.285 332.542C172.829 332.35 172.31 332.254 171.728 332.254C171.14 332.254 170.615 332.35 170.153 332.542C169.697 332.734 169.31 333.01 168.992 333.37C168.68 333.73 168.44 334.171 168.272 334.693C168.104 335.209 168.02 335.791 168.02 336.439C168.02 337.093 168.104 337.681 168.272 338.203C168.44 338.719 168.68 339.157 168.992 339.517C169.31 339.877 169.697 340.153 170.153 340.345C170.615 340.531 171.14 340.624 171.728 340.624C172.31 340.624 172.829 340.531 173.285 340.345C173.741 340.153 174.125 339.877 174.437 339.517C174.755 339.157 174.998 338.719 175.166 338.203C175.334 337.681 175.418 337.093 175.418 336.439ZM194.471 329.887V343H192.887C192.653 343 192.455 342.964 192.293 342.892C192.137 342.814 191.981 342.682 191.825 342.496L185.642 334.675C185.666 334.909 185.681 335.137 185.687 335.359C185.699 335.575 185.705 335.779 185.705 335.971V343H183.023V329.887H184.625C184.757 329.887 184.868 329.893 184.958 329.905C185.048 329.917 185.129 329.941 185.201 329.977C185.273 330.007 185.342 330.052 185.408 330.112C185.474 330.172 185.549 330.253 185.633 330.355L191.87 338.23C191.84 337.978 191.819 337.735 191.807 337.501C191.795 337.261 191.789 337.036 191.789 336.826V329.887H194.471ZM206.645 337.987L205.43 334.396C205.34 334.168 205.244 333.901 205.142 333.595C205.04 333.283 204.938 332.947 204.836 332.587C204.746 332.953 204.65 333.292 204.548 333.604C204.446 333.916 204.35 334.186 204.26 334.414L203.054 337.987H206.645ZM211.478 343H209.12C208.856 343 208.643 342.94 208.481 342.82C208.319 342.694 208.196 342.535 208.112 342.343L207.338 340.057H202.352L201.578 342.343C201.512 342.511 201.392 342.664 201.218 342.802C201.05 342.934 200.84 343 200.588 343H198.212L203.288 329.887H206.402L211.478 343ZM223.351 332.299H219.661V343H216.619V332.299H212.929V329.887H223.351V332.299ZM230.657 332.227V335.287H234.779V337.537H230.657V340.66H236.039V343H227.597V329.887H236.039V332.227H230.657Z" fill="#E6E6E6"/>
</svg>
