<svg width="663" height="503" viewBox="0 0 663 503" fill="none" xmlns="http://www.w3.org/2000/svg">
<path fill-rule="evenodd" clip-rule="evenodd" d="M0.359548 255.013C-6.25841 322.268 80.0282 359.355 131.533 403.192C170.963 436.752 213.94 462.029 263.028 478.576C312.69 495.316 364.047 510.691 415.086 498.774C468.936 486.2 511.772 450.043 551.176 411.293C598.001 365.248 661.327 320.617 662.966 255.013C664.607 189.297 607.397 137.662 559.127 92.9653C518.102 54.9782 465.434 37.1384 411.527 22.1898C360.022 7.90736 305.06 -11.5854 255.663 8.81465C207.464 28.7201 196.27 90.4017 158.751 126.583C108.602 174.944 7.17727 185.729 0.359548 255.013Z" fill="#E5D7CA"/>
<g clip-path="url(#clip0)">
<path d="M488.938 399.057H478.83L474.02 360.038H488.938V399.057Z" fill="#9E616A"/>
<path d="M494.274 416.585H487.026L485.732 409.736L482.418 416.585H463.193C462.271 416.585 461.374 416.29 460.632 415.744C459.889 415.197 459.341 414.427 459.067 413.547C458.793 412.666 458.807 411.721 459.107 410.849C459.408 409.977 459.979 409.224 460.737 408.7L476.09 398.088V391.164L492.238 392.128L494.274 416.585Z" fill="#2F2E41"/>
<path d="M548.989 386.29L540.878 392.327L513.754 363.888L525.725 354.979L548.989 386.29Z" fill="#9E616A"/>
<path d="M563.721 397.17L557.904 401.499L552.782 396.775L554.207 404.25L538.78 415.732C538.04 416.283 537.144 416.582 536.223 416.587C535.301 416.591 534.402 416.301 533.657 415.758C532.912 415.216 532.36 414.449 532.081 413.569C531.803 412.69 531.812 411.745 532.108 410.872L538.101 393.187L533.972 387.631L547.506 378.76L563.721 397.17Z" fill="#2F2E41"/>
<path d="M500.706 197.735C500.706 197.735 519.884 214.318 511.035 261.592L500.233 307.912L535.463 366.408L524.23 380.085L478.43 316.77L461.833 277.807L457.176 208.459L500.706 197.735Z" fill="#2F2E41"/>
<path d="M470.982 288.91L469.828 306.79L473.358 382.981L489.969 380.085L493.144 325.839L470.982 288.91Z" fill="#2F2E41"/>
<path d="M257.818 408.232L266.857 408.231L271.157 373.337L257.816 373.337L257.818 408.232Z" fill="#FFB6B6"/>
<path d="M255.512 405.278L258.056 405.278L267.989 401.235L273.313 405.277H273.314C276.322 405.277 279.208 406.474 281.335 408.603C283.463 410.732 284.658 413.62 284.658 416.631V417L255.512 417.001L255.512 405.278Z" fill="#2F2E41"/>
<path d="M292.848 402.531L301.664 404.523L313.539 371.434L300.526 368.493L292.848 402.531Z" fill="#FFB6B6"/>
<path d="M291.248 399.141L293.729 399.702L304.308 397.948L308.612 403.065L308.613 403.065C311.547 403.729 314.098 405.532 315.705 408.078C317.312 410.623 317.842 413.704 317.179 416.641L317.098 417.001L288.668 410.576L291.248 399.141Z" fill="#2F2E41"/>
<path d="M246.37 194.904C242.132 207.697 242.58 221.583 247.389 236.486L249.444 320.396C249.444 320.396 246.382 375.422 256.264 394.785H270.597L277.693 315.37L278.584 262.067L309.312 307.037L289.741 393.487L307.381 395.065L339.139 301.247L299.955 210.227L246.37 194.904Z" fill="#2F2E41"/>
<path d="M411.656 158.466C422.619 148.579 438.925 143.608 452.602 149.152C438.572 156.948 427.749 169.46 422.048 184.474C419.871 190.272 418.052 196.948 412.696 200.052C409.364 201.984 405.218 202.078 401.481 201.146C397.745 200.213 394.32 198.344 390.942 196.493L389.98 196.472C394.295 182.348 400.693 168.353 411.656 158.466Z" fill="#E6E6E6"/>
<path d="M452.529 149.452C440.415 151.019 429.102 156.366 420.197 164.734C418.248 166.501 416.59 168.565 415.283 170.849C414.082 173.116 413.509 175.663 413.624 178.225C413.683 180.617 414.021 183.057 413.498 185.421C413.212 186.628 412.675 187.76 411.922 188.744C411.168 189.728 410.215 190.542 409.126 191.131C406.449 192.671 403.379 193.157 400.36 193.527C397.009 193.938 393.521 194.312 390.619 196.194C390.268 196.422 389.935 195.862 390.286 195.635C395.334 192.361 401.721 193.552 407.149 191.367C409.682 190.348 411.923 188.559 412.716 185.853C413.409 183.487 413.064 180.971 412.983 178.55C412.834 176.051 413.299 173.554 414.337 171.277C415.523 168.934 417.099 166.809 418.998 164.995C423.207 160.843 428.042 157.378 433.326 154.729C439.341 151.672 445.833 149.667 452.523 148.801C452.937 148.748 452.94 149.399 452.529 149.452H452.529Z" fill="white"/>
<path d="M422.903 161.871C421.703 160.185 421.141 158.127 421.317 156.064C421.493 154.002 422.396 152.069 423.864 150.612C424.162 150.318 424.633 150.768 424.334 151.062C422.964 152.417 422.123 154.217 421.963 156.138C421.803 158.059 422.335 159.974 423.461 161.537C423.706 161.877 423.146 162.209 422.903 161.871V161.871Z" fill="white"/>
<path d="M413.431 177.017C417.594 177.755 421.882 176.896 425.44 174.61C425.792 174.383 426.125 174.943 425.773 175.169C422.066 177.54 417.602 178.426 413.272 177.648C412.859 177.573 413.02 176.943 413.431 177.017V177.017Z" fill="white"/>
<path d="M439.394 152.533C439.722 153.283 440.231 153.938 440.876 154.442C441.52 154.945 442.279 155.281 443.085 155.418C443.498 155.487 443.336 156.118 442.926 156.049C442.036 155.893 441.198 155.522 440.485 154.967C439.772 154.412 439.206 153.691 438.835 152.867C438.794 152.792 438.782 152.705 438.803 152.622C438.824 152.539 438.876 152.467 438.948 152.421C439.022 152.377 439.11 152.364 439.194 152.385C439.277 152.406 439.349 152.46 439.394 152.533V152.533Z" fill="white"/>
<path d="M467.664 196.832C467.405 196.797 467.145 196.761 466.882 196.729C463.392 196.265 459.871 196.086 456.352 196.193C456.08 196.197 455.804 196.206 455.533 196.217C447.058 196.566 438.722 198.487 430.948 201.881C427.856 203.235 424.871 204.822 422.02 206.628C418.082 209.124 414.01 212.143 409.608 213.161C409.15 213.272 408.685 213.355 408.217 213.409L390.028 197.647C390.005 197.59 389.978 197.538 389.954 197.481L389.199 196.885C389.34 196.781 389.488 196.677 389.628 196.574C389.71 196.513 389.795 196.456 389.876 196.396C389.932 196.357 389.987 196.318 390.035 196.279C390.054 196.266 390.072 196.253 390.087 196.244C390.135 196.206 390.183 196.175 390.228 196.141C391.053 195.556 391.885 194.975 392.722 194.4C392.725 194.396 392.725 194.396 392.733 194.395C399.067 189.948 405.907 186.268 413.108 183.434C413.324 183.352 413.543 183.266 413.767 183.191C417.01 181.985 420.346 181.045 423.742 180.382C425.602 180.025 427.48 179.763 429.367 179.596C434.244 179.174 439.157 179.522 443.925 180.628C453.431 182.834 462.126 188.059 467.276 196.206C467.408 196.414 467.536 196.62 467.664 196.832Z" fill="#E6E6E6"/>
<path d="M467.423 197.028C456.808 190.979 444.559 188.432 432.415 189.748C429.796 189.984 427.23 190.633 424.813 191.669C422.49 192.755 420.501 194.443 419.051 196.559C417.66 198.504 416.461 200.655 414.621 202.228C413.668 203.019 412.558 203.6 411.364 203.932C410.171 204.263 408.921 204.339 407.696 204.153C404.632 203.77 401.889 202.307 399.256 200.784C396.332 199.093 393.322 197.289 389.874 197.043C389.456 197.014 389.527 196.367 389.944 196.396C395.944 196.824 400.327 201.624 405.975 203.15C408.611 203.863 411.477 203.784 413.737 202.102C415.715 200.631 416.952 198.413 418.344 196.432C419.728 194.347 421.601 192.633 423.8 191.44C426.157 190.284 428.693 189.538 431.301 189.233C437.159 188.454 443.104 188.601 448.917 189.67C455.558 190.853 461.948 193.165 467.81 196.504C468.173 196.711 467.784 197.233 467.423 197.028L467.423 197.028Z" fill="white"/>
<path d="M436.301 189.094C436.357 187.024 437.146 185.043 438.527 183.502C439.909 181.961 441.792 180.962 443.841 180.683C444.256 180.628 444.361 181.271 443.946 181.326C442.037 181.582 440.283 182.513 438.999 183.95C437.716 185.388 436.988 187.237 436.948 189.164C436.938 189.582 436.292 189.51 436.301 189.094Z" fill="white"/>
<path d="M419.63 195.48C422.509 198.577 426.45 200.475 430.666 200.794C431.083 200.826 431.013 201.473 430.596 201.441C426.209 201.101 422.113 199.118 419.123 195.888C418.838 195.58 419.347 195.173 419.63 195.48Z" fill="white"/>
<path d="M455.081 191.573C454.893 192.369 454.905 193.2 455.116 193.99C455.328 194.78 455.732 195.505 456.293 196.101C456.582 196.405 456.073 196.811 455.786 196.509C455.17 195.848 454.724 195.047 454.488 194.174C454.253 193.302 454.234 192.385 454.434 191.503C454.446 191.418 454.49 191.342 454.556 191.288C454.623 191.234 454.707 191.208 454.793 191.215C454.878 191.224 454.957 191.267 455.01 191.335C455.064 191.402 455.09 191.487 455.081 191.573V191.573Z" fill="white"/>
<path d="M148.192 407.598C147.338 410.804 145.095 413.474 142.386 415.419C141.944 415.737 141.491 416.031 141.032 416.308C140.89 416.391 140.749 416.479 140.602 416.556C140.443 416.65 140.284 416.739 140.125 416.821H127.388C127.158 416.356 126.935 415.884 126.711 415.419C121.252 403.938 117.419 391.55 118.073 378.932C118.332 374.038 119.359 369.215 121.117 364.641C124.615 355.524 130.998 347.632 139.777 343.66C139.995 343.56 140.225 343.46 140.449 343.365C140.378 343.619 140.307 343.866 140.237 344.12C139.295 347.516 138.629 350.983 138.246 354.486C138.211 354.757 138.182 355.029 138.158 355.306C137.322 363.755 138.064 372.287 140.349 380.465C140.355 380.482 140.36 380.506 140.366 380.524C140.867 382.333 141.448 384.115 142.109 385.869C142.627 387.254 143.187 388.621 143.799 389.965C146.355 395.605 149.782 401.616 148.192 407.598Z" fill="#E6E6E6"/>
<path d="M140.608 343.631C140.485 343.796 140.361 343.955 140.237 344.12C137.651 347.55 135.455 351.259 133.689 355.176C133.595 355.371 133.507 355.565 133.43 355.765C131.011 361.236 129.458 367.049 128.825 372.998C128.819 373.039 128.815 373.08 128.814 373.121C128.666 374.512 128.578 375.915 128.543 377.318C128.412 379.947 128.696 382.58 129.385 385.121C130.013 387.195 131.113 389.095 132.6 390.672C132.747 390.831 132.894 390.99 133.053 391.144C133.171 391.267 133.301 391.391 133.424 391.509C134.614 392.646 135.915 393.701 137.034 394.921C137.547 395.468 138.01 396.06 138.418 396.689C139.069 397.744 139.489 398.925 139.652 400.154C139.814 401.383 139.715 402.633 139.36 403.82C138.559 406.802 136.728 409.319 134.855 411.718C133.919 412.92 132.953 414.134 132.117 415.419C131.811 415.878 131.528 416.344 131.269 416.821H130.527C130.774 416.344 131.045 415.878 131.34 415.419C133.489 412.03 136.545 409.119 138.129 405.388C139.201 402.872 139.525 400.019 138.17 397.55C137.773 396.832 137.293 396.163 136.74 395.558C135.662 394.338 134.372 393.295 133.201 392.193C132.906 391.916 132.618 391.633 132.341 391.338C130.874 389.846 129.741 388.058 129.02 386.093C128.203 383.597 127.816 380.98 127.877 378.355C127.877 376.681 127.966 374.996 128.131 373.322C128.148 373.11 128.172 372.892 128.195 372.674C129.4 362.141 133.399 352.123 139.778 343.66C139.896 343.495 140.019 343.336 140.143 343.177C140.396 342.847 140.861 343.307 140.608 343.631Z" fill="white"/>
<path d="M128.431 373.378C126.391 373.035 124.54 371.978 123.207 370.395C121.875 368.812 121.148 366.806 121.156 364.736C121.157 364.652 121.191 364.571 121.251 364.511C121.31 364.452 121.39 364.417 121.475 364.415C121.559 364.413 121.641 364.444 121.703 364.502C121.765 364.559 121.802 364.638 121.807 364.722C121.795 366.65 122.473 368.518 123.717 369.989C124.961 371.461 126.689 372.439 128.59 372.747C129.003 372.814 128.842 373.445 128.431 373.378V373.378Z" fill="white"/>
<path d="M132.437 390.791C135.902 388.367 138.327 384.724 139.228 380.59C139.317 380.181 139.948 380.34 139.859 380.75C138.913 385.05 136.382 388.835 132.771 391.35C132.426 391.589 132.095 391.029 132.437 390.791L132.437 390.791Z" fill="white"/>
<path d="M133.492 355.107C134.254 355.404 135.077 355.508 135.889 355.408C136.7 355.308 137.474 355.008 138.141 354.534C138.482 354.291 138.813 354.851 138.474 355.093C137.735 355.613 136.88 355.943 135.984 356.056C135.088 356.168 134.178 356.059 133.333 355.738C133.251 355.715 133.181 355.661 133.137 355.587C133.094 355.514 133.079 355.427 133.098 355.343C133.119 355.26 133.173 355.188 133.247 355.144C133.32 355.1 133.409 355.086 133.492 355.107V355.107Z" fill="white"/>
<path d="M184.785 366.421C184.579 366.58 184.367 366.739 184.161 366.904C181.365 369.045 178.748 371.41 176.335 373.976C176.147 374.17 175.958 374.371 175.776 374.571L175.77 374.577C170.049 380.793 165.525 388.014 162.427 395.876L162.409 395.929C162.403 395.947 162.397 395.958 162.391 395.976C161.163 399.123 160.173 402.358 159.429 405.653C158.711 408.871 158.122 412.319 156.997 415.419C156.827 415.896 156.638 416.367 156.438 416.821H130.258C130.346 416.356 130.44 415.884 130.535 415.419C131.866 408.59 133.948 401.929 136.741 395.558C136.835 395.346 136.929 395.133 137.035 394.921C138.477 391.773 140.173 388.748 142.105 385.875C142.105 385.874 142.106 385.873 142.106 385.873C142.106 385.872 142.107 385.871 142.107 385.871C142.108 385.87 142.108 385.87 142.109 385.869C142.11 385.869 142.111 385.869 142.111 385.869C143.172 384.301 144.312 382.789 145.527 381.337C148.676 377.587 152.396 374.357 156.55 371.766C156.573 371.748 156.603 371.736 156.626 371.719C164.894 366.586 174.692 364.14 184.061 366.256H184.067C184.308 366.309 184.544 366.362 184.785 366.421Z" fill="#E6E6E6"/>
<path d="M184.754 366.733C184.554 366.786 184.354 366.845 184.159 366.904C180.032 368.084 176.049 369.719 172.282 371.778C172.094 371.878 171.905 371.984 171.717 372.09C166.511 374.998 161.786 378.694 157.708 383.046C157.705 383.049 157.703 383.053 157.702 383.058C157.655 383.105 157.602 383.158 157.561 383.205C156.619 384.219 155.712 385.274 154.852 386.358C153.171 388.38 151.816 390.653 150.836 393.094C150.088 395.129 149.824 397.31 150.065 399.465C150.083 399.683 150.112 399.895 150.142 400.113C150.165 400.284 150.189 400.455 150.218 400.632C150.607 402.995 151.278 405.364 151.09 407.775C150.975 409.01 150.6 410.207 149.99 411.286C149.38 412.366 148.549 413.305 147.551 414.04C146.872 414.565 146.147 415.026 145.384 415.419C144.293 415.982 143.156 416.451 141.986 416.821H139.672C139.984 416.733 140.29 416.644 140.602 416.556C141.71 416.243 142.797 415.863 143.859 415.419C144.465 415.165 145.055 414.874 145.625 414.546C147.992 413.185 149.965 411.099 150.377 408.311C150.736 405.871 150.041 403.431 149.629 401.045C149.559 400.632 149.494 400.225 149.459 399.819C149.177 397.752 149.348 395.649 149.959 393.654C150.806 391.166 152.073 388.842 153.704 386.782C154.713 385.441 155.79 384.153 156.931 382.922C157.072 382.763 157.22 382.604 157.373 382.445C161.536 378.061 166.343 374.339 171.629 371.407H171.634C175.564 369.217 179.733 367.489 184.059 366.256H184.065C184.259 366.197 184.46 366.138 184.654 366.085C185.06 365.979 185.154 366.621 184.754 366.733Z" fill="white"/>
<path d="M157.139 383.146C155.717 381.643 154.875 379.683 154.763 377.616C154.651 375.55 155.277 373.51 156.529 371.863C156.783 371.53 157.312 371.91 157.057 372.243C155.888 373.775 155.305 375.675 155.413 377.599C155.521 379.524 156.313 381.346 157.646 382.738C157.935 383.04 157.427 383.447 157.139 383.146H157.139Z" fill="white"/>
<path d="M149.862 399.461C154.087 399.614 158.215 398.167 161.421 395.409C161.738 395.136 162.146 395.643 161.829 395.916C158.487 398.78 154.189 400.277 149.792 400.109C149.373 400.092 149.446 399.445 149.862 399.461V399.461Z" fill="white"/>
<path d="M172.172 371.608C172.601 372.304 173.197 372.883 173.904 373.292C174.612 373.701 175.411 373.927 176.228 373.951C176.647 373.962 176.574 374.61 176.158 374.599C175.255 374.568 174.374 374.317 173.591 373.866C172.808 373.416 172.147 372.781 171.665 372.016C171.614 371.948 171.59 371.862 171.6 371.777C171.609 371.692 171.65 371.614 171.715 371.558C171.782 371.505 171.868 371.48 171.954 371.489C172.039 371.498 172.118 371.541 172.172 371.608V371.608Z" fill="white"/>
<path d="M386.74 140.033C386.136 140.828 385.364 141.482 384.481 141.947C383.597 142.412 382.622 142.677 381.624 142.724C380.627 142.771 379.631 142.599 378.708 142.219C377.784 141.839 376.955 141.262 376.278 140.526L354.02 150.215L356.188 137.779L376.992 130.485C378.302 129.43 379.952 128.892 381.632 128.973C383.311 129.054 384.902 129.749 386.103 130.926C387.305 132.103 388.033 133.68 388.151 135.358C388.268 137.037 387.766 138.7 386.74 140.033V140.033Z" fill="#FFB8B8"/>
<path d="M371.887 143.916L320.188 166.964L320.077 166.924L261.153 145.909C256.764 143.613 253.418 139.725 251.8 135.04C250.182 130.356 250.414 125.23 252.449 120.711V120.711C253.577 118.214 255.221 115.985 257.272 114.17C259.322 112.355 261.734 110.996 264.348 110.181C266.962 109.366 269.718 109.114 272.436 109.442C275.154 109.771 277.772 110.671 280.117 112.085L323.968 138.522L366.489 133.007L371.887 143.916Z" fill="#E6E6E6"/>
<path d="M302.51 212.915L250.394 204.572C249.027 204.134 247.771 203.405 246.712 202.435C245.653 201.465 244.817 200.277 244.26 198.953C243.703 197.63 243.439 196.201 243.486 194.765C243.533 193.329 243.889 191.921 244.531 190.636L246.895 185.905L245.977 136.196C245.866 129.73 247.459 123.348 250.595 117.694C253.731 112.04 258.299 107.312 263.84 103.986L268.923 100.944L271.491 94.4164L295.175 94.9945L295.244 103.556L303.725 117.092L303.725 117.148L303.193 190.824L300.855 198.428L304.39 207.271L302.51 212.915Z" fill="#E6E6E6"/>
<path d="M285.503 86.299C297.388 86.299 307.022 76.6566 307.022 64.762C307.022 52.8674 297.388 43.225 285.503 43.225C273.619 43.225 263.984 52.8674 263.984 64.762C263.984 76.6566 273.619 86.299 285.503 86.299Z" fill="#FFB8B8"/>
<path d="M263.096 69.4571C262.454 66.7509 262.749 62.9428 263.112 60.218C264.063 53.0744 268.027 46.2831 274.049 42.2604C275.191 41.3924 276.547 40.8527 277.973 40.6995C279.398 40.64 280.942 41.4033 281.379 42.7617C281.738 41.8652 282.277 41.0518 282.962 40.3717C283.647 39.6917 284.464 39.1594 285.363 38.8078C287.169 38.1155 289.11 37.8537 291.034 38.0431C294.764 38.3508 298.34 39.6632 301.384 41.8411C304.428 44.019 306.827 46.9811 308.325 50.4131C308.899 51.7797 310.505 46.7319 311.233 48.0232C311.902 49.3653 313.07 50.392 314.486 50.8835C315.913 51.282 316.492 57.1661 317.054 55.794C317.49 56.808 317.662 57.9159 317.554 59.0144C317.447 60.1129 317.064 61.1664 316.44 62.0768C315.817 62.9871 314.973 63.7247 313.988 64.2209C313.002 64.717 311.908 64.9555 310.806 64.9142C309.353 64.8599 307.965 64.3252 306.53 64.0951C301.398 63.2721 295.954 66.9965 294.857 72.081C294.464 70.6106 293.837 69.2134 292.999 67.9432C292.573 67.3115 292.003 66.7905 291.336 66.4237C290.669 66.0569 289.924 65.8548 289.163 65.8342C287.703 65.8888 286.42 66.8442 285.473 67.9575C284.525 69.0708 283.814 70.3697 282.859 71.477C280.059 74.726 276.272 82.3031 272.281 81.7504C269.132 81.3144 263.973 73.152 263.096 69.4571Z" fill="#2F2E41"/>
<path d="M415.58 164.438C415.731 163.456 415.529 162.453 415.011 161.605C414.493 160.758 413.692 160.122 412.749 159.809L354.799 140.492C354.244 140.306 353.655 140.239 353.072 140.294L338.547 141.669L330.213 142.46L314.833 143.915C313.904 144.004 313.031 144.398 312.351 145.037C311.671 145.676 311.222 146.523 311.074 147.445L303.265 196.264C303.117 197.217 303.298 198.191 303.778 199.026C304.258 199.861 305.009 200.508 305.906 200.859L364.461 223.48C364.736 223.587 365.021 223.664 365.312 223.709C365.736 223.778 366.169 223.781 366.594 223.719L404.43 218.106C405.323 217.977 406.15 217.563 406.789 216.926C407.427 216.29 407.844 215.464 407.977 214.571L415.58 164.438Z" fill="white"/>
<path d="M307.235 197.419L365.79 220.039C365.875 220.073 365.968 220.084 366.059 220.071L403.89 214.459C404.002 214.444 404.107 214.392 404.187 214.312C404.267 214.232 404.319 214.128 404.335 214.016L411.943 163.883C411.96 163.76 411.934 163.636 411.87 163.53C411.805 163.425 411.706 163.345 411.59 163.304L411.2 163.172L353.636 143.992C353.61 143.982 353.582 143.976 353.555 143.972C353.51 143.964 353.465 143.962 353.419 143.965L317.992 147.32L315.181 147.584C315.065 147.597 314.957 147.646 314.873 147.726C314.788 147.806 314.732 147.911 314.713 148.025L306.905 196.843C306.886 196.962 306.908 197.084 306.968 197.189C307.028 197.294 307.122 197.375 307.235 197.419V197.419Z" fill="#59AC80"/>
<path d="M317.992 147.32L353.42 143.965C353.465 143.962 353.51 143.964 353.555 143.972C353.583 143.976 353.61 143.982 353.636 143.992L411.2 163.172L396.016 164.781L390.333 165.38L374.163 167.09C374.116 167.092 374.069 167.092 374.022 167.088C373.993 167.08 373.964 167.071 373.929 167.062L317.992 147.32Z" fill="#2F2E41"/>
<path d="M305.908 200.862L364.463 223.482C364.738 223.589 365.025 223.664 365.317 223.706C365.741 223.776 366.173 223.782 366.599 223.722L404.431 218.11C405.323 217.98 406.151 217.566 406.79 216.929C407.429 216.291 407.847 215.465 407.98 214.572L415.582 164.438C415.695 163.699 415.61 162.943 415.336 162.248C415.297 162.155 415.259 162.063 415.214 161.975C414.912 161.34 414.454 160.793 413.881 160.386C413.536 160.138 413.156 159.944 412.753 159.81L412.684 159.786L354.806 140.492C354.569 140.417 354.328 140.358 354.083 140.316C353.748 140.269 353.409 140.262 353.073 140.297L338.551 141.667L330.217 142.462L314.834 143.916C314.205 143.975 313.597 144.176 313.057 144.504C313.015 144.524 312.975 144.548 312.938 144.575C312.911 144.593 312.885 144.612 312.861 144.633C312.389 144.956 311.988 145.371 311.681 145.853C311.375 146.336 311.17 146.876 311.079 147.441L303.265 196.264C303.117 197.217 303.299 198.192 303.779 199.028C304.26 199.864 305.01 200.511 305.908 200.862V200.862ZM312.116 147.611C312.21 147.026 312.47 146.48 312.863 146.036C312.982 145.894 313.116 145.764 313.261 145.648C313.658 145.327 314.128 145.108 314.629 145.009C314.728 144.989 314.828 144.975 314.929 144.967L340.829 142.518L353.174 141.343C353.258 141.333 353.335 141.334 353.412 141.33C353.599 141.326 353.786 141.34 353.97 141.371C354.14 141.393 354.306 141.433 354.468 141.49L412.415 160.808C412.461 160.824 412.501 160.84 412.547 160.856C413.073 161.052 413.536 161.389 413.885 161.831C414.161 162.168 414.362 162.561 414.476 162.982C414.589 163.403 414.613 163.843 414.545 164.274L406.937 214.413C406.837 215.082 406.525 215.7 406.047 216.178C405.569 216.656 404.95 216.967 404.282 217.066L366.444 222.677C365.903 222.755 365.351 222.692 364.841 222.494L306.285 199.88C305.614 199.615 305.053 199.13 304.694 198.504C304.334 197.878 304.198 197.148 304.307 196.435L312.116 147.611Z" fill="#3F3D56"/>
<path d="M312.735 144.899C312.766 144.81 312.821 144.732 312.893 144.672C312.917 144.653 312.942 144.635 312.969 144.62C312.994 144.61 313.019 144.595 313.043 144.585C313.161 144.538 313.292 144.536 313.411 144.579L314.63 145.009L374.171 166.031L388.106 164.557L395.904 163.734L412.409 161.985L413.885 161.83L414.172 161.799C414.296 161.787 414.42 161.82 414.522 161.89C414.624 161.96 414.699 162.064 414.733 162.184C414.741 162.211 414.746 162.24 414.748 162.268C414.761 162.382 414.736 162.496 414.677 162.594C414.619 162.692 414.53 162.768 414.424 162.812C414.378 162.831 414.329 162.844 414.279 162.851L412.271 163.061L396.017 164.781L390.335 165.38L374.165 167.09C374.117 167.092 374.07 167.092 374.023 167.088C373.994 167.08 373.965 167.071 373.931 167.062L313.261 145.648L313.055 145.575C313.008 145.56 312.964 145.535 312.926 145.504C312.834 145.436 312.766 145.341 312.732 145.233C312.698 145.124 312.699 145.007 312.735 144.899Z" fill="#3F3D56"/>
<path d="M365.474 223.86C365.337 223.838 365.215 223.762 365.133 223.65C365.051 223.538 365.016 223.398 365.037 223.261L373.585 166.487C373.606 166.349 373.681 166.225 373.793 166.142C373.906 166.059 374.046 166.024 374.184 166.045L374.189 166.046C374.326 166.068 374.449 166.143 374.531 166.255C374.613 166.367 374.647 166.507 374.626 166.644L366.078 223.418C366.057 223.556 365.982 223.68 365.87 223.763C365.758 223.846 365.617 223.881 365.479 223.86L365.474 223.86Z" fill="#3F3D56"/>
<path d="M387.142 220.258L381.457 220.858L388.107 164.556C388.107 164.556 395.7 163.18 395.903 163.732C396.028 164.061 387.196 219.897 387.142 220.258Z" fill="#3F3D56"/>
<path d="M313.055 145.575L312.902 171.25L358.318 188.57L374.627 166.644L313.055 145.575Z" fill="#3F3D56"/>
<path d="M413.886 161.831C413.506 161.354 412.995 160.998 412.415 160.808L354.469 141.491C354.307 141.436 354.14 141.395 353.97 141.369C353.785 141.337 353.598 141.323 353.41 141.327L353.504 140.739L354.084 140.319L367.845 130.348L413.798 144.443L413.878 160.386L413.886 161.831Z" fill="#3F3D56"/>
<path d="M315.369 186.793C315.434 186.799 315.499 186.813 315.561 186.833L333.34 192.678C333.563 192.751 333.747 192.909 333.853 193.119C333.959 193.328 333.977 193.571 333.904 193.793C333.831 194.016 333.673 194.201 333.464 194.307C333.255 194.412 333.012 194.431 332.789 194.358L315.01 188.513C314.804 188.445 314.629 188.304 314.521 188.115C314.412 187.927 314.377 187.705 314.421 187.492C314.465 187.28 314.587 187.091 314.761 186.962C314.936 186.832 315.153 186.772 315.369 186.793H315.369Z" fill="white"/>
<path d="M387.105 294.503C391.008 294.503 394.171 291.337 394.171 287.431C394.171 283.525 391.008 280.359 387.105 280.359C383.203 280.359 380.039 283.525 380.039 287.431C380.039 291.337 383.203 294.503 387.105 294.503Z" fill="#F2F2F2"/>
<path d="M206.918 320.434C210.82 320.434 213.984 317.268 213.984 313.362C213.984 309.456 210.82 306.29 206.918 306.29C203.015 306.29 199.852 309.456 199.852 313.362C199.852 317.268 203.015 320.434 206.918 320.434Z" fill="#F2F2F2"/>
<path d="M354.129 86.4651C358.031 86.4651 361.195 83.2989 361.195 79.393C361.195 75.4872 358.031 72.3209 354.129 72.3209C350.226 72.3209 347.062 75.4872 347.062 79.393C347.062 83.2989 350.226 86.4651 354.129 86.4651Z" fill="#F2F2F2"/>
<path d="M365.724 197.194C364.808 197.592 363.816 197.785 362.818 197.758C361.82 197.731 360.839 197.485 359.946 197.038C359.053 196.591 358.269 195.953 357.649 195.17C357.029 194.387 356.588 193.477 356.357 192.505L332.207 190.063L340.174 180.276L361.886 184.095C363.544 183.815 365.246 184.154 366.671 185.047C368.096 185.939 369.145 187.324 369.618 188.939C370.091 190.553 369.956 192.285 369.238 193.807C368.52 195.329 367.27 196.534 365.724 197.194V197.194Z" fill="#FFB8B8"/>
<path d="M350.871 193.312L294.513 188.115L294.436 188.026L253.304 140.857C250.597 136.706 249.578 131.677 250.455 126.799C251.333 121.921 254.04 117.563 258.023 114.617V114.617C260.227 112.992 262.749 111.852 265.425 111.272C268.101 110.693 270.869 110.687 273.547 111.255C276.225 111.824 278.753 112.953 280.963 114.57C283.174 116.186 285.017 118.253 286.372 120.634L311.706 165.155L351.491 181.154L350.871 193.312Z" fill="#E6E6E6"/>
<path d="M492.323 102.602C490.923 92.3273 489.168 81.296 481.927 73.8791C479.63 71.5257 476.88 69.6623 473.843 68.4012C470.807 67.1402 467.547 66.5077 464.259 66.5417C460.972 66.5758 457.726 67.2757 454.716 68.5994C451.706 69.923 448.996 71.843 446.747 74.2435C441.477 79.871 439.149 87.7729 438.936 95.4833C438.723 103.194 440.439 110.818 442.342 118.293C452.415 118.494 462.413 116.525 471.658 112.518C473.97 111.513 476.245 110.378 478.687 109.756C481.13 109.134 482.871 110.699 485.143 111.791L486.39 109.401C487.411 111.303 490.572 110.739 491.719 108.911C492.865 107.082 492.614 104.741 492.323 102.602Z" fill="#2F2E41"/>
<path d="M452.396 159.95L411.25 160.831C410.618 159.738 409.682 158.852 408.556 158.281C407.431 157.71 406.164 157.479 404.909 157.616C403.655 157.753 402.467 158.252 401.491 159.052C400.514 159.852 399.792 160.919 399.41 162.123C399.029 163.327 399.005 164.616 399.342 165.833C399.679 167.05 400.362 168.143 401.308 168.978C402.255 169.814 403.423 170.356 404.672 170.539C405.92 170.722 407.195 170.538 408.341 170.009C413.798 170.319 456.492 176.384 459.039 172.476C461.624 168.509 475.423 154.509 475.423 154.509L464.816 139.396L452.396 159.95Z" fill="#9E616A"/>
<path d="M462.422 112.767C473.098 112.767 481.754 104.105 481.754 93.419C481.754 82.7333 473.098 74.0708 462.422 74.0708C451.745 74.0708 443.09 82.7333 443.09 93.419C443.09 104.105 451.745 112.767 462.422 112.767Z" fill="#9E616A"/>
<path d="M493.386 130.647C491.108 126.109 490.001 120.503 485.144 119.032C481.864 118.039 468.599 119.527 465.61 121.204C460.638 123.994 465.144 129.221 462.21 134.112C459.022 139.43 450.356 150.101 447.167 155.418C444.975 159.074 452.359 169.804 451.174 173.899C449.988 177.994 449.931 182.59 451.951 186.344C453.758 189.704 451.143 192.677 452.961 196.031C454.851 199.52 457.17 212.564 455.411 216.121L454.233 219.657C465.92 220.344 475.747 206.37 487.361 204.898C490.245 204.533 493.241 204.055 495.618 202.379C499.119 199.911 500.504 195.432 501.369 191.233C505.532 170.712 502.722 149.387 493.386 130.647V130.647Z" fill="#3F3D56"/>
<path d="M510.907 178.562C509.28 174.115 506.333 154.672 506.333 154.672L487.888 154.13L496.905 176.391L472.297 210.869C472.297 210.869 472.343 210.945 472.426 211.08C471.132 210.872 469.806 211.06 468.62 211.619C467.435 212.178 466.446 213.083 465.782 214.214C465.119 215.344 464.812 216.65 464.902 217.958C464.992 219.266 465.474 220.517 466.286 221.546C467.098 222.576 468.201 223.336 469.452 223.728C470.703 224.119 472.042 224.124 473.295 223.741C474.549 223.358 475.657 222.605 476.476 221.581C477.295 220.557 477.785 219.309 477.884 218.002C477.975 218.054 478.081 218.072 478.184 218.055C478.287 218.037 478.38 217.984 478.448 217.905C481.186 214.466 512.535 183.009 510.907 178.562Z" fill="#9E616A"/>
<path d="M512.784 166.282C511.091 159.131 509.386 151.94 506.532 145.169C503.677 138.397 499.591 132.001 493.844 127.426C492.006 125.964 489.952 124.673 487.649 124.218C485.345 123.763 482.75 124.272 481.132 125.975C478.543 128.7 479.322 133.074 480.272 136.712C483.071 147.438 485.871 158.164 488.67 168.891C496.755 168.033 504.839 167.175 512.924 166.318L512.784 166.282Z" fill="#3F3D56"/>
<path d="M486.113 96.1026C485.401 91.4221 484.658 86.7024 482.985 82.2952C481.313 77.8879 478.617 73.76 474.749 71.2634C468.626 67.3106 460.698 68.073 453.833 70.3467C448.524 72.1051 443.341 74.7777 439.597 79.0744C435.853 83.3712 433.75 89.5021 435.143 95.1203C442.466 93.3886 449.789 91.657 457.112 89.9253L456.311 90.4923C458.715 91.6922 460.815 93.4247 462.451 95.5582C464.086 97.6917 465.215 100.17 465.75 102.805C466.274 105.472 466.199 108.223 465.53 110.857C464.862 113.492 463.616 115.945 461.884 118.038C466.879 116.265 471.873 114.492 476.867 112.719C479.95 111.624 483.25 110.363 485.078 107.556C487.197 104.301 486.705 99.987 486.113 96.1026Z" fill="#2F2E41"/>
</g>
<ellipse cx="106.5" cy="51.5003" rx="2.5" ry="2.50034" fill="#D7D7D7"/>
<ellipse cx="125.5" cy="51.5003" rx="2.5" ry="2.50034" fill="#D7D7D7"/>
<ellipse cx="145.5" cy="51.5003" rx="2.5" ry="2.50034" fill="#D7D7D7"/>
<ellipse cx="164.5" cy="51.5003" rx="2.5" ry="2.50034" fill="#D7D7D7"/>
<ellipse cx="67.5" cy="71.5003" rx="2.5" ry="2.50034" fill="#D7D7D7"/>
<ellipse cx="86.5" cy="71.5003" rx="2.5" ry="2.50034" fill="#D7D7D7"/>
<ellipse cx="106.5" cy="71.5003" rx="2.5" ry="2.50034" fill="#D7D7D7"/>
<ellipse cx="125.5" cy="71.5003" rx="2.5" ry="2.50034" fill="#D7D7D7"/>
<ellipse cx="145.5" cy="71.5003" rx="2.5" ry="2.50034" fill="#D7D7D7"/>
<ellipse cx="164.5" cy="71.5003" rx="2.5" ry="2.50034" fill="#D7D7D7"/>
<ellipse cx="184.5" cy="71.5003" rx="2.5" ry="2.50034" fill="#D7D7D7"/>
<ellipse cx="203.5" cy="71.5003" rx="2.5" ry="2.50034" fill="#D7D7D7"/>
<ellipse cx="47.5" cy="90.5003" rx="2.5" ry="2.50034" fill="#D7D7D7"/>
<ellipse cx="67.5" cy="90.5003" rx="2.5" ry="2.50034" fill="#D7D7D7"/>
<ellipse cx="86.5" cy="90.5003" rx="2.5" ry="2.50034" fill="#D7D7D7"/>
<ellipse cx="106.5" cy="90.5003" rx="2.5" ry="2.50034" fill="#D7D7D7"/>
<ellipse cx="125.5" cy="90.5003" rx="2.5" ry="2.50034" fill="#D7D7D7"/>
<ellipse cx="145.5" cy="90.5003" rx="2.5" ry="2.50034" fill="#D7D7D7"/>
<ellipse cx="164.5" cy="90.5003" rx="2.5" ry="2.50034" fill="#D7D7D7"/>
<ellipse cx="184.5" cy="90.5003" rx="2.5" ry="2.50034" fill="#D7D7D7"/>
<ellipse cx="203.5" cy="90.5003" rx="2.5" ry="2.50034" fill="#D7D7D7"/>
<ellipse cx="223.5" cy="90.5003" rx="2.5" ry="2.50034" fill="#D7D7D7"/>
<ellipse cx="47.5" cy="110.5" rx="2.5" ry="2.50034" fill="#D7D7D7"/>
<ellipse cx="67.5" cy="110.5" rx="2.5" ry="2.50034" fill="#D7D7D7"/>
<ellipse cx="86.5" cy="110.5" rx="2.5" ry="2.50034" fill="#D7D7D7"/>
<ellipse cx="106.5" cy="110.5" rx="2.5" ry="2.50034" fill="#D7D7D7"/>
<ellipse cx="125.5" cy="110.5" rx="2.5" ry="2.50034" fill="#D7D7D7"/>
<ellipse cx="145.5" cy="110.5" rx="2.5" ry="2.50034" fill="#D7D7D7"/>
<ellipse cx="164.5" cy="110.5" rx="2.5" ry="2.50034" fill="#D7D7D7"/>
<ellipse cx="184.5" cy="110.5" rx="2.5" ry="2.50034" fill="#D7D7D7"/>
<ellipse cx="203.5" cy="110.5" rx="2.5" ry="2.50034" fill="#D7D7D7"/>
<ellipse cx="223.5" cy="110.5" rx="2.5" ry="2.50034" fill="#D7D7D7"/>
<ellipse cx="47.5" cy="129.5" rx="2.5" ry="2.50034" fill="#D7D7D7"/>
<ellipse cx="67.5" cy="129.5" rx="2.5" ry="2.50034" fill="#D7D7D7"/>
<ellipse cx="86.5" cy="129.5" rx="2.5" ry="2.50034" fill="#D7D7D7"/>
<ellipse cx="106.5" cy="129.5" rx="2.5" ry="2.50034" fill="#D7D7D7"/>
<ellipse cx="125.5" cy="129.5" rx="2.5" ry="2.50034" fill="#D7D7D7"/>
<ellipse cx="145.5" cy="129.5" rx="2.5" ry="2.50034" fill="#D7D7D7"/>
<ellipse cx="164.5" cy="129.5" rx="2.5" ry="2.50034" fill="#D7D7D7"/>
<ellipse cx="184.5" cy="129.5" rx="2.5" ry="2.50034" fill="#D7D7D7"/>
<ellipse cx="203.5" cy="129.5" rx="2.5" ry="2.50034" fill="#D7D7D7"/>
<ellipse cx="223.5" cy="129.5" rx="2.5" ry="2.50034" fill="#D7D7D7"/>
<ellipse cx="47.5" cy="149.5" rx="2.5" ry="2.50034" fill="#D7D7D7"/>
<ellipse cx="67.5" cy="149.5" rx="2.5" ry="2.50034" fill="#D7D7D7"/>
<ellipse cx="86.5" cy="149.5" rx="2.5" ry="2.50034" fill="#D7D7D7"/>
<ellipse cx="106.5" cy="149.5" rx="2.5" ry="2.50034" fill="#D7D7D7"/>
<ellipse cx="125.5" cy="149.5" rx="2.5" ry="2.50034" fill="#D7D7D7"/>
<ellipse cx="145.5" cy="149.5" rx="2.5" ry="2.50034" fill="#D7D7D7"/>
<ellipse cx="164.5" cy="149.5" rx="2.5" ry="2.50034" fill="#D7D7D7"/>
<ellipse cx="184.5" cy="149.5" rx="2.5" ry="2.50034" fill="#D7D7D7"/>
<ellipse cx="203.5" cy="149.5" rx="2.5" ry="2.50034" fill="#D7D7D7"/>
<ellipse cx="223.5" cy="149.5" rx="2.5" ry="2.50034" fill="#D7D7D7"/>
<ellipse cx="47.5" cy="168.5" rx="2.5" ry="2.50034" fill="#D7D7D7"/>
<ellipse cx="67.5" cy="168.5" rx="2.5" ry="2.50034" fill="#D7D7D7"/>
<ellipse cx="86.5" cy="168.5" rx="2.5" ry="2.50034" fill="#D7D7D7"/>
<ellipse cx="106.5" cy="168.5" rx="2.5" ry="2.50034" fill="#D7D7D7"/>
<ellipse cx="125.5" cy="168.5" rx="2.5" ry="2.50034" fill="#D7D7D7"/>
<ellipse cx="145.5" cy="168.5" rx="2.5" ry="2.50034" fill="#D7D7D7"/>
<ellipse cx="164.5" cy="168.5" rx="2.5" ry="2.50034" fill="#D7D7D7"/>
<ellipse cx="184.5" cy="168.5" rx="2.5" ry="2.50034" fill="#D7D7D7"/>
<ellipse cx="203.5" cy="168.5" rx="2.5" ry="2.50034" fill="#D7D7D7"/>
<ellipse cx="223.5" cy="168.5" rx="2.5" ry="2.50034" fill="#D7D7D7"/>
<ellipse cx="47.5" cy="188.5" rx="2.5" ry="2.50034" fill="#D7D7D7"/>
<ellipse cx="67.5" cy="188.5" rx="2.5" ry="2.50034" fill="#D7D7D7"/>
<ellipse cx="86.5" cy="188.5" rx="2.5" ry="2.50034" fill="#D7D7D7"/>
<ellipse cx="106.5" cy="188.5" rx="2.5" ry="2.50034" fill="#D7D7D7"/>
<ellipse cx="125.5" cy="188.5" rx="2.5" ry="2.50034" fill="#D7D7D7"/>
<ellipse cx="145.5" cy="188.5" rx="2.5" ry="2.50034" fill="#D7D7D7"/>
<ellipse cx="164.5" cy="188.5" rx="2.5" ry="2.50034" fill="#D7D7D7"/>
<ellipse cx="184.5" cy="188.5" rx="2.5" ry="2.50034" fill="#D7D7D7"/>
<ellipse cx="203.5" cy="188.5" rx="2.5" ry="2.50034" fill="#D7D7D7"/>
<ellipse cx="223.5" cy="188.5" rx="2.5" ry="2.50034" fill="#D7D7D7"/>
<ellipse cx="67.5" cy="207.5" rx="2.5" ry="2.50034" fill="#D7D7D7"/>
<ellipse cx="86.5" cy="207.5" rx="2.5" ry="2.50034" fill="#D7D7D7"/>
<ellipse cx="106.5" cy="207.5" rx="2.5" ry="2.50034" fill="#D7D7D7"/>
<ellipse cx="125.5" cy="207.5" rx="2.5" ry="2.50034" fill="#D7D7D7"/>
<ellipse cx="145.5" cy="207.5" rx="2.5" ry="2.50034" fill="#D7D7D7"/>
<ellipse cx="164.5" cy="207.5" rx="2.5" ry="2.50034" fill="#D7D7D7"/>
<ellipse cx="184.5" cy="207.5" rx="2.5" ry="2.50034" fill="#D7D7D7"/>
<ellipse cx="203.5" cy="207.5" rx="2.5" ry="2.50034" fill="#D7D7D7"/>
<ellipse cx="106.5" cy="227.5" rx="2.5" ry="2.50034" fill="#D7D7D7"/>
<ellipse cx="125.5" cy="227.5" rx="2.5" ry="2.50034" fill="#D7D7D7"/>
<ellipse cx="145.5" cy="227.5" rx="2.5" ry="2.50034" fill="#D7D7D7"/>
<ellipse cx="164.5" cy="227.5" rx="2.5" ry="2.50034" fill="#D7D7D7"/>
<defs>
<clipPath id="clip0">
<rect width="508" height="380" fill="white" transform="translate(118 38)"/>
</clipPath>
</defs>
</svg>
