<svg width="63" height="68" viewBox="0 0 63 68" fill="none" xmlns="http://www.w3.org/2000/svg">
<path d="M37.7912 22C37.0454 21.2891 35.85 21 34.8876 21C33.8042 21 32.7995 21.1742 31.9839 22L31.016 23V22C30.2005 21.1746 29.1958 21 28.1124 21C27.1497 21 25.9549 21.2891 25.2087 22C23.5679 23.5637 23.6265 26.3986 25.2087 28L31.9839 34L37.7912 28C39.3735 26.3985 39.4321 23.5636 37.7912 22Z" fill="#59AC80"/>
<path d="M29 45V39.0486C29 36.0884 27.0164 33.7509 25 33.0972C24.4372 32.9276 24.469 32.5726 24 32.1053C23.148 31.2215 22.1799 30.1065 21 30.1215C20.6151 30.1265 20.3337 30.7811 20 31.1134C19.2175 31.8928 19.3251 32.425 20 33.0972L22 36.0729C22.2045 36.2766 23 35.7848 23 36.0729C23 36.3611 22.2045 36.861 22 37.0648L19 34.0891C18.485 33.5762 18.0954 32.8012 18 32.1053C17.8812 31.2383 18.3965 30.7226 19 30.1215C19.452 29.6713 20.3952 29.1939 21 29.1296L20 27.1458C19.9665 20.5377 17 21.6237 17 23.1782V35.081C17 35.8015 17.4908 36.5524 18 37.0648C23.4194 42.5125 22 40.4745 22 45H29Z" fill="#59AC80"/>
<path d="M46 23.1782C46 21.6238 43.0335 20.5376 43 27.1458L42 29.1296C42.6048 29.1938 43.548 29.6713 44 30.1215C44.6035 30.7226 45.1188 31.2383 45 32.1053C44.9047 32.8012 44.5151 33.5762 44 34.0891L41 37.0648C40.7955 36.8609 40 36.3611 40 36.0729C40 35.7848 40.7955 36.2766 41 36.0729L43 33.0972C43.6749 32.425 43.7825 31.8927 43 31.1134C42.6663 30.7811 42.3848 30.1265 42 30.1215C40.8201 30.1065 39.852 31.2215 39 32.1053C38.531 32.5726 38.5627 32.9275 38 33.0972C35.9836 33.7508 34 36.0885 34 39.0486V45H41C41 40.4747 39.5806 42.5126 45 37.0648C45.5092 36.5523 46 35.8015 46 35.081V23.1782Z" fill="#59AC80"/>
<circle cx="31.5" cy="33.5" r="30.39" stroke="url(#paint0_linear)" stroke-width="2.22"/>
<rect width="9" height="2" rx="1" transform="matrix(0.590481 -0.807052 0.812608 0.582811 47 8)" fill="#6BAF5B"/>
<rect width="9" height="2" rx="1" transform="matrix(0.590481 -0.807052 0.812608 0.582811 8 66)" fill="#74BB54"/>
<defs>
<linearGradient id="paint0_linear" x1="-4.17123" y1="-2.21918" x2="66.3082" y2="72.0479" gradientUnits="userSpaceOnUse">
<stop stop-color="#4C8968"/>
<stop offset="0.475392" stop-color="#71B758"/>
<stop offset="1" stop-color="#8CDA38"/>
</linearGradient>
</defs>
</svg>
