<svg width="516" height="496" viewBox="0 0 516 496" fill="none" xmlns="http://www.w3.org/2000/svg">
<path fill-rule="evenodd" clip-rule="evenodd" d="M494.999 275.752C494.808 331.505 471.869 387.347 431.86 426.266C394.945 462.175 339.524 463.844 289.376 475.774C243.935 486.583 199.093 503.388 153.685 492.439C105.988 480.937 58.8398 455.97 33.4624 414.062C8.89098 373.486 25.9 323.036 22.4678 275.752C18.658 223.264 -18.8821 164.541 12.2683 122.076C43.4332 79.5909 113.279 104.945 162.212 85.2491C217.244 63.0986 255.082 -7.80743 313.806 0.705505C371.953 9.13487 400.616 75.495 432.892 124.488C463.64 171.163 495.19 219.896 494.999 275.752Z" fill="#E5D7CA"/>
<g clip-path="url(#clip0)">
<path d="M296.563 436C296.143 435.546 295.724 435.092 295.316 434.632C291.682 430.613 288.522 426.188 285.9 421.445C283.093 416.302 281.112 410.751 280.029 404.993C277.881 393.54 279.415 381.531 285.843 371.992C286.004 371.75 286.17 371.509 286.343 371.268C286.423 371.566 286.509 371.859 286.601 372.158C287.772 376.201 289.268 380.143 291.076 383.944C291.208 384.243 291.352 384.536 291.501 384.829C295.938 393.918 302.023 402.103 309.448 408.969C311.131 410.527 312.876 412.007 314.682 413.411V413.417C316.077 414.492 317.506 415.522 318.967 416.509C325.102 420.634 332.358 424.588 334.489 431.667C334.779 432.633 334.962 433.627 335.035 434.632C335.071 435.087 335.085 435.544 335.075 436H296.563Z" fill="#586176"/>
<path d="M323.69 436H322.908C322.903 435.914 322.885 435.822 322.874 435.736C322.816 435.362 322.747 434.994 322.667 434.632C322.029 431.817 320.593 429.219 318.002 427.742C317.147 427.265 316.239 426.889 315.296 426.622C313.441 426.059 311.476 425.806 309.592 425.427C309.104 425.329 308.621 425.214 308.15 425.088C305.733 424.494 303.471 423.391 301.515 421.852C299.119 419.828 297.085 417.411 295.5 414.704C294.448 412.995 293.481 411.235 292.605 409.429C292.484 409.193 292.369 408.963 292.26 408.728C290.227 404.397 288.639 399.87 287.521 395.218C286.94 392.829 286.487 390.41 286.165 387.972C285.452 382.675 285.344 377.313 285.843 371.991C285.86 371.75 285.889 371.509 285.912 371.267C285.964 370.767 286.722 370.946 286.67 371.44C286.647 371.681 286.624 371.917 286.601 372.158C286.125 377.269 286.217 382.416 286.877 387.507C286.906 387.765 286.94 388.018 286.981 388.277C287.953 395.338 290.015 402.207 293.093 408.636C293.122 408.705 293.156 408.768 293.185 408.837C293.191 408.843 293.191 408.843 293.191 408.849C293.915 410.343 294.694 411.806 295.529 413.239C297.046 415.99 298.987 418.486 301.279 420.634C303.217 422.35 305.529 423.589 308.029 424.254C308.276 424.323 308.529 424.392 308.782 424.45C308.983 424.502 309.184 424.548 309.391 424.588C311.31 424.996 313.297 425.254 315.199 425.783C316.063 426.02 316.905 426.331 317.715 426.714C319.037 427.379 320.204 428.315 321.139 429.462C322.075 430.608 322.758 431.939 323.144 433.368C323.27 433.788 323.374 434.207 323.46 434.632C323.559 435.084 323.636 435.541 323.69 436V436Z" fill="white"/>
<path d="M292.947 409.299C290.659 410.231 288.114 410.319 285.767 409.547C283.42 408.775 281.423 407.194 280.134 405.085C279.875 404.658 280.527 404.235 280.786 404.663C281.983 406.628 283.843 408.101 286.03 408.815C288.217 409.53 290.588 409.438 292.713 408.558C293.175 408.367 293.407 409.109 292.947 409.299Z" fill="white"/>
<path d="M307.934 424.478C309.937 419.84 310.119 414.617 308.443 409.852C308.276 409.38 309.017 409.146 309.184 409.618C310.918 414.58 310.718 420.015 308.623 424.836C308.423 425.296 307.735 424.935 307.934 424.478V424.478Z" fill="white"/>
<path d="M286.638 387.559C287.599 387.383 288.501 386.971 289.263 386.361C290.025 385.75 290.623 384.959 291.004 384.06C291.198 383.598 291.887 383.96 291.694 384.419C291.268 385.41 290.606 386.282 289.765 386.959C288.925 387.636 287.932 388.096 286.872 388.3C286.774 388.328 286.669 388.317 286.578 388.27C286.488 388.223 286.419 388.143 286.385 388.047C286.354 387.949 286.364 387.842 286.411 387.751C286.459 387.66 286.54 387.591 286.638 387.559V387.559Z" fill="white"/>
<path d="M348.674 436H317.015C316.906 435.546 316.802 435.092 316.705 434.632C316.124 431.978 315.648 429.306 315.297 426.622C315.263 426.346 315.222 426.065 315.199 425.783C314.689 421.682 314.516 417.546 314.682 413.417V413.411C314.779 411.151 314.989 408.898 315.314 406.659C316.165 400.871 317.921 395.253 320.519 390.012L320.554 389.943C325.735 379.525 334.18 370.883 345.038 367.142C345.319 367.044 345.589 366.952 345.871 366.86C345.761 367.147 345.652 367.435 345.543 367.728C345.543 367.734 345.537 367.739 345.537 367.745C344.04 371.674 342.862 375.717 342.016 379.835V379.841C341.947 380.157 341.884 380.479 341.821 380.801C339.896 390.751 339.833 400.973 341.637 410.946C341.643 410.963 341.643 410.981 341.648 410.998C342.369 414.948 343.387 418.837 344.693 422.634C346.037 426.536 347.697 430.599 348.456 434.632C348.542 435.092 348.617 435.546 348.674 436Z" fill="#586176"/>
<path d="M346.032 367.193C345.865 367.371 345.704 367.549 345.544 367.728C342.087 371.522 339.062 375.689 336.524 380.151C336.392 380.37 336.266 380.599 336.145 380.824C332.67 387.046 330.182 393.771 328.769 400.758C328.752 400.832 328.735 400.907 328.723 400.987C328.401 402.614 328.143 404.251 327.948 405.901C327.499 409.012 327.546 412.176 328.085 415.273C328.602 417.808 329.701 420.189 331.297 422.226C331.446 422.433 331.607 422.64 331.774 422.841C331.906 423.002 332.044 423.157 332.181 423.318C334.06 425.473 336.226 427.455 337.547 430.029C338.278 431.453 338.65 433.033 338.633 434.632C338.629 435.09 338.596 435.547 338.535 436H337.748C337.818 435.547 337.856 435.09 337.863 434.632C337.888 433.391 337.647 432.158 337.156 431.018C335.99 428.317 333.755 426.266 331.837 424.105C331.504 423.731 331.188 423.346 330.883 422.961C329.312 421.034 328.172 418.793 327.54 416.388C326.848 413.327 326.679 410.172 327.04 407.056C327.229 405.062 327.517 403.073 327.902 401.102C327.948 400.844 327.999 400.585 328.051 400.332C330.655 387.952 336.52 376.493 345.038 367.141C345.199 366.963 345.366 366.779 345.532 366.601C345.871 366.239 346.371 366.831 346.032 367.193Z" fill="white"/>
<path d="M328.255 401.205C325.867 400.571 323.782 399.109 322.373 397.079C320.963 395.049 320.321 392.584 320.561 390.124C320.611 389.627 321.386 389.682 321.336 390.18C321.109 392.47 321.707 394.766 323.024 396.653C324.34 398.541 326.287 399.895 328.515 400.473C328.998 400.599 328.736 401.331 328.255 401.205V401.205Z" fill="white"/>
<path d="M331.086 422.351C335.476 419.854 338.765 415.793 340.296 410.979C340.447 410.502 341.179 410.762 341.028 411.238C339.426 416.245 335.995 420.464 331.42 423.052C330.984 423.299 330.652 422.596 331.086 422.351V422.351Z" fill="white"/>
<path d="M336.3 380.047C337.173 380.485 338.141 380.7 339.117 380.671C340.093 380.642 341.047 380.371 341.892 379.883C342.325 379.631 342.657 380.334 342.227 380.584C341.29 381.12 340.236 381.418 339.158 381.452C338.08 381.486 337.009 381.255 336.041 380.78C335.946 380.743 335.868 380.671 335.824 380.579C335.78 380.487 335.773 380.381 335.804 380.284C335.839 380.187 335.91 380.108 336.003 380.064C336.096 380.02 336.203 380.014 336.3 380.047V380.047Z" fill="white"/>
<path d="M330.005 177.021H34.9338C34.7815 177.021 34.6354 176.96 34.5276 176.852C34.4199 176.745 34.3594 176.598 34.3594 176.446C34.3594 176.294 34.4199 176.148 34.5276 176.04C34.6354 175.932 34.7815 175.871 34.9338 175.871H330.005C330.157 175.871 330.304 175.932 330.411 176.04C330.519 176.148 330.58 176.294 330.58 176.446C330.58 176.598 330.519 176.745 330.411 176.852C330.304 176.96 330.157 177.021 330.005 177.021Z" fill="#586176"/>
<path d="M330.005 200.006H34.9338C34.7815 200.006 34.6354 199.946 34.5276 199.838C34.4199 199.73 34.3594 199.584 34.3594 199.431C34.3594 199.279 34.4199 199.133 34.5276 199.025C34.6354 198.917 34.7815 198.857 34.9338 198.857H330.005C330.157 198.857 330.304 198.917 330.411 199.025C330.519 199.133 330.58 199.279 330.58 199.431C330.58 199.584 330.519 199.73 330.411 199.838C330.304 199.946 330.157 200.006 330.005 200.006Z" fill="#586176"/>
<path d="M330.005 222.991H34.9338C34.7815 222.991 34.6354 222.931 34.5276 222.823C34.4199 222.715 34.3594 222.569 34.3594 222.417C34.3594 222.264 34.4199 222.118 34.5276 222.01C34.6354 221.903 34.7815 221.842 34.9338 221.842H330.005C330.157 221.842 330.304 221.903 330.411 222.01C330.519 222.118 330.58 222.264 330.58 222.417C330.58 222.569 330.519 222.715 330.411 222.823C330.304 222.931 330.157 222.991 330.005 222.991Z" fill="#586176"/>
<path d="M330.005 245.977H34.9338C34.7815 245.977 34.6354 245.916 34.5276 245.808C34.4199 245.701 34.3594 245.555 34.3594 245.402C34.3594 245.25 34.4199 245.104 34.5276 244.996C34.6354 244.888 34.7815 244.828 34.9338 244.828H330.005C330.157 244.828 330.304 244.888 330.411 244.996C330.519 245.104 330.58 245.25 330.58 245.402C330.58 245.555 330.519 245.701 330.411 245.808C330.304 245.916 330.157 245.977 330.005 245.977Z" fill="#586176"/>
<path d="M330.005 268.962H34.9338C34.7815 268.962 34.6354 268.902 34.5276 268.794C34.4199 268.686 34.3594 268.54 34.3594 268.387C34.3594 268.235 34.4199 268.089 34.5276 267.981C34.6354 267.873 34.7815 267.813 34.9338 267.813H330.005C330.157 267.813 330.304 267.873 330.411 267.981C330.519 268.089 330.58 268.235 330.58 268.387C330.58 268.54 330.519 268.686 330.411 268.794C330.304 268.902 330.157 268.962 330.005 268.962Z" fill="#586176"/>
<path d="M104.809 269.856C104.657 269.856 104.512 269.796 104.404 269.689C104.296 269.582 104.236 269.437 104.235 269.285L103.66 176.194C103.659 176.042 103.719 175.895 103.826 175.787C103.933 175.679 104.079 175.617 104.231 175.616H104.235C104.386 175.616 104.532 175.676 104.64 175.783C104.747 175.89 104.808 176.035 104.809 176.187L105.384 269.278C105.384 269.43 105.325 269.577 105.218 269.685C105.111 269.794 104.965 269.855 104.813 269.856H104.809Z" fill="#586176"/>
<path d="M184.661 269.856C184.509 269.856 184.363 269.796 184.256 269.689C184.148 269.582 184.087 269.437 184.086 269.285L183.512 176.194C183.511 176.042 183.57 175.895 183.677 175.787C183.784 175.679 183.93 175.617 184.083 175.616H184.086C184.238 175.616 184.383 175.676 184.491 175.783C184.599 175.89 184.66 176.035 184.661 176.187L185.235 269.278C185.236 269.43 185.176 269.577 185.069 269.685C184.962 269.794 184.817 269.855 184.664 269.856H184.661Z" fill="#586176"/>
<path d="M264.512 269.856C264.36 269.856 264.215 269.796 264.107 269.689C264 269.582 263.939 269.437 263.938 269.285L263.363 176.194C263.362 176.042 263.422 175.895 263.529 175.787C263.636 175.679 263.782 175.617 263.934 175.616H263.938C264.089 175.616 264.235 175.676 264.343 175.783C264.45 175.89 264.511 176.035 264.512 176.187L265.087 269.278C265.088 269.43 265.028 269.577 264.921 269.685C264.814 269.794 264.668 269.855 264.516 269.856H264.512Z" fill="#586176"/>
<path d="M95.3304 157.515H40.7554C38.6985 157.515 36.7259 156.698 35.2715 155.243C33.8171 153.788 33 151.815 33 149.758C33 147.7 33.8171 145.727 35.2715 144.272C36.7259 142.817 38.6985 142 40.7554 142H95.3304C97.3872 142 99.3598 142.817 100.814 144.272C102.269 145.727 103.086 147.7 103.086 149.758C103.086 151.815 102.269 153.788 100.814 155.243C99.3598 156.698 97.3872 157.515 95.3304 157.515V157.515Z" fill="#586176"/>
<path d="M78.9909 194.579H57.0989C56.2726 194.58 55.4542 194.418 54.6906 194.102C53.927 193.786 53.2331 193.323 52.6486 192.739C52.064 192.155 51.6003 191.461 51.2839 190.697C50.9675 189.934 50.8047 189.116 50.8047 188.289C50.8047 187.463 50.9675 186.644 51.2839 185.881C51.6003 185.117 52.064 184.423 52.6486 183.839C53.2331 183.255 53.927 182.792 54.6906 182.476C55.4542 182.16 56.2726 181.998 57.0989 181.999H78.9909C79.8172 181.998 80.6356 182.16 81.3992 182.476C82.1628 182.792 82.8567 183.255 83.4412 183.839C84.0258 184.423 84.4895 185.117 84.8059 185.881C85.1223 186.644 85.2851 187.463 85.2851 188.289C85.2851 189.116 85.1223 189.934 84.8059 190.697C84.4895 191.461 84.0258 192.155 83.4412 192.739C82.8567 193.323 82.1628 193.786 81.3992 194.102C80.6356 194.418 79.8172 194.58 78.9909 194.579Z" fill="#59AC80"/>
<path d="M155.395 216.99H133.503C131.835 216.99 130.236 216.327 129.057 215.147C127.877 213.968 127.215 212.368 127.215 210.7C127.215 209.032 127.877 207.432 129.057 206.252C130.236 205.073 131.835 204.41 133.503 204.41H155.395C156.221 204.409 157.04 204.571 157.803 204.887C158.567 205.203 159.261 205.666 159.845 206.25C160.43 206.834 160.894 207.528 161.21 208.291C161.526 209.055 161.689 209.873 161.689 210.7C161.689 211.526 161.526 212.345 161.21 213.108C160.894 213.872 160.43 214.565 159.845 215.15C159.261 215.734 158.567 216.197 157.803 216.513C157.04 216.828 156.221 216.991 155.395 216.99Z" fill="#59AC80"/>
<path d="M155.393 241.699H133.501C132.675 241.7 131.857 241.538 131.093 241.222C130.329 240.906 129.635 240.443 129.051 239.859C128.466 239.275 128.003 238.581 127.686 237.817C127.37 237.054 127.207 236.236 127.207 235.409C127.207 234.583 127.37 233.764 127.686 233.001C128.003 232.237 128.466 231.543 129.051 230.959C129.635 230.375 130.329 229.912 131.093 229.596C131.857 229.28 132.675 229.118 133.501 229.119H155.393C156.22 229.118 157.038 229.28 157.802 229.596C158.565 229.912 159.259 230.375 159.844 230.959C160.428 231.543 160.892 232.237 161.208 233.001C161.525 233.764 161.687 234.583 161.687 235.409C161.687 236.236 161.525 237.054 161.208 237.817C160.892 238.581 160.428 239.275 159.844 239.859C159.259 240.443 158.565 240.906 157.802 241.222C157.038 241.538 156.22 241.7 155.393 241.699Z" fill="#59AC80"/>
<path d="M236.969 195.154H215.077C213.41 195.154 211.81 194.491 210.631 193.311C209.452 192.132 208.789 190.532 208.789 188.864C208.789 187.196 209.452 185.596 210.631 184.416C211.81 183.237 213.41 182.574 215.077 182.574H236.969C237.796 182.573 238.614 182.735 239.378 183.051C240.141 183.367 240.835 183.83 241.42 184.414C242.004 184.998 242.468 185.692 242.784 186.455C243.101 187.219 243.263 188.037 243.263 188.864C243.263 189.69 243.101 190.509 242.784 191.272C242.468 192.036 242.004 192.729 241.42 193.314C240.835 193.898 240.141 194.361 239.378 194.677C238.614 194.992 237.796 195.154 236.969 195.154Z" fill="#59AC80"/>
<path d="M361.055 311.23H339.163C337.495 311.23 335.896 310.567 334.717 309.387C333.538 308.208 332.875 306.608 332.875 304.94C332.875 303.272 333.538 301.672 334.717 300.492C335.896 299.313 337.495 298.65 339.163 298.65H361.055C362.723 298.65 364.322 299.313 365.502 300.492C366.681 301.672 367.343 303.272 367.343 304.94C367.343 306.608 366.681 308.208 365.502 309.387C364.322 310.567 362.723 311.23 361.055 311.23V311.23Z" fill="#59AC80"/>
<path d="M172.787 157.802H118.212C116.156 157.802 114.183 156.985 112.729 155.53C111.274 154.076 110.457 152.102 110.457 150.045C110.457 147.987 111.274 146.014 112.729 144.559C114.183 143.105 116.156 142.287 118.212 142.287H172.787C174.844 142.287 176.817 143.105 178.271 144.559C179.726 146.014 180.543 147.987 180.543 150.045C180.543 152.102 179.726 154.076 178.271 155.53C176.817 156.985 174.844 157.802 172.787 157.802V157.802Z" fill="#586176"/>
<path d="M250.244 158.377H195.669C193.613 158.377 191.64 157.56 190.186 156.105C188.731 154.65 187.914 152.677 187.914 150.619C187.914 148.562 188.731 146.589 190.186 145.134C191.64 143.679 193.613 142.862 195.669 142.862H250.244C252.301 142.862 254.274 143.679 255.728 145.134C257.183 146.589 258 148.562 258 150.619C258 152.677 257.183 154.65 255.728 156.105C254.274 157.56 252.301 158.377 250.244 158.377V158.377Z" fill="#586176"/>
<path d="M327.705 158.377H273.13C271.074 158.377 269.101 157.56 267.646 156.105C266.192 154.65 265.375 152.677 265.375 150.619C265.375 148.562 266.192 146.589 267.646 145.134C269.101 143.679 271.074 142.862 273.13 142.862H327.705C329.762 142.862 331.735 143.679 333.189 145.134C334.644 146.589 335.461 148.562 335.461 150.619C335.461 152.677 334.644 154.65 333.189 156.105C331.735 157.56 329.762 158.377 327.705 158.377Z" fill="#586176"/>
<path d="M64.5814 154.573L69.8107 146.048L68.2357 145.842L71.4183 153.852C71.4849 154.069 71.6317 154.252 71.8288 154.364C72.0258 154.476 72.2582 154.508 72.4783 154.454C72.6978 154.392 72.8841 154.246 72.9967 154.047C73.1094 153.849 73.1393 153.614 73.0802 153.394L69.8976 145.384C69.8478 145.224 69.7534 145.082 69.6255 144.975C69.4976 144.867 69.3416 144.798 69.1759 144.777C69.0102 144.755 68.8418 144.781 68.6906 144.852C68.5394 144.923 68.4117 145.036 68.3226 145.178L63.0932 153.703C62.5116 154.651 64.0017 155.518 64.5814 154.573H64.5814Z" fill="white"/>
<path d="M65.7641 151.704L70.3238 151.636C70.5524 151.636 70.7716 151.545 70.9332 151.383C71.0948 151.222 71.1856 151.003 71.1856 150.774C71.1856 150.545 71.0948 150.326 70.9332 150.164C70.7716 150.003 70.5524 149.912 70.3238 149.912L65.7641 149.98C65.5355 149.98 65.3163 150.071 65.1547 150.233C64.9931 150.394 64.9023 150.614 64.9023 150.842C64.9023 151.071 64.9931 151.29 65.1547 151.452C65.3163 151.613 65.5355 151.704 65.7641 151.704V151.704Z" fill="white"/>
<path d="M148.488 149.846C148.37 149.611 148.215 149.396 148.03 149.209C148.322 148.845 148.491 148.398 148.514 147.931C148.536 147.465 148.411 147.004 148.156 146.613C147.73 145.977 147.083 145.521 146.341 145.333C145.466 145.161 144.565 145.18 143.699 145.389C143.641 145.375 143.581 145.368 143.522 145.368C143.294 145.372 143.077 145.464 142.916 145.625C142.756 145.785 142.664 146.002 142.66 146.23C142.559 148.495 142.457 150.76 142.356 153.025C142.321 153.077 142.292 153.133 142.27 153.193C142.224 153.391 142.245 153.599 142.329 153.785C142.348 154.001 142.446 154.202 142.604 154.349C142.762 154.497 142.97 154.581 143.186 154.584C143.401 154.585 143.608 154.501 143.763 154.352C145.465 154.479 147.248 154.202 148.266 152.657C148.541 152.247 148.706 151.773 148.745 151.281C148.783 150.788 148.695 150.294 148.488 149.846V149.846ZM146.623 151.973C146.279 152.268 145.874 152.484 145.437 152.605C145 152.726 144.542 152.75 144.095 152.675C144.179 150.789 144.264 148.904 144.348 147.019C145.123 146.892 146.006 146.823 146.542 147.345C146.63 147.43 146.703 147.528 146.758 147.637C146.764 147.652 146.806 147.867 146.801 147.808C146.811 147.933 146.815 147.869 146.78 147.984C146.744 148.101 146.678 148.207 146.587 148.289C146.497 148.372 146.386 148.429 146.266 148.454C146.039 148.46 145.823 148.552 145.663 148.713C145.502 148.873 145.41 149.089 145.404 149.316C145.407 149.544 145.499 149.761 145.66 149.922C145.821 150.084 146.038 150.175 146.266 150.178C146.443 150.183 146.614 150.248 146.75 150.361C146.886 150.475 146.98 150.631 147.017 150.805C147.049 151.017 147.03 151.234 146.961 151.437C146.893 151.64 146.777 151.824 146.623 151.973H146.623Z" fill="white"/>
<path d="M224.498 145.829C223.249 146.061 222.116 146.714 221.29 147.68C220.464 148.645 219.993 149.865 219.957 151.135C219.903 152.484 220.38 153.8 221.285 154.8C222.313 155.854 223.737 155.866 225.099 155.683C225.325 155.676 225.54 155.583 225.701 155.423C225.861 155.263 225.954 155.048 225.961 154.821C225.961 154.404 225.564 153.897 225.099 153.959C224.212 154.078 223.135 154.271 222.46 153.536C221.881 152.824 221.604 151.914 221.686 151C221.752 150.131 222.112 149.31 222.707 148.673C223.301 148.035 224.094 147.619 224.956 147.491C225.175 147.429 225.361 147.283 225.474 147.084C225.587 146.886 225.617 146.651 225.558 146.431C225.493 146.213 225.346 146.029 225.149 145.917C224.951 145.805 224.718 145.773 224.498 145.829V145.829Z" fill="white"/>
<path d="M297.731 146.644L297.952 154.954C297.954 155.085 297.986 155.215 298.046 155.333C298.106 155.451 298.191 155.553 298.296 155.633C298.401 155.713 298.523 155.768 298.652 155.795C298.781 155.821 298.915 155.817 299.042 155.785C300.193 155.545 301.226 154.915 301.966 154.001C302.706 153.087 303.107 151.945 303.102 150.769C303.097 149.594 302.686 148.455 301.938 147.548C301.191 146.64 300.153 146.019 299 145.789C298.78 145.734 298.547 145.766 298.35 145.878C298.152 145.99 298.006 146.174 297.94 146.391C297.881 146.611 297.912 146.846 298.024 147.044C298.137 147.242 298.323 147.389 298.542 147.451C299.33 147.58 300.047 147.984 300.567 148.591C301.086 149.198 301.374 149.97 301.379 150.769C301.384 151.568 301.106 152.343 300.595 152.957C300.083 153.571 299.371 153.983 298.584 154.122L299.675 154.954L299.454 146.644C299.425 145.537 297.701 145.532 297.731 146.644V146.644Z" fill="white"/>
<path d="M414.421 317.138C413.88 316.49 413.487 315.731 413.271 314.914C413.054 314.097 413.02 313.243 413.169 312.412C413.319 311.58 413.649 310.792 414.136 310.102C414.623 309.412 415.255 308.837 415.988 308.418L412.207 288.234L422.042 292.368L424.125 310.9C424.747 312.179 424.879 313.642 424.495 315.011C424.112 316.381 423.239 317.562 422.043 318.331C420.847 319.1 419.41 319.403 418.005 319.183C416.601 318.963 415.325 318.236 414.421 317.138V317.138Z" fill="#FFB6B6"/>
<path d="M402.917 428.103L395.874 428.102L392.523 400.929L402.918 400.93L402.917 428.103Z" fill="#FFB6B6"/>
<path d="M403.821 358.631C403.821 358.631 408.106 332.386 412.127 325.49C416.148 318.595 414.863 302.313 414.863 302.313L410.941 301.987C410.973 301.332 410.887 300.675 410.686 300.05C408.68 294.46 380.723 296.445 380.723 296.445C380.723 296.445 370.273 312.857 373.966 327.506C377.659 342.155 381.68 370.312 381.68 370.312L393.771 416.388L404.112 415.813L403.012 389.765L403.305 389.861L403.821 358.631Z" fill="#2F2E41"/>
<path d="M419.879 223.493L409.408 211.301L392.599 210.813L386.17 221.15L384.576 232.505L376.41 300.05C376.41 300.05 403.161 312.875 417.552 306.685L424.475 248.777C427.347 237.284 419.879 223.493 419.879 223.493Z" fill="#586176"/>
<path d="M401.801 206.99C409.85 206.99 416.375 200.463 416.375 192.411C416.375 184.36 409.85 177.833 401.801 177.833C393.752 177.833 387.227 184.36 387.227 192.411C387.227 200.463 393.752 206.99 401.801 206.99Z" fill="#FFB6B6"/>
<path d="M419.363 189.094C418.915 185.894 416.748 182.855 413.666 181.885C412.442 178.329 409.199 175.711 405.616 174.57C402.299 173.512 398.723 173.585 395.452 174.779C392.18 175.972 389.397 178.218 387.539 181.165C387.265 181.596 386.422 182.655 386.446 183.17C386.476 183.823 387.475 184.498 387.977 184.91C389.222 185.872 390.564 186.701 391.982 187.382C397.222 190.1 395.478 194.371 395.407 199.211C395.372 201.563 396.157 203.572 398.162 204.915C401.056 206.854 405.197 206.083 408.346 205.305C411.918 204.422 414.889 201.282 416.926 198.255C418.731 195.574 419.81 192.295 419.363 189.094Z" fill="#2F2E41"/>
<path d="M419.463 242.472L425.134 304.695L406.914 303.718L419.463 242.472Z" fill="#586176"/>
<path d="M357.656 303.493C358.385 303.175 359.035 302.702 359.561 302.106C360.088 301.51 360.477 300.805 360.702 300.042C360.926 299.28 360.981 298.477 360.862 297.69C360.743 296.904 360.453 296.153 360.013 295.491L371.704 280.097L361.683 279.428L352.117 294.149C351.054 294.963 350.327 296.139 350.072 297.453C349.818 298.768 350.055 300.13 350.737 301.282C351.42 302.433 352.501 303.295 353.776 303.702C355.052 304.11 356.432 304.035 357.656 303.493V303.493Z" fill="#FFB8B8"/>
<path d="M390.767 220.77L388.822 220.014L386.944 220.678C386.944 220.678 381.071 226.276 380.088 232.145C379.648 234.772 372.805 260.449 372.805 260.449L354.574 288.416L364.438 295.006L389.581 257.323L390.767 220.77Z" fill="#586176"/>
<path d="M404.357 426.038L402.326 426.038L394.397 422.812L390.147 426.038H390.146C387.744 426.038 385.441 426.992 383.742 428.691C382.044 430.39 381.09 432.694 381.09 435.096V435.391L404.357 435.392L404.357 426.038Z" fill="#2F2E41"/>
<path d="M436.644 401.605L431.654 406.576L410.109 389.689L417.474 382.352L436.644 401.605Z" fill="#FFB6B6"/>
<path d="M434.882 398.617L433.684 400.258L426.404 404.763L426.503 410.098L426.503 410.099C425.087 412.039 424.5 414.463 424.87 416.837C425.241 419.21 426.539 421.34 428.479 422.756L428.716 422.93L442.434 404.131L434.882 398.617Z" fill="#2F2E41"/>
<path d="M398.938 360.074L431.683 393.977L422.491 402.022L396.758 381.803L398.938 360.074Z" fill="#2F2E41"/>
</g>
<ellipse cx="112.5" cy="16.5003" rx="2.5" ry="2.50034" fill="#D7D7D7"/>
<ellipse cx="131.5" cy="16.5003" rx="2.5" ry="2.50034" fill="#D7D7D7"/>
<ellipse cx="151.5" cy="16.5003" rx="2.5" ry="2.50034" fill="#D7D7D7"/>
<ellipse cx="170.5" cy="16.5003" rx="2.5" ry="2.50034" fill="#D7D7D7"/>
<ellipse cx="73.5" cy="36.5003" rx="2.5" ry="2.50034" fill="#D7D7D7"/>
<ellipse cx="92.5" cy="36.5003" rx="2.5" ry="2.50034" fill="#D7D7D7"/>
<ellipse cx="112.5" cy="36.5003" rx="2.5" ry="2.50034" fill="#D7D7D7"/>
<ellipse cx="131.5" cy="36.5003" rx="2.5" ry="2.50034" fill="#D7D7D7"/>
<ellipse cx="151.5" cy="36.5003" rx="2.5" ry="2.50034" fill="#D7D7D7"/>
<ellipse cx="170.5" cy="36.5003" rx="2.5" ry="2.50034" fill="#D7D7D7"/>
<ellipse cx="190.5" cy="36.5003" rx="2.5" ry="2.50034" fill="#D7D7D7"/>
<ellipse cx="209.5" cy="36.5003" rx="2.5" ry="2.50034" fill="#D7D7D7"/>
<ellipse cx="53.5" cy="55.5003" rx="2.5" ry="2.50034" fill="#D7D7D7"/>
<ellipse cx="73.5" cy="55.5003" rx="2.5" ry="2.50034" fill="#D7D7D7"/>
<ellipse cx="92.5" cy="55.5003" rx="2.5" ry="2.50034" fill="#D7D7D7"/>
<ellipse cx="112.5" cy="55.5003" rx="2.5" ry="2.50034" fill="#D7D7D7"/>
<ellipse cx="131.5" cy="55.5003" rx="2.5" ry="2.50034" fill="#D7D7D7"/>
<ellipse cx="151.5" cy="55.5003" rx="2.5" ry="2.50034" fill="#D7D7D7"/>
<ellipse cx="170.5" cy="55.5003" rx="2.5" ry="2.50034" fill="#D7D7D7"/>
<ellipse cx="190.5" cy="55.5003" rx="2.5" ry="2.50034" fill="#D7D7D7"/>
<ellipse cx="209.5" cy="55.5003" rx="2.5" ry="2.50034" fill="#D7D7D7"/>
<ellipse cx="229.5" cy="55.5003" rx="2.5" ry="2.50034" fill="#D7D7D7"/>
<ellipse cx="53.5" cy="75.5003" rx="2.5" ry="2.50034" fill="#D7D7D7"/>
<ellipse cx="73.5" cy="75.5003" rx="2.5" ry="2.50034" fill="#D7D7D7"/>
<ellipse cx="92.5" cy="75.5003" rx="2.5" ry="2.50034" fill="#D7D7D7"/>
<ellipse cx="112.5" cy="75.5003" rx="2.5" ry="2.50034" fill="#D7D7D7"/>
<ellipse cx="131.5" cy="75.5003" rx="2.5" ry="2.50034" fill="#D7D7D7"/>
<ellipse cx="151.5" cy="75.5003" rx="2.5" ry="2.50034" fill="#D7D7D7"/>
<ellipse cx="170.5" cy="75.5003" rx="2.5" ry="2.50034" fill="#D7D7D7"/>
<ellipse cx="190.5" cy="75.5003" rx="2.5" ry="2.50034" fill="#D7D7D7"/>
<ellipse cx="209.5" cy="75.5003" rx="2.5" ry="2.50034" fill="#D7D7D7"/>
<ellipse cx="229.5" cy="75.5003" rx="2.5" ry="2.50034" fill="#D7D7D7"/>
<ellipse cx="53.5" cy="94.5003" rx="2.5" ry="2.50034" fill="#D7D7D7"/>
<ellipse cx="73.5" cy="94.5003" rx="2.5" ry="2.50034" fill="#D7D7D7"/>
<ellipse cx="92.5" cy="94.5003" rx="2.5" ry="2.50034" fill="#D7D7D7"/>
<ellipse cx="112.5" cy="94.5003" rx="2.5" ry="2.50034" fill="#D7D7D7"/>
<ellipse cx="131.5" cy="94.5003" rx="2.5" ry="2.50034" fill="#D7D7D7"/>
<ellipse cx="151.5" cy="94.5003" rx="2.5" ry="2.50034" fill="#D7D7D7"/>
<ellipse cx="170.5" cy="94.5003" rx="2.5" ry="2.50034" fill="#D7D7D7"/>
<ellipse cx="190.5" cy="94.5003" rx="2.5" ry="2.50034" fill="#D7D7D7"/>
<ellipse cx="209.5" cy="94.5003" rx="2.5" ry="2.50034" fill="#D7D7D7"/>
<ellipse cx="229.5" cy="94.5003" rx="2.5" ry="2.50034" fill="#D7D7D7"/>
<ellipse cx="53.5" cy="114.5" rx="2.5" ry="2.50034" fill="#D7D7D7"/>
<ellipse cx="73.5" cy="114.5" rx="2.5" ry="2.50034" fill="#D7D7D7"/>
<ellipse cx="92.5" cy="114.5" rx="2.5" ry="2.50034" fill="#D7D7D7"/>
<ellipse cx="112.5" cy="114.5" rx="2.5" ry="2.50034" fill="#D7D7D7"/>
<ellipse cx="131.5" cy="114.5" rx="2.5" ry="2.50034" fill="#D7D7D7"/>
<ellipse cx="151.5" cy="114.5" rx="2.5" ry="2.50034" fill="#D7D7D7"/>
<ellipse cx="170.5" cy="114.5" rx="2.5" ry="2.50034" fill="#D7D7D7"/>
<ellipse cx="190.5" cy="114.5" rx="2.5" ry="2.50034" fill="#D7D7D7"/>
<ellipse cx="209.5" cy="114.5" rx="2.5" ry="2.50034" fill="#D7D7D7"/>
<ellipse cx="229.5" cy="114.5" rx="2.5" ry="2.50034" fill="#D7D7D7"/>
<ellipse cx="53.5" cy="133.5" rx="2.5" ry="2.50034" fill="#D7D7D7"/>
<ellipse cx="73.5" cy="133.5" rx="2.5" ry="2.50034" fill="#D7D7D7"/>
<ellipse cx="92.5" cy="133.5" rx="2.5" ry="2.50034" fill="#D7D7D7"/>
<ellipse cx="112.5" cy="133.5" rx="2.5" ry="2.50034" fill="#D7D7D7"/>
<ellipse cx="131.5" cy="133.5" rx="2.5" ry="2.50034" fill="#D7D7D7"/>
<ellipse cx="151.5" cy="133.5" rx="2.5" ry="2.50034" fill="#D7D7D7"/>
<ellipse cx="170.5" cy="133.5" rx="2.5" ry="2.50034" fill="#D7D7D7"/>
<ellipse cx="190.5" cy="133.5" rx="2.5" ry="2.50034" fill="#D7D7D7"/>
<ellipse cx="209.5" cy="133.5" rx="2.5" ry="2.50034" fill="#D7D7D7"/>
<ellipse cx="229.5" cy="133.5" rx="2.5" ry="2.50034" fill="#D7D7D7"/>
<ellipse cx="53.5" cy="153.5" rx="2.5" ry="2.50034" fill="#D7D7D7"/>
<ellipse cx="73.5" cy="153.5" rx="2.5" ry="2.50034" fill="#D7D7D7"/>
<ellipse cx="92.5" cy="153.5" rx="2.5" ry="2.50034" fill="#D7D7D7"/>
<ellipse cx="112.5" cy="153.5" rx="2.5" ry="2.50034" fill="#D7D7D7"/>
<ellipse cx="131.5" cy="153.5" rx="2.5" ry="2.50034" fill="#D7D7D7"/>
<ellipse cx="151.5" cy="153.5" rx="2.5" ry="2.50034" fill="#D7D7D7"/>
<ellipse cx="170.5" cy="153.5" rx="2.5" ry="2.50034" fill="#D7D7D7"/>
<ellipse cx="190.5" cy="153.5" rx="2.5" ry="2.50034" fill="#D7D7D7"/>
<ellipse cx="209.5" cy="153.5" rx="2.5" ry="2.50034" fill="#D7D7D7"/>
<ellipse cx="229.5" cy="153.5" rx="2.5" ry="2.50034" fill="#D7D7D7"/>
<ellipse cx="73.5" cy="172.5" rx="2.5" ry="2.50034" fill="#D7D7D7"/>
<ellipse cx="92.5" cy="172.5" rx="2.5" ry="2.50034" fill="#D7D7D7"/>
<ellipse cx="112.5" cy="172.5" rx="2.5" ry="2.50034" fill="#D7D7D7"/>
<ellipse cx="131.5" cy="172.5" rx="2.5" ry="2.50034" fill="#D7D7D7"/>
<ellipse cx="151.5" cy="172.5" rx="2.5" ry="2.50034" fill="#D7D7D7"/>
<ellipse cx="170.5" cy="172.5" rx="2.5" ry="2.50034" fill="#D7D7D7"/>
<ellipse cx="190.5" cy="172.5" rx="2.5" ry="2.50034" fill="#D7D7D7"/>
<ellipse cx="209.5" cy="172.5" rx="2.5" ry="2.50034" fill="#D7D7D7"/>
<ellipse cx="112.5" cy="192.5" rx="2.5" ry="2.50034" fill="#D7D7D7"/>
<ellipse cx="131.5" cy="192.5" rx="2.5" ry="2.50034" fill="#D7D7D7"/>
<ellipse cx="151.5" cy="192.5" rx="2.5" ry="2.50034" fill="#D7D7D7"/>
<ellipse cx="170.5" cy="192.5" rx="2.5" ry="2.50034" fill="#D7D7D7"/>
<defs>
<clipPath id="clip0">
<rect width="483" height="294" fill="white" transform="translate(33 142)"/>
</clipPath>
</defs>
</svg>
