<svg width="617" height="420" viewBox="0 0 617 420" fill="none" xmlns="http://www.w3.org/2000/svg">
<ellipse cx="474.5" cy="21.5003" rx="2.5" ry="2.50034" fill="#D7D7D7"/>
<ellipse cx="493.5" cy="21.5003" rx="2.5" ry="2.50034" fill="#D7D7D7"/>
<ellipse cx="513.5" cy="21.5003" rx="2.5" ry="2.50034" fill="#D7D7D7"/>
<ellipse cx="532.5" cy="21.5003" rx="2.5" ry="2.50034" fill="#D7D7D7"/>
<ellipse cx="435.5" cy="41.5003" rx="2.5" ry="2.50034" fill="#D7D7D7"/>
<ellipse cx="454.5" cy="41.5003" rx="2.5" ry="2.50034" fill="#D7D7D7"/>
<ellipse cx="474.5" cy="41.5003" rx="2.5" ry="2.50034" fill="#D7D7D7"/>
<ellipse cx="493.5" cy="41.5003" rx="2.5" ry="2.50034" fill="#D7D7D7"/>
<ellipse cx="513.5" cy="41.5003" rx="2.5" ry="2.50034" fill="#D7D7D7"/>
<ellipse cx="532.5" cy="41.5003" rx="2.5" ry="2.50034" fill="#D7D7D7"/>
<ellipse cx="552.5" cy="41.5003" rx="2.5" ry="2.50034" fill="#D7D7D7"/>
<ellipse cx="571.5" cy="41.5003" rx="2.5" ry="2.50034" fill="#D7D7D7"/>
<ellipse cx="415.5" cy="60.5003" rx="2.5" ry="2.50034" fill="#D7D7D7"/>
<ellipse cx="435.5" cy="60.5003" rx="2.5" ry="2.50034" fill="#D7D7D7"/>
<ellipse cx="454.5" cy="60.5003" rx="2.5" ry="2.50034" fill="#D7D7D7"/>
<ellipse cx="474.5" cy="60.5003" rx="2.5" ry="2.50034" fill="#D7D7D7"/>
<ellipse cx="493.5" cy="60.5003" rx="2.5" ry="2.50034" fill="#D7D7D7"/>
<ellipse cx="513.5" cy="60.5003" rx="2.5" ry="2.50034" fill="#D7D7D7"/>
<ellipse cx="532.5" cy="60.5003" rx="2.5" ry="2.50034" fill="#D7D7D7"/>
<ellipse cx="552.5" cy="60.5003" rx="2.5" ry="2.50034" fill="#D7D7D7"/>
<ellipse cx="571.5" cy="60.5003" rx="2.5" ry="2.50034" fill="#D7D7D7"/>
<ellipse cx="591.5" cy="60.5003" rx="2.5" ry="2.50034" fill="#D7D7D7"/>
<ellipse cx="415.5" cy="80.5003" rx="2.5" ry="2.50034" fill="#D7D7D7"/>
<ellipse cx="435.5" cy="80.5003" rx="2.5" ry="2.50034" fill="#D7D7D7"/>
<ellipse cx="454.5" cy="80.5003" rx="2.5" ry="2.50034" fill="#D7D7D7"/>
<ellipse cx="474.5" cy="80.5003" rx="2.5" ry="2.50034" fill="#D7D7D7"/>
<ellipse cx="493.5" cy="80.5003" rx="2.5" ry="2.50034" fill="#D7D7D7"/>
<ellipse cx="513.5" cy="80.5003" rx="2.5" ry="2.50034" fill="#D7D7D7"/>
<ellipse cx="532.5" cy="80.5003" rx="2.5" ry="2.50034" fill="#D7D7D7"/>
<ellipse cx="552.5" cy="80.5003" rx="2.5" ry="2.50034" fill="#D7D7D7"/>
<ellipse cx="571.5" cy="80.5003" rx="2.5" ry="2.50034" fill="#D7D7D7"/>
<ellipse cx="591.5" cy="80.5003" rx="2.5" ry="2.50034" fill="#D7D7D7"/>
<ellipse cx="415.5" cy="99.5003" rx="2.5" ry="2.50034" fill="#D7D7D7"/>
<ellipse cx="435.5" cy="99.5003" rx="2.5" ry="2.50034" fill="#D7D7D7"/>
<ellipse cx="454.5" cy="99.5003" rx="2.5" ry="2.50034" fill="#D7D7D7"/>
<ellipse cx="474.5" cy="99.5003" rx="2.5" ry="2.50034" fill="#D7D7D7"/>
<ellipse cx="493.5" cy="99.5003" rx="2.5" ry="2.50034" fill="#D7D7D7"/>
<ellipse cx="513.5" cy="99.5003" rx="2.5" ry="2.50034" fill="#D7D7D7"/>
<ellipse cx="532.5" cy="99.5003" rx="2.5" ry="2.50034" fill="#D7D7D7"/>
<ellipse cx="552.5" cy="99.5003" rx="2.5" ry="2.50034" fill="#D7D7D7"/>
<ellipse cx="571.5" cy="99.5003" rx="2.5" ry="2.50034" fill="#D7D7D7"/>
<ellipse cx="591.5" cy="99.5003" rx="2.5" ry="2.50034" fill="#D7D7D7"/>
<ellipse cx="415.5" cy="119.5" rx="2.5" ry="2.50034" fill="#D7D7D7"/>
<ellipse cx="435.5" cy="119.5" rx="2.5" ry="2.50034" fill="#D7D7D7"/>
<ellipse cx="454.5" cy="119.5" rx="2.5" ry="2.50034" fill="#D7D7D7"/>
<ellipse cx="474.5" cy="119.5" rx="2.5" ry="2.50034" fill="#D7D7D7"/>
<ellipse cx="493.5" cy="119.5" rx="2.5" ry="2.50034" fill="#D7D7D7"/>
<ellipse cx="513.5" cy="119.5" rx="2.5" ry="2.50034" fill="#D7D7D7"/>
<ellipse cx="532.5" cy="119.5" rx="2.5" ry="2.50034" fill="#D7D7D7"/>
<ellipse cx="552.5" cy="119.5" rx="2.5" ry="2.50034" fill="#D7D7D7"/>
<ellipse cx="571.5" cy="119.5" rx="2.5" ry="2.50034" fill="#D7D7D7"/>
<ellipse cx="591.5" cy="119.5" rx="2.5" ry="2.50034" fill="#D7D7D7"/>
<ellipse cx="415.5" cy="138.5" rx="2.5" ry="2.50034" fill="#D7D7D7"/>
<ellipse cx="435.5" cy="138.5" rx="2.5" ry="2.50034" fill="#D7D7D7"/>
<ellipse cx="454.5" cy="138.5" rx="2.5" ry="2.50034" fill="#D7D7D7"/>
<ellipse cx="474.5" cy="138.5" rx="2.5" ry="2.50034" fill="#D7D7D7"/>
<ellipse cx="493.5" cy="138.5" rx="2.5" ry="2.50034" fill="#D7D7D7"/>
<ellipse cx="513.5" cy="138.5" rx="2.5" ry="2.50034" fill="#D7D7D7"/>
<ellipse cx="532.5" cy="138.5" rx="2.5" ry="2.50034" fill="#D7D7D7"/>
<ellipse cx="552.5" cy="138.5" rx="2.5" ry="2.50034" fill="#D7D7D7"/>
<ellipse cx="571.5" cy="138.5" rx="2.5" ry="2.50034" fill="#D7D7D7"/>
<ellipse cx="591.5" cy="138.5" rx="2.5" ry="2.50034" fill="#D7D7D7"/>
<ellipse cx="415.5" cy="158.5" rx="2.5" ry="2.50034" fill="#D7D7D7"/>
<ellipse cx="435.5" cy="158.5" rx="2.5" ry="2.50034" fill="#D7D7D7"/>
<ellipse cx="454.5" cy="158.5" rx="2.5" ry="2.50034" fill="#D7D7D7"/>
<ellipse cx="474.5" cy="158.5" rx="2.5" ry="2.50034" fill="#D7D7D7"/>
<ellipse cx="493.5" cy="158.5" rx="2.5" ry="2.50034" fill="#D7D7D7"/>
<ellipse cx="513.5" cy="158.5" rx="2.5" ry="2.50034" fill="#D7D7D7"/>
<ellipse cx="532.5" cy="158.5" rx="2.5" ry="2.50034" fill="#D7D7D7"/>
<ellipse cx="552.5" cy="158.5" rx="2.5" ry="2.50034" fill="#D7D7D7"/>
<ellipse cx="571.5" cy="158.5" rx="2.5" ry="2.50034" fill="#D7D7D7"/>
<ellipse cx="591.5" cy="158.5" rx="2.5" ry="2.50034" fill="#D7D7D7"/>
<ellipse cx="435.5" cy="177.5" rx="2.5" ry="2.50034" fill="#D7D7D7"/>
<ellipse cx="454.5" cy="177.5" rx="2.5" ry="2.50034" fill="#D7D7D7"/>
<ellipse cx="474.5" cy="177.5" rx="2.5" ry="2.50034" fill="#D7D7D7"/>
<ellipse cx="493.5" cy="177.5" rx="2.5" ry="2.50034" fill="#D7D7D7"/>
<ellipse cx="513.5" cy="177.5" rx="2.5" ry="2.50034" fill="#D7D7D7"/>
<ellipse cx="532.5" cy="177.5" rx="2.5" ry="2.50034" fill="#D7D7D7"/>
<ellipse cx="552.5" cy="177.5" rx="2.5" ry="2.50034" fill="#D7D7D7"/>
<ellipse cx="571.5" cy="177.5" rx="2.5" ry="2.50034" fill="#D7D7D7"/>
<ellipse cx="474.5" cy="197.5" rx="2.5" ry="2.50034" fill="#D7D7D7"/>
<ellipse cx="493.5" cy="197.5" rx="2.5" ry="2.50034" fill="#D7D7D7"/>
<ellipse cx="513.5" cy="197.5" rx="2.5" ry="2.50034" fill="#D7D7D7"/>
<ellipse cx="532.5" cy="197.5" rx="2.5" ry="2.50034" fill="#D7D7D7"/>
<path fill-rule="evenodd" clip-rule="evenodd" d="M277.837 55.2386C330.364 63.395 387.536 39.003 432.817 64.2309C479.105 90.0193 487.183 144.487 513.806 187.126C549.154 243.74 631.485 290.849 614.793 353.984C598.363 416.126 514.078 418.928 432.817 418.928C348.904 418.928 334.994 421.34 277.837 418.928C223.097 416.618 173.885 412.261 122.858 401.943C53.3218 387.881 24.084 384.683 5.87346 335C-12.3623 285.247 16.6696 234.528 27.8705 183.129C41.0418 122.689 17.2158 38.7935 76.8641 8.27865C138.367 -23.1847 208.07 44.405 277.837 55.2386Z" fill="#E5D7CA"/>
<g clip-path="url(#clip0)">
<path d="M370 313.758L351.913 318.73L370 307.792C369.602 289.827 362.966 271 362.966 271C362.966 271 324.104 282.179 313.73 301.826C303.356 321.472 311.246 335.057 325.788 342.595C340.329 350.133 355.606 349.315 365.981 329.668C368.29 325.295 369.616 319.378 370 313.758Z" fill="#F2F2F2"/>
<path d="M347.968 318.011L346.969 319.01C341.071 330.203 334.903 337.759 327.998 341.982C327.899 342.045 328.098 341.918 327.998 341.982H327V340.983C334.565 336.48 340.823 327.773 345.971 318.011C346.14 317.698 346.807 317.335 346.969 317.012C349.112 312.861 350.246 308.313 351.962 304.028C352.097 303.698 352.827 303.367 352.96 303.03C355.195 297.362 356.459 291.944 357.952 287.049C358.059 286.704 358.851 286.394 358.951 286.051C361.445 277.755 362.648 271.455 362.945 270.07C362.984 269.902 362.939 270.092 362.945 270.07H363.943C363.938 270.092 364.074 270.492 363.943 271.069C363.467 273.229 362.179 279.589 359.949 287.049C359.847 287.385 359.058 287.703 358.951 288.048C357.743 292.021 356.643 296.513 354.957 301.032C354.535 302.168 354.394 302.936 353.958 304.028C353.83 304.369 353.096 304.697 352.96 305.027C351.106 309.659 349.955 314.155 347.968 318.011Z" fill="white"/>
<path d="M359.988 286.01C359.648 285.883 358.335 286.152 357.99 286.01C357.051 285.626 356.887 285.495 355.992 285.014C352.173 282.967 348.582 279.586 345.999 276.045C345.668 276.196 345.339 275.891 345 276.045C347.697 279.809 350.959 282.851 354.992 285.014C355.948 285.527 356.987 286.6 357.99 287.007C358.331 287.146 358.646 286.884 358.989 287.007C361.815 288.033 364.987 288.888 367.982 289C367.915 288.621 368.045 288.367 367.982 288.003C365.16 287.873 362.652 286.978 359.988 286.01Z" fill="white"/>
<path d="M353.998 303.796C353.659 303.641 353.327 303.97 352.998 303.796C352.896 303.748 352.098 303.849 351.998 303.796C347.851 301.602 344.671 297.772 341.999 293.885C339.328 289.997 337.588 285.697 337 281C336.662 281.184 336.336 281.8 336 281.991C336.667 286.782 338.242 290.923 340.999 294.876C343.757 298.829 347.76 301.553 351.998 303.796C352.132 303.867 351.862 304.722 351.998 304.787C352.335 304.959 352.662 304.628 352.998 304.787C358.225 307.217 364.301 308.581 369.996 307.761C369.991 307.396 370.007 307.137 369.996 306.77C364.446 307.597 359.09 306.179 353.998 303.796Z" fill="white"/>
<path d="M348.186 317.899C347.837 317.753 347.537 317.062 347.196 316.902C346.83 316.729 346.563 317.089 346.205 316.902C340.632 313.979 336.04 308.624 333.331 302.945C330.622 297.265 330.114 291.169 331.35 285C330.933 285.274 329.777 285.718 329.369 285.997C328.338 292.258 329.51 298.263 332.34 303.942C335.171 309.621 339.595 314.951 345.215 317.899C345.573 318.086 345.842 317.733 346.205 317.899C346.549 318.066 346.849 318.745 347.196 318.896C354.217 321.896 362.796 321.499 369.974 318.896C370.059 318.49 369.904 318.312 369.974 317.899C362.932 320.621 355.136 320.849 348.186 317.899Z" fill="white"/>
<path d="M130 314.758L148.087 319.73L130 308.792C130.398 290.827 137.034 272 137.034 272C137.034 272 175.896 283.179 186.27 302.826C196.644 322.472 188.754 336.057 174.212 343.595C159.671 351.133 144.394 350.315 134.019 330.668C131.71 326.295 130.384 320.378 130 314.758Z" fill="#F2F2F2"/>
<path d="M152.032 319.011L153.031 320.01C158.929 331.203 165.097 338.759 172.002 342.982C172.101 343.045 171.902 342.918 172.002 342.982H173V341.983C165.435 337.48 159.177 328.773 154.029 319.011C153.86 318.698 153.193 318.335 153.031 318.012C150.888 313.861 149.754 309.313 148.038 305.028C147.903 304.698 147.173 304.367 147.04 304.03C144.805 298.362 143.541 292.944 142.048 288.049C141.941 287.704 141.149 287.394 141.049 287.051C138.555 278.755 137.352 272.455 137.055 271.07C137.016 270.902 137.061 271.092 137.055 271.07H136.057C136.062 271.092 135.926 271.492 136.057 272.069C136.533 274.229 137.821 280.589 140.051 288.049C140.153 288.385 140.942 288.703 141.049 289.048C142.257 293.021 143.357 297.513 145.043 302.032C145.465 303.168 145.606 303.936 146.042 305.028C146.17 305.369 146.904 305.697 147.04 306.027C148.894 310.659 150.045 315.155 152.032 319.011Z" fill="white"/>
<path d="M131.018 290.003C130.955 290.367 131.085 290.621 131.018 291C134.013 290.888 137.185 290.033 140.011 289.007C140.354 288.884 140.669 289.146 141.01 289.007C142.013 288.6 143.052 287.527 144.008 287.014C148.041 284.851 151.303 281.809 154 278.045C153.661 277.891 153.332 278.196 153.001 278.045C150.418 281.586 146.827 284.967 143.008 287.014C142.113 287.495 141.949 287.626 141.01 288.01C140.665 288.152 139.352 287.883 139.012 288.01C136.348 288.978 133.84 289.873 131.018 290.003Z" fill="white"/>
<path d="M129.004 308.77C128.993 309.137 129.009 309.396 129.004 309.761C134.699 310.581 140.775 309.217 146.002 306.787C146.338 306.628 146.665 306.959 147.002 306.787C147.138 306.722 146.868 305.867 147.002 305.796C151.24 303.553 155.243 300.829 158.001 296.876C160.758 292.923 162.333 288.782 163 283.991C162.664 283.8 162.338 283.184 162 283C161.412 287.697 159.672 291.997 157.001 295.885C154.329 299.772 151.149 303.602 147.002 305.796C146.902 305.849 146.104 305.748 146.002 305.796C145.673 305.97 145.341 305.641 145.002 305.796C139.91 308.179 134.554 309.597 129.004 308.77Z" fill="white"/>
<path d="M130.026 318.899C130.096 319.312 129.942 319.49 130.026 319.896C137.204 322.499 145.783 322.896 152.804 319.896C153.151 319.745 153.451 319.066 153.795 318.899C154.158 318.733 154.427 319.086 154.785 318.899C160.405 315.951 164.829 310.621 167.66 304.942C170.49 299.263 171.662 293.258 170.631 286.997C170.223 286.718 169.067 286.274 168.65 286C169.886 292.169 169.378 298.265 166.669 303.945C163.96 309.624 159.368 314.979 153.795 317.902C153.437 318.089 153.17 317.729 152.804 317.902C152.463 318.062 152.163 318.753 151.814 318.899C144.864 321.849 137.068 321.621 130.026 318.899Z" fill="white"/>
<path d="M216 329.089L227.062 331.096L216 325.075C216.235 314.342 220.023 303 220.023 303C220.023 303 243.059 309.323 249.187 321.062C255.314 332.8 250.736 340.64 242.147 345.144C233.558 349.647 224.139 349.858 218.011 338.12C216.647 335.507 216.227 332.446 216 329.089Z" fill="#F2F2F2"/>
<path d="M229.018 331.008V332.006C232.526 338.691 235.896 343.467 240.002 345.989C240.061 346.027 240.941 345.951 241 345.989V344.99C236.502 342.301 233.078 337.836 230.017 332.006C229.916 331.819 229.115 331.2 229.018 331.008C227.744 328.528 227.043 326.575 226.023 324.016C225.942 323.819 226.102 323.219 226.023 323.017C224.694 319.633 222.917 315.953 222.029 313.03C221.966 312.823 222.089 313.235 222.029 313.03C220.546 308.076 220.209 303.869 220.032 303.042C220.009 302.941 220.035 303.055 220.032 303.042H219.034C219.037 303.055 218.956 303.696 219.034 304.041C219.317 305.331 220.704 308.574 222.029 313.03C222.09 313.23 221.966 313.822 222.029 314.028C222.748 316.401 223.024 318.321 224.026 321.02C224.277 321.698 224.766 322.365 225.025 323.017C225.101 323.221 224.944 323.819 225.025 324.016C226.127 326.783 227.837 328.705 229.018 331.008Z" fill="white"/>
<path d="M216.011 314.003C215.972 314.227 216.052 314.767 216.011 315C217.834 314.931 219.287 314.635 221.007 314.003C221.216 313.928 221.799 314.089 222.006 314.003C222.617 313.753 223.423 313.323 224.005 313.007C226.459 311.676 228.358 309.344 230 307.027C229.794 306.933 229.203 307.121 229.001 307.027C227.429 309.207 225.33 310.751 223.005 312.01C222.46 312.306 222.578 312.77 222.006 313.007C221.796 313.094 221.214 312.929 221.007 313.007C219.385 313.602 217.729 313.923 216.011 314.003Z" fill="white"/>
<path d="M215.002 324.888C214.996 325.105 215.005 325.662 215.002 325.878C218.352 326.364 221.926 325.336 225.001 323.897C225.199 323.803 224.803 323.999 225.001 323.897C225.081 323.858 225.922 323.939 226.001 323.897C228.494 322.569 230.378 320.296 232 317.956C233.622 315.615 234.607 312.869 235 310.033C234.803 309.92 234.199 310.142 234 310.033C233.654 312.814 232.572 315.654 231 317.956C229.429 320.257 227.441 321.608 225.001 322.907C224.942 322.938 225.061 322.879 225.001 322.907C224.808 323.01 225.2 323.806 225.001 323.897C222.006 325.308 218.267 325.378 215.002 324.888Z" fill="white"/>
<path d="M215.015 330.798C215.056 331.036 214.966 331.551 215.015 331.785C219.223 333.288 223.791 333.518 227.907 331.785C228.11 331.698 228.697 330.895 228.898 330.798C229.111 330.702 228.688 330.906 228.898 330.798C232.192 329.096 235.172 326.182 236.831 322.903C238.49 319.623 239.419 315.662 238.815 312.047C238.576 311.886 238.067 312.205 237.823 312.047C238.547 315.609 238.419 319.623 236.831 322.903C235.244 326.182 232.165 328.123 228.898 329.811C228.688 329.919 229.112 330.698 228.898 330.798C228.698 330.891 228.111 330.714 227.907 330.798C223.833 332.502 219.143 332.37 215.015 330.798Z" fill="white"/>
<path d="M431.003 230.954C422.532 229.545 412.931 229.544 402.044 230.954C401.772 230.957 401.297 231.056 401.045 230.954C400.793 230.852 401.239 230.145 401.045 229.953C400.852 229.761 400.152 230.205 400.047 229.953C399.941 229.701 400.048 229.226 400.047 228.953V218.946C400.047 218.398 400.661 218.333 401.045 217.946C401.43 217.558 401.5 216.946 402.044 216.945C411.631 215.686 421.415 215.684 431.003 216.945C431.541 216.953 431.624 217.559 432.001 217.946C432.378 218.332 433.002 218.404 433 218.946V228.953C432.999 229.501 432.386 229.566 432.001 229.953C431.617 230.341 431.547 230.953 431.003 230.954Z" fill="white"/>
<path d="M431.003 230.954C422.532 229.545 412.931 229.544 402.044 230.954C401.772 230.957 401.297 231.056 401.045 230.954C400.793 230.852 401.239 230.145 401.045 229.953C400.852 229.761 400.152 230.205 400.047 229.953C399.941 229.701 400.048 229.226 400.047 228.953V218.946C400.047 218.398 400.661 218.333 401.045 217.946C401.43 217.558 401.5 216.946 402.044 216.945C411.631 215.686 421.415 215.684 431.003 216.945C431.541 216.953 431.624 217.559 432.001 217.946C432.378 218.332 433.002 218.404 433 218.946V228.953C432.999 229.501 432.386 229.566 432.001 229.953C431.617 230.341 431.547 230.953 431.003 230.954ZM416.024 216.945C411.335 216.937 406.691 217.311 402.044 217.946C401.845 217.942 402.229 217.871 402.044 217.946C401.859 218.02 401.188 217.806 401.045 217.946C400.903 218.086 401.123 217.761 401.045 217.946C400.967 218.13 401.047 218.746 401.045 218.946V228.953C401.046 229.351 400.765 229.671 401.045 229.953C401.325 230.235 401.648 229.953 402.044 229.953C412.94 228.54 422.483 228.54 431.003 229.953C431.395 229.947 431.726 230.235 432.001 229.953C432.277 229.672 432.001 229.348 432.001 228.953V218.946C432.001 218.547 432.281 218.228 432.001 217.946C431.721 217.664 431.399 217.946 431.003 217.946C426.096 217.326 420.969 216.953 416.024 216.945Z" fill="#59AC80"/>
<path d="M417 227C419.209 227 421 225.209 421 223C421 220.791 419.209 219 417 219C414.791 219 413 220.791 413 223C413 225.209 414.791 227 417 227Z" fill="#59AC80"/>
<path d="M406.959 220.929H404.041C403.826 220.928 403.22 221.089 403.068 220.929C402.915 220.768 403.068 220.203 403.068 219.976V219.024C403.068 218.797 402.915 218.232 403.068 218.071C403.22 217.911 403.826 218.072 404.041 218.071H406.959C407.174 218.072 407.78 217.911 407.932 218.071C408.085 218.232 407.932 218.797 407.932 219.024V219.976C407.932 220.203 408.085 220.768 407.932 220.929C407.78 221.089 407.174 220.928 406.959 220.929Z" fill="#59AC80"/>
<path d="M429.959 228.929H427.041C426.826 228.928 426.22 229.089 426.068 228.929C425.915 228.768 426.068 228.203 426.068 227.976V227.024C426.068 226.797 425.915 226.232 426.068 226.071C426.22 225.911 426.826 226.072 427.041 226.071H429.959C430.174 226.072 430.78 225.911 430.932 226.071C431.085 226.232 430.932 226.797 430.932 227.024V227.976C430.932 228.203 431.085 228.768 430.932 228.929C430.78 229.089 430.174 228.928 429.959 228.929Z" fill="#59AC80"/>
<path d="M426.886 226.842C419.566 222.207 410.703 217.972 400.041 214.994C399.788 214.89 400.235 215.187 400.041 214.994C399.847 214.8 399.152 214.26 399.047 214.006C398.942 213.753 399.047 213.294 399.047 213.019C399.047 212.744 398.941 213.273 399.047 213.019L403.024 203.145C403.238 202.638 403.51 202.365 404.018 202.158C404.526 201.951 405.501 201.944 406.007 202.158C415.402 204.764 424.437 209.069 432.851 214.006C433.348 214.225 433.646 214.488 433.845 214.994C434.045 215.499 434.058 215.481 433.845 215.981L429.868 225.855C429.655 226.362 429.382 226.635 428.874 226.842C428.366 227.049 427.391 227.056 426.886 226.842Z" fill="white"/>
<path d="M426.886 226.842C419.566 222.207 410.703 217.972 400.041 214.994C399.788 214.89 400.235 215.187 400.041 214.994C399.847 214.8 399.152 214.26 399.047 214.006C398.942 213.753 399.047 213.294 399.047 213.019C399.047 212.744 398.941 213.273 399.047 213.019L403.024 203.145C403.238 202.638 403.51 202.365 404.018 202.158C404.526 201.951 405.501 201.944 406.007 202.158C415.402 204.764 424.437 209.069 432.851 214.006C433.348 214.225 433.646 214.488 433.845 214.994C434.045 215.499 434.058 215.481 433.845 215.981L429.868 225.855C429.655 226.362 429.382 226.635 428.874 226.842C428.366 227.049 427.391 227.056 426.886 226.842ZM418.932 207.095C414.579 205.242 410.57 204.386 406.007 203.145C405.823 203.064 405.213 203.149 405.012 203.145C404.812 203.141 404.205 203.071 404.018 203.145C403.831 203.219 404.162 203.005 404.018 203.145C403.874 203.285 404.097 203.948 404.018 204.132L400.041 213.019C399.886 213.388 399.891 213.635 400.041 214.006C400.191 214.377 399.674 214.838 400.041 214.994C410.713 217.972 419.523 221.196 426.886 225.855C427.252 226.003 428.509 226.007 428.874 225.855C429.239 225.703 428.72 225.233 428.874 224.868L432.851 215.981C433.006 215.612 433.001 215.365 432.851 214.994C432.701 214.623 433.219 214.162 432.851 214.006C428.535 211.503 423.522 209.047 418.932 207.095Z" fill="#59AC80"/>
<path d="M416 218C418.209 218 420 216.209 420 214C420 211.791 418.209 210 416 210C413.791 210 412 211.791 412 214C412 216.209 413.791 218 416 218Z" fill="#59AC80"/>
<path d="M406.986 207.938L404.07 206.969C403.879 206.885 404.148 206.199 404.07 206C403.992 205.801 403.99 206.198 404.07 206V205.031C404.151 204.833 404.85 204.142 405.042 204.062C405.234 203.981 405.823 203.978 406.014 204.062L408.93 205.031C409.121 205.115 408.852 205.801 408.93 206C409.008 206.199 409.01 205.802 408.93 206V206.969C408.849 207.167 408.15 207.858 407.958 207.938C407.766 208.019 407.177 208.022 406.986 207.938Z" fill="#59AC80"/>
<path d="M425.986 224.938L423.07 223.969C422.879 223.885 423.148 223.199 423.07 223C422.992 222.801 422.99 223.198 423.07 223V222.031C423.151 221.833 423.85 221.142 424.042 221.062C424.234 220.981 424.823 220.978 425.014 221.062L427.93 222.031C428.121 222.115 427.852 222.801 427.93 223C428.008 223.199 428.01 222.802 427.93 223V223.969C427.849 224.167 427.15 224.858 426.958 224.938C426.766 225.019 426.177 225.022 425.986 224.938Z" fill="#59AC80"/>
<path d="M435.009 220.94C435.719 220.512 435.546 219.632 436.008 218.944C436.47 218.256 436.879 217.768 437.007 216.949C437.136 216.13 437.237 215.75 437.007 214.954C436.777 214.157 436.553 213.583 436.008 212.958L446 195L436.008 195.998L428.015 211.961C427.028 212.947 426.1 214.558 426.016 215.951C425.933 217.345 426.154 218.845 427.016 219.942C427.877 221.04 429.64 221.69 431.012 221.937C432.385 222.185 433.819 221.667 435.009 220.94Z" fill="#FFB6B6"/>
<path d="M512 341H505L502 314H512V341Z" fill="#FFB6B6"/>
<path d="M513 348H491C491 345.688 492.394 343.635 494 342C495.606 340.365 497.729 339 500 339H513V348Z" fill="#2F2E41"/>
<path d="M464 341H457L454 314H464V341Z" fill="#FFB6B6"/>
<path d="M466 348H444C444 345.688 445.394 343.635 447 342C448.606 340.365 450.729 339 453 339H466V348Z" fill="#2F2E41"/>
<path d="M446.419 196C446.419 196 444.641 223.285 448.407 237C452.173 250.715 453.376 334 453.376 334H466.296L477.228 221L502.074 334L514 333L507.043 200L446.419 196Z" fill="#2F2E41"/>
<path d="M501.881 104L491.902 97L475.934 101L471.943 111L463.959 115C461.474 116.23 459.599 117.757 457.971 120C456.344 122.243 455.375 125.259 454.977 128L444 202L506.871 200L514.854 112C514.934 111.084 515.138 109.875 514.854 109C514.571 108.125 513.461 107.695 512.858 107C512.256 106.305 511.688 105.406 510.863 105C510.037 104.594 509.786 104.053 508.867 104H501.881Z" fill="#E4E4E4"/>
<path d="M460 120L454 128L429 205L441 210L460 174V120Z" fill="#E4E4E4"/>
<path d="M482 92C492.77 92 501 83.7696 501 73C501 62.2304 492.77 53 482 53C471.23 53 462 62.2304 462 73C462 83.7696 471.23 92 482 92Z" fill="#2F2E41"/>
<path d="M481 93C488.732 93 495 86.732 495 79C495 71.268 488.732 65 481 65C473.268 65 467 71.268 467 79C467 86.732 473.268 93 481 93Z" fill="#FFB9B9"/>
<path d="M491 77C482.097 73.6779 479.834 71.6371 470 77L466 62H495L491 77Z" fill="#2F2E41"/>
<path d="M479 65C485.075 65 490 60.0751 490 54C490 47.9249 485.075 43 479 43C472.925 43 468 47.9249 468 54C468 60.0751 472.925 65 479 65Z" fill="#2F2E41"/>
<path d="M465.996 51C465.997 48.176 467.128 45.0453 468.982 43.0027C470.836 40.96 473.27 40.1359 475.951 40.0037C475.785 39.9954 476.119 40.0037 475.951 40.0037C473.179 40.0037 469.947 40.9405 467.987 43.0027C466.026 45.0649 465 48.0836 465 51C465 53.9164 466.026 56.9351 467.987 58.9973C469.947 61.0595 473.179 61.9963 475.951 61.9963C476.119 61.9963 475.785 62.0046 475.951 61.9963C473.27 61.8641 470.836 61.04 468.982 58.9973C467.128 56.9547 465.997 53.824 465.996 51Z" fill="#2F2E41"/>
<path opacity="0.1" d="M507 125L503 164L489 192L507 125Z" fill="#0B0C09"/>
<path d="M90 245H87V248H90V245Z" fill="#F0F0F0"/>
<path d="M413 248H406V245H413V248ZM400 248H393V245H400V248ZM386 248H379V245H386V248ZM373 248H366V245H373V248ZM359 248H353V245H359V248ZM346 248H339V245H346V248ZM333 248H326V245H333V248ZM319 248H312V245H319V248ZM306 248H299V245H306V248ZM292 248H286V245H292V248ZM279 248H272V245H279V248ZM266 248H259V245H266V248ZM252 248H245V245H252V248ZM239 248H232V245H239V248ZM225 248H219V245H225V248ZM212 248H205V245H212V248ZM199 248H192V245H199V248ZM185 248H178V245H185V248ZM172 248H165V245H172V248ZM158 248H152V245H158V248ZM145 248H138V245H145V248ZM132 248H125V245H132V248ZM118 248H111V245H118V248ZM105 248H98V245H105V248Z" fill="#F0F0F0"/>
<path d="M90 173H87V176H90V173Z" fill="#F0F0F0"/>
<path d="M413 176H406V173H413V176ZM400 176H393V173H400V176ZM386 176H379V173H386V176ZM373 176H366V173H373V176ZM359 176H353V173H359V176ZM346 176H339V173H346V176ZM333 176H326V173H333V176ZM319 176H312V173H319V176ZM306 176H299V173H306V176ZM292 176H286V173H292V176ZM279 176H272V173H279V176ZM266 176H259V173H266V176ZM252 176H245V173H252V176ZM239 176H232V173H239V176ZM225 176H219V173H225V176ZM212 176H205V173H212V176ZM199 176H192V173H199V176ZM185 176H178V173H185V176ZM172 176H165V173H172V176ZM158 176H152V173H158V176ZM145 176H138V173H145V176ZM132 176H125V173H132V176ZM118 176H111V173H118V176ZM105 176H98V173H105V176Z" fill="#F0F0F0"/>
<path d="M90 101H87V104H90V101Z" fill="#F0F0F0"/>
<path d="M413 104H406V101H413V104ZM400 104H393V101H400V104ZM386 104H379V101H386V104ZM373 104H366V101H373V104ZM359 104H353V101H359V104ZM346 104H339V101H346V104ZM333 104H326V101H333V104ZM319 104H312V101H319V104ZM306 104H299V101H306V104ZM292 104H286V101H292V104ZM279 104H272V101H279V104ZM266 104H259V101H266V104ZM252 104H245V101H252V104ZM239 104H232V101H239V104ZM225 104H219V101H225V104ZM212 104H205V101H212V104ZM199 104H192V101H199V104ZM185 104H178V101H185V104ZM172 104H165V101H172V104ZM158 104H152V101H158V104ZM145 104H138V101H145V104ZM132 104H125V101H132V104ZM118 104H111V101H118V104ZM105 104H98V101H105V104Z" fill="#F0F0F0"/>
<path d="M199 246H171V348H199V246Z" fill="#3F3D56"/>
<path d="M204 246H176V348H204V246Z" fill="#59AC80"/>
<path d="M264 174H236V348H264V174Z" fill="#3F3D56"/>
<path d="M270 174H242V348H270V174Z" fill="#59AC80"/>
<path d="M330 102H302V348H330V102Z" fill="#3F3D56"/>
<path d="M335 102H307V348H335V102Z" fill="#59AC80"/>
<path d="M88 110C91.866 110 95 106.866 95 103C95 99.134 91.866 96 88 96C84.134 96 81 99.134 81 103C81 106.866 84.134 110 88 110Z" fill="#F0F0F0"/>
<path d="M88 182C91.866 182 95 178.866 95 175C95 171.134 91.866 168 88 168C84.134 168 81 171.134 81 175C81 178.866 84.134 182 88 182Z" fill="#F0F0F0"/>
<path d="M88 254C91.866 254 95 250.866 95 247C95 243.134 91.866 240 88 240C84.134 240 81 243.134 81 247C81 250.866 84.134 254 88 254Z" fill="#F0F0F0"/>
<path d="M569 348H65V349H569V348Z" fill="#3F3D56"/>
<path d="M490.003 217.954C481.532 216.545 471.931 216.544 461.044 217.954C460.772 217.957 460.297 218.056 460.045 217.954C459.793 217.852 460.239 217.145 460.045 216.953C459.852 216.761 459.152 217.205 459.047 216.953C458.941 216.701 459.048 216.226 459.047 215.953V205.946C459.047 205.398 459.661 205.333 460.045 204.946C460.43 204.558 460.5 203.946 461.044 203.945C470.631 202.686 480.415 202.684 490.003 203.945C490.541 203.953 490.624 204.559 491.001 204.946C491.378 205.332 492.002 205.404 492 205.946V215.953C491.999 216.501 491.386 216.566 491.001 216.953C490.617 217.341 490.547 217.953 490.003 217.954Z" fill="white"/>
<path d="M490.003 217.954C481.532 216.545 471.931 216.544 461.044 217.954C460.772 217.957 460.297 218.056 460.045 217.954C459.793 217.852 460.239 217.145 460.045 216.953C459.852 216.761 459.152 217.205 459.047 216.953C458.941 216.701 459.048 216.226 459.047 215.953V205.946C459.047 205.398 459.661 205.333 460.045 204.946C460.43 204.558 460.5 203.946 461.044 203.945C470.631 202.686 480.415 202.684 490.003 203.945C490.541 203.953 490.624 204.559 491.001 204.946C491.378 205.332 492.002 205.404 492 205.946V215.953C491.999 216.501 491.386 216.566 491.001 216.953C490.617 217.341 490.547 217.953 490.003 217.954ZM475.024 203.945C470.335 203.937 465.691 204.311 461.044 204.946C460.845 204.942 461.229 204.871 461.044 204.946C460.859 205.02 460.188 204.806 460.045 204.946C459.903 205.086 460.123 204.761 460.045 204.946C459.967 205.13 460.047 205.746 460.045 205.946V215.953C460.046 216.351 459.765 216.671 460.045 216.953C460.325 217.235 460.648 216.953 461.044 216.953C471.94 215.54 481.483 215.54 490.003 216.953C490.395 216.947 490.726 217.235 491.001 216.953C491.277 216.672 491.001 216.348 491.001 215.953V205.946C491.001 205.547 491.281 205.228 491.001 204.946C490.721 204.664 490.399 204.946 490.003 204.946C485.096 204.326 479.969 203.953 475.024 203.945Z" fill="#59AC80"/>
<path d="M476 215C478.209 215 480 213.209 480 211C480 208.791 478.209 207 476 207C473.791 207 472 208.791 472 211C472 213.209 473.791 215 476 215Z" fill="#59AC80"/>
<path d="M464.959 208.929H462.041C461.826 208.928 461.22 209.089 461.068 208.929C460.915 208.768 461.068 208.203 461.068 207.976V207.024C461.068 206.797 460.915 206.232 461.068 206.071C461.22 205.911 461.826 206.072 462.041 206.071H464.959C465.174 206.072 465.78 205.911 465.932 206.071C466.085 206.232 465.932 206.797 465.932 207.024V207.976C465.932 208.203 466.085 208.768 465.932 208.929C465.78 209.089 465.174 208.928 464.959 208.929Z" fill="#59AC80"/>
<path d="M488.959 216.929H486.041C485.826 216.928 485.22 217.089 485.068 216.929C484.915 216.768 485.068 216.203 485.068 215.976V215.024C485.068 214.797 484.915 214.232 485.068 214.071C485.22 213.911 485.826 214.072 486.041 214.071H488.959C489.174 214.072 489.78 213.911 489.932 214.071C490.085 214.232 489.932 214.797 489.932 215.024V215.976C489.932 216.203 490.085 216.768 489.932 216.929C489.78 217.089 489.174 216.928 488.959 216.929Z" fill="#59AC80"/>
<path d="M484.143 205.987C484.086 205.15 483.852 203.773 484.143 202.989C484.433 202.205 485.545 201.573 486.128 200.99C486.712 200.407 487.348 200.263 488.114 199.99C488.881 199.718 489.294 198.902 490.1 198.991L499.036 181L504 189.995L495.064 205.987C494.83 207.38 494.146 209.105 493.078 209.985C492.011 210.865 490.469 211.062 489.107 210.985C487.745 210.908 487.097 209.981 486.128 208.986C485.159 207.991 484.229 207.398 484.143 205.987Z" fill="#FFB6B6"/>
<path d="M507 109.105L511 104.111C511 104.111 519.54 102.215 521 114.099L520 167.036L501 197L489 194.004L505 158.047L507 109.105Z" fill="#E4E4E4"/>
</g>
<defs>
<clipPath id="clip0">
<rect width="504" height="309" fill="white" transform="translate(65 40)"/>
</clipPath>
</defs>
</svg>
