<svg xmlns="http://www.w3.org/2000/svg" width="100" height="100" viewBox="0 0 100 100">
    <path d="M50.99053,14.24654q-.51351.45858-.98968.9563c-.32086-.33191-.65253-.65253-.99-.96192-25.56647-23.53009-85.26087,20.95374.99,77.948C136.25146,35.189,76.55163-9.3004,50.99053,14.24654Zm-.98968,71.16412C30.58264,72.09029,19.8161,59.861,14.641,49.6512,9.26891,39.04793,9.93267,30.73952,12.87463,24.985,19.14111,12.75026,36.50036,9.39205,45.9674,19.12355l4.03345,4.14581,4.0332-4.15142c9.46723-9.73157,26.8263-6.36768,33.0929,5.86706,2.94757,5.75452,3.60565,14.05731-1.76648,24.6662C80.1798,59.861,69.41863,72.09029,50.00085,85.41066Z"/>
</svg>