<svg width="20" height="20" viewBox="0 0 20 20" fill="none" xmlns="http://www.w3.org/2000/svg">
<path d="M17.815 5.08518L10.315 0.710185C10.2194 0.654397 10.1107 0.625 10 0.625C9.88931 0.625 9.7806 0.654397 9.685 0.710185L2.185 5.08518C2.09064 5.14025 2.01236 5.21908 1.95797 5.31383C1.90357 5.40858 1.87497 5.51593 1.875 5.62519V14.3752C1.87497 14.4844 1.90357 14.5918 1.95797 14.6865C2.01236 14.7813 2.09064 14.8601 2.185 14.9152L9.685 19.2902C9.7806 19.346 9.88931 19.3754 10 19.3754C10.1107 19.3754 10.2194 19.346 10.315 19.2902L17.815 14.9152C17.9094 14.8601 17.9876 14.7813 18.042 14.6865C18.0964 14.5918 18.125 14.4844 18.125 14.3752V5.62519C18.125 5.51593 18.0964 5.40858 18.042 5.31383C17.9876 5.21908 17.9094 5.14025 17.815 5.08518ZM10 1.97394L16.26 5.62519L10 9.27643L3.74 5.62519L10 1.97394ZM3.125 6.71268L9.375 10.3583V17.6627L3.125 14.0164V6.71268ZM10.625 17.6627V10.3589L16.875 6.71331V14.0164L10.625 17.6627Z" fill="#323232"/>
</svg>
