<?xml version="1.0" standalone="no"?>
<!DOCTYPE svg PUBLIC "-//W3C//DTD SVG 20010904//EN"
 "http://www.w3.org/TR/2001/REC-SVG-20010904/DTD/svg10.dtd">
<svg version="1.0" xmlns="http://www.w3.org/2000/svg"
 width="896.000000pt" height="896.000000pt" viewBox="0 0 896.000000 896.000000"
 preserveAspectRatio="xMidYMid meet">
<metadata>
Created by potrace 1.11, written by Peter Selinger 2001-2013
</metadata>
<g transform="translate(0.000000,896.000000) scale(0.100000,-0.100000)"
fill="#000000" stroke="none">
<path d="M354 8151 c-29 -13 -74 -68 -75 -94 -1 -12 -2 -29 -3 -37 -2 -17 41
-99 59 -115 15 -13 255 -314 255 -320 0 -3 11 -17 25 -32 13 -16 74 -91 135
-168 124 -157 199 -252 217 -275 7 -8 40 -51 75 -95 34 -44 67 -83 72 -87 6
-4 7 -10 4 -14 -4 -3 -229 -6 -500 -6 -271 0 -505 -2 -521 -5 -15 -3 -43 -21
-61 -41 -32 -32 -34 -40 -32 -89 1 -50 5 -58 42 -92 22 -20 84 -67 137 -106
54 -38 105 -76 115 -83 46 -34 297 -220 437 -322 87 -63 195 -143 242 -177 46
-35 87 -63 90 -63 3 0 11 -6 17 -13 10 -12 203 -156 244 -182 8 -5 23 -16 31
-22 9 -7 66 -49 126 -93 61 -44 119 -87 130 -96 26 -19 154 -114 186 -136 13
-10 94 -69 179 -132 85 -63 169 -124 185 -136 59 -42 260 -191 275 -203 8 -7
27 -20 41 -29 14 -9 32 -23 40 -30 8 -7 27 -22 44 -32 16 -11 34 -23 40 -28 5
-4 28 -22 50 -38 22 -16 45 -33 50 -38 32 -25 264 -192 282 -203 31 -19 33
-28 22 -106 -6 -37 -12 -81 -14 -98 -3 -16 -7 -41 -9 -55 -3 -14 -8 -45 -12
-70 -3 -25 -8 -58 -11 -75 -2 -16 -6 -41 -8 -55 -1 -14 -5 -38 -8 -55 -3 -16
-8 -50 -12 -75 -4 -25 -9 -58 -11 -75 -3 -16 -7 -41 -9 -55 -5 -38 -17 -123
-21 -142 -1 -9 -6 -38 -10 -65 -3 -26 -8 -57 -10 -68 -3 -11 -7 -38 -9 -60 -3
-22 -10 -65 -15 -95 -9 -55 -13 -75 -25 -160 -4 -25 -9 -58 -11 -75 -3 -16 -7
-46 -9 -65 -2 -19 -6 -46 -9 -60 -3 -14 -10 -61 -16 -105 -13 -88 -17 -118
-25 -155 -3 -14 -7 -43 -10 -65 -2 -22 -6 -49 -9 -60 -2 -11 -7 -42 -11 -70
-4 -27 -8 -59 -10 -70 -2 -11 -6 -40 -9 -64 -3 -23 -8 -55 -11 -70 -3 -15 -7
-44 -10 -64 -9 -64 -15 -101 -19 -122 -2 -11 -7 -45 -11 -75 -4 -30 -9 -64
-12 -75 -2 -11 -6 -38 -8 -60 -7 -56 -13 -100 -15 -100 -1 0 -4 -13 -6 -29 -3
-33 -43 -297 -50 -336 -2 -14 -7 -41 -10 -60 -3 -19 -7 -47 -10 -61 -2 -15 -6
-47 -9 -70 -3 -24 -9 -66 -15 -94 -5 -27 -12 -72 -15 -100 -3 -27 -10 -76 -16
-108 -17 -97 5 -157 68 -183 70 -30 133 -6 168 62 11 21 23 40 27 42 5 2 8 9
8 14 0 6 80 171 177 367 97 196 177 358 178 361 1 3 74 152 164 332 89 180
161 330 161 334 -1 4 2 10 7 13 4 3 56 104 115 224 80 160 114 220 130 226 13
5 50 21 83 35 68 31 71 32 178 81 43 19 80 35 83 35 2 0 32 13 66 29 137 62
158 71 173 71 8 0 15 4 15 8 0 5 25 17 55 27 30 11 55 22 55 26 0 6 25 15 60
24 3 0 14 6 25 12 11 6 70 32 130 58 61 26 135 58 165 72 53 24 100 45 110 48
3 1 25 11 50 22 25 11 151 66 280 123 129 56 273 120 318 141 46 21 88 39 94
39 5 0 22 7 36 14 15 8 43 22 62 30 19 8 71 31 115 51 44 21 85 38 90 40 11 2
41 15 159 69 43 20 85 36 92 36 8 0 14 5 14 10 0 6 7 10 15 10 8 0 23 4 33 9
24 14 173 81 178 81 2 0 38 16 80 35 41 19 77 35 80 35 2 0 38 16 80 35 41 19
81 35 89 35 7 0 18 7 25 15 7 8 18 15 24 15 24 0 55 46 76 115 12 39 29 90 37
115 8 25 16 52 18 60 2 8 12 42 23 75 11 33 37 114 57 180 20 66 43 138 52
160 8 22 14 40 12 40 -1 0 5 23 14 50 8 28 34 111 57 185 23 74 60 190 82 257
21 67 40 130 42 140 2 10 15 50 29 88 13 39 25 73 26 77 1 4 3 13 5 20 41 132
79 255 81 263 1 6 5 17 8 25 3 8 10 29 15 45 l9 30 640 5 c622 5 642 6 663 25
25 23 39 46 50 86 10 35 -28 118 -62 135 -21 10 -87 52 -306 192 -37 23 -74
45 -82 49 -8 4 -17 9 -20 13 -6 7 -241 155 -284 179 -17 9 -39 24 -50 34 -11
9 -24 17 -28 17 -5 0 -14 5 -21 11 -12 11 -52 36 -245 155 -111 69 -144 73
-217 32 -27 -15 -63 -34 -80 -42 -16 -8 -61 -32 -100 -54 -88 -49 -178 -97
-445 -240 -47 -25 -105 -56 -130 -70 -49 -27 -126 -68 -260 -140 -47 -24 -103
-55 -125 -67 -39 -22 -99 -54 -240 -130 -38 -21 -119 -64 -178 -96 -59 -33
-112 -59 -117 -59 -6 0 -10 -4 -10 -10 0 -5 -7 -10 -16 -10 -9 0 -28 -8 -42
-18 -15 -10 -40 -24 -57 -32 -16 -8 -32 -17 -35 -20 -3 -3 -30 -18 -60 -33
l-55 -28 -18 23 c-10 13 -26 32 -35 43 -10 11 -31 38 -47 60 -17 21 -47 57
-67 80 -21 22 -38 44 -38 49 0 5 -6 14 -13 20 -8 6 -72 83 -142 171 -71 88
-132 162 -135 165 -3 3 -13 14 -21 26 -8 11 -31 41 -51 65 -20 24 -99 121
-175 215 -76 94 -152 189 -170 210 -17 21 -44 55 -60 74 -15 19 -36 44 -45 55
-9 11 -49 60 -88 110 -93 116 -108 126 -225 141 -11 1 -20 3 -20 4 0 1 -11 3
-25 6 -14 2 -54 9 -90 15 -36 6 -74 13 -85 15 -11 2 -31 6 -45 9 -14 2 -38 7
-55 10 -16 2 -55 9 -85 15 -30 6 -67 13 -81 15 -14 2 -75 13 -135 24 -60 11
-121 22 -137 25 -15 3 -54 10 -87 16 -87 16 -89 16 -280 50 -96 17 -182 33
-190 35 -8 2 -37 7 -65 11 -27 3 -52 8 -55 9 -3 2 -24 6 -46 9 -22 4 -51 9
-64 12 -14 2 -41 7 -60 10 -19 2 -42 6 -50 9 -15 4 -69 14 -105 20 -20 2 -119
21 -165 30 -14 3 -38 7 -55 10 -16 2 -42 7 -58 10 -15 2 -53 9 -85 15 -31 6
-68 12 -82 15 -38 8 -131 24 -170 30 -19 3 -55 10 -80 15 -25 5 -58 12 -75 14
-16 3 -41 7 -55 10 -14 3 -41 7 -60 10 -43 7 -80 14 -145 26 -73 14 -137 25
-187 34 -13 2 -61 10 -108 19 -47 9 -98 19 -115 22 -16 2 -41 7 -55 10 -14 3
-38 8 -55 10 -16 2 -42 6 -58 9 -15 3 -53 10 -85 16 -31 5 -70 12 -87 15 -16
3 -43 7 -60 10 -16 3 -43 8 -60 12 -86 18 -168 24 -191 14z m481 -332 c33 -7
64 -12 68 -11 5 2 25 -2 45 -7 20 -6 51 -12 67 -15 17 -3 46 -7 65 -10 19 -3
46 -8 60 -11 24 -5 107 -20 163 -30 15 -3 39 -7 55 -10 49 -9 245 -44 357 -64
61 -11 122 -22 135 -24 51 -10 146 -27 180 -32 19 -3 42 -8 50 -10 8 -2 32 -6
52 -9 20 -2 45 -7 55 -10 10 -2 34 -7 53 -10 19 -3 46 -8 60 -11 14 -3 41 -8
60 -10 31 -5 85 -14 160 -29 48 -10 85 -16 120 -22 38 -5 88 -15 215 -40 44
-9 96 -18 115 -20 19 -2 55 -8 80 -14 25 -6 59 -12 75 -14 17 -3 59 -10 95
-16 36 -7 76 -14 90 -16 14 -3 34 -6 45 -8 11 -2 36 -7 55 -10 19 -4 46 -8 60
-11 14 -3 41 -7 60 -11 19 -3 40 -7 45 -8 6 -2 33 -6 60 -10 28 -4 57 -10 65
-13 8 -3 29 -7 45 -9 17 -2 41 -6 55 -9 14 -3 39 -8 55 -10 157 -27 211 -38
218 -44 6 -6 -41 -138 -87 -246 -7 -16 -28 -68 -46 -115 -17 -47 -36 -94 -40
-105 -36 -85 -49 -116 -55 -135 -1 -3 -5 -14 -10 -25 -4 -11 -35 -87 -68 -170
-32 -82 -64 -161 -70 -175 -5 -14 -11 -29 -12 -35 -3 -8 -126 -318 -158 -395
-5 -14 -11 -29 -13 -35 -2 -8 -81 -208 -119 -300 -4 -11 -9 -24 -11 -30 -1 -5
-17 -44 -34 -85 -17 -41 -33 -79 -34 -85 -2 -5 -7 -19 -11 -30 -5 -11 -47
-118 -95 -239 l-87 -218 -177 223 c-98 123 -190 239 -205 258 -14 19 -30 39
-36 45 -5 6 -30 38 -55 71 -25 33 -50 65 -56 70 -6 6 -33 39 -60 75 -27 36
-51 67 -54 70 -3 3 -62 77 -132 165 -69 88 -135 171 -147 184 -12 13 -21 27
-21 30 0 3 -13 20 -28 36 -15 17 -41 48 -57 70 -17 22 -36 46 -43 53 -7 8 -25
30 -40 50 -15 21 -29 39 -32 42 -3 3 -46 57 -95 120 -49 63 -92 117 -95 120
-3 3 -19 23 -35 45 -17 22 -32 42 -35 45 -5 4 -88 108 -160 200 -10 14 -32 41
-48 60 -15 19 -95 121 -177 225 -82 105 -152 192 -155 195 -3 3 -29 36 -59 74
-29 37 -59 75 -67 85 -17 20 -217 274 -253 320 -14 19 -36 46 -48 62 -13 15
-23 30 -23 33 0 4 10 4 23 2 12 -3 49 -11 82 -17z m3537 -826 c35 -43 68 -85
75 -93 23 -30 85 -105 102 -125 9 -11 63 -78 121 -150 57 -71 109 -135 115
-141 17 -19 38 -47 70 -89 17 -22 35 -44 41 -50 6 -5 28 -32 50 -60 48 -61 58
-73 130 -161 33 -39 70 -86 84 -105 14 -18 39 -49 56 -69 17 -19 99 -120 183
-225 84 -104 160 -199 169 -210 9 -11 55 -67 102 -125 95 -118 107 -133 134
-163 10 -12 30 -38 45 -57 14 -19 28 -37 31 -40 5 -4 99 -121 185 -228 5 -7
15 -18 20 -25 18 -22 116 -142 128 -157 7 -8 61 -75 120 -148 59 -73 105 -137
102 -143 -4 -5 -10 -7 -15 -4 -4 3 -41 7 -82 10 -40 2 -93 6 -118 9 -25 2 -87
7 -138 11 -51 3 -112 8 -135 10 -23 2 -80 6 -127 10 -47 3 -107 8 -135 10 -27
2 -83 6 -123 10 -41 3 -99 7 -130 10 -106 9 -207 17 -257 20 -128 8 -306 22
-395 31 -30 2 -91 7 -135 10 -44 2 -98 6 -120 8 -35 4 -128 11 -258 21 -133
10 -208 16 -252 20 -74 6 -180 14 -265 20 -41 3 -95 7 -120 9 -25 2 -87 7
-139 11 -95 7 -131 11 -137 18 -4 3 28 89 71 192 5 11 9 22 9 25 1 3 9 24 18
45 20 47 188 465 192 480 4 13 0 4 128 325 61 151 111 280 112 285 2 6 8 21
13 35 52 122 265 668 266 678 0 6 4 12 9 12 4 0 8 6 8 13 0 6 20 60 44 119 24
59 41 110 38 113 -3 3 0 5 6 5 7 0 12 10 12 23 0 19 16 47 26 47 2 0 31 -35
66 -77z m3410 -365 c71 -46 137 -87 146 -93 57 -33 282 -177 282 -181 0 -2
-153 -4 -339 -4 -259 1 -339 4 -337 13 5 26 28 101 38 126 6 14 12 32 14 40 7
35 56 181 61 181 3 0 64 -37 135 -82z m-6360 -93 c48 -60 92 -114 96 -120 7
-9 84 -106 115 -145 7 -8 26 -33 42 -55 16 -22 32 -42 35 -45 5 -4 55 -67 97
-120 7 -8 53 -67 103 -130 50 -63 101 -128 113 -144 12 -15 27 -33 32 -40 57
-66 95 -116 95 -124 0 -6 4 -12 9 -14 5 -1 66 -75 136 -163 69 -88 132 -168
140 -177 8 -10 13 -18 10 -18 -5 0 -396 287 -422 310 -7 5 -16 10 -22 10 -5 0
-11 4 -13 8 -1 5 -46 39 -98 78 -52 38 -99 72 -105 77 -10 8 -540 397 -715
524 -47 34 -89 66 -95 70 -14 11 -125 93 -159 118 -16 11 -52 38 -82 60 -29
22 -87 65 -129 95 -41 30 -75 55 -75 56 0 0 181 0 402 0 l402 -1 88 -110z
m5913 60 c-9 -28 -18 -57 -22 -65 -3 -8 -7 -21 -9 -28 -5 -25 -89 -292 -115
-367 -5 -16 -12 -37 -14 -45 -1 -8 -42 -140 -90 -293 -48 -153 -88 -283 -89
-290 -1 -7 -5 -18 -9 -24 -5 -7 -10 -23 -12 -35 -4 -21 -31 -108 -42 -138 -3
-8 -7 -19 -8 -25 -2 -5 -31 -98 -65 -205 -34 -107 -63 -203 -65 -213 -2 -9 -7
-22 -10 -27 -3 -5 -8 -18 -10 -27 -2 -10 -16 -56 -31 -103 -15 -47 -28 -87
-29 -90 -14 -58 -18 -71 -25 -68 -5 2 -102 118 -215 258 -113 140 -214 264
-223 275 -37 44 -68 83 -92 115 -14 18 -31 39 -37 46 -7 7 -40 47 -73 89 -34
42 -70 86 -80 98 -10 12 -44 54 -75 92 -31 39 -70 88 -88 109 -71 88 -97 121
-97 127 0 4 26 20 58 36 31 17 84 45 117 63 33 18 87 47 120 65 83 44 189 101
260 140 33 18 121 65 195 105 74 40 140 76 146 81 6 5 13 7 16 4 3 -3 11 1 18
10 7 8 16 15 20 15 5 0 39 17 77 38 75 43 251 137 298 160 17 9 32 18 35 21 3
3 41 24 85 46 44 22 82 42 85 45 7 7 104 57 107 55 1 0 -4 -23 -12 -50z
m-3870 -2200 c44 -3 103 -7 130 -10 62 -5 195 -16 255 -20 25 -1 81 -6 125
-10 138 -11 178 -14 260 -20 44 -3 107 -7 140 -10 33 -3 89 -7 125 -10 72 -4
181 -13 250 -21 25 -2 83 -6 130 -9 47 -3 105 -7 130 -10 25 -2 83 -7 129 -10
82 -5 110 -7 256 -20 39 -4 99 -8 135 -11 36 -2 88 -6 115 -9 28 -2 91 -7 140
-10 50 -3 108 -8 130 -10 60 -7 205 -18 243 -19 19 0 32 -5 32 -13 0 -7 -5
-13 -12 -13 -13 0 -215 -86 -356 -151 -46 -22 -87 -39 -91 -39 -3 0 -23 -9
-44 -20 -20 -11 -40 -21 -44 -21 -5 -1 -26 -9 -48 -19 -22 -10 -71 -32 -108
-49 -38 -17 -70 -31 -72 -31 -3 0 -35 -14 -72 -31 -67 -31 -113 -51 -123 -54
-3 -1 -21 -8 -40 -17 -19 -8 -112 -49 -205 -90 -94 -42 -192 -85 -218 -97 -45
-21 -97 -43 -107 -46 -3 -1 -30 -13 -61 -27 -31 -14 -73 -32 -93 -39 -20 -7
-36 -17 -36 -21 0 -4 -3 -7 -7 -6 -5 1 -25 -6 -47 -15 -21 -9 -40 -17 -41 -17
-3 0 -81 -35 -180 -80 -11 -5 -114 -50 -230 -101 -204 -89 -273 -119 -286
-125 -5 -3 -51 163 -64 233 -2 10 -4 18 -5 18 -2 0 -7 21 -15 60 -3 17 -15 66
-26 110 -12 44 -22 87 -24 95 -2 8 -13 51 -24 95 -10 44 -23 94 -27 110 -4 17
-8 35 -10 40 -20 78 -39 155 -55 220 -10 44 -34 141 -52 215 -19 74 -32 138
-30 142 2 4 13 5 26 2 12 -2 58 -6 102 -9z m-242 -637 c14 -57 40 -159 57
-228 18 -69 34 -132 35 -140 2 -8 17 -71 35 -140 17 -69 33 -136 36 -150 3
-14 15 -65 28 -115 l23 -90 -59 -120 c-33 -66 -63 -124 -69 -130 -5 -5 -9 -13
-9 -18 0 -5 -93 -197 -207 -426 -114 -229 -206 -419 -205 -423 1 -3 -5 -11
-12 -17 -12 -10 -13 -5 -6 26 5 21 11 58 14 83 3 25 8 56 11 70 3 14 7 45 10
70 3 25 8 55 10 67 3 12 7 41 10 65 3 24 7 54 10 68 7 35 14 81 19 121 12 87
23 157 31 198 2 12 7 43 9 67 5 38 17 120 31 204 12 73 27 169 30 195 2 17 7
46 10 65 3 19 7 52 10 72 2 21 6 46 9 55 2 10 7 38 10 63 4 25 8 56 10 70 2
14 7 47 11 73 4 27 8 57 10 67 3 16 10 58 20 120 14 94 26 169 29 190 3 14 5
40 5 58 2 59 18 33 44 -70z"/>
</g>
</svg>
