<svg width="143" height="143" viewBox="0 0 143 143" fill="none" xmlns="http://www.w3.org/2000/svg">
<path d="M71.4945 141.57C110.202 141.57 141.57 110.201 141.57 71.5054C141.57 32.8096 110.202 1.42969 71.4945 1.42969C32.7987 1.42969 1.43018 32.8096 1.43018 71.5054C1.43018 110.201 32.7987 141.57 71.4945 141.57Z" fill="white"/>
<path d="M87.2188 53.2558C87.2188 45.2878 92.6127 37.5601 95.5556 39.0158C98.9104 40.6975 93.0417 48.2021 87.2188 53.2558ZM50.5392 56.1587C50.5392 49.7523 56.8598 37.5801 60.7208 38.8671C65.2854 40.3886 56.9399 52.6666 50.5392 56.1587ZM44.13 101.976C41.2242 102.107 39.2794 100.248 39.2794 97.1453C39.2794 88.8084 50.8481 80.8433 59.5854 76.5676C58.0353 88.2078 54.1028 101.527 44.13 101.976ZM97.5033 74.8087C90.9053 74.8087 85.8631 79.6621 85.8631 85.4822C85.8631 90.3357 88.7803 94.2167 92.6499 94.2167C94.0198 94.2167 95.3755 93.4359 95.3755 91.7027C95.3755 89.1659 92.0293 88.5567 92.281 84.7844C92.4497 82.2962 94.7949 80.6317 97.1229 80.6317C101.776 80.6317 103.953 85.1419 103.953 89.7951C103.764 96.9823 98.4728 101.973 92.2724 101.973C84.1156 101.973 78.8761 94.2167 78.8761 85.8683C78.8761 73.4388 87.0328 68.5882 91.3057 67.4299C91.3457 67.4299 102.465 69.4062 102.119 64.5041C101.959 62.3477 98.7531 61.5183 96.4365 61.4296C93.8597 61.3295 91.2571 62.2562 91.2571 62.2562C89.9072 61.5698 88.9691 60.2284 88.3885 58.684C96.3479 52.6609 101.976 46.8436 101.976 40.2428C101.976 36.7507 99.6426 33.6447 95.1781 33.6447C87.2187 33.6447 81.2013 43.7377 81.2013 52.8611C81.2013 54.4083 81.2013 55.967 81.6017 57.3227C76.5509 61.0064 72.7958 63.3029 66.009 67.3784C66.009 66.529 66.1863 64.3354 66.7583 61.4983C69.0835 58.9729 72.2781 55.1891 72.2781 52.2748C72.2781 50.9191 71.5088 49.7494 69.9415 49.7494C66.0662 49.7494 63.1604 55.5781 62.3825 59.6536C60.635 61.7986 57.1401 64.5156 54.2229 64.5156C51.8977 64.5156 51.117 62.3792 50.9196 61.5984C58.2984 59.073 67.4218 48.9801 67.4218 39.8567C67.4218 37.9204 66.6439 33.6447 60.8238 33.6447C52.0894 33.6447 44.722 46.6549 44.722 56.7364C41.6075 56.7364 40.4492 53.4417 40.4492 50.9163C40.4492 48.388 41.4187 45.8741 41.4187 45.0933C41.4187 44.3154 41.0297 43.3487 39.86 43.3487C36.9542 43.3487 35.2068 47.2297 35.2068 51.6942C35.407 57.9061 39.4796 61.7986 44.9108 62.179C45.6887 65.8712 48.9834 69.3661 53.056 69.3661C55.5843 69.3661 58.6874 68.5882 60.8238 66.652C60.635 68.0076 60.4463 69.1774 60.2461 70.3357C51.7004 74.8087 45.4885 77.9118 39.86 82.9569C35.407 87.0381 32.8816 92.4692 32.8816 96.7335C32.8816 102.565 36.5653 107.996 44.1328 107.996C53.056 107.996 59.8571 100.818 63.1604 90.9134C64.7077 86.2602 65.3283 79.482 65.7258 73.2615C74.6433 68.2078 78.8761 65.2964 83.5379 61.9902C84.1185 62.9597 84.7048 63.7348 85.4742 64.3154C81.4015 66.4518 71.6975 72.4721 71.6975 86.6377C71.6975 96.7306 78.4843 107.993 91.8863 107.993C102.949 107.993 110.516 98.867 110.516 90.1297C110.513 82.1789 106.049 74.8087 97.5033 74.8087ZM130.877 91.4825C130.848 91.5426 130.739 91.6227 130.519 91.5512C130.348 91.4911 130.31 91.411 130.31 91.2995C130.319 91.1908 132.656 84.281 132.636 76.3646C132.616 67.8074 129.143 62.5651 124.69 62.5651C121.965 62.5651 120.026 64.5127 120.026 67.4299C120.026 72.6694 126.426 73.0613 126.426 84.5098C126.426 89.1631 125.457 93.6275 123.913 98.4781C116.723 122.737 93.8196 133.999 71.5088 133.999C61.2156 133.999 53.9055 131.883 51.7319 130.908C51.6432 130.856 51.5603 130.687 51.6318 130.516C51.6804 130.387 51.832 130.287 51.9206 130.327C52.8015 130.667 59.0792 132.644 66.847 132.644C75.3841 132.644 80.4348 129.152 80.4348 124.876C80.4348 122.162 78.2984 120.025 75.5843 120.025C70.3419 120.025 69.9443 126.623 58.6902 126.623C53.8397 126.623 49.5668 125.654 44.5247 124.095C20.4492 116.722 8.98916 94.0193 8.99774 71.5054C9.00632 60.5345 12.0837 51.7972 12.1323 51.7171C12.1723 51.6599 12.3096 51.597 12.4784 51.6599C12.65 51.7171 12.6871 51.8572 12.6786 51.9087C12.4011 52.8182 10.362 59.0787 10.362 66.8465C10.362 75.3922 13.854 80.4343 18.3185 80.4343C20.8353 80.4343 22.9717 78.4981 22.9717 75.7811C22.9717 70.533 16.5624 69.9524 16.5624 58.6926C16.5624 53.8392 17.5406 49.5664 19.0878 44.5242C26.4666 20.4544 49.1807 9.17457 71.503 9.00011C81.8763 8.92003 90.951 12.026 91.3 12.3034C91.36 12.3549 91.4201 12.4864 91.36 12.6437C91.2771 12.8325 91.157 12.8525 91.0998 12.8411C90.9911 12.8325 85.088 10.3643 76.1534 10.3643C67.8079 10.3557 62.5655 13.8507 62.5655 18.3208C62.5655 20.8376 64.5132 22.9741 67.4161 22.9741C72.6585 22.9741 73.0474 16.5734 84.3101 16.5734C89.1492 16.5734 93.4249 17.5315 98.4671 19.0902C122.737 26.4661 133.78 49.369 133.988 71.5026C134.103 82.8367 130.908 91.411 130.877 91.4825ZM71.5059 4.73299C34.6262 4.73299 4.73634 34.6143 4.73634 71.5026C4.73634 108.382 34.6262 138.264 71.5059 138.264C108.377 138.264 138.267 108.382 138.267 71.5026C138.267 34.8145 108.377 4.73299 71.5059 4.73299ZM71.5059 141.57C32.8787 141.57 1.43018 110.321 1.43018 71.5054C1.43018 32.8668 32.8787 1.42969 71.5059 1.42969C110.122 1.42969 141.57 32.8668 141.57 71.5054C141.57 110.321 110.122 141.57 71.5059 141.57Z" fill="#DBE8AD"/>
</svg>
