<svg width="284" height="96" viewBox="0 0 284 96" fill="none" xmlns="http://www.w3.org/2000/svg">
<g clip-path="url(#clip0)">
<path d="M0 14.9149H49.6416C49.6416 14.9149 58.0981 14.4816 58.9616 24.425V52.7441H47.4745V26.3693C47.4745 26.3693 47.2573 21.8308 43.7922 21.8308H35.3357V52.522H24.0604V25.2915C24.0604 25.2915 23.1914 21.7225 20.4812 21.7225H11.4871V52.7387H0V14.9149Z" fill="#DBE8AD"/>
<path d="M77.6018 14.915H65.8975V53.1721H77.6018V14.915Z" fill="#DBE8AD"/>
<path d="M65.6805 3.67731C65.6805 3.67731 65.246 0.427846 70.2319 0H77.1676V11.2431H65.6805V3.66106V3.67731Z" fill="#DBE8AD"/>
<path d="M110.553 14.9149H85.2271V52.522H96.2471V21.8308H104.682C108.152 21.8308 108.364 26.3693 108.364 26.3693V52.7387H119.889V24.425C119.004 14.4816 110.553 14.9149 110.553 14.9149Z" fill="#DBE8AD"/>
<path d="M161.938 -0.0107422V53.1559H150.451H138.285C125.863 53.1884 127.064 41.1491 127.064 41.1491V23.4396C127.4 15.5867 135.754 14.7743 135.754 14.7743H150.418V3.6774C150.418 3.6774 149.984 0.427938 154.969 9.16747e-05H161.905L161.938 -0.0107422ZM150.847 21.6144H142.157C142.157 21.6144 139.143 21.1162 138.638 25.1239C138.638 25.1239 138.301 39.324 138.638 40.9921C138.974 42.6601 139.442 46.0233 144.33 46.0233C149.115 46.0233 150.744 46.0721 150.744 46.0721L150.847 21.6144Z" fill="#DBE8AD"/>
<path d="M199.696 14.9258H186.878C186.878 14.9258 175.636 15.2236 173.17 24.0676L166.468 52.8741C166.468 52.8741 178.791 53.3669 178.889 52.9716C178.987 52.5762 185.407 25.1454 185.407 25.1454C185.407 25.1454 186.096 21.6034 190.729 21.8038L195.954 21.7063L199.696 14.9258Z" fill="#DBE8AD"/>
<path d="M206.301 14.9258L202.499 21.8417L221.188 21.9067C221.188 21.9067 224.446 21.6143 224.637 24.9558V46.0231H214.393C214.393 46.0231 211.042 44.94 211.134 41.6905C211.227 38.4411 211.428 36.578 214.686 35.002C217.945 33.4261 222.676 30.3824 222.676 30.3824L222.871 26.9434L207.49 28.8118C207.49 28.8118 200.788 29.6946 199.995 38.7443C199.202 47.7941 203.645 52.6087 208.87 53.1016H236.086V22.1071C236.086 22.1071 235.298 14.9312 226.82 14.9312H206.301V14.9258Z" fill="#DBE8AD"/>
<path d="M238.545 14.6114H248.702C248.702 14.6114 251.363 14.216 252.151 17.1676C252.938 20.1192 260.238 36.3395 260.238 36.3395C260.238 36.3395 260.928 38.3054 262.014 36.5345C263.1 34.7635 272.056 14.6872 272.056 14.6872H284.005L257.392 69.9281H245.248L253.036 53.6808C253.681 51.7218 253.612 49.5986 252.84 47.6855C251.135 43.315 238.545 14.6114 238.545 14.6114Z" fill="#DBE8AD"/>
<path d="M2.33496 76.3516H4.50746V84.5998H4.55634C4.91008 83.8971 5.44893 83.3036 6.11511 82.883C6.77792 82.4581 7.54857 82.2308 8.33649 82.2277C9.96587 82.2277 12.5131 83.3108 12.5131 87.833V95.675H10.3406V88.093C10.3406 85.97 9.6237 84.199 7.57612 84.199C6.90239 84.2384 6.25816 84.4881 5.7347 84.9129C5.21123 85.3377 4.83508 85.9159 4.65953 86.5657C4.545 86.9353 4.49539 87.322 4.5129 87.7084V95.6588H2.3404V76.3516H2.33496Z" fill="#DBE8AD"/>
<path d="M19.2267 89.5499C19.2755 92.7994 21.1276 94.1263 23.3272 94.1263C24.4686 94.1658 25.6029 93.9318 26.6349 93.4439L27.0314 95.1607C25.7804 95.7467 24.4103 96.0359 23.0285 96.0055C19.3461 96.0055 17.1465 93.2977 17.1465 89.3333C17.1465 85.369 19.2701 82.2549 22.757 82.2549C26.6838 82.2549 27.6994 86.0134 27.6994 88.4343C27.7065 88.8077 27.6811 89.181 27.6234 89.5499H19.2267ZM25.5975 87.8331C25.5975 86.3384 25.0544 83.9663 22.5832 83.9663C20.3618 83.9663 19.4222 86.1705 19.2484 87.8331H25.6029H25.5975Z" fill="#DBE8AD"/>
<path d="M40.7668 92.5451C40.7565 93.6002 40.8145 94.6549 40.9406 95.7025H38.9636L38.7898 94.0399H38.7138C38.3169 94.6448 37.7745 95.141 37.1361 95.4835C36.4977 95.8259 35.7835 96.0036 35.0585 96.0004C32.6362 96.0004 31.4033 94.1211 31.4033 92.2093C31.4033 89.0249 33.9723 87.281 38.5943 87.3351V87.0644C38.5943 85.9812 38.3227 84.0153 35.8787 84.0424C34.7551 84.0333 33.6571 84.3762 32.7394 85.0226L32.2452 83.3979C33.423 82.6403 34.7975 82.2431 36.1991 82.2552C39.8543 82.2552 40.7451 85.0064 40.7451 87.6168V92.5451H40.7668ZM38.6649 88.9761C36.2914 88.922 33.603 89.3823 33.603 91.944C33.603 93.5254 34.5426 94.2294 35.6288 94.2294C36.2923 94.2304 36.938 94.0157 37.4682 93.618C37.9984 93.2203 38.3842 92.6611 38.5671 92.0252C38.6328 91.776 38.6656 91.5193 38.6649 91.2616V88.9761Z" fill="#DBE8AD"/>
<path d="M46.2471 76.3516H48.4196V95.6805H46.2471V76.3516Z" fill="#DBE8AD"/>
<path d="M56.6696 79.3682V82.5256H59.7817V84.3507H56.6696V91.4562C56.6696 93.0809 57.0878 94.0178 58.299 94.0178C58.7252 94.0365 59.1515 93.9816 59.559 93.8554L59.6568 95.6805C59.0391 95.9042 58.3858 96.0143 57.7287 96.0054C57.2869 96.0233 56.8468 95.942 56.4407 95.7677C56.0346 95.5933 55.673 95.3303 55.3824 94.9981C54.7904 94.2615 54.5405 93.0917 54.5405 91.5428V84.3453H52.6885V82.5256H54.5405V80.0776L56.6696 79.3682Z" fill="#DBE8AD"/>
<path d="M64.2021 76.3516H66.3746V84.5998H66.4235C66.7773 83.8971 67.3161 83.3036 67.9823 82.883C68.645 82.4579 69.4157 82.2305 70.2037 82.2277C71.8331 82.2277 74.3803 83.3108 74.3803 87.833V95.675H72.2078V88.093C72.2078 85.97 71.4909 84.199 69.4433 84.199C68.7696 84.2384 68.1253 84.4881 67.6019 84.9129C67.0784 85.3377 66.7023 85.9159 66.5267 86.5657C66.412 86.9353 66.3624 87.3219 66.3801 87.7084V95.6588H64.2076V76.3516H64.2021Z" fill="#DBE8AD"/>
<path d="M88.3884 95.2365C87.3182 95.7507 86.1437 96.012 84.9558 96.0002C81.3495 96.0002 78.9814 93.2923 78.9814 89.2738C78.9814 85.2553 81.5016 82.2333 85.4066 82.2333C86.4549 82.2162 87.491 82.46 88.421 82.9427L87.9267 84.7679C87.1583 84.3371 86.2879 84.1202 85.4066 84.1396C82.691 84.1396 81.1811 86.398 81.1811 89.1221C81.1811 92.1712 82.9626 94.0505 85.3306 94.0505C86.2573 94.059 87.1724 93.8434 87.9973 93.4222L88.3884 95.2365Z" fill="#DBE8AD"/>
<path d="M101.326 92.5451C101.315 93.6002 101.373 94.6549 101.499 95.7025H99.5495L99.3758 94.0399H99.2997C98.9028 94.6448 98.3605 95.141 97.722 95.4835C97.0836 95.8259 96.3694 96.0036 95.6445 96.0004C93.2221 96.0004 91.9893 94.1211 91.9893 92.2093C91.9893 89.0249 94.5582 87.281 99.1802 87.3351V87.0644C99.1802 85.9812 98.9087 84.0153 96.4646 84.0424C95.3411 84.0333 94.243 84.3762 93.3253 85.0226L92.8311 83.3979C94.009 82.6403 95.3835 82.2431 96.785 82.2552C100.44 82.2552 101.331 85.0064 101.331 87.6168V92.5451H101.326ZM99.2508 88.9761C96.8774 88.922 94.1889 89.3823 94.1889 91.944C94.1889 93.5254 95.1285 94.2294 96.2148 94.2294C96.8782 94.2304 97.5239 94.0157 98.0541 93.618C98.5843 93.2203 98.9701 92.6611 99.1531 92.0252C99.2187 91.776 99.2516 91.5193 99.2508 91.2616V88.9761Z" fill="#DBE8AD"/>
<path d="M106.805 86.6411C106.805 85.0868 106.805 83.7545 106.708 82.5306H108.608L108.706 85.1464H108.782C109.325 83.3754 110.661 82.2598 112.117 82.2598C112.315 82.2636 112.513 82.2817 112.709 82.3139V84.5723C112.466 84.5243 112.218 84.5061 111.97 84.5181C110.439 84.5181 109.353 85.7692 109.054 87.5672C109.002 87.9368 108.977 88.3097 108.978 88.6829V95.7234H106.805V86.6411Z" fill="#DBE8AD"/>
<path d="M117.826 89.5499C117.875 92.7994 119.727 94.1263 121.926 94.1263C123.068 94.1656 124.202 93.9316 125.234 93.4439L125.63 95.1607C124.38 95.7467 123.009 96.0359 121.628 96.0055C117.945 96.0055 115.746 93.2977 115.746 89.3333C115.746 85.369 117.869 82.2549 121.356 82.2549C125.283 82.2549 126.299 86.0134 126.299 88.4343C126.306 88.8077 126.281 89.181 126.222 89.5499H117.826ZM124.197 87.8331C124.197 86.3384 123.654 83.9663 121.182 83.9663C118.961 83.9663 118.021 86.1705 117.847 87.8331H124.197Z" fill="#DBE8AD"/>
<path d="M139.04 82.5257L140.669 89.225C140.99 90.6926 141.31 92.0574 141.533 93.4168H141.609C141.88 92.0845 142.277 90.6656 142.695 89.2521L144.645 82.5257H146.475L148.327 89.1112C148.773 90.6926 149.12 92.0791 149.413 93.4114H149.489C149.721 91.9726 150.026 90.5464 150.402 89.1383L152.107 82.5257H154.28L150.304 95.7022H148.327L146.502 89.4091C146.084 87.9414 145.736 86.6308 145.416 85.0765C145.131 86.5388 144.769 87.9851 144.33 89.4091L142.402 95.6698H140.425L136.818 82.4932H139.04V82.5257Z" fill="#DBE8AD"/>
<path d="M160.749 78.8209C160.749 79.18 160.606 79.5244 160.351 79.7783C160.097 80.0322 159.751 80.1749 159.391 80.1749C159.031 80.1749 158.686 80.0322 158.431 79.7783C158.176 79.5244 158.033 79.18 158.033 78.8209C158.02 78.633 158.045 78.4443 158.107 78.2663C158.168 78.0882 158.266 77.9245 158.392 77.7848C158.519 77.6452 158.673 77.5326 158.845 77.4538C159.016 77.375 159.202 77.3315 159.391 77.3262C159.581 77.3284 159.768 77.3698 159.941 77.4475C160.114 77.5253 160.27 77.6379 160.397 77.7782C160.524 77.9185 160.621 78.0835 160.682 78.263C160.743 78.4424 160.765 78.6323 160.749 78.8209ZM158.327 95.7019V82.5253H160.499V95.7019H158.327Z" fill="#DBE8AD"/>
<path d="M168.706 79.3682V82.5256H171.818V84.3507H168.706V91.4562C168.706 93.0809 169.124 94.0178 170.335 94.0178C170.761 94.0368 171.188 93.9818 171.595 93.8554L171.693 95.6805C171.075 95.9042 170.422 96.0143 169.765 96.0054C169.323 96.0233 168.883 95.942 168.477 95.7677C168.071 95.5933 167.709 95.3303 167.419 94.9981C166.827 94.2615 166.577 93.0917 166.577 91.5428V84.3453H164.725V82.5256H166.598V80.0776L168.706 79.3682Z" fill="#DBE8AD"/>
<path d="M176.233 76.3516H178.405V84.5998H178.454C178.808 83.8971 179.347 83.3036 180.013 82.883C180.676 82.4579 181.446 82.2305 182.234 82.2277C183.864 82.2277 186.411 83.3108 186.411 87.833V95.675H184.239V88.093C184.239 85.97 183.522 84.199 181.474 84.199C180.8 84.2384 180.156 84.4881 179.633 84.9129C179.109 85.3377 178.733 85.9159 178.557 86.5657C178.443 86.9354 178.394 87.322 178.411 87.7084V95.6588H176.238V76.3516H176.233Z" fill="#DBE8AD"/>
<path d="M194.341 78.8209C194.341 79.18 194.198 79.5244 193.943 79.7783C193.688 80.0322 193.343 80.1749 192.983 80.1749C192.623 80.1749 192.277 80.0322 192.023 79.7783C191.768 79.5244 191.625 79.18 191.625 78.8209C191.612 78.633 191.637 78.4443 191.699 78.2663C191.76 78.0882 191.857 77.9245 191.984 77.7848C192.111 77.6452 192.265 77.5326 192.437 77.4538C192.608 77.375 192.794 77.3315 192.983 77.3262C193.173 77.3284 193.36 77.3698 193.533 77.4475C193.706 77.5253 193.861 77.6379 193.989 77.7782C194.116 77.9185 194.213 78.0835 194.274 78.263C194.334 78.4424 194.357 78.6323 194.341 78.8209ZM191.918 95.7019V82.5253H194.091V95.7019H191.918Z" fill="#DBE8AD"/>
<path d="M199.674 86.1001C199.674 84.7137 199.674 83.6251 199.576 82.5366H201.504L201.629 84.7029H201.678C202.04 83.9654 202.602 83.3445 203.302 82.9115C204.001 82.4785 204.809 82.251 205.632 82.2549C207.261 82.2549 209.858 83.3381 209.858 87.8603V95.7023H207.685V88.1202C207.685 85.9972 206.968 84.2263 204.921 84.2263C203.514 84.2263 202.4 85.3419 202.004 86.6742C201.9 87.0367 201.85 87.4128 201.857 87.7899V95.7131H199.685V86.1001H199.674Z" fill="#DBE8AD"/>
<path d="M222.567 86.6411C222.567 85.0868 222.567 83.7545 222.47 82.5306H224.371L224.468 85.1464H224.544C225.088 83.3754 226.424 82.2598 227.879 82.2598C228.078 82.2636 228.275 82.2817 228.471 82.3139V84.5723C228.226 84.5239 227.976 84.5057 227.727 84.5181C226.196 84.5181 225.109 85.7692 224.811 87.5672C224.759 87.9368 224.733 88.3097 224.735 88.6829V95.7234H222.562V86.6411H222.567Z" fill="#DBE8AD"/>
<path d="M233.587 89.5499C233.636 92.7994 235.488 94.1263 237.688 94.1263C238.829 94.1658 239.963 93.9318 240.995 93.4439L241.392 95.1607C240.141 95.7465 238.771 96.0357 237.389 96.0055C233.707 96.0055 231.507 93.2976 231.507 89.3333C231.507 85.369 233.63 82.2549 237.117 82.2549C241.044 82.2549 242.06 86.0134 242.06 88.4343C242.067 88.8077 242.042 89.181 241.984 89.5499H233.587ZM239.958 87.8331C239.958 86.3384 239.415 83.9663 236.944 83.9663C234.722 83.9663 233.783 86.1705 233.609 87.8331H239.958Z" fill="#DBE8AD"/>
<path d="M255.127 92.5451C255.117 93.6002 255.175 94.6549 255.301 95.7025H253.351L253.177 94.0399H253.101C252.705 94.6448 252.162 95.141 251.524 95.4835C250.885 95.8259 250.171 96.0036 249.446 96.0004C247.024 96.0004 245.791 94.1211 245.791 92.2093C245.791 89.0249 248.36 87.281 252.982 87.3351V87.0644C252.982 85.9812 252.71 84.0153 250.266 84.0424C249.143 84.0333 248.045 84.3762 247.127 85.0226L246.633 83.3979C247.811 82.6403 249.185 82.2431 250.587 82.2552C254.242 82.2552 255.133 85.0064 255.133 87.6168V92.5451H255.127ZM253.025 88.9761C250.652 88.922 247.964 89.3823 247.964 91.944C247.964 93.5254 248.903 94.2294 249.989 94.2294C250.653 94.2304 251.299 94.0157 251.829 93.618C252.359 93.2203 252.745 92.6611 252.928 92.0252C252.993 91.7759 253.026 91.5193 253.025 91.2616V88.9761Z" fill="#DBE8AD"/>
<path d="M269.13 95.2365C268.059 95.7507 266.885 96.012 265.697 96.0002C262.091 96.0002 259.723 93.2923 259.723 89.2738C259.723 85.2553 262.243 82.2333 266.148 82.2333C267.196 82.2162 268.232 82.46 269.162 82.9427L268.706 84.7841C267.938 84.3534 267.067 84.1364 266.186 84.1559C263.47 84.1559 261.96 86.4142 261.96 89.1384C261.96 92.1875 263.736 94.0667 266.11 94.0667C267.037 94.0752 267.952 93.8597 268.777 93.4385L269.13 95.2365Z" fill="#DBE8AD"/>
<path d="M273.648 76.3516H275.82V84.5998H275.869C276.223 83.8971 276.762 83.3036 277.428 82.883C278.091 82.4579 278.862 82.2305 279.65 82.2277C281.279 82.2277 283.826 83.3108 283.826 87.833V95.675H281.654V88.093C281.654 85.97 280.937 84.199 278.889 84.199C278.215 84.2384 277.571 84.4881 277.048 84.9129C276.524 85.3377 276.148 85.9159 275.973 86.5657C275.858 86.9353 275.808 87.3219 275.826 87.7084V95.6588H273.653V76.3516H273.648Z" fill="#DBE8AD"/>
</g>
<defs>
<clipPath id="clip0">
<rect width="284" height="96" fill="white"/>
</clipPath>
</defs>
</svg>
