<svg width="250" height="46" viewBox="0 0 250 46" fill="none" xmlns="http://www.w3.org/2000/svg">
<g clip-path="url(#clip0)">
<path d="M84.8061 0.91872H71.3746V18.4694H57.3929V0.91872H43.9614V45.0747H57.3929V27.706H71.3746V45.0747H84.8061V0.91872ZM131.528 36.2021V0.91872H118.097V45.0747H142.384L144.403 36.2021H131.528ZM108.167 0.91872H94.7358V45.0747H108.167V0.91872ZM162.618 0.91872H149.193V45.0747H162.618V0.91872ZM228.838 12.1883C228.838 9.78504 231.233 8.67442 235.091 8.67442C239.324 8.67442 243.926 9.60308 247.053 10.902L245.952 1.28893C242.45 0.5485 239.324 -0.00368118 233.627 -0.00368118C222.772 -0.00368118 215.412 4.29458 215.412 13.299C215.412 28.8166 236.391 25.6792 236.391 32.8827C236.391 35.6499 234.359 37.1245 229.394 37.1245C224.986 37.1245 218.17 35.6499 214.124 33.6168L215.6 43.7821C219.646 45.2629 225.161 45.9971 229.582 45.9971C240.8 45.9971 249.998 42.3012 249.998 31.2136C249.998 16.4426 228.838 19.2098 228.838 12.1883ZM190.951 34.5455C203.451 34.5455 211.367 28.0762 211.367 16.8066C211.367 4.43263 202.906 -0.00368118 189.106 -0.00368118C183.772 -0.00368118 177.332 0.366535 172.736 0.91872V45.0747H186.167V34.5455H190.951ZM198.123 16.9948C198.123 22.7175 195.365 26.6016 188.368 26.6016H186.167V8.35439C186.949 8.31047 187.68 8.31046 188.368 8.31046C194.99 8.31046 198.123 11.4479 198.123 16.9948ZM18.2116 34.5455C30.7176 34.5455 38.6276 28.0762 38.6276 16.8066C38.6276 4.43263 30.1673 -0.00368118 16.3732 -0.00368118C11.0331 -0.00368118 4.59879 0.366535 -0.00341797 0.91872V45.0747H13.428V34.5455H18.2116ZM25.39 16.9948C25.39 22.7175 22.6262 26.6016 15.6353 26.6016H13.428V8.35439C14.2097 8.31047 14.9475 8.31046 15.6353 8.31046C22.2573 8.31046 25.39 11.4479 25.39 16.9948Z" fill="#DBE8AD"/>
</g>
<defs>
<clipPath id="clip0">
<rect width="250" height="46" fill="white"/>
</clipPath>
</defs>
</svg>
