<svg width="294" height="62" viewBox="0 0 294 62" fill="none" xmlns="http://www.w3.org/2000/svg">
<g clip-path="url(#clip0)">
<path d="M48.0028 55.7373C34.3337 55.7373 23.2558 44.6068 23.2558 30.8775C23.2558 17.1474 34.3337 6.02765 48.0028 6.02765C52.8208 6.02765 57.319 7.40752 61.1189 9.79932L48.0028 30.8775L72.6952 16.5599C70.0124 12.2675 66.1647 8.56892 61.5122 5.76231C55.5917 2.20285 47.3561 0 38.2494 0C25.259 0 13.8625 4.74042 7.50692 11.8394C2.80145 17.0873 0 23.6921 0 30.8771C0 38.0673 2.80145 44.6769 7.50692 49.9284C13.879 57.0363 25.1058 61.7491 37.8819 61.7491C50.6562 61.7491 61.8797 57.0326 68.2558 49.9284C68.6049 49.5373 68.943 49.1424 69.2627 48.7327L68.2999 45.1087C63.8201 51.5301 56.4002 55.7373 48.0028 55.7373Z" fill="#0A2B36"/>
<path d="M129.867 60.2548L119.503 21.431C117.838 15.1571 112.15 10.5459 105.377 10.5459C103.62 10.5459 101.937 10.8611 100.375 11.4316L78.0639 19.5787H101.011L104.932 34.2845C101.128 30.997 96.1743 28.9968 90.75 28.9968C79.9786 28.9968 71.2578 36.2453 71.2578 45.1866C71.2578 54.1286 79.9786 61.3877 90.75 61.3877C98.5043 61.3877 105.362 57.5755 109.592 51.7187L111.867 60.2548H129.867ZM98.2544 54.2245C93.2858 54.2245 89.258 50.1835 89.258 45.1866C89.258 40.197 93.2858 36.1523 98.2544 36.1523C103.223 36.1523 107.254 40.197 107.254 45.1866C107.254 50.1835 103.223 54.2245 98.2544 54.2245Z" fill="#0A2B36"/>
<path d="M172.123 10.5527C170.763 10.5527 169.477 10.8546 168.33 11.3953L154.005 18.0994C153.296 13.817 149.591 10.5527 145.123 10.5527C143.77 10.5527 142.48 10.8546 141.319 11.3953L123.83 19.5789H136.126V60.2553H154.126V24.1042C154.126 21.6098 156.137 19.5793 158.628 19.5793C161.105 19.5793 163.13 21.6098 163.13 24.1042V60.2553H181.123V19.5789C181.123 14.5905 177.091 10.5531 172.123 10.5531" fill="#0A2B36"/>
<path d="M239.614 36.1521C239.614 50.2907 228.203 61.7496 214.128 61.7496C200.041 61.7496 188.623 50.2907 188.623 36.1521C188.623 22.0172 200.041 10.5527 214.128 10.5527C228.203 10.5527 239.614 22.0176 239.614 36.1521ZM215.182 18.3219C214.381 15.3098 211.298 13.5217 208.299 14.3314C205.304 15.1378 203.514 18.2359 204.319 21.2477L213.062 53.9812C213.87 56.9963 216.946 58.7825 219.945 57.9853C222.944 57.1697 224.726 54.0734 223.921 51.062L215.182 18.3219Z" fill="#0A2B36"/>
<path d="M285.004 10.5527C283.64 10.5527 282.347 10.8546 281.182 11.3953L266.871 18.0994C266.166 13.817 262.461 10.5527 257.992 10.5527C256.64 10.5527 255.35 10.8546 254.185 11.3953L236.703 19.5789H248.996V60.2553H266.992V24.1042C266.992 21.6098 269.006 19.5793 271.498 19.5793C273.982 19.5793 275.993 21.6098 275.993 24.1042V60.2553H294V19.5789C294 14.5905 289.965 10.5531 285.004 10.5531" fill="#0A2B36"/>
</g>
<defs>
<clipPath id="clip0">
<rect width="294" height="62" fill="white"/>
</clipPath>
</defs>
</svg>
