<svg width="286" height="82" viewBox="0 0 286 82" fill="none" xmlns="http://www.w3.org/2000/svg">
<g clip-path="url(#clip0)">
<path d="M220.446 0.959961V16.4309H241.17V0.959961H251.418V39.6435H241.17V22.6145H220.446V39.6435H210.195V0.959961H220.446Z" fill="#DBE8AD"/>
<path d="M123.172 0.959961V7.538H107.494V39.6435H97.2312V7.538H81.5532V0.959961H123.172Z" fill="#DBE8AD"/>
<path d="M138.623 7.53785L131.492 25.1277H145.767L138.623 7.53785ZM163.004 39.6417H151.587L148.24 31.3301H129.024L125.684 39.6417H114.267L132.349 0.958984H144.915L163.004 39.6417Z" fill="#DBE8AD"/>
<path d="M269.79 0.959961H259.538V39.6435H269.79V0.959961Z" fill="#DBE8AD"/>
<path d="M28.5513 0.959961V16.4309H49.2545V0.959961H59.5086V39.6435H49.2545V22.6145H28.5513V39.6435H18.3096V0.959961H28.5513Z" fill="#DBE8AD"/>
<path d="M77.8838 0.959961H67.6421V39.6435H77.8838V0.959961Z" fill="#DBE8AD"/>
<path d="M162.65 28.9394C161.736 26.3335 161.264 23.5791 161.264 20.6804C161.264 16.6148 161.974 12.6862 163.926 9.40704C165.933 6.04914 169.018 3.44318 172.725 2.06804C176.267 0.7298 180.088 0 184.089 0C188.698 0 193.036 0.99794 197.038 2.7183C200.733 4.30992 203.521 7.6383 204.344 11.6637C204.523 12.4509 204.623 13.2881 204.7 14.1188H193.94C193.908 13.0733 193.742 12.063 193.392 11.1446C192.57 9.00524 190.794 7.33244 188.587 6.67234C187.161 6.22708 185.637 5.98846 184.089 5.98846C182.312 5.98846 180.597 6.29678 179.007 6.8634C176.386 7.78426 174.347 9.91872 173.423 12.5468C172.522 15.0814 172.005 17.8284 172.005 20.6804C172.005 23.0527 172.392 25.3265 172.993 27.4774C173.774 30.2941 175.886 32.5581 178.594 33.5938C180.301 34.2407 182.164 34.6089 184.089 34.6089C185.747 34.6089 187.335 34.358 188.827 33.8742C190.831 33.2297 192.47 31.7553 193.306 29.8587C193.874 28.5877 194.163 27.1978 194.163 25.7086H204.954C204.885 26.9649 204.716 28.2113 204.44 29.3749C203.521 33.2067 200.825 36.417 197.273 37.9061C193.216 39.6019 188.766 40.5982 184.089 40.5982C180.47 40.5982 176.962 40.034 173.696 38.9976C168.694 37.4305 164.363 33.8291 162.65 28.9394Z" fill="#DBE8AD"/>
<path d="M9.48947 50.4375L9.12525 50.4719L0 51.3067V52.6605L0.288753 52.6843C3.96625 53.1205 3.96625 53.1205 3.96625 55.7659V74.894H9.48865" fill="#DBE8AD"/>
<path d="M28.4923 57.6983C25.0831 57.6983 23.0626 59.9935 22.1152 61.3998V57.6426L14.3418 58.8619V60.1452L14.6388 60.1641C16.9988 60.2305 17.4992 60.7151 17.4992 62.9144V74.8888H22.1152V66.0968C22.1152 63.7458 24.3407 60.7151 26.6737 60.7151C28.8828 60.7151 28.9927 62.5445 28.9927 65.5523V74.8888H33.6087V62.916C33.6087 59.5581 31.7892 57.6983 28.4923 57.6983Z" fill="#DBE8AD"/>
<path d="M46.5571 64.3894C44.7376 63.485 43.165 62.7166 43.165 61.4604C43.165 60.0328 44.891 59.8876 45.6112 59.8876C47.5201 59.8876 49.2042 60.9241 49.9499 61.3702L50.6669 61.8007V58.3624L50.091 58.2181C49.2584 58.0385 47.6924 57.6982 45.8901 57.6982C41.5498 57.6982 38.9453 59.5621 38.9453 62.6871C38.9453 65.4997 41.6458 66.8166 44.0297 67.9778C45.8737 68.8986 47.6317 69.7457 47.6317 71.0929C47.6317 72.3721 46.5078 73.1011 44.5547 73.1011C42.3964 73.1011 40.572 71.9917 39.4802 71.3381L38.9962 71.0241V74.5804L39.3276 74.669C40.266 74.8895 42.0067 75.2807 44.3849 75.2807C49.0623 75.2807 51.8613 73.3734 51.8613 70.1573C51.8604 66.9839 49.0353 65.5973 46.5571 64.3894Z" fill="#DBE8AD"/>
<path d="M65.5509 60.2313C68.6968 60.2313 69.0709 63.6606 69.0709 66.2247C69.0709 70.6142 67.938 72.7494 65.587 72.7494C62.5829 72.7494 61.9587 69.945 61.9587 67.5966V66.1484C61.9579 64.383 62.2966 60.2313 65.5509 60.2313ZM66.8626 57.6983C65.1514 57.6983 63.4705 58.5093 62.0005 60.0862V57.6426L61.6092 57.6983L54.2354 58.8619V60.1452L54.5569 60.1641C56.8743 60.2305 57.3312 60.6938 57.3312 62.9144V81.9966H61.957V73.298C62.8085 74.3394 64.1473 75.2791 66.7018 75.2791C71.531 75.2791 74.0937 72.1418 74.0937 66.2247C74.0945 60.8061 71.4473 57.6983 66.8626 57.6983Z" fill="#DBE8AD"/>
<path d="M80.3605 62.9181V74.8901H84.9732V57.6455L84.6073 57.6972L77.3081 58.8632V60.149L77.6297 60.1703C79.8946 60.2293 80.3605 60.6992 80.3605 62.9181Z" fill="#DBE8AD"/>
<path d="M82.7123 55.6145C84.3111 55.6145 85.6228 54.464 85.6228 53.0823C85.6228 51.7285 84.3283 50.6084 82.7475 50.6084C81.1848 50.6084 79.9248 51.7277 79.9248 53.0823C79.9248 54.464 81.1742 55.6145 82.7123 55.6145Z" fill="#DBE8AD"/>
<path d="M104.329 61.5072V57.9165L104.05 57.8878C103.305 57.7557 102.544 57.7008 101.85 57.7008C99.245 57.7008 97.8759 59.604 97.1573 61.1202V57.6426L96.7668 57.7008L89.4028 58.8619V60.1477L89.7137 60.1649C92.0574 60.2313 92.5389 60.6987 92.5389 62.9135V74.8921H97.1573V66.2641C97.1573 64.8135 97.6142 61.4121 101.978 61.4121C102.476 61.4121 103.043 61.581 103.567 61.7254L104.329 61.9361V61.5072H104.329Z" fill="#DBE8AD"/>
<path d="M114.783 59.5429C117.261 59.5429 117.886 61.3215 117.961 62.95H111.32C111.451 61.7618 112.176 59.5429 114.783 59.5429ZM122.588 64.6671C122.588 60.0357 120.016 57.7012 114.931 57.7012C109.191 57.7012 106.289 60.4613 106.289 65.9209C106.289 71.7839 110.038 75.2787 116.327 75.2787C119.061 75.2787 121.167 74.5858 121.976 74.3365L122.242 74.248V72.029L121.79 72.1906C121.04 72.4628 119.678 72.7449 118.167 72.7449C113.259 72.7449 111.416 68.6547 111.309 64.9902H122.588V64.6671Z" fill="#DBE8AD"/>
<path d="M164.706 57.6988C161.296 57.6988 159.353 59.8177 158.37 61.3946V49.8711L158 49.9129L150.646 50.8125V52.1179L150.98 52.1327C153.249 52.2204 153.753 52.7304 153.753 54.9592V74.8909H158.37V66.299C158.37 63.1592 160.714 60.7164 162.727 60.7164C165.289 60.7164 165.289 62.659 165.289 64.3539V74.8909H169.908V63.8242C169.908 61.9956 169.908 57.6988 164.706 57.6988Z" fill="#DBE8AD"/>
<path d="M182.864 59.5429C185.324 59.5429 185.958 61.3215 186.027 62.95H179.392C179.507 61.7618 180.266 59.5429 182.864 59.5429ZM190.66 64.6671C190.66 60.0357 188.1 57.7012 182.996 57.7012C177.271 57.7012 174.341 60.4613 174.341 65.9209C174.341 71.7839 178.1 75.2787 184.392 75.2787C187.133 75.2787 189.248 74.5858 190.03 74.3365L190.321 74.248V72.029L189.882 72.1906C189.103 72.4628 187.76 72.7449 186.248 72.7449C181.331 72.7449 179.479 68.6547 179.376 64.9902H190.659V64.6671H190.66Z" fill="#DBE8AD"/>
<path d="M138.8 52.8516V58.0938H135.705V60.1463H138.8V70.4865C138.8 74.9391 141.684 75.2818 145.16 75.2818C146.038 75.2818 146.903 75.1662 147.877 75.0178L148.148 74.9686V72.8965L147.752 72.9703C147.352 73.0654 146.879 73.1023 146.345 73.1023C143.571 73.1023 143.429 72.2897 143.429 69.9182V60.1463H148.628V58.0938H143.429V52.8516H138.8Z" fill="#DBE8AD"/>
<path d="M229.708 50.833H225.09V69.1067C224.107 67.6545 213.025 50.833 213.025 50.833H202.364V52.2147L203.283 52.3787C206.079 52.851 206.316 52.8855 206.316 55.6243V74.8943H211.28V55.7661C212.236 57.2208 223.926 74.8943 223.926 74.8943H230.036V50.833H229.708Z" fill="#DBE8AD"/>
<path d="M242.884 59.5429C245.371 59.5429 245.996 61.3215 246.064 62.9549H239.424C239.55 61.7667 240.297 59.5429 242.884 59.5429ZM250.714 64.6671C250.714 60.0423 248.13 57.7012 243.045 57.7012C237.302 57.7012 234.387 60.4687 234.387 65.9405C234.387 71.7847 238.14 75.2795 244.432 75.2795C247.171 75.2795 249.268 74.6202 250.079 74.3513L250.344 74.2635V72.029L249.908 72.2062C249.141 72.4628 247.789 72.7695 246.294 72.7695C241.369 72.7695 239.517 68.6547 239.424 65.0107H250.714V64.6671Z" fill="#DBE8AD"/>
<path d="M276.179 52.8516V58.0938H273.078V60.1463H276.179V70.4865C276.179 74.9391 279.066 75.2818 282.54 75.2818C283.403 75.2818 284.258 75.1662 285.238 75.0178L285.517 74.9686V72.8965L285.113 72.9703C284.706 73.0654 284.241 73.1023 283.727 73.1023C280.936 73.1023 280.784 72.2897 280.784 69.9182V60.1463H286V58.0938H280.784V52.8516H276.179Z" fill="#DBE8AD"/>
<path d="M266.869 63.5689L271.613 58.0732H266.735L262.217 63.2901L258.26 58.0872H251.182V59.4148L251.495 59.4443C253.889 59.6009 254.437 60.0371 255.925 61.9896L258.818 65.8345L254.082 71.308H258.978L261.094 68.8439L265.642 74.9177H271.129L262.45 63.5681H266.869V63.5689Z" fill="#DBE8AD"/>
<path d="M276.113 52.8516H271.232L277.144 46.0186H282.023L276.113 52.8516Z" fill="#DBE8AD"/>
</g>
<defs>
<clipPath id="clip0">
<rect width="286" height="82" fill="white"/>
</clipPath>
</defs>
</svg>
