<svg width="180" height="39" viewBox="0 0 180 39" fill="none" xmlns="http://www.w3.org/2000/svg">
<g clip-path="url(#clip0)">
<path d="M179.187 0H80.916V11.5464H179.187V0Z" fill="white"/>
<path d="M95.6826 9.28851V2.33984H98.2125C99.1777 2.33984 99.9331 2.65207 100.497 3.28266C101.06 3.91324 101.342 4.7581 101.342 5.82948C101.342 6.89474 101.054 7.7396 100.479 8.35794C99.9091 8.97628 99.1238 9.28851 98.1226 9.28851H95.6826ZM96.6059 8.39467H98.1646C98.866 8.39467 99.4056 8.14979 99.8012 7.67226C100.197 7.18248 100.389 6.56414 100.389 5.79887C100.389 5.04585 100.197 4.43363 99.8012 3.9561C99.4056 3.47857 98.86 3.23368 98.1646 3.23368H96.6059V8.39467Z" fill="#45494E"/>
<path d="M103.585 9.28851V2.33984H107.817V3.23368H104.502V5.3091H107.566V6.20294H104.502V8.39467H107.817V9.28851H103.585Z" fill="#45494E"/>
<path d="M109.502 7.97138L110.185 7.39589C110.551 8.13668 111.151 8.50401 111.816 8.50401C112.589 8.50401 113.069 8.04484 113.069 7.45099C113.069 7.07754 112.829 6.75307 112.362 6.48369C112.242 6.41635 112.002 6.30615 111.66 6.14697C111.318 5.98779 111.073 5.85311 110.899 5.75515C110.215 5.31435 109.88 4.75724 109.88 4.10216C109.88 3.56341 110.065 3.12262 110.443 2.76753C110.821 2.4002 111.318 2.22266 111.936 2.22266C112.775 2.22266 113.447 2.55938 113.932 3.24506L113.315 3.84503C112.949 3.34914 112.488 3.10425 111.942 3.10425C111.324 3.10425 110.863 3.4777 110.863 4.04706C110.863 4.41439 111.055 4.70826 111.444 4.9409C111.564 5.01437 111.822 5.15518 112.236 5.35721C112.649 5.55312 112.937 5.70617 113.093 5.79801C113.746 6.20207 114.076 6.74082 114.076 7.41426C114.076 8.00811 113.866 8.48564 113.435 8.85297C113.009 9.2203 112.476 9.41009 111.834 9.41009C110.839 9.39784 109.946 8.90195 109.502 7.97138Z" fill="#45494E"/>
<path d="M116.402 2.33984H117.325V9.28851H116.402V2.33984Z" fill="#45494E"/>
<path d="M120.329 8.3757C119.675 7.69614 119.346 6.84516 119.346 5.81664C119.346 4.77587 119.687 3.91876 120.377 3.2392C121.066 2.55352 121.894 2.2168 122.883 2.2168C124.022 2.2168 125.101 2.73106 125.718 3.49633L125.065 4.10855C124.495 3.4596 123.764 3.129 122.895 3.129C122.157 3.129 121.54 3.38001 121.036 3.88815C120.539 4.39629 120.293 5.04524 120.293 5.82276C120.293 6.58191 120.545 7.22474 121.036 7.73288C121.534 8.22877 122.139 8.4859 122.871 8.4859C123.68 8.4859 124.489 8.11245 125.053 7.50636V6.12274H122.781V5.25952H125.922V7.92266C125.095 8.90221 124.064 9.39199 122.841 9.39199C121.822 9.39199 120.994 9.04914 120.329 8.3757Z" fill="#45494E"/>
<path d="M132.733 2.33984H133.644V9.28851H133.165L129.088 4.36016V9.28851H128.177V2.33984H128.59L132.733 7.29268V2.33984Z" fill="#45494E"/>
<path d="M136.276 9.28851V2.33984H140.515V3.23368H137.2V5.3091H140.263V6.20294H137.2V8.39467H140.515V9.28851H136.276Z" fill="#45494E"/>
<path d="M142.805 9.28851V2.33984H145.335C146.3 2.33984 147.055 2.65207 147.619 3.28266C148.182 3.91324 148.464 4.7581 148.464 5.82948C148.464 6.89474 148.176 7.7396 147.601 8.35794C147.031 8.97628 146.246 9.28851 145.245 9.28851H142.805ZM143.722 8.39467H145.281C145.982 8.39467 146.522 8.14979 146.917 7.67226C147.313 7.18248 147.505 6.56414 147.505 5.79887C147.505 5.04585 147.313 4.43363 146.917 3.9561C146.522 3.47857 145.976 3.23368 145.281 3.23368H143.722V8.39467Z" fill="#45494E"/>
<path d="M158.811 7.29268C158.811 7.83143 158.626 8.29672 158.248 8.69466C157.882 9.08648 157.367 9.28851 156.701 9.28851H153.896V2.33984H156.587C157.175 2.33984 157.636 2.51739 157.96 2.86635C158.29 3.21531 158.458 3.61938 158.458 4.07854C158.458 4.70913 158.098 5.27237 157.535 5.48664C158.374 5.72541 158.811 6.46007 158.811 7.29268ZM154.807 3.21531V5.14992H156.437C157.109 5.14992 157.517 4.67239 157.517 4.13364C157.517 3.64387 157.121 3.20919 156.467 3.20919H154.807V3.21531ZM156.557 8.4008C156.953 8.4008 157.277 8.2906 157.505 8.05183C157.744 7.81919 157.864 7.53757 157.864 7.22534C157.864 6.55802 157.379 6.0009 156.521 6.0009H154.807V8.4008H156.557Z" fill="#45494E"/>
<path d="M165.61 2.33984L163.278 6.78454V9.28239H162.355V6.78454L160.053 2.33984H161.072L162.81 5.85397L164.579 2.33984H165.61Z" fill="#45494E"/>
<path d="M0 28.73L2.51793 24.9771C4.17856 26.673 6.05502 27.5239 8.14729 27.5239C9.3523 27.5239 10.3715 27.0036 10.3715 26.0424C10.3715 25.4118 9.8379 24.8914 8.76479 24.4812L6.99624 23.8812C5.89915 23.4711 5.04185 23.1405 4.47831 22.8405C2.3081 21.665 1.20501 19.908 1.20501 17.5815C1.20501 15.8 1.90044 14.2939 3.26731 13.1185C4.63419 11.943 6.40273 11.3369 8.57894 11.3369C11.2887 11.3369 13.6208 12.1879 15.6291 13.8837L13.2971 17.7713C12.116 16.7856 10.1616 16.1 8.65688 16.1C7.29 16.1 6.54062 16.6754 6.54062 17.4162C6.54062 18.0162 7.07418 18.5121 8.12331 18.9223L9.86788 19.5774C10.8571 19.9324 11.6364 20.2324 12.146 20.4528C14.6639 21.5487 15.9289 23.3303 15.9289 25.7669C15.9289 27.6586 15.2035 29.1892 13.7827 30.4197C12.3618 31.6258 10.4554 32.2258 8.06936 32.2258C4.77207 32.2319 2.0623 31.0564 0 28.73Z" fill="white"/>
<path d="M17.7334 16.7617H22.4815V25.3328C22.4815 26.8388 23.4227 27.849 24.8435 27.849C26.3183 27.849 27.2296 26.8388 27.2296 25.3328V16.7617H31.9777V25.2777C31.9777 29.7407 29.2679 32.2569 24.8435 32.2569C20.4192 32.2569 17.7394 29.7407 17.7394 25.2777V16.7617H17.7334Z" fill="white"/>
<path d="M48.686 18.6779C50.0529 20.184 50.7243 22.0757 50.7243 24.2919C50.7243 26.5082 50.0289 28.3999 48.662 29.9611C47.2952 31.4916 45.5806 32.263 43.5123 32.263C41.8756 32.263 40.4548 31.7181 39.3038 30.6223V38.526H34.5557V16.7617H39.2198V18.1575C40.3709 16.9821 41.7917 16.376 43.4823 16.376C45.6046 16.3821 47.3191 17.1474 48.686 18.6779ZM42.5711 20.8697C40.6407 20.8697 39.2198 22.3757 39.2198 24.347C39.2198 25.3082 39.5436 26.1286 40.161 26.8143C40.8025 27.5 41.6059 27.8244 42.5771 27.8244C43.5423 27.8244 44.3456 27.4938 44.9631 26.8143C45.5806 26.1286 45.9043 25.3082 45.9043 24.347C45.8983 22.3757 44.5015 20.8697 42.5711 20.8697Z" fill="white"/>
<path d="M67.2581 25.8844H56.6948C57.2283 27.4701 58.4394 28.266 60.3158 28.266C61.9525 28.266 63.4272 27.8007 64.7941 26.8701L66.6466 30.1271C64.7402 31.5229 62.57 32.2086 60.106 32.2086C57.4801 32.2086 55.4658 31.4434 54.045 29.9373C52.6241 28.4068 51.9287 26.5395 51.9287 24.3233C51.9287 22.0519 52.6541 20.1602 54.1289 18.6541C55.6037 17.1481 57.5041 16.3828 59.8422 16.3828C62.0424 16.3828 63.8649 17.0685 65.2857 18.4093C66.7065 19.75 67.4319 21.6111 67.4319 23.9376C67.42 24.5682 67.366 25.1987 67.2581 25.8844ZM56.6408 22.5662H62.9177C62.516 21.1153 61.4189 20.2398 59.8362 20.2398C58.1995 20.2398 57.1504 21.0112 56.6408 22.5662Z" fill="white"/>
<path d="M69.4043 31.8774V16.7617H73.9366V18.6229C74.8778 17.1168 76.1907 16.3516 77.8753 16.3516C78.5168 16.3516 79.1343 16.4863 79.7278 16.7617L79.3501 21.3595C78.6547 21.1146 78.0072 21.0044 77.3957 21.0044C75.2255 21.0044 74.1224 22.4554 74.1224 25.3573V31.8713H69.4043V31.8774Z" fill="white"/>
<path d="M80.916 31.8771V10.9883H85.5262V18.8185C86.2516 17.4778 88.0202 16.3513 90.1664 16.3513C91.7491 16.3513 93.116 16.8962 94.2131 17.9676C95.3102 19.0328 95.8737 20.594 95.8737 22.5959V31.8771H91.1256V23.8816C91.1256 21.9102 90.1364 20.7593 88.5238 20.7593C86.8092 20.7593 85.6281 22.0449 85.6281 23.9918V31.8771H80.916Z" fill="white"/>
<path d="M113.037 25.8844H102.474C103.008 27.4701 104.219 28.266 106.095 28.266C107.732 28.266 109.207 27.8007 110.573 26.8701L112.426 30.1271C110.519 31.5229 108.349 32.2086 105.885 32.2086C103.259 32.2086 101.245 31.4434 99.8243 29.9373C98.4034 28.4068 97.708 26.5395 97.708 24.3233C97.708 22.0519 98.4334 20.1602 99.9082 18.6541C101.383 17.1481 103.283 16.3828 105.621 16.3828C107.822 16.3828 109.644 17.0685 111.065 18.4093C112.486 19.75 113.211 21.6111 113.211 23.9376C113.199 24.5682 113.145 25.1987 113.037 25.8844ZM102.42 22.5662H108.697C108.295 21.1153 107.198 20.2398 105.616 20.2398C103.973 20.2398 102.93 21.0112 102.42 22.5662Z" fill="white"/>
<path d="M115.184 31.8774V16.7617H119.716V18.6229C120.657 17.1168 121.97 16.3516 123.655 16.3516C124.296 16.3516 124.914 16.4863 125.507 16.7617L125.129 21.3595C124.434 21.1146 123.787 21.0044 123.175 21.0044C121.005 21.0044 119.902 22.4554 119.902 25.3573V31.8713H115.184V31.8774Z" fill="white"/>
<path d="M128.211 29.986C126.736 28.4554 125.986 26.5637 125.986 24.3169C125.986 22.07 126.736 20.1844 128.211 18.6477C129.709 17.0866 131.64 16.3213 134.032 16.3213C136.418 16.3213 138.378 17.0866 139.847 18.6477C141.346 20.1783 142.101 22.07 142.101 24.3169C142.101 26.5637 141.352 28.4493 139.847 29.986C138.372 31.5165 136.418 32.2879 134.032 32.2879C131.64 32.2879 129.709 31.5227 128.211 29.986ZM136.412 26.7841C137.053 26.0984 137.377 25.278 137.377 24.2924C137.377 23.3312 137.053 22.5108 136.388 21.8557C135.746 21.2007 134.967 20.8701 134.026 20.8701C133.084 20.8701 132.311 21.2007 131.664 21.8802C131.022 22.5353 130.698 23.3312 130.698 24.2924C130.698 25.278 131.022 26.0984 131.664 26.7841C132.305 27.4392 133.084 27.7698 134.026 27.7698C134.967 27.7698 135.77 27.4453 136.412 26.7841Z" fill="white"/>
<path d="M158.635 25.8844H148.072C148.605 27.4701 149.816 28.266 151.693 28.266C153.329 28.266 154.804 27.8007 156.171 26.8701L158.024 30.1271C156.117 31.5229 153.947 32.2086 151.483 32.2086C148.857 32.2086 146.843 31.4434 145.422 29.9373C144.001 28.4068 143.306 26.5395 143.306 24.3233C143.306 22.0519 144.031 20.1602 145.506 18.6541C146.981 17.1481 148.887 16.3828 151.219 16.3828C153.419 16.3828 155.242 17.0685 156.663 18.4093C158.084 19.75 158.809 21.6111 158.809 23.9376C158.797 24.5682 158.743 25.1987 158.635 25.8844ZM148.018 22.5662H154.295C153.893 21.1153 152.796 20.2398 151.213 20.2398C149.571 20.2398 148.527 21.0112 148.018 22.5662Z" fill="white"/>
<path d="M159.511 29.6851L161.627 26.4281C163.048 27.6893 164.523 28.3198 166.051 28.3198C167.094 28.3198 167.634 27.9892 167.634 27.3587C167.634 27.0036 167.364 26.7281 166.831 26.5077C166.753 26.4832 166.213 26.3179 165.194 25.9628C164.205 25.6077 163.503 25.3628 163.156 25.1975C161.303 24.3221 160.392 22.9507 160.392 21.0896C160.392 19.6631 160.956 18.5182 162.053 17.6367C163.15 16.7306 164.655 16.2959 166.501 16.2959C168.617 16.2959 170.44 16.951 172.022 18.2672L169.984 21.4446C168.749 20.5937 167.568 20.159 166.417 20.159C165.638 20.159 165.074 20.5447 165.074 21.01C165.074 21.5059 165.53 21.861 166.417 22.1058C167.838 22.516 169.019 22.9568 169.9 23.4221C171.699 24.3282 172.418 25.5036 172.418 27.2546C172.418 28.7362 171.855 29.9361 170.704 30.8973C169.552 31.8278 168.024 32.2931 166.063 32.2931C163.473 32.287 161.303 31.4115 159.511 29.6851Z" fill="white"/>
<path d="M174.043 29.6856C174.043 28.2346 175.194 27.1143 176.669 27.1143C178.066 27.1143 179.187 28.2652 179.187 29.6856C179.187 31.1916 178.06 32.312 176.669 32.312C175.194 32.3181 174.043 31.1916 174.043 29.6856Z" fill="white"/>
</g>
<defs>
<clipPath id="clip0">
<rect width="179.187" height="38.5268" fill="white"/>
</clipPath>
</defs>
</svg>
