<svg width="89" height="67" viewBox="0 0 89 67" fill="none" xmlns="http://www.w3.org/2000/svg">
<g clip-path="url(#clip0)">
<path d="M30.0736 31.2076C29.9302 30.0989 29.8561 28.9662 29.8561 27.8147C29.8561 14.4254 39.8816 3.57129 52.2488 3.57129C64.616 3.57129 74.6416 14.4254 74.6416 27.8147C74.6416 41.204 64.616 52.0581 52.2488 52.0581C50.1764 52.0581 48.1698 51.7533 46.2651 51.1829" stroke="white" stroke-width="0.927085"/>
<path d="M37.999 30.8371C37.837 29.9586 37.7521 29.0511 37.7521 28.1228C37.7521 20.2869 43.8006 13.9346 51.2618 13.9346C58.723 13.9346 64.7715 20.2869 64.7715 28.1228C64.7715 35.9588 58.723 42.3111 51.2618 42.3111C47.8017 42.3111 44.6454 40.945 42.2553 38.6983" stroke="white" stroke-width="0.309028"/>
<path d="M62.4281 2.28535C71.8491 5.97754 78.5904 15.8479 78.5904 27.4443C78.5904 39.0407 71.8491 48.9111 62.4281 52.6033M62.4281 2.28535C59.8644 1.28062 57.1023 0.733398 54.2236 0.733398C40.7662 0.733398 29.8568 12.6923 29.8568 27.4443C29.8568 28.743 29.9413 30.0199 30.1047 31.269M62.4281 2.28535L78.5904 1.47366C78.5904 1.47366 80.3906 1.66199 81.3046 2.28535C81.9784 2.74488 88.2754 8.07428 88.2754 8.07428V46.0124C88.2754 46.0124 83.5787 50.8582 82.7235 51.8728C81.9936 52.7388 80.1943 53.2916 80.1943 53.2916L62.4281 52.6033M62.4281 52.6033C59.8644 53.6081 57.1023 54.1553 54.2236 54.1553C52.771 54.1553 51.4109 54.0498 50.0905 53.8163" stroke="white" stroke-width="0.927085"/>
<path d="M81.9213 2.76953C81.9213 2.76953 82.5273 3.39471 82.785 3.87992C82.978 4.24351 83.1551 5.29874 83.1551 5.29874L83.957 48.4187C83.957 48.4187 83.8788 49.5372 83.6486 50.2077C83.3681 51.0244 82.5382 52.12 82.5382 52.12" stroke="white" stroke-width="0.309028"/>
<path d="M65.5736 3.63267L78.0346 2.9541C78.0346 2.9541 79.2683 2.9541 80.0703 3.75605C80.8722 4.55799 80.8722 5.66839 80.8722 5.66839L81.4891 48.4799C81.4891 48.4799 81.5724 49.5903 80.8722 50.4539C80.5519 50.8491 79.9105 51.1899 79.6385 51.2559C77.6028 51.7494 65.6353 51.0091 65.6353 51.0091" stroke="white" stroke-width="0.309028"/>
<line y1="-0.154514" x2="7.6533" y2="-0.154514" transform="matrix(-0.999497 0.03173 0.03173 0.999497 72.0508 24.668)" stroke="white" stroke-width="0.309028"/>
<line y1="-0.154514" x2="5.92334" y2="-0.154514" transform="matrix(-0.999783 0.0208288 0.0208288 0.999783 37.999 25.6562)" stroke="white" stroke-width="0.309028"/>
<line y1="-0.154514" x2="7.52696" y2="-0.154514" transform="matrix(0.0163912 0.999866 0.999866 -0.0163912 51.2002 42.1895)" stroke="white" stroke-width="0.309028"/>
<path d="M44.3226 28.123C44.3226 28.8124 44.5343 29.2887 44.9029 29.6276C45.2777 29.9721 45.8317 30.1902 46.5452 30.3229C47.6771 30.5334 49.151 30.5204 50.8192 30.5056C51.2625 30.5017 51.7196 30.4977 52.1876 30.4977C52.5959 30.4977 52.996 30.5002 53.386 30.5027C55.1233 30.5139 56.6594 30.5237 57.8292 30.2999C58.5428 30.1634 59.0975 29.9434 59.4727 29.6011C59.8416 29.2647 60.0525 28.7959 60.0525 28.123C60.0525 23.7793 56.5313 20.258 52.1876 20.258C47.8439 20.258 44.3226 23.7793 44.3226 28.123Z" fill="white" fill-opacity="0.29" stroke="white" stroke-width="0.309028"/>
<path d="M60.0225 30.8379L44.8472 30.5912L26.9576 32.01M60.0225 30.8379L58.2952 35.4029H57.6166L57.0614 36.2665L26.9576 41.1399V43.2373L18.8148 44.5944L8.20446 44.2243V41.1399H5.24343L4.8733 40.0912L4.31811 39.8444L2.03565 32.5035L0.493449 30.4061V29.4191L1.35708 28.9873H21.9609L26.9576 32.01M60.0225 30.8379L30.844 33.1204C30.844 33.1204 29.9331 33.2196 29.3635 33.1204C28.1383 32.907 26.9576 32.01 26.9576 32.01" stroke="white" stroke-width="0.927085"/>
<path d="M48.3009 37.8701V41.3863L48.0541 41.4439M48.0541 41.4439L32.4471 45.0876L19.1841 44.6558V49.0357H19.801V53.5389L20.2945 53.7856V58.0421H19.5542L17.3952 58.7824L15.9146 59.646V64.3343L29.7945 65.9999H30.9665L50.0898 56.87V55.7597V53.1688L48.8561 52.6136H47.3139L46.3886 52.7986L46.3269 49.961L46.8204 49.8376V45.8279L48.0541 45.5194V41.4439Z" stroke="white" stroke-width="0.927085"/>
<path d="M30.5977 58.9668L20.9743 58.2266" stroke="white" stroke-width="0.309028"/>
<path d="M45.2158 50.3926L33.0633 54.464L31.5211 54.6491L20.9107 53.7854" stroke="white" stroke-width="0.309028"/>
<path d="M45.4023 46.2598L33.2498 49.7948L31.7076 49.9611L20.8505 49.2825" stroke="white" stroke-width="0.309028"/>
<path d="M48.5479 53.7861L30.9667 61.0653L17.0252 59.9549" stroke="white" stroke-width="0.309028"/>
<path d="M47.0059 53.416L30.4735 60.14L18.3826 59.0296" stroke="white" stroke-width="0.309028"/>
</g>
<defs>
<clipPath id="clip0">
<rect width="89.0002" height="66.7501" fill="white" transform="matrix(-1 0 0 1 89 0)"/>
</clipPath>
</defs>
</svg>
