<svg width="25" height="25" viewBox="0 0 25 25" fill="none" xmlns="http://www.w3.org/2000/svg">
<path fill-rule="evenodd" clip-rule="evenodd" d="M8.69565 2.51841H2.17391V8.84612H8.69565V2.51841ZM2.17391 0.40918C1.59736 0.40918 1.04441 0.631402 0.636725 1.02696C0.229037 1.42252 0 1.95901 0 2.51841V8.84612C0 9.40552 0.229037 9.94201 0.636725 10.3376C1.04441 10.7331 1.59736 10.9554 2.17391 10.9554H8.69565C9.27221 10.9554 9.82515 10.7331 10.2328 10.3376C10.6405 9.94201 10.8696 9.40552 10.8696 8.84612V2.51841C10.8696 1.95901 10.6405 1.42252 10.2328 1.02696C9.82515 0.631402 9.27221 0.40918 8.69565 0.40918H2.17391Z" fill="url(#paint0_linear)"/>
<path fill-rule="evenodd" clip-rule="evenodd" d="M8.69565 16.2284H2.17391V22.5561H8.69565V16.2284ZM2.17391 14.1191C1.59736 14.1191 1.04441 14.3414 0.636725 14.7369C0.229037 15.1325 0 15.669 0 16.2284V22.5561C0 23.1155 0.229037 23.652 0.636725 24.0475C1.04441 24.4431 1.59736 24.6653 2.17391 24.6653H8.69565C9.27221 24.6653 9.82515 24.4431 10.2328 24.0475C10.6405 23.652 10.8696 23.1155 10.8696 22.5561V16.2284C10.8696 15.669 10.6405 15.1325 10.2328 14.7369C9.82515 14.3414 9.27221 14.1191 8.69565 14.1191H2.17391Z" fill="url(#paint1_linear)"/>
<path fill-rule="evenodd" clip-rule="evenodd" d="M16.4012 2.42105L16.4012 8.94279L22.7289 8.94279L22.7289 2.42105L16.4012 2.42105ZM14.292 8.94279C14.292 9.51934 14.5142 10.0723 14.9098 10.48C15.3053 10.8877 15.8418 11.1167 16.4012 11.1167L22.7289 11.1167C23.2883 11.1167 23.8248 10.8877 24.2204 10.48C24.6159 10.0723 24.8382 9.51934 24.8382 8.94279L24.8382 2.42105C24.8382 1.84449 24.6159 1.29155 24.2204 0.883861C23.8248 0.476173 23.2883 0.247139 22.7289 0.247139L16.4012 0.247139C15.8418 0.247139 15.3053 0.476173 14.9098 0.883862C14.5142 1.29155 14.292 1.84449 14.292 2.42105L14.292 8.94279Z" fill="url(#paint2_linear)"/>
<path fill-rule="evenodd" clip-rule="evenodd" d="M22.826 16.2284H16.3043V22.5561H22.826V16.2284ZM16.3043 14.1191C15.7277 14.1191 15.1748 14.3414 14.7671 14.7369C14.3594 15.1325 14.1304 15.669 14.1304 16.2284V22.5561C14.1304 23.1155 14.3594 23.652 14.7671 24.0475C15.1748 24.4431 15.7277 24.6653 16.3043 24.6653H22.826C23.4026 24.6653 23.9555 24.4431 24.3632 24.0475C24.7709 23.652 24.9999 23.1155 24.9999 22.5561V16.2284C24.9999 15.669 24.7709 15.1325 24.3632 14.7369C23.9555 14.3414 23.4026 14.1191 22.826 14.1191H16.3043Z" fill="url(#paint3_linear)"/>
<defs>
<linearGradient id="paint0_linear" x1="5.43478" y1="0.40918" x2="5.43478" y2="10.9554" gradientUnits="userSpaceOnUse">
<stop stop-color="#000C0F"/>
<stop offset="1" stop-color="#0B303E"/>
</linearGradient>
<linearGradient id="paint1_linear" x1="5.43478" y1="14.1191" x2="5.43478" y2="24.6653" gradientUnits="userSpaceOnUse">
<stop stop-color="#000C0F"/>
<stop offset="1" stop-color="#0B303E"/>
</linearGradient>
<linearGradient id="paint2_linear" x1="14.292" y1="5.68192" x2="24.8382" y2="5.68192" gradientUnits="userSpaceOnUse">
<stop stop-color="#000C0F"/>
<stop offset="1" stop-color="#0B303E"/>
</linearGradient>
<linearGradient id="paint3_linear" x1="19.5652" y1="14.1191" x2="19.5652" y2="24.6653" gradientUnits="userSpaceOnUse">
<stop stop-color="#000C0F"/>
<stop offset="1" stop-color="#0B303E"/>
</linearGradient>
</defs>
</svg>
