<svg width="67" height="50" viewBox="0 0 67 50" fill="none" xmlns="http://www.w3.org/2000/svg">
<g clip-path="url(#clip0)">
<path d="M22.4147 23.2598C22.3079 22.4335 22.2526 21.5893 22.2526 20.7311C22.2526 10.7519 29.7248 2.66211 38.9423 2.66211C48.1597 2.66211 55.632 10.7519 55.632 20.7311C55.632 30.7103 48.1597 38.8001 38.9423 38.8001C37.3977 38.8001 35.9021 38.5729 34.4825 38.1478" stroke="white" stroke-width="0.690971"/>
<path d="M28.3221 22.9835C28.2014 22.3287 28.1381 21.6523 28.1381 20.9605C28.1381 15.1202 32.6461 10.3857 38.2071 10.3857C43.768 10.3857 48.2761 15.1202 48.2761 20.9605C48.2761 26.8007 43.768 31.5352 38.2071 31.5352C35.6282 31.5352 33.2758 30.517 31.4944 28.8425" stroke="white" stroke-width="0.230324"/>
<path d="M46.5291 1.70357C53.5507 4.45541 58.5751 11.812 58.5751 20.4549C58.5751 29.0979 53.5507 36.4545 46.5291 39.2063M46.5291 1.70357C44.6183 0.954729 42.5597 0.546875 40.4141 0.546875C30.3841 0.546875 22.2532 9.46002 22.2532 20.4549C22.2532 21.4228 22.3162 22.3746 22.4379 23.3055M46.5291 1.70357L58.5751 1.0986C58.5751 1.0986 59.9168 1.23896 60.598 1.70357C61.1002 2.04606 65.7935 6.01815 65.7935 6.01815V34.294C65.7935 34.294 62.2929 37.9057 61.6555 38.6619C61.1115 39.3073 59.7705 39.7193 59.7705 39.7193L46.5291 39.2063M46.5291 39.2063C44.6183 39.9552 42.5597 40.363 40.4141 40.363C39.3315 40.363 38.3178 40.2844 37.3336 40.1104" stroke="white" stroke-width="0.690971"/>
<path d="M61.0571 2.06445C61.0571 2.06445 61.5088 2.53041 61.7008 2.89204C61.8447 3.16303 61.9766 3.94951 61.9766 3.94951L62.5743 36.0875C62.5743 36.0875 62.516 36.9211 62.3445 37.4208C62.1354 38.0296 61.5169 38.8461 61.5169 38.8461" stroke="white" stroke-width="0.230324"/>
<path d="M48.8732 2.7079L58.1605 2.20215C58.1605 2.20215 59.0801 2.20215 59.6778 2.79985C60.2755 3.39755 60.2755 4.22515 60.2755 4.22515L60.7353 36.1332C60.7353 36.1332 60.7974 36.9608 60.2755 37.6045C60.0367 37.899 59.5587 38.1531 59.3559 38.2022C57.8387 38.57 48.9191 38.0183 48.9191 38.0183" stroke="white" stroke-width="0.230324"/>
<line y1="-0.115162" x2="5.70412" y2="-0.115162" transform="matrix(-0.999497 0.03173 0.03173 0.999497 53.701 18.3857)" stroke="white" stroke-width="0.230324"/>
<line y1="-0.115162" x2="4.41476" y2="-0.115162" transform="matrix(-0.999783 0.0208288 0.0208288 0.999783 28.3216 19.1221)" stroke="white" stroke-width="0.230324"/>
<line y1="-0.115162" x2="5.60996" y2="-0.115162" transform="matrix(0.0163912 0.999866 0.999866 -0.0163912 38.1609 31.4443)" stroke="white" stroke-width="0.230324"/>
<path d="M33.0343 20.9604C33.0343 21.4743 33.192 21.8293 33.4668 22.0818C33.7461 22.3386 34.159 22.5012 34.6908 22.6001C35.5344 22.757 36.6329 22.7472 37.8763 22.7363C38.2067 22.7333 38.5473 22.7303 38.8961 22.7303C39.2005 22.7303 39.4987 22.7322 39.7893 22.7341C41.0842 22.7424 42.2291 22.7497 43.1009 22.5829C43.6328 22.4812 44.0462 22.3172 44.3259 22.0621C44.6008 21.8114 44.758 21.462 44.758 20.9604C44.758 17.723 42.1336 15.0986 38.8961 15.0986C35.6587 15.0986 33.0343 17.723 33.0343 20.9604Z" fill="white" fill-opacity="0.29" stroke="white" stroke-width="0.230324"/>
<path d="M44.7356 22.9838L33.4252 22.7999L20.0919 23.8574M44.7356 22.9838L43.4482 26.3861H42.9425L42.5287 27.0298L20.0919 30.662V32.2252L14.0229 33.2367L6.11485 32.9608V30.662H3.90795L3.63208 29.8804L3.21829 29.6965L1.51714 24.2252L0.367711 22.662V21.9263L1.01139 21.6045H16.3677L20.0919 23.8574M44.7356 22.9838L22.9884 24.685C22.9884 24.685 22.3095 24.7589 21.885 24.685C20.9718 24.5259 20.0919 23.8574 20.0919 23.8574" stroke="white" stroke-width="0.690971"/>
<path d="M35.9999 28.2256V30.8463L35.816 30.8892M35.816 30.8892L24.1838 33.6049L14.2987 33.2831V36.5474H14.7585V39.9038L15.1263 40.0877V43.2601H14.5746L12.9654 43.8118L11.862 44.4555V47.9498L22.2068 49.1911H23.0804L37.3333 42.3865V41.5589V39.6279L36.4137 39.2141H35.2643L34.5746 39.352L34.5287 37.2371L34.8965 37.1451V34.1566L35.816 33.9267V30.8892Z" stroke="white" stroke-width="0.690971"/>
<path d="M22.8049 43.9492L15.6324 43.3975" stroke="white" stroke-width="0.230324"/>
<path d="M33.701 37.5586L24.6436 40.5931L23.4941 40.731L15.5861 40.0873" stroke="white" stroke-width="0.230324"/>
<path d="M33.8394 34.4785L24.7819 37.1132L23.6325 37.2371L15.5405 36.7314" stroke="white" stroke-width="0.230324"/>
<path d="M36.1837 40.0879L23.0802 45.5132L12.6894 44.6856" stroke="white" stroke-width="0.230324"/>
<path d="M35.0346 39.8115L22.7127 44.823L13.7012 43.9954" stroke="white" stroke-width="0.230324"/>
</g>
<defs>
<clipPath id="clip0">
<rect width="66.3332" height="49.7499" fill="white" transform="matrix(-1 0 0 1 66.3333 0)"/>
</clipPath>
</defs>
</svg>
