<svg width="28" height="28" viewBox="0 0 28 28" fill="none" xmlns="http://www.w3.org/2000/svg">
<path d="M27.7019 14.315C27.7019 13.3933 27.6202 12.5183 27.4802 11.6666H14.2969V16.9283H21.8452C21.5069 18.655 20.5152 20.1133 19.0452 21.105V24.605H23.5485C26.1852 22.1666 27.7019 18.5733 27.7019 14.315Z" fill="#000"/>
<path d="M14.2977 28C18.0777 28 21.2394 26.74 23.5494 24.605L19.0461 21.105C17.7861 21.945 16.1877 22.4583 14.2977 22.4583C10.6461 22.4583 7.5544 19.9966 6.44607 16.6716H1.80273V20.2766C4.10107 24.85 8.82607 28 14.2977 28Z" fill="#000"/>
<path d="M6.44521 16.6717C6.15354 15.8317 6.00187 14.9334 6.00187 14.0001C6.00187 13.0667 6.16521 12.1684 6.44521 11.3284V7.72339H1.80187C0.845207 9.61339 0.296875 11.7367 0.296875 14.0001C0.296875 16.2634 0.845207 18.3867 1.80187 20.2767L6.44521 16.6717Z" fill="#000"/>
<path d="M14.2977 5.54167C16.3627 5.54167 18.2061 6.25334 19.6644 7.64167L23.6544 3.65167C21.2394 1.38833 18.0777 0 14.2977 0C8.82607 0 4.10107 3.15 1.80273 7.72334L6.44607 11.3283C7.5544 8.00334 10.6461 5.54167 14.2977 5.54167Z" fill="#000"/>
</svg>
