<svg width="174" height="41" viewBox="0 0 174 41" fill="none" xmlns="http://www.w3.org/2000/svg">
<g clip-path="url(#clip0_255_1940)">
<path d="M45.4078 8.66675H38.4443V31.0382H45.4078V8.66675Z" fill="#000"/>
<path d="M135.237 9.30017C134.105 8.69554 132.596 8.66675 132.567 8.66675H120.236L118.06 12.8128H128.796C129.869 12.8128 130.333 13.1871 130.594 13.5902C130.856 13.9933 130.885 14.4828 130.885 14.6267V26.8922H125.836C124.443 26.8634 123.834 26.2875 123.457 25.5965C123.08 24.9055 123.022 24.0705 123.022 23.725V23.5235C123.022 22.343 123.515 21.5944 124.037 21.105C124.298 20.8458 124.53 20.6731 124.733 20.5579C124.821 20.5003 129.927 17.8802 129.927 17.8802V15.5769L120.991 16.8437C118.698 17.1028 117.509 18.8016 116.958 20.3276C116.377 21.8823 116.377 23.3795 116.377 23.5235V23.5523C116.377 27.0073 117.567 28.9364 118.931 29.9153C120.265 30.8943 121.658 30.9519 122.035 30.9519C122.093 30.9519 122.122 30.9519 122.122 30.9519H137.732V13.2735V13.2447C137.732 11.3444 136.368 9.90481 135.237 9.30017Z" fill="#000"/>
<path d="M158.738 8.6084L152.819 21.5361C152.732 21.68 152.587 21.7952 152.384 21.7952C152.181 21.7952 151.978 21.6224 151.92 21.4785L147.22 10.0768C147.22 10.0768 146.784 8.6084 145.043 8.6084H139.037L147.51 27.9567C147.829 28.7629 148.119 30.3465 147.597 31.6421L142.954 40.9996H150.121L165.818 8.6084H158.738V8.6084Z" fill="#000"/>
<path d="M88.03 1.69874V8.66643H80.7473H80.7183C77.5847 8.66643 76.105 9.55899 75.0315 11.4017C74.3061 12.6973 73.9869 14.5112 73.9869 16.9874V22.7458C73.9869 25.2219 74.3061 27.0358 75.0315 28.3315C76.076 30.1454 78.049 31.0667 80.6893 31.0667H80.7183H94.8774V0C94.8774 0 91.7728 0 89.9739 0C88.03 0 88.03 1.69874 88.03 1.69874ZM88.03 26.9206H85.1866C83.1265 26.9206 82.024 26.4024 81.5597 25.481C81.3566 25.1067 81.0085 23.8399 81.0085 20.7015V16.4691C81.0085 14.2233 81.3566 13.7914 81.7628 13.3596C82.169 12.8989 82.6333 12.8413 83.1555 12.8413H88.03V26.9206V26.9206Z" fill="#000"/>
<path d="M67.8358 9.5881C66.5882 8.75312 65.2536 8.66675 64.5862 8.66675C64.3831 8.66675 49.2375 8.66675 49.2375 8.66675V31.067H56.2881V12.8416H61.0464C62.12 12.8704 62.5842 13.2735 62.9034 13.8205C63.1935 14.3676 63.2516 15.0298 63.2516 15.4041V31.0958H70.186V14.7419V14.7131C70.157 11.9778 69.1125 10.3943 67.8358 9.5881Z" fill="#000"/>
<path d="M32.2924 9.5881C31.0447 8.75312 29.7101 8.66675 29.0427 8.66675H-0.0297852V31.0382H6.87567V12.8128H11.634C12.7076 12.8128 13.1718 13.2735 13.491 13.7917C13.7811 14.3388 13.8391 15.001 13.8391 15.3465V15.3753C13.8391 15.5193 13.8391 31.0382 13.8391 31.0382H20.7156V12.8128H25.474C26.5475 12.8128 27.0117 13.2735 27.3309 13.7917C27.621 14.3388 27.6791 15.001 27.6791 15.3465C27.6791 15.3465 27.6791 15.3465 27.6791 15.3753C27.6791 15.5193 27.6791 31.0382 27.6791 31.0382H34.6135V14.6843C34.6135 11.9778 33.54 10.3943 32.2924 9.5881Z" fill="#000"/>
<path d="M111.154 8.66675C111.125 8.66675 111.125 8.66675 111.096 8.66675C103.814 8.66675 101.667 11.1429 100.651 16.0087L97.3726 31.0382H104.887L107.963 16.9589C108.456 14.6267 108.92 13.7917 109.123 13.619C109.559 13.1007 110.284 12.8128 111.938 12.8128H114.752L116.957 8.69554H111.154V8.66675Z" fill="#000"/>
<path d="M168.487 9.12666H167.501V8.6084H170.083V9.12666H169.097V12.0059H168.487V9.12666Z" fill="#000"/>
<path d="M173.362 10.6244C173.333 10.1926 173.304 9.6743 173.333 9.18483H173.304C173.188 9.58792 173.043 10.0486 172.898 10.4805L172.404 11.9489H171.911L171.447 10.5093C171.302 10.0774 171.186 9.61672 171.099 9.18483C171.07 9.64551 171.07 10.1638 171.041 10.6244L170.954 11.9777H170.373L170.606 8.5802H171.418L171.853 9.93343C171.969 10.3365 172.085 10.7396 172.172 11.1139C172.259 10.7396 172.375 10.3365 172.52 9.93343L172.985 8.5802H173.797L174 11.9777H173.391L173.362 10.6244Z" fill="#000"/>
<path d="M38.4442 6.91011H45.4077V0H40.6203C38.9955 0 38.4442 0.863764 38.4442 1.95787V6.91011Z" fill="#000"/>
</g>
<defs>
<clipPath id="clip0_255_1940">
<rect width="174" height="41" fill="#000"/>
</clipPath>
</defs>
</svg>
