<svg width="107" height="130" viewBox="0 0 107 130" fill="none" xmlns="http://www.w3.org/2000/svg">
<path fill-rule="evenodd" clip-rule="evenodd" d="M53.5 130C83.0472 130 107 106.075 107 76.5613C107 47.0479 83.0472 0 53.5 0C23.9528 0 0 47.0479 0 76.5613C0 106.075 23.9528 130 53.5 130ZM88 42.5C88 44.9853 85.9853 47 83.5 47C81.0147 47 79 44.9853 79 42.5C79 40.0147 81.0147 38 83.5 38C85.9853 38 88 40.0147 88 42.5ZM72 73C72 82.9411 63.9411 91 54 91C44.0589 91 36 82.9411 36 73C36 63.0589 44.0589 55 54 55C63.9411 55 72 63.0589 72 73ZM70.5 51C72.9853 51 75 48.9853 75 46.5C75 44.0147 72.9853 42 70.5 42C68.0147 42 66 44.0147 66 46.5C66 48.9853 68.0147 51 70.5 51ZM86 56.5C86 58.9853 83.9853 61 81.5 61C79.0147 61 77 58.9853 77 56.5C77 54.0147 79.0147 52 81.5 52C83.9853 52 86 54.0147 86 56.5Z" fill="#000"/>
</svg>
