<svg width="18" height="18" viewBox="0 0 18 18" fill="none" xmlns="http://www.w3.org/2000/svg">
<circle cx="9" cy="9" r="8.5" stroke="#BDC8D3"/>
<path d="M8.32413 7.08845H9.82916V14.0423H8.32413V7.08845ZM8.12903 4.87271C8.12903 4.61258 8.21264 4.41284 8.37987 4.27349C8.54709 4.13413 8.77471 4.06445 9.06271 4.06445C9.37858 4.06445 9.61548 4.13413 9.77342 4.27349C9.94064 4.41284 10.0243 4.61258 10.0243 4.87271C10.0243 5.14213 9.94064 5.35116 9.77342 5.49981C9.61548 5.63916 9.37858 5.70884 9.06271 5.70884C8.77471 5.70884 8.54709 5.63916 8.37987 5.49981C8.21264 5.35116 8.12903 5.14213 8.12903 4.87271Z" fill="#BDC8D3"/>
</svg>
