<svg width="22" height="24" viewBox="0 0 22 24" fill="none" xmlns="http://www.w3.org/2000/svg">
<path fill-rule="evenodd" clip-rule="evenodd" d="M12.4286 21.4286H3.85714C3.51615 21.4286 3.18912 21.2931 2.94801 21.052C2.70689 20.8109 2.57143 20.4838 2.57143 20.1429V15.4286H1.71429V20.1429C1.71429 20.7112 1.94005 21.2562 2.34191 21.6581C2.74378 22.0599 3.28882 22.2857 3.85714 22.2857H12.4286V21.4286ZM2.94801 1.23372C2.70689 1.47484 2.57143 1.80186 2.57143 2.14286V6.42857H1.71429V2.14286C1.71429 1.57454 1.94005 1.02949 2.34191 0.627628C2.74378 0.225765 3.28882 0 3.85714 0H12.8571C12.9558 0.000797553 13.0512 0.0356139 13.1271 0.0985714L17.8414 3.95571C17.8906 3.99559 17.9303 4.04587 17.9577 4.10293C17.9851 4.15999 17.9996 4.22241 18 4.28571V6.42857H17.1429V4.71429H12.8571C12.7435 4.71429 12.6345 4.66913 12.5541 4.58876C12.4737 4.50839 12.4286 4.39938 12.4286 4.28571V0.857143H3.85714C3.51615 0.857143 3.18912 0.992602 2.94801 1.23372ZM1.28571 14.5714H18.4286C18.7696 14.5714 19.0966 14.436 19.3377 14.1948C19.5788 13.9537 19.7143 13.6267 19.7143 13.2857V8.14286C19.7143 7.80186 19.5788 7.47484 19.3377 7.23372C19.0966 6.9926 18.7696 6.85714 18.4286 6.85714H1.28571C0.944722 6.85714 0.617695 6.9926 0.376577 7.23372C0.135459 7.47484 0 7.80186 0 8.14286V13.2857C0 13.6267 0.135459 13.9537 0.376577 14.1948C0.617695 14.436 0.944722 14.5714 1.28571 14.5714ZM20.7063 22.0953C21.1772 21.3905 21.4286 20.5619 21.4286 19.7143C21.4286 18.5776 20.977 17.4876 20.1733 16.6838C19.3696 15.8801 18.2795 15.4286 17.1429 15.4286C16.2952 15.4286 15.4666 15.6799 14.7618 16.1508C14.0571 16.6218 13.5077 17.2911 13.1834 18.0742C12.859 18.8573 12.7741 19.719 12.9395 20.5504C13.1049 21.3817 13.513 22.1454 14.1124 22.7447C14.7118 23.3441 15.4754 23.7523 16.3068 23.9177C17.1381 24.083 17.9998 23.9981 18.7829 23.6738C19.566 23.3494 20.2354 22.8001 20.7063 22.0953ZM18.6 20.2286L19.1143 20.9143L17.4 22.2C17.3258 22.2556 17.2356 22.2857 17.1429 22.2857C17.0501 22.2857 16.9599 22.2556 16.8857 22.2L15.1714 20.9143L15.6857 20.2286L16.7143 21V17.1429H17.5714V21L18.6 20.2286ZM2.57153 9H5.52462C6.05965 9 6.45465 9.10435 6.70962 9.31304C6.96877 9.52174 7.09835 9.80994 7.09835 10.1776C7.09835 10.5553 6.96877 10.8484 6.70962 11.0571C6.45465 11.2658 6.05965 11.3702 5.52462 11.3702H3.75026V12.4286H2.57153V9ZM5.90081 10.2522V10.113C5.90081 10.0004 5.85692 9.90766 5.76915 9.83478C5.68555 9.7619 5.54761 9.72547 5.35534 9.72547H3.75026V10.6447H5.35534C5.54761 10.6447 5.68555 10.6099 5.76915 10.5404C5.85692 10.4675 5.90081 10.3714 5.90081 10.2522ZM7.70863 9H10.3043C10.668 9 10.9898 9.02981 11.2699 9.08944C11.5541 9.14576 11.7903 9.24182 11.9784 9.37764C12.1707 9.51015 12.317 9.68571 12.4173 9.90435C12.5176 10.123 12.5677 10.393 12.5677 10.7143C12.5677 11.0356 12.5176 11.3056 12.4173 11.5242C12.317 11.7429 12.1707 11.9201 11.9784 12.0559C11.7903 12.1884 11.5541 12.2845 11.2699 12.3441C10.9898 12.4004 10.668 12.4286 10.3043 12.4286H7.70863V9ZM10.2228 11.6683C10.599 11.6683 10.8833 11.612 11.0755 11.4994C11.272 11.3834 11.3702 11.1714 11.3702 10.8634V10.5404C11.3702 10.2522 11.272 10.0501 11.0755 9.93416C10.8833 9.81822 10.599 9.76025 10.2228 9.76025H8.88736V11.6683H10.2228ZM17.143 9H13.2682V12.4286H14.4469V11.1565H16.5975V10.4112H14.4469V9.76025H17.143V9Z" fill="#000"/>
</svg>
