<svg width="33" height="38" viewBox="0 0 33 38" fill="none" xmlns="http://www.w3.org/2000/svg">
<path fill-rule="evenodd" clip-rule="evenodd" d="M19.9537 23.1433H12.471V14.4646H6.69498V23.1433C6.69498 23.1433 1.05019 23.1433 0 23.1433C0 25.7733 0 28.4032 1.05019 30.9016C2.10038 33.2686 4.20077 35.3725 6.95752 36.4245C9.71428 37.4764 12.9961 37.4764 16.278 37.4764C19.5598 37.4764 22.8417 37.4764 25.5984 36.4245C28.3552 35.3725 30.4556 33.2686 31.5058 30.9016C32.556 28.5347 32.556 25.9048 32.556 23.1433C31.5058 23.1433 25.861 23.1433 25.861 23.1433V14.4646H20.0849C19.9537 14.4646 19.9537 20.9079 19.9537 23.1433ZM4.98841 0C7.48262 0 11.8147 0 16.1467 0C20.4787 0 24.8108 0 27.305 0C29.7992 0 30.4556 0 30.9807 0.262993C31.5058 0.525985 31.8996 0.920474 32.1621 1.31496C32.4247 1.84095 32.4247 2.36693 32.4247 2.89292C32.4247 4.86536 32.4247 8.67875 32.4247 8.67875H20.2162L16.1467 12.7551L12.2085 8.67875H0C0 8.67875 0 4.86536 0 2.89292C0 2.36693 0 1.84095 0.262548 1.31496C0.393822 0.788978 0.787644 0.394489 1.31274 0.262993C1.83784 0 2.49421 0 4.98841 0Z" fill="#000"/>
</svg>
