<svg width="126" height="16" viewBox="0 0 126 16" fill="none" xmlns="http://www.w3.org/2000/svg">
<path fill-rule="evenodd" clip-rule="evenodd" d="M96.5946 3.96624C96.5946 5.4127 96.5946 6.85916 96.5946 8.30561C97.6448 8.30561 98.695 8.30561 99.4827 8.30561C100.533 8.30561 101.058 8.30562 101.583 8.17412C102.108 8.04262 102.371 7.64813 102.502 7.12215C102.633 6.59616 102.633 5.80719 102.502 5.2812C102.371 4.75522 101.977 4.36073 101.452 4.22923C100.927 4.09774 100.402 4.09774 99.4827 4.09774C98.695 3.96624 97.6448 3.96624 96.5946 3.96624ZM114.71 3.96624C114.71 6.59616 114.71 9.22609 114.71 11.9875C115.761 11.9875 116.811 11.9875 117.73 11.9875C118.649 11.9875 119.436 11.9875 120.224 11.7245C120.88 11.4615 121.405 10.9355 121.668 10.2781C121.931 9.62058 121.931 8.8316 121.931 7.91113C121.931 7.12215 121.931 6.20168 121.668 5.54419C121.405 4.88671 120.88 4.36073 120.224 4.09774C119.568 3.83474 118.78 3.83474 117.73 3.83474C116.811 3.96624 115.761 3.96624 114.71 3.96624ZM42.5097 3.96624C42.5097 6.59616 42.5097 9.22609 42.5097 11.9875C43.5599 11.9875 44.6101 11.9875 45.529 11.9875C46.448 11.9875 47.2356 11.9875 48.0233 11.7245C48.6796 11.4615 49.2047 10.9355 49.4673 10.2781C49.7298 9.62058 49.7298 8.8316 49.7298 7.91113C49.7298 7.12215 49.7298 6.20168 49.4673 5.54419C49.2047 4.88671 48.6796 4.36073 48.0233 4.09774C47.3669 3.83474 46.5792 3.83474 45.529 3.83474C44.6101 3.96624 43.5599 3.96624 42.5097 3.96624ZM76.7723 5.54419C76.5097 6.20168 76.5097 7.12215 76.5097 8.04262C76.5097 8.9631 76.5097 9.88357 76.7723 10.5411C77.0348 11.1985 77.5599 11.7245 78.2163 11.9875C78.8727 12.2505 79.7916 12.2505 80.7105 12.2505C81.6294 12.2505 82.5483 12.2505 83.2047 11.9875C83.8611 11.7245 84.3862 11.1985 84.6487 10.5411C84.9113 9.88357 84.9113 8.9631 84.9113 8.04262C84.9113 7.12215 84.9113 6.20168 84.6487 5.54419C84.3862 4.88671 83.8611 4.36073 83.2047 4.09774C82.2858 3.83474 81.3669 3.83474 80.4479 3.83474C79.529 3.83474 78.7414 3.83474 78.085 4.09774C77.4286 4.36073 77.0348 4.75522 76.7723 5.54419ZM18.6179 15.1434H14.2858V5.4127L9.42869 10.2781L4.57154 5.4127V15.1434H0.239502V0.678833H4.57154L9.42869 5.54419L14.2858 0.678833H18.6179V15.1434ZM22.4248 15.1434C22.4248 10.2781 22.4248 5.54419 22.4248 0.678833H34.3708V3.96624H26.7569V6.33317H34.3708V9.62058H26.7569V11.9875H34.3708V15.2749H22.4248V15.1434ZM57.2124 15.1434V10.4096V7.12215V3.96624V0.678833H69.1584V3.96624H61.5445V7.25365H69.1584V10.5411H61.5445V15.2749H57.2124V15.1434ZM75.197 14.6174C73.8842 14.0915 72.9653 13.0395 72.4402 11.7245C71.9151 10.5411 71.9151 9.22609 71.9151 7.91113C71.9151 6.59616 71.9151 5.2812 72.4402 3.96624C72.9653 2.78277 73.8842 1.7308 75.197 1.20482C76.5097 0.678833 78.085 0.678833 79.2665 0.678833C80.3167 0.678833 80.8418 0.678833 81.892 0.678833C82.9422 0.678833 84.6487 0.678833 85.9615 1.20482C87.2742 1.7308 88.1931 2.78277 88.7182 3.96624C89.2433 5.14971 89.2433 6.46467 89.2433 7.91113C89.2433 9.22609 89.2433 10.5411 88.7182 11.856C88.1931 13.0395 87.2742 14.0915 85.9615 14.6174C84.6487 15.1434 83.0734 15.1434 81.3669 15.1434C80.8418 15.1434 80.3167 15.1434 79.7916 15.1434C78.2163 15.1434 76.5097 15.1434 75.197 14.6174ZM92.2626 15.1434C92.2626 10.2781 92.2626 5.54419 92.2626 0.678833C93.7066 0.678833 95.1506 0.678833 96.5946 0.678833C97.6448 0.678833 98.695 0.678833 100.008 0.678833C101.321 0.678833 102.765 0.678833 103.946 1.07332C105.127 1.46781 106.178 2.25679 106.703 3.70325C107.228 5.14971 107.228 7.25365 106.703 8.7001C106.309 9.75207 105.653 10.4096 104.865 10.9355L107.359 15.2749H102.633L100.533 11.593C100.27 11.593 100.008 11.593 99.7452 11.593C98.5638 11.593 97.5136 11.593 96.4634 11.593C96.4634 12.7765 96.4634 13.96 96.4634 15.2749C95.1506 15.1434 93.7066 15.1434 92.2626 15.1434ZM110.378 15.1434C110.378 10.2781 110.378 5.54419 110.378 0.678833C112.741 0.678833 115.104 0.678833 117.205 0.678833C119.305 0.678833 121.143 0.678833 122.456 1.20482C123.9 1.7308 124.95 2.78277 125.475 3.96624C126 5.14971 126 6.46467 126 7.91113C126 9.22609 126 10.6725 125.475 11.856C124.95 13.0395 123.9 14.0915 122.456 14.6174C121.012 15.1434 119.174 15.1434 117.861 15.1434C116.548 15.1434 115.498 15.1434 114.579 15.1434C113.266 15.1434 111.822 15.1434 110.378 15.1434ZM38.1777 15.1434C38.1777 10.2781 38.1777 5.54419 38.1777 0.678833C40.5406 0.678833 42.9036 0.678833 45.004 0.678833C47.1043 0.678833 48.9422 0.678833 50.2549 1.20482C51.6989 1.7308 52.7491 2.78277 53.2742 3.96624C53.7993 5.14971 53.7993 6.46467 53.7993 7.91113C53.7993 9.22609 53.7993 10.6725 53.2742 11.856C52.7491 13.0395 51.6989 14.0915 50.2549 14.6174C48.8109 15.1434 46.9731 15.1434 45.6603 15.1434C44.3476 15.1434 43.2974 15.1434 42.3785 15.1434C41.0657 15.1434 39.6217 15.1434 38.1777 15.1434Z" fill="black"/>
</svg>
