<svg width="142" height="110" viewBox="0 0 142 110" fill="none" xmlns="http://www.w3.org/2000/svg">
<path fill-rule="evenodd" clip-rule="evenodd" d="M0 14C0 6.26801 6.26801 0 14 0H128C135.732 0 142 6.26801 142 14V96C142 103.732 135.732 110 128 110H14C6.26802 110 0 103.732 0 96V14ZM8 14C8 10.6863 10.6863 8 14 8H128C131.314 8 134 10.6863 134 14V96C134 99.3137 131.314 102 128 102H14C10.6863 102 8 99.3137 8 96V14ZM23 16C20.7909 16 19 17.7909 19 20V90C19 92.2091 20.7909 94 23 94H119C121.209 94 123 92.2091 123 90V20C123 17.7909 121.209 16 119 16H23Z" fill="#000"/>
</svg>
