<svg width="30" height="30" viewBox="0 0 30 30" fill="none" xmlns="http://www.w3.org/2000/svg">
<path d="M30 15C30 23.2844 23.2844 30 15 30C6.71562 30 0 23.2844 0 15C0 6.71562 6.71562 0 15 0C23.2844 0 30 6.71562 30 15Z" fill="url(#paint0_linear_209:11365)"/>
<path d="M13.8543 18.7074C13.6359 18.7074 13.4249 18.6262 13.2626 18.4786L10.422 15.8924C10.0631 15.5656 10.037 15.0096 10.3638 14.6507C10.6907 14.2918 11.2466 14.2658 11.6055 14.5926L13.795 16.5859L18.3369 11.5807C18.6631 11.2214 19.219 11.1944 19.5784 11.5205C19.9379 11.8467 19.9647 12.4024 19.6386 12.762L14.5052 18.4193C14.3484 18.5921 14.1294 18.6953 13.8961 18.7065C13.8822 18.7072 13.8682 18.7074 13.8543 18.7074Z" fill="white"/>
<defs>
<linearGradient id="paint0_linear_209:11365" x1="0" y1="15" x2="30" y2="15" gradientUnits="userSpaceOnUse">
<stop stop-color="#17BFAB"/>
<stop offset="1" stop-color="#05A6C5"/>
</linearGradient>
</defs>
</svg>
