<svg width="18" height="11" viewBox="0 0 18 11" fill="none" xmlns="http://www.w3.org/2000/svg">
<path d="M0.501707 1.58574L0.50234 1.57297L0.502321 1.56018C0.501884 1.28922 0.580154 1.03648 0.710354 0.845582C0.783112 0.738984 0.867947 0.657509 0.956278 0.600933C1.04416 0.544641 1.13474 0.513341 1.22285 0.503474C1.31073 0.493633 1.40063 0.50457 1.48917 0.538002C1.57824 0.571634 1.66788 0.628877 1.75054 0.712548L8.62619 7.69292L8.97566 8.04772L9.33185 7.69967L16.2209 0.968072L16.2209 0.968076L16.2225 0.966423C16.3058 0.884248 16.3958 0.828592 16.485 0.796494C16.5737 0.764585 16.6637 0.755078 16.7518 0.766457C16.8401 0.777871 16.9309 0.810915 17.0187 0.869215C17.107 0.927803 17.1914 1.01141 17.2632 1.12001L17.2691 1.12889L17.2753 1.13751C17.3537 1.24568 17.4164 1.3775 17.4555 1.5261C17.4946 1.67464 17.5084 1.83314 17.4951 1.99064C17.4817 2.14816 17.4419 2.29756 17.3807 2.42923C17.3194 2.56093 17.2396 2.66887 17.1507 2.74993L17.1444 2.75572L17.1383 2.76172L9.44105 10.288L9.44103 10.288L9.43734 10.2917C9.29208 10.4367 9.12787 10.5 8.97599 10.5C8.82447 10.5 8.66069 10.437 8.51569 10.2927C8.51534 10.2924 8.51499 10.292 8.51465 10.2917L0.819849 2.50292L0.81892 2.50198C0.719633 2.40201 0.634441 2.26794 0.576818 2.10657C0.519226 1.94528 0.492748 1.76643 0.501707 1.58574Z" fill="#002B4E" stroke="white"/>
</svg>
