<svg width="216" height="47" viewBox="0 0 216 47" fill="none" xmlns="http://www.w3.org/2000/svg">
<path d="M215.698 0.882324H97.4023V14.5905H215.698V0.882324Z" fill="white"/>
<path d="M102.91 3.65967H104.021V11.9093H102.91V3.65967Z" fill="#002B4E"/>
<path d="M108.358 4.26285C108.358 4.88793 107.904 5.49847 106.988 6.09448L106.656 5.61477C107.132 5.25862 107.421 4.97515 107.529 4.7789H107.486C107.14 4.7789 106.88 4.48817 106.88 4.13201C106.88 3.73952 107.204 3.44152 107.601 3.44152C108.041 3.43425 108.358 3.78313 108.358 4.26285Z" fill="#002B4E"/>
<path d="M110.891 11.9093V3.65967H111.425L114.961 8.89291L118.475 3.65967H119.017V11.9093H117.905V6.33444L115.091 10.4992H114.802L111.988 6.33444V11.902H110.891V11.9093Z" fill="#002B4E"/>
<path d="M126.023 11.9093V3.65967H129.069C130.231 3.65967 131.14 4.03036 131.818 4.779C132.497 5.52764 132.836 6.53068 132.836 7.80265C132.836 9.06735 132.49 10.0704 131.797 10.8045C131.111 11.5386 130.166 11.9093 128.961 11.9093H126.023ZM127.135 10.8481H129.011C129.855 10.8481 130.505 10.5574 130.981 9.99044C131.458 9.40896 131.689 8.67486 131.689 7.76631C131.689 6.8723 131.458 6.14546 130.981 5.57852C130.505 5.01159 129.848 4.72085 129.011 4.72085H127.135V10.8481Z" fill="#002B4E"/>
<path d="M135.539 11.9093V3.65967H140.634V4.72085H136.643V7.18484H140.331V8.24602H136.643V10.8481H140.634V11.9093H135.539Z" fill="#002B4E"/>
<path d="M142.66 10.346L143.483 9.66278C143.923 10.5423 144.645 10.9784 145.446 10.9784C146.377 10.9784 146.954 10.4332 146.954 9.7282C146.954 9.28483 146.665 8.8996 146.103 8.57979C145.958 8.49984 145.67 8.36901 145.258 8.18003C144.847 7.99106 144.551 7.83115 144.342 7.71486C143.519 7.19153 143.115 6.53011 143.115 5.75239C143.115 5.11277 143.339 4.58945 143.793 4.16788C144.248 3.73178 144.847 3.521 145.59 3.521C146.6 3.521 147.409 3.92076 147.993 4.73482L147.25 5.44712C146.81 4.85838 146.254 4.56764 145.597 4.56764C144.854 4.56764 144.298 5.01102 144.298 5.68698C144.298 6.12308 144.529 6.47196 144.998 6.74816C145.143 6.83538 145.453 7.00255 145.951 7.24241C146.449 7.475 146.795 7.65671 146.983 7.76574C147.77 8.24545 148.166 8.88507 148.166 9.68459C148.166 10.3896 147.914 10.9566 147.394 11.3927C146.882 11.8288 146.24 12.0541 145.467 12.0541C144.269 12.0395 143.194 11.4508 142.66 10.346Z" fill="#002B4E"/>
<path d="M150.965 3.65967H152.076V11.9093H150.965V3.65967Z" fill="#002B4E"/>
<path d="M155.691 10.8257C154.905 10.0189 154.508 9.00857 154.508 7.78748C154.508 6.55186 154.919 5.53428 155.749 4.72749C156.579 3.91343 157.575 3.51367 158.766 3.51367C160.137 3.51367 161.436 4.12422 162.179 5.03277L161.392 5.7596C160.707 4.98915 159.826 4.59666 158.78 4.59666C157.892 4.59666 157.149 4.89467 156.543 5.49794C155.944 6.10122 155.648 6.87167 155.648 7.79475C155.648 8.69603 155.951 9.45921 156.543 10.0625C157.142 10.6512 157.871 10.9565 158.751 10.9565C159.725 10.9565 160.7 10.5131 161.378 9.79356V8.1509H158.643V7.12606H162.424V10.2878C161.429 11.4508 160.187 12.0322 158.715 12.0322C157.488 12.0322 156.492 11.6252 155.691 10.8257Z" fill="#002B4E"/>
<path d="M170.625 3.65967H171.722V11.9093H171.145L166.238 6.05824V11.9093H165.141V3.65967H165.639L170.625 9.53979V3.65967Z" fill="#002B4E"/>
<path d="M174.891 11.9093V3.65967H179.993V4.72085H176.002V7.18484H179.69V8.24602H176.002V10.8481H179.993V11.9093H174.891Z" fill="#002B4E"/>
<path d="M182.75 11.9093V3.65967H185.795C186.957 3.65967 187.867 4.03036 188.545 4.779C189.223 5.52764 189.563 6.53068 189.563 7.80265C189.563 9.06735 189.216 10.0704 188.523 10.8045C187.838 11.5386 186.892 11.9093 185.687 11.9093H182.75ZM183.854 10.8481H185.73C186.575 10.8481 187.224 10.5574 187.701 9.99044C188.177 9.40896 188.408 8.67486 188.408 7.76631C188.408 6.8723 188.177 6.14546 187.701 5.57852C187.224 5.01159 186.568 4.72085 185.73 4.72085H183.854V10.8481Z" fill="#002B4E"/>
<path d="M202.015 9.53979C202.015 10.1794 201.792 10.7318 201.337 11.2043C200.897 11.6694 200.276 11.9093 199.475 11.9093H196.098V3.65967H199.338C200.045 3.65967 200.601 3.87045 200.991 4.28475C201.387 4.69905 201.59 5.17876 201.59 5.72389C201.59 6.47253 201.157 7.14123 200.478 7.39562C201.488 7.67909 202.015 8.55129 202.015 9.53979ZM197.195 4.69905V6.99586H199.158C199.966 6.99586 200.457 6.42892 200.457 5.78931C200.457 5.20783 199.98 4.69178 199.194 4.69178H197.195V4.69905ZM199.302 10.8554C199.778 10.8554 200.168 10.7245 200.442 10.4411C200.731 10.1649 200.875 9.83053 200.875 9.45984C200.875 8.66759 200.291 8.00617 199.259 8.00617H197.195V10.8554H199.302Z" fill="#002B4E"/>
<path d="M210.202 3.65967L207.394 8.93652V11.902H206.283V8.93652L203.512 3.65967H204.739L206.831 7.83172L208.96 3.65967H210.202Z" fill="#002B4E"/>
<path d="M0 34.9913L3.03099 30.5358C5.03 32.5491 7.28881 33.5594 9.80742 33.5594C11.258 33.5594 12.4848 32.9416 12.4848 31.8005C12.4848 31.0518 11.8425 30.434 10.5507 29.947L8.42183 29.2347C7.10118 28.7477 6.0692 28.3552 5.39083 27.9991C2.77841 26.6036 1.45055 24.5175 1.45055 21.7556C1.45055 19.6405 2.28768 17.8524 3.93307 16.4569C5.57847 15.0614 7.70738 14.3418 10.327 14.3418C13.5889 14.3418 16.3962 15.3521 18.8138 17.3654L16.0065 21.9809C14.5848 20.8107 12.2322 19.9966 10.4208 19.9966C8.77544 19.9966 7.87336 20.6798 7.87336 21.5593C7.87336 22.2716 8.51564 22.8603 9.77855 23.3473L11.8786 24.125C13.0693 24.5466 14.0075 24.9028 14.6209 25.1644C17.6519 26.4655 19.1746 28.5806 19.1746 31.4734C19.1746 33.7193 18.3014 35.5364 16.5911 36.9974C14.8807 38.4292 12.5858 39.1415 9.7136 39.1415C5.74445 39.1488 2.48253 37.7533 0 34.9913Z" fill="white"/>
<path d="M21.3477 20.7812H27.0632V30.957C27.0632 32.745 28.1963 33.9443 29.9066 33.9443C31.6819 33.9443 32.7788 32.745 32.7788 30.957V20.7812H38.4944V30.8916C38.4944 36.1902 35.2325 39.1775 29.9066 39.1775C24.5807 39.1775 21.3549 36.1902 21.3549 30.8916V20.7812H21.3477Z" fill="white"/>
<path d="M58.6073 23.0576C60.2527 24.8456 61.0609 27.0916 61.0609 29.7227C61.0609 32.3539 60.2238 34.5998 58.5784 36.4533C56.933 38.2704 54.8691 39.1862 52.3793 39.1862C50.4092 39.1862 48.6988 38.5393 47.3132 37.2382V46.6217H41.5977V20.7826H47.2122V22.4398C48.5978 21.0443 50.3081 20.3247 52.3432 20.3247C54.8979 20.332 56.9619 21.2405 58.6073 23.0576ZM51.2463 25.6597C48.9225 25.6597 47.2122 27.4477 47.2122 29.7881C47.2122 30.9293 47.6019 31.9032 48.3452 32.7173C49.1174 33.5314 50.0844 33.9166 51.2535 33.9166C52.4154 33.9166 53.3824 33.5241 54.1257 32.7173C54.8691 31.9032 55.2588 30.9293 55.2588 29.7881C55.2515 27.4477 53.5701 25.6597 51.2463 25.6597Z" fill="white"/>
<path d="M80.9647 31.6116H68.2489C68.8912 33.4941 70.349 34.439 72.6078 34.439C74.5779 34.439 76.3532 33.8866 77.9986 32.7818L80.2286 36.6486C77.9337 38.3058 75.3213 39.1198 72.3552 39.1198C69.1943 39.1198 66.7695 38.2113 65.0592 36.4233C63.3488 34.6062 62.5117 32.3893 62.5117 29.7582C62.5117 27.0616 63.3849 24.8156 65.1602 23.0276C66.9355 21.2396 69.2232 20.3311 72.0377 20.3311C74.6862 20.3311 76.8801 21.1451 78.5904 22.7369C80.3007 24.3287 81.174 26.5383 81.174 29.3002C81.1595 30.0489 81.0946 30.7975 80.9647 31.6116ZM68.184 27.6721H75.7398C75.2563 25.9495 73.9357 24.9101 72.0305 24.9101C70.0603 24.9101 68.7974 25.826 68.184 27.6721Z" fill="white"/>
<path d="M83.5469 38.7276V20.7819H89.0027V22.9915C90.1357 21.2035 91.7161 20.2949 93.744 20.2949C94.5162 20.2949 95.2595 20.4548 95.9739 20.7819L95.5193 26.2405C94.6822 25.9497 93.9028 25.8189 93.1667 25.8189C90.5542 25.8189 89.2264 27.5415 89.2264 30.9867V38.7203H83.5469V38.7276Z" fill="white"/>
<path d="M97.4023 38.7275V13.9277H102.952V23.224C103.825 21.6322 105.954 20.2948 108.538 20.2948C110.443 20.2948 112.088 20.9417 113.409 22.2137C114.73 23.4784 115.408 25.3318 115.408 27.7086V38.7275H109.692V29.235C109.692 26.8945 108.502 25.5281 106.56 25.5281C104.496 25.5281 103.075 27.0544 103.075 29.3658V38.7275H97.4023Z" fill="white"/>
<path d="M136.07 31.6116H123.354C123.997 33.4941 125.454 34.439 127.713 34.439C129.683 34.439 131.459 33.8866 133.104 32.7818L135.334 36.6486C133.039 38.3058 130.427 39.1198 127.461 39.1198C124.3 39.1198 121.875 38.2113 120.165 36.4233C118.454 34.6062 117.617 32.3893 117.617 29.7582C117.617 27.0616 118.49 24.8156 120.266 23.0276C122.041 21.2396 124.329 20.3311 127.143 20.3311C129.792 20.3311 131.986 21.1451 133.696 22.7369C135.406 24.3287 136.279 26.5383 136.279 29.3002C136.265 30.0489 136.2 30.7975 136.07 31.6116ZM123.289 27.6721H130.845C130.362 25.9495 129.041 24.9101 127.136 24.9101C125.159 24.9101 123.903 25.826 123.289 27.6721Z" fill="white"/>
<path d="M138.652 38.7276V20.7819H144.108V22.9915C145.241 21.2035 146.822 20.2949 148.849 20.2949C149.622 20.2949 150.365 20.4548 151.079 20.7819L150.625 26.2405C149.788 25.9497 149.008 25.8189 148.272 25.8189C145.66 25.8189 144.332 27.5415 144.332 30.9867V38.7203H138.652V38.7276Z" fill="white"/>
<path d="M154.338 36.4813C152.562 34.6642 151.66 32.4183 151.66 29.7508C151.66 27.0833 152.562 24.8447 154.338 23.0203C156.142 21.1668 158.465 20.2583 161.345 20.2583C164.217 20.2583 166.577 21.1668 168.345 23.0203C170.149 24.8374 171.059 27.0833 171.059 29.7508C171.059 32.4183 170.156 34.657 168.345 36.4813C166.57 38.2984 164.217 39.2143 161.345 39.2143C158.465 39.2143 156.142 38.3057 154.338 36.4813ZM164.21 32.68C164.982 31.8659 165.372 30.892 165.372 29.7217C165.372 28.5806 164.982 27.6066 164.181 26.8289C163.409 26.0512 162.471 25.6587 161.338 25.6587C160.205 25.6587 159.274 26.0512 158.494 26.858C157.722 27.6357 157.332 28.5806 157.332 29.7217C157.332 30.892 157.722 31.8659 158.494 32.68C159.267 33.4577 160.205 33.8502 161.338 33.8502C162.471 33.8502 163.438 33.465 164.21 32.68Z" fill="white"/>
<path d="M190.961 31.6116H178.245C178.887 33.4941 180.345 34.439 182.604 34.439C184.574 34.439 186.349 33.8866 187.995 32.7818L190.225 36.6486C187.93 38.3058 185.317 39.1198 182.351 39.1198C179.19 39.1198 176.766 38.2113 175.055 36.4233C173.345 34.6062 172.508 32.3893 172.508 29.7582C172.508 27.0616 173.381 24.8156 175.156 23.0276C176.932 21.2396 179.227 20.3311 182.034 20.3311C184.682 20.3311 186.876 21.1451 188.587 22.7369C190.297 24.3287 191.17 26.5383 191.17 29.3002C191.156 30.0489 191.091 30.7975 190.961 31.6116ZM178.18 27.6721H185.736C185.252 25.9495 183.932 24.9101 182.027 24.9101C180.049 24.9101 178.794 25.826 178.18 27.6721Z" fill="white"/>
<path d="M192.016 36.125L194.563 32.2582C196.273 33.7555 198.049 34.5041 199.889 34.5041C201.145 34.5041 201.794 34.1116 201.794 33.363C201.794 32.9414 201.469 32.6143 200.827 32.3527C200.733 32.3236 200.084 32.1273 198.857 31.7058C197.666 31.2842 196.822 30.9935 196.403 30.7972C194.173 29.7579 193.076 28.1297 193.076 25.9201C193.076 24.2266 193.755 22.8674 195.075 21.8208C196.396 20.7451 198.208 20.229 200.43 20.229C202.978 20.229 205.172 21.0067 207.077 22.5694L204.623 26.3417C203.136 25.3314 201.715 24.8154 200.329 24.8154C199.391 24.8154 198.713 25.2733 198.713 25.8257C198.713 26.4144 199.261 26.836 200.329 27.1267C202.04 27.6137 203.461 28.137 204.522 28.6894C206.687 29.7651 207.553 31.1607 207.553 33.2394C207.553 34.9984 206.875 36.423 205.489 37.5641C204.103 38.6689 202.263 39.2213 199.903 39.2213C196.786 39.214 194.173 38.1746 192.016 36.125Z" fill="white"/>
<path d="M209.508 36.126C209.508 34.4034 210.893 33.0732 212.669 33.0732C214.35 33.0732 215.7 34.4397 215.7 36.126C215.7 37.914 214.343 39.2441 212.669 39.2441C210.893 39.2514 209.508 37.914 209.508 36.126Z" fill="white"/>
</svg>
