<svg width="1300" height="221" viewBox="0 0 1300 221" fill="none" xmlns="http://www.w3.org/2000/svg">
<path d="M5.10987 103.48L5.53462 103.743L5.10987 103.48ZM1290.08 4.56548C1289.81 4.6319 1289.54 4.46846 1289.47 4.20042C1289.41 3.93239 1289.57 3.66126 1289.84 3.59483L1290.08 4.56548ZM1270.27 6.99387C1270.55 6.95922 1270.8 7.15322 1270.83 7.42718C1270.87 7.70114 1270.67 7.95132 1270.4 7.98597L1270.27 6.99387ZM1250.41 10.0162C1250.13 10.0388 1249.89 9.83397 1249.87 9.55876C1249.85 9.28354 1250.05 9.04213 1250.33 9.01956L1250.41 10.0162ZM1230.97 10.3609C1231.25 10.3448 1231.49 10.5552 1231.5 10.8308C1231.52 11.1065 1231.31 11.3431 1231.03 11.3592L1230.97 10.3609ZM1211.27 12.3537C1210.99 12.3656 1210.76 12.1516 1210.75 11.8757C1210.74 11.5998 1210.95 11.3665 1211.23 11.3546L1211.27 12.3537ZM1190.94 12.1119C1191.21 12.103 1191.44 12.3196 1191.45 12.5956C1191.46 12.8716 1191.24 13.1025 1190.97 13.1114L1190.94 12.1119ZM1171.51 13.6578C1171.23 13.6645 1171 13.4462 1171 13.1701C1170.99 12.8941 1171.21 12.6648 1171.49 12.6581L1171.51 13.6578ZM1151.38 13.0846C1151.66 13.0795 1151.88 13.2992 1151.89 13.5753C1151.89 13.8514 1151.67 14.0793 1151.4 14.0844L1151.38 13.0846ZM1131.72 14.3969C1131.45 14.4007 1131.22 14.1799 1131.22 13.9038C1131.21 13.6277 1131.43 13.4008 1131.71 13.397L1131.72 14.3969ZM1111.64 13.632C1111.92 13.6292 1112.14 13.8509 1112.15 14.127C1112.15 14.4031 1111.93 14.6292 1111.65 14.6319L1111.64 13.632ZM1091.98 14.7969C1091.7 14.7989 1091.48 14.5766 1091.47 14.3004C1091.47 14.0243 1091.69 13.7989 1091.97 13.797L1091.98 14.7969ZM1071.81 13.9125C1072.09 13.9112 1072.32 14.134 1072.32 14.4102C1072.32 14.6863 1072.09 14.9112 1071.82 14.9125L1071.81 13.9125ZM1052.23 14.9832C1051.95 14.9839 1051.73 14.7607 1051.73 14.4845C1051.73 14.2084 1051.95 13.9839 1052.23 13.9832L1052.23 14.9832ZM1032.1 14.0219C1032.37 14.0216 1032.6 14.2452 1032.6 14.5213C1032.6 14.7975 1032.37 15.0216 1032.1 15.0219L1032.1 14.0219ZM1012.43 15.0337C1012.15 15.0337 1011.93 14.8099 1011.93 14.5337C1011.93 14.2576 1012.15 14.0337 1012.43 14.0337L1012.43 15.0337ZM992.516 14.0254C992.792 14.0256 993.016 14.2497 993.016 14.5258C993.015 14.802 992.791 15.0257 992.515 15.0254L992.516 14.0254ZM972.568 15.0021C972.292 15.0017 972.068 14.7775 972.069 14.5014C972.069 14.2252 972.293 14.0017 972.569 14.0021L972.568 15.0021ZM952.829 13.9688C953.105 13.9693 953.329 14.1936 953.328 14.4698C953.328 14.7459 953.103 14.9693 952.827 14.9688L952.829 13.9688ZM932.767 14.9288C932.491 14.9282 932.268 14.7039 932.268 14.4277C932.269 14.1516 932.493 13.9282 932.769 13.9288L932.767 14.9288ZM913.038 13.8869C913.314 13.8875 913.537 14.1119 913.537 14.388C913.536 14.6641 913.312 14.8875 913.036 14.8869L913.038 13.8869ZM893.168 14.8458C892.892 14.8452 892.669 14.6209 892.669 14.3448C892.67 14.0686 892.894 13.8452 893.17 13.8458L893.168 14.8458ZM873.171 13.8085C873.448 13.809 873.671 14.0332 873.671 14.3094C873.67 14.5855 873.446 14.809 873.17 14.8085L873.171 13.8085ZM853.433 14.7787C853.157 14.7784 852.933 14.5542 852.934 14.2781C852.934 14.0019 853.158 13.7784 853.434 13.7787L853.433 14.7787ZM833.513 13.7585C833.789 13.7587 834.013 13.9827 834.013 14.2589C834.013 14.535 833.789 14.7587 833.513 14.7585L833.513 13.7585ZM813.615 14.751C813.339 14.751 813.115 14.5271 813.115 14.2509C813.115 13.9748 813.339 13.7509 813.615 13.751L813.615 14.751ZM793.807 13.7585C794.083 13.7582 794.307 13.9819 794.308 14.2581C794.308 14.5342 794.084 14.7583 793.808 14.7585L793.807 13.7585ZM773.878 14.7837C773.602 14.7842 773.377 14.5608 773.377 14.2846C773.376 14.0085 773.6 13.7842 773.876 13.7838L773.878 14.7837ZM754.021 13.8291C754.297 13.8283 754.521 14.0515 754.522 14.3277C754.523 14.6038 754.3 14.8283 754.024 14.8291L754.021 13.8291ZM734.179 14.897C733.903 14.8981 733.678 14.6752 733.677 14.399C733.676 14.1229 733.899 13.8981 734.175 13.897L734.179 14.897ZM714.26 13.9904C714.536 13.9889 714.761 14.2116 714.763 14.4877C714.764 14.7639 714.542 14.9889 714.265 14.9904L714.26 13.9904ZM694.415 15.1111C694.139 15.113 693.913 14.8907 693.912 14.6146C693.91 14.3384 694.132 14.113 694.408 14.1111L694.415 15.1111ZM674.546 14.2622C674.822 14.2599 675.048 14.4819 675.05 14.758C675.052 15.0341 674.83 15.2599 674.554 15.2622L674.546 14.2622ZM654.675 15.4463C654.398 15.4491 654.172 15.2275 654.169 14.9514C654.167 14.6753 654.388 14.4492 654.664 14.4463L654.675 15.4463ZM634.787 14.6661C635.063 14.6628 635.29 14.884 635.293 15.1601C635.296 15.4362 635.075 15.6627 634.799 15.666L634.787 14.6661ZM614.938 15.9242C614.662 15.928 614.435 15.7073 614.431 15.4312C614.427 15.1551 614.648 14.9281 614.924 14.9243L614.938 15.9242ZM595.076 15.2237C595.352 15.2192 595.579 15.4394 595.584 15.7155C595.588 15.9916 595.368 16.219 595.092 16.2235L595.076 15.2237ZM575.182 16.5687C574.906 16.5738 574.678 16.3541 574.673 16.078C574.668 15.8019 574.887 15.5739 575.163 15.5688L575.182 16.5687ZM555.315 15.961C555.591 15.9552 555.82 16.1743 555.826 16.4504C555.831 16.7264 555.612 16.9549 555.336 16.9607L555.315 15.961ZM535.497 17.4042C535.221 17.4107 534.992 17.1923 534.985 16.9162C534.979 16.6401 535.197 16.411 535.473 16.4044L535.497 17.4042ZM515.544 16.9057C515.82 16.8983 516.05 17.1162 516.057 17.3922C516.064 17.6682 515.847 17.898 515.571 17.9053L515.544 16.9057ZM495.762 18.463C495.486 18.4712 495.255 18.2541 495.247 17.978C495.239 17.702 495.456 17.4716 495.732 17.4634L495.762 18.463ZM475.861 18.087C476.136 18.0778 476.368 18.2942 476.377 18.5702C476.386 18.8461 476.17 19.0773 475.894 19.0864L475.861 18.087ZM455.977 19.7807C455.701 19.7909 455.469 19.5754 455.459 19.2994C455.449 19.0235 455.665 18.7916 455.941 18.7815L455.977 19.7807ZM436.198 19.5437C436.474 19.5325 436.707 19.7471 436.718 20.023C436.729 20.2989 436.515 20.5317 436.239 20.5429L436.198 19.5437ZM416.29 21.3939C416.015 21.4062 415.781 21.1926 415.769 20.9167C415.756 20.6408 415.97 20.4072 416.246 20.3949L416.29 21.3939ZM396.379 21.3297C396.655 21.3161 396.89 21.5287 396.903 21.8045C396.917 22.0803 396.704 22.3149 396.429 22.3285L396.379 21.3297ZM376.76 23.3473C376.484 23.3623 376.248 23.1509 376.233 22.8752C376.218 22.5995 376.43 22.3638 376.705 22.3488L376.76 23.3473ZM356.657 23.4913C356.933 23.4748 357.169 23.6849 357.186 23.9606C357.202 24.2363 356.992 24.473 356.717 24.4895L356.657 23.4913ZM336.984 25.726C336.708 25.7441 336.47 25.5354 336.452 25.2598C336.434 24.9843 336.643 24.7462 336.918 24.7282L336.984 25.726ZM317.07 26.0948C317.346 26.0749 317.585 26.282 317.605 26.5575C317.625 26.8329 317.418 27.0723 317.142 27.0921L317.07 26.0948ZM297.248 28.5983C296.973 28.6201 296.732 28.4147 296.71 28.1394C296.689 27.8642 296.894 27.6233 297.169 27.6014L297.248 28.5983ZM277.635 29.2274C277.91 29.2034 278.153 29.4069 278.177 29.682C278.201 29.9571 277.997 30.1996 277.722 30.2236L277.635 29.2274ZM257.635 32.0651C257.36 32.0916 257.116 31.8902 257.089 31.6153C257.063 31.3405 257.264 31.0962 257.539 31.0697L257.635 32.0651ZM237.962 33.05C238.236 33.0208 238.483 33.2198 238.512 33.4944C238.541 33.769 238.342 34.0152 238.068 34.0444L237.962 33.05ZM218.15 36.2721C217.876 36.3043 217.627 36.1082 217.595 35.834C217.563 35.5598 217.759 35.3113 218.033 35.279L218.15 36.2721ZM198.39 37.7165C198.664 37.6807 198.915 37.8736 198.951 38.1474C198.986 38.4212 198.793 38.6723 198.52 38.708L198.39 37.7165ZM178.791 41.4345C178.518 41.4744 178.264 41.2852 178.224 41.012C178.184 40.7388 178.373 40.4849 178.646 40.445L178.791 41.4345ZM159.021 43.482C159.293 43.4373 159.55 43.622 159.595 43.8945C159.64 44.167 159.455 44.4241 159.183 44.4689L159.021 43.482ZM139.575 47.8898C139.304 47.9402 139.043 47.761 138.992 47.4894C138.942 47.2179 139.121 46.957 139.393 46.9065L139.575 47.8898ZM119.991 50.7564C120.261 50.6991 120.527 50.8716 120.584 51.1417C120.642 51.4118 120.469 51.6773 120.199 51.7346L119.991 50.7564ZM100.653 56.2016C100.385 56.2676 100.114 56.1039 100.048 55.8358C99.9822 55.5676 100.146 55.2967 100.414 55.2306L100.653 56.2016ZM81.6348 60.2491C81.9 60.1721 82.1773 60.3246 82.2543 60.5898C82.3313 60.855 82.1787 61.1324 81.9135 61.2094L81.6348 60.2491ZM62.6531 67.3792C62.3929 67.4716 62.107 67.3354 62.0147 67.0752C61.9224 66.8149 62.0585 66.5291 62.3188 66.4368L62.6531 67.3792ZM43.7433 73.8604C43.9948 73.7465 44.2911 73.8579 44.4051 74.1095C44.5191 74.361 44.4076 74.6573 44.1561 74.7713L43.7433 73.8604ZM26.7286 84.0091C26.4949 84.1561 26.1861 84.0859 26.0391 83.8521C25.8921 83.6184 25.9623 83.3097 26.1961 83.1627L26.7286 84.0091ZM10.6429 95.5713C10.8327 95.3706 11.1491 95.3618 11.3498 95.5514C11.5505 95.7412 11.5593 96.0576 11.3696 96.2583L10.6429 95.5713ZM1.74509 112.078C1.66532 112.342 1.38631 112.492 1.12196 112.412C0.857612 112.332 0.707964 112.053 0.787728 111.789L1.74509 112.078ZM0.0795347 130.417C0.0276926 130.146 0.205483 129.884 0.476721 129.832C0.74796 129.78 1.00985 129.958 1.06173 130.229L0.0795347 130.417ZM7.33188 147.52C7.45884 147.765 7.36295 148.067 7.11772 148.194C6.8725 148.321 6.57075 148.225 6.44379 147.98L7.33188 147.52ZM16.4618 163.724C16.2965 163.503 16.3418 163.19 16.563 163.024C16.7842 162.859 17.0976 162.904 17.2628 163.125L16.4618 163.724ZM29.1746 177.343C29.3621 177.545 29.3496 177.862 29.1468 178.049C28.9441 178.237 28.6278 178.224 28.4403 178.021L29.1746 177.343ZM41.6157 191.206C41.4138 191.017 41.4027 190.701 41.591 190.499C41.7793 190.297 42.0957 190.286 42.2976 190.474L41.6157 191.206ZM56.2566 202.724C56.4693 202.9 56.4988 203.215 56.3226 203.428C56.1464 203.64 55.8313 203.67 55.6186 203.494L56.2566 202.724ZM70.2951 215.005C70.0733 214.841 70.0268 214.528 70.1912 214.306C70.3556 214.084 70.6688 214.037 70.8906 214.202L70.2951 215.005ZM1299.33 1.42742C1297.02 2.57238 1293.92 3.61397 1290.08 4.56548L1289.84 3.59483C1293.65 2.6516 1296.67 1.63085 1298.89 0.531564L1299.33 1.42742ZM1270.4 7.98597C1264.45 8.73827 1257.77 9.41239 1250.41 10.0162L1250.33 9.01956C1257.68 8.41662 1264.34 7.7439 1270.27 6.99387L1270.4 7.98597ZM1231.03 11.3592C1224.79 11.7245 1218.2 12.055 1211.27 12.3537L1211.23 11.3546C1218.15 11.0561 1224.74 10.7259 1230.97 10.3609L1231.03 11.3592ZM1190.97 13.1114C1184.7 13.3129 1178.21 13.4944 1171.51 13.6578L1171.49 12.6581C1178.18 12.4948 1184.67 12.3133 1190.94 12.1119L1190.97 13.1114ZM1151.4 14.0844C1145 14.2015 1138.44 14.3052 1131.72 14.3969L1131.71 13.397C1138.42 13.3054 1144.98 13.2017 1151.38 13.0846L1151.4 14.0844ZM1111.65 14.6319C1105.21 14.6957 1098.65 14.7504 1091.98 14.7969L1091.97 13.797C1098.65 13.7504 1105.2 13.6957 1111.64 13.632L1111.65 14.6319ZM1071.82 14.9125C1065.38 14.9419 1058.85 14.9652 1052.23 14.9832L1052.23 13.9832C1058.85 13.9652 1065.38 13.9419 1071.81 13.9125L1071.82 14.9125ZM1032.1 15.0219C1025.62 15.0297 1019.06 15.0334 1012.43 15.0337L1012.43 14.0337C1019.06 14.0334 1025.62 14.0297 1032.1 14.0219L1032.1 15.0219ZM992.515 15.0254C985.929 15.0199 979.279 15.0119 972.568 15.0021L972.569 14.0021C979.28 14.0119 985.93 14.0199 992.516 14.0254L992.515 15.0254ZM952.827 14.9688C946.193 14.9564 939.505 14.9428 932.767 14.9288L932.769 13.9288C939.507 13.9428 946.195 13.9564 952.829 13.9688L952.827 14.9688ZM913.036 14.8869C906.454 14.873 899.831 14.8591 893.168 14.8458L893.17 13.8458C899.833 13.8591 906.457 13.873 913.038 13.8869L913.036 14.8869ZM873.17 14.8085C866.624 14.7973 860.044 14.7872 853.433 14.7787L853.434 13.7787C860.045 13.7872 866.625 13.7973 873.171 13.8085L873.17 14.8085ZM833.513 14.7585C826.906 14.7538 820.273 14.7511 813.615 14.751L813.615 13.751C820.273 13.7511 826.907 13.7538 833.513 13.7585L833.513 14.7585ZM793.808 14.7585C787.184 14.7638 780.54 14.772 773.878 14.7837L773.876 13.7838C780.538 13.7721 787.183 13.7638 793.807 13.7585L793.808 14.7585ZM754.024 14.8291C747.422 14.8478 740.806 14.8703 734.179 14.897L734.175 13.897C740.803 13.8703 747.419 13.8478 754.021 13.8291L754.024 14.8291ZM714.265 14.9904C707.656 15.0258 701.039 15.066 694.415 15.1111L694.408 14.1111C701.032 14.066 707.65 14.0259 714.26 13.9904L714.265 14.9904ZM674.554 15.2622C667.93 15.3179 661.302 15.3791 654.675 15.4463L654.664 14.4463C661.293 14.3792 667.921 14.3179 674.546 14.2622L674.554 15.2622ZM634.799 15.666C628.175 15.7455 621.554 15.8314 614.938 15.9242L614.924 14.9243C621.541 14.8315 628.163 14.7456 634.787 14.6661L634.799 15.666ZM595.092 16.2235C588.446 16.3311 581.809 16.4459 575.182 16.5687L575.163 15.5688C581.791 15.4461 588.43 15.3312 595.076 15.2237L595.092 16.2235ZM555.336 16.9607C548.709 17.1001 542.095 17.2477 535.497 17.4042L535.473 16.4044C542.072 16.248 548.687 16.1003 555.315 15.961L555.336 16.9607ZM515.571 17.9053C508.947 18.0816 502.343 18.2674 495.762 18.463L495.732 17.4634C502.314 17.2678 508.919 17.082 515.544 16.9057L515.571 17.9053ZM475.894 19.0864C469.227 19.3069 462.587 19.5382 455.977 19.7807L455.941 18.7815C462.552 18.5388 469.193 18.3075 475.861 18.087L475.894 19.0864ZM436.239 20.5429C429.554 20.8141 422.904 21.0976 416.29 21.3939L416.246 20.3949C422.86 20.0985 429.512 19.815 436.198 19.5437L436.239 20.5429ZM396.429 22.3285C389.83 22.6543 383.272 22.9938 376.76 23.3473L376.705 22.3488C383.22 21.9952 389.779 21.6556 396.379 21.3297L396.429 22.3285ZM356.717 24.4895C350.086 24.8858 343.507 25.2977 336.984 25.726L336.918 24.7282C343.444 24.2998 350.025 23.8877 356.657 23.4913L356.717 24.4895ZM317.142 27.0921C310.445 27.5755 303.812 28.0773 297.248 28.5983L297.169 27.6014C303.735 27.0802 310.371 26.5782 317.07 26.0948L317.142 27.0921ZM277.722 30.2236C270.943 30.815 264.246 31.4286 257.635 32.0651L257.539 31.0697C264.153 30.4329 270.853 29.819 277.635 29.2274L277.722 30.2236ZM238.068 34.0444C231.326 34.7605 224.685 35.5028 218.15 36.2721L218.033 35.279C224.572 34.5092 231.217 33.7665 237.962 33.05L238.068 34.0444ZM198.52 38.708C191.814 39.5849 185.236 40.4933 178.791 41.4345L178.646 40.445C185.096 39.5031 191.68 38.594 198.39 37.7165L198.52 38.708ZM159.183 44.4689C152.477 45.5686 145.938 46.7084 139.575 47.8898L139.393 46.9065C145.763 45.7238 152.308 44.5828 159.021 43.482L159.183 44.4689ZM120.199 51.7346C113.443 53.1681 106.923 54.6565 100.653 56.2016L100.414 55.2306C106.696 53.6827 113.226 52.1919 119.991 50.7564L120.199 51.7346ZM81.9135 61.2094C75.117 63.1824 68.6898 65.2379 62.6531 67.3792L62.3188 66.4368C68.3761 64.2881 74.8219 62.2268 81.6348 60.2491L81.9135 61.2094ZM44.1561 74.7713C37.6751 77.7084 31.8524 80.7857 26.7286 84.0091L26.1961 83.1627C31.3652 79.9108 37.2291 76.8126 43.7433 73.8604L44.1561 74.7713ZM11.3696 96.2583C9.07564 98.6849 7.12705 101.179 5.53462 103.743L4.68511 103.216C6.31709 100.588 8.30827 98.0409 10.6429 95.5713L11.3696 96.2583ZM5.53462 103.743C3.84848 106.458 2.60083 109.242 1.74509 112.078L0.787728 111.789C1.6692 108.868 2.95338 106.004 4.68511 103.216L5.53462 103.743ZM1.06173 130.229C2.15663 135.954 4.34853 141.758 7.33188 147.52L6.44379 147.98C3.42795 142.155 1.19681 136.259 0.0795347 130.417L1.06173 130.229ZM17.2628 163.125C20.92 168.019 24.9619 172.786 29.1746 177.343L28.4403 178.021C24.2086 173.444 20.1435 168.65 16.4618 163.724L17.2628 163.125ZM42.2976 190.474C47.109 194.96 51.8599 199.081 56.2566 202.724L55.6186 203.494C51.2094 199.841 46.4436 195.707 41.6157 191.206L42.2976 190.474ZM70.8906 214.202C73.2093 215.92 75.0852 217.262 76.3808 218.174C77.0286 218.629 77.5313 218.978 77.8718 219.212C78.042 219.329 78.1716 219.417 78.2586 219.476C78.302 219.506 78.3348 219.528 78.3566 219.543C78.3676 219.55 78.3758 219.556 78.3812 219.56C78.3839 219.561 78.3859 219.563 78.3872 219.564C78.3879 219.564 78.3883 219.564 78.3886 219.565C78.3888 219.565 78.3889 219.565 78.389 219.565L78.389 219.565C78.389 219.565 78.389 219.565 78.1098 219.98C77.8306 220.394 77.8306 220.394 77.8306 220.394C77.8305 220.394 77.8305 220.394 77.8304 220.394C77.8303 220.394 77.8302 220.394 77.83 220.394C77.8296 220.394 77.829 220.393 77.8283 220.393C77.8268 220.392 77.8246 220.39 77.8217 220.388C77.816 220.385 77.8075 220.379 77.7963 220.371C77.7737 220.356 77.7403 220.333 77.6962 220.303C77.6078 220.243 77.4768 220.154 77.3052 220.036C76.9619 219.8 76.4562 219.449 75.8054 218.991C74.5037 218.076 72.6211 216.729 70.2951 215.005L70.8906 214.202Z" fill="#05A6C5"/>
</svg>
