<svg width="1271" height="186" viewBox="0 0 1271 186" fill="none" xmlns="http://www.w3.org/2000/svg">
<path d="M8.34449 67.7382L7.94264 67.4407L8.34449 67.7382ZM1260.77 17.2338C1260.5 17.2897 1260.24 17.1158 1260.18 16.8454C1260.12 16.575 1260.3 16.3104 1260.57 16.2545L1260.77 17.2338ZM1240.9 18.9001C1241.18 18.8758 1241.42 19.0792 1241.44 19.3543C1241.47 19.6294 1241.27 19.872 1240.99 19.8962L1240.9 18.9001ZM1220.93 21.1652C1220.65 21.1772 1220.42 20.9634 1220.41 20.6875C1220.39 20.4116 1220.61 20.1782 1220.88 20.1661L1220.93 21.1652ZM1201.24 20.7734C1201.51 20.7679 1201.74 20.9872 1201.75 21.2633C1201.75 21.5394 1201.53 21.7677 1201.26 21.7732L1201.24 20.7734ZM1181.51 22.0075C1181.23 22.0088 1181.01 21.786 1181 21.5098C1181 21.2337 1181.23 21.0088 1181.5 21.0075L1181.51 22.0075ZM1161.28 20.9858C1161.56 20.9875 1161.78 21.2128 1161.78 21.4889C1161.78 21.765 1161.55 21.9875 1161.28 21.9858L1161.28 20.9858ZM1141.52 21.7817C1141.25 21.7778 1141.03 21.5509 1141.03 21.2747C1141.04 20.9986 1141.26 20.7779 1141.54 20.7818L1141.52 21.7817ZM1121.57 20.4384C1121.84 20.4439 1122.06 20.6722 1122.06 20.9483C1122.05 21.2244 1121.82 21.4437 1121.55 21.4382L1121.57 20.4384ZM1101.58 20.9889C1101.31 20.9821 1101.09 20.7527 1101.1 20.4767C1101.1 20.2006 1101.33 19.9824 1101.61 19.9892L1101.58 20.9889ZM1081.72 19.4593C1082 19.4672 1082.22 19.6973 1082.21 19.9733C1082.2 20.2493 1081.97 20.4667 1081.69 20.4589L1081.72 19.4593ZM1061.74 19.8619C1061.47 19.8532 1061.25 19.6225 1061.26 19.3465C1061.27 19.0705 1061.5 18.8537 1061.77 18.8624L1061.74 19.8619ZM1041.83 18.2137C1042.11 18.223 1042.32 18.4543 1042.31 18.7303C1042.3 19.0063 1042.07 19.2225 1041.8 19.2132L1041.83 18.2137ZM1021.94 18.5265C1021.66 18.5167 1021.45 18.285 1021.46 18.009C1021.47 17.7331 1021.7 17.5173 1021.98 17.5271L1021.94 18.5265ZM1001.9 16.8001C1002.17 16.8103 1002.39 17.0423 1002.38 17.3182C1002.37 17.5942 1002.14 17.8096 1001.86 17.7995L1001.9 16.8001ZM982.121 17.0601C981.845 17.0496 981.63 16.8174 981.64 16.5415C981.651 16.2655 981.883 16.0503 982.159 16.0608L982.121 17.0601ZM961.991 15.2865C962.267 15.2972 962.482 15.5296 962.471 15.8055C962.461 16.0815 962.228 16.2965 961.952 16.2858L961.991 15.2865ZM942.252 15.5164C941.976 15.5055 941.761 15.2731 941.772 14.9971C941.783 14.7212 942.015 14.5063 942.291 14.5172L942.252 15.5164ZM922.316 13.7287C922.592 13.7396 922.807 13.9721 922.796 14.2481C922.785 14.524 922.553 14.7388 922.277 14.7279L922.316 13.7287ZM902.326 13.9362C902.05 13.9252 901.836 13.6927 901.846 13.4167C901.857 13.1408 902.09 12.926 902.366 12.937L902.326 13.9362ZM882.539 12.1499C882.814 12.1608 883.029 12.3934 883.018 12.6693C883.007 12.9453 882.775 13.1601 882.499 13.1491L882.539 12.1499ZM862.42 12.3554C862.144 12.3446 861.929 12.1121 861.94 11.8361C861.951 11.5602 862.184 11.3453 862.459 11.3562L862.42 12.3554ZM842.672 10.5806C842.948 10.5914 843.163 10.8238 843.152 11.0997C843.142 11.3757 842.909 11.5906 842.633 11.5799L842.672 10.5806ZM822.707 10.8086C822.431 10.798 822.216 10.5657 822.227 10.2898C822.238 10.0138 822.47 9.79872 822.746 9.80931L822.707 10.8086ZM802.754 9.04825C803.03 9.05865 803.245 9.29078 803.234 9.56673C803.224 9.84268 802.992 10.0579 802.716 10.0475L802.754 9.04825ZM782.884 9.30808C782.608 9.29791 782.392 9.06596 782.402 8.79C782.412 8.51405 782.644 8.29859 782.92 8.30876L782.884 9.30808ZM762.954 7.58271C763.23 7.59261 763.446 7.82434 763.436 8.10031C763.426 8.37627 763.194 8.59197 762.918 8.58207L762.954 7.58271ZM743.001 7.87895C742.725 7.86937 742.509 7.63788 742.519 7.3619C742.528 7.08592 742.76 6.86997 743.036 6.87955L743.001 7.87895ZM723.145 6.20117C723.421 6.21041 723.637 6.44163 723.628 6.71762C723.618 6.9936 723.387 7.20985 723.111 7.20062L723.145 6.20117ZM703.146 6.54638C702.87 6.53753 702.654 6.30662 702.662 6.03062C702.671 5.75462 702.902 5.53805 703.178 5.54689L703.146 6.54638ZM683.277 4.92413C683.554 4.93255 683.77 5.16313 683.762 5.43914C683.754 5.71516 683.523 5.93209 683.247 5.92366L683.277 4.92413ZM663.332 5.33261C663.056 5.32466 662.839 5.09444 662.847 4.81842C662.854 4.54239 663.085 4.32507 663.361 4.33303L663.332 5.33261ZM643.423 3.77645C643.699 3.78389 643.917 4.01371 643.909 4.28975C643.902 4.56579 643.672 4.78353 643.396 4.77608L643.423 3.77645ZM623.469 4.25792C623.193 4.25102 622.975 4.02164 622.981 3.74558C622.988 3.46953 623.218 3.25133 623.494 3.25823L623.469 4.25792ZM603.577 2.78158C603.853 2.78789 604.072 3.0168 604.065 3.29287C604.059 3.56894 603.83 3.78763 603.554 3.78132L603.577 2.78158ZM583.63 3.34903C583.354 3.34336 583.135 3.11496 583.14 2.83887C583.146 2.56279 583.375 2.34357 583.651 2.34924L583.63 3.34903ZM563.694 1.96438C563.97 1.96935 564.19 2.1972 564.185 2.4733C564.18 2.7494 563.952 2.96919 563.676 2.96421L563.694 1.96438ZM543.788 2.63229C543.512 2.62805 543.291 2.40079 543.296 2.12468C543.3 1.84857 543.527 1.62817 543.803 1.6324L543.788 2.63229ZM523.845 1.35508C524.121 1.35851 524.342 1.58513 524.339 1.86125C524.335 2.13737 524.109 2.35843 523.833 2.355L523.845 1.35508ZM503.881 2.13786C503.605 2.1353 503.383 1.90937 503.385 1.63324C503.388 1.35711 503.614 1.13534 503.89 1.13791L503.881 2.13786ZM484.057 0.986206C484.333 0.987851 484.555 1.21304 484.554 1.48918C484.552 1.76531 484.327 1.98783 484.051 1.98619L484.057 0.986206ZM464.014 1.90292C463.738 1.90228 463.514 1.67791 463.515 1.40177C463.516 1.12562 463.74 0.902285 464.016 0.902923L464.014 1.90292ZM444.101 0.895375C444.377 0.894932 444.601 1.11843 444.602 1.39457C444.602 1.67072 444.379 1.89493 444.103 1.89537L444.101 0.895375ZM424.244 1.96854C423.968 1.97015 423.743 1.7476 423.741 1.47146C423.739 1.19532 423.962 0.970168 424.238 0.96856L424.244 1.96854ZM404.186 1.13099C404.462 1.1281 404.688 1.34961 404.691 1.62574C404.694 1.90187 404.472 2.12805 404.196 2.13093L404.186 1.13099ZM384.385 2.38623C384.109 2.39049 383.881 2.1701 383.877 1.89399C383.873 1.61788 384.093 1.3906 384.369 1.38635L384.385 2.38623ZM364.353 1.74849C364.629 1.74273 364.858 1.96187 364.863 2.23795C364.869 2.51404 364.65 2.74251 364.374 2.74827L364.353 1.74849ZM344.433 3.2228C344.157 3.2302 343.927 3.01243 343.919 2.73638C343.912 2.46034 344.13 2.23056 344.406 2.22316L344.433 3.2228ZM324.63 2.81665C324.906 2.80746 325.137 3.02374 325.146 3.29973C325.155 3.57572 324.939 3.8069 324.663 3.81609L324.63 2.81665ZM304.551 4.55787C304.275 4.56907 304.043 4.35447 304.031 4.07856C304.02 3.80264 304.235 3.56989 304.511 3.55869L304.551 4.55787ZM284.795 4.43554C285.071 4.42216 285.306 4.63491 285.319 4.91073C285.332 5.18655 285.12 5.42099 284.844 5.43437L284.795 4.43554ZM264.754 6.49765C264.478 6.51351 264.242 6.30288 264.226 6.02719C264.21 5.7515 264.421 5.51516 264.697 5.4993L264.754 6.49765ZM244.884 6.73605C245.16 6.71745 245.398 6.92571 245.417 7.20123C245.436 7.47674 245.227 7.71517 244.952 7.73378L244.884 6.73605ZM225.038 9.18974C224.762 9.21147 224.521 9.00593 224.5 8.73064C224.478 8.45536 224.684 8.21457 224.959 8.19284L225.038 9.18974ZM205.074 9.88965C205.349 9.86435 205.592 10.0667 205.617 10.3417C205.643 10.6167 205.44 10.8601 205.165 10.8854L205.074 9.88965ZM185.388 12.851C185.114 12.8804 184.867 12.6817 184.838 12.4071C184.808 12.1326 185.007 11.8861 185.282 11.8567L185.388 12.851ZM165.408 14.1587C165.682 14.1245 165.932 14.3188 165.966 14.5928C166.001 14.8668 165.806 15.1167 165.532 15.151L165.408 14.1587ZM145.817 17.8201C145.544 17.8601 145.29 17.671 145.25 17.3978C145.21 17.1246 145.399 16.8707 145.672 16.8307L145.817 17.8201ZM126.013 19.9571C126.286 19.9102 126.544 20.0927 126.591 20.3648C126.638 20.6369 126.456 20.8956 126.184 20.9426L126.013 19.9571ZM106.466 24.6619C106.195 24.7176 105.931 24.5435 105.875 24.2731C105.819 24.0026 105.994 23.7382 106.264 23.6824L106.466 24.6619ZM87.2301 27.9908C87.4981 27.9241 87.7693 28.0873 87.836 28.3553C87.9027 28.6233 87.7395 28.8945 87.4715 28.9612L87.2301 27.9908ZM67.9329 34.3867C67.6691 34.4686 67.389 34.3213 67.307 34.0576C67.2251 33.7938 67.3725 33.5137 67.6362 33.4317L67.9329 34.3867ZM48.7199 40.113C48.976 40.0097 49.2674 40.1335 49.3707 40.3896C49.474 40.6457 49.3502 40.937 49.0941 41.0404L48.7199 40.113ZM31.2054 49.5282C30.9649 49.6639 30.6599 49.579 30.5242 49.3385C30.3885 49.098 30.4734 48.793 30.7139 48.6573L31.2054 49.5282ZM14.4528 60.2336C14.6551 60.0456 14.9715 60.0572 15.1594 60.2595C15.3474 60.4618 15.3358 60.7781 15.1335 60.9661L14.4528 60.2336ZM4.35703 75.6244C4.24783 75.878 3.95369 75.9951 3.70006 75.8859C3.44642 75.7767 3.32934 75.4825 3.43854 75.2289L4.35703 75.6244ZM0.41997 92.7855C0.406321 92.5097 0.61884 92.2751 0.894645 92.2614C1.17045 92.2478 1.4051 92.4603 1.41875 92.7361L0.41997 92.7855ZM5.17269 109.882C5.26856 110.141 5.13634 110.429 4.87737 110.525C4.61841 110.621 4.33076 110.488 4.23489 110.229L5.17269 109.882ZM12.0237 126.26C11.8828 126.023 11.9612 125.716 12.1987 125.575C12.4362 125.434 12.743 125.513 12.8838 125.75L12.0237 126.26ZM22.8355 140.389C23.0029 140.608 22.9606 140.922 22.741 141.09C22.5214 141.257 22.2076 141.215 22.0402 140.995L22.8355 140.389ZM33.4366 154.68C33.2517 154.474 33.2681 154.158 33.4732 153.973C33.6783 153.789 33.9945 153.805 34.1794 154.01L33.4366 154.68ZM46.4739 166.769C46.6717 166.962 46.6757 167.278 46.483 167.476C46.2902 167.674 45.9737 167.678 45.7759 167.485L46.4739 166.769ZM58.9039 179.549C58.6951 179.369 58.6723 179.053 58.853 178.844C59.0336 178.635 59.3494 178.612 59.5582 178.793L58.9039 179.549ZM1270.2 14.4574C1267.82 15.5108 1264.65 16.4312 1260.77 17.2338L1260.57 16.2545C1264.42 15.4588 1267.5 14.5557 1269.8 13.5426L1270.2 14.4574ZM1240.99 19.8962C1235.01 20.4227 1228.31 20.8424 1220.93 21.1652L1220.88 20.1661C1228.25 19.8438 1234.94 19.425 1240.9 18.9001L1240.99 19.8962ZM1201.26 21.7732C1195.01 21.8982 1188.42 21.975 1181.51 22.0075L1181.5 21.0075C1188.41 20.975 1195 20.8983 1201.24 20.7734L1201.26 21.7732ZM1161.28 21.9858C1154.91 21.9461 1148.32 21.8773 1141.52 21.7817L1141.54 20.7818C1148.33 20.8773 1154.92 20.9461 1161.28 20.9858L1161.28 21.9858ZM1121.55 21.4382C1115.05 21.3078 1108.4 21.1574 1101.58 20.9889L1101.61 19.9892C1108.42 20.1577 1115.08 20.308 1121.57 20.4384L1121.55 21.4382ZM1081.69 20.4589C1075.16 20.2734 1068.51 20.0739 1061.74 19.8619L1061.77 18.8624C1068.54 19.0744 1075.19 19.2738 1081.72 19.4593L1081.69 20.4589ZM1041.8 19.2132C1035.27 18.9937 1028.65 18.7644 1021.94 18.5265L1021.98 17.5271C1028.69 17.765 1035.31 17.9943 1041.83 18.2137L1041.8 19.2132ZM1001.86 17.7995C995.355 17.5595 988.774 17.3127 982.121 17.0601L982.159 16.0608C988.812 16.3134 995.393 16.5602 1001.9 16.8001L1001.86 17.7995ZM961.952 16.2858C955.446 16.0335 948.877 15.7768 942.252 15.5164L942.291 14.5172C948.917 14.7775 955.485 15.0343 961.991 15.2865L961.952 16.2858ZM922.277 14.7279C915.677 14.4664 909.025 14.2023 902.326 13.9362L902.366 12.937C909.065 13.203 915.716 13.4672 922.316 13.7287L922.277 14.7279ZM882.499 13.1491C875.847 12.8854 869.153 12.6206 862.42 12.3554L862.459 11.3562C869.192 11.6214 875.886 11.8862 882.539 12.1499L882.499 13.1491ZM842.633 11.5799C836.023 11.3222 829.38 11.0649 822.707 10.8086L822.746 9.80931C829.419 10.0656 836.062 10.323 842.672 10.5806L842.633 11.5799ZM802.716 10.0475C796.129 9.79923 789.518 9.55253 782.884 9.30808L782.92 8.30876C789.555 8.55322 796.167 8.79993 802.754 9.04825L802.716 10.0475ZM762.918 8.58207C756.297 8.34466 749.657 8.11008 743.001 7.87895L743.036 6.87955C749.692 7.1107 756.333 7.34529 762.954 7.58271L762.918 8.58207ZM723.111 7.20062C716.468 6.97832 709.812 6.76004 703.146 6.54638L703.178 5.54689C709.844 5.76057 716.501 5.97886 723.145 6.20117L723.111 7.20062ZM683.247 5.92366C676.614 5.7213 669.975 5.52408 663.332 5.33261L663.361 4.33303C670.004 4.52451 676.644 4.72174 683.277 4.92413L683.247 5.92366ZM643.396 4.77608C636.753 4.59683 630.11 4.42391 623.469 4.25792L623.494 3.25823C630.136 3.42424 636.78 3.59718 643.423 3.77645L643.396 4.77608ZM603.554 3.78132C596.907 3.62947 590.264 3.48518 583.63 3.34903L583.651 2.34924C590.286 2.4854 596.929 2.62972 603.577 2.78158L603.554 3.78132ZM563.676 2.96421C557.035 2.84456 550.405 2.73371 543.788 2.63229L543.803 1.6324C550.421 1.73384 557.052 1.8447 563.694 1.96438L563.676 2.96421ZM523.833 2.355C517.164 2.27213 510.512 2.19954 503.881 2.13786L503.89 1.13791C510.522 1.1996 517.175 1.27219 523.845 1.35508L523.833 2.355ZM484.051 1.98619C477.346 1.94626 470.666 1.91829 464.014 1.90292L464.016 0.902923C470.67 0.918292 477.351 0.946274 484.057 0.986206L484.051 1.98619ZM444.103 1.89537C437.451 1.90603 430.83 1.9302 424.244 1.96854L424.238 0.96856C430.826 0.930204 437.448 0.906036 444.101 0.895375L444.103 1.89537ZM404.196 2.13093C397.552 2.20031 390.947 2.28517 384.385 2.38623L384.369 1.38635C390.933 1.28526 397.54 1.20038 404.186 1.13099L404.196 2.13093ZM364.374 2.74827C357.676 2.88803 351.027 3.04593 344.433 3.2228L344.406 2.22316C351.002 2.04624 357.653 1.88828 364.353 1.74849L364.374 2.74827ZM324.663 3.81609C317.895 4.04151 311.189 4.28846 304.551 4.55787L304.511 3.55869C311.151 3.28918 317.859 3.04214 324.63 2.81665L324.663 3.81609ZM284.844 5.43437C278.067 5.76305 271.369 6.11714 264.754 6.49765L264.697 5.4993C271.315 5.11861 278.016 4.76437 284.795 4.43554L284.844 5.43437ZM244.952 7.73378C238.215 8.18867 231.575 8.6736 225.038 9.18974L224.959 8.19284C231.501 7.67638 238.144 7.19118 244.884 6.73605L244.952 7.73378ZM205.165 10.8854C198.449 11.5036 191.854 12.1583 185.388 12.851L185.282 11.8567C191.753 11.1634 198.352 10.5082 205.074 9.88965L205.165 10.8854ZM165.532 15.151C158.796 15.9933 152.221 16.8824 145.817 17.8201L145.672 16.8307C152.084 15.8919 158.666 15.0019 165.408 14.1587L165.532 15.151ZM126.184 20.9426C119.378 22.1173 112.801 23.3562 106.466 24.6619L106.264 23.6824C112.611 22.3744 119.198 21.1335 126.013 19.9571L126.184 20.9426ZM87.4715 28.9612C80.5956 30.6715 74.0758 32.4787 67.9329 34.3867L67.6362 33.4317C73.7996 31.5173 80.338 29.7052 87.2301 27.9908L87.4715 28.9612ZM49.0941 41.0404C42.4927 43.704 36.5168 46.5308 31.2054 49.5282L30.7139 48.6573C36.0697 45.6349 42.0859 42.7899 48.7199 40.113L49.0941 41.0404ZM15.1335 60.9661C12.6822 63.244 10.5498 65.5999 8.74634 68.0357L7.94264 67.4407C9.78683 64.9499 11.9617 62.5485 14.4528 60.2336L15.1335 60.9661ZM8.74634 68.0357C6.92459 70.4963 5.47357 73.031 4.35703 75.6244L3.43854 75.2289C4.58624 72.5632 6.07615 69.9617 7.94264 67.4407L8.74634 68.0357ZM1.41875 92.7361C1.69752 98.3692 3.0422 104.127 5.17269 109.882L4.23489 110.229C2.07744 104.401 0.704854 98.5421 0.41997 92.7855L1.41875 92.7361ZM12.8838 125.75C15.8592 130.767 19.2449 135.678 22.8355 140.389L22.0402 140.995C18.4307 136.259 15.0224 131.317 12.0237 126.26L12.8838 125.75ZM34.1794 154.01C38.3786 158.669 42.5702 162.964 46.4739 166.769L45.7759 167.485C41.8593 163.667 37.6524 159.357 33.4366 154.68L34.1794 154.01ZM59.5582 178.793C61.6404 180.594 63.3318 182.004 64.5021 182.962C65.0872 183.441 65.542 183.808 65.8502 184.054C66.0043 184.177 66.1217 184.271 66.2005 184.333C66.2399 184.364 66.2696 184.387 66.2893 184.403C66.2992 184.411 66.3066 184.417 66.3115 184.42C66.314 184.422 66.3158 184.424 66.317 184.425C66.3175 184.425 66.318 184.425 66.3183 184.426C66.3184 184.426 66.3185 184.426 66.3185 184.426C66.3186 184.426 66.3186 184.426 66.3186 184.426C66.3186 184.426 66.3186 184.426 66.0106 184.82C65.7026 185.214 65.7025 185.214 65.7025 185.214C65.7025 185.214 65.7024 185.214 65.7024 185.214C65.7023 185.213 65.7021 185.213 65.702 185.213C65.7016 185.213 65.7011 185.213 65.7004 185.212C65.699 185.211 65.6971 185.209 65.6944 185.207C65.6892 185.203 65.6815 185.197 65.6712 185.189C65.6508 185.173 65.6204 185.149 65.5803 185.117C65.5001 185.054 65.3813 184.96 65.2257 184.835C64.9146 184.587 64.4567 184.218 63.8685 183.736C62.6919 182.772 60.9936 181.357 58.9039 179.549L59.5582 178.793Z" fill="#05A6C5"/>
</svg>
