<svg width="1375" height="142" viewBox="0 0 1375 142" fill="none" xmlns="http://www.w3.org/2000/svg">
<path d="M9.13215 27.0058C9.40767 26.9871 9.61589 26.7486 9.59724 26.4731C9.57858 26.1976 9.34011 25.9894 9.0646 26.0081L9.13215 27.0058ZM29.153 24.6797C28.8775 24.6975 28.6686 24.9354 28.6864 25.2109C28.7043 25.4865 28.9421 25.6954 29.2177 25.6776L29.153 24.6797ZM49.2087 24.4051C49.4843 24.3879 49.6937 24.1505 49.6765 23.8749C49.6592 23.5993 49.4218 23.3898 49.1462 23.4071L49.2087 24.4051ZM69.6053 22.1466C69.3297 22.1633 69.1198 22.4003 69.1365 22.676C69.1532 22.9516 69.3902 23.1615 69.6659 23.1448L69.6053 22.1466ZM89.3637 21.9671C89.6394 21.9508 89.8497 21.7142 89.8334 21.4385C89.8172 21.1628 89.5806 20.9525 89.3049 20.9688L89.3637 21.9671ZM109.378 19.8025C109.102 19.8183 108.892 20.0546 108.907 20.3303C108.923 20.606 109.159 20.8167 109.435 20.8009L109.378 19.8025ZM129.42 19.6722C129.696 19.6568 129.907 19.4208 129.891 19.1451C129.876 18.8694 129.64 18.6583 129.364 18.6737L129.42 19.6722ZM149.443 17.5713C149.167 17.5862 148.956 17.8219 148.971 18.0976C148.986 18.3733 149.221 18.5848 149.497 18.5698L149.443 17.5713ZM169.335 17.5112C169.61 17.4967 169.822 17.2614 169.808 16.9856C169.793 16.7098 169.558 16.498 169.282 16.5126L169.335 17.5112ZM189.674 15.4555C189.398 15.4696 189.186 15.7046 189.2 15.9803C189.214 16.2561 189.449 16.4683 189.725 16.4542L189.674 15.4555ZM209.312 15.4683C209.588 15.4547 209.8 15.22 209.787 14.9442C209.773 14.6684 209.538 14.4559 209.263 14.4696L209.312 15.4683ZM229.562 13.4783C229.286 13.4916 229.073 13.7259 229.086 14.0017C229.1 14.2776 229.334 14.4904 229.61 14.4772L229.562 13.4783ZM249.479 13.5369C249.755 13.5241 249.968 13.2901 249.955 13.0142C249.942 12.7384 249.708 12.5252 249.432 12.538L249.479 13.5369ZM269.325 11.6266C269.049 11.639 268.835 11.8727 268.848 12.1486C268.86 12.4244 269.094 12.638 269.37 12.6256L269.325 11.6266ZM289.776 11.7218C290.052 11.7098 290.266 11.4764 290.254 11.2006C290.242 10.9247 290.008 10.7108 289.732 10.7228L289.776 11.7218ZM309.405 9.88176C309.129 9.89335 308.915 10.1264 308.927 10.4023C308.938 10.6782 309.171 10.8925 309.447 10.8809L309.405 9.88176ZM329.434 10.0572C329.71 10.0461 329.925 9.81333 329.913 9.53742C329.902 9.2615 329.669 9.04687 329.394 9.05802L329.434 10.0572ZM349.755 8.25122C349.479 8.26193 349.264 8.4943 349.275 8.77023C349.285 9.04617 349.518 9.26117 349.794 9.25046L349.755 8.25122ZM369.485 8.50168C369.761 8.4914 369.976 8.25937 369.966 7.98342C369.956 7.70747 369.723 7.4921 369.448 7.50237L369.485 8.50168ZM389.443 6.77422C389.167 6.78404 388.951 7.01572 388.961 7.29169C388.971 7.56766 389.202 7.78341 389.478 7.77359L389.443 6.77422ZM409.754 7.06896C410.03 7.05961 410.246 6.82829 410.237 6.55231C410.227 6.27632 409.996 6.06018 409.72 6.06954L409.754 7.06896ZM429.52 5.41487C429.244 5.42376 429.028 5.65471 429.037 5.93071C429.046 6.20671 429.277 6.42324 429.553 6.41435L429.52 5.41487ZM449.523 5.78825C449.799 5.77984 450.016 5.54926 450.007 5.27325C449.999 4.99723 449.768 4.7803 449.492 4.78871L449.523 5.78825ZM469.67 4.19175C469.394 4.19967 469.177 4.42985 469.185 4.70588C469.193 4.98191 469.423 5.19926 469.699 5.19134L469.67 4.19175ZM489.638 4.6375C489.914 4.63008 490.131 4.40029 490.124 4.12425C490.117 3.84821 489.887 3.63044 489.611 3.63786L489.638 4.6375ZM509.56 3.12049C509.284 3.12739 509.066 3.35677 509.073 3.63282C509.08 3.90888 509.309 4.12708 509.585 4.12017L509.56 3.12049ZM529.677 3.63728C529.953 3.63091 530.171 3.40195 530.165 3.12588C530.159 2.84981 529.93 2.63117 529.654 2.63754L529.677 3.63728ZM549.704 2.19489C549.428 2.20071 549.209 2.42923 549.214 2.70531C549.22 2.9814 549.449 3.20049 549.725 3.19466L549.704 2.19489ZM569.668 2.79441C569.944 2.78915 570.164 2.56107 570.158 2.28497C570.153 2.00888 569.925 1.78933 569.649 1.79459L569.668 2.79441ZM589.685 1.43389C589.409 1.43857 589.189 1.66619 589.194 1.94229C589.198 2.21839 589.426 2.43842 589.702 2.43375L589.685 1.43389ZM609.793 2.11509C610.07 2.11101 610.29 1.88387 610.286 1.60776C610.282 1.33165 610.055 1.11112 609.779 1.1152L609.793 2.11509ZM629.747 0.842602C629.471 0.84606 629.25 1.0727 629.253 1.34882C629.257 1.62495 629.483 1.84598 629.76 1.84252L629.747 0.842602ZM649.769 1.61501C650.045 1.61219 650.267 1.38606 650.264 1.10994C650.261 0.833809 650.035 0.612246 649.759 0.615064L649.769 1.61501ZM669.799 0.434648C669.523 0.436799 669.301 0.662394 669.303 0.938528C669.306 1.21466 669.531 1.43677 669.807 1.43462L669.799 0.434648ZM689.839 1.30352C690.115 1.30206 690.337 1.07702 690.336 0.800883C690.335 0.524744 690.109 0.302073 689.833 0.303532L689.839 1.30352ZM709.857 0.223599C709.581 0.224339 709.357 0.448796 709.358 0.724938C709.359 1.00108 709.583 1.22434 709.86 1.22359L709.857 0.223599ZM729.863 1.19684C730.139 1.19685 730.363 0.972998 730.363 0.696855C730.363 0.420713 730.139 0.19685 729.863 0.196842L729.863 1.19684ZM749.882 0.225452C749.606 0.224664 749.382 0.447882 749.381 0.724024C749.38 1.00016 749.603 1.22466 749.88 1.22545L749.882 0.225452ZM769.948 1.31218C770.224 1.31379 770.449 1.09124 770.451 0.815099C770.453 0.538962 770.23 0.313807 769.954 0.312201L769.948 1.31218ZM789.962 0.459195C789.686 0.456737 789.46 0.678593 789.457 0.954724C789.455 1.23086 789.677 1.4567 789.953 1.45916L789.962 0.459195ZM809.879 1.66847C810.155 1.67182 810.382 1.45069 810.385 1.17457C810.388 0.898449 810.167 0.671892 809.891 0.668543L809.879 1.66847ZM830.027 0.947015C829.751 0.942719 829.523 1.16307 829.519 1.43918C829.515 1.71529 829.735 1.9426 830.011 1.94689L830.027 0.947015ZM850.049 2.2943C850.325 2.29959 850.553 2.08006 850.558 1.80397C850.563 1.52788 850.344 1.29977 850.068 1.29449L850.049 2.2943ZM869.979 1.71293C869.703 1.7066 869.474 1.92527 869.468 2.20134C869.461 2.47741 869.68 2.70634 869.956 2.71267L869.979 1.71293ZM890.032 3.21265C890.308 3.22009 890.538 3.00234 890.545 2.7263C890.553 2.45025 890.335 2.22045 890.059 2.21302L890.032 3.21265ZM910.158 2.79678C909.882 2.78817 909.651 3.00494 909.642 3.28095C909.634 3.55695 909.85 3.78768 910.126 3.7963L910.158 2.79678ZM930.032 4.46163C930.308 4.47148 930.54 4.25575 930.55 3.97978C930.56 3.70381 930.344 3.47211 930.068 3.46226L930.032 4.46163ZM950.047 4.22295C949.771 4.21177 949.538 4.42639 949.527 4.7023C949.516 4.97822 949.73 5.21095 950.006 5.22213L950.047 4.22295ZM970.169 6.09067C970.445 6.10328 970.679 5.88988 970.692 5.61402C970.704 5.33817 970.491 5.10432 970.215 5.09171L970.169 6.09067ZM990.124 6.05593C989.848 6.0418 989.613 6.25391 989.599 6.52969C989.585 6.80547 989.797 7.04049 990.073 7.05462L990.124 6.05593ZM1009.94 8.13075C1010.22 8.14651 1010.46 7.93579 1010.47 7.6601C1010.49 7.3844 1010.28 7.14813 1010 7.13238L1009.94 8.13075ZM1030.23 8.35378C1029.95 8.33622 1029.71 8.54539 1029.7 8.82098C1029.68 9.09656 1029.89 9.3342 1030.16 9.35175L1030.23 8.35378ZM1050.03 10.6862C1050.31 10.7056 1050.55 10.4981 1050.57 10.2227C1050.59 9.94722 1050.38 9.70813 1050.11 9.68865L1050.03 10.6862ZM1069.94 11.1661C1069.67 11.1445 1069.43 11.3502 1069.41 11.6255C1069.38 11.9008 1069.59 12.1415 1069.87 12.1631L1069.94 11.1661ZM1090.09 13.8329C1090.36 13.8568 1090.6 13.6532 1090.63 13.3781C1090.65 13.103 1090.45 12.8606 1090.17 12.8367L1090.09 13.8329ZM1109.94 14.6452C1109.66 14.6187 1109.42 14.8201 1109.39 15.095C1109.36 15.3698 1109.56 15.6141 1109.84 15.6406L1109.94 14.6452ZM1129.77 17.6611C1130.04 17.6904 1130.29 17.4916 1130.32 17.217C1130.35 16.9424 1130.15 16.6961 1129.87 16.6668L1129.77 17.6611ZM1149.97 18.9293C1149.7 18.8967 1149.45 19.0926 1149.42 19.3668C1149.38 19.6411 1149.58 19.8897 1149.85 19.9223L1149.97 18.9293ZM1169.3 22.3554C1169.58 22.3915 1169.83 22.1988 1169.86 21.925C1169.9 21.6513 1169.71 21.4001 1169.43 21.364L1169.3 22.3554ZM1189.68 24.189C1189.4 24.1486 1189.15 24.3374 1189.11 24.6106C1189.07 24.8837 1189.26 25.1379 1189.53 25.1782L1189.68 24.189ZM1209.17 28.2506C1209.45 28.2957 1209.7 28.1114 1209.75 27.839C1209.79 27.5666 1209.61 27.3092 1209.34 27.264L1209.17 28.2506ZM1229.07 30.7396C1228.8 30.6888 1228.53 30.8676 1228.48 31.139C1228.43 31.4105 1228.61 31.6717 1228.88 31.7226L1229.07 30.7396ZM1248.63 35.6735C1248.9 35.7312 1249.16 35.5591 1249.22 35.2891C1249.28 35.0191 1249.11 34.7533 1248.84 34.6956L1248.63 35.6735ZM1268.17 39.1329C1267.9 39.0667 1267.63 39.2305 1267.56 39.4986C1267.5 39.7667 1267.66 40.0377 1267.93 40.1038L1268.17 39.1329ZM1287.45 45.3239C1287.72 45.4009 1288 45.2483 1288.07 44.9831C1288.15 44.7179 1288 44.4405 1287.73 44.3635L1287.45 45.3239ZM1306.79 50.4278C1306.53 50.3366 1306.25 50.474 1306.16 50.7347C1306.06 50.9954 1306.2 51.2806 1306.46 51.3717L1306.79 50.4278ZM1324.84 58.5401C1325.09 58.6507 1325.39 58.5353 1325.5 58.2823C1325.61 58.0293 1325.49 57.7345 1325.24 57.6239L1324.84 58.5401ZM1343.48 66.8492C1343.25 66.7086 1342.94 66.7873 1342.8 67.025C1342.66 67.2627 1342.74 67.5693 1342.97 67.7099L1343.48 66.8492ZM1359.02 79.3672C1359.23 79.5542 1359.54 79.541 1359.73 79.3379C1359.92 79.1347 1359.9 78.8184 1359.7 78.6314L1359.02 79.3672ZM1371.71 94.4576C1371.59 94.2067 1371.3 94.0967 1371.04 94.212C1370.79 94.3273 1370.68 94.6241 1370.8 94.8751L1371.71 94.4576ZM1373.69 113.768C1373.66 114.042 1373.85 114.292 1374.13 114.327C1374.4 114.362 1374.65 114.168 1374.69 113.894L1373.69 113.768ZM1368.08 132.512C1368.22 132.272 1368.13 131.966 1367.89 131.83C1367.65 131.694 1367.35 131.778 1367.21 132.018L1368.08 132.512ZM0.112815 27.1253C0.148206 27.6241 0.148216 27.6241 0.148238 27.6241C0.148262 27.6241 0.148295 27.6241 0.148342 27.6241C0.148434 27.6241 0.148573 27.6241 0.14876 27.6241C0.149134 27.624 0.149696 27.624 0.150446 27.6239C0.151947 27.6238 0.154202 27.6237 0.15721 27.6235C0.163226 27.623 0.172254 27.6224 0.184284 27.6215C0.208344 27.6198 0.244415 27.6173 0.292424 27.6139C0.388443 27.6071 0.532216 27.597 0.72317 27.5836C1.10508 27.5568 1.67572 27.5169 2.43049 27.4645C3.94004 27.3598 6.18616 27.2052 9.13215 27.0058L9.0646 26.0081C6.11804 26.2076 3.87138 26.3622 2.36129 26.4669C1.60624 26.5193 1.03534 26.5592 0.653167 26.5861C0.462081 26.5995 0.318177 26.6096 0.222029 26.6164C0.173955 26.6198 0.13782 26.6223 0.113695 26.624C0.101632 26.6249 0.0925727 26.6255 0.0865246 26.626C0.0835005 26.6262 0.0812293 26.6263 0.0797122 26.6264C0.0789536 26.6265 0.0783835 26.6265 0.078002 26.6266C0.0778113 26.6266 0.0776678 26.6266 0.0775714 26.6266C0.0775232 26.6266 0.0774863 26.6266 0.0774622 26.6266C0.0774371 26.6266 0.0774238 26.6266 0.112815 27.1253ZM29.2177 25.6776C35.0732 25.2983 41.7548 24.8717 49.2087 24.4051L49.1462 23.4071C41.6916 23.8737 35.0092 24.3004 29.153 24.6797L29.2177 25.6776ZM69.6659 23.1448C75.8701 22.7684 82.4425 22.375 89.3637 21.9671L89.3049 20.9688C82.3831 21.3768 75.8101 21.7702 69.6053 22.1466L69.6659 23.1448ZM109.435 20.8009C115.861 20.4328 122.527 20.056 129.42 19.6722L129.364 18.6737C122.47 19.0576 115.804 19.4344 109.378 19.8025L109.435 20.8009ZM149.497 18.5698C155.944 18.2209 162.559 17.8676 169.335 17.5112L169.282 16.5126C162.506 16.869 155.89 17.2223 149.443 17.5713L149.497 18.5698ZM189.725 16.4542C196.131 16.127 202.663 15.7981 209.312 15.4683L209.263 14.4696C202.613 14.7994 196.081 15.1283 189.674 15.4555L189.725 16.4542ZM229.61 14.4772C236.134 14.1636 242.758 13.8499 249.479 13.5369L249.432 12.538C242.711 12.851 236.086 13.1647 229.562 13.4783L229.61 14.4772ZM269.37 12.6256C276.087 12.3228 282.891 12.0214 289.776 11.7218L289.732 10.7228C282.847 11.0223 276.043 11.3238 269.325 11.6266L269.37 12.6256ZM309.447 10.8809C316.043 10.6039 322.707 10.3292 329.434 10.0572L329.394 9.05802C322.666 9.33001 316.002 9.60477 309.405 9.88176L309.447 10.8809ZM349.794 9.25046C356.305 8.99773 362.869 8.74798 369.485 8.50168L369.448 7.50237C362.832 7.74869 356.266 7.99846 349.755 8.25122L349.794 9.25046ZM389.478 7.77359C396.191 7.53465 402.951 7.29962 409.754 7.06896L409.72 6.06954C402.916 6.30021 396.156 6.53526 389.443 6.77422L389.478 7.77359ZM429.553 6.41435C436.173 6.20106 442.831 5.99222 449.523 5.78825L449.492 4.78871C442.8 4.9927 436.141 5.20156 429.52 5.41487L429.553 6.41435ZM469.699 5.19134C476.316 5.00154 482.963 4.8168 489.638 4.6375L489.611 3.63786C482.936 3.81717 476.288 4.00193 469.67 4.19175L469.699 5.19134ZM509.585 4.12017C516.259 3.95334 522.957 3.79225 529.677 3.63728L529.654 2.63754C522.934 2.79253 516.235 2.95364 509.56 3.12049L509.585 4.12017ZM549.725 3.19466C556.356 3.05488 563.004 2.92135 569.668 2.79441L569.649 1.79459C562.984 1.92154 556.335 2.05509 549.704 2.19489L549.725 3.19466ZM589.702 2.43375C596.387 2.32047 603.085 2.21413 609.793 2.11509L609.779 1.1152C603.07 1.21425 596.371 1.3206 589.685 1.43389L589.702 2.43375ZM629.76 1.84252C636.423 1.75906 643.094 1.68311 649.769 1.61501L649.759 0.615064C643.083 0.683171 636.411 0.759132 629.747 0.842602L629.76 1.84252ZM669.807 1.43462C676.483 1.38262 683.161 1.33881 689.839 1.30352L689.833 0.303532C683.155 0.338825 676.476 0.382646 669.799 0.434648L669.807 1.43462ZM709.86 1.22359C716.531 1.2057 723.2 1.19667 729.863 1.19684L729.863 0.196842C723.199 0.196669 716.529 0.205702 709.857 0.223599L709.86 1.22359ZM749.88 1.22545C756.578 1.24455 763.268 1.27335 769.948 1.31218L769.954 0.312201C763.273 0.273361 756.582 0.244562 749.882 0.225452L749.88 1.22545ZM789.953 1.45916C796.609 1.51842 803.252 1.58807 809.879 1.66847L809.891 0.668543C803.263 0.588134 796.619 0.518469 789.962 0.459195L789.953 1.45916ZM830.011 1.94689C836.71 2.05112 843.39 2.1668 850.049 2.2943L850.068 1.29449C843.408 1.16696 836.727 1.05125 830.027 0.947015L830.011 1.94689ZM869.956 2.71267C876.674 2.86661 883.367 3.03315 890.032 3.21265L890.059 2.21302C883.393 2.03347 876.698 1.86691 869.979 1.71293L869.956 2.71267ZM910.126 3.7963C916.794 4.00432 923.43 4.22597 930.032 4.46163L930.068 3.46226C923.464 3.22655 916.827 3.00486 910.158 2.79678L910.126 3.7963ZM950.006 5.22213C956.768 5.49604 963.49 5.7854 970.169 6.09067L970.215 5.09171C963.534 4.78636 956.811 4.49692 950.047 4.22295L950.006 5.22213ZM990.073 7.05462C996.745 7.39642 1003.37 7.75497 1009.94 8.13075L1010 7.13238C1003.43 6.75649 996.798 6.39782 990.124 6.05593L990.073 7.05462ZM1030.16 9.35175C1036.85 9.77749 1043.47 10.2221 1050.03 10.6862L1050.11 9.68865C1043.54 9.22444 1036.91 8.77965 1030.23 8.35378L1030.16 9.35175ZM1069.87 12.1631C1076.68 12.6971 1083.42 13.2535 1090.09 13.8329L1090.17 12.8367C1083.51 12.257 1076.76 11.7004 1069.94 11.1661L1069.87 12.1631ZM1109.84 15.6406C1116.57 16.2886 1123.22 16.9619 1129.77 17.6611L1129.87 16.6668C1123.32 15.9672 1116.67 15.2935 1109.94 14.6452L1109.84 15.6406ZM1149.85 19.9223C1156.44 20.7044 1162.93 21.5152 1169.3 22.3554L1169.43 21.364C1163.05 20.5232 1156.57 19.7119 1149.97 18.9293L1149.85 19.9223ZM1189.53 25.1782C1196.22 26.166 1202.77 27.1898 1209.17 28.2506L1209.34 27.264C1202.93 26.2022 1196.37 25.1775 1189.68 24.189L1189.53 25.1782ZM1228.88 31.7226C1235.66 32.992 1242.25 34.3085 1248.63 35.6735L1248.84 34.6956C1242.45 33.3287 1235.85 32.0105 1229.07 30.7396L1228.88 31.7226ZM1267.93 40.1038C1274.72 41.7784 1281.23 43.5178 1287.45 45.3239L1287.73 44.3635C1281.5 42.5533 1274.97 40.8104 1268.17 39.1329L1267.93 40.1038ZM1306.46 51.3717C1313.02 53.6655 1319.15 56.054 1324.84 58.5401L1325.24 57.6239C1319.53 55.1263 1313.37 52.7288 1306.79 50.4278L1306.46 51.3717ZM1342.97 67.7099C1349.23 71.4098 1354.6 75.2935 1359.02 79.3672L1359.7 78.6314C1355.21 74.5006 1349.78 70.5766 1343.48 66.8492L1342.97 67.7099ZM1370.8 94.8751C1373.53 100.815 1374.54 107.103 1373.69 113.768L1374.69 113.894C1375.55 107.041 1374.51 100.565 1371.71 94.4576L1370.8 94.8751ZM1367.21 132.018C1365.55 134.944 1363.58 137.934 1361.28 140.99L1362.08 141.591C1364.4 138.505 1366.4 135.479 1368.08 132.512L1367.21 132.018Z" fill="#00B6CB"/>
</svg>
