<svg width="1582" height="168" viewBox="0 0 1582 168" fill="none" xmlns="http://www.w3.org/2000/svg">
<path d="M8.72309 106.332L9.15779 106.085L8.72309 106.332ZM1572.36 138.72C1572.09 138.66 1571.83 138.831 1571.77 139.101C1571.71 139.371 1571.88 139.637 1572.15 139.696L1572.36 138.72ZM1552.39 136.875C1552.66 136.901 1552.91 136.699 1552.93 136.424C1552.96 136.149 1552.76 135.905 1552.48 135.879L1552.39 136.875ZM1533.02 134.518C1532.75 134.505 1532.51 134.717 1532.5 134.993C1532.48 135.268 1532.7 135.503 1532.97 135.517L1533.02 134.518ZM1513.12 134.78C1513.4 134.787 1513.63 134.569 1513.64 134.293C1513.64 134.017 1513.43 133.788 1513.15 133.781L1513.12 134.78ZM1492.82 133.431C1492.55 133.429 1492.32 133.65 1492.32 133.926C1492.31 134.203 1492.54 134.429 1492.81 134.431L1492.82 133.431ZM1473.53 134.356C1473.8 134.355 1474.03 134.131 1474.03 133.855C1474.03 133.579 1473.8 133.355 1473.53 133.356L1473.53 134.356ZM1453.05 133.473C1452.77 133.476 1452.55 133.702 1452.55 133.978C1452.56 134.254 1452.78 134.476 1453.06 134.473L1453.05 133.473ZM1433.84 134.725C1434.12 134.72 1434.34 134.493 1434.33 134.217C1434.33 133.941 1434.1 133.72 1433.82 133.725L1433.84 134.725ZM1413.61 134.105C1413.33 134.111 1413.11 134.339 1413.12 134.616C1413.12 134.892 1413.35 135.111 1413.63 135.105L1413.61 134.105ZM1394.1 135.563C1394.37 135.556 1394.59 135.326 1394.59 135.05C1394.58 134.774 1394.35 134.556 1394.07 134.563L1394.1 135.563ZM1374.21 135.104C1373.93 135.112 1373.71 135.343 1373.72 135.619C1373.73 135.895 1373.96 136.112 1374.23 136.104L1374.21 135.104ZM1354.22 136.712C1354.49 136.704 1354.71 136.473 1354.7 136.197C1354.69 135.921 1354.46 135.704 1354.19 135.713L1354.22 136.712ZM1334.66 136.358C1334.38 136.367 1334.16 136.598 1334.17 136.874C1334.18 137.15 1334.41 137.367 1334.69 137.357L1334.66 136.358ZM1314.58 138.065C1314.86 138.055 1315.08 137.823 1315.07 137.548C1315.06 137.272 1314.82 137.056 1314.55 137.066L1314.58 138.065ZM1294.87 137.796C1294.59 137.806 1294.38 138.039 1294.39 138.314C1294.4 138.59 1294.63 138.806 1294.91 138.795L1294.87 137.796ZM1275.21 139.557C1275.48 139.546 1275.7 139.313 1275.69 139.037C1275.67 138.762 1275.44 138.547 1275.17 138.558L1275.21 139.557ZM1255.03 139.363C1254.75 139.374 1254.54 139.607 1254.55 139.883C1254.56 140.159 1254.79 140.373 1255.07 140.362L1255.03 139.363ZM1235.49 141.167C1235.77 141.155 1235.98 140.922 1235.97 140.646C1235.96 140.37 1235.72 140.156 1235.45 140.168L1235.49 141.167ZM1215.7 140.997C1215.43 141.009 1215.21 141.242 1215.22 141.518C1215.23 141.794 1215.47 142.008 1215.74 141.996L1215.7 140.997ZM1195.66 142.856C1195.94 142.844 1196.15 142.61 1196.14 142.334C1196.13 142.059 1195.9 141.845 1195.62 141.857L1195.66 142.856ZM1175.99 142.708C1175.72 142.72 1175.5 142.954 1175.51 143.23C1175.53 143.505 1175.76 143.719 1176.04 143.707L1175.99 142.708ZM1156.3 144.573C1156.58 144.561 1156.79 144.328 1156.78 144.052C1156.77 143.776 1156.53 143.562 1156.26 143.574L1156.3 144.573ZM1136.27 144.459C1135.99 144.471 1135.78 144.704 1135.79 144.98C1135.8 145.256 1136.03 145.47 1136.31 145.458L1136.27 144.459ZM1116.56 146.336C1116.84 146.324 1117.05 146.09 1117.04 145.814C1117.03 145.538 1116.79 145.325 1116.52 145.337L1116.56 146.336ZM1096.81 146.217C1096.54 146.229 1096.33 146.462 1096.34 146.738C1096.35 147.014 1096.58 147.228 1096.86 147.216L1096.81 146.217ZM1076.96 148.105C1077.23 148.093 1077.45 147.859 1077.43 147.583C1077.42 147.307 1077.19 147.094 1076.91 147.106L1076.96 148.105ZM1057.04 147.993C1056.76 148.006 1056.55 148.239 1056.56 148.515C1056.57 148.791 1056.81 149.005 1057.08 148.992L1057.04 147.993ZM1037.4 149.869C1037.68 149.856 1037.89 149.623 1037.88 149.347C1037.87 149.071 1037.63 148.857 1037.36 148.87L1037.4 149.869ZM1017.53 149.749C1017.25 149.761 1017.04 149.994 1017.05 150.27C1017.06 150.546 1017.3 150.76 1017.57 150.748L1017.53 149.749ZM997.609 151.627C997.885 151.615 998.099 151.381 998.087 151.105C998.075 150.83 997.841 150.616 997.565 150.628L997.609 151.627ZM977.889 151.487C977.613 151.499 977.399 151.733 977.411 152.009C977.423 152.284 977.656 152.498 977.932 152.486L977.889 151.487ZM958.152 153.342C958.428 153.33 958.642 153.097 958.63 152.821C958.618 152.545 958.385 152.331 958.109 152.343L958.152 153.342ZM938.234 153.193C937.958 153.204 937.744 153.438 937.756 153.713C937.767 153.989 938 154.203 938.276 154.192L938.234 153.193ZM918.461 155.027C918.737 155.016 918.952 154.783 918.94 154.507C918.928 154.231 918.695 154.017 918.42 154.028L918.461 155.027ZM898.657 154.849C898.381 154.861 898.167 155.093 898.178 155.369C898.19 155.645 898.423 155.86 898.699 155.848L898.657 154.849ZM878.877 156.657C879.153 156.646 879.368 156.413 879.357 156.138C879.345 155.862 879.113 155.647 878.837 155.658L878.877 156.657ZM858.974 156.453C858.698 156.464 858.483 156.697 858.494 156.973C858.505 157.249 858.738 157.463 859.014 157.452L858.974 156.453ZM839.234 158.227C839.51 158.217 839.725 157.984 839.714 157.708C839.704 157.432 839.471 157.217 839.195 157.228L839.234 158.227ZM819.392 157.985C819.116 157.996 818.901 158.228 818.912 158.504C818.922 158.78 819.154 158.995 819.43 158.984L819.392 157.985ZM799.613 159.722C799.889 159.712 800.104 159.48 800.094 159.204C800.084 158.928 799.852 158.713 799.576 158.723L799.613 159.722ZM779.75 159.44C779.474 159.449 779.258 159.681 779.268 159.957C779.278 160.233 779.51 160.449 779.786 160.439L779.75 159.44ZM759.961 161.132C760.237 161.123 760.453 160.892 760.444 160.616C760.434 160.34 760.203 160.124 759.927 160.133L759.961 161.132ZM740.124 160.801C739.848 160.81 739.631 161.042 739.64 161.317C739.65 161.593 739.881 161.81 740.157 161.801L740.124 160.801ZM720.382 162.442C720.658 162.433 720.875 162.202 720.866 161.926C720.858 161.65 720.627 161.433 720.351 161.442L720.382 162.442ZM700.469 162.058C700.193 162.067 699.976 162.297 699.985 162.573C699.993 162.849 700.223 163.066 700.499 163.058L700.469 162.058ZM680.671 163.642C680.947 163.634 681.164 163.404 681.156 163.128C681.148 162.852 680.918 162.635 680.642 162.643L680.671 163.642ZM660.88 163.193C660.604 163.201 660.386 163.431 660.394 163.707C660.401 163.983 660.631 164.201 660.907 164.193L660.88 163.193ZM641.07 164.712C641.346 164.705 641.564 164.475 641.557 164.199C641.55 163.923 641.321 163.705 641.045 163.712L641.07 164.712ZM621.158 164.196C620.882 164.202 620.663 164.432 620.67 164.708C620.676 164.984 620.905 165.202 621.181 165.196L621.158 164.196ZM601.395 165.639C601.671 165.633 601.89 165.404 601.884 165.128C601.878 164.852 601.65 164.633 601.374 164.639L601.395 165.639ZM581.672 165.039C581.396 165.045 581.176 165.273 581.181 165.549C581.187 165.825 581.415 166.044 581.691 166.039L581.672 165.039ZM561.709 166.401C561.985 166.396 562.205 166.169 562.2 165.893C562.195 165.617 561.968 165.397 561.692 165.401L561.709 166.401ZM541.857 165.714C541.581 165.718 541.36 165.945 541.364 166.221C541.368 166.497 541.595 166.718 541.871 166.714L541.857 165.714ZM522.192 166.974C522.468 166.971 522.689 166.745 522.686 166.468C522.683 166.192 522.456 165.971 522.18 165.974L522.192 166.974ZM502.252 166.185C501.976 166.188 501.754 166.414 501.757 166.69C501.759 166.966 501.985 167.188 502.261 167.185L502.252 166.185ZM482.352 167.338C482.628 167.337 482.851 167.111 482.849 166.835C482.847 166.559 482.622 166.337 482.346 166.338L482.352 167.338ZM462.648 166.429C462.372 166.43 462.149 166.655 462.15 166.931C462.151 167.207 462.375 167.43 462.651 167.429L462.648 166.429ZM442.832 167.455C443.108 167.456 443.332 167.232 443.332 166.956C443.332 166.68 443.109 166.456 442.833 166.455L442.832 167.455ZM422.845 166.41C422.569 166.409 422.344 166.632 422.343 166.908C422.342 167.184 422.565 167.409 422.841 167.41L422.845 166.41ZM403.121 167.29C403.397 167.292 403.623 167.07 403.625 166.794C403.627 166.518 403.405 166.292 403.129 166.29L403.121 167.29ZM383.409 166.088C383.133 166.085 382.906 166.306 382.903 166.582C382.899 166.858 383.12 167.085 383.396 167.088L383.409 166.088ZM363.334 166.792C363.61 166.797 363.838 166.577 363.843 166.3C363.847 166.024 363.627 165.797 363.351 165.792L363.334 166.792ZM343.646 165.403C343.37 165.397 343.141 165.616 343.135 165.892C343.129 166.168 343.347 166.397 343.623 166.403L343.646 165.403ZM323.917 165.909C324.193 165.917 324.423 165.699 324.431 165.423C324.439 165.147 324.221 164.917 323.945 164.91L323.917 165.909ZM303.867 164.287C303.591 164.277 303.359 164.493 303.35 164.769C303.34 165.045 303.557 165.276 303.833 165.286L303.867 164.287ZM284.206 164.548C284.482 164.559 284.715 164.345 284.726 164.069C284.737 163.793 284.523 163.56 284.247 163.549L284.206 164.548ZM264.418 162.659C264.142 162.646 263.907 162.858 263.894 163.134C263.88 163.41 264.093 163.644 264.369 163.658L264.418 162.659ZM244.381 162.596C244.657 162.612 244.893 162.402 244.909 162.126C244.925 161.85 244.715 161.614 244.439 161.598L244.381 162.596ZM225.066 160.391C224.791 160.373 224.553 160.581 224.534 160.856C224.516 161.132 224.724 161.37 224.999 161.389L225.066 160.391ZM204.812 159.918C205.087 159.94 205.328 159.734 205.349 159.459C205.371 159.183 205.165 158.943 204.89 158.921L204.812 159.918ZM185.271 157.25C184.996 157.225 184.753 157.428 184.728 157.703C184.702 157.978 184.905 158.221 185.18 158.246L185.271 157.25ZM165.442 156.284C165.717 156.314 165.963 156.115 165.993 155.84C166.022 155.566 165.824 155.319 165.549 155.29L165.442 156.284ZM145.736 152.981C145.462 152.946 145.212 153.14 145.177 153.414C145.142 153.688 145.336 153.938 145.61 153.973L145.736 152.981ZM126.174 151.304C126.447 151.345 126.702 151.156 126.742 150.883C126.783 150.61 126.595 150.356 126.322 150.315L126.174 151.304ZM106.531 147.08C106.26 147.032 106 147.213 105.951 147.484C105.903 147.756 106.083 148.016 106.355 148.065L106.531 147.08ZM86.9838 144.236C87.2536 144.295 87.52 144.124 87.5789 143.855C87.6378 143.585 87.4668 143.318 87.197 143.259L86.9838 144.236ZM68.0844 138.591C67.8181 138.518 67.543 138.675 67.4701 138.941C67.3971 139.208 67.5539 139.483 67.8202 139.556L68.0844 138.591ZM48.5571 133.493C48.8167 133.588 49.1036 133.454 49.1979 133.194C49.2923 132.935 49.1584 132.648 48.899 132.553L48.5571 133.493ZM30.8593 124.692C30.6153 124.562 30.3127 124.655 30.1833 124.899C30.0539 125.143 30.1468 125.446 30.3908 125.575L30.8593 124.692ZM14.1958 114.158C14.3917 114.353 14.7082 114.352 14.9029 114.156C15.0976 113.96 15.0966 113.644 14.9009 113.449L14.1958 114.158ZM4.90984 97.3445C4.80707 97.0882 4.516 96.9637 4.25966 97.0664C4.00332 97.1691 3.87887 97.4602 3.98161 97.7165L4.90984 97.3445ZM0.262923 78.4312C0.253613 78.7071 0.469818 78.9384 0.745826 78.9477C1.02183 78.957 1.253 78.7408 1.26231 78.4648L0.262923 78.4312ZM6.71742 60.239C6.85855 60.0017 6.78053 59.6949 6.54315 59.5537C6.30581 59.4127 5.99902 59.4907 5.85789 59.7281L6.71742 60.239ZM18.8462 45.0209C18.6337 45.1971 18.6043 45.5123 18.7806 45.7249C18.9569 45.9374 19.2722 45.9668 19.4847 45.7905L18.8462 45.0209ZM35.6199 35.0434C35.8622 34.9111 35.9513 34.6072 35.8189 34.3649C35.6865 34.1226 35.3827 34.0335 35.1403 34.166L35.6199 35.0434ZM52.8948 25.8696C52.6385 25.9727 52.5145 26.2639 52.6176 26.5201C52.7207 26.7762 53.012 26.9003 53.2681 26.7973L52.8948 25.8696ZM71.6489 20.2822C71.9124 20.1999 72.0592 19.9194 71.9768 19.6558C71.8943 19.3922 71.6138 19.2454 71.3503 19.3279L71.6489 20.2822ZM90.1941 14.0565C89.9263 14.1234 89.7634 14.3948 89.8303 14.6627C89.8973 14.9307 90.1687 15.0935 90.4367 15.0266L90.1941 14.0565ZM109.469 10.743C109.74 10.6883 109.915 10.4245 109.86 10.1538C109.806 9.88317 109.542 9.70813 109.271 9.76285L109.469 10.743ZM128.521 6.26124C128.248 6.30571 128.063 6.56255 128.107 6.83512C128.152 7.10769 128.409 7.29269 128.681 7.24827L128.521 6.26124ZM148.038 4.43497C148.312 4.39986 148.505 4.14928 148.47 3.87538C148.435 3.60148 148.184 3.40791 147.91 3.44307L148.038 4.43497ZM167.293 1.28596C167.018 1.3116 166.816 1.55532 166.842 1.83032C166.867 2.10525 167.111 2.30731 167.386 2.28162L167.293 1.28596ZM1581.37 141.517C1579.12 140.466 1576.1 139.539 1572.36 138.72L1572.15 139.696C1575.85 140.508 1578.79 141.417 1580.95 142.423L1581.37 141.517ZM1552.48 135.879C1546.68 135.332 1540.19 134.88 1533.02 134.518L1532.97 135.517C1540.12 135.878 1546.61 136.329 1552.39 136.875L1552.48 135.879ZM1513.15 133.781C1506.75 133.615 1499.96 133.5 1492.82 133.431L1492.81 134.431C1499.95 134.5 1506.73 134.615 1513.12 134.78L1513.15 133.781ZM1473.53 133.356C1466.95 133.364 1460.12 133.404 1453.05 133.473L1453.06 134.473C1460.12 134.404 1466.95 134.364 1473.53 134.356L1473.53 133.356ZM1433.82 133.725C1427.26 133.83 1420.52 133.958 1413.61 134.105L1413.63 135.105C1420.54 134.957 1427.28 134.83 1433.84 134.725L1433.82 133.725ZM1394.07 134.563C1387.58 134.729 1380.95 134.909 1374.21 135.104L1374.23 136.104C1380.98 135.909 1387.61 135.728 1394.1 135.563L1394.07 134.563ZM1354.19 135.713C1347.77 135.917 1341.26 136.132 1334.66 136.358L1334.69 137.357C1341.3 137.131 1347.81 136.916 1354.22 136.712L1354.19 135.713ZM1314.55 137.066C1308.07 137.301 1301.51 137.544 1294.87 137.796L1294.91 138.795C1301.55 138.543 1308.11 138.3 1314.58 138.065L1314.55 137.066ZM1275.17 138.558C1268.52 138.819 1261.81 139.088 1255.03 139.363L1255.07 140.362C1261.85 140.087 1268.56 139.818 1275.21 139.557L1275.17 138.558ZM1235.45 140.168C1228.92 140.439 1222.34 140.716 1215.7 140.997L1215.74 141.996C1222.38 141.715 1228.97 141.438 1235.49 141.167L1235.45 140.168ZM1195.62 141.857C1189.12 142.137 1182.58 142.421 1175.99 142.708L1176.04 143.707C1182.63 143.42 1189.17 143.136 1195.66 142.856L1195.62 141.857ZM1156.26 143.574C1149.64 143.866 1142.97 144.161 1136.27 144.459L1136.31 145.458C1143.02 145.16 1149.68 144.865 1156.3 144.573L1156.26 143.574ZM1116.52 145.337C1109.99 145.628 1103.42 145.922 1096.81 146.217L1096.86 147.216C1103.46 146.921 1110.03 146.627 1116.56 146.336L1116.52 145.337ZM1076.91 147.106C1070.32 147.401 1063.69 147.697 1057.04 147.993L1057.08 148.992C1063.74 148.696 1070.36 148.4 1076.96 148.105L1076.91 147.106ZM1037.36 148.87C1030.77 149.162 1024.16 149.455 1017.53 149.749L1017.57 150.748C1024.21 150.454 1030.82 150.161 1037.4 149.869L1037.36 148.87ZM997.565 150.628C991.026 150.915 984.466 151.201 977.889 151.487L977.932 152.486C984.51 152.2 991.069 151.914 997.609 151.627L997.565 150.628ZM958.109 152.343C951.499 152.627 944.873 152.911 938.234 153.193L938.276 154.192C944.916 153.91 951.542 153.626 958.152 153.342L958.109 152.343ZM918.42 154.028C911.843 154.304 905.255 154.577 898.657 154.849L898.699 155.848C905.297 155.577 911.885 155.303 918.461 155.027L918.42 154.028ZM878.837 155.658C872.223 155.926 865.602 156.191 858.974 156.453L859.014 157.452C865.641 157.19 872.263 156.925 878.877 156.657L878.837 155.658ZM839.195 157.228C832.598 157.483 825.996 157.736 819.392 157.985L819.43 158.984C826.034 158.735 832.636 158.483 839.234 158.227L839.195 157.228ZM799.576 158.723C792.967 158.966 786.358 159.205 779.75 159.44L779.786 160.439C786.394 160.204 793.003 159.965 799.613 159.722L799.576 158.723ZM759.927 160.133C753.322 160.36 746.72 160.583 740.124 160.801L740.157 161.801C746.754 161.582 753.356 161.36 759.961 161.132L759.927 160.133ZM720.351 161.442C713.716 161.653 707.088 161.858 700.469 162.058L700.499 163.058C707.119 162.858 713.747 162.652 720.382 162.442L720.351 161.442ZM680.642 162.643C674.043 162.832 667.455 163.016 660.88 163.193L660.907 164.193C667.483 164.015 674.071 163.832 680.671 163.642L680.642 162.643ZM641.045 163.712C634.4 163.88 627.77 164.042 621.158 164.196L621.181 165.196C627.794 165.041 634.425 164.88 641.07 164.712L641.045 163.712ZM601.374 164.639C594.786 164.78 588.218 164.913 581.672 165.039L581.691 166.039C588.238 165.913 594.807 165.779 601.395 165.639L601.374 164.639ZM561.692 165.401C555.055 165.514 548.443 165.618 541.857 165.714L541.871 166.714C548.458 166.618 555.071 166.514 561.709 166.401L561.692 165.401ZM522.18 165.974C515.507 166.054 508.864 166.125 502.252 166.185L502.261 167.185C508.874 167.125 515.518 167.054 522.192 166.974L522.18 165.974ZM482.346 166.338C475.744 166.379 469.178 166.41 462.648 166.429L462.651 167.429C469.182 167.41 475.75 167.379 482.352 167.338L482.346 166.338ZM442.833 166.455C436.127 166.453 429.463 166.438 422.845 166.41L422.841 167.41C429.46 167.438 436.125 167.453 442.832 167.455L442.833 166.455ZM403.129 166.29C396.505 166.236 389.931 166.169 383.409 166.088L383.396 167.088C389.92 167.169 396.496 167.236 403.121 167.29L403.129 166.29ZM363.351 165.792C356.723 165.678 350.154 165.549 343.646 165.403L343.623 166.403C350.133 166.548 356.704 166.678 363.334 166.792L363.351 165.792ZM323.945 164.91C317.178 164.721 310.484 164.513 303.867 164.287L303.833 165.286C310.452 165.513 317.148 165.72 323.917 165.909L323.945 164.91ZM284.247 163.549C277.55 163.274 270.939 162.977 264.418 162.659L264.369 163.658C270.893 163.976 277.506 164.273 284.206 164.548L284.247 163.549ZM244.439 161.598C237.879 161.22 231.42 160.818 225.066 160.391L224.999 161.389C231.356 161.816 237.818 162.219 244.381 162.596L244.439 161.598ZM204.89 158.921C198.217 158.395 191.676 157.839 185.271 157.25L185.18 158.246C191.589 158.835 198.135 159.392 204.812 159.918L204.89 158.921ZM165.549 155.29C158.766 154.561 152.159 153.792 145.736 152.981L145.61 153.973C152.04 154.785 158.653 155.555 165.442 156.284L165.549 155.29ZM126.322 150.315C119.473 149.293 112.872 148.216 106.531 147.08L106.355 148.065C112.707 149.202 119.317 150.281 126.174 151.304L126.322 150.315ZM87.197 143.259C80.4482 141.786 74.0713 140.231 68.0844 138.591L67.8202 139.556C73.826 141.201 80.2201 142.76 86.9838 144.236L87.197 143.259ZM48.899 132.553C42.132 130.092 36.1049 127.473 30.8593 124.692L30.3908 125.575C35.6858 128.383 41.7567 131.019 48.5571 133.493L48.899 132.553ZM14.9009 113.449C12.522 111.084 10.6038 108.63 9.15779 106.085L8.28838 106.579C9.78559 109.214 11.7628 111.739 14.1958 114.158L14.9009 113.449ZM9.15779 106.085C7.45335 103.085 6.04347 100.173 4.90984 97.3445L3.98161 97.7165C5.13358 100.59 6.56365 103.544 8.28838 106.579L9.15779 106.085ZM1.26231 78.4648C1.48491 71.8509 3.41583 65.7928 6.71742 60.239L5.85789 59.7281C2.47756 65.4142 0.491583 71.635 0.262923 78.4312L1.26231 78.4648ZM19.4847 45.7905C24.1884 41.8886 29.6343 38.3147 35.6199 35.0434L35.1403 34.166C29.1114 37.4609 23.6095 41.0696 18.8462 45.0209L19.4847 45.7905ZM53.2681 26.7973C59.1788 24.4185 65.3509 22.2526 71.6489 20.2822L71.3503 19.3279C65.0311 21.3049 58.8336 23.4794 52.8948 25.8696L53.2681 26.7973ZM90.4367 15.0266C96.8353 13.4269 103.224 12.0049 109.469 10.743L109.271 9.76285C103.013 11.0274 96.6092 12.4526 90.1941 14.0565L90.4367 15.0266ZM128.681 7.24827C135.628 6.11692 142.158 5.18934 148.038 4.43497L147.91 3.44307C142.021 4.19872 135.479 5.12794 128.521 6.26124L128.681 7.24827ZM167.386 2.28162C170.447 1.99556 172.869 1.79775 174.526 1.67153C175.354 1.60838 175.991 1.56308 176.421 1.53366C176.635 1.51896 176.798 1.50819 176.907 1.50105C176.962 1.49752 177.003 1.49489 177.03 1.49313C177.044 1.49228 177.054 1.49167 177.061 1.49126C177.064 1.49105 177.067 1.49086 177.069 1.49079C177.07 1.49074 177.07 1.4907 177.071 1.49067C177.071 1.49065 177.071 1.49067 177.071 1.49065C177.071 1.49065 177.071 1.49065 177.071 1.49058C177.071 1.49062 177.071 1.49062 177.04 0.991565C177.01 0.492555 177.01 0.492506 177.01 0.492506L177.01 0.49253C177.009 0.492554 177.009 0.492529 177.009 0.492578C177.009 0.492601 177.008 0.492624 177.007 0.492671C177.005 0.492766 177.002 0.49298 176.999 0.493169C176.992 0.493619 176.981 0.494233 176.967 0.495134C176.939 0.49696 176.898 0.499614 176.843 0.503145C176.732 0.51033 176.568 0.521146 176.352 0.535963C175.92 0.565598 175.281 0.611019 174.45 0.674405C172.788 0.80108 170.36 0.999372 167.293 1.28596L167.386 2.28162Z" fill="#05A6C5"/>
</svg>
