<svg width="57" height="44" viewBox="0 0 57 44" fill="none" xmlns="http://www.w3.org/2000/svg">
<path d="M10.3614 43.7814V40.8692C10.3614 39.7526 9.67695 39.0247 8.50377 39.0247C7.91729 39.0247 7.28183 39.2189 6.84186 39.8499C6.49986 39.3159 6.01113 39.0247 5.27793 39.0247C4.78897 39.0247 4.30046 39.1702 3.90926 39.7042V39.1218H2.88281V43.7814H3.90926V41.2088C3.90926 40.3839 4.34923 39.9954 5.03367 39.9954C5.71767 39.9954 6.06012 40.4323 6.06012 41.2088V43.7814H7.08656V41.2088C7.08656 40.3839 7.57507 39.9954 8.21053 39.9954C8.89498 39.9954 9.23698 40.4323 9.23698 41.2088V43.7814H10.3614ZM25.5624 39.1218H23.9007V37.7142H22.8742V39.1218H21.9455V40.0438H22.874V42.1797C22.874 43.2476 23.314 43.8784 24.4871 43.8784C24.9271 43.8784 25.4156 43.733 25.7581 43.5388L25.4646 42.665C25.1714 42.8592 24.8294 42.9078 24.5849 42.9078C24.0962 42.9078 23.9007 42.6166 23.9007 42.1311V40.0438H25.5624V39.1218ZM34.2629 39.0245C33.6764 39.0245 33.2854 39.3159 33.0409 39.7042V39.1218H32.0145V43.7814H33.0409V41.1604C33.0409 40.3839 33.3829 39.947 34.0184 39.947C34.2139 39.947 34.4584 39.9956 34.6539 40.044L34.9471 39.0734C34.7516 39.0247 34.4584 39.0247 34.2629 39.0247V39.0245ZM21.1146 39.5101C20.6256 39.1702 19.9414 39.0247 19.2082 39.0247C18.0352 39.0247 17.2533 39.6071 17.2533 40.5294C17.2533 41.3061 17.8397 41.7428 18.8662 41.8885L19.3549 41.9371C19.8926 42.034 20.1859 42.1797 20.1859 42.4225C20.1859 42.7621 19.7949 43.0049 19.1104 43.0049C18.4262 43.0049 17.8885 42.7621 17.5463 42.5195L17.0576 43.2961C17.5953 43.6843 18.3285 43.8784 19.0615 43.8784C20.4301 43.8784 21.2123 43.2476 21.2123 42.3738C21.2123 41.5487 20.5769 41.1118 19.5992 40.9663L19.1104 40.9176C18.6705 40.869 18.3285 40.7721 18.3285 40.4809C18.3285 40.1411 18.6705 39.947 19.2082 39.947C19.7949 39.947 20.3814 40.1895 20.6746 40.3352L21.1146 39.5101ZM48.3889 39.0247C47.8022 39.0247 47.4112 39.3159 47.1667 39.7042V39.1218H46.1402V43.7814H47.1667V41.1604C47.1667 40.3839 47.5089 39.947 48.1442 39.947C48.3399 39.947 48.5843 39.9956 48.7798 40.044L49.0731 39.0734C48.8776 39.0247 48.5843 39.0247 48.3889 39.0247ZM35.2893 41.4516C35.2893 42.8592 36.2668 43.8784 37.7822 43.8784C38.4664 43.8784 38.9551 43.733 39.4439 43.3447L38.9551 42.5195C38.5641 42.8107 38.1732 42.9562 37.7332 42.9562C36.9022 42.9562 36.3158 42.3738 36.3158 41.4516C36.3158 40.578 36.9022 39.9954 37.7332 39.947C38.1732 39.947 38.5641 40.0925 38.9551 40.3839L39.4439 39.5587C38.9551 39.1702 38.4664 39.0247 37.7822 39.0247C36.2668 39.0247 35.2893 40.044 35.2893 41.4516ZM44.7718 41.4516V39.1218H43.7454V39.7042C43.4031 39.2675 42.9144 39.0247 42.2789 39.0247C40.9593 39.0247 39.9328 40.044 39.9328 41.4516C39.9328 42.8592 40.9593 43.8784 42.2789 43.8784C42.9632 43.8784 43.4521 43.6359 43.7454 43.199V43.7814H44.7718V41.4516ZM41.008 41.4516C41.008 40.6264 41.5457 39.947 42.4254 39.947C43.2564 39.947 43.8431 40.578 43.8431 41.4516C43.8431 42.2768 43.2564 42.9562 42.4254 42.9562C41.5457 42.9076 41.008 42.2768 41.008 41.4516ZM28.7397 39.0247C27.371 39.0247 26.3933 39.9954 26.3933 41.4516C26.3933 42.9078 27.3708 43.8784 28.7884 43.8784C29.4726 43.8784 30.1571 43.6843 30.6948 43.2476L30.2059 42.5195C29.8149 42.8107 29.3261 43.0049 28.8374 43.0049C28.2019 43.0049 27.5665 42.7137 27.4198 41.8883H30.8903V41.5002C30.9393 39.9954 30.0593 39.0247 28.7394 39.0247H28.7397ZM28.7397 39.8983C29.3749 39.8983 29.8151 40.2868 29.9126 41.0149H27.4687C27.5665 40.3839 28.0065 39.8983 28.7397 39.8983ZM54.2053 41.4516V37.2773H53.1789V39.7042C52.8366 39.2675 52.3479 39.0247 51.7124 39.0247C50.3928 39.0247 49.3663 40.044 49.3663 41.4516C49.3663 42.8592 50.3928 43.8784 51.7124 43.8784C52.3969 43.8784 52.8856 43.6359 53.1789 43.199V43.7814H54.2053V41.4516ZM50.4417 41.4516C50.4417 40.6264 50.9792 39.947 51.8592 39.947C52.6901 39.947 53.2766 40.578 53.2766 41.4516C53.2766 42.2768 52.6901 42.9562 51.8592 42.9562C50.9792 42.9076 50.4417 42.2768 50.4417 41.4516ZM16.1289 41.4516V39.1218H15.1024V39.7042C14.7602 39.2675 14.2715 39.0247 13.636 39.0247C12.3163 39.0247 11.2899 40.044 11.2899 41.4516C11.2899 42.8592 12.3163 43.8784 13.636 43.8784C14.3204 43.8784 14.8092 43.6359 15.1024 43.199V43.7814H16.1289V41.4516ZM12.3163 41.4516C12.3163 40.6264 12.854 39.947 13.7337 39.947C14.5647 39.947 15.1514 40.578 15.1514 41.4516C15.1514 42.2768 14.5647 42.9562 13.7337 42.9562C12.854 42.9076 12.3163 42.2768 12.3163 41.4516Z" fill="white"/>
<path d="M20.7734 3.7373H36.1701V31.2099H20.7734V3.7373Z" fill="#FF5F00"/>
<path d="M21.7511 17.4737C21.7511 11.8919 24.3904 6.94094 28.4472 3.73735C25.4659 1.40756 21.7023 0 17.5965 0C7.86934 0 0 7.81453 0 17.4737C0 27.1327 7.86934 34.9475 17.5963 34.9475C21.7021 34.9475 25.4656 33.5399 28.4472 31.2099C24.3904 28.055 21.7511 23.0556 21.7511 17.4737Z" fill="#EB001B"/>
<path d="M56.9433 17.4737C56.9433 27.1327 49.074 34.9475 39.347 34.9475C35.2412 34.9475 31.4777 33.5399 28.4961 31.2099C32.6019 28.0066 35.1925 23.0556 35.1925 17.4737C35.1925 11.8919 32.5529 6.94094 28.4961 3.73735C31.4775 1.40756 35.2412 0 39.347 0C49.074 0 56.9436 7.86318 56.9436 17.4737H56.9433Z" fill="#F79E1B"/>
</svg>
