<svg width="65" height="17" viewBox="0 0 65 17" fill="none" xmlns="http://www.w3.org/2000/svg">
<path d="M47.0625 0.669592C45.5711 0.217886 43.9946 -0.00878237 42.4072 0.000260253C37.2739 0.000260253 33.6485 2.14959 33.6228 5.23493C33.5907 7.50159 36.1991 8.77893 38.1722 9.53626C40.1967 10.3149 40.8737 10.8056 40.8672 11.5016C40.8544 12.5603 39.2502 13.0403 37.7584 13.0403C35.7082 13.0403 34.5885 12.8029 32.8657 12.2083L32.2272 11.9603L31.4989 15.5123C32.7469 15.9443 34.996 16.3149 37.3188 16.3469C42.7762 16.3469 46.3439 14.2109 46.3856 10.9283C46.4305 9.11759 45.0188 7.74959 42.0479 6.61893C40.2416 5.88559 39.1219 5.39493 39.1219 4.65093C39.1219 3.99226 40.0812 3.28826 42.0864 3.28826C43.4209 3.26142 44.7472 3.46953 45.9781 3.89893L46.4594 4.07759L47.1877 0.645593L47.0625 0.669592ZM60.3835 0.28826H56.3731C55.1251 0.28826 54.185 0.573593 53.6396 1.60293L45.9268 16.1256H51.3842L52.475 13.7443L59.1355 13.7496C59.2927 14.3069 59.7739 16.1256 59.7739 16.1256H64.5864L60.3835 0.28826ZM26.2404 0.154926H31.4412L28.1879 16.0003H22.9936L26.2404 0.149593V0.154926ZM13.0382 8.88826L13.5772 11.0883L18.6592 0.28826H24.1679L15.9834 16.1043H10.4875L5.99586 2.71226C5.92312 2.49144 5.75227 2.30178 5.51782 2.18159C3.8989 1.48649 2.18355 0.959 0.410156 0.610925L0.480739 0.277591H8.85128C9.98703 0.314925 10.9014 0.610925 11.2062 1.61893L13.0349 8.89626V8.88826H13.0382ZM53.9669 10.5043L56.0394 6.07226C56.0138 6.12026 56.4662 5.15759 56.7292 4.56293L57.0854 5.93093L58.2885 10.5016H53.9637V10.5043H53.9669Z" fill="white"/>
</svg>
