<svg width="35" height="35" viewBox="0 0 35 35" fill="none" xmlns="http://www.w3.org/2000/svg">
<path d="M17.2539 33.0588L17.2539 33.5588L17.2541 33.5588L17.2539 33.0588ZM33.5891 17.0272L34.0891 17.0274L34.0891 17.0274L33.5891 17.0272ZM28.8092 5.68563L28.4587 6.04228L28.4587 6.04229L28.8092 5.68563ZM17.2537 0.983887L17.2539 0.483887H17.2537V0.983887ZM0.918206 17.0146L1.41821 17.0148L1.41821 17.0148L0.918206 17.0146ZM3.09871 25.0294L3.58032 25.1637L3.6374 24.9591L3.52973 24.7759L3.09871 25.0294ZM0.78125 33.3368L0.299638 33.2025L0.0668232 34.0371L0.905908 33.821L0.78125 33.3368ZM9.44086 31.1075L9.67683 30.6666L9.50498 30.5746L9.3162 30.6232L9.44086 31.1075ZM17.2471 33.0588L17.2469 33.5588H17.2471V33.0588ZM17.2541 33.5588C26.5277 33.5551 34.0854 26.1494 34.0891 17.0274L33.0891 17.027C33.0856 25.5795 25.993 32.5553 17.2537 32.5588L17.2541 33.5588ZM34.0891 17.0274C34.0909 12.6082 32.3384 8.45222 29.1596 5.32898L28.4587 6.04229C31.4481 8.9794 33.0908 12.8791 33.0891 17.027L34.0891 17.0274ZM29.1596 5.32899C25.981 2.2058 21.7534 0.485793 17.2539 0.483887L17.2535 1.48389C21.4939 1.48568 25.4691 3.1048 28.4587 6.04228L29.1596 5.32899ZM17.2537 0.483887C7.98248 0.483887 0.421905 7.89042 0.418206 17.0144L1.41821 17.0148C1.42167 8.46024 8.51716 1.48389 17.2537 1.48389V0.483887ZM0.418206 17.0144C0.416942 19.9293 1.19305 22.7747 2.66769 25.2828L3.52973 24.7759C2.14532 22.4213 1.41702 19.751 1.41821 17.0148L0.418206 17.0144ZM2.6171 24.895L0.299638 33.2025L1.26286 33.4712L3.58032 25.1637L2.6171 24.895ZM0.905908 33.821L9.56551 31.5917L9.3162 30.6232L0.656592 32.8526L0.905908 33.821ZM9.20488 31.5483C11.6639 32.8646 14.4313 33.5579 17.2469 33.5588L17.2473 32.5588C14.5951 32.5579 11.9898 31.9048 9.67683 30.6666L9.20488 31.5483ZM17.2471 33.5588H17.2539V32.5588H17.2471V33.5588Z" fill="url(#paint0_linear_555:2276)"/>
<path d="M9.84161 28.2054L10.0933 27.7733L9.91582 27.67L9.71695 27.7212L9.84161 28.2054ZM4.70288 29.5283L4.22126 29.394L3.98846 30.2285L4.82753 30.0125L4.70288 29.5283ZM10.3374 28.4941L10.0857 28.9262L10.0858 28.9262L10.3374 28.4941ZM17.2479 30.3515L17.2477 30.8515H17.2479V30.3515ZM30.8305 17.0265L31.3305 17.0267L31.3305 17.0267L30.8305 17.0265ZM26.8576 7.59958L26.5072 7.95623L26.5072 7.95623L26.8576 7.59958ZM17.2587 3.69189L17.2589 3.19189H17.2587V3.69189ZM3.67578 17.0157L4.17578 17.0159L4.17578 17.0159L3.67578 17.0157ZM5.75166 24.107L6.17273 23.8374L6.17267 23.8373L5.75166 24.107ZM6.07448 24.6112L6.55609 24.7455L6.61622 24.53L6.49555 24.3416L6.07448 24.6112ZM25.483 20.8397L25.0563 21.1002L25.0563 21.1003L25.483 20.8397ZM24.924 20.479L24.7097 20.9308L24.7097 20.9308L24.924 20.479ZM25.2451 22.7446L25.715 22.9155L25.715 22.9154L25.2451 22.7446ZM22.4899 24.6493L22.4174 24.1546L22.4173 24.1546L22.4899 24.6493ZM19.9191 24.4906L20.068 24.0132L20.0678 24.0132L19.9191 24.4906ZM17.5923 23.6467L17.7874 23.1864L17.7873 23.1864L17.5923 23.6467ZM10.6911 17.6976L10.2835 17.9871L10.2835 17.9871L10.6911 17.6976ZM10.6196 17.5982L11.0171 17.2949L11.017 17.2947L10.6196 17.5982ZM10.6163 17.5938L11.0137 17.2904L11.0137 17.2904L10.6163 17.5938ZM10.3016 10.1968L9.94 9.85152L9.94 9.85152L10.3016 10.1968ZM10.3815 10.1126L10.0159 9.77149L10.0159 9.77149L10.3815 10.1126ZM12.2522 9.62545L12.2276 10.1248L12.2276 10.1248L12.2522 9.62545ZM12.3437 9.62654L12.3408 9.12655L12.3408 9.12655L12.3437 9.62654ZM13.1706 10.3131L13.6309 10.1179L13.6309 10.1178L13.1706 10.3131ZM13.6215 11.3869L14.0827 11.1939L14.0827 11.1939L13.6215 11.3869ZM14.429 13.2874L13.9834 13.5142L13.9834 13.5142L14.429 13.2874ZM14.4631 13.9892L14.9086 14.2162L14.9087 14.2159L14.4631 13.9892ZM14.4057 14.1034L14.8531 14.3266L14.8531 14.3266L14.4057 14.1034ZM14.0549 14.6574L13.6782 14.3287L13.6782 14.3287L14.0549 14.6574ZM13.8457 14.9041L14.2292 15.2249L14.2292 15.2249L13.8457 14.9041ZM13.4426 15.3593L13.7922 15.7168L13.7922 15.7168L13.4426 15.3593ZM13.2637 16.1768L13.6936 15.9215L13.6936 15.9215L13.2637 16.1768ZM15.5343 18.9518L15.205 19.328L15.205 19.328L15.5343 18.9518ZM18.547 20.8208L18.7428 20.3607L18.7428 20.3607L18.547 20.8208ZM18.8167 20.94L19.0373 20.4913L19.0372 20.4912L18.8167 20.94ZM19.701 20.8397L20.0743 21.1723L20.0743 21.1723L19.701 20.8397ZM20.9934 19.269L20.5796 18.9883L20.5796 18.9883L20.9934 19.269ZM21.9117 19.0685L22.08 18.5977L22.0799 18.5977L21.9117 19.0685ZM24.7008 20.3718L24.9213 19.9231L24.9212 19.923L24.7008 20.3718ZM9.71695 27.7212L4.57822 29.0441L4.82753 30.0125L9.96627 28.6896L9.71695 27.7212ZM10.5891 28.0621L10.0933 27.7733L9.58995 28.6374L10.0857 28.9262L10.5891 28.0621ZM17.2481 29.8515C14.8992 29.8506 12.5965 29.2312 10.589 28.0621L10.0858 28.9262C12.2475 30.1852 14.7239 30.8505 17.2477 30.8515L17.2481 29.8515ZM17.2534 29.8515H17.2479V30.8515H17.2534V29.8515ZM30.3305 17.0263C30.3276 24.089 24.4694 29.8515 17.2534 29.8515V30.8515C25.0042 30.8515 31.3274 24.6587 31.3305 17.0267L30.3305 17.0263ZM26.5072 7.95623C28.9759 10.3819 30.3319 13.6015 30.3305 17.0263L31.3305 17.0267C31.332 13.3306 29.8662 9.85469 27.208 7.24293L26.5072 7.95623ZM17.2586 4.19189C20.7554 4.19308 24.0382 5.5303 26.5072 7.95623L27.208 7.24293C24.5502 4.63147 21.0151 3.19317 17.2589 3.19189L17.2586 4.19189ZM4.17578 17.0159C4.17864 9.95401 10.0368 4.19189 17.2587 4.19189V3.19189C9.50237 3.19189 3.17887 9.3839 3.17578 17.0155L4.17578 17.0159ZM6.17267 23.8373C4.86513 21.7963 4.17477 19.438 4.17578 17.0159L3.17578 17.0155C3.17469 19.6291 3.91996 22.1748 5.33064 24.3768L6.17267 23.8373ZM6.49555 24.3416L6.17273 23.8374L5.33058 24.3767L5.65341 24.8808L6.49555 24.3416ZM5.18449 29.6627L6.55609 24.7455L5.59287 24.4769L4.22126 29.394L5.18449 29.6627ZM25.9098 20.5792C25.8062 20.4095 25.6558 20.3024 25.5372 20.2311C25.4175 20.1591 25.2729 20.0911 25.1383 20.0273L24.7097 20.9308C24.8598 21.002 24.9537 21.0471 25.0218 21.0881C25.091 21.1297 25.0778 21.1355 25.0563 21.1002L25.9098 20.5792ZM25.715 22.9154C25.9001 22.406 25.9944 21.9288 26.0279 21.5477C26.0446 21.3576 26.0468 21.1838 26.0351 21.0365C26.0256 20.9169 26.0019 20.7301 25.9097 20.5791L25.0563 21.1003C25.0151 21.0329 25.0297 21.009 25.0383 21.116C25.0446 21.1953 25.0447 21.3117 25.0317 21.4601C25.0057 21.7557 24.93 22.1474 24.7751 22.5739L25.715 22.9154ZM22.5624 25.144C23.0467 25.073 23.717 24.7948 24.3002 24.428C24.8702 24.0695 25.4854 23.5467 25.715 22.9155L24.7752 22.5738C24.6644 22.8783 24.2943 23.2503 23.7678 23.5815C23.2545 23.9043 22.7174 24.1106 22.4174 24.1546L22.5624 25.144ZM19.7702 24.9679C20.846 25.3034 21.8185 25.2532 22.5625 25.144L22.4173 24.1546C21.755 24.2518 20.9477 24.2876 20.068 24.0132L19.7702 24.9679ZM17.3971 24.1071C18.3926 24.529 19.1703 24.7811 19.7705 24.9679L20.0678 24.0132C19.4822 23.8308 18.7396 23.59 17.7874 23.1864L17.3971 24.1071ZM10.2835 17.9871C10.7712 18.6735 13.4275 22.4249 17.3972 24.1071L17.7873 23.1864C14.104 21.6255 11.5886 18.0974 11.0988 17.408L10.2835 17.9871ZM10.2221 17.9015C10.2288 17.9103 10.246 17.9343 10.2835 17.9871L11.0988 17.408C11.0678 17.3644 11.0371 17.3211 11.0171 17.2949L10.2221 17.9015ZM10.2189 17.8973L10.2222 17.9016L11.017 17.2947L11.0137 17.2904L10.2189 17.8973ZM8.45297 13.4543C8.45297 14.5492 8.85381 15.5962 9.25921 16.3827C9.66827 17.1762 10.1051 17.7482 10.2189 17.8973L11.0137 17.2904C10.9115 17.1566 10.5167 16.6396 10.1481 15.9245C9.7758 15.2023 9.45297 14.3209 9.45297 13.4543H8.45297ZM9.94 9.85152C9.48945 10.3234 8.45297 11.4113 8.45297 13.4543H9.45297C9.45297 11.807 10.2636 10.9607 10.6632 10.5421L9.94 9.85152ZM10.0159 9.77149C9.99429 9.79466 9.96965 9.82047 9.94 9.85152L10.6632 10.5421C10.6918 10.5122 10.7208 10.4819 10.7471 10.4536L10.0159 9.77149ZM11.4699 9.11126C11.0862 9.11126 10.5015 9.25094 10.0159 9.77149L10.7471 10.4536C11.0098 10.1721 11.3096 10.1113 11.4699 10.1113V9.11126ZM12.2769 9.12606C12.026 9.11369 11.7433 9.11126 11.4699 9.11126V10.1113C11.7408 10.1113 12.0028 10.1138 12.2276 10.1248L12.2769 9.12606ZM12.3408 9.12655C12.3064 9.12675 12.29 9.12671 12.2768 9.12606L12.2276 10.1248C12.2732 10.1271 12.3178 10.1267 12.3465 10.1265L12.3408 9.12655ZM13.6309 10.1178C13.4645 9.72553 13.2631 9.44604 12.9969 9.28376C12.7235 9.11712 12.458 9.12587 12.3408 9.12655L12.3465 10.1265C12.4671 10.1258 12.4689 10.1331 12.4764 10.1376C12.491 10.1466 12.5842 10.211 12.7103 10.5083L13.6309 10.1178ZM14.0827 11.1939C13.9092 10.7794 13.744 10.3846 13.6309 10.1179L12.7103 10.5083C12.8222 10.7723 12.9864 11.1645 13.1602 11.5799L14.0827 11.1939ZM14.8747 13.0607C14.8747 13.0608 14.874 13.0594 14.8723 13.0559C14.8707 13.0526 14.8686 13.0481 14.866 13.0424C14.8606 13.0309 14.8538 13.016 14.8455 12.9974C14.8289 12.9602 14.8076 12.9118 14.7823 12.8532C14.7317 12.7363 14.6664 12.5831 14.5919 12.4068C14.4429 12.0544 14.2584 11.6137 14.0827 11.1939L13.1602 11.5799C13.5037 12.4006 13.9039 13.358 13.9834 13.5142L14.8747 13.0607ZM14.9087 14.2159C15.15 13.7415 15.0085 13.3237 14.8746 13.0606L13.9834 13.5142C14.0208 13.5876 14.0347 13.6348 14.0383 13.6674C14.0409 13.691 14.0399 13.7184 14.0174 13.7626L14.9087 14.2159ZM14.8531 14.3266C14.8712 14.2903 14.8892 14.2542 14.9086 14.2162L14.0175 13.7623C13.996 13.8045 13.9763 13.8441 13.9583 13.8801L14.8531 14.3266ZM14.4316 14.9862C14.6498 14.7362 14.7484 14.5363 14.8531 14.3266L13.9583 13.8801C13.8586 14.0799 13.8069 14.1812 13.6782 14.3287L14.4316 14.9862ZM14.2292 15.2249C14.3004 15.1399 14.3675 15.0597 14.4316 14.9862L13.6782 14.3287C13.6059 14.4115 13.532 14.4998 13.4623 14.5832L14.2292 15.2249ZM13.7922 15.7168C13.9363 15.5759 14.0943 15.3861 14.2292 15.2249L13.4623 14.5832C13.3163 14.7577 13.1935 14.9035 13.0931 15.0018L13.7922 15.7168ZM13.6936 15.9215C13.6605 15.8658 13.658 15.8415 13.6583 15.8437C13.6591 15.8498 13.6579 15.8616 13.6548 15.8696C13.6537 15.8727 13.6573 15.8615 13.6812 15.8324C13.7065 15.8016 13.7395 15.7683 13.7922 15.7168L13.0931 15.0017C13.005 15.0879 12.8142 15.2659 12.7197 15.5155C12.6063 15.8149 12.6536 16.1285 12.8338 16.432L13.6936 15.9215ZM15.8637 18.5755C14.7101 17.5657 13.9231 16.308 13.6936 15.9215L12.8338 16.432C13.0805 16.8476 13.9318 18.2134 15.205 19.328L15.8637 18.5755ZM18.7428 20.3607C18.1851 20.1233 17.1087 19.6654 15.8637 18.5755L15.205 19.328C16.5687 20.5217 17.7596 21.029 18.3511 21.2808L18.7428 20.3607ZM19.0372 20.4912C18.9555 20.4511 18.8498 20.4062 18.7428 20.3607L18.3511 21.2808C18.4686 21.3308 18.5447 21.3634 18.5963 21.3888L19.0372 20.4912ZM19.3276 20.5071C19.2912 20.548 19.2692 20.5636 19.261 20.5685C19.256 20.5715 19.2588 20.5694 19.2634 20.5688C19.2648 20.5686 19.2083 20.5753 19.0373 20.4913L18.5962 21.3887C18.8332 21.5052 19.0998 21.5954 19.3818 21.5618C19.6841 21.5257 19.9064 21.3608 20.0743 21.1723L19.3276 20.5071ZM20.5796 18.9883C20.3297 19.3566 19.5716 20.2333 19.3276 20.5072L20.0743 21.1723C20.3066 20.9115 21.1129 19.9834 21.4071 19.5498L20.5796 18.9883ZM22.0799 18.5977C21.9074 18.5361 21.6394 18.4399 21.3585 18.4715C21.0232 18.5091 20.7711 18.7062 20.5796 18.9883L21.4071 19.5498C21.4507 19.4855 21.4776 19.4651 21.4829 19.4614C21.4836 19.4609 21.4763 19.4645 21.4701 19.4652C21.47 19.4652 21.4879 19.4633 21.5375 19.4746C21.5887 19.4863 21.6519 19.5067 21.7435 19.5394L22.0799 18.5977ZM24.9212 19.923C24.7148 19.8216 24.1089 19.5282 23.5076 19.2433C22.922 18.9659 22.297 18.6753 22.08 18.5977L21.7433 19.5394C21.9006 19.5956 22.4661 19.8564 23.0794 20.147C23.6771 20.4302 24.2787 20.7215 24.4804 20.8206L24.9212 19.923ZM25.1383 20.0273C25.069 19.9944 24.9974 19.9605 24.9213 19.9231L24.4803 20.8206C24.5635 20.8615 24.641 20.8982 24.7097 20.9308L25.1383 20.0273Z" fill="url(#paint1_linear_555:2276)"/>
<defs>
<linearGradient id="paint0_linear_555:2276" x1="17.1852" y1="0.983887" x2="17.1852" y2="33.3368" gradientUnits="userSpaceOnUse">
<stop stop-color="#00A8BF"/>
<stop offset="1" stop-color="#17BFAB"/>
</linearGradient>
<linearGradient id="paint1_linear_555:2276" x1="17.2531" y1="3.69189" x2="17.2531" y2="30.3515" gradientUnits="userSpaceOnUse">
<stop stop-color="#00A8BF"/>
<stop offset="1" stop-color="#17BFAB"/>
</linearGradient>
</defs>
</svg>
