<svg width="35" height="35" viewBox="0 0 35 35" fill="none" xmlns="http://www.w3.org/2000/svg">
<path d="M11.1606 1.37918L11.1383 0.879679L11.1381 0.879685L11.1606 1.37918ZM7.15194 2.13224L7.33001 2.59946L7.33024 2.59937L7.15194 2.13224ZM4.22614 4.00138L4.57623 4.35836L4.57643 4.35816L4.22614 4.00138ZM2.31989 6.87245L2.78458 7.05701L2.78459 7.05699L2.31989 6.87245ZM1.55257 10.8066L1.05309 10.7837L1.05309 10.7838L1.55257 10.8066ZM1.55291 24.1725L1.05344 24.1956L1.05346 24.1959L1.55291 24.1725ZM2.32023 28.1067L1.85535 28.2907L1.85536 28.2908L2.32023 28.1067ZM4.22511 30.9781L4.57553 30.6214L4.57527 30.6211L4.22511 30.9781ZM7.14987 32.8489L7.32807 32.3817L7.32804 32.3817L7.14987 32.8489ZM11.1592 33.602L11.1368 34.1014L11.1369 34.1015L11.1592 33.602ZM24.7776 33.602L24.7999 34.1015L24.8 34.1014L24.7776 33.602ZM28.7883 32.8489L28.6102 32.3817L28.6101 32.3817L28.7883 32.8489ZM31.712 30.9781L31.3619 30.6211L31.3616 30.6214L31.712 30.9781ZM33.6183 28.107L34.083 28.2915L34.0835 28.2902L33.6183 28.107ZM34.3856 24.1729L34.885 24.1968L34.8851 24.1957L34.3856 24.1729ZM34.3856 10.8069L34.8851 10.7841L34.885 10.783L34.3856 10.8069ZM33.6183 6.87279L34.0835 6.68952L34.083 6.6883L33.6183 6.87279ZM31.712 4.00138L31.3618 4.35823L31.3619 4.35836L31.712 4.00138ZM28.7873 2.13224L28.6094 2.59952L28.6095 2.59956L28.7873 2.13224ZM24.7752 1.37918L24.7976 0.879685L24.7975 0.879679L24.7752 1.37918ZM17.9708 0.78125C13.4827 0.78125 12.9111 0.800501 11.1383 0.879679L11.1829 1.87868C12.9335 1.8005 13.4878 1.78125 17.9708 1.78125V0.78125ZM11.1381 0.879685C9.33362 0.960783 8.07994 1.24284 6.97364 1.66511L7.33024 2.59937C8.32426 2.21995 9.47095 1.95562 11.183 1.87868L11.1381 0.879685ZM6.97387 1.66502C5.82845 2.10157 4.84694 2.69119 3.87585 3.64459L4.57643 4.35816C5.4414 3.50895 6.30284 2.99093 7.33 2.59946L6.97387 1.66502ZM3.87606 3.64439C2.9041 4.59756 2.30235 5.5619 1.85519 6.68791L2.78459 7.05699C3.18389 6.05148 3.71074 5.20713 4.57623 4.35836L3.87606 3.64439ZM1.8552 6.68789C1.42279 7.77662 1.13445 9.01034 1.05309 10.7837L2.05204 10.8295C2.12896 9.15295 2.39805 8.03024 2.78458 7.05701L1.8552 6.68789ZM1.05309 10.7838C0.973781 12.524 0.953125 13.0855 0.953125 17.4906H1.95312C1.95312 13.0913 1.97376 12.5472 2.05205 10.8294L1.05309 10.7838ZM0.953125 17.4906C0.953125 21.8955 0.973087 22.4552 1.05344 24.1956L2.05238 24.1495C1.97308 22.4319 1.95312 21.89 1.95312 17.4906H0.953125ZM1.05346 24.1959C1.13657 25.9696 1.4245 27.2026 1.85535 28.2907L2.78511 27.9226C2.39978 26.9494 2.13097 25.8267 2.05236 24.1491L1.05346 24.1959ZM1.85536 28.2908C2.30154 29.4174 2.90339 30.3818 3.87496 31.335L4.57527 30.6211C3.71008 29.7724 3.18331 28.9281 2.7851 27.9226L1.85536 28.2908ZM3.87469 31.3347C4.84525 32.2883 5.8267 32.8794 6.97171 33.3161L7.32804 32.3817C6.30184 31.9904 5.44035 31.4711 4.57553 30.6214L3.87469 31.3347ZM6.97167 33.3161C8.0786 33.7383 9.33257 34.0203 11.1368 34.1014L11.1817 33.1025C9.46993 33.0255 8.32285 32.7612 7.32807 32.3817L6.97167 33.3161ZM11.1369 34.1015C12.9097 34.1806 13.481 34.1999 17.9687 34.1999V33.1999C13.4861 33.1999 12.9322 33.1806 11.1815 33.1024L11.1369 34.1015ZM17.9687 34.1999C22.4572 34.1999 23.0271 34.1806 24.7999 34.1015L24.7553 33.1024C23.0046 33.1806 22.4521 33.1999 17.9687 33.1999V34.1999ZM24.8 34.1014C26.6045 34.0204 27.8595 33.7383 28.9665 33.3161L28.6101 32.3817C27.6154 32.7612 26.4673 33.0255 24.7551 33.1025L24.8 34.1014ZM28.9664 33.3161C30.112 32.8793 31.092 32.2882 32.0624 31.3347L31.3616 30.6214C30.4966 31.4712 29.6365 31.9904 28.6102 32.3817L28.9664 33.3161ZM32.0621 31.3351C33.0341 30.3819 33.6358 29.4175 34.083 28.2915L33.1536 27.9225C32.7543 28.928 32.2274 29.7723 31.3619 30.6211L32.0621 31.3351ZM34.0835 28.2902C34.5119 27.2024 34.8001 25.9696 34.885 24.1968L33.8862 24.1489C33.8059 25.826 33.5367 26.9496 33.1531 27.9238L34.0835 28.2902ZM34.8851 24.1957C34.9647 22.4555 34.9854 21.8957 34.9854 17.4906H33.9854C33.9854 21.8898 33.9647 22.4322 33.8861 24.15L34.8851 24.1957ZM34.9854 17.4906C34.9854 13.0855 34.9647 12.5243 34.8851 10.7841L33.8861 10.8298C33.9647 12.5476 33.9854 13.0913 33.9854 17.4906H34.9854ZM34.885 10.783C34.8002 9.00952 34.5119 7.77698 34.0835 6.68952L33.1531 7.05606C33.5367 8.02988 33.8059 9.1531 33.8862 10.8308L34.885 10.783ZM34.083 6.6883C33.6358 5.56192 33.0341 4.59757 32.0621 3.64439L31.3619 4.35836C32.2274 5.20712 32.7543 6.05146 33.1536 7.05728L34.083 6.6883ZM32.0622 3.64452C31.0908 2.69113 30.1121 2.10133 28.9651 1.66492L28.6095 2.59956C29.637 2.9905 30.4958 3.50833 31.3618 4.35823L32.0622 3.64452ZM28.9652 1.66496C27.8564 1.24285 26.6022 0.960786 24.7976 0.879685L24.7527 1.87868C26.4647 1.95562 27.6123 2.21994 28.6094 2.59952L28.9652 1.66496ZM24.7975 0.879679C23.0247 0.800501 22.4551 0.78125 17.9656 0.78125V1.78125C22.45 1.78125 23.0022 1.8005 24.7529 1.87868L24.7975 0.879679ZM17.9656 1.78125H17.9708V0.78125H17.9656V1.78125Z" fill="url(#paint0_linear_555:458)"/>
<path d="M17.4191 4.20214L17.4189 4.70214L17.419 4.70214L17.4191 4.20214ZM16.488 4.20229H15.988V4.70306L16.4887 4.70229L16.488 4.20229ZM17.9696 4.20229L17.9695 4.70229H17.9696V4.20229ZM24.6436 4.2955L24.666 3.796L24.6658 3.79599L24.6436 4.2955ZM27.7101 4.85371L27.8882 4.3865L27.8881 4.38648L27.7101 4.85371ZM29.6081 6.06603L29.2578 6.42278L29.2579 6.42288L29.6081 6.06603ZM30.8441 7.9301L31.3089 7.74596L31.3088 7.74575L30.8441 7.9301ZM31.4128 10.939L31.9123 10.9158L31.9123 10.9158L31.4128 10.939ZM31.4128 24.0347L31.9123 24.058L31.9123 24.0579L31.4128 24.0347ZM30.8441 27.0436L30.3792 26.8595L30.3791 26.8596L30.8441 27.0436ZM29.6081 28.9056L29.258 28.5487L29.2579 28.5488L29.6081 28.9056ZM27.7101 30.118L27.5321 29.6507L27.5312 29.6511L27.7101 30.118ZM24.6436 30.6765L24.6659 31.176L24.666 31.176L24.6436 30.6765ZM11.2957 30.6765L11.273 31.176L11.2734 31.176L11.2957 30.6765ZM8.22878 30.1176L8.05069 30.5848L8.05082 30.5849L8.22878 30.1176ZM6.32941 28.9053L5.97918 29.2622L5.97918 29.2622L6.32941 28.9053ZM5.09344 27.0422L4.62858 27.2264L4.62864 27.2265L5.09344 27.0422ZM4.52466 24.0334L4.02519 24.0565L4.02519 24.0565L4.52466 24.0334ZM4.52466 10.9349L4.0252 10.9116L4.02519 10.9118L4.52466 10.9349ZM5.09344 7.92537L4.62852 7.74138L4.6285 7.74142L5.09344 7.92537ZM6.32941 6.0613L6.67963 6.41816L6.32941 6.0613ZM8.22878 4.8483L8.40723 5.31538L8.40754 5.31526L8.22878 4.8483ZM11.2957 4.28942L11.2735 3.78991L11.2731 3.78993L11.2957 4.28942ZM16.488 4.19824H16.988V3.69769L16.4874 3.69824L16.488 4.19824ZM26.7859 6.89372V7.39372H27.2859V6.89372H26.7859ZM26.7859 6.89305V6.39305H26.2859V6.89305H26.7859ZM17.4194 3.70214C17.0855 3.70199 16.7755 3.70185 16.4872 3.7023L16.4887 4.70229C16.7758 4.70185 17.0848 4.70199 17.4189 4.70214L17.4194 3.70214ZM17.9698 3.70229L17.4193 3.70214L17.419 4.70214L17.9695 4.70229L17.9698 3.70229ZM24.6658 3.79599C22.913 3.71782 22.3813 3.70229 17.9696 3.70229V4.70229C22.3776 4.70229 22.8913 4.71784 24.6213 4.795L24.6658 3.79599ZM27.8881 4.38648C27.2569 4.14593 26.3304 3.8707 24.666 3.796L24.6212 4.795C26.1774 4.86483 26.9989 5.11775 27.532 5.32093L27.8881 4.38648ZM29.9584 5.70928C29.3307 5.09281 28.7222 4.70441 27.8882 4.3865L27.532 5.32092C28.2395 5.59059 28.7301 5.90459 29.2578 6.42278L29.9584 5.70928ZM31.3088 7.74575C30.9833 6.92497 30.5866 6.32577 29.9583 5.70917L29.2579 6.42288C29.7857 6.94094 30.1048 7.42236 30.3793 8.11446L31.3088 7.74575ZM31.9123 10.9158C31.8364 9.27902 31.5549 8.36695 31.3089 7.74596L30.3792 8.11424C30.5854 8.63466 30.8427 9.43807 30.9134 10.9621L31.9123 10.9158ZM32.0092 17.4868C32.0092 13.1587 31.992 12.6362 31.9123 10.9158L30.9134 10.9621C30.992 12.6591 31.0092 13.1633 31.0092 17.4868H32.0092ZM31.9123 24.0579C31.992 22.3374 32.0092 21.815 32.0092 17.4868H31.0092C31.0092 21.8104 30.992 22.3146 30.9134 24.0116L31.9123 24.0579ZM31.3089 27.2277C31.5549 26.6067 31.836 25.6946 31.9123 24.058L30.9134 24.0115C30.8424 25.5357 30.5853 26.3391 30.3792 26.8595L31.3089 27.2277ZM29.9582 29.2626C30.5861 28.6468 30.9838 28.0493 31.309 27.2276L30.3791 26.8596C30.1056 27.5508 29.7863 28.0305 29.258 28.5487L29.9582 29.2626ZM27.8881 30.5852C28.7227 30.2672 29.3304 29.8788 29.9583 29.2625L29.2579 28.5488C28.7297 29.0672 28.2397 29.3811 27.5321 29.6507L27.8881 30.5852ZM24.666 31.176C26.33 31.1013 27.2576 30.8269 27.889 30.5848L27.5312 29.6511C26.9996 29.8548 26.1778 30.1072 24.6212 30.177L24.666 31.176ZM17.9696 31.2711C22.3817 31.2711 22.9135 31.2542 24.6659 31.176L24.6213 30.177C22.8915 30.2542 22.3773 30.2711 17.9696 30.2711V31.2711ZM11.2734 31.176C13.0257 31.2542 13.5572 31.2711 17.9696 31.2711V30.2711C13.5616 30.2711 13.0478 30.2542 11.3179 30.177L11.2734 31.176ZM8.05082 30.5849C8.68228 30.8254 9.60866 31.1006 11.273 31.176L11.3183 30.177C9.76197 30.1065 8.94037 29.8536 8.40674 29.6504L8.05082 30.5849ZM5.97918 29.2622C6.60742 29.8787 7.21688 30.267 8.05069 30.5848L8.40687 29.6504C7.69915 29.3807 7.20754 29.0665 6.67963 28.5484L5.97918 29.2622ZM4.62864 27.2265C4.95434 28.048 5.35115 28.6458 5.97918 29.2622L6.67963 28.5484C6.15152 28.0302 5.83263 27.55 5.55824 26.858L4.62864 27.2265ZM4.02519 24.0565C4.1011 25.6933 4.38259 26.6054 4.62858 27.2264L5.55829 26.8581C5.35215 26.3377 5.0948 25.5343 5.02412 24.0102L4.02519 24.0565ZM3.92969 17.4828C3.92969 21.8133 3.9455 22.3359 4.02519 24.0565L5.02412 24.0103C4.94553 22.3134 4.92969 21.8094 4.92969 17.4828H3.92969ZM4.02519 10.9118C3.9455 12.6324 3.92969 13.1523 3.92969 17.4828H4.92969C4.92969 13.1562 4.94553 12.6549 5.02412 10.958L4.02519 10.9118ZM4.6285 7.74142C4.38257 8.36302 4.10145 9.27498 4.0252 10.9116L5.02411 10.9582C5.09513 9.43401 5.35217 8.63049 5.55837 8.10932L4.6285 7.74142ZM5.97918 5.70445C5.35111 6.32085 4.95355 6.92009 4.62852 7.74138L5.55835 8.10936C5.83204 7.41779 6.15157 6.9364 6.67963 6.41816L5.97918 5.70445ZM8.05033 4.38123C7.21679 4.69969 6.60741 5.08789 5.97918 5.70445L6.67963 6.41816C7.20754 5.90006 7.69925 5.58586 8.40723 5.31538L8.05033 4.38123ZM11.2731 3.78993C9.60907 3.86495 8.682 4.13942 8.05002 4.38135L8.40754 5.31526C8.93996 5.11143 9.76156 4.85909 11.3182 4.78891L11.2731 3.78993ZM16.4874 3.69824C13.4045 3.70162 12.8064 3.72196 11.2735 3.78991L11.3178 4.78893C12.8321 4.7218 13.415 4.70161 16.4885 4.69824L16.4874 3.69824ZM16.988 4.20229V4.19824H15.988V4.20229H16.988ZM25.3039 8.83816C25.3039 8.04918 25.9586 7.39372 26.7859 7.39372V6.39372C25.4247 6.39372 24.3039 7.47873 24.3039 8.83816H25.3039ZM26.7859 10.2833C25.9589 10.2833 25.3039 9.62708 25.3039 8.83816H24.3039C24.3039 10.197 25.4244 11.2833 26.7859 11.2833V10.2833ZM28.2678 8.83816C28.2678 9.62708 27.6128 10.2833 26.7859 10.2833V11.2833C28.1473 11.2833 29.2678 10.197 29.2678 8.83816H28.2678ZM26.7859 7.39305C27.6128 7.39305 28.2678 8.04924 28.2678 8.83816H29.2678C29.2678 7.47935 28.1473 6.39305 26.7859 6.39305V7.39305ZM27.2859 6.89372V6.89305H26.2859V6.89372H27.2859ZM17.9696 8.66639C13.0182 8.66639 8.98779 12.6086 8.98779 17.4906H9.98779C9.98779 13.1785 13.5528 9.66639 17.9696 9.66639V8.66639ZM17.9693 9.66639H17.9696V8.66639H17.9693V9.66639ZM26.95 17.4906C26.95 12.6087 22.9207 8.66639 17.9693 8.66639V9.66639C22.386 9.66639 25.95 13.1784 25.95 17.4906H26.95ZM17.9696 26.313C22.9209 26.313 26.95 22.3726 26.95 17.4906H25.95C25.95 21.8026 22.3865 25.313 17.9696 25.313V26.313ZM8.98779 17.4906C8.98779 22.3727 13.0184 26.313 17.9696 26.313V25.313C13.5526 25.313 9.98779 21.8025 9.98779 17.4906H8.98779Z" fill="url(#paint1_linear_555:458)"/>
<path d="M17.9703 12.0874C21.0107 12.0874 23.4757 14.5063 23.4757 17.4905C23.4757 20.4744 21.0107 22.8936 17.9703 22.8936C14.9296 22.8936 12.4648 20.4744 12.4648 17.4905C12.4648 14.5063 14.9296 12.0874 17.9703 12.0874V12.0874Z" stroke="url(#paint2_linear_555:458)"/>
<defs>
<linearGradient id="paint0_linear_555:458" x1="17.9693" y1="1.28125" x2="17.9693" y2="33.6999" gradientUnits="userSpaceOnUse">
<stop stop-color="#00A8BF"/>
<stop offset="1" stop-color="#17BFAB"/>
</linearGradient>
<linearGradient id="paint1_linear_555:458" x1="17.9694" y1="4.19824" x2="17.9694" y2="30.7711" gradientUnits="userSpaceOnUse">
<stop stop-color="#00A8BF"/>
<stop offset="1" stop-color="#17BFAB"/>
</linearGradient>
<linearGradient id="paint2_linear_555:458" x1="17.9703" y1="12.0874" x2="17.9703" y2="22.8936" gradientUnits="userSpaceOnUse">
<stop stop-color="#00A8BF"/>
<stop offset="1" stop-color="#17BFAB"/>
</linearGradient>
</defs>
</svg>
