<svg width="32" height="27" viewBox="0 0 32 27" fill="none" xmlns="http://www.w3.org/2000/svg">
<path d="M12.8402 17.5433L13.3391 17.5772L13.3578 17.3022L13.1352 17.1396L12.8402 17.5433ZM12.3728 24.4158L11.874 24.3819L11.8376 24.9158H12.3728V24.4158ZM13.7464 23.7418L14.0915 24.1035L14.0916 24.1035L13.7464 23.7418ZM17.046 20.5929L17.3395 20.1881L17.0023 19.9435L16.7008 20.2312L17.046 20.5929ZM23.9108 25.5704L23.6173 25.9752L23.6438 25.9944L23.6727 26.0101L23.9108 25.5704ZM26.4006 24.4193L25.9119 24.3136L25.9115 24.3153L26.4006 24.4193ZM30.9071 3.57791L30.4225 3.45475L30.4203 3.46345L30.4184 3.47223L30.9071 3.57791ZM28.9934 1.47762L29.1703 1.94525L29.1837 1.94017L29.1969 1.93433L28.9934 1.47762ZM2.53154 11.4915L2.35456 11.0238L2.3484 11.0263L2.53154 11.4915ZM2.2023 13.6322L2.34874 13.1541L2.34619 13.1534L2.2023 13.6322ZM8.99299 15.7123L8.84655 16.1904L9.06339 16.2568L9.25621 16.1374L8.99299 15.7123ZM24.7142 5.97834L24.4584 5.5486L24.451 5.55323L24.7142 5.97834ZM25.5784 6.26107L25.25 5.88402L25.2469 5.88676L25.5784 6.26107ZM12.8398 17.543L12.5083 17.1687L12.0435 17.5804L12.5448 17.9467L12.8398 17.543ZM12.3414 17.5094L11.874 24.3819L12.8716 24.4497L13.3391 17.5772L12.3414 17.5094ZM12.3728 24.9158C12.8004 24.9158 13.1359 24.8173 13.4261 24.6474C13.6965 24.489 13.913 24.2738 14.0915 24.1035L13.4012 23.38C13.1964 23.5755 13.0695 23.6973 12.9207 23.7845C12.7916 23.8601 12.632 23.9158 12.3728 23.9158V24.9158ZM14.0916 24.1035L17.3912 20.9546L16.7008 20.2312L13.4012 23.38L14.0916 24.1035ZM16.7525 20.9977L23.6173 25.9752L24.2043 25.1656L17.3395 20.1881L16.7525 20.9977ZM23.6727 26.0101C24.3626 26.3836 25.0819 26.5436 25.7138 26.264C26.3512 25.9819 26.7174 25.3342 26.8897 24.5232L25.9115 24.3153C25.7692 24.9853 25.5221 25.2553 25.3091 25.3495C25.0905 25.4462 24.7223 25.4412 24.1489 25.1307L23.6727 26.0101ZM26.8893 24.5249L31.3958 3.68358L30.4184 3.47223L25.9119 24.3136L26.8893 24.5249ZM31.3917 3.70106C31.6489 2.6889 31.4826 1.81579 30.9207 1.2824C30.3551 0.745604 29.5323 0.690081 28.7899 1.0209L29.1969 1.93433C29.663 1.72665 30.0277 1.81357 30.2322 2.0077C30.4403 2.20522 30.6266 2.65151 30.4225 3.45475L31.3917 3.70106ZM28.8164 1.00998L2.35457 11.0239L2.70851 11.9592L29.1703 1.94525L28.8164 1.00998ZM2.3484 11.0263C1.86473 11.2167 1.47125 11.4373 1.18423 11.6863C0.900992 11.932 0.679826 12.2432 0.642206 12.6126C0.602562 13.0019 0.777908 13.3347 1.04128 13.5786C1.29616 13.8147 1.65036 13.9884 2.0584 14.1111L2.34619 13.1534C2.02099 13.0556 1.82394 12.9405 1.72083 12.845C1.62623 12.7574 1.63687 12.7158 1.63706 12.7139C1.63928 12.6921 1.6625 12.5952 1.83947 12.4417C2.01267 12.2915 2.29522 12.1219 2.71468 11.9568L2.3484 11.0263ZM2.05585 14.1103L8.84655 16.1904L9.13944 15.2342L2.34874 13.1541L2.05585 14.1103ZM9.25621 16.1374L24.9774 6.40345L24.451 5.55323L8.72978 15.2872L9.25621 16.1374ZM24.9699 6.408C25.1109 6.32411 25.24 6.278 25.34 6.25779C25.4495 6.23565 25.4905 6.25064 25.4748 6.24534C25.4643 6.24181 25.4157 6.22364 25.3668 6.1666C25.3107 6.10116 25.2808 6.01461 25.284 5.93048C25.2854 5.89351 25.2928 5.86533 25.2991 5.84776C25.3053 5.83043 25.311 5.82165 25.3111 5.82146C25.3113 5.82117 25.3076 5.82691 25.2973 5.83832C25.2872 5.84963 25.2719 5.86498 25.25 5.88403L25.9068 6.6381C26.0737 6.49279 26.272 6.2665 26.2833 5.9682C26.2896 5.80024 26.2334 5.641 26.1259 5.5157C26.0257 5.39881 25.9008 5.33363 25.7938 5.29759C25.5848 5.22726 25.3514 5.23526 25.1419 5.27761C24.9229 5.32188 24.6886 5.41172 24.4585 5.54867L24.9699 6.408ZM25.2469 5.88676L12.5083 17.1687L13.1713 17.9173L25.9099 6.63537L25.2469 5.88676ZM12.5448 17.9467L12.5452 17.947L13.1352 17.1396L13.1348 17.1393L12.5448 17.9467Z" fill="url(#paint0_linear_555:3587)"/>
<defs>
<linearGradient id="paint0_linear_555:3587" x1="16.0735" y1="1.31494" x2="16.0735" y2="25.9053" gradientUnits="userSpaceOnUse">
<stop stop-color="#00A8BF"/>
<stop offset="1" stop-color="#17BFAB"/>
</linearGradient>
</defs>
</svg>
