<svg width="223" height="65" viewBox="0 0 223 65" fill="none" xmlns="http://www.w3.org/2000/svg">
<g clip-path="url(#clip0_131:7378)">
<path d="M24.2758 1.1361L23.3458 2.28882e-05L22.4157 1.1361C21.4856 2.2722 -0.0265996 29.073 -0.0265996 41.6074C-0.0885941 44.718 0.469794 47.8098 1.61582 50.7017C2.76184 53.5936 4.47252 56.2276 6.64769 58.4494C8.82286 60.6712 11.4188 62.4362 14.2836 63.6412C17.1484 64.8461 20.2245 65.4667 23.3319 65.4667C26.4392 65.4667 29.5152 64.8461 32.3801 63.6412C35.2449 62.4362 37.8409 60.6712 40.016 58.4494C42.1912 56.2276 43.9018 53.5936 45.0478 50.7017C46.1939 47.8098 46.7522 44.718 46.6903 41.6074C46.7182 29.073 25.1966 2.2722 24.2758 1.1361ZM25.0571 62.5974C24.4991 62.5974 23.9317 62.6719 23.3644 62.6719C17.7937 62.6595 12.4555 60.4346 8.52166 56.4853C4.58781 52.536 2.3798 47.1851 2.38228 41.6074C2.47634 39.539 2.90997 37.5003 3.66576 35.573C5.03814 31.9585 6.72491 28.4716 8.70666 25.1526C9.04244 24.6763 9.41234 24.2249 9.81343 23.8023C11.3052 22.3468 13.1397 21.2918 15.1469 20.7349C17.1541 20.178 19.2693 20.1373 21.2964 20.6164C23.3236 21.0955 25.1973 22.079 26.744 23.4759C28.2906 24.8727 29.4602 26.6377 30.1445 28.6074H29.3633C25.2112 28.6134 21.2022 30.1266 18.0793 32.8664C14.9565 35.6062 12.9318 39.3867 12.3804 43.5072C12.2839 44.2514 12.2343 45.001 12.2316 45.7515C12.2316 45.9005 12.2316 46.0494 12.2316 46.1984C12.3369 50.0324 13.7197 53.721 16.16 56.6774C18.6003 59.6338 21.958 61.6882 25.6988 62.5136L25.0571 62.5974ZM14.8265 43.3674C15.392 39.9209 17.1644 36.7885 19.8263 34.5311C22.4881 32.2737 25.8656 31.0387 29.354 31.0473C29.8105 31.0453 30.2668 31.0671 30.7211 31.1125C30.9476 32.86 30.7987 34.6357 30.2845 36.3209C29.7703 38.0061 28.9027 39.562 27.7395 40.8844C26.5764 42.2068 25.1446 43.2652 23.54 43.9889C21.9354 44.7126 20.195 45.085 18.4351 45.081C17.5567 45.0781 16.6809 44.9844 15.8216 44.8016L27.9124 33.841L14.8265 43.3674ZM34.2088 59.5802C32.1044 60.3239 29.8582 60.5766 27.6414 60.3191C25.4247 60.0616 23.2959 59.3007 21.4174 58.0944C19.5389 56.8881 17.9603 55.2683 16.802 53.3584C15.6436 51.4485 14.9362 49.299 14.7335 47.0737C15.9494 47.3831 17.1991 47.5395 18.4537 47.5394C22.4004 47.5394 26.1854 45.9696 28.9761 43.1753C31.7668 40.3811 33.3346 36.5913 33.3346 32.6396C33.3346 32.2578 33.3346 31.8947 33.3346 31.5222C33.2654 30.6327 33.1191 29.751 32.8975 28.8869C32.3571 26.7993 31.369 24.8546 30.0018 23.1883C28.6346 21.522 26.9212 20.1739 24.9808 19.2379C23.0404 18.302 20.9197 17.8006 18.7661 17.7687C16.6125 17.7367 14.4778 18.175 12.5106 19.053C16.9284 12.2457 21.5415 6.20205 23.4667 3.74359C27.624 9.07024 44.4581 31.2522 44.4581 41.5609C44.4581 41.8962 44.4581 42.2314 44.4581 42.5666C44.2835 46.0289 43.2564 49.3941 41.4682 52.3626C39.6799 55.3311 37.186 57.8106 34.2088 59.5802Z" fill="#17BFAB"/>
<path d="M27.8359 60.4277L28.0684 60.3718C24.644 60.0686 21.4341 58.573 18.9973 56.145C16.5605 53.717 15.051 50.5103 14.7314 47.0831C15.9474 47.3925 17.1971 47.5489 18.4517 47.5487C22.3983 47.5487 26.1833 45.9789 28.974 43.1847C31.7647 40.3905 33.3326 36.6006 33.3326 32.649C33.3326 32.2672 33.3326 31.9041 33.3326 31.5316C33.2633 30.6421 33.117 29.7604 32.8954 28.8962C32.3551 26.8087 31.3669 24.864 29.9997 23.1976C28.6325 21.5313 26.9191 20.1833 24.9788 19.2473C23.0384 18.3113 20.9176 17.81 18.764 17.778C16.6105 17.7461 14.4758 18.1843 12.5086 19.0624L7.26303 23.0294C3.29168 29.8088 0.101573 36.7465 0.101573 41.5703C0.0971839 46.3109 1.53257 50.9407 4.21724 54.8456C6.90191 58.7504 10.7089 61.7455 15.1332 63.4336C19.5575 65.1217 24.3899 65.423 28.9891 64.2974C33.5883 63.1717 37.737 60.6724 40.8847 57.1311C36.9922 59.5827 32.4241 60.7368 27.8359 60.4277V60.4277ZM30.8121 32.6863C30.8072 35.9737 29.5001 39.1249 27.1776 41.4485C24.8552 43.7722 21.707 45.0786 18.4237 45.081C17.5453 45.0781 16.6695 44.9844 15.8103 44.8016L27.901 33.841L14.8337 43.3303C15.4069 39.8922 17.1814 36.7697 19.8406 34.52C22.4997 32.2702 25.8706 31.0395 29.3519 31.0473C29.8085 31.0453 30.2648 31.0672 30.7191 31.1126C30.7833 31.6346 30.8144 32.1602 30.8121 32.6863V32.6863ZM25.055 62.5602C24.497 62.5602 23.9297 62.6347 23.3623 62.6347C17.7981 62.6224 12.4656 60.4025 8.53278 56.4612C4.6 52.52 2.3876 47.1787 2.38023 41.6074C2.47429 39.5391 2.90792 37.5003 3.66371 35.5731C5.03609 31.9585 6.72286 28.4717 8.70461 25.1526C9.0404 24.6763 9.41029 24.225 9.81138 23.8023C11.3032 22.3469 13.1376 21.2919 15.1449 20.735C17.1521 20.1781 19.2672 20.1373 21.2944 20.6164C23.3216 21.0955 25.1953 22.0791 26.7419 23.4759C28.2886 24.8728 29.4581 26.6377 30.1424 28.6075H29.3612C25.2092 28.6135 21.2001 30.1267 18.0773 32.8665C14.9545 35.6062 12.9297 39.3867 12.3783 43.5072C12.2819 44.2514 12.2322 45.001 12.2296 45.7515C12.2296 45.9005 12.2296 46.0495 12.2296 46.1985C12.3349 50.0324 13.7176 53.721 16.158 56.6774C18.5983 59.6338 21.956 61.6882 25.6968 62.5137L25.055 62.5602Z" fill="#00A8BF"/>
<path d="M7.16016 23.0667L12.4057 19.0996C10.3357 19.9309 8.52482 21.3004 7.16016 23.0667V23.0667Z" fill="#05A6C5"/>
<path d="M143.118 23.5788H141.593L132.785 44.6805H135.426L138.272 37.808V37.7429L138.328 37.808C138.798 38.4169 139.402 38.9098 140.092 39.249C140.782 39.5881 141.54 39.7645 142.309 39.7645C143.078 39.7645 143.836 39.5881 144.526 39.249C145.216 38.9098 145.819 38.4169 146.29 37.808V37.7429V37.808L149.136 44.6805H151.861L143.118 23.5788ZM145.08 34.9119C145.061 35.1212 145.018 35.3275 144.95 35.5265C144.757 36.069 144.4 36.5383 143.93 36.8701C143.46 37.2019 142.898 37.38 142.323 37.38C141.748 37.38 141.186 37.2019 140.716 36.8701C140.246 36.5383 139.889 36.069 139.695 35.5265C139.631 35.3271 139.591 35.1208 139.575 34.9119C139.57 34.8406 139.57 34.769 139.575 34.6977L141.946 28.9427C142.067 28.6726 142.188 28.3653 142.318 28.0114C142.43 28.2722 142.569 28.5795 142.737 28.9427L145.118 34.6884C145.099 34.7722 145.08 34.8467 145.08 34.9119V34.9119Z" fill="#001F3D"/>
<path d="M72.6571 23.5788H71.1318L62.3242 44.6805H64.9656L67.8115 37.808V37.7429V37.808C68.2826 38.417 68.8867 38.91 69.5775 39.2492C70.2683 39.5883 71.0275 39.7646 71.7969 39.7646C72.5662 39.7646 73.3253 39.5883 74.0161 39.2492C74.7069 38.91 75.311 38.417 75.7821 37.808V37.7429V37.808L78.6374 44.6805H81.3532L72.6571 23.5788ZM74.6102 34.9119C74.5942 35.1208 74.5537 35.3271 74.4894 35.5265C74.2958 36.069 73.9393 36.5383 73.469 36.8701C72.9986 37.2019 72.4373 37.38 71.862 37.38C71.2866 37.38 70.7253 37.2019 70.2549 36.8701C69.7846 36.5383 69.4282 36.069 69.2345 35.5265C69.1702 35.3271 69.1296 35.1208 69.1136 34.9119C69.109 34.8406 69.109 34.769 69.1136 34.6977L71.4853 28.9427C71.6062 28.6726 71.7271 28.3653 71.848 28.0114L72.2758 28.9427L74.6568 34.6884C74.6468 34.7639 74.6312 34.8386 74.6102 34.9119V34.9119Z" fill="#001F3D"/>
<path d="M80.4492 26.0093H87.1456V44.6619H89.601V26.0093H96.2974V23.7185H80.4492V26.0093Z" fill="#001F3D"/>
<path d="M125.557 23.5509L118.517 38.5902C118.396 38.823 118.293 39.0373 118.21 39.2142C118.126 39.0093 118.033 38.7951 117.94 38.5902L111.616 23.5509H109.988L106.547 44.6805H109.049L111.383 29.2686L117.317 43.6375H118.796L125.492 29.2965L125.576 29.1103L127.808 44.6432H130.338L127.148 23.5323L125.557 23.5509Z" fill="#001F3D"/>
<path d="M196.457 34.437H203.562V32.1648H196.457V26.0093H204.316V23.7185H193.992V44.6619H204.613V42.3711H196.457V34.437Z" fill="#001F3D"/>
<path d="M207.141 23.7185V26.0093H213.837V44.6619H216.292V26.0093H222.998V23.7185H207.141Z" fill="#001F3D"/>
<path d="M171.318 42.6691C170.345 42.3471 169.476 41.7719 168.798 41.0022C168.519 40.6949 167.868 39.8753 166.873 38.5809C166.036 37.51 165.301 36.5322 164.668 35.6755C165.532 35.1836 166.271 34.4984 166.826 33.6734C167.528 32.6449 167.877 31.4162 167.821 30.172C167.844 29.2223 167.649 28.2799 167.251 27.4177C166.853 26.5555 166.262 25.7965 165.524 25.1991C164.201 24.1134 162.528 23.5474 160.818 23.6068C159.637 23.6068 158.14 23.6719 156.372 23.8023H155.852V44.6805H158.316V36.672H162.353C164.817 40.0523 166.343 42.0545 167.003 42.7343C167.618 43.4044 168.357 43.9483 169.179 44.336C170.059 44.7196 171.01 44.9162 171.969 44.9134H172.741V42.8925C172.259 42.8849 171.78 42.8097 171.318 42.6691V42.6691ZM160.734 34.437H158.233L158.316 25.9908C159.19 25.9908 159.981 25.9255 160.66 25.9255C161.788 25.8666 162.899 26.2209 163.785 26.922C164.242 27.3318 164.612 27.8303 164.871 28.3874C165.13 28.9445 165.273 29.5485 165.292 30.1627C165.284 31.2397 164.876 32.2753 164.148 33.0681C163.707 33.5244 163.176 33.8823 162.587 34.1182C161.999 34.3542 161.368 34.4628 160.734 34.437V34.437Z" fill="#001F3D"/>
<path d="M189.733 42.818C189.533 42.7989 189.336 42.7551 189.147 42.6877C188.754 42.5671 188.379 42.3949 188.031 42.1756H187.966C187.842 42.1106 187.724 42.0357 187.613 41.952C187.613 41.952 187.613 41.952 187.547 41.8961L187.092 41.5236L186.617 41.0953C185.637 40.1345 184.705 39.1243 183.827 38.0688C182.581 36.6626 181.446 35.3495 180.451 34.1669L180.256 33.9341L183.046 30.7027L185.297 28.1418L189.129 23.7744H186.078L184.097 26.0186L182.395 27.9463L177.866 33.0867V23.7744H175.41V44.6805H177.866V34.8746L179.4 36.6719C179.995 37.3704 180.684 38.1525 181.465 39.0465C183.325 41.1325 184.441 42.4083 184.99 42.9578C185.26 43.2217 185.552 43.4616 185.864 43.6748L186.022 43.7772C186.346 43.9959 186.688 44.186 187.045 44.3453C187.983 44.7293 188.989 44.9194 190.003 44.904H190.57V42.8832C190.254 42.8646 189.752 42.818 189.733 42.818Z" fill="#001F3D"/>
</g>
<defs>
<clipPath id="clip0_131:7378">
<rect width="223" height="65" fill="white"/>
</clipPath>
</defs>
</svg>
