<svg width="77" height="77" viewBox="0 0 77 77" fill="none" xmlns="http://www.w3.org/2000/svg">
<path d="M15.7537 70.0304C19.1866 68.9129 22.6254 67.7955 26.0583 66.6723C27.5272 69.9728 28.9902 73.2733 30.459 76.5738C33.1432 74.1546 35.8274 71.7353 38.5058 69.3161C38.9954 69.7539 39.4792 70.1974 39.9688 70.6352C42.1634 72.6166 44.358 74.5923 46.5525 76.5738C48.0213 73.2733 49.4844 69.9728 50.9532 66.6723C54.3861 67.7897 57.8249 68.9072 61.2579 70.0304C61.2579 66.4188 61.2521 62.8073 61.2521 59.19C64.8463 58.8156 68.4406 58.4412 72.0291 58.0668C70.5545 54.7663 69.0857 51.4658 67.6112 48.1711C70.7389 46.3682 73.8723 44.5653 77 42.7567C74.3158 40.3432 71.6259 37.924 68.9417 35.5106C69.1491 35.2226 69.3622 34.9345 69.5696 34.6465C71.4877 32.0142 73.4 29.3819 75.3181 26.7496C71.8794 25.6379 68.4464 24.5204 65.0076 23.4087C65.7622 19.8778 66.5168 16.3412 67.2656 12.8103C63.6713 13.1905 60.0828 13.5706 56.4886 13.9508C55.7398 10.4141 54.991 6.88323 54.2422 3.34657C51.1145 5.15522 47.9868 6.96387 44.8591 8.77252C43.252 6.55491 41.645 4.34306 40.0379 2.12545C39.5368 1.41697 39.0242 0.708483 38.5058 0C36.3861 2.92609 34.2606 5.84642 32.1409 8.77252C29.0132 6.96387 25.8856 5.15522 22.7579 3.34657C22.0091 6.87747 21.2602 10.4141 20.5114 13.9508C16.9172 13.5706 13.3287 13.1905 9.73444 12.8103C10.489 16.3412 11.2436 19.8778 11.9924 23.4087C8.55364 24.5204 5.12067 25.6379 1.68193 26.7496C3.60002 29.3819 5.51234 32.0142 7.43043 34.6465C7.63779 34.9345 7.85091 35.2226 8.05827 35.5106C5.3741 37.924 2.68417 40.3432 0 42.7567C3.12769 44.5595 6.26114 46.3624 9.38883 48.1711C7.92003 51.4716 6.44548 54.7721 4.97667 58.0668C8.57092 58.4412 12.1652 58.8156 15.7537 59.19C15.7594 62.8015 15.7594 66.4188 15.7537 70.0304Z" fill="#002B4E"/>
<path d="M14.9996 46.6851L14.8613 34.18L18.8127 34.134C18.8127 34.134 22.551 41.5298 22.8562 42.3074H22.9138C22.7238 40.7637 22.5625 34.0936 22.5625 34.0936L25.6211 34.0591L25.7593 46.5641L22.2342 46.6044L17.8335 37.9874C17.9372 39.5599 18.0639 46.6505 18.0639 46.6505L14.9996 46.6851Z" fill="white"/>
<path d="M35.8672 41.4031L31.3801 41.4549L31.4032 43.7532L36.4317 43.6956L36.4605 46.4431L28.0796 46.541L27.9414 34.036L36.0688 33.9438L36.0976 36.6914L31.3283 36.7432L31.3513 38.7477L35.8384 38.6959L35.8672 41.4031Z" fill="white"/>
<path d="M40.321 46.4028L37.3027 33.9323L40.9027 33.892L42.3946 42.9122C42.4868 42.2556 43.8346 33.8632 43.8346 33.8632L47.4173 33.8229C47.4173 33.8229 48.7594 41.9964 48.8516 42.7509L50.1591 33.7941L53.5518 33.7538L50.6141 46.2934L46.9623 46.3337L46.0695 41.4434C45.8564 40.2972 45.4704 37.6994 45.4704 37.6994C45.4704 37.6994 45.0096 40.9596 44.9175 41.4549L44.0247 46.3625L40.321 46.4028Z" fill="white"/>
<path d="M60.268 46.3798C59.0065 46.3913 58.3671 45.7635 58.3556 44.4905C58.3441 43.206 58.9662 42.5551 60.2276 42.5378C61.4776 42.5263 62.1227 43.1599 62.163 44.4444C62.1745 45.7174 61.5524 46.3625 60.291 46.374H60.268V46.3798ZM58.995 41.8697L58.419 33.6962L61.8692 33.6559L61.4776 41.8409L58.995 41.8697Z" fill="white"/>
</svg>
