<svg width="118" height="111" viewBox="0 0 118 111" fill="none" xmlns="http://www.w3.org/2000/svg">
<path d="M55.0483 75.0919L54.0605 98.7308L53.9288 100.144L26.2726 98.2812C24.6922 98.1527 23.2216 97.4782 21.8608 96.2577C20.4999 95.0372 19.4683 93.6348 18.7659 92.0503C18.283 90.894 17.9648 89.7164 17.8111 88.5173C17.6575 87.3182 17.7453 85.9264 18.0745 84.3419C18.4037 82.7574 18.6671 81.5798 18.8647 80.809C19.0622 80.0381 19.5341 78.6677 20.2804 76.6978C21.0267 74.7279 21.4437 73.5931 21.5315 73.2933C24.9556 73.8072 36.1279 74.4068 55.0483 75.0919ZM29.565 37.4496L41.4177 61.7951L31.738 55.8853C28.9724 58.9687 26.525 62.0627 24.3959 65.1675C22.2668 68.2722 20.6755 70.9487 19.6219 73.197C18.5684 75.4452 17.7014 77.4687 17.0209 79.2673C16.3405 81.0659 15.9344 82.4149 15.8027 83.3142L15.5393 84.6631L3.02818 61.7308C2.2819 60.6174 1.88681 59.4183 1.84291 58.1336C1.79901 56.8489 1.93071 55.8425 2.238 55.1145L2.76479 53.9583C4.30125 51.2603 6.80348 47.2349 10.2715 41.8819L1.05273 36.3576L29.565 37.4496ZM110.624 70.6597L98.2447 93.7204C97.7179 94.9623 96.9168 95.958 95.8412 96.7074C94.7657 97.4568 93.8109 97.8958 92.9768 98.0242L91.7916 98.2812C88.6748 98.5809 83.8678 98.8379 77.3708 99.052L77.8976 109.587L62.7525 86.0121L76.6465 62.7586L77.1074 73.8715C84.5702 74.5566 90.7819 74.6637 95.7425 74.1926C100.703 73.7216 104.434 73.015 106.937 72.0728L110.624 70.6597ZM58.9333 11.3055C56.8701 14.0034 51.0535 23.3176 41.4835 39.2482L20.6097 27.236L19.3585 26.4652L34.1744 3.59716C35.0524 2.26962 36.3693 1.30608 38.1253 0.70654C39.8812 0.107003 41.6372 -0.107117 43.3931 0.0641788C44.4467 0.149827 45.5112 0.406771 46.5868 0.835012C47.6623 1.26325 48.5842 1.71291 49.3524 2.18397C50.1206 2.65503 51.0315 3.36163 52.0851 4.30376C53.1387 5.24589 53.9288 5.98461 54.4556 6.51991C54.9824 7.05521 55.7726 7.90098 56.8262 9.05723C57.8797 10.2135 58.5821 10.9629 58.9333 11.3055ZM102.064 31.026L116.024 54.3437C116.814 55.9282 117.088 57.5555 116.847 59.2256C116.605 60.8958 116.002 62.4803 115.036 63.9791C114.465 64.8356 113.741 65.6278 112.863 66.3558C111.985 67.0838 111.151 67.6834 110.361 68.1544C109.571 68.6255 108.506 69.0966 107.167 69.5676C105.828 70.0387 104.797 70.3813 104.072 70.5954C103.348 70.8095 102.218 71.1093 100.681 71.4947C99.1446 71.8801 98.1349 72.1371 97.6521 72.2656C96.1595 69.1822 90.3429 59.8466 80.2023 44.2586L100.813 31.7326L102.064 31.026ZM92.6476 16.5086L101.998 11.177L87.5114 35.1371L59.921 33.8524L69.8641 28.3281C68.3716 24.5167 66.7253 20.9623 64.9255 17.6649C63.1256 14.3674 61.4685 11.723 59.954 9.73171C58.4394 7.74039 57.0237 6.02743 55.7067 4.59282C54.3898 3.15822 53.3582 2.16256 52.6119 1.60585L51.4925 0.770776L78.161 0.835012C79.5219 0.70654 80.7949 0.931366 81.9802 1.50949C83.1655 2.08762 84.0215 2.69786 84.5483 3.34022L85.2726 4.30376C86.9846 6.91603 89.443 10.9843 92.6476 16.5086Z" fill="#00B6CB"/>
</svg>
