<svg width="43" height="112" viewBox="0 0 43 112" fill="none" xmlns="http://www.w3.org/2000/svg">
<path d="M41.0943 68.7972C41.722 68.7972 42.2322 68.2867 42.2322 67.6587V40.0082C42.2322 34.5911 40.5213 29.3138 37.3426 24.9299C34.1477 20.5237 30.9528 16.1155 27.7579 11.7093H28.4119V7.00537H13.8547V11.7073H14.4742C11.2793 16.1135 8.08443 20.5217 4.88953 24.9279C1.71083 29.3118 0 34.5911 0 40.0061V67.6567C0 68.2847 0.510211 68.7952 1.13785 68.7952C1.76549 68.7952 1.63795 69.9438 1.63795 70.5739V71.7813C1.63795 72.4093 1.76752 72.9198 1.13785 72.9198C0.510211 72.9198 0 73.4303 0 74.0583V104.849C0 108.797 3.19895 111.998 7.145 111.998H35.0872C39.0332 111.998 42.2322 108.797 42.2322 104.849V74.0603C42.2322 73.4323 41.722 72.9218 41.0943 72.9218C40.4667 72.9218 40.5942 72.4113 40.5942 71.7833V70.5759C40.5963 69.9459 40.4667 68.7972 41.0943 68.7972Z" fill="#D7E2F4"/>
<path d="M41.0943 67.9098C41.234 67.9098 41.3454 67.7964 41.3454 67.6586V40.0081C41.3454 34.745 39.7135 29.7108 36.6239 25.4504L30.8455 17.4808H11.3846L5.60625 25.4504C2.51866 29.7108 0.884766 34.745 0.884766 40.0081V67.6586C0.884766 67.7984 0.998156 67.9098 1.13583 67.9098C1.48812 67.9098 1.81409 68.0455 2.05502 68.2927C2.56321 68.8153 2.54296 69.6459 2.52677 70.3124C2.52474 70.4056 2.52271 70.4948 2.52271 70.5738V71.7812C2.52271 71.8662 2.52473 71.9513 2.52878 72.0303C2.54295 72.4598 2.55916 72.9967 2.15625 73.414C1.90317 73.6753 1.561 73.807 1.13785 73.807C0.998146 73.807 0.886792 73.9204 0.886792 74.0582V104.847C0.886792 108.301 3.69499 111.109 7.14499 111.109H35.0872C38.5392 111.109 41.3454 108.299 41.3454 104.847V74.0602C41.3454 73.9204 41.232 73.809 41.0943 73.809C40.6712 73.809 40.329 73.6773 40.0759 73.416C39.673 72.9987 39.6892 72.4639 39.7034 72.0324C39.7054 71.9534 39.7095 71.8683 39.7095 71.7832V70.5758C39.7095 70.4968 39.7074 70.4077 39.7054 70.3145C39.6892 69.648 39.6669 68.8174 40.1771 68.2947C40.416 68.0476 40.742 67.9098 41.0943 67.9098Z" fill="#A5C8F2"/>
<path d="M0.00195312 40.0081V65.5376H42.2321V40.0081C42.2321 38.4137 42.0802 36.8316 41.7887 35.2798H0.445352C0.153802 36.8295 0.00195312 38.4117 0.00195312 40.0081Z" fill="#8BCCD9"/>
<path d="M30.2843 53.3063C33.0535 48.2501 31.2019 41.905 26.1487 39.1342C21.0954 36.3634 14.754 38.2161 11.9848 43.2723C9.2156 48.3285 11.0672 54.6736 16.1204 57.4444C21.1737 60.2152 27.5151 58.3625 30.2843 53.3063Z" fill="#DFEEFF"/>
<path d="M37.1409 80.5563C37.3671 79.5981 36.7741 78.638 35.8164 78.4117C34.8588 78.1855 33.8992 78.7788 33.6731 79.737C33.447 80.6952 34.04 81.6553 34.9976 81.8816C35.9552 82.1078 36.9148 81.5145 37.1409 80.5563Z" fill="#C2E1FF"/>
<path d="M20.7484 21.0179C20.5277 21.8465 19.6774 22.3408 18.8493 22.12C18.0212 21.8992 17.5272 21.0483 17.7479 20.2197C17.9686 19.3912 18.8189 18.8969 19.647 19.1177C20.4771 19.3385 20.9691 20.1894 20.7484 21.0179Z" fill="#C2E1FF"/>
<path d="M32.9842 30.3636C33.9376 29.9799 34.3996 28.8954 34.0161 27.9415C33.6326 26.9875 32.5488 26.5252 31.5954 26.909C30.642 27.2927 30.18 28.3771 30.5635 29.3311C30.947 30.2851 32.0308 30.7473 32.9842 30.3636Z" fill="#C2E1FF"/>
<path d="M15.524 31.1207C15.3358 31.8278 14.6089 32.2491 13.9023 32.0607C13.1957 31.8723 12.7746 31.1451 12.9629 30.438C13.1512 29.731 13.878 29.3097 14.5846 29.4981C15.2932 29.6865 15.7144 30.4117 15.524 31.1207Z" fill="#C2E1FF"/>
<path d="M41.0951 68.7972C41.7227 68.7972 42.2329 68.2867 42.2329 67.6587V40.0082C42.2329 34.5911 40.5221 29.3138 37.3434 24.9299C34.1485 20.5237 30.9536 16.1155 27.7587 11.7093H28.4127V7.00537H22.8712C23.434 7.21403 23.839 7.7529 23.839 8.38901V10.2285C23.839 11.0449 23.1769 11.7073 22.361 11.7073H14.475L12.918 13.8547C16.2445 13.8689 19.571 13.8851 22.8975 13.9013C25.562 17.5782 28.2264 21.253 30.8908 24.9299C34.0695 29.3138 35.7804 34.5931 35.7804 40.0082V67.6587C35.7804 68.2867 35.2701 68.7972 34.6425 68.7972H1.14062C1.76827 68.7972 1.64072 69.9459 1.64072 70.5759V71.7833C1.64072 72.3627 1.74803 72.8387 1.27426 72.9117H34.5129C34.5534 72.9178 34.5959 72.9218 34.6466 72.9218C35.2742 72.9218 35.7844 73.4323 35.7844 74.0603V104.851C35.7844 108.799 32.5855 112 28.6394 112H35.0899C39.036 112 42.2349 108.799 42.2349 104.851V74.0603C42.2349 73.4323 41.7247 72.9218 41.0971 72.9218C40.4694 72.9218 40.597 72.4113 40.597 71.7833V70.5759C40.597 69.9459 40.4674 68.7972 41.0951 68.7972Z" fill="#D1DFE5"/>
<path d="M42.2322 54.9628C41.9345 55.3052 41.6329 55.6475 41.3292 55.9838C39.015 53.7514 36.8749 51.288 34.9455 48.6321C33.8744 49.88 32.8034 51.1299 31.7344 52.3778C30.1005 48.2472 28.1771 44.2624 25.9904 40.472C23.1296 44.6837 20.2688 48.8954 17.4079 53.1071C17.2399 53.3543 17.0253 53.6258 16.7499 53.6014C16.5353 53.5832 16.3693 53.3867 16.2276 53.2024C14.1321 50.508 11.9292 47.919 9.63126 45.4434C9.46929 45.2692 9.28504 45.0849 9.06233 45.0768C8.8295 45.0666 8.62906 45.251 8.45494 45.4232C5.63663 48.1905 2.81831 50.9598 0 53.727V65.5376H42.2301V54.9628H42.2322Z" fill="#05A6C5"/>
<path opacity="0.53" d="M3.08638 68.6979C3.11473 68.6939 3.14307 68.6898 3.17547 68.6898H5.79335C5.40461 68.5075 5.13534 68.1165 5.13534 67.6587V40.0081C5.11104 38.4563 5.2062 36.0861 5.89458 33.3208C6.66192 30.2335 7.71675 28.4589 10.4925 22.983C11.3834 21.2266 12.7095 18.5769 14.2948 15.2788C12.1548 17.5255 10.1099 21.0524 7.29967 24.9278C4.12098 29.3117 2.41016 34.591 2.41016 40.0061V67.6566C2.41016 68.1226 2.68753 68.5217 3.08638 68.6979Z" fill="white"/>
<path opacity="0.53" d="M5.13472 105.398V74.6073C5.13472 73.9793 5.64493 73.4688 6.27256 73.4688C6.30293 73.4688 6.33128 73.4667 6.3576 73.4647H3.63243C3.60611 73.4667 3.57777 73.4688 3.5474 73.4688C2.91976 73.4688 2.40955 73.9793 2.40955 74.6073V105.398C2.38931 105.748 2.27795 108.651 4.50302 110.452C5.57001 111.315 6.71595 111.554 7.32537 111.631C6.85768 111.04 6.27459 110.167 5.82714 109.012C5.25619 107.547 5.14079 106.245 5.13472 105.398Z" fill="white"/>
<path d="M23.1946 78.9527C23.1946 80.2006 22.1844 81.2114 20.9372 81.2114C19.69 81.2114 18.6797 80.2006 18.6797 78.9527C18.6797 77.7047 19.69 76.6938 20.9372 76.6938C22.1844 76.6959 23.1946 77.7068 23.1946 78.9527Z" fill="#C2E1FF"/>
<path d="M15.3522 95.9893C15.5526 94.758 14.7174 93.5974 13.4869 93.3969C12.2563 93.1964 11.0963 94.0321 10.896 95.2634C10.6956 96.4946 11.5308 97.6553 12.7613 97.8558C13.9919 98.0563 15.1519 97.2206 15.3522 95.9893Z" fill="#C2E1FF"/>
<path d="M29.1868 87.7752C29.1868 89.0231 28.1765 90.034 26.9294 90.034C25.6822 90.034 24.6719 89.0231 24.6719 87.7752C24.6719 86.5272 25.6822 85.5164 26.9294 85.5164C28.1765 85.5164 29.1868 86.5272 29.1868 87.7752Z" fill="#C2E1FF"/>
<path d="M23.9748 107.324C24.6706 106.628 24.6706 105.499 23.9748 104.803C23.279 104.107 22.1509 104.107 21.4551 104.803C20.7594 105.499 20.7594 106.628 21.4551 107.324C22.1509 108.02 23.279 108.02 23.9748 107.324Z" fill="#C2E1FF"/>
<path d="M27.127 0H22.7578C23.758 0 24.5679 1.13041 24.5679 2.52621V8.45581H28.9371V2.52621C28.9371 1.13041 28.1272 0 27.127 0Z" fill="#D1DFE5"/>
<path d="M27.0779 0H15.1771C14.1485 0 13.3164 0.834642 13.3164 1.86174V8.45379H28.9406V1.86174C28.9385 0.834642 28.1064 0 27.0779 0Z" fill="#405472"/>
</svg>
