<svg width="124" height="114" viewBox="0 0 124 114" fill="none" xmlns="http://www.w3.org/2000/svg">
<path d="M67.6433 14.265L111.175 34.6301L54.9457 51.0639L11.1328 28.8867L67.6433 14.265Z" fill="#0C5E6D"/>
<path d="M67.6445 14.265V76.3602L110.918 94.1608L111.176 34.6301L67.6445 14.265Z" fill="#002B4E"/>
<path d="M55.0625 51.0639V114L110.917 94.1608L111.175 34.6301L55.0625 51.0639Z" fill="#00B6CB"/>
<path d="M11.1328 28.8866V87.204L55.0629 114V51.0638L11.1328 28.8866Z" fill="#8BCCD9"/>
<path d="M0.101562 12.8903L11.1329 28.8866L67.6434 14.265L56.5704 0L0.101562 12.8903Z" fill="#0889A2"/>
<path d="M11.1328 28.8866L34.3723 17.647L74.8813 39.4363L55.0629 51.0638L11.1328 28.8866Z" fill="#08A3C0"/>
<path d="M67.644 14.265L45.2168 13.6583L86.3402 36.9811L111.176 34.6301L67.644 14.265Z" fill="#92CEDA"/>
<path d="M0 14.7831L11.1329 28.8866L11.5338 28.772L0.101527 12.8903" fill="#D6F8FF"/>
<path d="M86.3402 36.9811L45.2168 13.6583L45.4199 15.0903L85.6242 37.6971L86.3402 36.9811Z" fill="#D6F8FF"/>
<path d="M55.0547 51.069L69.101 33.2476L123.628 18.415L111.175 34.6301L55.0547 51.069Z" fill="#018A9A"/>
<path d="M55.0547 51.069L69.1036 33.2476L69.7675 34.0651C69.7675 34.0651 56.0701 51.5793 55.0547 51.069Z" fill="#DADADA"/>
<path d="M69.0996 33.2476L69.7635 34.0651C69.7635 34.0651 122.856 19.9486 123.624 18.4125L69.0996 33.2476Z" fill="#D6F8FF"/>
<path d="M92.4279 46.4659L92.4149 46.1456L92.2821 46.1899L92.2951 46.5101C90.4648 47.1636 90.3164 49.4756 90.3164 49.4756C90.3164 49.4756 91.2511 48.895 91.6156 49.4027C91.6156 49.4027 91.9436 49.0512 92.3941 48.8534L92.5008 51.3476C92.5008 51.3476 92.5295 51.7381 92.5138 51.8449C92.4904 52.0089 92.355 51.9959 92.3342 51.8605C92.3186 51.7459 92.2379 51.7693 92.2248 51.8657C92.2118 51.962 92.3003 52.1833 92.4826 52.0974C92.6648 52.0115 92.6518 51.824 92.6518 51.824L92.6284 51.3059L92.5216 48.8039C92.7924 48.7102 93.097 48.6841 93.3938 48.8195C93.3938 48.8195 94.1541 47.9161 94.6461 48.1634C94.6514 48.1608 94.4014 45.8697 92.4279 46.4659Z" fill="#5B534D"/>
<path d="M95.6247 46.4373C95.5726 45.2266 94.7056 44.5132 93.6902 44.8465L90.9721 45.7395C89.9567 46.0728 89.173 47.3277 89.2251 48.5383L89.3631 51.7772C89.4151 52.9878 90.2821 53.7012 91.2975 53.368L94.0157 52.4749C95.031 52.1417 95.8147 50.8868 95.7627 49.6761L95.6247 46.4373ZM93.9948 51.8969L91.2767 52.79C90.5269 53.0347 89.889 52.5088 89.8499 51.6184L89.7094 48.3795C89.6703 47.4865 90.2483 46.5622 90.9981 46.3149L93.7163 45.4219C94.4661 45.1771 95.104 45.7031 95.143 46.5935L95.281 49.8323C95.3201 50.7253 94.7421 51.6522 93.9948 51.8969Z" fill="#5B534D"/>
<path d="M82.9829 53.9094L83.3188 53.8001L83.2068 51.2147L83.8109 51.0169L82.9725 49.676L82.2695 51.522L82.8736 51.3241L82.9829 53.9094Z" fill="#5B534D"/>
<path d="M82.4023 54.4823L82.4206 54.8806L86.227 53.6309L86.2114 53.2325L82.4023 54.4823Z" fill="#5B534D"/>
<path d="M84.5625 50.7695L85.1665 50.5716L85.2785 53.157L85.6144 53.0476L85.5024 50.4623L86.1064 50.2618L85.2655 48.9236L84.5625 50.7695Z" fill="#5B534D"/>
<path d="M85.4207 47.5177L82.7026 48.4108C81.6872 48.744 80.9035 49.9989 80.9556 51.2096L81.0961 54.4484C81.1482 55.6591 82.0152 56.3725 83.0306 56.0392L85.7487 55.1462C86.7641 54.8129 87.5478 53.558 87.4957 52.3474L87.3551 49.1085C87.3031 47.8979 86.4335 47.1845 85.4207 47.5177ZM85.7227 54.5682L83.0046 55.4612C82.2548 55.706 81.6169 55.18 81.5778 54.2896L81.4372 51.0508C81.3982 50.1578 81.9762 49.2335 82.726 48.9862L85.4441 48.0931C86.194 47.8484 86.8318 48.3743 86.8709 49.2647L87.0089 52.5036C87.0505 53.3966 86.4725 54.3235 85.7227 54.5682Z" fill="#5B534D"/>
<path d="M75.794 51.9151L75.7861 51.9177L75.6872 51.949L75.9476 52.6779L76.1663 52.4592L76.4579 53.6204L76.0726 52.7613L75.8929 52.9409L75.5206 52.0036L75.0389 52.1598C75.0389 52.1598 74.5026 53.761 74.7031 54.6072C74.8749 55.3388 75.656 55.1019 75.8643 55.0238L75.9424 56.9921C75.643 57.1092 75.3149 57.3462 75.1301 57.4946C75.0962 57.5206 75.1092 57.5779 75.1457 57.5675L76.8953 57.0025C76.9317 56.9921 76.9395 56.927 76.9057 56.9218C76.7156 56.8931 76.372 56.8619 76.0621 56.9504L75.984 54.9847C76.2209 54.9144 76.9526 54.641 77.0593 53.8444C77.1869 52.8914 76.5412 51.673 76.5412 51.673L75.794 51.9151Z" fill="#5B534D"/>
<path d="M77.098 50.2125L74.3798 51.0899C73.3644 51.4179 72.5782 52.6702 72.625 53.8809L72.7526 57.1249C72.7995 58.3356 73.6639 59.0542 74.6792 58.7261L77.3974 57.8487C78.4128 57.5207 79.199 56.2684 79.1522 55.0577L79.0246 51.8136C78.9777 50.603 78.1134 49.8844 77.098 50.2125ZM78.6705 55.2113C78.7044 56.1043 78.1238 57.0286 77.3766 57.2707L74.6584 58.1481C73.9086 58.3903 73.2733 57.8591 73.2369 56.9661L73.1093 53.7221C73.0755 52.829 73.656 51.9048 74.4033 51.6626L77.1214 50.7852C77.8712 50.5431 78.5065 51.0742 78.543 51.9673L78.6705 55.2113Z" fill="#5B534D"/>
</svg>
