<svg width="113" height="113" viewBox="0 0 113 113" fill="none" xmlns="http://www.w3.org/2000/svg">
<g clip-path="url(#clip0_168:3136)">
<path d="M106.382 13.6827V46.7856C106.382 48.6392 104.925 50.0953 103.071 50.0953C101.217 50.0953 99.7605 48.6392 99.7605 46.7856V13.6827C99.7605 11.8292 98.3044 10.3722 96.4508 10.3722H86.3209L79.9395 6.96163L86.7838 3.75195H96.4508C101.945 3.75195 106.382 8.18757 106.382 13.6827Z" fill="#D2C5C2"/>
<path d="M83.9382 43.4751L78.7741 99.7501C78.7741 101.604 77.3172 103.06 75.4636 103.06H29.6496C24.4855 103.06 20.2481 99.1535 19.7852 94.0558L15.2168 43.4751L20.5352 39.0619H78.1336L83.9382 43.4751Z" fill="#8BCCD9"/>
<path d="M83.9368 43.4751L78.7727 99.7501C78.7727 101.604 77.3158 103.06 75.4622 103.06H50.1055V39.0619H78.1322L83.9368 43.4751Z" fill="#05A6C5"/>
<path d="M86.7846 3.75195L86.3208 10.3722L83.9379 43.4751H15.2164L13.7595 28.0491L0.540542 8.91606C-0.121568 7.85651 -0.187089 6.59868 0.408637 5.47361C1.00436 4.41406 2.12943 3.75195 3.32175 3.75195H86.7846Z" fill="#EDE9E8"/>
<path d="M86.7836 3.75195L86.3197 10.3722L83.9368 43.4751H50.1055V3.75195H86.7836Z" fill="#DFD7D5"/>
<path d="M60.0373 33.5443C60.0373 35.3979 58.5812 36.8549 56.7268 36.8549H43.4863C41.6319 36.8549 40.1758 35.3979 40.1758 33.5443C40.1758 31.6907 41.6319 30.2338 43.4863 30.2338H56.7268C58.5812 30.2338 60.0373 31.6907 60.0373 33.5443Z" fill="#DFD7D5"/>
<path d="M60.0373 60.027C60.0373 61.8797 58.5812 63.3366 56.7268 63.3366H43.4863C41.6319 63.3366 40.1758 61.8797 40.1758 60.027C40.1758 58.1726 41.6319 56.7164 43.4863 56.7164H56.7268C58.5812 56.7164 60.0373 58.1726 60.0373 60.027Z" fill="#05A6C5"/>
<path d="M60.0373 79.8884C60.0373 81.742 58.5812 83.1981 56.7268 83.1981H43.4863C41.6319 83.1981 40.1758 81.742 40.1758 79.8884C40.1758 78.034 41.6319 76.5779 43.4863 76.5779H56.7268C58.5812 76.5779 60.0373 78.034 60.0373 79.8884Z" fill="#05A6C5"/>
<path d="M112.936 67.1766L110.288 83.1982L89.8302 89.8185L69.3729 83.1982L66.7245 67.1766C66.5262 66.2498 66.7909 65.2566 67.453 64.5281C68.0487 63.7341 68.9755 63.3367 69.9687 63.3367H109.692C110.685 63.3367 111.612 63.7341 112.207 64.5281C112.87 65.2566 113.135 66.2498 112.936 67.1766Z" fill="#EDE9E8"/>
<path d="M112.936 67.1766L110.288 83.1982L89.8301 89.8185V63.3367H109.692C110.685 63.3367 111.612 63.7341 112.207 64.5281C112.869 65.2566 113.135 66.2498 112.936 67.1766Z" fill="#DFD7D5"/>
<path d="M110.288 83.1982L107.243 101.405C106.448 106.171 102.343 109.681 97.4446 109.681H82.2169C77.3175 109.681 73.2129 106.171 72.4189 101.405L69.373 83.1982H110.288Z" fill="#8BCCD9"/>
<path d="M110.288 83.1982L107.242 101.405C106.447 106.171 102.343 109.681 97.4443 109.681H89.8301V83.1982H110.288Z" fill="#05A6C5"/>
<path d="M60.0362 79.8884C60.0362 81.742 58.5801 83.1981 56.7257 83.1981H50.1055V76.5779H56.7257C58.5801 76.5779 60.0362 78.034 60.0362 79.8884Z" fill="#00596A"/>
<path d="M60.0362 60.027C60.0362 61.8797 58.5801 63.3366 56.7257 63.3366H50.1055V56.7164H56.7257C58.5801 56.7164 60.0362 58.1726 60.0362 60.027Z" fill="#00596A"/>
<path d="M56.7257 36.8549H50.1055V30.2338H56.7257C58.5801 30.2338 60.0362 31.6907 60.0362 33.5443C60.0362 35.3979 58.5801 36.8549 56.7257 36.8549Z" fill="#D2C5C2"/>
</g>
<defs>
<clipPath id="clip0_168:3136">
<rect width="113" height="113" fill="white"/>
</clipPath>
</defs>
</svg>
