<svg width="168" height="113" viewBox="0 0 168 113" fill="none" xmlns="http://www.w3.org/2000/svg">
<path d="M128.101 22.8278H118.477V45.1549H128.101V22.8278Z" fill="#EAE5D2"/>
<path fill-rule="evenodd" clip-rule="evenodd" d="M123.289 22.8278H128.101V45.1697H118.477V39.1821H123.289V22.8278Z" fill="#D6D1BF"/>
<path d="M130.828 21.5319H115.75V26.0449H130.828V21.5319Z" fill="#6C7890"/>
<path d="M130.828 21.5319H123.289V26.0449H130.828V21.5319Z" fill="#495A6E"/>
<path fill-rule="evenodd" clip-rule="evenodd" d="M33.9099 3.68811L168 57.294V62.671L33.8652 9.12466L33.9099 3.68811Z" fill="#A6A6A6"/>
<path fill-rule="evenodd" clip-rule="evenodd" d="M54.1575 22.5894H4.97623C3.60553 22.5894 2.36893 23.0958 1.47499 23.915C0.566158 24.7342 0 25.8513 0 27.1024V50.07C0 51.3063 0.566158 52.4234 1.46009 53.2426C2.36893 54.0618 3.60553 54.5682 4.96133 54.5682H54.1575C55.5282 54.5682 56.7648 54.0618 57.6736 53.2426C58.5825 52.4234 59.1337 51.2914 59.1337 50.0551V27.1024C59.1337 25.8662 58.5676 24.7342 57.6736 23.915C56.7797 23.0958 55.5282 22.5894 54.1575 22.5894ZM4.97623 25.1066H54.1724C54.7684 25.1066 55.3196 25.33 55.7219 25.6874C56.1242 26.0449 56.3625 26.5513 56.3625 27.0875V50.07C56.3625 50.6211 56.1242 51.1126 55.7219 51.4701C55.3196 51.8276 54.7833 52.051 54.1724 52.051H4.97623C4.36538 52.051 3.82902 51.8276 3.42675 51.4701C3.03938 51.1126 2.78609 50.6211 2.78609 50.07V27.1024C2.78609 26.5513 3.02448 26.0598 3.42675 25.7023C3.81412 25.33 4.36538 25.1066 4.97623 25.1066Z" fill="#495A6E"/>
<path fill-rule="evenodd" clip-rule="evenodd" d="M43.6389 58.6792H4.97623C3.60553 58.6792 2.36893 59.1856 1.47499 60.0048C0.566158 60.824 0 61.9411 0 63.1923V86.1598C0 87.3961 0.566158 88.5281 1.46009 89.3473C2.36893 90.1665 3.60553 90.6729 4.96133 90.6729H43.624C44.9947 90.6729 46.2313 90.1665 47.1401 89.3473C48.049 88.5281 48.6002 87.3961 48.6002 86.1598V63.1923C48.6002 61.956 48.0341 60.824 47.1401 60.0048C46.2462 59.1856 45.0096 58.6792 43.6389 58.6792ZM4.97623 61.1964H43.6389C44.2348 61.1964 44.7861 61.4198 45.1884 61.7773C45.5906 62.1348 45.829 62.6412 45.829 63.1774V86.1449C45.829 86.696 45.5906 87.1876 45.1884 87.545C44.7861 87.9025 44.2497 88.1259 43.6389 88.1259H4.97623C4.36538 88.1259 3.82902 87.9025 3.42675 87.545C3.03938 87.1876 2.78609 86.696 2.78609 86.1449V63.1923C2.78609 62.6412 3.02448 62.1496 3.42675 61.7922C3.81412 61.4198 4.36538 61.1964 4.97623 61.1964Z" fill="#495A6E"/>
<path d="M34.7722 4.96899H11.1426V112.33H34.7722V4.96899Z" fill="#D2DCE6"/>
<path d="M34.7738 4.96899H22.959V112.33H34.7738V4.96899Z" fill="#AFC0D1"/>
<path d="M38.9149 79.7551H7.03125V86.0109H38.9149V79.7551Z" fill="#00B6CB"/>
<path d="M38.9149 99.3564H7.03125V105.612H38.9149V99.3564Z" fill="#00B6CB"/>
<path d="M38.9149 25.9705H7.03125V32.2262H38.9149V25.9705Z" fill="#6C7890"/>
<path d="M38.0059 0.396362H7.91016V11.195H38.0059V0.396362Z" fill="#00B6CB"/>
<path d="M38.9008 79.7551H22.959V86.0109H38.9008V79.7551Z" fill="#018099"/>
<path d="M38.9008 99.3564H22.959V105.612H38.9008V99.3564Z" fill="#018099"/>
<path d="M38.9008 25.9705H22.959V32.2262H38.9008V25.9705Z" fill="#495A6E"/>
<path d="M38.0069 0.396362H22.959V11.195H38.0069V0.396362Z" fill="#018099"/>
<path fill-rule="evenodd" clip-rule="evenodd" d="M38.4844 10.912L165.646 61.7624V113H38.4844V10.912Z" fill="#9DCED8"/>
<path opacity="0.5" fill-rule="evenodd" clip-rule="evenodd" d="M38.9015 11.0907L140.855 113H38.4844V10.912L38.9015 11.0907Z" fill="#05A6C5"/>
<path d="M152.862 62.0156H130.32V80.5893H152.862V62.0156Z" fill="#4E5D70"/>
<path fill-rule="evenodd" clip-rule="evenodd" d="M129.502 61.3453H153.668V81.2595H129.502V61.3453ZM138.218 62.0156V80.5892H145.131V62.0156H138.218ZM137.458 80.5892V62.0156H130.321V80.5892H137.458V80.5892ZM145.906 62.0156V80.5892H152.863V62.0156H145.906Z" fill="#A19A94"/>
<path d="M152.862 88.6323H130.32V107.206H152.862V88.6323Z" fill="#4E5D70"/>
<path fill-rule="evenodd" clip-rule="evenodd" d="M129.502 87.962H153.668V107.876H129.502V87.962ZM138.218 88.6323V107.206H145.131V88.6323H138.218ZM137.458 107.206V88.6323H130.321V107.206H137.458ZM145.906 88.6323V107.206H152.863V88.6323H145.906Z" fill="#A19A94"/>
<path opacity="0.5" fill-rule="evenodd" clip-rule="evenodd" d="M118.669 65.0243L165.645 111.362V113H118.252V64.8605L118.669 65.0243Z" fill="#51BACF"/>
<path fill-rule="evenodd" clip-rule="evenodd" d="M38.752 113H118.565V69.9842L78.2638 45.84V69.3586L38.752 45.84V113Z" fill="#EAE5D2"/>
<path d="M71.3798 78.6082H46.2305V99.3266H71.3798V78.6082Z" fill="#4E5D70"/>
<path fill-rule="evenodd" clip-rule="evenodd" d="M45.3223 77.8486H72.2893V100.057H45.3223V77.8486ZM55.0512 78.6083V99.3267H62.7689V78.6083H55.0512ZM54.202 99.3118V78.6083H46.2311V99.3267H54.202V99.3118ZM63.633 78.6083V99.3267H71.3953V78.6083H63.633Z" fill="#A19A94"/>
<path d="M110.593 78.6082H85.4434V99.3266H110.593V78.6082Z" fill="#4E5D70"/>
<path fill-rule="evenodd" clip-rule="evenodd" d="M84.5352 77.8486H111.502V100.057H84.5352V77.8486ZM94.2641 78.6083V99.3267H101.982V78.6083H94.2641ZM93.4 99.3118V78.6083H85.444V99.3267H93.4V99.3118ZM102.846 78.6083V99.3267H110.608V78.6083H102.846Z" fill="#A19A94"/>
<path fill-rule="evenodd" clip-rule="evenodd" d="M118.565 69.9843V65.0095L75.6856 39.3162V44.291L118.565 69.9843ZM78.2631 64.3839V69.3587L36.9336 44.8123V39.8375L78.2631 64.3839Z" fill="#A19A94"/>
<path d="M120.07 107.206H37.2617V113H120.07V107.206Z" fill="#A19A94"/>
</svg>
