<svg width="44" height="45" viewBox="0 0 44 45" fill="none" xmlns="http://www.w3.org/2000/svg">
<g clip-path="url(#clip0_156:4271)">
<path d="M27.7989 2.5511L17.5697 5.292C17.0288 5.43693 16.6231 5.54564 16.2511 5.77991C15.879 6.01419 15.5387 6.4056 15.3989 6.88824L5.41386 24.1404C3.936 26.7001 4.83411 30.0519 7.40159 31.5587L20.915 39.3362C23.511 40.9493 26.882 40.046 28.4589 37.3148L38.3423 20.2245C38.5281 19.8745 38.7047 19.413 38.8471 18.94C38.8471 18.94 38.8471 18.94 38.8057 18.7855C38.8976 18.6263 38.8976 18.6263 38.8976 18.6263C38.7889 18.2206 38.8736 17.9184 38.5741 17.4189L35.9826 7.12899C34.8308 2.83062 32.1166 1.39418 27.7989 2.5511ZM32.189 9.73979C31.4961 10.94 29.7574 11.4059 28.5235 10.5874C27.8739 10.3266 28.1735 10.4016 28.5235 10.5874C27.1977 9.92807 26.7318 8.1894 27.3958 6.99691C28.2 5.63227 29.9483 5.16381 31.2935 5.81795C32.66 6.59059 33.1259 8.32926 32.189 9.73979Z" fill="#05A6C5"/>
</g>
<defs>
<clipPath id="clip0_156:4271">
<rect width="35.5" height="35.42" fill="white" transform="translate(0 9.99988) rotate(-15)"/>
</clipPath>
</defs>
</svg>
