<svg width="66" height="45" viewBox="0 0 66 45" fill="none" xmlns="http://www.w3.org/2000/svg">
<path d="M14.4878 16.3636C22.4536 16.3636 28.9112 22.7742 28.9112 30.6818C28.9112 38.5894 22.4536 45 14.4878 45C6.52196 45 0.0643902 38.5894 0.0643902 30.6818L0 28.6364C0 12.8209 12.9151 0 28.8468 0V8.18182C23.3431 8.18182 18.1687 10.3095 14.277 14.1728C13.5279 14.9166 12.8442 15.7079 12.2274 16.5392C12.9639 16.4241 13.7187 16.3636 14.4878 16.3636ZM51.5766 16.3636C59.5423 16.3636 66 22.7742 66 30.6818C66 38.5894 59.5423 45 51.5766 45C43.6109 45 37.1532 38.5894 37.1532 30.6818L37.0888 28.6364C37.0888 12.8209 50.0038 0 65.9356 0V8.18182C60.432 8.18182 55.2574 10.3095 51.3658 14.1728C50.6165 14.9166 49.9328 15.7079 49.3161 16.5392C50.0526 16.4241 50.8074 16.3636 51.5766 16.3636Z" fill="#00B6CB"/>
</svg>
