<svg width="77" height="77" viewBox="0 0 77 77" fill="none" xmlns="http://www.w3.org/2000/svg">
<path d="M15.7537 70.0304C19.1866 68.9129 22.6254 67.7955 26.0583 66.6723C27.5271 69.9728 28.9902 73.2733 30.459 76.5738C33.1432 74.1546 35.8274 71.7353 38.5058 69.3161C38.9954 69.7539 39.4792 70.1974 39.9688 70.6352C42.1634 72.6166 44.358 74.5923 46.5525 76.5738C48.0213 73.2733 49.4844 69.9728 50.9532 66.6723C54.3861 67.7897 57.8249 68.9072 61.2579 70.0304C61.2579 66.4188 61.2521 62.8073 61.2521 59.19C64.8464 58.8156 68.4406 58.4412 72.0291 58.0668C70.5545 54.7663 69.0857 51.4658 67.6112 48.1711C70.7389 46.3682 73.8723 44.5653 77 42.7567C74.3158 40.3432 71.6259 37.924 68.9417 35.5106C69.1491 35.2225 69.3622 34.9345 69.5696 34.6465C71.4877 32.0142 73.4 29.3819 75.3181 26.7496C71.8793 25.6379 68.4464 24.5204 65.0076 23.4087C65.7622 19.8778 66.5168 16.3412 67.2656 12.8103C63.6713 13.1905 60.0828 13.5706 56.4886 13.9508C55.7398 10.4141 54.991 6.88323 54.2422 3.34657C51.1145 5.15522 47.9868 6.96387 44.8591 8.77252C43.252 6.55491 41.645 4.34306 40.0379 2.12545C39.5368 1.41697 39.0242 0.708483 38.5058 0C36.3861 2.92609 34.2606 5.84642 32.1409 8.77252C29.0132 6.96387 25.8856 5.15522 22.7579 3.34657C22.0091 6.87747 21.2602 10.4141 20.5114 13.9508C16.9172 13.5706 13.3287 13.1905 9.73444 12.8103C10.489 16.3412 11.2436 19.8778 11.9924 23.4087C8.55364 24.5204 5.12067 25.6379 1.68193 26.7496C3.60002 29.3819 5.51234 32.0142 7.43043 34.6465C7.63779 34.9345 7.85091 35.2225 8.05827 35.5106C5.3741 37.924 2.68417 40.3432 0 42.7567C3.12769 44.5595 6.26114 46.3624 9.38883 48.1711C7.92003 51.4716 6.44548 54.7721 4.97667 58.0668C8.57092 58.4412 12.1652 58.8156 15.7537 59.19C15.7594 62.8015 15.7594 66.4188 15.7537 70.0304Z" fill="#05A6C5"/>
<path d="M24.5938 40.0156C24.5938 39.5729 24.4375 39.2344 24.125 39C23.8125 38.7604 23.25 38.5104 22.4375 38.25C21.625 37.9844 20.9818 37.724 20.5078 37.4688C19.2161 36.7708 18.5703 35.8307 18.5703 34.6484C18.5703 34.0339 18.7422 33.487 19.0859 33.0078C19.4349 32.5234 19.9323 32.1458 20.5781 31.875C21.2292 31.6042 21.9583 31.4688 22.7656 31.4688C23.5781 31.4688 24.3021 31.6172 24.9375 31.9141C25.5729 32.2057 26.0651 32.6198 26.4141 33.1562C26.7682 33.6927 26.9453 34.3021 26.9453 34.9844H24.6016C24.6016 34.4635 24.4375 34.0599 24.1094 33.7734C23.7812 33.4818 23.3203 33.3359 22.7266 33.3359C22.1536 33.3359 21.7083 33.4583 21.3906 33.7031C21.0729 33.9427 20.9141 34.2604 20.9141 34.6562C20.9141 35.026 21.099 35.3359 21.4688 35.5859C21.8438 35.8359 22.3932 36.0703 23.1172 36.2891C24.4505 36.6901 25.4219 37.1875 26.0312 37.7812C26.6406 38.375 26.9453 39.1146 26.9453 40C26.9453 40.9844 26.5729 41.7578 25.8281 42.3203C25.0833 42.8776 24.0807 43.1562 22.8203 43.1562C21.9453 43.1562 21.1484 42.9974 20.4297 42.6797C19.7109 42.3568 19.1615 41.9167 18.7812 41.3594C18.4062 40.8021 18.2188 40.1562 18.2188 39.4219H20.5703C20.5703 40.6771 21.3203 41.3047 22.8203 41.3047C23.3776 41.3047 23.8125 41.1927 24.125 40.9688C24.4375 40.7396 24.5938 40.4219 24.5938 40.0156ZM34.9609 40.6562H30.8516L30.0703 43H27.5781L31.8125 31.625H33.9844L38.2422 43H35.75L34.9609 40.6562ZM31.4844 38.7578H34.3281L32.8984 34.5L31.4844 38.7578ZM41.6484 41.1172H46.625V43H39.3047V31.625H41.6484V41.1172ZM54.8203 38.0703H50.3203V41.1172H55.6016V43H47.9766V31.625H55.5859V33.5234H50.3203V36.2344H54.8203V38.0703ZM59.125 39.5078H57.25L56.9844 31.625H59.3906L59.125 39.5078ZM58.1875 40.7422C58.5677 40.7422 58.8724 40.8542 59.1016 41.0781C59.3359 41.3021 59.4531 41.5885 59.4531 41.9375C59.4531 42.2812 59.3359 42.5651 59.1016 42.7891C58.8724 43.013 58.5677 43.125 58.1875 43.125C57.8125 43.125 57.5078 43.013 57.2734 42.7891C57.0443 42.5651 56.9297 42.2812 56.9297 41.9375C56.9297 41.5938 57.0443 41.3099 57.2734 41.0859C57.5078 40.8568 57.8125 40.7422 58.1875 40.7422Z" fill="white"/>
</svg>
