<?xml version="1.0" standalone="no"?>
<!DOCTYPE svg PUBLIC "-//W3C//DTD SVG 1.1//EN" "http://www.w3.org/Graphics/SVG/1.1/DTD/svg11.dtd" >
<svg xmlns="http://www.w3.org/2000/svg">
<metadata>Generated by IcoMoon</metadata>
<defs>
<font id="f-icons" horiz-adv-x="1024">
<font-face units-per-em="1024" ascent="960" descent="-64" />
<missing-glyph horiz-adv-x="1024" />
<glyph unicode="&#x20;" horiz-adv-x="512" d="" />
<glyph unicode="&#xe900;" glyph-name="icon-arrow-keys" horiz-adv-x="1479" d="M1427.911 516.267l-392.533 392.533c-34.133 34.133-91.022 34.133-125.156 0l-79.644-79.644c-22.756-17.067-34.133-39.822-34.133-62.578s5.689-45.511 28.444-62.578l108.089-108.089h-813.511c-51.2 0-91.022-45.511-91.022-91.022v-113.778c0-45.511 39.822-85.333 91.022-85.333h807.822l-102.4-102.4c-17.067-17.067-28.444-39.822-28.444-68.267 0-22.756 5.689-45.511 28.444-68.267l79.644-79.644c17.067-17.067 39.822-28.444 62.578-28.444s45.511 5.689 62.578 28.444l392.533 392.533c17.067 17.067 28.444 39.822 28.444 68.267 5.689 22.756-5.689 45.511-22.756 68.267zM1371.022 436.622l-392.533-392.533c-5.689-5.689-11.378-5.689-17.067 0l-79.644 79.644c-5.689 5.689-5.689 5.689-5.689 11.378s0 5.689 5.689 11.378l170.667 170.667c11.378 11.378 17.067 28.444 5.689 39.822-5.689 17.067-17.067 22.756-34.133 22.756h-904.533c-5.689 0-17.067 5.689-17.067 5.689v119.467c0 5.689 5.689 17.067 17.067 17.067h910.222c17.067 0 28.444 5.689 34.133 22.756s5.689 28.444-5.689 39.822l-170.667 170.667c-5.689 5.689-5.689 5.689-5.689 5.689 0 5.689 0 5.689 5.689 5.689l79.644 85.333c5.689 5.689 11.378 5.689 17.067 0l392.533-392.533c5.689-5.689 5.689-5.689 5.689-11.378-5.689-5.689-5.689-5.689-11.378-11.378z" />
<glyph unicode="&#xe901;" glyph-name="icon-arrow-right" horiz-adv-x="2816" d="M2758.4 448l-774.4 448v-294.4h-1926.4v-307.2h1926.4v-294.4z" />
<glyph unicode="&#xe902;" glyph-name="icon-check" horiz-adv-x="1297" d="M505.173-16.213c-13.653-13.653-27.307-20.48-47.787-20.48s-34.133 6.827-47.787 20.48l-348.16 348.16c-34.133 34.133-34.133 95.573 0 136.533l47.787 47.787c34.133 34.133 95.573 34.133 129.707 0l218.453-218.453 600.747 593.92c34.133 34.133 95.573 34.133 136.533 0l47.787-47.787c34.133-34.133 34.133-95.573 0-136.533l-737.28-723.627z" />
<glyph unicode="&#xe903;" glyph-name="icon-check2" horiz-adv-x="1325" d="M1192.659 914.824c-21.082 21.082-54.212 21.082-72.282 0l-605.365-605.365-310.212 313.224c-21.082 21.082-51.2 21.082-72.282 0l-108.424-108.424c-21.082-21.082-21.082-54.212 0-72.282l457.788-460.8c21.082-21.082 51.2-21.082 72.282 0l752.941 752.941c21.082 21.082 21.082 54.212 0 72.282l-114.447 108.424z" />
<glyph unicode="&#xe904;" glyph-name="icon-contract" d="M900.267 936.533c-6.4 4.267-12.8 6.4-19.2 6.4h-584.533l81.067-81.067h354.133c-8.533-19.2-14.933-38.4-14.933-61.867v-693.333c0-34.133-27.733-61.867-61.867-61.867s-61.867 27.733-61.867 61.867v100.267c0 23.467-19.2 40.533-40.533 40.533h-366.933v258.133l-81.067 81.067v-341.333h-42.667c-23.467 0-40.533-19.2-40.533-40.533v-119.467c0-68.267 55.467-123.733 123.733-123.733h512c38.4 0 74.667 14.933 100.267 42.667 25.6 25.6 42.667 61.867 42.667 100.267v593.067h164.267c23.467 0 40.533 19.2 40.533 40.533v61.867c-2.133 64-44.8 117.333-104.533 136.533zM522.667 411.733c-2.133 0-4.267 0-6.4 0l-142.933 27.733c-6.4 2.133-10.667 4.267-14.933 8.533l-315.733 315.733c-27.733 27.733-27.733 72.533 0 100.267l57.6 57.6c27.733 27.733 72.533 27.733 100.267 0l315.733-315.733c4.267-4.267 6.4-10.667 8.533-14.933l27.733-142.933c2.133-10.667-2.133-21.333-8.533-27.733s-12.8-8.533-21.333-8.533v0z" />
<glyph unicode="&#xe905;" glyph-name="icon-dimensions" d="M584.059 520.059c-26.548 26.548-26.548 64.474 0 91.022l178.252 178.252-91.022 7.585c-15.17 0-30.341 7.585-37.926 18.963-11.378 11.378-18.963 30.341-18.963 49.304 3.793 34.133 34.133 60.681 68.267 56.889l227.556-18.963c30.341-3.793 56.889-26.548 56.889-56.889l18.963-227.556c3.793-34.133-22.756-64.474-56.889-68.267s-64.474 22.756-68.267 56.889l-7.585 91.022-178.252-178.252c-26.548-26.548-68.267-26.548-91.022 0zM352.711 375.941l-178.252-178.252-7.585 91.022c-3.793 34.133-34.133 60.681-68.267 56.889-37.926-3.793-64.474-34.133-60.681-68.267l18.963-227.556c3.793-30.341 26.548-56.889 56.889-56.889l227.556-18.963c34.133-3.793 64.474 22.756 68.267 56.889 0 18.963-3.793 37.926-18.963 49.304-11.378 11.378-22.756 15.17-37.926 18.963l-91.022 7.585 178.252 178.252c26.548 26.548 26.548 64.474 0 91.022-22.756 26.548-64.474 26.548-87.23 0zM929.185 345.6c-18.963 0-37.926-3.793-49.304-18.963-11.378-11.378-15.17-22.756-18.963-37.926l-7.585-91.022-178.252 178.252c-26.548 26.548-64.474 26.548-91.022 0s-26.548-64.474 0-91.022l178.252-178.252-91.022-7.585c-34.133-3.793-60.681-34.133-56.889-68.267s34.133-60.681 68.267-56.889l227.556 18.963c30.341 3.793 56.889 26.548 56.889 56.889l18.963 227.556c3.793 34.133-22.756 64.474-56.889 68.267zM261.689 789.333l91.022 7.585c34.133 3.793 60.681 34.133 56.889 68.267s-34.133 60.681-68.267 56.889l-227.556-18.963c-30.341-3.793-53.096-26.548-56.889-56.889l-18.963-227.556c-3.793-34.133 22.756-64.474 56.889-68.267 18.963 0 37.926 3.793 49.304 18.963 11.378 11.378 15.17 22.756 18.963 37.926l7.585 91.022 178.252-178.252c22.756-26.548 64.474-26.548 91.022 0s26.548 64.474 0 91.022l-178.252 178.252z" />
<glyph unicode="&#xe906;" glyph-name="icon-insurance" horiz-adv-x="939" d="M646.4 285.867c46.933 66.133 76.8 140.8 85.333 221.867l-262.4 74.667-262.4-76.8c8.533-78.933 38.4-155.733 85.333-221.867 46.933-64 106.667-115.2 177.067-149.333 70.4 36.267 132.267 87.467 177.067 151.467zM469.333 642.133l266.667-74.667v121.6l-266.667 74.667-266.667-74.667v-121.6l266.667 74.667zM499.2 938.667v-121.6l294.4-83.2v-172.8c0-110.933-34.133-219.733-100.267-309.333-51.2-70.4-117.333-128-196.267-166.4v-128c117.333 44.8 217.6 123.733 290.133 226.133 78.933 110.933 121.6 241.067 121.6 377.6v260.267l-409.6 117.333zM439.467 85.333c-76.8 38.4-145.067 96-196.267 166.4-64 89.6-98.133 196.267-98.133 309.333v172.8l294.4 83.2v121.6l-411.733-117.333v-260.267c0-136.533 42.667-266.667 121.6-377.6 74.667-102.4 174.933-179.2 290.133-226.133v128z" />
<glyph unicode="&#xe907;" glyph-name="icon-location" horiz-adv-x="694" d="M346.839 943.484c-181.677 0-330.323-148.645-330.323-330.323 0-56.155 13.213-109.006 39.639-158.555l274.168-492.181c3.303-6.606 9.91-9.91 16.516-9.91s13.213 3.303 16.516 9.91l274.168 492.181c26.426 49.548 39.639 102.4 39.639 155.252 0 184.981-148.645 333.626-330.323 333.626zM601.187 477.729l-254.348-459.148-254.348 455.845c-23.123 42.942-33.032 89.187-33.032 138.735 0 158.555 128.826 287.381 287.381 287.381s287.381-128.826 287.381-287.381c0-46.245-9.91-95.794-33.032-135.432zM346.839 778.323c-92.49 0-165.161-72.671-165.161-165.161s72.671-165.161 165.161-165.161 165.161 72.671 165.161 165.161-72.671 165.161-165.161 165.161zM346.839 487.639c-69.368 0-125.523 56.155-125.523 125.523s56.155 125.523 125.523 125.523 125.523-56.155 125.523-125.523c-3.303-69.368-56.155-125.523-125.523-125.523z" />
<glyph unicode="&#xe908;" glyph-name="icon-location2" horiz-adv-x="751" d="M375.467 925.867c-197.973 0-358.4-160.427-358.4-358.4 0-262.827 331.093-580.267 344.747-590.507 3.413-3.413 10.24-6.827 13.653-6.827s10.24 3.413 13.653 6.827c13.653 13.653 344.747 327.68 344.747 590.507 0 197.973-160.427 358.4-358.4 358.4zM375.467 369.493c-109.227 0-197.973 88.747-197.973 197.973s88.747 197.973 197.973 197.973 197.973-88.747 197.973-197.973-88.747-197.973-197.973-197.973z" />
<glyph unicode="&#xe909;" glyph-name="icon-no" d="M512 917.333c-260.267 0-469.333-209.067-469.333-469.333s209.067-469.333 469.333-469.333 469.333 209.067 469.333 469.333-209.067 469.333-469.333 469.333zM699.733 311.467c8.533-8.533 8.533-21.333 0-25.6l-25.6-25.6c-8.533-8.533-21.333-8.533-25.6 0l-136.533 132.267-136.533-136.533c-8.533-8.533-21.333-8.533-25.6 0l-25.6 25.6c-8.533 8.533-8.533 21.333 0 25.6l136.533 136.533-136.533 140.8c-8.533 8.533-8.533 21.333 0 25.6l25.6 25.6c8.533 8.533 21.333 8.533 25.6 0l136.533-136.533 136.533 136.533c8.533 8.533 21.333 8.533 25.6 0l25.6-25.6c8.533-8.533 8.533-21.333 0-25.6l-132.267-136.533 132.267-136.533z" />
<glyph unicode="&#xe90a;" glyph-name="icon-phone" d="M414.052 354.504c-93.496 93.496-115.757 186.991-120.209 222.609 0 8.904 4.452 22.261 8.904 26.713l75.687 75.687c13.357 13.357 17.809 31.165 8.904 44.522l-120.209 186.991c-13.357 13.357-31.165 17.809-44.522 13.357l-191.443-89.043c-17.809-8.904-22.261-22.261-22.261-35.617 8.904-97.948 53.426-333.913 284.939-565.426s467.478-276.035 565.426-284.939c13.357 0 26.713 4.452 35.617 17.809l89.043 191.443c8.904 13.357 4.452 35.617-13.357 44.522l-186.991 120.209c-13.357 8.904-31.165 4.452-40.070-4.452l-75.687-75.687c-8.904-8.904-17.809-8.904-26.713-8.904-40.070 4.452-133.565 26.713-227.061 120.209v0z" />
<glyph unicode="&#xe90b;" glyph-name="icon-quoter" horiz-adv-x="1210" d="M18.618-40.727v521.309l223.418 456.145h283.927l-186.182-437.527 9.309-18.618h186.182v-521.309zM674.909-40.727v521.309l228.073 456.145h279.273l-186.182-437.527 13.964-18.618h181.527v-521.309z" />
<glyph unicode="&#xe90c;" glyph-name="icon-ruble" horiz-adv-x="945" d="M47.262 113.231h157.538v-133.908c0-7.877 3.938-11.815 7.877-15.754s7.877-7.877 15.754-7.877h118.154c7.877 0 11.815 3.938 15.754 7.877s7.877 7.877 7.877 15.754v133.908h354.462c7.877 0 11.815 3.938 15.754 7.877s7.877 7.877 7.877 15.754v90.585c0 7.877-3.938 11.815-7.877 15.754s-7.877 7.877-15.754 7.877h-354.462v78.769h236.308c94.523 0 169.354 27.569 228.431 86.646 59.077 55.138 86.646 129.969 86.646 220.554s-27.569 161.477-86.646 220.554c-59.077 55.138-133.908 86.646-228.431 86.646h-378.092c-7.877 0-11.815-3.938-15.754-7.877-7.877-7.877-7.877-11.815-7.877-19.692v-441.108h-157.538c-7.877 0-11.815-3.938-15.754-7.877s-7.877-7.877-7.877-15.754v-102.4c0-7.877 3.938-11.815 7.877-15.754s7.877-3.938 15.754-3.938h157.538v-82.708h-157.538c-7.877 0-11.815-3.938-15.754-7.877s-7.877-7.877-7.877-15.754v-90.585c0-7.877 3.938-11.815 7.877-15.754s7.877-3.938 15.754-3.938zM366.277 790.646h224.492c51.2 0 90.585-15.754 118.154-43.323 31.508-27.569 47.262-66.954 47.262-114.215s-15.754-82.708-47.262-114.215c-31.508-27.569-70.892-43.323-118.154-43.323h-224.492v315.077z" />
<glyph unicode="&#xe90d;" glyph-name="icon-step1" d="M426.667 362.667c-94.815 94.815-115.674 187.733-119.467 225.659-1.896 9.481 1.896 20.859 9.481 28.444l75.852 75.852c11.378 11.378 13.274 28.444 5.689 41.719l-121.363 187.733c-9.481 15.17-28.444 20.859-43.615 13.274l-195.319-91.022c-13.274-5.689-20.859-18.963-18.963-34.133 9.481-96.711 53.096-335.644 286.341-568.889s472.178-276.859 568.889-286.341c13.274-1.896 28.444 5.689 34.133 18.963l91.022 195.319c7.585 15.17 1.896 34.133-13.274 43.615l-185.837 121.363c-13.274 7.585-30.341 5.689-41.719-5.689l-75.852-75.852c-7.585-7.585-17.067-11.378-28.444-9.481-39.822 5.689-132.741 26.548-227.556 119.467v0zM800.237 413.867c-18.963 0-34.133 15.17-34.133 34.133 0 140.326-113.778 254.104-254.104 254.104-18.963 0-34.133 15.17-34.133 34.133s15.17 34.133 34.133 34.133c178.252 0 322.37-144.119 322.37-322.37 0-18.963-15.17-34.133-34.133-34.133zM970.904 413.867c-18.963 0-34.133 15.17-34.133 34.133 0 235.141-189.63 424.77-424.77 424.77-18.963 0-34.133 15.17-34.133 34.133s15.17 34.133 34.133 34.133c273.067 0 493.037-219.97 493.037-493.037 0-9.481-3.793-17.067-9.481-24.652-7.585-5.689-15.17-9.481-24.652-9.481z" />
<glyph unicode="&#xe90e;" glyph-name="icon-step2" d="M522.24 587.947h-346.453c-44.373-44.373-83.627-95.573-114.347-150.187l-8.533-18.773c-23.893-51.2-35.84-109.227-35.84-167.253 0-201.387 109.227-300.373 336.213-300.373 66.56-1.707 133.12 10.24 194.56 35.84v494.933c0 20.48 11.947 37.547 29.013 46.080-15.36 18.773-34.133 39.253-54.613 59.733zM346.453 244.907h-69.973v-34.133h87.040v-25.6h-87.040v-109.227h-25.6v109.227h-25.6v25.6h25.6v240.64h95.573c54.613 0 98.987-46.080 98.987-104.107 0-56.32-44.373-102.4-98.987-102.4zM346.453 425.813h-69.973v-155.307h69.973c40.96 0 73.387 34.133 73.387 78.507 0 40.96-34.133 76.8-73.387 76.8zM679.253 412.16h230.4c5.12 0 8.533-3.413 8.533-8.533v-52.907c0-5.12-3.413-8.533-8.533-8.533h-230.4c-5.12 0-8.533 3.413-8.533 8.533v52.907c0 3.413 3.413 8.533 8.533 8.533zM167.253 676.693c-15.36 0-27.307-11.947-27.307-27.307s11.947-27.307 27.307-27.307h370.347c15.36 0 27.307 11.947 27.307 27.307s-11.947 27.307-27.307 27.307h-370.347zM264.533 712.533v87.040c0 10.24 8.533 17.067 17.067 17.067 10.24 0 17.067-8.533 17.067-17.067v-88.747h105.813v88.747c0 10.24 8.533 17.067 17.067 17.067s17.067-8.533 17.067-17.067v-88.747h44.373c73.387 100.693 121.173 199.68 102.4 216.747-10.24-1.707-18.773-6.827-27.307-11.947-25.6-17.067-54.613-27.307-85.333-29.013-27.307 0-54.613 10.24-73.387 30.72-13.653 13.653-30.72 22.187-51.2 22.187s-37.547-8.533-51.2-22.187c-18.773-20.48-46.080-30.72-73.387-30.72-30.72 1.707-59.733 11.947-85.333 29.013-1.707 6.827-10.24 10.24-20.48 13.653-18.773-17.067 29.013-117.76 102.4-216.747h44.373zM989.867 499.2h-389.12c-10.24 0-17.067-8.533-17.067-17.067v-512c0-10.24 8.533-17.067 17.067-17.067h389.12c10.24 0 17.067 8.533 17.067 17.067v512c0 10.24-8.533 17.067-17.067 17.067zM634.88 412.16c0 18.773 15.36 35.84 35.84 35.84h247.467c18.773 0 35.84-15.36 35.84-35.84v-69.973c0-18.773-15.36-35.84-35.84-35.84h-247.467c-18.773 0-35.84 15.36-35.84 35.84v69.973zM706.56 4.267h-52.907c-10.24 0-17.067 8.533-17.067 17.067 0 10.24 8.533 17.067 17.067 17.067h52.907c10.24 0 17.067-8.533 17.067-17.067s-6.827-17.067-17.067-17.067zM706.56 75.947h-52.907c-10.24 0-17.067 8.533-17.067 17.067 0 10.24 8.533 17.067 17.067 17.067h52.907c10.24 0 17.067-8.533 17.067-17.067 0-10.24-6.827-17.067-17.067-17.067zM706.56 145.92h-52.907c-10.24 0-17.067 8.533-17.067 17.067 0 10.24 8.533 17.067 17.067 17.067h52.907c10.24 0 17.067-8.533 17.067-17.067s-6.827-17.067-17.067-17.067zM706.56 217.6h-52.907c-10.24 0-17.067 8.533-17.067 17.067 0 10.24 8.533 17.067 17.067 17.067h52.907c10.24 0 17.067-8.533 17.067-17.067 0-10.24-6.827-17.067-17.067-17.067zM829.44 4.267h-52.907c-10.24 0-17.067 8.533-17.067 17.067 0 10.24 8.533 17.067 17.067 17.067h52.907c10.24 0 17.067-8.533 17.067-17.067 1.707-8.533-6.827-17.067-17.067-17.067zM829.44 75.947h-52.907c-10.24 0-17.067 8.533-17.067 17.067 0 10.24 8.533 17.067 17.067 17.067h52.907c10.24 0 17.067-8.533 17.067-17.067 1.707-10.24-6.827-17.067-17.067-17.067zM829.44 145.92h-52.907c-10.24 0-17.067 8.533-17.067 17.067 0 10.24 8.533 17.067 17.067 17.067h52.907c10.24 0 17.067-8.533 17.067-17.067 1.707-8.533-6.827-17.067-17.067-17.067zM829.44 217.6h-52.907c-10.24 0-17.067 8.533-17.067 17.067 0 10.24 8.533 17.067 17.067 17.067h52.907c10.24 0 17.067-8.533 17.067-17.067 1.707-10.24-6.827-17.067-17.067-17.067zM954.027 4.267h-52.907c-10.24 0-17.067 8.533-17.067 17.067 0 10.24 8.533 17.067 17.067 17.067h52.907c10.24 0 17.067-8.533 17.067-17.067s-6.827-17.067-17.067-17.067zM954.027 75.947h-52.907c-10.24 0-17.067 8.533-17.067 17.067 0 10.24 8.533 17.067 17.067 17.067h52.907c10.24 0 17.067-8.533 17.067-17.067 0-10.24-6.827-17.067-17.067-17.067zM954.027 145.92h-52.907c-10.24 0-17.067 8.533-17.067 17.067 0 10.24 8.533 17.067 17.067 17.067h52.907c10.24 0 17.067-8.533 17.067-17.067s-6.827-17.067-17.067-17.067zM954.027 217.6h-52.907c-10.24 0-17.067 8.533-17.067 17.067 0 10.24 8.533 17.067 17.067 17.067h52.907c10.24 0 17.067-8.533 17.067-17.067 0-10.24-6.827-17.067-17.067-17.067z" />
<glyph unicode="&#xe90f;" glyph-name="icon-step3" horiz-adv-x="883" d="M829.793 942.345h-670.897c-19.421 0-35.31-15.89-35.31-35.31v-105.931h-70.621c-19.421 0-35.31-15.89-35.31-35.31v-776.828c0-19.421 15.89-35.31 35.31-35.31h635.586c19.421 0 35.31 15.89 35.31 35.31v35.31h105.931c19.421 0 35.31 15.89 35.31 35.31v847.448c0 19.421-15.89 35.31-35.31 35.31zM547.31 130.207h-353.103c-19.421 0-35.31 15.89-35.31 35.31s15.89 35.31 35.31 35.31h353.103c19.421 0 35.31-15.89 35.31-35.31s-15.89-35.31-35.31-35.31zM547.31 271.448h-353.103c-19.421 0-35.31 15.89-35.31 35.31s15.89 35.31 35.31 35.31h353.103c19.421 0 35.31-15.89 35.31-35.31s-15.89-35.31-35.31-35.31zM547.31 412.69h-353.103c-19.421 0-35.31 15.89-35.31 35.31s15.89 35.31 35.31 35.31h353.103c19.421 0 35.31-15.89 35.31-35.31s-15.89-35.31-35.31-35.31zM547.31 624.552v56.497l56.497-56.497h-56.497zM794.483 94.897h-70.621v494.345c0 8.828-3.531 17.655-10.593 24.717l-176.552 176.552c-7.062 7.062-15.89 10.593-24.717 10.593h-317.793v70.621h600.276v-776.828z" />
<glyph unicode="&#xe910;" glyph-name="icon-step4" d="M135.432 345.6h-94.142c-13.213 0-24.774-11.561-24.774-24.774v-343.535c0-13.213 11.561-24.774 24.774-24.774h94.142c13.213 0 24.774 11.561 24.774 24.774v343.535c0 14.865-11.561 24.774-24.774 24.774zM997.574 319.174c0 0-1.652 1.652-1.652 1.652-6.606 8.258-14.865 11.561-24.774 13.213s-19.819-1.652-28.077-8.258c-44.594-36.335-112.31-90.839-153.6-123.871-37.987-29.729-84.232-47.897-132.129-49.548l-115.613-3.303c-21.471-1.652-41.29 9.91-52.852 28.077l-13.213 21.471c-3.303 6.606-6.606 11.561-6.606 18.168-6.606 31.381 14.865 61.11 46.245 67.716l118.916 23.123c18.168 3.303 29.729 18.168 29.729 36.335 0 19.819-16.516 37.987-36.335 37.987 0 0-1.652 0-1.652 0-1.652 0-1.652 0-3.303 0l-160.206 4.955c-56.155 1.652-104.052-8.258-160.206-36.335l-97.445-46.245v-257.652l80.929 14.865c0 0 0 0 1.652 0 31.381 4.955 52.852 6.606 85.884 4.955l242.787-11.561c75.974-3.303 150.297 21.471 209.755 71.019l168.465 140.387c14.865 13.213 16.516 36.335 3.303 52.852zM944.723 583.432l-123.871-79.277h-156.903v54.503h163.51c4.955 0 9.91 1.652 13.213 4.955l128.826 92.49c9.91 6.606 13.213 21.471 4.955 31.381-6.606 9.91-21.471 13.213-31.381 4.955 0 0 0 0 0 0l-122.219-89.187h-156.903v59.458h163.51c4.955 0 9.91 1.652 13.213 4.955l128.826 100.748c9.91 8.258 11.561 21.471 3.303 31.381s-21.471 11.561-31.381 3.303l-122.219-95.794h-155.252v56.155h163.51c4.955 0 11.561 1.652 14.865 4.955l128.826 118.916c8.258 8.258 9.91 23.123 1.652 31.381-4.955 4.955-9.91 8.258-16.516 6.606h-155.252v1.652c-3.303 9.91-11.561 16.516-21.471 16.516h-254.348c-6.606 0-11.561-3.303-14.865-6.606l-9.91-9.91h-160.206c-4.955 0-11.561-1.652-14.865-6.606l-128.826-118.916c-6.606-6.606-8.258-16.516-4.955-24.774s11.561-13.213 21.471-13.213h150.297v-56.155h-151.948c-13.213 0-23.123-9.91-23.123-23.123s9.91-23.123 23.123-23.123h151.948v-59.458h-151.948c-13.213 0-23.123-9.91-23.123-23.123s9.91-23.123 23.123-23.123h151.948v-54.503h-151.948c-13.213 0-23.123-9.91-23.123-23.123s9.91-23.123 23.123-23.123h617.703c4.955 0 8.258 1.652 13.213 3.303l128.826 84.232c9.91 6.606 13.213 19.819 6.606 31.381-9.91 14.865-23.123 18.168-33.032 9.91zM772.955 882.374h125.523l-79.277-72.671h-125.523l79.277 72.671zM371.613 809.703h-104.052l79.277 72.671h102.4l-77.626-72.671z" />
<glyph unicode="&#xe911;" glyph-name="icon-step5" horiz-adv-x="1007" d="M145.342 482.684h71.019v-71.019h-71.019v71.019zM670.555 837.781h6.606v34.684h-52.852c-9.91 0-18.168 8.258-18.168 18.168 0 1.652 0 3.303 0 4.955l11.561 49.548h-95.794l11.561-49.548c1.652-9.91-3.303-19.819-13.213-21.471-1.652 0-3.303 0-4.955 0h-52.852v-34.684h208.103zM251.045 111.071c0-9.91-8.258-18.168-18.168-18.168h-105.703c-9.91 0-18.168 8.258-18.168 18.168v89.187h-69.368v-247.742h282.426v247.742h-71.019v-89.187zM287.381-12.8h-34.684v34.684h34.684v-34.684zM464.103 200.258h71.019v-71.019h-71.019v71.019zM817.548 819.613v-341.884l34.684 9.91v350.142c0 19.819-16.516 34.684-34.684 34.684h-105.703v-34.684h89.187c8.258 0 16.516-8.258 16.516-18.168v0zM429.419 872.465h-105.703c-19.819 0-34.684-16.516-34.684-34.684v-318.761h34.684v300.594c0 9.91 8.258 18.168 18.168 18.168h87.535v34.684zM251.045 395.148c0-9.91-8.258-18.168-18.168-18.168h-105.703c-9.91 0-18.168 8.258-18.168 18.168v89.187h-69.368v-247.742h282.426v247.742h-71.019v-89.187zM287.381 271.277h-34.684v34.684h34.684v-34.684zM569.806 111.071c0-9.91-8.258-18.168-18.168-18.168h-105.703c-9.91 0-18.168 8.258-18.168 18.168v89.187h-71.019v-247.742h282.426v247.742h-71.019v-89.187zM606.142-12.8h-34.684v34.684h34.684v-34.684zM429.419 730.426h34.684v-34.684h-34.684v34.684zM817.548 129.239c0-9.91-8.258-18.168-18.168-18.168h-122.219v-34.684h142.039c19.819 0 34.684 16.516 34.684 34.684v267.561l-34.684-9.91v-239.484zM467.406 317.523l39.639-6.606 80.929 24.774-9.91 34.684-82.581-24.774-28.077-28.077zM987.665 474.426c-3.303 9.91-13.213 14.865-21.471 11.561v0l-356.748-105.703 9.91-34.684 356.748 105.703c9.91 3.303 14.865 13.213 11.561 23.123v0zM677.161 147.406h105.703v209.755l-270.865-80.929c-3.303 0-4.955-1.652-8.258 0l-77.626 13.213c-9.91 1.652-16.516 11.561-14.865 19.819 0 3.303 3.303 6.606 4.955 9.91l57.806 54.503c1.652 1.652 4.955 3.303 6.606 3.303l300.594 90.839v333.626h-422.813v-566.503h300.594c9.91 0 18.168-8.258 18.168-18.168v-69.368zM746.529 571.871h-142.039v34.684h142.039v-34.684zM606.142 766.761h142.039v-34.684h-142.039v34.684zM535.123 766.761h34.684v-34.684h-34.684v34.684zM535.123 695.742h213.058v-34.684h-213.058v34.684zM535.123 606.555h34.684v-34.684h-34.684v34.684zM535.123 537.187h213.058v-34.684h-213.058v34.684zM393.084 748.594c0 9.91 8.258 18.168 18.168 18.168h71.019c9.91 0 18.168-8.258 18.168-18.168v-71.019c0-9.91-8.258-18.168-18.168-18.168h-71.019c-9.91 0-18.168 8.258-18.168 18.168v71.019zM393.084 519.019v71.019c0 9.91 8.258 18.168 18.168 18.168h71.019c9.91 0 18.168-8.258 18.168-18.168v-71.019c0-9.91-8.258-18.168-18.168-18.168h-71.019c-9.91 0-18.168 8.258-18.168 18.168zM429.419 571.871h34.684v-34.684h-34.684v34.684zM145.342 200.258h71.019v-71.019h-71.019v71.019z" />
<glyph unicode="&#xe912;" glyph-name="icon-step6" horiz-adv-x="1300" d="M1276.062 188.062v210.708c0 31.508-9.846 63.015-21.662 88.615l-133.908 228.431c-13.785 27.569-45.292 45.292-76.8 45.292h-200.862c-31.508 0-59.077-27.569-59.077-59.077v-478.523h-45.292v628.185c0 49.231-39.385 88.615-88.615 88.615h-626.215v-805.415h133.908c21.662 76.8 88.615 133.908 175.262 133.908 84.677 0 157.538-59.077 175.262-133.908h326.892c21.662 76.8 88.615 133.908 175.262 133.908 70.892 0 129.969-39.385 157.538-98.462 13.785-21.662 35.446-35.446 57.108-35.446 29.538 0 55.138 27.569 51.2 53.169zM874.338 448v224.492h179.2l128-224.492h-307.2zM1008.246 223.508c-76.8 0-133.908-59.077-133.908-133.908s59.077-133.908 133.908-133.908 133.908 59.077 133.908 133.908-59.077 133.908-133.908 133.908zM1008.246 26.585c-35.446 0-63.015 27.569-63.015 63.015s27.569 63.015 63.015 63.015c35.446 0 63.015-27.569 63.015-63.015s-27.569-63.015-63.015-63.015zM336.738 223.508c-76.8 0-133.908-59.077-133.908-133.908s59.077-133.908 133.908-133.908 133.908 59.077 133.908 133.908-57.108 133.908-133.908 133.908zM336.738 26.585c-35.446 0-63.015 27.569-63.015 63.015s27.569 63.015 63.015 63.015c35.446 0 63.015-27.569 63.015-63.015s-27.569-63.015-63.015-63.015zM358.4 89.6c0-11.963-9.698-21.662-21.662-21.662s-21.662 9.698-21.662 21.662c0 11.963 9.698 21.662 21.662 21.662s21.662-9.698 21.662-21.662zM1029.908 89.6c0-11.963-9.698-21.662-21.662-21.662s-21.662 9.698-21.662 21.662c0 11.963 9.698 21.662 21.662 21.662s21.662-9.698 21.662-21.662z" />
<glyph unicode="&#xe913;" glyph-name="icon-type-cargo" horiz-adv-x="1061" d="M530.286 842.971c7.314 0 14.629-3.657 21.943-7.314l18.286-10.971v98.743h-80.457v-98.743l18.286 10.971c7.314 7.314 14.629 7.314 21.943 7.314zM727.771 923.429h-80.457v-171.886c0-14.629-7.314-29.257-21.943-36.571-7.314-3.657-10.971-3.657-18.286-3.657s-14.629 3.657-21.943 7.314l-58.514 36.571-58.514-36.571c-10.971-7.314-29.257-7.314-40.229-3.657-14.629 7.314-21.943 21.943-21.943 36.571v171.886h-73.143c-21.943 0-40.229-18.286-40.229-40.229v-394.971h475.429v394.971c0 21.943-18.286 40.229-40.229 40.229zM808.229 327.314c7.314 0 14.629-3.657 21.943-7.314l18.286-10.971v98.743h-80.457v-98.743l18.286 10.971c7.314 7.314 14.629 7.314 21.943 7.314zM1005.714 407.771h-80.457v-171.886c0-14.629-7.314-25.6-18.286-36.571-7.314-3.657-14.629-7.314-21.943-7.314s-14.629 3.657-21.943 7.314l-58.514 36.571-58.514-36.571c-14.629-10.971-32.914-7.314-47.543 3.657-10.971 7.314-14.629 18.286-14.629 32.914v171.886h-120.686v-435.2h475.429v394.971c7.314 21.943-10.971 40.229-32.914 40.229zM252.343 327.314c-7.314 0-14.629-3.657-21.943-7.314l-18.286-10.971v98.743h80.457v-98.743l-18.286 10.971c-7.314 7.314-14.629 7.314-21.943 7.314zM54.857 407.771h80.457v-171.886c0-14.629 7.314-25.6 18.286-36.571 7.314-3.657 14.629-7.314 21.943-7.314s14.629 3.657 21.943 7.314l58.514 36.571 58.514-36.571c14.629-10.971 32.914-7.314 47.543 3.657 10.971 7.314 14.629 18.286 14.629 32.914v171.886h120.686v-435.2h-475.429v394.971c-7.314 21.943 10.971 40.229 32.914 40.229z" />
<glyph unicode="&#xe914;" glyph-name="icon-user" horiz-adv-x="906" d="M618.338 849.723c90.585-90.585 90.585-240.246 0-334.769s-240.246-90.585-334.769 0-90.585 240.246 0 334.769c94.523 94.523 244.185 94.523 334.769 0zM815.262 278.646c-216.615 145.723-508.062 145.723-724.677 0-31.508-23.631-51.2-59.077-51.2-98.462v-204.8h827.077v204.8c0 39.385-19.692 74.831-51.2 98.462v0z" />
<glyph unicode="&#xe915;" glyph-name="icon-weight" horiz-adv-x="1152" d="M576 482.133c-89.6 0-166.4-72.533-166.4-166.4 0-81.067 55.467-145.067 132.267-162.133v162.133h64v-162.133c76.8 17.067 132.267 81.067 132.267 162.133 4.267 93.867-72.533 166.4-162.133 166.4zM209.067 678.4l-187.733-721.067h1113.6l-192 721.067h-268.8v64h204.8c89.6 0 162.133 72.533 162.133 162.133v34.133h-930.133v-34.133c0-89.6 72.533-162.133 162.133-162.133h204.8v-64h-268.8zM576 546.133c128 0 230.4-102.4 230.4-230.4s-102.4-230.4-230.4-230.4-230.4 106.667-230.4 230.4c0 128 102.4 230.4 230.4 230.4z" />
<glyph unicode="&#xe916;" glyph-name="icon-yes" horiz-adv-x="1113" d="M926.052 933.287h-770.226c-80.139 0-146.922-66.783-146.922-146.922v-471.93c0-80.139 66.783-146.922 146.922-146.922v-213.704l307.2 213.704h463.026c80.139 0 146.922 66.783 146.922 146.922v471.93c0 80.139-66.783 146.922-146.922 146.922zM788.035 385.67h-494.191v62.33h494.191v-62.33zM788.035 519.235h-494.191v62.33h494.191v-62.33zM788.035 652.8h-494.191v62.33h494.191v-62.33z" />
</font>
</defs>
</svg>
