<?xml version="1.0" standalone="no"?>
<!DOCTYPE svg PUBLIC "-//W3C//DTD SVG 1.1//EN" "http://www.w3.org/Graphics/SVG/1.1/DTD/svg11.dtd" >
<svg xmlns="http://www.w3.org/2000/svg" xmlns:xlink="http://www.w3.org/1999/xlink" version="1.1">
<metadata>
Created by FontForge 20170731 at Fri Sep 25 04:53:13 2020
 By Aleksey,,,
(c)2014-20 Ilya Ruderman and Yury Ostromentsky, under exclusive license to CSTM Fonts. All rights reserved.
</metadata>
<defs>
<font id="NormalidadWide-Bold" horiz-adv-x="790" >
  <font-face 
    font-family="Normalidad Wide Bold"
    font-weight="700"
    font-stretch="normal"
    units-per-em="1000"
    panose-1="2 11 8 5 2 1 2 2 3 3"
    ascent="765"
    descent="-235"
    x-height="510"
    cap-height="690"
    bbox="-200 -286 1645 1100"
    underline-thickness="40"
    underline-position="-125"
    unicode-range="U+0020-FEFF"
  />
<missing-glyph horiz-adv-x="500" 
d="M0 0v700h500v-700h-500zM250 395l170 255h-340zM280 350l170 -255v510zM50 605v-510l170 255zM80 50h340l-170 255z" />
    <glyph glyph-name=".notdef" horiz-adv-x="500" 
d="M0 0v700h500v-700h-500zM250 395l170 255h-340zM280 350l170 -255v510zM50 605v-510l170 255zM80 50h340l-170 255z" />
    <glyph glyph-name=".null" horiz-adv-x="0" 
 />
    <glyph glyph-name="nonmarkingreturn" horiz-adv-x="333" 
 />
    <glyph glyph-name="space" unicode=" " horiz-adv-x="230" 
 />
    <glyph glyph-name="exclam" unicode="!" horiz-adv-x="324" 
d="M58 690h208l-32 -453h-144zM59 75q0 47 26.5 68t76.5 21t76 -21t26 -68q0 -46 -26 -67.5t-76 -21.5t-76.5 21.5t-26.5 67.5z" />
    <glyph glyph-name="quotedbl" unicode="&#x22;" horiz-adv-x="507" 
d="M45 690h174l-18 -261h-138zM288 690h174l-18 -261h-138z" />
    <glyph glyph-name="numbersign" unicode="#" horiz-adv-x="953" 
d="M40 138l33 133h135l31 130h-172l33 133h171l37 156h155l-37 -156h192l37 156h155l-37 -156h141l-33 -133h-140l-31 -130h172l-33 -133h-171l-33 -138h-154l33 138h-193l-33 -138h-155l33 138h-136zM363 271h192l31 130h-192z" />
    <glyph glyph-name="dollar" unicode="$" horiz-adv-x="829" 
d="M43 215h191q10 -55 55 -73t132 -18q90 0 134.5 17t44.5 61q0 56 -85.5 63.5t-187.5 18t-187.5 49t-85.5 154.5q0 101 72.5 152.5t203.5 61.5v109h169v-110q127 -11 197 -62.5t78 -152.5h-191q-7 49 -52 65t-120 16q-89 0 -130.5 -15.5t-41.5 -60.5q0 -53 85.5 -60.5
t187.5 -18t187.5 -48t85.5 -148.5q0 -110 -72 -164t-220 -63v-108h-169v110q-137 12 -204.5 66.5t-76.5 158.5z" />
    <glyph glyph-name="percent" unicode="%" horiz-adv-x="1167" 
d="M30 516q0 98 61.5 143t177.5 45t178 -45t62 -143q0 -99 -62 -144.5t-178 -45.5t-177.5 45.5t-61.5 144.5zM784 690h173l-579 -690h-173zM366 507v17q0 43 -23 56t-74 13t-73.5 -13t-22.5 -56v-17q0 -43 22.5 -56.5t73.5 -13.5t74 13.5t23 56.5zM658 175q0 99 62 144
t178 45q115 0 177 -45t62 -144q0 -98 -62 -143.5t-177 -45.5q-116 0 -178 45.5t-62 143.5zM994 166v18q0 43 -22.5 56t-73.5 13t-74 -13t-23 -56v-17q0 -43 23 -57t74 -14t73.5 13.5t22.5 56.5z" />
    <glyph glyph-name="ampersand" unicode="&#x26;" horiz-adv-x="885" 
d="M24 189q0 63 37.5 110t130.5 76q-42 34 -63.5 69t-21.5 83q0 78 65 127.5t214 49.5q147 0 211.5 -49t64.5 -126q0 -60 -47 -104.5t-149 -78.5l158 -113q13 23 21 51.5t11 60.5h161q-4 -60 -22 -110t-48 -90q20 -13 41.5 -18t53.5 -5h30v-122h-53q-54 0 -95 11.5t-78 38.5
l-4 3q-58 -34 -131 -50.5t-152 -16.5q-94 0 -158.5 16t-103.5 43.5t-56 64.5t-17 79zM276 518q0 -27 23.5 -50t63.5 -49q65 18 97.5 42.5t32.5 56.5v10q0 28 -29 42t-78 14q-50 0 -80 -14.5t-30 -42.5v-9zM205 195q0 -40 41.5 -62.5t125.5 -22.5q43 0 80.5 7t68.5 22
l-224 159q-48 -15 -70 -36.5t-22 -52.5v-14z" />
    <glyph glyph-name="quotesingle" unicode="'" horiz-adv-x="264" 
d="M45 690h174l-18 -261h-138z" />
    <glyph glyph-name="parenleft" unicode="(" horiz-adv-x="470" 
d="M39 265q0 123 29.5 211t82.5 145.5t127.5 87t164.5 36.5v-140q-106 -13 -164.5 -84.5t-58.5 -190.5v-129q0 -121 58.5 -192t164.5 -84v-140q-91 7 -165.5 36.5t-127.5 87t-82 146t-29 210.5z" />
    <glyph glyph-name="parenright" unicode=")" horiz-adv-x="470" 
d="M431 265q0 -123 -29.5 -211t-82.5 -145.5t-127.5 -87t-164.5 -36.5v140q106 13 164.5 84.5t58.5 190.5v129q0 121 -58.5 192t-164.5 84v140q91 -7 165.5 -36.5t127.5 -87t82 -146t29 -210.5z" />
    <glyph glyph-name="asterisk" unicode="*" horiz-adv-x="544" 
d="M47 444l123 53l-123 52l50 90l125 -69l-9 120h117l-9 -120l126 69l50 -90l-122 -53l122 -52l-50 -90l-126 69l9 -120h-117l8 119l-124 -68z" />
    <glyph glyph-name="plus" unicode="+" horiz-adv-x="728" 
d="M287 75v207h-231v150h231v208h155v-208h230v-150h-230v-207h-155z" />
    <glyph glyph-name="comma" unicode="," horiz-adv-x="287" 
d="M68 -71q40 0 58 12t18 38v7h-6q-47 0 -73 22t-26 69q0 43 25.5 65t76.5 22t77 -22.5t26 -72.5v-72q0 -84 -41 -120t-135 -36v88z" />
    <glyph glyph-name="hyphen" unicode="-" horiz-adv-x="474" 
d="M55 339h364v-155h-364v155z" />
    <glyph glyph-name="period" unicode="." horiz-adv-x="285" 
d="M40 75q0 47 26.5 68t76.5 21t76 -21t26 -68q0 -46 -26 -67.5t-76 -21.5t-76.5 21.5t-26.5 67.5z" />
    <glyph glyph-name="slash" unicode="/" horiz-adv-x="604" 
d="M400 740h184l-382 -835h-183z" />
    <glyph glyph-name="zero" unicode="0" horiz-adv-x="829" 
d="M48 348q0 98 26 166.5t73.5 110.5t115.5 60.5t152 18.5t152 -18.5t115.5 -60.5t73.5 -110.5t26 -166.5q0 -100 -26 -169.5t-73.5 -112t-115.5 -61.5t-152 -19t-152 19t-115.5 61.5t-73.5 112t-26 169.5zM591 310v75q0 91 -41 132.5t-135 41.5q-95 0 -136 -40.5
t-41 -133.5v-75q0 -99 41 -138.5t136 -40.5q94 0 135 40t41 139z" />
    <glyph glyph-name="one" unicode="1" horiz-adv-x="460" 
d="M28 578l166 112h189v-690h-189v527l-166 -114v165z" />
    <glyph glyph-name="two" unicode="2" horiz-adv-x="737" 
d="M46 72q0 133 70.5 192.5t155 88t155 49.5t70.5 78v16q0 37 -31.5 51.5t-91.5 14.5q-68 0 -98 -19t-37 -70h-191q9 131 96 181t231 50q151 0 231.5 -48.5t80.5 -165.5q0 -101 -65.5 -147t-145.5 -71t-150.5 -47t-80.5 -75h439v-150h-638v72z" />
    <glyph glyph-name="three" unicode="3" horiz-adv-x="752" 
d="M34 202h194q7 -40 43.5 -57t107.5 -17q75 0 108.5 17t33.5 54v19q0 37 -35 52.5t-104 15.5h-84v134h81q60 0 88.5 15.5t28.5 47.5v19q0 33 -30 46.5t-87 13.5t-91 -13t-42 -54h-194q9 116 96.5 162.5t229.5 46.5q145 0 224 -45.5t79 -141.5q0 -57 -32 -96.5t-94 -58.5
q71 -17 111.5 -56t40.5 -105q0 -110 -83 -162.5t-245 -52.5q-163 0 -251 50.5t-94 165.5z" />
    <glyph glyph-name="four" unicode="4" horiz-adv-x="791" 
d="M23 273l356 417h263v-399h121v-140h-121v-151h-188v151h-431v122zM218 291h236v276z" />
    <glyph glyph-name="five" unicode="5" horiz-adv-x="731" 
d="M36 197h194q7 -35 43 -51t99 -16q64 0 98 20t34 68v22q0 48 -34 69t-99 21q-55 0 -91 -12t-60 -34l-159 36l32 370h3v0h554v-147h-412l-13 -147q29 24 77.5 38.5t109.5 14.5q143 0 212 -56.5t69 -165.5q0 -119 -79 -180t-242 -61q-157 0 -241.5 51.5t-94.5 159.5z" />
    <glyph glyph-name="six" unicode="6" horiz-adv-x="787" 
d="M48 303q0 219 94 310t269 91q153 0 231.5 -53t87.5 -143h-188q-10 25 -40 39.5t-95 14.5q-85 0 -123.5 -41.5t-45.5 -154.5q34 37 90 56t130 19q139 0 214 -50t75 -164q0 -119 -85 -180t-257 -61q-183 0 -270 77t-87 240zM557 214v19q0 49 -36.5 68.5t-116.5 19.5
q-79 0 -117 -21.5t-38 -75.5q0 -53 36.5 -76t118.5 -23q81 0 117 20t36 69z" />
    <glyph glyph-name="seven" unicode="7" horiz-adv-x="641" 
d="M25 537v153h593v-132l-322 -558h-192l313 537h-392z" />
    <glyph glyph-name="eight" unicode="8" horiz-adv-x="793" 
d="M45 195q0 69 42.5 114t125.5 61q-76 15 -109 54.5t-33 96.5q0 51 24.5 86.5t67.5 56.5t103 30.5t131 9.5q70 0 130 -9.5t103.5 -30.5t68 -56.5t24.5 -86.5q0 -57 -32.5 -97t-107.5 -55q81 -16 123.5 -60.5t42.5 -113.5q0 -115 -91.5 -162t-260.5 -47q-171 0 -261.5 47
t-90.5 162zM535 485v14q0 38 -32 54.5t-106 16.5t-106 -16.5t-32 -53.5v-15q0 -35 32 -52t106 -17q73 0 105.5 17t32.5 52zM561 199v19q0 43 -40 61.5t-124 18.5q-83 0 -123.5 -18.5t-40.5 -61.5v-19q0 -43 41.5 -61t122.5 -18q80 0 122 18t42 61z" />
    <glyph glyph-name="nine" unicode="9" horiz-adv-x="786" 
d="M738 389q0 -219 -94 -310t-269 -91q-153 0 -231.5 53t-87.5 143h188q10 -25 40 -39.5t95 -14.5q85 0 123.5 41.5t45.5 154.5q-34 -37 -90 -56t-130 -19q-139 0 -214 50t-75 164q0 119 85 180t257 61q183 0 270 -77t87 -240zM229 478v-19q0 -49 36.5 -68.5t116.5 -19.5
q79 0 117 21.5t38 75.5q0 53 -36.5 76t-118.5 23q-81 0 -117 -20t-36 -69z" />
    <glyph glyph-name="colon" unicode=":" horiz-adv-x="313" 
d="M54 75q0 47 26.5 68t76.5 21t76 -21t26 -68q0 -46 -26 -67.5t-76 -21.5t-76.5 21.5t-26.5 67.5zM54 392q0 47 26.5 68t76.5 21t76 -21t26 -68q0 -46 -26 -67.5t-76 -21.5t-76.5 21.5t-26.5 67.5z" />
    <glyph glyph-name="semicolon" unicode=";" horiz-adv-x="314" 
d="M54 392q0 47 26.5 68t76.5 21t76 -21t26 -68q0 -46 -26 -67.5t-76 -21.5t-76.5 21.5t-26.5 67.5zM83 -71q40 0 58 12t18 38v7h-6q-47 0 -73 22t-26 69q0 43 25.5 65t76.5 22t77 -22.5t26 -72.5v-72q0 -84 -41 -120t-135 -36v88z" />
    <glyph glyph-name="less" unicode="&#x3c;" horiz-adv-x="729" 
d="M46 270v176l616 202v-159l-407 -130l407 -131v-160z" />
    <glyph glyph-name="equal" unicode="=" horiz-adv-x="762" 
d="M73 561h616v-150h-616v150zM73 302h616v-150h-616v150z" />
    <glyph glyph-name="greater" unicode="&#x3e;" horiz-adv-x="730" 
d="M684 446v-176l-616 -202v159l407 130l-407 131v160z" />
    <glyph glyph-name="question" unicode="?" horiz-adv-x="731" 
d="M504 491v16q0 31 -31.5 44t-105.5 13q-63 0 -104 -17t-46 -68h-190q2 63 27.5 106.5t70 69.5t106.5 37.5t137 11.5q163 0 245.5 -47.5t82.5 -147.5q0 -76 -42 -109.5t-92.5 -52t-92.5 -36t-42 -62.5v-15h-167v16q0 78 38 114t84 53.5t84 30t38 43.5zM244 75q0 47 26.5 68
t76.5 21t76 -21t26 -68q0 -46 -26 -67.5t-76 -21.5t-76.5 21.5t-26.5 67.5z" />
    <glyph glyph-name="at" unicode="@" horiz-adv-x="1205" 
d="M37 252q0 120 40 206t113.5 140.5t179.5 80t237 25.5q132 0 236.5 -24.5t176.5 -75t110 -128.5t38 -183q0 -137 -60.5 -206.5t-178.5 -69.5q-84 0 -133 29t-60 82q-23 -57 -73.5 -84t-127.5 -27q-106 0 -167 55t-61 180q0 123 61 178t167 55q61 0 106 -19t73 -56v57h155
v-245q0 -53 19 -69t53 -16q37 0 57 26.5t20 90.5v56q0 148 -105 211t-306 63q-202 0 -311 -68t-109 -231v-65q0 -87 29.5 -144.5t84 -91t132.5 -47t174 -13.5q30 0 68.5 2.5t77 7t73.5 11.5t57 17v-118q-20 -9 -51 -16.5t-68 -13t-77.5 -8.5t-79.5 -3q-125 0 -230.5 19.5
t-180.5 70t-117 138t-42 221.5zM709 229v44q0 51 -28.5 73t-88.5 22t-88 -22t-28 -73v-45q0 -49 28.5 -71.5t87.5 -22.5q60 0 88.5 22.5t28.5 72.5z" />
    <glyph glyph-name="A" unicode="A" horiz-adv-x="852" 
d="M297 690h259l297 -690h-196l-65 153h-352l-65 -153h-176zM298 289h236l-118 278z" />
    <glyph glyph-name="B" unicode="B" horiz-adv-x="816" 
d="M71 690h469q104 0 160 -42t56 -125q0 -51 -24.5 -93.5t-87.5 -63.5q71 -18 102 -61t31 -103q0 -98 -56.5 -150t-170.5 -52h-479v690zM568 482v19q0 32 -21.5 49t-61.5 17h-228v-155h228q40 0 61.5 18t21.5 52zM589 198v26q0 34 -23.5 52.5t-68.5 18.5h-240v-172h240
q44 0 68 19t24 56z" />
    <glyph glyph-name="C" unicode="C" horiz-adv-x="862" 
d="M41 344q0 100 27.5 169t79 111.5t126.5 61t169 18.5q173 0 274.5 -56.5t115.5 -196.5h-190q-11 66 -62 87t-138 21q-46 0 -85 -7.5t-67 -26.5t-43.5 -53t-15.5 -87v-80q0 -104 58 -139t153 -35q84 0 135 20.5t66 81.5h190q-16 -134 -117.5 -190.5t-273.5 -56.5
q-94 0 -169 18t-126.5 59t-79 110.5t-27.5 170.5z" />
    <glyph glyph-name="D" unicode="D" horiz-adv-x="887" 
d="M71 690h414q87 0 154.5 -17.5t113 -58t69.5 -106.5t24 -163t-24 -163t-69.5 -106.5t-113 -58t-154.5 -17.5h-414v690zM472 153q90 0 136.5 34.5t46.5 127.5v65q0 87 -46.5 122t-136.5 35h-213v-384h213z" />
    <glyph glyph-name="E" unicode="E" horiz-adv-x="746" 
d="M71 690h629v-144h-441v-124h340v-139h-340v-139h445v-144h-633v690z" />
    <glyph glyph-name="F" unicode="F" horiz-adv-x="710" 
d="M71 690h618v-153h-430v-131h343v-150h-343v-256h-188v690z" />
    <glyph glyph-name="G" unicode="G" horiz-adv-x="888" 
d="M41 344q0 100 27.5 169.5t79 111.5t127 60.5t170.5 18.5q172 0 273.5 -54.5t120.5 -187.5h-190q-15 57 -65.5 77.5t-138.5 20.5q-102 0 -157.5 -36.5t-55.5 -138.5v-82q0 -102 55 -137.5t157 -35.5q105 0 158.5 28t61.5 93h-216v125h399v-76q0 -84 -28.5 -143.5
t-80.5 -97.5t-127 -55.5t-166 -17.5q-95 0 -170.5 18t-127 59t-79 110.5t-27.5 170.5z" />
    <glyph glyph-name="H" unicode="H" horiz-adv-x="884" 
d="M71 690h188v-259h366v259h188v-690h-188v278h-366v-278h-188v690z" />
    <glyph glyph-name="I" unicode="I" horiz-adv-x="331" 
d="M71 690h188v-690h-188v690z" />
    <glyph glyph-name="J" unicode="J" horiz-adv-x="472" 
d="M16 148h130q38 0 54.5 21t16.5 56v465h188v-515q0 -84 -43.5 -129.5t-143.5 -45.5h-202v148z" />
    <glyph glyph-name="K" unicode="K" horiz-adv-x="815" 
d="M71 690h188v-262h79l252 262h222l-315 -328l334 -362h-239l-257 275h-76v-275h-188v690z" />
    <glyph glyph-name="L" unicode="L" horiz-adv-x="694" 
d="M71 690h188v-537h420v-153h-608v690z" />
    <glyph glyph-name="M" unicode="M" horiz-adv-x="1064" 
d="M424 88l-183 452v-540h-170v690h286l175 -431l174 431h287v-690h-188v541l-183 -453h-198z" />
    <glyph glyph-name="N" unicode="N" horiz-adv-x="897" 
d="M569 0l-325 503v-503h-173v690h258l324 -501v501h173v-690h-257z" />
    <glyph glyph-name="O" unicode="O" horiz-adv-x="943" 
d="M41 350q0 100 28.5 168t83 109.5t135 59t184.5 17.5q103 0 183.5 -17.5t135 -59t83 -109.5t28.5 -168q0 -103 -28.5 -173t-83 -112.5t-135 -60.5t-183.5 -18q-104 0 -184.5 18t-135 60.5t-83 112.5t-28.5 173zM712 310v73q0 98 -60.5 137t-179.5 39t-180 -39t-61 -137
v-73q0 -104 61 -141.5t180 -37.5t179.5 37.5t60.5 141.5z" />
    <glyph glyph-name="P" unicode="P" horiz-adv-x="819" 
d="M71 690h471q128 0 189.5 -63t61.5 -174q0 -114 -61.5 -177t-189.5 -63h-283v-213h-188v690zM602 438v28q0 34 -20.5 56t-66.5 22h-256v-185h256q46 0 66.5 21.5t20.5 57.5z" />
    <glyph glyph-name="Q" unicode="Q" horiz-adv-x="943" 
d="M41 350q0 100 28.5 168t83 109.5t135 59t184.5 17.5q103 0 183.5 -17.5t135 -59t83 -109.5t28.5 -168q0 -93 -23 -158.5t-67 -108.5l87 -95l-130 -101l-108 118q-40 -10 -88 -14.5t-101 -4.5q-104 0 -184.5 18t-135 60.5t-83 112.5t-28.5 173zM712 310v73q0 98 -60.5 137
t-179.5 39t-180 -39t-61 -137v-73q0 -104 61 -141.5t180 -37.5t179.5 37.5t60.5 141.5z" />
    <glyph glyph-name="R" unicode="R" horiz-adv-x="839" 
d="M71 690h469q121 0 187.5 -57.5t66.5 -164.5q0 -80 -35 -132.5t-99 -76.5l153 -259h-208l-141 239h-205v-239h-188v690zM603 456v20q0 34 -20.5 54.5t-70.5 20.5h-253v-172h253q49 0 70 21.5t21 55.5z" />
    <glyph glyph-name="S" unicode="S" horiz-adv-x="812" 
d="M34 215h191q10 -55 55 -73t132 -18q90 0 134.5 17t44.5 61q0 56 -85.5 63.5t-187.5 18t-187.5 49t-85.5 154.5t95 166.5t262 50.5q168 0 260.5 -51t102.5 -168h-191q-7 49 -52 65t-120 16q-89 0 -130.5 -15.5t-41.5 -60.5q0 -53 85.5 -60.5t187.5 -18t187.5 -48
t85.5 -148.5q0 -122 -90 -175.5t-274 -53.5q-188 0 -278 54t-100 175z" />
    <glyph glyph-name="T" unicode="T" horiz-adv-x="768" 
d="M290 537h-274v153h736v-153h-274v-537h-188v537z" />
    <glyph glyph-name="U" unicode="U" horiz-adv-x="863" 
d="M63 290v400h188v-393q0 -100 47.5 -133t142.5 -33t142 33t47 133v393h170v-400q0 -161 -90.5 -232.5t-268.5 -71.5q-184 0 -281 71.5t-97 232.5z" />
    <glyph glyph-name="V" unicode="V" horiz-adv-x="841" 
d="M0 690h201l232 -551l233 551h176l-295 -690h-255z" />
    <glyph glyph-name="W" unicode="W" horiz-adv-x="1118" 
d="M14 690h188l118 -514l139 514h228l133 -513l122 513h163l-166 -690h-245l-134 513l-139 -513h-246z" />
    <glyph glyph-name="X" unicode="X" horiz-adv-x="815" 
d="M601 0l-200 232l-201 -232h-207l302 346l-298 344h225l192 -222l191 222h207l-293 -335l307 -355h-225z" />
    <glyph glyph-name="Y" unicode="Y" horiz-adv-x="823" 
d="M326 276l-334 414h214l222 -279l203 279h190l-307 -415v-275h-188v276z" />
    <glyph glyph-name="Z" unicode="Z" horiz-adv-x="759" 
d="M42 153l433 386h-429v151h668v-153l-433 -386h437v-151h-676v153z" />
    <glyph glyph-name="bracketleft" unicode="[" horiz-adv-x="475" 
d="M75 740h375v-131h-206v-688h206v-131h-375v950z" />
    <glyph glyph-name="backslash" unicode="\" horiz-adv-x="602" 
d="M400 -95l-380 835h184l380 -835h-184z" />
    <glyph glyph-name="bracketright" unicode="]" horiz-adv-x="475" 
d="M400 -210h-375v131h206v688h-206v131h375v-950z" />
    <glyph glyph-name="asciicircum" unicode="^" horiz-adv-x="548" 
d="M360 433l-86 188l-86 -188h-156l140 297h204l140 -297h-156z" />
    <glyph glyph-name="underscore" unicode="_" horiz-adv-x="681" 
d="M0 -180v126h681v-126h-681z" />
    <glyph glyph-name="grave" unicode="`" horiz-adv-x="340" 
d="M5 767h189l141 -179h-155z" />
    <glyph glyph-name="a" unicode="a" horiz-adv-x="700" 
d="M31 141q0 76 55 117.5t177 45.5l202 7v17q0 46 -29 63.5t-86 17.5q-56 0 -83.5 -13.5t-34.5 -43.5h-181q11 84 84 128t215 44q146 0 220 -47.5t74 -148.5v-328h-173v78q-28 -43 -84 -67.5t-143 -24.5q-109 0 -161 41.5t-52 113.5zM212 153q0 -28 22 -40.5t72 -12.5
q70 0 114.5 25t44.5 78v18l-159 -6q-50 -2 -72 -13.5t-22 -39.5v-9z" />
    <glyph glyph-name="b" unicode="b" horiz-adv-x="756" 
d="M62 730h180v-292q31 44 84.5 65t127.5 21q124 0 195 -63.5t71 -206.5q0 -142 -71 -205t-195 -63q-77 0 -131.5 22t-85.5 70v-78h-175v730zM538 217v76q0 60 -37 84.5t-110 24.5q-76 0 -112.5 -24.5t-36.5 -84.5v-76q0 -62 36.5 -86t111.5 -24q74 0 111 24t37 86z" />
    <glyph glyph-name="c" unicode="c" horiz-adv-x="679" 
d="M36 255q0 149 77 209t237 60q134 0 212.5 -41.5t88.5 -140.5h-181q-7 29 -32.5 44.5t-88.5 15.5q-67 0 -99 -22t-32 -82v-83q0 -63 33 -85.5t98 -22.5q63 0 89 16.5t34 45.5h182q-13 -91 -87 -137t-218 -46q-78 0 -137 13t-98 44t-58.5 83t-19.5 129z" />
    <glyph glyph-name="d" unicode="d" horiz-adv-x="756" 
d="M35 253q0 144 72.5 207.5t199.5 63.5q72 0 124 -21t83 -65v292h180v-730h-176v79q-31 -47 -83.5 -70t-127.5 -23q-126 0 -199 63t-73 204zM514 217v76q0 60 -36.5 84.5t-111.5 24.5q-74 0 -111 -24.5t-37 -85.5v-76q0 -61 37 -85t111 -24t111 24t37 86z" />
    <glyph glyph-name="e" unicode="e" horiz-adv-x="695" 
d="M34 254q0 143 81 206.5t233 63.5q149 0 230.5 -58t81.5 -198v-32h-448v-18q0 -64 34.5 -90t101.5 -26q61 0 92.5 16t41.5 50h177q-20 -94 -98.5 -138t-212.5 -44q-153 0 -233.5 61t-80.5 207zM348 411q-62 0 -98 -20t-38 -68h273q-2 48 -35 68t-102 20z" />
    <glyph glyph-name="f" unicode="f" horiz-adv-x="471" 
d="M24 510h69v29q0 92 43 141.5t165 49.5h158v-131h-123q-35 0 -49 -15t-14 -49v-25h186v-131h-186v-379h-180v379h-69v131z" />
    <glyph glyph-name="g" unicode="g" horiz-adv-x="757" 
d="M57 -42h185q17 -29 47.5 -41.5t87.5 -12.5q75 0 107 27t32 108v38q-31 -41 -82.5 -60t-122.5 -19q-128 0 -201 60.5t-73 198.5q0 141 72.5 204t201.5 63q73 0 126 -21.5t84 -67.5v75h177v-468q0 -137 -82 -196.5t-242 -59.5q-149 0 -225.5 46t-91.5 126zM516 229v63
q0 62 -35 86t-113 24t-113.5 -25t-35.5 -86v-65q0 -58 36 -82.5t113 -24.5q78 0 113 24.5t35 85.5z" />
    <glyph glyph-name="h" unicode="h" horiz-adv-x="730" 
d="M494 0v311q0 51 -32 70.5t-92 19.5q-57 0 -92.5 -20.5t-35.5 -69.5v-311h-180v730h180v-298q27 47 83.5 69.5t125.5 22.5q108 0 165.5 -45.5t57.5 -149.5v-329h-180z" />
    <glyph glyph-name="i" unicode="i" horiz-adv-x="303" 
d="M62 510h180v-510h-180v510zM52 663q0 40 26.5 60.5t73.5 20.5q48 0 74 -20.5t26 -60.5q0 -41 -26 -61.5t-74 -20.5q-47 0 -73.5 20.5t-26.5 61.5z" />
    <glyph glyph-name="j" unicode="j" horiz-adv-x="303" 
d="M-54 -69h51q36 0 50.5 17.5t14.5 51.5v510h180v-533q0 -90 -38 -133.5t-139 -43.5h-119v131zM53 663q0 40 26.5 60.5t73.5 20.5q48 0 74 -20.5t26 -60.5q0 -41 -26 -61.5t-74 -20.5q-47 0 -73.5 20.5t-26.5 61.5z" />
    <glyph glyph-name="k" unicode="k" horiz-adv-x="688" 
d="M476 510h200l-221 -242l247 -268h-221l-177 190h-62v-190h-180v730h180v-409h61z" />
    <glyph glyph-name="l" unicode="l" horiz-adv-x="303" 
d="M62 730h180v-730h-180v730z" />
    <glyph glyph-name="m" unicode="m" horiz-adv-x="1081" 
d="M453 0v312q0 52 -26.5 70.5t-76.5 18.5q-49 0 -78.5 -19.5t-29.5 -70.5v-311h-180v510h175v-84q23 49 74.5 73.5t117.5 24.5q69 0 117 -23.5t70 -77.5q24 50 78.5 75.5t126.5 25.5q100 0 151.5 -47t51.5 -151v-326h-180v312q0 52 -26.5 70.5t-77.5 18.5
q-48 0 -77.5 -19.5t-29.5 -71.5v-310h-180z" />
    <glyph glyph-name="n" unicode="n" horiz-adv-x="730" 
d="M494 0v311q0 51 -32 70.5t-92 19.5q-57 0 -92.5 -20.5t-35.5 -69.5v-311h-180v510h175v-88q25 52 83 77t131 25q108 0 165.5 -45.5t57.5 -149.5v-329h-180z" />
    <glyph glyph-name="o" unicode="o" horiz-adv-x="731" 
d="M35 255q0 77 21 129t62.5 83t103.5 44t143 13t143.5 -13t104 -44t62.5 -83t21 -129q0 -78 -21 -130t-62.5 -83t-104 -43.5t-143.5 -12.5t-143 12.5t-103.5 43.5t-62.5 83t-21 130zM514 220v69q0 66 -37 89.5t-112 23.5q-74 0 -111 -23.5t-37 -89.5v-69q0 -65 37 -89
t111 -24q75 0 112 24t37 89z" />
    <glyph glyph-name="p" unicode="p" horiz-adv-x="756" 
d="M62 510h175v-79q31 48 86.5 70.5t134.5 22.5q122 0 192 -63.5t70 -206.5q0 -140 -69.5 -204t-192.5 -64q-75 0 -129.5 20.5t-86.5 63.5v-270h-180v710zM538 217v76q0 61 -37 85t-111 24q-75 0 -111.5 -24.5t-36.5 -84.5v-76q0 -62 36.5 -86t110.5 -24q75 0 112 24t37 86z
" />
    <glyph glyph-name="q" unicode="q" horiz-adv-x="753" 
d="M35 253q0 144 74 207.5t202 63.5q73 0 125 -21.5t82 -67.5v75h175v-710h-180v271q-31 -43 -82 -64t-120 -21q-128 0 -202 63t-74 204zM513 217v76q0 60 -36.5 84.5t-111.5 24.5q-73 0 -110.5 -24.5t-37.5 -85.5v-76q0 -61 37.5 -85t111.5 -24t110.5 24t36.5 86z" />
    <glyph glyph-name="r" unicode="r" horiz-adv-x="513" 
d="M62 510h175v-106q19 49 61.5 77.5t113.5 28.5h83v-148h-112q-78 0 -109.5 -25.5t-31.5 -82.5v-254h-180v510z" />
    <glyph glyph-name="s" unicode="s" horiz-adv-x="668" 
d="M29 163h182q6 -38 38.5 -52.5t90.5 -14.5q64 0 92.5 11.5t28.5 38.5q0 42 -66 47t-145 11.5t-145 36t-66 120.5q0 86 78 124.5t211 38.5q140 0 215.5 -39t82.5 -128h-182q-6 34 -35.5 45.5t-80.5 11.5q-54 0 -82.5 -10.5t-28.5 -35.5q0 -38 66 -42t145 -11.5t145 -38
t66 -121.5q0 -90 -76.5 -129t-222.5 -39t-223.5 39.5t-87.5 136.5z" />
    <glyph glyph-name="t" unicode="t" horiz-adv-x="467" 
d="M87 179v200h-68v131h68v152h180v-152h173v-131h-173v-179q0 -36 18.5 -52.5t62.5 -16.5h92v-131h-172q-96 0 -138.5 42.5t-42.5 136.5z" />
    <glyph glyph-name="u" unicode="u" horiz-adv-x="730" 
d="M57 184v326h180v-312q0 -51 31 -70t92 -19q55 0 92 20t37 71v310h180v-510h-176v86q-25 -51 -83 -75.5t-131 -24.5q-104 0 -163 44t-59 154z" />
    <glyph glyph-name="v" unicode="v" horiz-adv-x="667" 
d="M229 0l-229 510h183l161 -367l158 367h164l-227 -510h-210z" />
    <glyph glyph-name="w" unicode="w" horiz-adv-x="950" 
d="M163 0l-156 510h169l106 -359l106 359h196l107 -353l104 353h148l-156 -510h-204l-111 367l-109 -367h-200z" />
    <glyph glyph-name="x" unicode="x" horiz-adv-x="655" 
d="M458 0l-137 159l-143 -159h-184l232 256l-224 254h204l128 -146l134 146h183l-223 -243l234 -267h-204z" />
    <glyph glyph-name="y" unicode="y" horiz-adv-x="664" 
d="M82 -72h68q46 0 66 11.5t38 51.5l3 7l-262 512h187l162 -331l159 331h163l-263 -551q-22 -44 -44 -75t-47.5 -49.5t-58 -26.5t-76.5 -8h-95v128z" />
    <glyph glyph-name="z" unicode="z" horiz-adv-x="618" 
d="M38 130l313 249h-308v131h527v-131l-313 -248h330v-131h-549v130z" />
    <glyph glyph-name="braceleft" unicode="{" horiz-adv-x="487" 
d="M123 -53v141q0 50 -25.5 79t-84.5 30v137q59 1 84.5 31.5t25.5 77.5v140q0 83 38 120t130 37h170v-131h-117q-35 0 -46.5 -16.5t-11.5 -47.5v-124q0 -28 -3 -53t-14 -45t-33 -35t-59 -23q37 -6 59 -20t33 -33.5t14 -45t3 -54.5v-126q0 -32 11.5 -48.5t46.5 -16.5h117
v-131h-171q-92 0 -129.5 37t-37.5 120z" />
    <glyph glyph-name="bar" unicode="|" horiz-adv-x="322" 
d="M75 730h172v-930h-172v930z" />
    <glyph glyph-name="braceright" unicode="}" horiz-adv-x="487" 
d="M364 583v-141q0 -50 25.5 -79t84.5 -30v-137q-59 -1 -84.5 -31.5t-25.5 -77.5v-140q0 -83 -38 -120t-130 -37h-170v131h117q35 0 46.5 16.5t11.5 47.5v124q0 28 3 53t14 45t33 35t59 23q-37 6 -59 20t-33 33.5t-14 45t-3 54.5v126q0 32 -11.5 48.5t-46.5 16.5h-117v131
h171q92 0 129.5 -37t37.5 -120z" />
    <glyph glyph-name="asciitilde" unicode="~" horiz-adv-x="736" 
d="M237 471q47 0 83 -13.5t64.5 -29.5t53.5 -29.5t50 -13.5q27 0 39.5 22.5t12.5 59.5h147q0 -104 -45.5 -161.5t-138.5 -57.5q-44 0 -79.5 12.5t-65.5 28t-56 28t-51 12.5q-31 0 -44 -21t-13 -55h-146q0 105 47 161.5t142 56.5z" />
    <glyph glyph-name="nonbreakingspace" unicode="&#xa0;" horiz-adv-x="230" 
 />
    <glyph glyph-name="exclamdown" unicode="&#xa1;" horiz-adv-x="311" 
d="M53 435q0 46 26.5 67.5t76.5 21.5t76 -21.5t26 -67.5q0 -47 -26 -68t-76 -21t-76.5 21t-26.5 68zM52 -180l32 453h144l32 -453h-208z" />
    <glyph glyph-name="cent" unicode="&#xa2;" horiz-adv-x="707" 
d="M52 255q0 128 57 190t174 75v110h160v-110q99 -10 157 -52t67 -126h-181q-7 29 -32.5 44.5t-88.5 15.5q-67 0 -99 -22t-32 -82v-83q0 -63 33 -85.5t98 -22.5q63 0 89 16.5t34 45.5h182q-11 -78 -66.5 -123t-160.5 -56v-110h-160v110q-116 12 -173.5 72.5t-57.5 192.5z
" />
    <glyph glyph-name="sterling" unicode="&#xa3;" horiz-adv-x="805" 
d="M46 139q42 0 78.5 7t63 19.5t42 31.5t15.5 43v12h-186v115h94q-31 25 -56 57.5t-25 85.5q0 97 92 145.5t256 48.5q155 0 245 -50t98 -159h-190q-6 40 -42 56.5t-111 16.5t-117 -17t-42 -57v-10q0 -19 10.5 -33.5t26 -28t34.5 -26.5t37 -29h258v-115h-207
q-3 -32 -20.5 -58.5t-48.5 -46.5h410v-147h-715v139z" />
    <glyph glyph-name="currency" unicode="&#xa4;" horiz-adv-x="629" 
d="M45 173l66 66q-13 22 -20.5 49.5t-7.5 58.5q0 32 7.5 59.5t20.5 49.5l-66 67l86 87l79 -79q22 7 48.5 11t55.5 4t55 -4t48 -11l80 80l88 -88l-68 -68q13 -22 20.5 -49.5t7.5 -58.5t-7 -57.5t-20 -48.5l67 -68l-88 -87l-79 79q-22 -7 -48.5 -11t-55.5 -4t-55 4t-48 11
l-80 -79zM410 347q0 42 -24 63.5t-72 21.5t-72 -21.5t-24 -63.5q0 -41 24 -62.5t72 -21.5t72 21.5t24 62.5z" />
    <glyph glyph-name="yen" unicode="&#xa5;" horiz-adv-x="895" 
d="M132 94v115h223v59h-223v115h137l-247 307h214l223 -282l218 282h195l-245 -307h141v-115h-226v-59h226v-115h-226v-94h-187v94h-223z" />
    <glyph glyph-name="brokenbar" unicode="&#xa6;" horiz-adv-x="322" 
d="M75 730h172v-370h-172v370zM75 170h172v-370h-172v370z" />
    <glyph glyph-name="section" unicode="&#xa7;" horiz-adv-x="752" 
d="M55 32h182q5 -30 37.5 -46.5t108.5 -16.5q64 0 95 13t31 41v8q0 37 -73.5 52t-160.5 35t-160.5 59t-73.5 123q0 50 24 84t65 55q-28 21 -45.5 50t-17.5 69q0 93 78.5 139.5t226.5 46.5q159 0 232.5 -49.5t80.5 -144.5h-183q-5 34 -36 50t-94 16q-57 0 -90 -13t-33 -40v-9
q0 -37 72.5 -52.5t159 -35.5t159 -59t72.5 -122q0 -48 -22.5 -81.5t-64.5 -55.5q30 -21 48 -51t18 -71q0 -93 -80.5 -140.5t-227.5 -47.5q-163 0 -242.5 49t-85.5 145zM211 319q0 -27 27 -44t69.5 -28.5t95 -22t102.5 -24.5q17 10 27 24.5t10 33.5v9q0 26 -26.5 42.5
t-68.5 28.5t-94 22t-102 25q-19 -10 -29.5 -24.5t-10.5 -32.5v-9z" />
    <glyph glyph-name="dieresis" unicode="&#xa8;" horiz-adv-x="479" 
d="M13 677q0 41 22.5 62t68.5 21t68 -21t22 -62t-22 -62t-68 -21t-68.5 21t-22.5 62zM285 677q0 41 22.5 62t68.5 21q45 0 67.5 -21t22.5 -62t-22.5 -62t-67.5 -21q-46 0 -68.5 21t-22.5 62z" />
    <glyph glyph-name="copyright" unicode="&#xa9;" horiz-adv-x="940" 
d="M52 345q0 84 29 151t82.5 113t131.5 70.5t176 24.5q97 0 175 -24.5t131.5 -70.5t82 -113t28.5 -151t-28.5 -151t-82 -113t-131.5 -70.5t-175 -24.5q-98 0 -176 24.5t-131.5 70.5t-82.5 113t-29 151zM793 318v58q0 61 -23 107.5t-65 78t-101.5 47.5t-132.5 16
q-74 0 -134 -16t-102 -47.5t-65 -78.5t-23 -108v-57q0 -124 87.5 -188.5t236.5 -64.5t235.5 64.5t86.5 188.5zM257 345q0 88 52 137.5t163 49.5q85 0 141 -29.5t62 -107.5h-120q-4 24 -26.5 33.5t-56.5 9.5q-46 0 -68 -18.5t-22 -52.5v-43q0 -36 22.5 -53.5t66.5 -17.5
q36 0 58 9.5t26 31.5h121q-11 -72 -67 -103.5t-138 -31.5q-107 0 -160.5 48t-53.5 138z" />
    <glyph glyph-name="ordfeminine" unicode="&#xaa;" horiz-adv-x="614" 
d="M35 435q0 63 44.5 99.5t148.5 41.5l181 7v20q0 31 -24 46t-78 15q-48 0 -71.5 -10.5t-30.5 -34.5h-155q9 67 71 104.5t187 37.5q123 0 186.5 -40t63.5 -118v-287h-145v66q-26 -37 -75 -57.5t-121 -20.5q-91 0 -136.5 35t-45.5 96zM184 449q0 -22 18 -34.5t64 -12.5
q60 0 101.5 22t41.5 70v13l-154 -6q-35 -2 -53 -12t-18 -32v-8z" />
    <glyph glyph-name="guillemotleft" unicode="&#xab;" horiz-adv-x="652" 
d="M46 197v119l265 178v-149l-138 -86l138 -87v-153zM329 197v119l265 178v-149l-138 -86l138 -87v-153z" />
    <glyph glyph-name="logicalnot" unicode="&#xac;" horiz-adv-x="724" 
d="M35 502h623v-372h-159v222h-464v150z" />
    <glyph glyph-name="uni00AD" unicode="&#xad;" horiz-adv-x="474" 
d="M55 339h364v-155h-364v155z" />
    <glyph glyph-name="registered" unicode="&#xae;" horiz-adv-x="639" 
d="M54 479q0 108 71.5 166.5t193.5 58.5q124 0 195 -58.5t71 -166.5t-71 -166.5t-195 -58.5q-122 0 -193.5 58.5t-71.5 166.5zM512 469v31q0 74 -53 110t-140 36t-140 -36t-53 -110v-31q0 -81 52 -118.5t141 -37.5t141 37.5t52 118.5zM212 593h139q48 0 70 -21.5t22 -58.5
q0 -22 -8 -38.5t-24 -26.5l34 -75h-70l-29 61h-65v-61h-69v220zM370 519q0 10 -6.5 15t-19.5 5h-63v-51h63q13 0 19.5 5.5t6.5 15.5v10z" />
    <glyph glyph-name="macron" unicode="&#xaf;" horiz-adv-x="449" 
d="M28 624v106h387v-106h-387z" />
    <glyph glyph-name="degree" unicode="&#xb0;" horiz-adv-x="520" 
d="M33 525q0 87 59.5 133t167.5 46q109 0 168.5 -46.5t59.5 -132.5q0 -85 -59.5 -130.5t-168.5 -45.5q-108 0 -167.5 44.5t-59.5 131.5zM348 525q0 38 -21 57t-67 19t-66.5 -19t-20.5 -57t20.5 -55.5t66.5 -17.5t67 17.5t21 55.5z" />
    <glyph glyph-name="plusminus" unicode="&#xb1;" horiz-adv-x="732" 
d="M288 237v152h-230v150h230v151h156v-151h230v-150h-230v-152h-156zM58 183h616v-150h-616v150z" />
    <glyph glyph-name="twosuperior" unicode="&#xb2;" horiz-adv-x="519" 
d="M35 434q0 81 47.5 116.5t104 51.5t104 25.5t47.5 39.5v7q0 21 -19.5 29t-53.5 8q-38 0 -59 -11t-26 -34h-142q6 78 65.5 113t159.5 35q97 0 157 -30t60 -105q0 -65 -44 -92t-98 -40t-102.5 -24.5t-57.5 -43.5h300v-104h-443v59z" />
    <glyph glyph-name="threesuperior" unicode="&#xb3;" horiz-adv-x="527" 
d="M28 505h141q7 -22 29 -32t69 -10q41 0 61 8.5t20 28.5v9q0 20 -23 27.5t-69 7.5h-54v94h54q42 0 60 8.5t18 25.5v7q0 18 -17 25.5t-54 7.5t-59 -9.5t-26 -29.5h-140q6 75 67.5 108t159.5 33q97 0 155 -27.5t58 -88.5q0 -38 -23 -63t-66 -37q48 -10 76 -34t28 -67
q0 -71 -59.5 -103.5t-166.5 -32.5q-108 0 -171 32.5t-68 111.5z" />
    <glyph glyph-name="acute" unicode="&#xb4;" horiz-adv-x="336" 
d="M5 588l141 179h184l-175 -179h-150z" />
    <glyph glyph-name="paragraph" unicode="&#xb6;" horiz-adv-x="820" 
d="M28 483q0 116 61 161.5t171 45.5h215v-840h-158v428h-51q-112 0 -175 44.5t-63 160.5zM580 690h158v-840h-158v840z" />
    <glyph glyph-name="periodcentered" unicode="&#xb7;" horiz-adv-x="299" 
d="M47 282q0 47 26.5 68t76.5 21t76 -21t26 -68q0 -46 -26 -67.5t-76 -21.5t-76.5 21.5t-26.5 67.5z" />
    <glyph glyph-name="cedilla" unicode="&#xb8;" horiz-adv-x="500" 
d="M179 -224v85q37 0 59 1t33 4t14 8t3 13q0 16 -18.5 20.5t-84.5 4.5v88h115v-33q57 -4 96 -20.5t39 -70.5q0 -50 -44.5 -75t-124.5 -25h-87z" />
    <glyph glyph-name="onesuperior" unicode="&#xb9;" horiz-adv-x="347" 
d="M26 722l121 78h141v-425h-141v299l-121 -79v127z" />
    <glyph glyph-name="ordmasculine" unicode="&#xba;" horiz-adv-x="626" 
d="M34 535q0 128 74.5 177t205.5 49t204.5 -49t73.5 -177q0 -133 -73.5 -182.5t-204.5 -49.5t-205.5 49.5t-74.5 182.5zM440 508v56q0 51 -30.5 70.5t-95.5 19.5q-66 0 -96.5 -19.5t-30.5 -70.5v-57q0 -54 30.5 -75t96.5 -21q65 0 95.5 21.5t30.5 75.5z" />
    <glyph glyph-name="guillemotright" unicode="&#xbb;" horiz-adv-x="653" 
d="M607 315v-119l-265 -178v149l138 87l-138 86v153zM324 315v-119l-265 -178v149l138 87l-138 86v153z" />
    <glyph glyph-name="onequarter" unicode="&#xbc;" horiz-adv-x="1099" 
d="M31 612l121 78h141v-425h-141v299l-121 -79v127zM139 0l570 690h160l-570 -690h-160zM562 168l224 257h207v-247h76v-102h-76v-76h-137v76h-294v92zM711 178h145v167z" />
    <glyph glyph-name="onehalf" unicode="&#xbd;" horiz-adv-x="1132" 
d="M31 612l121 78h141v-425h-141v299l-121 -79v127zM138 0l570 690h160l-570 -690h-160zM644 59q0 81 47.5 116.5t104 51.5t104 25.5t47.5 39.5v7q0 21 -19.5 29t-53.5 8q-38 0 -59 -11t-26 -34h-142q6 78 65.5 113t159.5 35q97 0 157 -30t60 -105q0 -65 -44 -92t-98 -40
t-102.5 -24.5t-57.5 -43.5h300v-104h-443v59z" />
    <glyph glyph-name="threequarters" unicode="&#xbe;" horiz-adv-x="1237" 
d="M34 395h141q7 -22 29 -32t69 -10q41 0 61 8.5t20 28.5v9q0 20 -23 27.5t-69 7.5h-54v94h54q42 0 60 8.5t18 25.5v7q0 18 -17 25.5t-54 7.5t-59 -9.5t-26 -29.5h-140q6 75 67.5 108t159.5 33q97 0 155 -27.5t58 -88.5q0 -38 -23 -63t-66 -37q48 -10 76 -34t28 -67
q0 -71 -59.5 -103.5t-166.5 -32.5q-108 0 -171 32.5t-68 111.5zM288 0l570 690h160l-570 -690h-160zM699 168l224 257h207v-247h76v-102h-76v-76h-137v76h-294v92zM848 178h145v167z" />
    <glyph glyph-name="questiondown" unicode="&#xbf;" horiz-adv-x="727" 
d="M485 435q0 -47 -26.5 -68t-76.5 -21t-76 21t-26 68q0 46 26 67.5t76 21.5t76.5 -21.5t26.5 -67.5zM225 19v-16q0 -31 31.5 -44t105.5 -13q63 0 104 17t46 68h190q-2 -63 -27.5 -106.5t-70 -69.5t-106.5 -37.5t-137 -11.5q-163 0 -245.5 47.5t-82.5 147.5q0 76 42 109.5
t92.5 52t92.5 36t42 62.5v15h167v-16q0 -78 -38 -114t-84 -53.5t-84 -30t-38 -43.5z" />
    <glyph glyph-name="Agrave" unicode="&#xc0;" horiz-adv-x="852" 
d="M297 690h259l297 -690h-196l-65 153h-352l-65 -153h-176zM298 289h236l-118 278zM340 758l-188 166h198l157 -166h-167z" />
    <glyph glyph-name="Aacute" unicode="&#xc1;" horiz-adv-x="852" 
d="M297 690h259l297 -690h-196l-65 153h-352l-65 -153h-176zM298 289h236l-118 278zM340 758l158 166h193l-191 -166h-160z" />
    <glyph glyph-name="Acircumflex" unicode="&#xc2;" horiz-adv-x="852" 
d="M297 690h259l297 -690h-196l-65 153h-352l-65 -153h-176zM298 289h236l-118 278zM152 758l185 166h175l186 -166h-179l-98 80l-97 -80h-172z" />
    <glyph glyph-name="Atilde" unicode="&#xc3;" horiz-adv-x="852" 
d="M297 690h259l297 -690h-196l-65 153h-352l-65 -153h-176zM298 289h236l-118 278zM324 926q35 0 59 -8.5t42.5 -19t34.5 -19t34 -8.5q17 0 26.5 14t9.5 37h116q0 -79 -31.5 -122.5t-91.5 -43.5q-36 0 -61.5 9t-44.5 19t-35 19t-32 9q-18 0 -28 -13.5t-10 -38.5h-116
q0 78 31 122t97 44z" />
    <glyph glyph-name="Adieresis" unicode="&#xc4;" horiz-adv-x="852" 
d="M297 690h259l297 -690h-196l-65 153h-352l-65 -153h-176zM298 289h236l-118 278zM192 832q0 41 22.5 62t68.5 21t68 -21t22 -62t-22 -62t-68 -21t-68.5 21t-22.5 62zM472 832q0 41 22.5 62t67.5 21q46 0 68.5 -21t22.5 -62t-22.5 -62t-68.5 -21q-45 0 -67.5 21t-22.5 62z
" />
    <glyph glyph-name="Aring" unicode="&#xc5;" horiz-adv-x="852" 
d="M297 690h259l297 -690h-196l-65 153h-352l-65 -153h-176zM298 289h236l-118 278zM245 841q0 49 39 73.5t138 24.5t138.5 -24.5t39.5 -73.5q0 -50 -39.5 -74t-138.5 -24t-138 24t-39 74zM423 815q47 0 60 6.5t13 19.5t-13 19.5t-60 6.5q-48 0 -61 -6.5t-13 -19.5t13 -19.5
t61 -6.5z" />
    <glyph glyph-name="AE" unicode="&#xc6;" horiz-adv-x="1281" 
d="M533 690h702v-144h-441v-124h340v-139h-340v-139h445v-144h-633v161h-310l-130 -161h-196zM409 301h197v243z" />
    <glyph glyph-name="Ccedilla" unicode="&#xc7;" horiz-adv-x="861" 
d="M40 344q0 100 27.5 169t79 111.5t126.5 61t169 18.5q173 0 274.5 -56.5t115.5 -196.5h-190q-11 66 -62 87t-138 21q-46 0 -85 -7.5t-67 -26.5t-43.5 -53t-15.5 -87v-80q0 -104 58 -139t153 -35q84 0 135 20.5t66 81.5h190q-16 -134 -117.5 -190.5t-273.5 -56.5
q-94 0 -169 18t-126.5 59t-79 110.5t-27.5 170.5zM352 -222v85q37 0 59 1t33 4t14 8t3 13q0 16 -18.5 20.5t-84.5 4.5v88h115v-33q57 -4 96 -20.5t39 -70.5q0 -50 -44.5 -75t-124.5 -25h-87z" />
    <glyph glyph-name="Egrave" unicode="&#xc8;" horiz-adv-x="746" 
d="M71 690h629v-144h-441v-124h340v-139h-340v-139h445v-144h-633v690zM326 758l-188 166h198l157 -166h-167z" />
    <glyph glyph-name="Eacute" unicode="&#xc9;" horiz-adv-x="746" 
d="M71 690h629v-144h-441v-124h340v-139h-340v-139h445v-144h-633v690zM298 758l158 166h193l-191 -166h-160z" />
    <glyph glyph-name="Ecircumflex" unicode="&#xca;" horiz-adv-x="746" 
d="M71 690h629v-144h-441v-124h340v-139h-340v-139h445v-144h-633v690zM116 758l185 166h175l186 -166h-179l-98 80l-97 -80h-172z" />
    <glyph glyph-name="Edieresis" unicode="&#xcb;" horiz-adv-x="746" 
d="M71 690h629v-144h-441v-124h340v-139h-340v-139h445v-144h-633v690zM157 832q0 41 22.5 62t68.5 21t68 -21t22 -62t-22 -62t-68 -21t-68.5 21t-22.5 62zM437 832q0 41 22.5 62t67.5 21q46 0 68.5 -21t22.5 -62t-22.5 -62t-68.5 -21q-45 0 -67.5 21t-22.5 62z" />
    <glyph glyph-name="Igrave" unicode="&#xcc;" horiz-adv-x="331" 
d="M71 690h188v-690h-188v690zM82 758l-188 166h198l157 -166h-167z" />
    <glyph glyph-name="Iacute" unicode="&#xcd;" horiz-adv-x="331" 
d="M71 690h188v-690h-188v690zM82 758l158 166h193l-191 -166h-160z" />
    <glyph glyph-name="Icircumflex" unicode="&#xce;" horiz-adv-x="331" 
d="M71 690h188v-690h-188v690zM-107 758l185 166h175l186 -166h-179l-98 80l-97 -80h-172z" />
    <glyph glyph-name="Idieresis" unicode="&#xcf;" horiz-adv-x="331" 
d="M71 690h188v-690h-188v690zM-65 832q0 41 22.5 62t68.5 21t68 -21t22 -62t-22 -62t-68 -21t-68.5 21t-22.5 62zM215 832q0 41 22.5 62t67.5 21q46 0 68.5 -21t22.5 -62t-22.5 -62t-68.5 -21q-45 0 -67.5 21t-22.5 62z" />
    <glyph glyph-name="Eth" unicode="&#xd0;" horiz-adv-x="925" 
d="M24 284v131h84v275h414q87 0 154.5 -17.5t113 -58t69.5 -106.5t24 -163t-24 -163t-69.5 -106.5t-113 -58t-154.5 -17.5h-414v284h-84zM509 153q90 0 136.5 34.5t46.5 127.5v65q0 87 -46.5 122t-136.5 35h-213v-122h157v-131h-157v-131h213z" />
    <glyph glyph-name="Ntilde" unicode="&#xd1;" horiz-adv-x="897" 
d="M569 0l-325 503v-503h-173v690h258l324 -501v501h173v-690h-257zM355 926q35 0 59 -8.5t42.5 -19t34.5 -19t34 -8.5q17 0 26.5 14t9.5 37h116q0 -79 -31.5 -122.5t-91.5 -43.5q-36 0 -61.5 9t-44.5 19t-35 19t-32 9q-18 0 -28 -13.5t-10 -38.5h-116q0 78 31 122t97 44z
" />
    <glyph glyph-name="Ograve" unicode="&#xd2;" horiz-adv-x="943" 
d="M41 350q0 100 28.5 168t83 109.5t135 59t184.5 17.5q103 0 183.5 -17.5t135 -59t83 -109.5t28.5 -168q0 -103 -28.5 -173t-83 -112.5t-135 -60.5t-183.5 -18q-104 0 -184.5 18t-135 60.5t-83 112.5t-28.5 173zM712 310v73q0 98 -60.5 137t-179.5 39t-180 -39t-61 -137
v-73q0 -104 61 -141.5t180 -37.5t179.5 37.5t60.5 141.5zM398 758l-188 166h198l157 -166h-167z" />
    <glyph glyph-name="Oacute" unicode="&#xd3;" horiz-adv-x="943" 
d="M41 350q0 100 28.5 168t83 109.5t135 59t184.5 17.5q103 0 183.5 -17.5t135 -59t83 -109.5t28.5 -168q0 -103 -28.5 -173t-83 -112.5t-135 -60.5t-183.5 -18q-104 0 -184.5 18t-135 60.5t-83 112.5t-28.5 173zM712 310v73q0 98 -60.5 137t-179.5 39t-180 -39t-61 -137
v-73q0 -104 61 -141.5t180 -37.5t179.5 37.5t60.5 141.5zM384 758l158 166h193l-191 -166h-160z" />
    <glyph glyph-name="Ocircumflex" unicode="&#xd4;" horiz-adv-x="943" 
d="M41 350q0 100 28.5 168t83 109.5t135 59t184.5 17.5q103 0 183.5 -17.5t135 -59t83 -109.5t28.5 -168q0 -103 -28.5 -173t-83 -112.5t-135 -60.5t-183.5 -18q-104 0 -184.5 18t-135 60.5t-83 112.5t-28.5 173zM712 310v73q0 98 -60.5 137t-179.5 39t-180 -39t-61 -137
v-73q0 -104 61 -141.5t180 -37.5t179.5 37.5t60.5 141.5zM199 758l185 166h175l186 -166h-179l-98 80l-97 -80h-172z" />
    <glyph glyph-name="Otilde" unicode="&#xd5;" horiz-adv-x="943" 
d="M41 350q0 100 28.5 168t83 109.5t135 59t184.5 17.5q103 0 183.5 -17.5t135 -59t83 -109.5t28.5 -168q0 -103 -28.5 -173t-83 -112.5t-135 -60.5t-183.5 -18q-104 0 -184.5 18t-135 60.5t-83 112.5t-28.5 173zM712 310v73q0 98 -60.5 137t-179.5 39t-180 -39t-61 -137
v-73q0 -104 61 -141.5t180 -37.5t179.5 37.5t60.5 141.5zM373 928q35 0 59 -8.5t42.5 -19t34.5 -19t34 -8.5q17 0 26.5 14t9.5 37h116q0 -79 -31.5 -122.5t-91.5 -43.5q-36 0 -61.5 9t-44.5 19t-35 19t-32 9q-18 0 -28 -13.5t-10 -38.5h-116q0 78 31 122t97 44z" />
    <glyph glyph-name="Odieresis" unicode="&#xd6;" horiz-adv-x="943" 
d="M41 350q0 100 28.5 168t83 109.5t135 59t184.5 17.5q103 0 183.5 -17.5t135 -59t83 -109.5t28.5 -168q0 -103 -28.5 -173t-83 -112.5t-135 -60.5t-183.5 -18q-104 0 -184.5 18t-135 60.5t-83 112.5t-28.5 173zM712 310v73q0 98 -60.5 137t-179.5 39t-180 -39t-61 -137
v-73q0 -104 61 -141.5t180 -37.5t179.5 37.5t60.5 141.5zM241 832q0 41 22.5 62t68.5 21t68 -21t22 -62t-22 -62t-68 -21t-68.5 21t-22.5 62zM521 832q0 41 22.5 62t67.5 21q46 0 68.5 -21t22.5 -62t-22.5 -62t-68.5 -21q-45 0 -67.5 21t-22.5 62z" />
    <glyph glyph-name="multiply" unicode="&#xd7;" horiz-adv-x="701" 
d="M37 183l196 174l-197 175l106 114l208 -185l208 185l106 -113l-197 -175l197 -175l-106 -114l-208 185l-208 -185z" />
    <glyph glyph-name="Oslash" unicode="&#xd8;" horiz-adv-x="943" 
d="M41 350q0 100 28.5 168t83 109.5t135 59t184.5 17.5q57 0 106.5 -5t92.5 -16l46 53h182l-100 -115q51 -41 77 -108t26 -163q0 -103 -28.5 -173t-83 -112.5t-135 -60.5t-183.5 -18q-60 0 -112 5.5t-95 18.5l-44 -50h-182l101 115q-49 43 -74 110.5t-25 164.5zM231 310
q0 -32 6 -58t18 -45l302 346q-19 3 -40 4.5t-45 1.5q-119 0 -180 -39t-61 -137v-73zM712 310v73q0 34 -7.5 60.5t-21.5 45.5l-307 -351q21 -4 45 -5.5t51 -1.5q119 0 179.5 37.5t60.5 141.5z" />
    <glyph glyph-name="Ugrave" unicode="&#xd9;" horiz-adv-x="863" 
d="M63 290v400h188v-393q0 -100 47.5 -133t142.5 -33t142 33t47 133v393h170v-400q0 -161 -90.5 -232.5t-268.5 -71.5q-184 0 -281 71.5t-97 232.5zM373 758l-188 166h198l157 -166h-167z" />
    <glyph glyph-name="Uacute" unicode="&#xda;" horiz-adv-x="863" 
d="M63 290v400h188v-393q0 -100 47.5 -133t142.5 -33t142 33t47 133v393h170v-400q0 -161 -90.5 -232.5t-268.5 -71.5q-184 0 -281 71.5t-97 232.5zM359 758l158 166h193l-191 -166h-160z" />
    <glyph glyph-name="Ucircumflex" unicode="&#xdb;" horiz-adv-x="863" 
d="M63 290v400h188v-393q0 -100 47.5 -133t142.5 -33t142 33t47 133v393h170v-400q0 -161 -90.5 -232.5t-268.5 -71.5q-184 0 -281 71.5t-97 232.5zM159 758l185 166h175l186 -166h-179l-98 80l-97 -80h-172z" />
    <glyph glyph-name="Udieresis" unicode="&#xdc;" horiz-adv-x="863" 
d="M63 290v400h188v-393q0 -100 47.5 -133t142.5 -33t142 33t47 133v393h170v-400q0 -161 -90.5 -232.5t-268.5 -71.5q-184 0 -281 71.5t-97 232.5zM204 832q0 41 22.5 62t68.5 21t68 -21t22 -62t-22 -62t-68 -21t-68.5 21t-22.5 62zM484 832q0 41 22.5 62t67.5 21
q46 0 68.5 -21t22.5 -62t-22.5 -62t-68.5 -21q-45 0 -67.5 21t-22.5 62z" />
    <glyph glyph-name="Yacute" unicode="&#xdd;" horiz-adv-x="823" 
d="M326 276l-334 414h214l222 -279l203 279h190l-307 -415v-275h-188v276zM337 758l158 166h193l-191 -166h-160z" />
    <glyph glyph-name="Thorn" unicode="&#xde;" horiz-adv-x="831" 
d="M71 690h188v-93h288q128 0 189 -59.5t61 -166.5q0 -113 -61 -176.5t-189 -63.5h-288v-131h-188v690zM607 353v24q0 32 -20.5 53t-66.5 21h-261v-174h261q46 0 66.5 21t20.5 55z" />
    <glyph glyph-name="germandbls" unicode="&#xdf;" horiz-adv-x="772" 
d="M318 131h116q72 0 99 19t27 63v20q0 37 -26.5 57.5t-95.5 20.5h-122v128h81q69 0 95 16.5t26 57.5v17q0 41 -28.5 61t-104.5 20q-78 0 -110.5 -26t-32.5 -95v-490h-180v510q0 70 26 115t70 71t103 36t124 10q155 0 234 -50.5t79 -151.5q0 -46 -19.5 -87t-85.5 -60
q69 -13 107.5 -58t38.5 -126q0 -104 -66.5 -156.5t-194.5 -52.5h-160v131z" />
    <glyph glyph-name="agrave" unicode="&#xe0;" horiz-adv-x="700" 
d="M31 141q0 76 55 117.5t177 45.5l202 7v17q0 46 -29 63.5t-86 17.5q-56 0 -83.5 -13.5t-34.5 -43.5h-181q11 84 84 128t215 44q146 0 220 -47.5t74 -148.5v-328h-173v78q-28 -43 -84 -67.5t-143 -24.5q-109 0 -161 41.5t-52 113.5zM212 153q0 -28 22 -40.5t72 -12.5
q70 0 114.5 25t44.5 78v18l-159 -6q-50 -2 -72 -13.5t-22 -39.5v-9zM118 767h189l141 -179h-155z" />
    <glyph glyph-name="aacute" unicode="&#xe1;" horiz-adv-x="700" 
d="M31 141q0 76 55 117.5t177 45.5l202 7v17q0 46 -29 63.5t-86 17.5q-56 0 -83.5 -13.5t-34.5 -43.5h-181q11 84 84 128t215 44q146 0 220 -47.5t74 -148.5v-328h-173v78q-28 -43 -84 -67.5t-143 -24.5q-109 0 -161 41.5t-52 113.5zM212 153q0 -28 22 -40.5t72 -12.5
q70 0 114.5 25t44.5 78v18l-159 -6q-50 -2 -72 -13.5t-22 -39.5v-9zM269 588l141 179h184l-175 -179h-150z" />
    <glyph glyph-name="acircumflex" unicode="&#xe2;" horiz-adv-x="700" 
d="M31 141q0 76 55 117.5t177 45.5l202 7v17q0 46 -29 63.5t-86 17.5q-56 0 -83.5 -13.5t-34.5 -43.5h-181q11 84 84 128t215 44q146 0 220 -47.5t74 -148.5v-328h-173v78q-28 -43 -84 -67.5t-143 -24.5q-109 0 -161 41.5t-52 113.5zM212 153q0 -28 22 -40.5t72 -12.5
q70 0 114.5 25t44.5 78v18l-159 -6q-50 -2 -72 -13.5t-22 -39.5v-9zM101 587l162 179h167l162 -179h-164l-85 89l-85 -89h-157z" />
    <glyph glyph-name="atilde" unicode="&#xe3;" horiz-adv-x="700" 
d="M31 141q0 76 55 117.5t177 45.5l202 7v17q0 46 -29 63.5t-86 17.5q-56 0 -83.5 -13.5t-34.5 -43.5h-181q11 84 84 128t215 44q146 0 220 -47.5t74 -148.5v-328h-173v78q-28 -43 -84 -67.5t-143 -24.5q-109 0 -161 41.5t-52 113.5zM212 153q0 -28 22 -40.5t72 -12.5
q70 0 114.5 25t44.5 78v18l-159 -6q-50 -2 -72 -13.5t-22 -39.5v-9zM260 771q33 0 55.5 -10.5t39.5 -23.5t31.5 -23.5t31.5 -10.5t26.5 17.5t9.5 45.5h111q0 -87 -31 -134.5t-92 -47.5q-34 0 -58 11t-41.5 23.5t-32 23.5t-29.5 11q-18 0 -28 -16.5t-10 -47.5h-111
q0 85 31 133.5t97 48.5z" />
    <glyph glyph-name="adieresis" unicode="&#xe4;" horiz-adv-x="700" 
d="M31 141q0 76 55 117.5t177 45.5l202 7v17q0 46 -29 63.5t-86 17.5q-56 0 -83.5 -13.5t-34.5 -43.5h-181q11 84 84 128t215 44q146 0 220 -47.5t74 -148.5v-328h-173v78q-28 -43 -84 -67.5t-143 -24.5q-109 0 -161 41.5t-52 113.5zM212 153q0 -28 22 -40.5t72 -12.5
q70 0 114.5 25t44.5 78v18l-159 -6q-50 -2 -72 -13.5t-22 -39.5v-9zM120 679q0 41 22.5 62t68.5 21t68 -21t22 -62t-22 -62t-68 -21t-68.5 21t-22.5 62zM392 679q0 41 22.5 62t68.5 21q45 0 67.5 -21t22.5 -62t-22.5 -62t-67.5 -21q-46 0 -68.5 21t-22.5 62z" />
    <glyph glyph-name="aring" unicode="&#xe5;" horiz-adv-x="700" 
d="M31 141q0 76 55 117.5t177 45.5l202 7v17q0 46 -29 63.5t-86 17.5q-56 0 -83.5 -13.5t-34.5 -43.5h-181q11 84 84 128t215 44q146 0 220 -47.5t74 -148.5v-328h-173v78q-28 -43 -84 -67.5t-143 -24.5q-109 0 -161 41.5t-52 113.5zM212 153q0 -28 22 -40.5t72 -12.5
q70 0 114.5 25t44.5 78v18l-159 -6q-50 -2 -72 -13.5t-22 -39.5v-9zM187 678q0 50 39 77.5t124 27.5q87 0 126 -27.5t39 -77.5q0 -51 -39 -78.5t-126 -27.5q-85 0 -124 27.5t-39 78.5zM415 678q0 16 -13.5 24.5t-50.5 8.5t-50.5 -8.5t-13.5 -24.5t13.5 -25t50.5 -9t50.5 9
t13.5 25z" />
    <glyph glyph-name="ae" unicode="&#xe6;" horiz-adv-x="1126" 
d="M31 150q0 78 53.5 121.5t178.5 43.5h203v15q0 44 -29 61.5t-86 17.5q-56 0 -83.5 -13.5t-34.5 -43.5h-181q11 84 84 128t214 44q78 0 132.5 -19.5t85.5 -56.5q35 38 90 57t128 19q143 0 224 -59.5t81 -202.5v-32h-449v-12q0 -64 34.5 -90t101.5 -26q62 0 93 16t41 50h177
q-20 -94 -98 -138t-213 -44q-87 0 -147 25t-91 82q-31 -47 -97.5 -77t-176.5 -30q-122 0 -178.5 43.5t-56.5 120.5zM778 411q-63 0 -99.5 -21.5t-36.5 -71.5h273q-1 50 -34 71.5t-103 21.5zM313 100q66 0 109.5 25t43.5 78v25h-159q-51 0 -73 -15.5t-22 -48.5v-9
q0 -29 23.5 -42t77.5 -13z" />
    <glyph glyph-name="ccedilla" unicode="&#xe7;" horiz-adv-x="679" 
d="M36 255q0 149 77 209t237 60q134 0 212.5 -41.5t88.5 -140.5h-181q-7 29 -32.5 44.5t-88.5 15.5q-67 0 -99 -22t-32 -82v-83q0 -63 33 -85.5t98 -22.5q63 0 89 16.5t34 45.5h182q-13 -91 -87 -137t-218 -46q-78 0 -137 13t-98 44t-58.5 83t-19.5 129zM257 -224v85
q37 0 59 1t33 4t14 8t3 13q0 16 -18.5 20.5t-84.5 4.5v88h115v-33q57 -4 96 -20.5t39 -70.5q0 -50 -44.5 -75t-124.5 -25h-87z" />
    <glyph glyph-name="egrave" unicode="&#xe8;" horiz-adv-x="695" 
d="M34 254q0 143 81 206.5t233 63.5q149 0 230.5 -58t81.5 -198v-32h-448v-18q0 -64 34.5 -90t101.5 -26q61 0 92.5 16t41.5 50h177q-20 -94 -98.5 -138t-212.5 -44q-153 0 -233.5 61t-80.5 207zM348 411q-62 0 -98 -20t-38 -68h273q-2 48 -35 68t-102 20zM106 767h189
l141 -179h-155z" />
    <glyph glyph-name="eacute" unicode="&#xe9;" horiz-adv-x="695" 
d="M34 254q0 143 81 206.5t233 63.5q149 0 230.5 -58t81.5 -198v-32h-448v-18q0 -64 34.5 -90t101.5 -26q61 0 92.5 16t41.5 50h177q-20 -94 -98.5 -138t-212.5 -44q-153 0 -233.5 61t-80.5 207zM348 411q-62 0 -98 -20t-38 -68h273q-2 48 -35 68t-102 20zM259 588l141 179
h184l-175 -179h-150z" />
    <glyph glyph-name="ecircumflex" unicode="&#xea;" horiz-adv-x="695" 
d="M34 254q0 143 81 206.5t233 63.5q149 0 230.5 -58t81.5 -198v-32h-448v-18q0 -64 34.5 -90t101.5 -26q61 0 92.5 16t41.5 50h177q-20 -94 -98.5 -138t-212.5 -44q-153 0 -233.5 61t-80.5 207zM348 411q-62 0 -98 -20t-38 -68h273q-2 48 -35 68t-102 20zM102 588l162 179
h167l162 -179h-164l-85 89l-85 -89h-157z" />
    <glyph glyph-name="edieresis" unicode="&#xeb;" horiz-adv-x="695" 
d="M34 254q0 143 81 206.5t233 63.5q149 0 230.5 -58t81.5 -198v-32h-448v-18q0 -64 34.5 -90t101.5 -26q61 0 92.5 16t41.5 50h177q-20 -94 -98.5 -138t-212.5 -44q-153 0 -233.5 61t-80.5 207zM348 411q-62 0 -98 -20t-38 -68h273q-2 48 -35 68t-102 20zM121 679
q0 41 22.5 62t68.5 21t68 -21t22 -62t-22 -62t-68 -21t-68.5 21t-22.5 62zM393 679q0 41 22.5 62t68.5 21q45 0 67.5 -21t22.5 -62t-22.5 -62t-67.5 -21q-46 0 -68.5 21t-22.5 62z" />
    <glyph glyph-name="igrave" unicode="&#xec;" horiz-adv-x="303" 
d="M62 510h180v-510h-180v510zM-99 767h189l141 -179h-155z" />
    <glyph glyph-name="iacute" unicode="&#xed;" horiz-adv-x="303" 
d="M62 510h180v-510h-180v510zM77 588l141 179h184l-175 -179h-150z" />
    <glyph glyph-name="icircumflex" unicode="&#xee;" horiz-adv-x="303" 
d="M62 510h180v-510h-180v510zM-93 588l162 179h167l162 -179h-164l-85 89l-85 -89h-157z" />
    <glyph glyph-name="idieresis" unicode="&#xef;" horiz-adv-x="303" 
d="M62 510h180v-510h-180v510zM-74 679q0 41 22.5 62t68.5 21t68 -21t22 -62t-22 -62t-68 -21t-68.5 21t-22.5 62zM198 679q0 41 22.5 62t68.5 21q45 0 67.5 -21t22.5 -62t-22.5 -62t-67.5 -21q-46 0 -68.5 21t-22.5 62z" />
    <glyph glyph-name="eth" unicode="&#xf0;" horiz-adv-x="741" 
d="M33 245q0 62 22.5 106t62.5 71.5t94 40t117 12.5q67 0 114 -20.5t69 -56.5q-11 58 -42.5 100.5t-80.5 70.5l-141 -75l-49 70l86 46q-31 7 -65.5 12t-71.5 6v106q83 -2 156.5 -12t134.5 -30l112 60l49 -70l-64 -34q75 -46 117 -125t42 -198v-63q0 -133 -80.5 -204.5
t-250.5 -71.5q-156 0 -243.5 61t-87.5 198zM511 211v53q0 53 -33.5 78.5t-111.5 25.5q-80 0 -114.5 -24t-34.5 -75v-58q0 -52 35 -78t115 -26q79 0 111.5 26t32.5 78z" />
    <glyph glyph-name="ntilde" unicode="&#xf1;" horiz-adv-x="730" 
d="M494 0v311q0 51 -32 70.5t-92 19.5q-57 0 -92.5 -20.5t-35.5 -69.5v-311h-180v510h175v-88q25 52 83 77t131 25q108 0 165.5 -45.5t57.5 -149.5v-329h-180zM280 771q33 0 55.5 -10.5t39.5 -23.5t31.5 -23.5t31.5 -10.5t26.5 17.5t9.5 45.5h111q0 -87 -31 -134.5
t-92 -47.5q-34 0 -58 11t-41.5 23.5t-32 23.5t-29.5 11q-18 0 -28 -16.5t-10 -47.5h-111q0 85 31 133.5t97 48.5z" />
    <glyph glyph-name="ograve" unicode="&#xf2;" horiz-adv-x="731" 
d="M35 255q0 77 21 129t62.5 83t103.5 44t143 13t143.5 -13t104 -44t62.5 -83t21 -129q0 -78 -21 -130t-62.5 -83t-104 -43.5t-143.5 -12.5t-143 12.5t-103.5 43.5t-62.5 83t-21 130zM514 220v69q0 66 -37 89.5t-112 23.5q-74 0 -111 -23.5t-37 -89.5v-69q0 -65 37 -89
t111 -24q75 0 112 24t37 89zM115 767h189l141 -179h-155z" />
    <glyph glyph-name="oacute" unicode="&#xf3;" horiz-adv-x="731" 
d="M35 255q0 77 21 129t62.5 83t103.5 44t143 13t143.5 -13t104 -44t62.5 -83t21 -129q0 -78 -21 -130t-62.5 -83t-104 -43.5t-143.5 -12.5t-143 12.5t-103.5 43.5t-62.5 83t-21 130zM514 220v69q0 66 -37 89.5t-112 23.5q-74 0 -111 -23.5t-37 -89.5v-69q0 -65 37 -89
t111 -24q75 0 112 24t37 89zM283 588l141 179h184l-175 -179h-150z" />
    <glyph glyph-name="ocircumflex" unicode="&#xf4;" horiz-adv-x="731" 
d="M35 255q0 77 21 129t62.5 83t103.5 44t143 13t143.5 -13t104 -44t62.5 -83t21 -129q0 -78 -21 -130t-62.5 -83t-104 -43.5t-143.5 -12.5t-143 12.5t-103.5 43.5t-62.5 83t-21 130zM514 220v69q0 66 -37 89.5t-112 23.5q-74 0 -111 -23.5t-37 -89.5v-69q0 -65 37 -89
t111 -24q75 0 112 24t37 89zM121 588l162 179h167l162 -179h-164l-85 89l-85 -89h-157z" />
    <glyph glyph-name="otilde" unicode="&#xf5;" horiz-adv-x="731" 
d="M35 255q0 77 21 129t62.5 83t103.5 44t143 13t143.5 -13t104 -44t62.5 -83t21 -129q0 -78 -21 -130t-62.5 -83t-104 -43.5t-143.5 -12.5t-143 12.5t-103.5 43.5t-62.5 83t-21 130zM514 220v69q0 66 -37 89.5t-112 23.5q-74 0 -111 -23.5t-37 -89.5v-69q0 -65 37 -89
t111 -24q75 0 112 24t37 89zM277 771q33 0 55.5 -10.5t39.5 -23.5t31.5 -23.5t31.5 -10.5t26.5 17.5t9.5 45.5h111q0 -87 -31 -134.5t-92 -47.5q-34 0 -58 11t-41.5 23.5t-32 23.5t-29.5 11q-18 0 -28 -16.5t-10 -47.5h-111q0 85 31 133.5t97 48.5z" />
    <glyph glyph-name="odieresis" unicode="&#xf6;" horiz-adv-x="731" 
d="M35 255q0 77 21 129t62.5 83t103.5 44t143 13t143.5 -13t104 -44t62.5 -83t21 -129q0 -78 -21 -130t-62.5 -83t-104 -43.5t-143.5 -12.5t-143 12.5t-103.5 43.5t-62.5 83t-21 130zM514 220v69q0 66 -37 89.5t-112 23.5q-74 0 -111 -23.5t-37 -89.5v-69q0 -65 37 -89
t111 -24q75 0 112 24t37 89zM139 679q0 41 22.5 62t68.5 21t68 -21t22 -62t-22 -62t-68 -21t-68.5 21t-22.5 62zM411 679q0 41 22.5 62t68.5 21q45 0 67.5 -21t22.5 -62t-22.5 -62t-67.5 -21q-46 0 -68.5 21t-22.5 62z" />
    <glyph glyph-name="divide" unicode="&#xf7;" horiz-adv-x="714" 
d="M256 582q0 45 26 65.5t75 20.5t75.5 -20.5t26.5 -65.5q0 -46 -26.5 -66.5t-75.5 -20.5t-75 20.5t-26 66.5zM49 432h616v-150h-616v150zM256 134q0 45 26 65.5t75 20.5t75.5 -20.5t26.5 -65.5q0 -46 -26.5 -66.5t-75.5 -20.5t-75 20.5t-26 66.5z" />
    <glyph glyph-name="oslash" unicode="&#xf8;" horiz-adv-x="731" 
d="M35 255q0 77 21 129t62.5 83t103.5 44t143 13q34 0 65.5 -2.5t59.5 -6.5l33 43h146l-66 -85q46 -31 69.5 -84t23.5 -134q0 -78 -21 -130t-62.5 -83t-104 -43.5t-143.5 -12.5q-37 0 -69.5 2.5t-60.5 7.5l-32 -41h-146l65 84q-43 31 -65 83.5t-22 132.5zM213 220
q0 -16 2.5 -29t6.5 -23l179 233q-8 1 -17 1h-19q-76 0 -114 -23.5t-38 -89.5v-69zM518 220v69q0 18 -3 33t-8 26l-185 -239q10 -1 20.5 -1.5t22.5 -0.5q77 0 115 24t38 89z" />
    <glyph glyph-name="ugrave" unicode="&#xf9;" horiz-adv-x="730" 
d="M57 184v326h180v-312q0 -51 31 -70t92 -19q55 0 92 20t37 71v310h180v-510h-176v86q-25 -51 -83 -75.5t-131 -24.5q-104 0 -163 44t-59 154zM118 767h189l141 -179h-155z" />
    <glyph glyph-name="uacute" unicode="&#xfa;" horiz-adv-x="730" 
d="M57 184v326h180v-312q0 -51 31 -70t92 -19q55 0 92 20t37 71v310h180v-510h-176v86q-25 -51 -83 -75.5t-131 -24.5q-104 0 -163 44t-59 154zM286 588l141 179h184l-175 -179h-150z" />
    <glyph glyph-name="ucircumflex" unicode="&#xfb;" horiz-adv-x="730" 
d="M57 184v326h180v-312q0 -51 31 -70t92 -19q55 0 92 20t37 71v310h180v-510h-176v86q-25 -51 -83 -75.5t-131 -24.5q-104 0 -163 44t-59 154zM118 588l162 179h167l162 -179h-164l-85 89l-85 -89h-157z" />
    <glyph glyph-name="udieresis" unicode="&#xfc;" horiz-adv-x="730" 
d="M57 184v326h180v-312q0 -51 31 -70t92 -19q55 0 92 20t37 71v310h180v-510h-176v86q-25 -51 -83 -75.5t-131 -24.5q-104 0 -163 44t-59 154zM137 679q0 41 22.5 62t68.5 21t68 -21t22 -62t-22 -62t-68 -21t-68.5 21t-22.5 62zM409 679q0 41 22.5 62t68.5 21
q45 0 67.5 -21t22.5 -62t-22.5 -62t-67.5 -21q-46 0 -68.5 21t-22.5 62z" />
    <glyph glyph-name="yacute" unicode="&#xfd;" horiz-adv-x="664" 
d="M82 -72h68q46 0 66 11.5t38 51.5l3 7l-262 512h187l162 -331l159 331h163l-263 -551q-22 -44 -44 -75t-47.5 -49.5t-58 -26.5t-76.5 -8h-95v128zM264 588l141 179h184l-175 -179h-150z" />
    <glyph glyph-name="thorn" unicode="&#xfe;" horiz-adv-x="755" 
d="M62 730h179v-293q31 45 85.5 66t131.5 21q122 0 192 -63.5t70 -206.5q0 -140 -69.5 -204t-192.5 -64q-77 0 -131.5 21t-85.5 64v-271h-179v930zM538 217v76q0 61 -37 85t-112 24t-111.5 -24.5t-36.5 -84.5v-76q0 -62 36.5 -86t111.5 -24t112 24t37 86z" />
    <glyph glyph-name="ydieresis" unicode="&#xff;" horiz-adv-x="664" 
d="M82 -72h68q46 0 66 11.5t38 51.5l3 7l-262 512h187l162 -331l159 331h163l-263 -551q-22 -44 -44 -75t-47.5 -49.5t-58 -26.5t-76.5 -8h-95v128zM112 679q0 41 22.5 62t68.5 21t68 -21t22 -62t-22 -62t-68 -21t-68.5 21t-22.5 62zM384 679q0 41 22.5 62t68.5 21
q45 0 67.5 -21t22.5 -62t-22.5 -62t-67.5 -21q-46 0 -68.5 21t-22.5 62z" />
    <glyph glyph-name="Amacron" unicode="&#x100;" horiz-adv-x="852" 
d="M297 690h259l297 -690h-196l-65 153h-352l-65 -153h-176zM298 289h236l-118 278zM227 785v112h393v-112h-393z" />
    <glyph glyph-name="amacron" unicode="&#x101;" horiz-adv-x="700" 
d="M31 141q0 76 55 117.5t177 45.5l202 7v17q0 46 -29 63.5t-86 17.5q-56 0 -83.5 -13.5t-34.5 -43.5h-181q11 84 84 128t215 44q146 0 220 -47.5t74 -148.5v-328h-173v78q-28 -43 -84 -67.5t-143 -24.5q-109 0 -161 41.5t-52 113.5zM212 153q0 -28 22 -40.5t72 -12.5
q70 0 114.5 25t44.5 78v18l-159 -6q-50 -2 -72 -13.5t-22 -39.5v-9zM157 624v106h387v-106h-387z" />
    <glyph glyph-name="Abreve" unicode="&#x102;" horiz-adv-x="852" 
d="M297 690h259l297 -690h-196l-65 153h-352l-65 -153h-176zM298 289h236l-118 278zM195 924h136q3 -37 24.5 -53t67.5 -16t68 16t25 53h136q-3 -87 -59 -131t-170 -44q-113 0 -169.5 44t-58.5 131z" />
    <glyph glyph-name="abreve" unicode="&#x103;" horiz-adv-x="700" 
d="M31 141q0 76 55 117.5t177 45.5l202 7v17q0 46 -29 63.5t-86 17.5q-56 0 -83.5 -13.5t-34.5 -43.5h-181q11 84 84 128t215 44q146 0 220 -47.5t74 -148.5v-328h-173v78q-28 -43 -84 -67.5t-143 -24.5q-109 0 -161 41.5t-52 113.5zM212 153q0 -28 22 -40.5t72 -12.5
q70 0 114.5 25t44.5 78v18l-159 -6q-50 -2 -72 -13.5t-22 -39.5v-9zM133 767h132q2 -43 21.5 -62t64.5 -19q44 0 63.5 19t21.5 62h132q0 -93 -53.5 -139.5t-163.5 -46.5t-164 46.5t-54 139.5z" />
    <glyph glyph-name="Aogonek" unicode="&#x104;" horiz-adv-x="852" 
d="M297 690h259l297 -690h-70q-38 -4 -54 -18.5t-16 -30.5q0 -19 19 -30t75 -11v-115h-64q-82 0 -129 27.5t-47 81.5q0 40 20.5 69t61.5 45l-57 135h-352l-65 -153h-176zM298 289h236l-118 278z" />
    <glyph glyph-name="aogonek" unicode="&#x105;" horiz-adv-x="700" 
d="M31 141q0 76 55 117.5t177 45.5l202 7v17q0 46 -29 63.5t-86 17.5q-56 0 -83.5 -13.5t-34.5 -43.5h-181q11 84 84 128t215 44q146 0 220 -47.5t74 -148.5v-328h-59q-40 -3 -56 -17t-16 -32q0 -19 19 -30t73 -11v-115h-61q-81 0 -129 27t-48 81q0 43 27.5 71t76.5 39v65
q-28 -43 -84 -67.5t-143 -24.5q-109 0 -161 41.5t-52 113.5zM212 153q0 -28 22 -40.5t72 -12.5q70 0 114.5 25t44.5 78v18l-159 -6q-50 -2 -72 -13.5t-22 -39.5v-9z" />
    <glyph glyph-name="Cacute" unicode="&#x106;" horiz-adv-x="862" 
d="M41 344q0 100 27.5 169t79 111.5t126.5 61t169 18.5q173 0 274.5 -56.5t115.5 -196.5h-190q-11 66 -62 87t-138 21q-46 0 -85 -7.5t-67 -26.5t-43.5 -53t-15.5 -87v-80q0 -104 58 -139t153 -35q84 0 135 20.5t66 81.5h190q-16 -134 -117.5 -190.5t-273.5 -56.5
q-94 0 -169 18t-126.5 59t-79 110.5t-27.5 170.5zM355 758l158 166h193l-191 -166h-160z" />
    <glyph glyph-name="cacute" unicode="&#x107;" horiz-adv-x="679" 
d="M36 255q0 149 77 209t237 60q134 0 212.5 -41.5t88.5 -140.5h-181q-7 29 -32.5 44.5t-88.5 15.5q-67 0 -99 -22t-32 -82v-83q0 -63 33 -85.5t98 -22.5q63 0 89 16.5t34 45.5h182q-13 -91 -87 -137t-218 -46q-78 0 -137 13t-98 44t-58.5 83t-19.5 129zM258 588l141 179
h184l-175 -179h-150z" />
    <glyph glyph-name="Ccircumflex" unicode="&#x108;" horiz-adv-x="862" 
d="M41 344q0 100 27.5 169t79 111.5t126.5 61t169 18.5q173 0 274.5 -56.5t115.5 -196.5h-190q-11 66 -62 87t-138 21q-46 0 -85 -7.5t-67 -26.5t-43.5 -53t-15.5 -87v-80q0 -104 58 -139t153 -35q84 0 135 20.5t66 81.5h190q-16 -134 -117.5 -190.5t-273.5 -56.5
q-94 0 -169 18t-126.5 59t-79 110.5t-27.5 170.5zM171 758l185 166h175l186 -166h-179l-98 80l-97 -80h-172z" />
    <glyph glyph-name="ccircumflex" unicode="&#x109;" horiz-adv-x="679" 
d="M36 255q0 149 77 209t237 60q134 0 212.5 -41.5t88.5 -140.5h-181q-7 29 -32.5 44.5t-88.5 15.5q-67 0 -99 -22t-32 -82v-83q0 -63 33 -85.5t98 -22.5q63 0 89 16.5t34 45.5h182q-13 -91 -87 -137t-218 -46q-78 0 -137 13t-98 44t-58.5 83t-19.5 129zM99 587l162 179h167
l162 -179h-164l-85 89l-85 -89h-157z" />
    <glyph glyph-name="Cdotaccent" unicode="&#x10a;" horiz-adv-x="862" 
d="M41 344q0 100 27.5 169t79 111.5t126.5 61t169 18.5q173 0 274.5 -56.5t115.5 -196.5h-190q-11 66 -62 87t-138 21q-46 0 -85 -7.5t-67 -26.5t-43.5 -53t-15.5 -87v-80q0 -104 58 -139t153 -35q84 0 135 20.5t66 81.5h190q-16 -134 -117.5 -190.5t-273.5 -56.5
q-94 0 -169 18t-126.5 59t-79 110.5t-27.5 170.5zM347 841q0 41 24 61.5t73 20.5t72.5 -20.5t23.5 -61.5q0 -42 -23.5 -62.5t-72.5 -20.5t-73 20.5t-24 62.5z" />
    <glyph glyph-name="cdotaccent" unicode="&#x10b;" horiz-adv-x="679" 
d="M36 255q0 149 77 209t237 60q134 0 212.5 -41.5t88.5 -140.5h-181q-7 29 -32.5 44.5t-88.5 15.5q-67 0 -99 -22t-32 -82v-83q0 -63 33 -85.5t98 -22.5q63 0 89 16.5t34 45.5h182q-13 -91 -87 -137t-218 -46q-78 0 -137 13t-98 44t-58.5 83t-19.5 129zM246 667
q0 40 26.5 60.5t73.5 20.5q48 0 74 -20.5t26 -60.5q0 -41 -26 -61.5t-74 -20.5q-47 0 -73.5 20.5t-26.5 61.5z" />
    <glyph glyph-name="Ccaron" unicode="&#x10c;" horiz-adv-x="862" 
d="M41 344q0 100 27.5 169t79 111.5t126.5 61t169 18.5q173 0 274.5 -56.5t115.5 -196.5h-190q-11 66 -62 87t-138 21q-46 0 -85 -7.5t-67 -26.5t-43.5 -53t-15.5 -87v-80q0 -104 58 -139t153 -35q84 0 135 20.5t66 81.5h190q-16 -134 -117.5 -190.5t-273.5 -56.5
q-94 0 -169 18t-126.5 59t-79 110.5t-27.5 170.5zM169 924h179l97 -80l97 80h173l-186 -166h-174z" />
    <glyph glyph-name="ccaron" unicode="&#x10d;" horiz-adv-x="679" 
d="M36 255q0 149 77 209t237 60q134 0 212.5 -41.5t88.5 -140.5h-181q-7 29 -32.5 44.5t-88.5 15.5q-67 0 -99 -22t-32 -82v-83q0 -63 33 -85.5t98 -22.5q63 0 89 16.5t34 45.5h182q-13 -91 -87 -137t-218 -46q-78 0 -137 13t-98 44t-58.5 83t-19.5 129zM100 767h164l85 -90
l85 90h157l-162 -179h-167z" />
    <glyph glyph-name="Dcaron" unicode="&#x10e;" horiz-adv-x="887" 
d="M71 690h414q87 0 154.5 -17.5t113 -58t69.5 -106.5t24 -163t-24 -163t-69.5 -106.5t-113 -58t-154.5 -17.5h-414v690zM472 153q90 0 136.5 34.5t46.5 127.5v65q0 87 -46.5 122t-136.5 35h-213v-384h213zM143 924h179l97 -80l97 80h173l-186 -166h-174z" />
    <glyph glyph-name="dcaron" unicode="&#x10f;" horiz-adv-x="816" 
d="M35 253q0 144 72.5 207.5t199.5 63.5q72 0 124 -21t83 -65v292h180v-730h-176v79q-31 -47 -83.5 -70t-127.5 -23q-126 0 -199 63t-73 204zM514 217v76q0 60 -36.5 84.5t-111.5 24.5q-74 0 -111 -24.5t-37 -85.5v-76q0 -61 37 -85t111 -24t111 24t37 86zM745 538l11 192
h145l-40 -192h-116z" />
    <glyph glyph-name="Dcroat" unicode="&#x110;" horiz-adv-x="925" 
d="M24 284v131h84v275h414q87 0 154.5 -17.5t113 -58t69.5 -106.5t24 -163t-24 -163t-69.5 -106.5t-113 -58t-154.5 -17.5h-414v284h-84zM509 153q90 0 136.5 34.5t46.5 127.5v65q0 87 -46.5 122t-136.5 35h-213v-122h157v-131h-157v-131h213z" />
    <glyph glyph-name="dcroat" unicode="&#x111;" horiz-adv-x="756" 
d="M35 253q0 144 72.5 207.5t199.5 63.5q72 0 124 -21t83 -65v121h-179v99h179v72h180v-72h64v-99h-64v-559h-176v79q-31 -47 -83.5 -70t-127.5 -23q-126 0 -199 63t-73 204zM514 217v76q0 60 -36.5 84.5t-111.5 24.5q-74 0 -111 -24.5t-37 -85.5v-76q0 -61 37 -85t111 -24
t111 24t37 86z" />
    <glyph glyph-name="Emacron" unicode="&#x112;" horiz-adv-x="746" 
d="M71 690h629v-144h-441v-124h340v-139h-340v-139h445v-144h-633v690zM192 785v112h393v-112h-393z" />
    <glyph glyph-name="emacron" unicode="&#x113;" horiz-adv-x="695" 
d="M34 254q0 143 81 206.5t233 63.5q149 0 230.5 -58t81.5 -198v-32h-448v-18q0 -64 34.5 -90t101.5 -26q61 0 92.5 16t41.5 50h177q-20 -94 -98.5 -138t-212.5 -44q-153 0 -233.5 61t-80.5 207zM348 411q-62 0 -98 -20t-38 -68h273q-2 48 -35 68t-102 20zM154 624v106h387
v-106h-387z" />
    <glyph glyph-name="Ebreve" unicode="&#x114;" horiz-adv-x="746" 
d="M71 690h629v-144h-441v-124h340v-139h-340v-139h445v-144h-633v690zM160 924h136q3 -37 24.5 -53t67.5 -16t68 16t25 53h136q-3 -87 -59 -131t-170 -44q-113 0 -169.5 44t-58.5 131z" />
    <glyph glyph-name="ebreve" unicode="&#x115;" horiz-adv-x="695" 
d="M34 254q0 143 81 206.5t233 63.5q149 0 230.5 -58t81.5 -198v-32h-448v-18q0 -64 34.5 -90t101.5 -26q61 0 92.5 16t41.5 50h177q-20 -94 -98.5 -138t-212.5 -44q-153 0 -233.5 61t-80.5 207zM348 411q-62 0 -98 -20t-38 -68h273q-2 48 -35 68t-102 20zM130 767h132
q2 -43 21.5 -62t64.5 -19q44 0 63.5 19t21.5 62h132q0 -93 -53.5 -139.5t-163.5 -46.5t-164 46.5t-54 139.5z" />
    <glyph glyph-name="Edotaccent" unicode="&#x116;" horiz-adv-x="746" 
d="M71 690h629v-144h-441v-124h340v-139h-340v-139h445v-144h-633v690zM295 841q0 41 24 61.5t73 20.5t72.5 -20.5t23.5 -61.5q0 -42 -23.5 -62.5t-72.5 -20.5t-73 20.5t-24 62.5z" />
    <glyph glyph-name="edotaccent" unicode="&#x117;" horiz-adv-x="695" 
d="M34 254q0 143 81 206.5t233 63.5q149 0 230.5 -58t81.5 -198v-32h-448v-18q0 -64 34.5 -90t101.5 -26q61 0 92.5 16t41.5 50h177q-20 -94 -98.5 -138t-212.5 -44q-153 0 -233.5 61t-80.5 207zM348 411q-62 0 -98 -20t-38 -68h273q-2 48 -35 68t-102 20zM248 667
q0 40 26.5 60.5t73.5 20.5q48 0 74 -20.5t26 -60.5q0 -41 -26 -61.5t-74 -20.5q-47 0 -73.5 20.5t-26.5 61.5z" />
    <glyph glyph-name="Eogonek" unicode="&#x118;" horiz-adv-x="746" 
d="M644 -205q-81 0 -129 26.5t-48 78.5q0 37 24 62.5t71 37.5h-491v690h629v-144h-441v-124h340v-139h-340v-139h445v-144q-48 -3 -69.5 -16.5t-21.5 -31.5q0 -20 19 -31t72 -11v-115h-60z" />
    <glyph glyph-name="eogonek" unicode="&#x119;" horiz-adv-x="695" 
d="M34 254q0 143 81 206.5t233 63.5q149 0 230.5 -58t81.5 -198v-32h-448v-18q0 -64 34.5 -90t101.5 -26q61 0 92.5 16t41.5 50h177q-12 -49 -39.5 -84t-72.5 -57q-7 -4 -14 -7.5t-14 -6.5q-36 -17 -60 -31.5t-24 -33.5q0 -17 20 -27.5t74 -10.5v-115h-57q-85 0 -134 27
t-49 80q0 28 15 49.5t43 34.5q-152 0 -232.5 61t-80.5 207zM348 411q-62 0 -98 -20t-38 -68h273q-2 48 -35 68t-102 20z" />
    <glyph glyph-name="Ecaron" unicode="&#x11a;" horiz-adv-x="746" 
d="M71 690h629v-144h-441v-124h340v-139h-340v-139h445v-144h-633v690zM116 924h179l97 -80l97 80h173l-186 -166h-174z" />
    <glyph glyph-name="ecaron" unicode="&#x11b;" horiz-adv-x="695" 
d="M34 254q0 143 81 206.5t233 63.5q149 0 230.5 -58t81.5 -198v-32h-448v-18q0 -64 34.5 -90t101.5 -26q61 0 92.5 16t41.5 50h177q-20 -94 -98.5 -138t-212.5 -44q-153 0 -233.5 61t-80.5 207zM348 411q-62 0 -98 -20t-38 -68h273q-2 48 -35 68t-102 20zM102 767h164
l85 -90l85 90h157l-162 -179h-167z" />
    <glyph glyph-name="Gcircumflex" unicode="&#x11c;" horiz-adv-x="888" 
d="M41 344q0 100 27.5 169.5t79 111.5t127 60.5t170.5 18.5q172 0 273.5 -54.5t120.5 -187.5h-190q-15 57 -65.5 77.5t-138.5 20.5q-102 0 -157.5 -36.5t-55.5 -138.5v-82q0 -102 55 -137.5t157 -35.5q105 0 158.5 28t61.5 93h-216v125h399v-76q0 -84 -28.5 -143.5
t-80.5 -97.5t-127 -55.5t-166 -17.5q-95 0 -170.5 18t-127 59t-79 110.5t-27.5 170.5zM172 758l185 166h175l186 -166h-179l-98 80l-97 -80h-172z" />
    <glyph glyph-name="gcircumflex" unicode="&#x11d;" horiz-adv-x="757" 
d="M57 -42h185q17 -29 47.5 -41.5t87.5 -12.5q75 0 107 27t32 108v38q-31 -41 -82.5 -60t-122.5 -19q-128 0 -201 60.5t-73 198.5q0 141 72.5 204t201.5 63q73 0 126 -21.5t84 -67.5v75h177v-468q0 -137 -82 -196.5t-242 -59.5q-149 0 -225.5 46t-91.5 126zM516 229v63
q0 62 -35 86t-113 24t-113.5 -25t-35.5 -86v-65q0 -58 36 -82.5t113 -24.5q78 0 113 24.5t35 85.5zM126 588l162 179h167l162 -179h-164l-85 89l-85 -89h-157z" />
    <glyph glyph-name="Gbreve" unicode="&#x11e;" horiz-adv-x="888" 
d="M41 344q0 100 27.5 169.5t79 111.5t127 60.5t170.5 18.5q172 0 273.5 -54.5t120.5 -187.5h-190q-15 57 -65.5 77.5t-138.5 20.5q-102 0 -157.5 -36.5t-55.5 -138.5v-82q0 -102 55 -137.5t157 -35.5q105 0 158.5 28t61.5 93h-216v125h399v-76q0 -84 -28.5 -143.5
t-80.5 -97.5t-127 -55.5t-166 -17.5q-95 0 -170.5 18t-127 59t-79 110.5t-27.5 170.5zM216 924h136q3 -37 24.5 -53t67.5 -16t68 16t25 53h136q-3 -87 -59 -131t-170 -44q-113 0 -169.5 44t-58.5 131z" />
    <glyph glyph-name="gbreve" unicode="&#x11f;" horiz-adv-x="757" 
d="M57 -42h185q17 -29 47.5 -41.5t87.5 -12.5q75 0 107 27t32 108v38q-31 -41 -82.5 -60t-122.5 -19q-128 0 -201 60.5t-73 198.5q0 141 72.5 204t201.5 63q73 0 126 -21.5t84 -67.5v75h177v-468q0 -137 -82 -196.5t-242 -59.5q-149 0 -225.5 46t-91.5 126zM516 229v63
q0 62 -35 86t-113 24t-113.5 -25t-35.5 -86v-65q0 -58 36 -82.5t113 -24.5q78 0 113 24.5t35 85.5zM153 767h132q2 -43 21.5 -62t64.5 -19q44 0 63.5 19t21.5 62h132q0 -93 -53.5 -139.5t-163.5 -46.5t-164 46.5t-54 139.5z" />
    <glyph glyph-name="Gdotaccent" unicode="&#x120;" horiz-adv-x="888" 
d="M41 344q0 100 27.5 169.5t79 111.5t127 60.5t170.5 18.5q172 0 273.5 -54.5t120.5 -187.5h-190q-15 57 -65.5 77.5t-138.5 20.5q-102 0 -157.5 -36.5t-55.5 -138.5v-82q0 -102 55 -137.5t157 -35.5q105 0 158.5 28t61.5 93h-216v125h399v-76q0 -84 -28.5 -143.5
t-80.5 -97.5t-127 -55.5t-166 -17.5q-95 0 -170.5 18t-127 59t-79 110.5t-27.5 170.5zM349 841q0 41 24 61.5t73 20.5t72.5 -20.5t23.5 -61.5q0 -42 -23.5 -62.5t-72.5 -20.5t-73 20.5t-24 62.5z" />
    <glyph glyph-name="gdotaccent" unicode="&#x121;" horiz-adv-x="757" 
d="M57 -42h185q17 -29 47.5 -41.5t87.5 -12.5q75 0 107 27t32 108v38q-31 -41 -82.5 -60t-122.5 -19q-128 0 -201 60.5t-73 198.5q0 141 72.5 204t201.5 63q73 0 126 -21.5t84 -67.5v75h177v-468q0 -137 -82 -196.5t-242 -59.5q-149 0 -225.5 46t-91.5 126zM516 229v63
q0 62 -35 86t-113 24t-113.5 -25t-35.5 -86v-65q0 -58 36 -82.5t113 -24.5q78 0 113 24.5t35 85.5zM272 667q0 40 26.5 60.5t73.5 20.5q48 0 74 -20.5t26 -60.5q0 -41 -26 -61.5t-74 -20.5q-47 0 -73.5 20.5t-26.5 61.5z" />
    <glyph glyph-name="Gcommaaccent" unicode="&#x122;" horiz-adv-x="888" 
d="M41 344q0 100 27.5 169.5t79 111.5t127 60.5t170.5 18.5q172 0 273.5 -54.5t120.5 -187.5h-190q-15 57 -65.5 77.5t-138.5 20.5q-102 0 -157.5 -36.5t-55.5 -138.5v-82q0 -102 55 -137.5t157 -35.5q105 0 158.5 28t61.5 93h-216v125h399v-76q0 -84 -28.5 -143.5
t-80.5 -97.5t-127 -55.5t-166 -17.5q-95 0 -170.5 18t-127 59t-79 110.5t-27.5 170.5zM374 -215q40 0 58 8.5t18 27.5h-6q-47 0 -73 14.5t-26 49.5t25.5 52.5t76.5 17.5t77 -20t26 -66v-22q0 -72 -41 -102.5t-135 -30.5v71z" />
    <glyph glyph-name="gcommaaccent" unicode="&#x123;" horiz-adv-x="757" 
d="M57 -42h185q17 -29 47.5 -41.5t87.5 -12.5q75 0 107 27t32 108v38q-31 -41 -82.5 -60t-122.5 -19q-128 0 -201 60.5t-73 198.5q0 141 72.5 204t201.5 63q73 0 126 -21.5t84 -67.5v75h177v-468q0 -137 -82 -196.5t-242 -59.5q-149 0 -225.5 46t-91.5 126zM516 229v63
q0 62 -35 86t-113 24t-113.5 -25t-35.5 -86v-65q0 -58 36 -82.5t113 -24.5q78 0 113 24.5t35 85.5zM445 747q-40 0 -58 -8.5t-18 -27.5h6q47 0 73 -14.5t26 -49.5t-25.5 -52.5t-76.5 -17.5t-77 20t-26 66v22q0 72 41 102.5t135 30.5v-71z" />
    <glyph glyph-name="Hcircumflex" unicode="&#x124;" horiz-adv-x="884" 
d="M71 690h188v-259h366v259h188v-690h-188v278h-366v-278h-188v690zM169 758l185 166h175l186 -166h-179l-98 80l-97 -80h-172z" />
    <glyph glyph-name="hcircumflex" unicode="&#x125;" horiz-adv-x="730" 
d="M494 0v311q0 51 -32 70.5t-92 19.5q-57 0 -92.5 -20.5t-35.5 -69.5v-311h-180v730h180v-298q27 47 83.5 69.5t125.5 22.5q108 0 165.5 -45.5t57.5 -149.5v-329h-180zM101 768l185 166h175l186 -166h-179l-98 80l-97 -80h-172z" />
    <glyph glyph-name="Hbar" unicode="&#x126;" horiz-adv-x="914" 
d="M18 505v113h68v72h188v-72h366v72h188v-72h68v-113h-68v-505h-188v278h-366v-278h-188v505h-68zM274 431h366v74h-366v-74z" />
    <glyph glyph-name="hbar" unicode="&#x127;" horiz-adv-x="730" 
d="M494 0v311q0 51 -32 70.5t-92 19.5q-57 0 -92.5 -20.5t-35.5 -69.5v-311h-180v559h-60v99h60v72h180v-72h181v-99h-181v-127q27 47 83.5 69.5t125.5 22.5q108 0 165.5 -45.5t57.5 -149.5v-329h-180z" />
    <glyph glyph-name="Itilde" unicode="&#x128;" horiz-adv-x="331" 
d="M71 690h188v-690h-188v690zM69 926q35 0 59 -8.5t42.5 -19t34.5 -19t34 -8.5q17 0 26.5 14t9.5 37h116q0 -79 -31.5 -122.5t-91.5 -43.5q-36 0 -61.5 9t-44.5 19t-35 19t-32 9q-18 0 -28 -13.5t-10 -38.5h-116q0 78 31 122t97 44z" />
    <glyph glyph-name="itilde" unicode="&#x129;" horiz-adv-x="303" 
d="M62 510h180v-510h-180v510zM64 771q33 0 55.5 -10.5t39.5 -23.5t31.5 -23.5t31.5 -10.5t26.5 17.5t9.5 45.5h111q0 -87 -31 -134.5t-92 -47.5q-34 0 -58 11t-41.5 23.5t-32 23.5t-29.5 11q-18 0 -28 -16.5t-10 -47.5h-111q0 85 31 133.5t97 48.5z" />
    <glyph glyph-name="Imacron" unicode="&#x12a;" horiz-adv-x="331" 
d="M71 690h188v-690h-188v690zM-32 785v112h393v-112h-393z" />
    <glyph glyph-name="imacron" unicode="&#x12b;" horiz-adv-x="303" 
d="M62 510h180v-510h-180v510zM-42 624v106h387v-106h-387z" />
    <glyph glyph-name="Ibreve" unicode="&#x12c;" horiz-adv-x="331" 
d="M71 690h188v-690h-188v690zM-63 924h136q3 -37 24.5 -53t67.5 -16t68 16t25 53h136q-3 -87 -59 -131t-170 -44q-113 0 -169.5 44t-58.5 131z" />
    <glyph glyph-name="ibreve" unicode="&#x12d;" horiz-adv-x="303" 
d="M62 510h180v-510h-180v510zM-66 767h132q2 -43 21.5 -62t64.5 -19q44 0 63.5 19t21.5 62h132q0 -93 -53.5 -139.5t-163.5 -46.5t-164 46.5t-54 139.5z" />
    <glyph glyph-name="Iogonek" unicode="&#x12e;" horiz-adv-x="331" 
d="M225 -205q-90 0 -141.5 26.5t-51.5 85.5q0 29 14 53t40 40h-15v690h188v-690q-44 -5 -62.5 -18t-18.5 -30q0 -19 23 -30.5t87 -11.5v-115h-63z" />
    <glyph glyph-name="iogonek" unicode="&#x12f;" horiz-adv-x="304" 
d="M52 663q0 40 26.5 60.5t73.5 20.5q48 0 74 -20.5t26 -60.5q0 -41 -26 -61.5t-74 -20.5q-47 0 -73.5 20.5t-26.5 61.5zM206 -205q-81 0 -129.5 27t-48.5 80q0 33 16 58t46 40h-28v510h180v-510q-37 -6 -52.5 -19.5t-15.5 -29.5q0 -19 19.5 -30t73.5 -11v-115h-61z" />
    <glyph glyph-name="Idotaccent" unicode="&#x130;" horiz-adv-x="331" 
d="M71 690h188v-690h-188v690zM69 841q0 41 24 61.5t73 20.5t72.5 -20.5t23.5 -61.5q0 -42 -23.5 -62.5t-72.5 -20.5t-73 20.5t-24 62.5z" />
    <glyph glyph-name="dotlessi" unicode="&#x131;" horiz-adv-x="303" 
d="M62 510h180v-510h-180v510z" />
    <glyph glyph-name="IJ" unicode="&#x132;" horiz-adv-x="768" 
d="M339 148h102q38 0 54.5 21t16.5 56v465h188v-515q0 -84 -43 -129.5t-144 -45.5h-174v148zM71 690h188v-690h-188v690z" />
    <glyph glyph-name="ij" unicode="&#x133;" horiz-adv-x="590" 
d="M62 510h180v-510h-180v510zM52 663q0 40 26.5 60.5t73.5 20.5q48 0 74 -20.5t26 -60.5q0 -41 -26 -61.5t-74 -20.5q-47 0 -73.5 20.5t-26.5 61.5zM232 -69h51q36 0 50.5 17.5t14.5 51.5v510h180v-533q0 -90 -38 -133.5t-139 -43.5h-119v131zM339 663q0 40 26.5 60.5
t73.5 20.5q48 0 74 -20.5t26 -60.5q0 -41 -26 -61.5t-74 -20.5q-47 0 -73.5 20.5t-26.5 61.5z" />
    <glyph glyph-name="Jcircumflex" unicode="&#x134;" horiz-adv-x="472" 
d="M16 148h130q38 0 54.5 21t16.5 56v465h188v-515q0 -84 -43.5 -129.5t-143.5 -45.5h-202v148zM39 758l185 166h175l186 -166h-179l-98 80l-97 -80h-172z" />
    <glyph glyph-name="jcircumflex" unicode="&#x135;" horiz-adv-x="303" 
d="M-54 -69h51q36 0 50.5 17.5t14.5 51.5v510h180v-533q0 -90 -38 -133.5t-139 -43.5h-119v131zM-94 588l162 179h167l162 -179h-164l-85 89l-85 -89h-157z" />
    <glyph glyph-name="Kcommaaccent" unicode="&#x136;" horiz-adv-x="815" 
d="M71 690h188v-262h79l252 262h222l-315 -328l334 -362h-239l-257 275h-76v-275h-188v690zM339 -215q40 0 58 8.5t18 27.5h-6q-47 0 -73 14.5t-26 49.5t25.5 52.5t76.5 17.5t77 -20t26 -66v-22q0 -72 -41 -102.5t-135 -30.5v71z" />
    <glyph glyph-name="kcommaaccent" unicode="&#x137;" horiz-adv-x="688" 
d="M476 510h200l-221 -242l247 -268h-221l-177 190h-62v-190h-180v730h180v-409h61zM276 -215q40 0 58 8.5t18 27.5h-6q-47 0 -73 14.5t-26 49.5t25.5 52.5t76.5 17.5t77 -20t26 -66v-22q0 -72 -41 -102.5t-135 -30.5v71z" />
    <glyph glyph-name="Lacute" unicode="&#x139;" horiz-adv-x="694" 
d="M71 690h188v-537h420v-153h-608v690zM81 758l158 166h193l-191 -166h-160z" />
    <glyph glyph-name="lacute" unicode="&#x13a;" horiz-adv-x="303" 
d="M62 730h180v-730h-180v730zM71 793l158 166h193l-191 -166h-160z" />
    <glyph glyph-name="Lcommaaccent" unicode="&#x13b;" horiz-adv-x="694" 
d="M71 690h188v-537h420v-153h-608v690zM304 -215q40 0 58 8.5t18 27.5h-6q-47 0 -73 14.5t-26 49.5t25.5 52.5t76.5 17.5t77 -20t26 -66v-22q0 -72 -41 -102.5t-135 -30.5v71z" />
    <glyph glyph-name="lcommaaccent" unicode="&#x13c;" horiz-adv-x="303" 
d="M62 730h180v-730h-180v730zM77 -215q40 0 58 8.5t18 27.5h-6q-47 0 -73 14.5t-26 49.5t25.5 52.5t76.5 17.5t77 -20t26 -66v-22q0 -72 -41 -102.5t-135 -30.5v71z" />
    <glyph glyph-name="Lcaron" unicode="&#x13d;" horiz-adv-x="709" 
d="M71 690h188v-537h420v-153h-608v690zM520 498l11 192h145l-40 -192h-116z" />
    <glyph glyph-name="lcaron" unicode="&#x13e;" horiz-adv-x="364" 
d="M62 730h180v-730h-180v730zM296 537l11 192h145l-40 -192h-116z" />
    <glyph glyph-name="Ldot" unicode="&#x13f;" horiz-adv-x="702" 
d="M71 690h188v-537h420v-153h-608v690zM414 395q0 47 26.5 68t76.5 21t76 -21t26 -68q0 -46 -26 -67.5t-76 -21.5t-76.5 21.5t-26.5 67.5z" />
    <glyph glyph-name="ldot" unicode="&#x140;" horiz-adv-x="495" 
d="M62 730h180v-730h-180v730zM297 279q0 47 26.5 68t76.5 21t76 -21t26 -68q0 -46 -26 -67.5t-76 -21.5t-76.5 21.5t-26.5 67.5z" />
    <glyph glyph-name="Lslash" unicode="&#x141;" horiz-adv-x="748" 
d="M35 376l90 41v273h188v-189l126 57v-158l-126 -57v-190h420v-153h-608v259l-90 -41v158z" />
    <glyph glyph-name="lslash" unicode="&#x142;" horiz-adv-x="354" 
d="M10 365l77 41v324h180v-226l77 41v-137l-77 -41v-367h-180v269l-77 -41v137z" />
    <glyph glyph-name="Nacute" unicode="&#x143;" horiz-adv-x="897" 
d="M569 0l-325 503v-503h-173v690h258l324 -501v501h173v-690h-257zM371 758l158 166h193l-191 -166h-160z" />
    <glyph glyph-name="nacute" unicode="&#x144;" horiz-adv-x="730" 
d="M494 0v311q0 51 -32 70.5t-92 19.5q-57 0 -92.5 -20.5t-35.5 -69.5v-311h-180v510h175v-88q25 52 83 77t131 25q108 0 165.5 -45.5t57.5 -149.5v-329h-180zM288 588l141 179h184l-175 -179h-150z" />
    <glyph glyph-name="Ncommaaccent" unicode="&#x145;" horiz-adv-x="897" 
d="M569 0l-325 503v-503h-173v690h258l324 -501v501h173v-690h-257zM373 -215q40 0 58 8.5t18 27.5h-6q-47 0 -73 14.5t-26 49.5t25.5 52.5t76.5 17.5t77 -20t26 -66v-22q0 -72 -41 -102.5t-135 -30.5v71z" />
    <glyph glyph-name="ncommaaccent" unicode="&#x146;" horiz-adv-x="730" 
d="M494 0v311q0 51 -32 70.5t-92 19.5q-57 0 -92.5 -20.5t-35.5 -69.5v-311h-180v510h175v-88q25 52 83 77t131 25q108 0 165.5 -45.5t57.5 -149.5v-329h-180zM297 -215q40 0 58 8.5t18 27.5h-6q-47 0 -73 14.5t-26 49.5t25.5 52.5t76.5 17.5t77 -20t26 -66v-22
q0 -72 -41 -102.5t-135 -30.5v71z" />
    <glyph glyph-name="Ncaron" unicode="&#x147;" horiz-adv-x="897" 
d="M569 0l-325 503v-503h-173v690h258l324 -501v501h173v-690h-257zM181 924h179l97 -80l97 80h173l-186 -166h-174z" />
    <glyph glyph-name="ncaron" unicode="&#x148;" horiz-adv-x="730" 
d="M494 0v311q0 51 -32 70.5t-92 19.5q-57 0 -92.5 -20.5t-35.5 -69.5v-311h-180v510h175v-88q25 52 83 77t131 25q108 0 165.5 -45.5t57.5 -149.5v-329h-180zM127 767h164l85 -90l85 90h157l-162 -179h-167z" />
    <glyph glyph-name="napostrophe" unicode="&#x149;" horiz-adv-x="730" 
d="M-51 546l11 184h145l-40 -184h-116zM494 0v311q0 51 -32 70.5t-92 19.5q-57 0 -92.5 -20.5t-35.5 -69.5v-311h-180v510h175v-88q25 52 83 77t131 25q108 0 165.5 -45.5t57.5 -149.5v-329h-180z" />
    <glyph glyph-name="Eng" unicode="&#x14a;" horiz-adv-x="897" 
d="M445 -83h147q25 0 37 10t12 30v17l-397 515v-489h-173v690h244l338 -442v442h173v-746q0 -85 -41.5 -130t-137.5 -45h-202v148z" />
    <glyph glyph-name="eng" unicode="&#x14b;" horiz-adv-x="730" 
d="M378 -69h51q36 0 50.5 17.5t14.5 51.5v311q0 51 -32 70.5t-92 19.5q-57 0 -92.5 -20.5t-35.5 -69.5v-311h-180v510h175v-88q25 52 83 77t131 25q108 0 165.5 -45.5t57.5 -149.5v-352q0 -90 -38.5 -133.5t-138.5 -43.5h-119v131z" />
    <glyph glyph-name="Omacron" unicode="&#x14c;" horiz-adv-x="943" 
d="M41 350q0 100 28.5 168t83 109.5t135 59t184.5 17.5q103 0 183.5 -17.5t135 -59t83 -109.5t28.5 -168q0 -103 -28.5 -173t-83 -112.5t-135 -60.5t-183.5 -18q-104 0 -184.5 18t-135 60.5t-83 112.5t-28.5 173zM712 310v73q0 98 -60.5 137t-179.5 39t-180 -39t-61 -137
v-73q0 -104 61 -141.5t180 -37.5t179.5 37.5t60.5 141.5zM272 785v112h393v-112h-393z" />
    <glyph glyph-name="omacron" unicode="&#x14d;" horiz-adv-x="731" 
d="M35 255q0 77 21 129t62.5 83t103.5 44t143 13t143.5 -13t104 -44t62.5 -83t21 -129q0 -78 -21 -130t-62.5 -83t-104 -43.5t-143.5 -12.5t-143 12.5t-103.5 43.5t-62.5 83t-21 130zM514 220v69q0 66 -37 89.5t-112 23.5q-74 0 -111 -23.5t-37 -89.5v-69q0 -65 37 -89
t111 -24q75 0 112 24t37 89zM172 624v106h387v-106h-387z" />
    <glyph glyph-name="Obreve" unicode="&#x14e;" horiz-adv-x="943" 
d="M41 350q0 100 28.5 168t83 109.5t135 59t184.5 17.5q103 0 183.5 -17.5t135 -59t83 -109.5t28.5 -168q0 -103 -28.5 -173t-83 -112.5t-135 -60.5t-183.5 -18q-104 0 -184.5 18t-135 60.5t-83 112.5t-28.5 173zM712 310v73q0 98 -60.5 137t-179.5 39t-180 -39t-61 -137
v-73q0 -104 61 -141.5t180 -37.5t179.5 37.5t60.5 141.5zM243 924h136q3 -37 24.5 -53t67.5 -16t68 16t25 53h136q-3 -87 -59 -131t-170 -44q-113 0 -169.5 44t-58.5 131z" />
    <glyph glyph-name="obreve" unicode="&#x14f;" horiz-adv-x="731" 
d="M35 255q0 77 21 129t62.5 83t103.5 44t143 13t143.5 -13t104 -44t62.5 -83t21 -129q0 -78 -21 -130t-62.5 -83t-104 -43.5t-143.5 -12.5t-143 12.5t-103.5 43.5t-62.5 83t-21 130zM514 220v69q0 66 -37 89.5t-112 23.5q-74 0 -111 -23.5t-37 -89.5v-69q0 -65 37 -89
t111 -24q75 0 112 24t37 89zM148 767h132q2 -43 21.5 -62t64.5 -19q44 0 63.5 19t21.5 62h132q0 -93 -53.5 -139.5t-163.5 -46.5t-164 46.5t-54 139.5z" />
    <glyph glyph-name="Ohungarumlaut" unicode="&#x150;" horiz-adv-x="943" 
d="M41 350q0 100 28.5 168t83 109.5t135 59t184.5 17.5q103 0 183.5 -17.5t135 -59t83 -109.5t28.5 -168q0 -103 -28.5 -173t-83 -112.5t-135 -60.5t-183.5 -18q-104 0 -184.5 18t-135 60.5t-83 112.5t-28.5 173zM712 310v73q0 98 -60.5 137t-179.5 39t-180 -39t-61 -137
v-73q0 -104 61 -141.5t180 -37.5t179.5 37.5t60.5 141.5zM291 758l85 166h167l-117 -166h-135zM501 758l120 166h175l-153 -166h-142z" />
    <glyph glyph-name="ohungarumlaut" unicode="&#x151;" horiz-adv-x="731" 
d="M35 255q0 77 21 129t62.5 83t103.5 44t143 13t143.5 -13t104 -44t62.5 -83t21 -129q0 -78 -21 -130t-62.5 -83t-104 -43.5t-143.5 -12.5t-143 12.5t-103.5 43.5t-62.5 83t-21 130zM514 220v69q0 66 -37 89.5t-112 23.5q-74 0 -111 -23.5t-37 -89.5v-69q0 -65 37 -89
t111 -24q75 0 112 24t37 89zM196 588l83 179h158l-113 -179h-128zM392 588l118 179h167l-149 -179h-136z" />
    <glyph glyph-name="OE" unicode="&#x152;" horiz-adv-x="1295" 
d="M41 350q0 98 28.5 164t83 105t135 55t183.5 16h778v-144h-441v-124h340v-139h-340v-139h445v-144h-782q-103 0 -183.5 16.5t-135 56.5t-83 108t-28.5 169zM471 140h149v417h-149q-118 0 -179 -38.5t-61 -135.5v-73q0 -99 60.5 -134.5t179.5 -35.5z" />
    <glyph glyph-name="oe" unicode="&#x153;" horiz-adv-x="1173" 
d="M35 255q0 77 21 129t62.5 83t103 44t142.5 13q77 0 137 -14.5t101 -44.5q39 30 96 44.5t129 14.5q149 0 230 -58t81 -198v-32h-445v-18q0 -64 34 -90t100 -26q60 0 91.5 16t41.5 50h177q-20 -94 -98 -138t-212 -44q-72 0 -129 14t-97 43q-41 -29 -100.5 -43t-136.5 -14
q-81 0 -142.5 12.5t-103 43.5t-62.5 83t-21 130zM827 411q-60 0 -96 -20t-38 -68h270q-2 48 -34.5 68t-101.5 20zM510 220v69q0 66 -36.5 89.5t-109.5 23.5t-110 -23.5t-37 -89.5v-69q0 -65 37 -89t110 -24t109.5 24t36.5 89z" />
    <glyph glyph-name="Racute" unicode="&#x154;" horiz-adv-x="839" 
d="M71 690h469q121 0 187.5 -57.5t66.5 -164.5q0 -80 -35 -132.5t-99 -76.5l153 -259h-208l-141 239h-205v-239h-188v690zM603 456v20q0 34 -20.5 54.5t-70.5 20.5h-253v-172h253q49 0 70 21.5t21 55.5zM311 758l158 166h193l-191 -166h-160z" />
    <glyph glyph-name="racute" unicode="&#x155;" horiz-adv-x="513" 
d="M62 510h175v-106q19 49 61.5 77.5t113.5 28.5h83v-148h-112q-78 0 -109.5 -25.5t-31.5 -82.5v-254h-180v510zM208 588l141 179h184l-175 -179h-150z" />
    <glyph glyph-name="Rcommaaccent" unicode="&#x156;" horiz-adv-x="839" 
d="M71 690h469q121 0 187.5 -57.5t66.5 -164.5q0 -80 -35 -132.5t-99 -76.5l153 -259h-208l-141 239h-205v-239h-188v690zM603 456v20q0 34 -20.5 54.5t-70.5 20.5h-253v-172h253q49 0 70 21.5t21 55.5zM344 -215q40 0 58 8.5t18 27.5h-6q-47 0 -73 14.5t-26 49.5t25.5 52.5
t76.5 17.5t77 -20t26 -66v-22q0 -72 -41 -102.5t-135 -30.5v71z" />
    <glyph glyph-name="rcommaaccent" unicode="&#x157;" horiz-adv-x="513" 
d="M62 510h175v-106q19 49 61.5 77.5t113.5 28.5h83v-148h-112q-78 0 -109.5 -25.5t-31.5 -82.5v-254h-180v510zM76 -215q40 0 58 8.5t18 27.5h-6q-47 0 -73 14.5t-26 49.5t25.5 52.5t76.5 17.5t77 -20t26 -66v-22q0 -72 -41 -102.5t-135 -30.5v71z" />
    <glyph glyph-name="Rcaron" unicode="&#x158;" horiz-adv-x="839" 
d="M71 690h469q121 0 187.5 -57.5t66.5 -164.5q0 -80 -35 -132.5t-99 -76.5l153 -259h-208l-141 239h-205v-239h-188v690zM603 456v20q0 34 -20.5 54.5t-70.5 20.5h-253v-172h253q49 0 70 21.5t21 55.5zM128 924h179l97 -80l97 80h173l-186 -166h-174z" />
    <glyph glyph-name="rcaron" unicode="&#x159;" horiz-adv-x="513" 
d="M62 510h175v-106q19 49 61.5 77.5t113.5 28.5h83v-148h-112q-78 0 -109.5 -25.5t-31.5 -82.5v-254h-180v510zM39 767h164l85 -90l85 90h157l-162 -179h-167z" />
    <glyph glyph-name="Sacute" unicode="&#x15a;" horiz-adv-x="812" 
d="M34 215h191q10 -55 55 -73t132 -18q90 0 134.5 17t44.5 61q0 56 -85.5 63.5t-187.5 18t-187.5 49t-85.5 154.5t95 166.5t262 50.5q168 0 260.5 -51t102.5 -168h-191q-7 49 -52 65t-120 16q-89 0 -130.5 -15.5t-41.5 -60.5q0 -53 85.5 -60.5t187.5 -18t187.5 -48
t85.5 -148.5q0 -122 -90 -175.5t-274 -53.5q-188 0 -278 54t-100 175zM321 758l158 166h193l-191 -166h-160z" />
    <glyph glyph-name="sacute" unicode="&#x15b;" horiz-adv-x="668" 
d="M29 163h182q6 -38 38.5 -52.5t90.5 -14.5q64 0 92.5 11.5t28.5 38.5q0 42 -66 47t-145 11.5t-145 36t-66 120.5q0 86 78 124.5t211 38.5q140 0 215.5 -39t82.5 -128h-182q-6 34 -35.5 45.5t-80.5 11.5q-54 0 -82.5 -10.5t-28.5 -35.5q0 -38 66 -42t145 -11.5t145 -38
t66 -121.5q0 -90 -76.5 -129t-222.5 -39t-223.5 39.5t-87.5 136.5zM243 588l141 179h184l-175 -179h-150z" />
    <glyph glyph-name="Scircumflex" unicode="&#x15c;" horiz-adv-x="812" 
d="M34 215h191q10 -55 55 -73t132 -18q90 0 134.5 17t44.5 61q0 56 -85.5 63.5t-187.5 18t-187.5 49t-85.5 154.5t95 166.5t262 50.5q168 0 260.5 -51t102.5 -168h-191q-7 49 -52 65t-120 16q-89 0 -130.5 -15.5t-41.5 -60.5q0 -53 85.5 -60.5t187.5 -18t187.5 -48
t85.5 -148.5q0 -122 -90 -175.5t-274 -53.5q-188 0 -278 54t-100 175zM133 758l185 166h175l186 -166h-179l-98 80l-97 -80h-172z" />
    <glyph glyph-name="scircumflex" unicode="&#x15d;" horiz-adv-x="668" 
d="M29 163h182q6 -38 38.5 -52.5t90.5 -14.5q64 0 92.5 11.5t28.5 38.5q0 42 -66 47t-145 11.5t-145 36t-66 120.5q0 86 78 124.5t211 38.5q140 0 215.5 -39t82.5 -128h-182q-6 34 -35.5 45.5t-80.5 11.5q-54 0 -82.5 -10.5t-28.5 -35.5q0 -38 66 -42t145 -11.5t145 -38
t66 -121.5q0 -90 -76.5 -129t-222.5 -39t-223.5 39.5t-87.5 136.5zM89 588l162 179h167l162 -179h-164l-85 89l-85 -89h-157z" />
    <glyph glyph-name="Scedilla" unicode="&#x15e;" horiz-adv-x="812" 
d="M34 215h191q10 -55 55 -73t132 -18q90 0 134.5 17t44.5 61q0 56 -85.5 63.5t-187.5 18t-187.5 49t-85.5 154.5t95 166.5t262 50.5q168 0 260.5 -51t102.5 -168h-191q-7 49 -52 65t-120 16q-89 0 -130.5 -15.5t-41.5 -60.5q0 -53 85.5 -60.5t187.5 -18t187.5 -48
t85.5 -148.5q0 -122 -90 -175.5t-274 -53.5q-188 0 -278 54t-100 175zM321 -222v85q37 0 59 1t33 4t14 8t3 13q0 16 -18.5 20.5t-84.5 4.5v88h115v-33q57 -4 96 -20.5t39 -70.5q0 -50 -44.5 -75t-124.5 -25h-87z" />
    <glyph glyph-name="scedilla" unicode="&#x15f;" horiz-adv-x="668" 
d="M29 163h182q6 -38 38.5 -52.5t90.5 -14.5q64 0 92.5 11.5t28.5 38.5q0 42 -66 47t-145 11.5t-145 36t-66 120.5q0 86 78 124.5t211 38.5q140 0 215.5 -39t82.5 -128h-182q-6 34 -35.5 45.5t-80.5 11.5q-54 0 -82.5 -10.5t-28.5 -35.5q0 -38 66 -42t145 -11.5t145 -38
t66 -121.5q0 -90 -76.5 -129t-222.5 -39t-223.5 39.5t-87.5 136.5zM247 -224v85q37 0 59 1t33 4t14 8t3 13q0 16 -18.5 20.5t-84.5 4.5v88h115v-33q57 -4 96 -20.5t39 -70.5q0 -50 -44.5 -75t-124.5 -25h-87z" />
    <glyph glyph-name="Scaron" unicode="&#x160;" horiz-adv-x="812" 
d="M34 215h191q10 -55 55 -73t132 -18q90 0 134.5 17t44.5 61q0 56 -85.5 63.5t-187.5 18t-187.5 49t-85.5 154.5t95 166.5t262 50.5q168 0 260.5 -51t102.5 -168h-191q-7 49 -52 65t-120 16q-89 0 -130.5 -15.5t-41.5 -60.5q0 -53 85.5 -60.5t187.5 -18t187.5 -48
t85.5 -148.5q0 -122 -90 -175.5t-274 -53.5q-188 0 -278 54t-100 175zM133 924h179l97 -80l97 80h173l-186 -166h-174z" />
    <glyph glyph-name="scaron" unicode="&#x161;" horiz-adv-x="668" 
d="M29 163h182q6 -38 38.5 -52.5t90.5 -14.5q64 0 92.5 11.5t28.5 38.5q0 42 -66 47t-145 11.5t-145 36t-66 120.5q0 86 78 124.5t211 38.5q140 0 215.5 -39t82.5 -128h-182q-6 34 -35.5 45.5t-80.5 11.5q-54 0 -82.5 -10.5t-28.5 -35.5q0 -38 66 -42t145 -11.5t145 -38
t66 -121.5q0 -90 -76.5 -129t-222.5 -39t-223.5 39.5t-87.5 136.5zM89 767h164l85 -90l85 90h157l-162 -179h-167z" />
    <glyph glyph-name="Tcedilla" unicode="&#x162;" horiz-adv-x="768" 
d="M290 537h-274v153h736v-153h-274v-537h-188v537zM310 -215q40 0 58 8.5t18 27.5h-6q-47 0 -73 14.5t-26 49.5t25.5 52.5t76.5 17.5t77 -20t26 -66v-22q0 -72 -41 -102.5t-135 -30.5v71z" />
    <glyph glyph-name="tcedilla" unicode="&#x163;" horiz-adv-x="467" 
d="M87 179v200h-68v131h68v152h180v-152h173v-131h-173v-179q0 -36 18.5 -52.5t62.5 -16.5h92v-131h-172q-96 0 -138.5 42.5t-42.5 136.5zM193 -215q40 0 58 8.5t18 27.5h-6q-47 0 -73 14.5t-26 49.5t25.5 52.5t76.5 17.5t77 -20t26 -66v-22q0 -72 -41 -102.5t-135 -30.5v71
z" />
    <glyph glyph-name="Tcaron" unicode="&#x164;" horiz-adv-x="768" 
d="M290 537h-274v153h736v-153h-274v-537h-188v537zM112 924h179l97 -80l97 80h173l-186 -166h-174z" />
    <glyph glyph-name="tcaron" unicode="&#x165;" horiz-adv-x="467" 
d="M346 548l11 183h145l-40 -183h-116zM87 179v200h-68v131h68v152h180v-152h173v-131h-173v-179q0 -36 18.5 -52.5t62.5 -16.5h92v-131h-172q-96 0 -138.5 42.5t-42.5 136.5z" />
    <glyph glyph-name="Tbar" unicode="&#x166;" horiz-adv-x="768" 
d="M116 259v134h174v144h-274v153h736v-153h-274v-144h173v-134h-173v-259h-188v259h-174z" />
    <glyph glyph-name="tbar" unicode="&#x167;" horiz-adv-x="478" 
d="M93 179v40h-68v99h68v61h-68v131h68v152h180v-152h173v-131h-173v-61h173v-99h-173v-19q0 -36 18.5 -52.5t62.5 -16.5h92v-131h-172q-96 0 -138.5 42.5t-42.5 136.5z" />
    <glyph glyph-name="Utilde" unicode="&#x168;" horiz-adv-x="863" 
d="M63 290v400h188v-393q0 -100 47.5 -133t142.5 -33t142 33t47 133v393h170v-400q0 -161 -90.5 -232.5t-268.5 -71.5q-184 0 -281 71.5t-97 232.5zM339 926q35 0 59 -8.5t42.5 -19t34.5 -19t34 -8.5q17 0 26.5 14t9.5 37h116q0 -79 -31.5 -122.5t-91.5 -43.5q-36 0 -61.5 9
t-44.5 19t-35 19t-32 9q-18 0 -28 -13.5t-10 -38.5h-116q0 78 31 122t97 44z" />
    <glyph glyph-name="utilde" unicode="&#x169;" horiz-adv-x="730" 
d="M57 184v326h180v-312q0 -51 31 -70t92 -19q55 0 92 20t37 71v310h180v-510h-176v86q-25 -51 -83 -75.5t-131 -24.5q-104 0 -163 44t-59 154zM275 771q33 0 55.5 -10.5t39.5 -23.5t31.5 -23.5t31.5 -10.5t26.5 17.5t9.5 45.5h111q0 -87 -31 -134.5t-92 -47.5q-34 0 -58 11
t-41.5 23.5t-32 23.5t-29.5 11q-18 0 -28 -16.5t-10 -47.5h-111q0 85 31 133.5t97 48.5z" />
    <glyph glyph-name="Umacron" unicode="&#x16a;" horiz-adv-x="863" 
d="M63 290v400h188v-393q0 -100 47.5 -133t142.5 -33t142 33t47 133v393h170v-400q0 -161 -90.5 -232.5t-268.5 -71.5q-184 0 -281 71.5t-97 232.5zM239 785v112h393v-112h-393z" />
    <glyph glyph-name="umacron" unicode="&#x16b;" horiz-adv-x="730" 
d="M57 184v326h180v-312q0 -51 31 -70t92 -19q55 0 92 20t37 71v310h180v-510h-176v86q-25 -51 -83 -75.5t-131 -24.5q-104 0 -163 44t-59 154zM171 624v106h387v-106h-387z" />
    <glyph glyph-name="Ubreve" unicode="&#x16c;" horiz-adv-x="863" 
d="M63 290v400h188v-393q0 -100 47.5 -133t142.5 -33t142 33t47 133v393h170v-400q0 -161 -90.5 -232.5t-268.5 -71.5q-184 0 -281 71.5t-97 232.5zM211 924h136q3 -37 24.5 -53t67.5 -16t68 16t25 53h136q-3 -87 -59 -131t-170 -44q-113 0 -169.5 44t-58.5 131z" />
    <glyph glyph-name="ubreve" unicode="&#x16d;" horiz-adv-x="730" 
d="M57 184v326h180v-312q0 -51 31 -70t92 -19q55 0 92 20t37 71v310h180v-510h-176v86q-25 -51 -83 -75.5t-131 -24.5q-104 0 -163 44t-59 154zM146 767h132q2 -43 21.5 -62t64.5 -19q44 0 63.5 19t21.5 62h132q0 -93 -53.5 -139.5t-163.5 -46.5t-164 46.5t-54 139.5z" />
    <glyph glyph-name="Uring" unicode="&#x16e;" horiz-adv-x="863" 
d="M63 290v400h188v-393q0 -100 47.5 -133t142.5 -33t142 33t47 133v393h170v-400q0 -161 -90.5 -232.5t-268.5 -71.5q-184 0 -281 71.5t-97 232.5zM262 841q0 49 39 73.5t138 24.5t138.5 -24.5t39.5 -73.5q0 -50 -39.5 -74t-138.5 -24t-138 24t-39 74zM440 815q47 0 60 6.5
t13 19.5t-13 19.5t-60 6.5q-48 0 -61 -6.5t-13 -19.5t13 -19.5t61 -6.5z" />
    <glyph glyph-name="uring" unicode="&#x16f;" horiz-adv-x="730" 
d="M57 184v326h180v-312q0 -51 31 -70t92 -19q55 0 92 20t37 71v310h180v-510h-176v86q-25 -51 -83 -75.5t-131 -24.5q-104 0 -163 44t-59 154zM199 678q0 50 39 77.5t124 27.5q87 0 126 -27.5t39 -77.5q0 -51 -39 -78.5t-126 -27.5q-85 0 -124 27.5t-39 78.5zM427 678
q0 16 -13.5 24.5t-50.5 8.5t-50.5 -8.5t-13.5 -24.5t13.5 -25t50.5 -9t50.5 9t13.5 25z" />
    <glyph glyph-name="Uhungarumlaut" unicode="&#x170;" horiz-adv-x="863" 
d="M63 290v400h188v-393q0 -100 47.5 -133t142.5 -33t142 33t47 133v393h170v-400q0 -161 -90.5 -232.5t-268.5 -71.5q-184 0 -281 71.5t-97 232.5zM255 758l85 166h167l-117 -166h-135zM465 758l120 166h175l-153 -166h-142z" />
    <glyph glyph-name="uhungarumlaut" unicode="&#x171;" horiz-adv-x="730" 
d="M57 184v326h180v-312q0 -51 31 -70t92 -19q55 0 92 20t37 71v310h180v-510h-176v86q-25 -51 -83 -75.5t-131 -24.5q-104 0 -163 44t-59 154zM192 588l83 179h158l-113 -179h-128zM388 588l118 179h167l-149 -179h-136z" />
    <glyph glyph-name="Uogonek" unicode="&#x172;" horiz-adv-x="863" 
d="M63 290v400h188v-393q0 -100 47.5 -133t142.5 -33t142 33t47 133v393h170v-400q0 -125 -55 -196t-163 -95q-47 -13 -67.5 -25t-20.5 -31q0 -16 20 -24.5t74 -8.5v-115h-64q-81 0 -128.5 27t-47.5 80q0 28 13.5 50t38.5 35q-164 7 -250.5 79t-86.5 224z" />
    <glyph glyph-name="uogonek" unicode="&#x173;" horiz-adv-x="730" 
d="M57 184v326h180v-312q0 -51 31 -70t92 -19q55 0 92 20t37 71v310h180v-510h-59q-36 -3 -52.5 -17t-16.5 -33t19 -29.5t73 -10.5v-115h-61q-81 0 -129 27t-48 80q0 43 26.5 70.5t71.5 37.5v76q-25 -51 -83 -75.5t-131 -24.5q-104 0 -163 44t-59 154z" />
    <glyph glyph-name="Wcircumflex" unicode="&#x174;" horiz-adv-x="1118" 
d="M14 690h188l118 -514l139 514h228l133 -513l122 513h163l-166 -690h-245l-134 513l-139 -513h-246zM291 758l185 166h175l186 -166h-179l-98 80l-97 -80h-172z" />
    <glyph glyph-name="wcircumflex" unicode="&#x175;" horiz-adv-x="950" 
d="M163 0l-156 510h169l106 -359l106 359h196l107 -353l104 353h148l-156 -510h-204l-111 367l-109 -367h-200zM230 588l162 179h167l162 -179h-164l-85 89l-85 -89h-157z" />
    <glyph glyph-name="Ycircumflex" unicode="&#x176;" horiz-adv-x="823" 
d="M326 276l-334 414h214l222 -279l203 279h190l-307 -415v-275h-188v276zM143 758l185 166h175l186 -166h-179l-98 80l-97 -80h-172z" />
    <glyph glyph-name="ycircumflex" unicode="&#x177;" horiz-adv-x="664" 
d="M82 -72h68q46 0 66 11.5t38 51.5l3 7l-262 512h187l162 -331l159 331h163l-263 -551q-22 -44 -44 -75t-47.5 -49.5t-58 -26.5t-76.5 -8h-95v128zM94 588l162 179h167l162 -179h-164l-85 89l-85 -89h-157z" />
    <glyph glyph-name="Ydieresis" unicode="&#x178;" horiz-adv-x="823" 
d="M326 276l-334 414h214l222 -279l203 279h190l-307 -415v-275h-188v276zM183 832q0 41 22.5 62t68.5 21t68 -21t22 -62t-22 -62t-68 -21t-68.5 21t-22.5 62zM463 832q0 41 22.5 62t67.5 21q46 0 68.5 -21t22.5 -62t-22.5 -62t-68.5 -21q-45 0 -67.5 21t-22.5 62z" />
    <glyph glyph-name="Zacute" unicode="&#x179;" horiz-adv-x="759" 
d="M42 153l433 386h-429v151h668v-153l-433 -386h437v-151h-676v153zM294 758l158 166h193l-191 -166h-160z" />
    <glyph glyph-name="zacute" unicode="&#x17a;" horiz-adv-x="618" 
d="M38 130l313 249h-308v131h527v-131l-313 -248h330v-131h-549v130zM228 588l141 179h184l-175 -179h-150z" />
    <glyph glyph-name="Zdotaccent" unicode="&#x17b;" horiz-adv-x="759" 
d="M42 153l433 386h-429v151h668v-153l-433 -386h437v-151h-676v153zM293 841q0 41 24 61.5t73 20.5t72.5 -20.5t23.5 -61.5q0 -42 -23.5 -62.5t-72.5 -20.5t-73 20.5t-24 62.5z" />
    <glyph glyph-name="zdotaccent" unicode="&#x17c;" horiz-adv-x="618" 
d="M38 130l313 249h-308v131h527v-131l-313 -248h330v-131h-549v130zM217 667q0 40 26.5 60.5t73.5 20.5q48 0 74 -20.5t26 -60.5q0 -41 -26 -61.5t-74 -20.5q-47 0 -73.5 20.5t-26.5 61.5z" />
    <glyph glyph-name="Zcaron" unicode="&#x17d;" horiz-adv-x="759" 
d="M42 153l433 386h-429v151h668v-153l-433 -386h437v-151h-676v153zM116 924h179l97 -80l97 80h173l-186 -166h-174z" />
    <glyph glyph-name="zcaron" unicode="&#x17e;" horiz-adv-x="618" 
d="M38 130l313 249h-308v131h527v-131l-313 -248h330v-131h-549v130zM71 767h164l85 -90l85 90h157l-162 -179h-167z" />
    <glyph glyph-name="florin" unicode="&#x192;" horiz-adv-x="731" 
d="M-1 -66h85q41 0 60.5 17t33.5 59l98 273h-116v134h165l48 134q16 45 33.5 78.5t41.5 56t57.5 33.5t79.5 11h142v-134h-103q-34 0 -53 -15.5t-33 -58.5l-38 -105h156v-134h-205l-107 -296q-17 -48 -35.5 -83.5t-44.5 -58t-62.5 -34t-88.5 -11.5h-114v134z" />
    <glyph glyph-name="Aringacute" unicode="&#x1fa;" horiz-adv-x="852" 
d="M297 690h259l297 -690h-196l-65 153h-352l-65 -153h-176zM298 289h236l-118 278zM247 815q0 49 39 73.5t138 24.5t138.5 -24.5t39.5 -73.5q0 -50 -39.5 -74t-138.5 -24t-138 24t-39 74zM425 789q47 0 60 6.5t13 19.5t-13 19.5t-60 6.5q-48 0 -61 -6.5t-13 -19.5t13 -19.5
t61 -6.5zM340 934l158 166h193l-191 -166h-160z" />
    <glyph glyph-name="aringacute" unicode="&#x1fb;" horiz-adv-x="700" 
d="M31 141q0 76 55 117.5t177 45.5l202 7v17q0 46 -29 63.5t-86 17.5q-56 0 -83.5 -13.5t-34.5 -43.5h-181q11 84 84 128t215 44q146 0 220 -47.5t74 -148.5v-328h-173v78q-28 -43 -84 -67.5t-143 -24.5q-109 0 -161 41.5t-52 113.5zM212 153q0 -28 22 -40.5t72 -12.5
q70 0 114.5 25t44.5 78v18l-159 -6q-50 -2 -72 -13.5t-22 -39.5v-9zM263 825l158 166h193l-191 -166h-160zM181 677q0 50 39 77.5t124 27.5q87 0 126 -27.5t39 -77.5q0 -51 -39 -78.5t-126 -27.5q-85 0 -124 27.5t-39 78.5zM409 677q0 16 -13.5 24.5t-50.5 8.5t-50.5 -8.5
t-13.5 -24.5t13.5 -25t50.5 -9t50.5 9t13.5 25z" />
    <glyph glyph-name="AEacute" unicode="&#x1fc;" horiz-adv-x="1281" 
d="M533 690h702v-144h-441v-124h340v-139h-340v-139h445v-144h-633v161h-310l-130 -161h-196zM409 301h197v243zM759 758l158 166h193l-191 -166h-160z" />
    <glyph glyph-name="aeacute" unicode="&#x1fd;" horiz-adv-x="1126" 
d="M31 150q0 78 53.5 121.5t178.5 43.5h203v15q0 44 -29 61.5t-86 17.5q-56 0 -83.5 -13.5t-34.5 -43.5h-181q11 84 84 128t214 44q78 0 132.5 -19.5t85.5 -56.5q35 38 90 57t128 19q143 0 224 -59.5t81 -202.5v-32h-449v-12q0 -64 34.5 -90t101.5 -26q62 0 93 16t41 50h177
q-20 -94 -98 -138t-213 -44q-87 0 -147 25t-91 82q-31 -47 -97.5 -77t-176.5 -30q-122 0 -178.5 43.5t-56.5 120.5zM778 411q-63 0 -99.5 -21.5t-36.5 -71.5h273q-1 50 -34 71.5t-103 21.5zM313 100q66 0 109.5 25t43.5 78v25h-159q-51 0 -73 -15.5t-22 -48.5v-9
q0 -29 23.5 -42t77.5 -13zM495 588l141 179h184l-175 -179h-150z" />
    <glyph glyph-name="Oslashacute" unicode="&#x1fe;" horiz-adv-x="943" 
d="M41 350q0 100 28.5 168t83 109.5t135 59t184.5 17.5q57 0 106.5 -5t92.5 -16l46 53h182l-100 -115q51 -41 77 -108t26 -163q0 -103 -28.5 -173t-83 -112.5t-135 -60.5t-183.5 -18q-60 0 -112 5.5t-95 18.5l-44 -50h-182l101 115q-49 43 -74 110.5t-25 164.5zM231 310
q0 -32 6 -58t18 -45l302 346q-19 3 -40 4.5t-45 1.5q-119 0 -180 -39t-61 -137v-73zM712 310v73q0 34 -7.5 60.5t-21.5 45.5l-307 -351q21 -4 45 -5.5t51 -1.5q119 0 179.5 37.5t60.5 141.5zM374 758l158 166h193l-191 -166h-160z" />
    <glyph glyph-name="oslashacute" unicode="&#x1ff;" horiz-adv-x="731" 
d="M35 255q0 77 21 129t62.5 83t103.5 44t143 13q34 0 65.5 -2.5t59.5 -6.5l33 43h146l-66 -85q46 -31 69.5 -84t23.5 -134q0 -78 -21 -130t-62.5 -83t-104 -43.5t-143.5 -12.5q-37 0 -69.5 2.5t-60.5 7.5l-32 -41h-146l65 84q-43 31 -65 83.5t-22 132.5zM213 220
q0 -16 2.5 -29t6.5 -23l179 233q-8 1 -17 1h-19q-76 0 -114 -23.5t-38 -89.5v-69zM518 220v69q0 18 -3 33t-8 26l-185 -239q10 -1 20.5 -1.5t22.5 -0.5q77 0 115 24t38 89zM278 588l141 179h184l-175 -179h-150z" />
    <glyph glyph-name="Scommaaccent" unicode="&#x218;" horiz-adv-x="812" 
d="M34 215h191q10 -55 55 -73t132 -18q90 0 134.5 17t44.5 61q0 56 -85.5 63.5t-187.5 18t-187.5 49t-85.5 154.5t95 166.5t262 50.5q168 0 260.5 -51t102.5 -168h-191q-7 49 -52 65t-120 16q-89 0 -130.5 -15.5t-41.5 -60.5q0 -53 85.5 -60.5t187.5 -18t187.5 -48
t85.5 -148.5q0 -122 -90 -175.5t-274 -53.5q-188 0 -278 54t-100 175zM334 -215q40 0 58 8.5t18 27.5h-6q-47 0 -73 14.5t-26 49.5t25.5 52.5t76.5 17.5t77 -20t26 -66v-22q0 -72 -41 -102.5t-135 -30.5v71z" />
    <glyph glyph-name="scommaaccent" unicode="&#x219;" horiz-adv-x="668" 
d="M29 163h182q6 -38 38.5 -52.5t90.5 -14.5q64 0 92.5 11.5t28.5 38.5q0 42 -66 47t-145 11.5t-145 36t-66 120.5q0 86 78 124.5t211 38.5q140 0 215.5 -39t82.5 -128h-182q-6 34 -35.5 45.5t-80.5 11.5q-54 0 -82.5 -10.5t-28.5 -35.5q0 -38 66 -42t145 -11.5t145 -38
t66 -121.5q0 -90 -76.5 -129t-222.5 -39t-223.5 39.5t-87.5 136.5zM261 -215q40 0 58 8.5t18 27.5h-6q-47 0 -73 14.5t-26 49.5t25.5 52.5t76.5 17.5t77 -20t26 -66v-22q0 -72 -41 -102.5t-135 -30.5v71z" />
    <glyph glyph-name="Tcommaaccent" unicode="&#x21a;" horiz-adv-x="768" 
d="M290 537h-274v153h736v-153h-274v-537h-188v537zM311 -215q40 0 58 8.5t18 27.5h-6q-47 0 -73 14.5t-26 49.5t25.5 52.5t76.5 17.5t77 -20t26 -66v-22q0 -72 -41 -102.5t-135 -30.5v71z" />
    <glyph glyph-name="tcommaaccent" unicode="&#x21b;" horiz-adv-x="467" 
d="M87 179v200h-68v131h68v152h180v-152h173v-131h-173v-179q0 -36 18.5 -52.5t62.5 -16.5h92v-131h-172q-96 0 -138.5 42.5t-42.5 136.5zM193 -215q40 0 58 8.5t18 27.5h-6q-47 0 -73 14.5t-26 49.5t25.5 52.5t76.5 17.5t77 -20t26 -66v-22q0 -72 -41 -102.5t-135 -30.5v71
z" />
    <glyph glyph-name="uni02BC" unicode="&#x2bc;" horiz-adv-x="287" 
d="M69 469q40 0 58 12t18 38v7h-6q-47 0 -73 22t-26 69q0 43 25.5 65t76.5 22t77 -22.5t26 -72.5v-72q0 -84 -41 -120t-135 -36v88z" />
    <glyph glyph-name="circumflex" unicode="&#x2c6;" horiz-adv-x="501" 
d="M5 588l162 179h167l162 -179h-164l-85 89l-85 -89h-157z" />
    <glyph glyph-name="caron" unicode="&#x2c7;" horiz-adv-x="501" 
d="M5 767h164l85 -90l85 90h157l-162 -179h-167z" />
    <glyph glyph-name="breve" unicode="&#x2d8;" horiz-adv-x="455" 
d="M10 767h132q2 -43 21.5 -62t64.5 -19q44 0 63.5 19t21.5 62h132q0 -93 -53.5 -139.5t-163.5 -46.5t-164 46.5t-54 139.5z" />
    <glyph glyph-name="dotaccent" unicode="&#x2d9;" horiz-adv-x="292" 
d="M46 663q0 40 26.5 60.5t73.5 20.5q48 0 74 -20.5t26 -60.5q0 -41 -26 -61.5t-74 -20.5q-47 0 -73.5 20.5t-26.5 61.5z" />
    <glyph glyph-name="ring" unicode="&#x2da;" horiz-adv-x="353" 
d="M12 678q0 50 39 77.5t124 27.5q87 0 126 -27.5t39 -77.5q0 -51 -39 -78.5t-126 -27.5q-85 0 -124 27.5t-39 78.5zM240 678q0 16 -13.5 24.5t-50.5 8.5t-50.5 -8.5t-13.5 -24.5t13.5 -25t50.5 -9t50.5 9t13.5 25z" />
    <glyph glyph-name="ogonek" unicode="&#x2db;" horiz-adv-x="295" 
d="M220 -205q-81 0 -129 27t-48 80q0 40 27 66t78 36l110 -4q-37 -7 -53 -20t-16 -29q0 -19 20 -30t74 -11v-115h-63z" />
    <glyph glyph-name="tilde" unicode="&#x2dc;" horiz-adv-x="447" 
d="M135 771q33 0 55.5 -10.5t39.5 -23.5t31.5 -23.5t31.5 -10.5t26.5 17.5t9.5 45.5h111q0 -87 -31 -134.5t-92 -47.5q-34 0 -58 11t-41.5 23.5t-32 23.5t-29.5 11q-18 0 -28 -16.5t-10 -47.5h-111q0 85 31 133.5t97 48.5z" />
    <glyph glyph-name="hungarumlaut" unicode="&#x2dd;" horiz-adv-x="491" 
d="M5 588l83 179h158l-113 -179h-128zM201 588l118 179h167l-149 -179h-136z" />
    <glyph glyph-name="afii10023" unicode="&#x401;" horiz-adv-x="746" 
d="M71 690h629v-144h-441v-124h340v-139h-340v-139h445v-144h-633v690zM157 832q0 41 22.5 62t68.5 21t68 -21t22 -62t-22 -62t-68 -21t-68.5 21t-22.5 62zM437 832q0 41 22.5 62t67.5 21q46 0 68.5 -21t22.5 -62t-22.5 -62t-68.5 -21q-45 0 -67.5 21t-22.5 62z" />
    <glyph glyph-name="afii10051" unicode="&#x402;" horiz-adv-x="989" 
d="M584 -52h77q62 0 85 25t23 87v62q0 77 -42 103t-126 26q-35 0 -73 -1.5t-74 -3.5v-246h-188v537h-250v153h737v-153h-299v-144q37 3 80 4.5t85 1.5q177 0 257.5 -65t80.5 -207v-84q0 -119 -57 -181t-178 -62h-138v148z" />
    <glyph glyph-name="afii10052" unicode="&#x403;" horiz-adv-x="672" 
d="M255 758l158 166h193l-191 -166h-160zM71 690h586v-153h-398v-537h-188v690z" />
    <glyph glyph-name="afii10053" unicode="&#x404;" horiz-adv-x="861" 
d="M41 344q0 100 27.5 169t79 111.5t126.5 61t169 18.5q173 0 274.5 -56.5t115.5 -196.5h-190q-11 66 -62 87t-138 21q-84 0 -141.5 -28t-67.5 -112h330v-134h-331q6 -91 63 -122.5t147 -31.5q84 0 135 20.5t66 81.5h190q-16 -134 -117.5 -190.5t-273.5 -56.5q-94 0 -169 18
t-126.5 59t-79 110.5t-27.5 170.5z" />
    <glyph glyph-name="afii10054" unicode="&#x405;" horiz-adv-x="812" 
d="M34 215h191q10 -55 55 -73t132 -18q90 0 134.5 17t44.5 61q0 56 -85.5 63.5t-187.5 18t-187.5 49t-85.5 154.5t95 166.5t262 50.5q168 0 260.5 -51t102.5 -168h-191q-7 49 -52 65t-120 16q-89 0 -130.5 -15.5t-41.5 -60.5q0 -53 85.5 -60.5t187.5 -18t187.5 -48
t85.5 -148.5q0 -122 -90 -175.5t-274 -53.5q-188 0 -278 54t-100 175z" />
    <glyph glyph-name="afii10055" unicode="&#x406;" horiz-adv-x="331" 
d="M71 690h188v-690h-188v690z" />
    <glyph glyph-name="afii10056" unicode="&#x407;" horiz-adv-x="331" 
d="M17 829q0 40 18.5 60.5t52.5 20.5t52 -20.5t18 -60.5q0 -41 -18 -61.5t-52 -20.5t-52.5 20.5t-18.5 61.5zM172 829q0 40 18.5 60.5t52.5 20.5t52 -20.5t18 -60.5q0 -41 -18 -61.5t-52 -20.5t-52.5 20.5t-18.5 61.5zM71 690h188v-690h-188v690z" />
    <glyph glyph-name="afii10057" unicode="&#x408;" horiz-adv-x="472" 
d="M16 148h130q38 0 54.5 21t16.5 56v465h188v-515q0 -84 -43.5 -129.5t-143.5 -45.5h-202v148z" />
    <glyph glyph-name="afii10058" unicode="&#x409;" horiz-adv-x="1307" 
d="M19 165h19q66 0 84.5 57t18.5 182v286h624v-214h265q128 0 189.5 -63t61.5 -176q0 -111 -61.5 -174t-189.5 -63h-453v537h-261v-133q0 -111 -10 -188.5t-37.5 -125t-75 -69t-122.5 -21.5h-52v165zM1090 223v31q0 33 -21.5 53.5t-67.5 20.5h-236v-180h236q46 0 67.5 20.5
t21.5 54.5z" />
    <glyph glyph-name="afii10059" unicode="&#x40a;" horiz-adv-x="1342" 
d="M71 690h188v-248h349v248h188v-248h273q128 0 189 -57.5t61 -161.5q0 -105 -61 -164t-189 -59h-461v289h-349v-289h-188v690zM1129 215v18q0 31 -21.5 49t-69.5 18h-242v-154h242q48 0 69.5 18t21.5 51z" />
    <glyph glyph-name="afii10060" unicode="&#x40b;" horiz-adv-x="991" 
d="M266 537h-250v153h737v-153h-299v-144q34 2 75 4t81 2q192 -1 269 -61.5t77 -196.5v-141h-188v117q0 85 -43.5 111t-133.5 26q-33 0 -68 -1.5t-69 -4.5v-248h-188v537z" />
    <glyph glyph-name="afii10061" unicode="&#x40c;" horiz-adv-x="815" 
d="M317 758l158 166h193l-191 -166h-160zM71 690h188v-262h79l252 262h222l-315 -328l334 -362h-239l-257 275h-76v-275h-188v690z" />
    <glyph glyph-name="afii10062" unicode="&#x40e;" horiz-adv-x="825" 
d="M235 0l103 176l-336 514h207l227 -348l204 348h185l-406 -690h-184zM200 915h150q3 -41 23 -57.5t60 -16.5t60 16.5t22 57.5h151q-3 -87 -60 -131t-173 -44t-173.5 44t-59.5 131z" />
    <glyph glyph-name="afii10145" unicode="&#x40f;" horiz-adv-x="867" 
d="M346 -150v150h-275v690h188v-537h349v537h188v-690h-274v-150h-176z" />
    <glyph glyph-name="afii10017" unicode="&#x410;" horiz-adv-x="852" 
d="M297 690h259l297 -690h-196l-65 153h-352l-65 -153h-176zM298 289h236l-118 278z" />
    <glyph glyph-name="afii10018" unicode="&#x411;" horiz-adv-x="808" 
d="M71 690h657v-143h-471v-118h287q119 0 175.5 -55t56.5 -155q0 -102 -56.5 -160.5t-175.5 -58.5h-473v690zM588 205v23q0 33 -21 52t-65 19h-245v-164h245q43 0 64.5 18t21.5 52z" />
    <glyph glyph-name="afii10019" unicode="&#x412;" horiz-adv-x="816" 
d="M71 690h469q104 0 160 -42t56 -125q0 -51 -24.5 -93.5t-87.5 -63.5q71 -18 102 -61t31 -103q0 -98 -56.5 -150t-170.5 -52h-479v690zM568 482v19q0 32 -21.5 49t-61.5 17h-228v-155h228q40 0 61.5 18t21.5 52zM589 198v26q0 34 -23.5 52.5t-68.5 18.5h-240v-172h240
q44 0 68 19t24 56z" />
    <glyph glyph-name="afii10020" unicode="&#x413;" horiz-adv-x="672" 
d="M71 690h586v-153h-398v-537h-188v690z" />
    <glyph glyph-name="afii10021" unicode="&#x414;" horiz-adv-x="946" 
d="M17 -150v303h82q20 32 37 98t17 176v263h673v-537h96v-303h-176v150h-553v-150h-176zM638 537h-309v-110q0 -110 -13 -175.5t-31 -98.5h353v384z" />
    <glyph glyph-name="afii10022" unicode="&#x415;" horiz-adv-x="746" 
d="M71 690h629v-144h-441v-124h340v-139h-340v-139h445v-144h-633v690z" />
    <glyph glyph-name="afii10024" unicode="&#x416;" horiz-adv-x="1224" 
d="M515 690h188v-265h60l239 265h211l-292 -324l313 -366h-232l-236 272h-63v-272h-188v272h-63l-236 -272h-226l308 360l-299 330h218l239 -265h59v265z" />
    <glyph glyph-name="afii10025" unicode="&#x417;" horiz-adv-x="820" 
d="M30 210h191q7 -48 58 -66t139 -18q94 0 134.5 17.5t40.5 58.5v17q0 36 -31.5 52t-87.5 16h-198v133h198q51 0 76 17t25 45v15q0 37 -36 52t-126 15q-82 0 -129.5 -17t-56.5 -62h-191q10 116 108 167.5t269 51.5q190 0 271.5 -48.5t81.5 -140.5q0 -57 -35 -95.5t-98 -54.5
q72 -15 111 -57t39 -100q0 -110 -86.5 -166t-278.5 -56q-174 0 -276.5 52.5t-111.5 171.5z" />
    <glyph glyph-name="afii10026" unicode="&#x418;" horiz-adv-x="902" 
d="M642 459l-369 -459h-202v690h188v-459l369 459h202v-690h-188v459z" />
    <glyph glyph-name="afii10027" unicode="&#x419;" horiz-adv-x="902" 
d="M642 459l-369 -459h-202v690h188v-459l369 459h202v-690h-188v459zM220 915h150q3 -41 23 -57.5t60 -16.5t60 16.5t22 57.5h151q-3 -87 -60 -131t-173 -44t-173.5 44t-59.5 131z" />
    <glyph glyph-name="afii10028" unicode="&#x41a;" horiz-adv-x="815" 
d="M71 690h188v-262h79l252 262h222l-315 -328l334 -362h-239l-257 275h-76v-275h-188v690z" />
    <glyph glyph-name="afii10029" unicode="&#x41b;" horiz-adv-x="861" 
d="M19 165h19q66 0 84.5 57t18.5 182v286h649v-690h-188v537h-286v-133q0 -111 -10 -188.5t-37.5 -125t-75 -69t-122.5 -21.5h-52v165z" />
    <glyph glyph-name="afii10030" unicode="&#x41c;" horiz-adv-x="1064" 
d="M424 88l-183 452v-540h-170v690h286l175 -431l174 431h287v-690h-188v541l-183 -453h-198z" />
    <glyph glyph-name="afii10031" unicode="&#x41d;" horiz-adv-x="884" 
d="M71 690h188v-259h366v259h188v-690h-188v278h-366v-278h-188v690z" />
    <glyph glyph-name="afii10032" unicode="&#x41e;" horiz-adv-x="943" 
d="M41 350q0 100 28.5 168t83 109.5t135 59t184.5 17.5q103 0 183.5 -17.5t135 -59t83 -109.5t28.5 -168q0 -103 -28.5 -173t-83 -112.5t-135 -60.5t-183.5 -18q-104 0 -184.5 18t-135 60.5t-83 112.5t-28.5 173zM712 310v73q0 98 -60.5 137t-179.5 39t-180 -39t-61 -137
v-73q0 -104 61 -141.5t180 -37.5t179.5 37.5t60.5 141.5z" />
    <glyph glyph-name="afii10033" unicode="&#x41f;" horiz-adv-x="867" 
d="M71 690h725v-690h-188v537h-349v-537h-188v690z" />
    <glyph glyph-name="afii10034" unicode="&#x420;" horiz-adv-x="819" 
d="M71 690h471q128 0 189.5 -63t61.5 -174q0 -114 -61.5 -177t-189.5 -63h-283v-213h-188v690zM602 438v28q0 34 -20.5 56t-66.5 22h-256v-185h256q46 0 66.5 21.5t20.5 57.5z" />
    <glyph glyph-name="afii10035" unicode="&#x421;" horiz-adv-x="862" 
d="M41 344q0 100 27.5 169t79 111.5t126.5 61t169 18.5q173 0 274.5 -56.5t115.5 -196.5h-190q-11 66 -62 87t-138 21q-46 0 -85 -7.5t-67 -26.5t-43.5 -53t-15.5 -87v-80q0 -104 58 -139t153 -35q84 0 135 20.5t66 81.5h190q-16 -134 -117.5 -190.5t-273.5 -56.5
q-94 0 -169 18t-126.5 59t-79 110.5t-27.5 170.5z" />
    <glyph glyph-name="afii10036" unicode="&#x422;" horiz-adv-x="768" 
d="M290 537h-274v153h736v-153h-274v-537h-188v537z" />
    <glyph glyph-name="afii10037" unicode="&#x423;" horiz-adv-x="825" 
d="M235 0l103 176l-336 514h207l227 -348l204 348h185l-406 -690h-184z" />
    <glyph glyph-name="afii10038" unicode="&#x424;" horiz-adv-x="1084" 
d="M448 92q-205 1 -310.5 60t-105.5 211q0 79 26.5 131t78.5 83t130 43.5t181 13.5v70h188v-70q103 -1 181 -13.5t129.5 -43.5t78 -83t26.5 -131q0 -152 -105 -211t-310 -60v-106h-188v106zM448 494q-125 -1 -175 -26t-50 -89v-33q0 -64 48.5 -88.5t176.5 -25.5v262z
M861 346v33q0 65 -48 89.5t-177 25.5v-262q129 1 177 25.5t48 88.5z" />
    <glyph glyph-name="afii10039" unicode="&#x425;" horiz-adv-x="815" 
d="M601 0l-200 232l-201 -232h-207l302 346l-298 344h225l192 -222l191 222h207l-293 -335l307 -355h-225z" />
    <glyph glyph-name="afii10040" unicode="&#x426;" horiz-adv-x="915" 
d="M713 -150v150h-642v690h188v-537h349v537h188v-537h93v-303h-176z" />
    <glyph glyph-name="afii10041" unicode="&#x427;" horiz-adv-x="838" 
d="M579 241q-37 -3 -85.5 -5.5t-97.5 -2.5q-99 0 -167 15t-109.5 46.5t-60 81t-18.5 118.5v196h188v-168q0 -86 46.5 -112t143.5 -26q39 0 80.5 2t79.5 5v299h188v-690h-188v241z" />
    <glyph glyph-name="afii10042" unicode="&#x428;" horiz-adv-x="1177" 
d="M71 690h188v-537h235v537h189v-537h235v537h188v-690h-1035v690z" />
    <glyph glyph-name="afii10043" unicode="&#x429;" horiz-adv-x="1225" 
d="M71 690h188v-537h235v537h189v-537h235v537h188v-537h93v-303h-177v150h-951v690z" />
    <glyph glyph-name="afii10044" unicode="&#x42a;" horiz-adv-x="938" 
d="M18 690h362v-214h282q128 0 189.5 -63t61.5 -176q0 -111 -61.5 -174t-189.5 -63h-470v537h-174v153zM722 223v31q0 33 -21.5 53.5t-67.5 20.5h-253v-180h253q46 0 67.5 20.5t21.5 54.5z" />
    <glyph glyph-name="afii10045" unicode="&#x42b;" horiz-adv-x="1122" 
d="M71 690h188v-214h282q128 0 189.5 -63t61.5 -176q0 -111 -61.5 -174t-189.5 -63h-470v690zM601 223v31q0 33 -21.5 53.5t-67.5 20.5h-253v-180h253q46 0 67.5 20.5t21.5 54.5zM862 690h188v-690h-188v690z" />
    <glyph glyph-name="afii10046" unicode="&#x42c;" horiz-adv-x="818" 
d="M71 690h188v-214h282q128 0 189.5 -63t61.5 -176q0 -111 -61.5 -174t-189.5 -63h-470v690zM601 223v31q0 33 -21.5 53.5t-67.5 20.5h-253v-180h253q46 0 67.5 20.5t21.5 54.5z" />
    <glyph glyph-name="afii10047" unicode="&#x42d;" horiz-adv-x="861" 
d="M26 233h191q15 -60 67 -81t134 -21q91 0 147.5 30.5t62.5 121.5h-324v134h324q-8 85 -63.5 113.5t-144.5 28.5q-82 0 -135 -21t-66 -87h-190q15 140 117.5 196.5t273.5 56.5q91 0 165.5 -17.5t126.5 -59t80 -111t28 -172.5t-28.5 -172t-80.5 -110.5t-126.5 -58.5
t-165.5 -17q-172 0 -274.5 57t-118.5 190z" />
    <glyph glyph-name="afii10048" unicode="&#x42e;" horiz-adv-x="1229" 
d="M71 690h188v-259h107q22 153 126.5 213t281.5 60q99 0 176.5 -18t130 -59.5t80 -111t27.5 -170.5t-27.5 -170t-80 -111t-130 -60t-176.5 -18q-183 0 -289 65.5t-122 231.5h-104v-283h-188v690zM998 314v65q0 100 -57 140t-167 40t-167 -40t-57 -140v-65q0 -106 57 -144.5
t167 -38.5t167 38.5t57 144.5z" />
    <glyph glyph-name="afii10049" unicode="&#x42f;" horiz-adv-x="837" 
d="M577 234h-203l-142 -234h-202l152 252q-67 22 -103 75.5t-36 134.5q0 104 64 166t188 62h471v-690h-189v234zM577 546h-254q-42 0 -66 -18.5t-24 -53.5v-22q0 -35 23.5 -55.5t66.5 -20.5h254v170z" />
    <glyph glyph-name="afii10065" unicode="&#x430;" horiz-adv-x="700" 
d="M31 141q0 76 55 117.5t177 45.5l202 7v17q0 46 -29 63.5t-86 17.5q-56 0 -83.5 -13.5t-34.5 -43.5h-181q11 84 84 128t215 44q146 0 220 -47.5t74 -148.5v-328h-173v78q-28 -43 -84 -67.5t-143 -24.5q-109 0 -161 41.5t-52 113.5zM212 153q0 -28 22 -40.5t72 -12.5
q70 0 114.5 25t44.5 78v18l-159 -6q-50 -2 -72 -13.5t-22 -39.5v-9z" />
    <glyph glyph-name="afii10066" unicode="&#x431;" horiz-adv-x="741" 
d="M46 303q0 124 20.5 206t65.5 129.5t117.5 68t176.5 22.5t158 5t79 7v-144q-25 -4 -77 -7t-154 -4q-65 -1 -107.5 -9t-68 -29.5t-37.5 -58.5t-16 -94q33 52 92.5 79.5t147.5 27.5q127 0 194.5 -59t67.5 -196q0 -141 -82.5 -201t-246.5 -60q-82 0 -144 15t-103.5 51
t-62 97.5t-20.5 153.5zM523 223v43q0 65 -34 89t-114 24q-79 0 -113.5 -23.5t-34.5 -89.5v-43q0 -67 34.5 -91.5t113.5 -24.5q80 0 114 24.5t34 91.5z" />
    <glyph glyph-name="afii10067" unicode="&#x432;" horiz-adv-x="701" 
d="M62 510h390q107 0 152 -33t45 -87q0 -42 -24.5 -75.5t-92.5 -46.5q75 -11 105.5 -45t30.5 -80q0 -71 -45 -107t-143 -36h-418v510zM469 350v12q0 19 -12 30t-43 11h-175v-96h175q32 0 43.5 12t11.5 31zM485 155v15q0 22 -15.5 34t-46.5 12h-184v-110h184q31 0 46.5 12
t15.5 37z" />
    <glyph glyph-name="afii10068" unicode="&#x433;" horiz-adv-x="546" 
d="M62 510h469v-131h-289v-379h-180v510z" />
    <glyph glyph-name="afii10069" unicode="&#x434;" horiz-adv-x="782" 
d="M13 -140v270h65q19 33 28 84.5t9 125.5v170h562v-379h85v-271h-168v140h-413v-140h-168zM498 379h-219v-39q0 -74 -8.5 -125.5t-24.5 -83.5h252v248z" />
    <glyph glyph-name="afii10070" unicode="&#x435;" horiz-adv-x="695" 
d="M34 254q0 143 81 206.5t233 63.5q149 0 230.5 -58t81.5 -198v-32h-448v-18q0 -64 34.5 -90t101.5 -26q61 0 92.5 16t41.5 50h177q-20 -94 -98.5 -138t-212.5 -44q-153 0 -233.5 61t-80.5 207zM348 411q-62 0 -98 -20t-38 -68h273q-2 48 -35 68t-102 20z" />
    <glyph glyph-name="afii10072" unicode="&#x436;" horiz-adv-x="981" 
d="M400 510h180v-190h50l147 190h187l-187 -241l208 -269h-204l-148 190h-53v-190h-180v190h-53l-149 -190h-202l205 263l-192 247h194l147 -190h50v190z" />
    <glyph glyph-name="afii10073" unicode="&#x437;" horiz-adv-x="675" 
d="M21 160h182q6 -34 41.5 -48.5t95.5 -14.5q66 0 93.5 12.5t27.5 40.5v12q0 25 -23 36.5t-70 11.5h-120v103h114q47 0 67 10.5t20 34.5v10q0 25 -24 34.5t-84 9.5q-63 0 -95 -14t-37 -45h-182q4 48 29 81t66 52.5t96.5 28.5t120.5 9q66 0 120 -8.5t91.5 -26t58.5 -44.5
t21 -65q0 -39 -24 -67.5t-84 -41.5q59 -13 89 -44.5t30 -77.5q0 -84 -74 -123.5t-227 -39.5q-149 0 -229 40t-90 134z" />
    <glyph glyph-name="afii10074" unicode="&#x438;" horiz-adv-x="742" 
d="M62 510h177v-320l244 320h198v-510h-178v319l-244 -319h-197v510z" />
    <glyph glyph-name="afii10075" unicode="&#x439;" horiz-adv-x="742" 
d="M149 767h141q0 -48 18.5 -69t58.5 -21q39 0 57.5 21t18.5 69h142q-3 -93 -55.5 -139.5t-162.5 -46.5t-163 46.5t-55 139.5zM62 510h180v-328l242 328h197v-510h-180v327l-243 -327h-196v510z" />
    <glyph glyph-name="afii10076" unicode="&#x43a;" horiz-adv-x="688" 
d="M62 510h180v-189h61l173 189h200l-222 -242l248 -268h-221l-177 190h-62v-190h-180v510z" />
    <glyph glyph-name="afii10077" unicode="&#x43b;" horiz-adv-x="714" 
d="M20 0v149h16q49 0 63 30.5t14 117.5v213h539v-510h-180v379h-193v-86q0 -82 -10 -138.5t-35 -90.5t-67.5 -49t-106.5 -15h-40z" />
    <glyph glyph-name="afii10078" unicode="&#x43c;" horiz-adv-x="908" 
d="M365 53l-142 335v-388h-161v510h261l129 -302l129 302h265v-510h-178v384l-142 -331h-161z" />
    <glyph glyph-name="afii10079" unicode="&#x43d;" horiz-adv-x="731" 
d="M62 510h180v-188h248v188h179v-510h-179v191h-248v-191h-180v510z" />
    <glyph glyph-name="afii10080" unicode="&#x43e;" horiz-adv-x="731" 
d="M35 255q0 77 21 129t62.5 83t103.5 44t143 13t143.5 -13t104 -44t62.5 -83t21 -129q0 -78 -21 -130t-62.5 -83t-104 -43.5t-143.5 -12.5t-143 12.5t-103.5 43.5t-62.5 83t-21 130zM514 220v69q0 66 -37 89.5t-112 23.5q-74 0 -111 -23.5t-37 -89.5v-69q0 -65 37 -89
t111 -24q75 0 112 24t37 89z" />
    <glyph glyph-name="afii10081" unicode="&#x43f;" horiz-adv-x="718" 
d="M62 510h595v-510h-180v379h-235v-379h-180v510z" />
    <glyph glyph-name="afii10082" unicode="&#x440;" horiz-adv-x="756" 
d="M62 510h175v-79q31 48 86.5 70.5t134.5 22.5q122 0 192 -63.5t70 -206.5q0 -140 -69.5 -204t-192.5 -64q-75 0 -129.5 20.5t-86.5 63.5v-270h-180v710zM538 217v76q0 61 -37 85t-111 24q-75 0 -111.5 -24.5t-36.5 -84.5v-76q0 -62 36.5 -86t110.5 -24q75 0 112 24t37 86z
" />
    <glyph glyph-name="afii10083" unicode="&#x441;" horiz-adv-x="679" 
d="M36 255q0 149 77 209t237 60q134 0 212.5 -41.5t88.5 -140.5h-181q-7 29 -32.5 44.5t-88.5 15.5q-67 0 -99 -22t-32 -82v-83q0 -63 33 -85.5t98 -22.5q63 0 89 16.5t34 45.5h182q-13 -91 -87 -137t-218 -46q-78 0 -137 13t-98 44t-58.5 83t-19.5 129z" />
    <glyph glyph-name="afii10084" unicode="&#x442;" horiz-adv-x="616" 
d="M218 379h-202v131h584v-131h-202v-379h-180v379z" />
    <glyph glyph-name="afii10085" unicode="&#x443;" horiz-adv-x="664" 
d="M82 -72h68q46 0 66 11.5t38 51.5l3 7l-262 512h187l162 -331l159 331h163l-263 -551q-22 -44 -44 -75t-47.5 -49.5t-58 -26.5t-76.5 -8h-95v128z" />
    <glyph glyph-name="afii10086" unicode="&#x444;" horiz-adv-x="953" 
d="M386 -14q-172 0 -262 62.5t-90 206.5q0 141 90 205t262 64v206h180v-206q173 0 263 -64t90 -205q0 -144 -90 -206.5t-263 -62.5v-186h-180v186zM386 402q-87 0 -128.5 -22.5t-41.5 -87.5v-71q0 -58 41 -85.5t129 -27.5v294zM737 221v71q0 65 -41 87.5t-130 22.5v-294
q89 0 130 27.5t41 85.5z" />
    <glyph glyph-name="afii10087" unicode="&#x445;" horiz-adv-x="655" 
d="M458 0l-137 159l-143 -159h-184l232 256l-224 254h204l128 -146l134 146h183l-223 -243l234 -267h-204z" />
    <glyph glyph-name="afii10088" unicode="&#x446;" horiz-adv-x="761" 
d="M573 -140v140h-512v510h180v-379h235v379h180v-379h85v-271h-168z" />
    <glyph glyph-name="afii10089" unicode="&#x447;" horiz-adv-x="687" 
d="M446 177q-31 -4 -70.5 -6.5t-76.5 -2.5q-140 0 -203.5 49t-63.5 177v116h180v-107q0 -63 30.5 -84t104.5 -21q25 0 52.5 2t46.5 5v205h180v-510h-180v177z" />
    <glyph glyph-name="afii10090" unicode="&#x448;" horiz-adv-x="1005" 
d="M62 510h180v-379h171v379h180v-379h171v379h180v-510h-882v510z" />
    <glyph glyph-name="afii10091" unicode="&#x449;" horiz-adv-x="1048" 
d="M62 510h180v-379h171v379h180v-379h171v379h180v-379h86v-271h-168v140h-800v510z" />
    <glyph glyph-name="afii10092" unicode="&#x44a;" horiz-adv-x="774" 
d="M159 0v379h-142v131h322v-146h213q97 0 148 -46.5t51 -133.5q0 -89 -51 -136.5t-148 -47.5h-393zM569 173v21q0 26 -16.5 39t-47.5 13h-166v-128h166q31 0 47.5 14t16.5 41z" />
    <glyph glyph-name="afii10093" unicode="&#x44b;" horiz-adv-x="949" 
d="M62 0v510h180v-146h213q97 0 148 -46.5t51 -133.5q0 -89 -51 -136.5t-148 -47.5h-393zM472 173v21q0 26 -16.5 39t-47.5 13h-166v-128h166q31 0 47.5 14t16.5 41zM707 510h180v-510h-180v510z" />
    <glyph glyph-name="afii10094" unicode="&#x44c;" horiz-adv-x="676" 
d="M62 0v510h180v-146h213q97 0 148 -46.5t51 -133.5q0 -89 -51 -136.5t-148 -47.5h-393zM472 173v21q0 26 -16.5 39t-47.5 13h-166v-128h166q31 0 47.5 14t16.5 41z" />
    <glyph glyph-name="afii10095" unicode="&#x44d;" horiz-adv-x="683" 
d="M21 170h183q8 -30 35.5 -47t97.5 -17q71 0 103 24t32 76h-225v103h225q-1 50 -32.5 72.5t-102.5 22.5q-69 0 -96 -16t-34 -45h-183q11 88 93 134.5t222 46.5q150 0 230 -60t80 -209t-80 -209t-229 -60q-140 0 -223 46t-96 138z" />
    <glyph glyph-name="afii10096" unicode="&#x44e;" horiz-adv-x="998" 
d="M62 510h180v-186h78q18 113 100 156.5t219 43.5q78 0 138.5 -13t101.5 -44t62.5 -83t21.5 -129q0 -78 -21.5 -130t-62.5 -82.5t-101.5 -43.5t-138.5 -13q-140 0 -222.5 45t-98.5 166h-76v-197h-180v510zM780 217v76q0 65 -35.5 87t-105.5 22q-71 0 -106.5 -22t-35.5 -87
v-76q0 -65 35.5 -87t106.5 -22q70 0 105.5 22t35.5 87z" />
    <glyph glyph-name="afii10097" unicode="&#x44f;" horiz-adv-x="699" 
d="M457 159h-139l-97 -159h-192l116 190q-54 17 -82 54t-28 93q0 83 54 128t160 45h388v-510h-180v159zM457 394h-181q-28 0 -43.5 -13.5t-15.5 -36.5v-19q0 -23 15.5 -36.5t43.5 -13.5h181v119z" />
    <glyph glyph-name="afii10071" unicode="&#x451;" horiz-adv-x="695" 
d="M34 254q0 143 81 206.5t233 63.5q149 0 230.5 -58t81.5 -198v-32h-448v-18q0 -64 34.5 -90t101.5 -26q61 0 92.5 16t41.5 50h177q-20 -94 -98.5 -138t-212.5 -44q-153 0 -233.5 61t-80.5 207zM348 411q-62 0 -98 -20t-38 -68h273q-2 48 -35 68t-102 20zM121 679
q0 41 22.5 62t68.5 21t68 -21t22 -62t-22 -62t-68 -21t-68.5 21t-22.5 62zM393 679q0 41 22.5 62t68.5 21q45 0 67.5 -21t22.5 -62t-22.5 -62t-67.5 -21q-46 0 -68.5 21t-22.5 62z" />
    <glyph glyph-name="afii10099" unicode="&#x452;" horiz-adv-x="730" 
d="M378 -69h51q36 0 50.5 17.5t14.5 51.5v311q0 51 -32 70.5t-92 19.5q-57 0 -92.5 -20.5t-35.5 -69.5v-311h-180v559h-60v99h60v72h180v-72h181v-99h-181v-127q27 47 83.5 69.5t125.5 22.5q108 0 165.5 -45.5t57.5 -149.5v-352q0 -90 -38.5 -133.5t-138.5 -43.5h-119v131z
" />
    <glyph glyph-name="afii10100" unicode="&#x453;" horiz-adv-x="546" 
d="M62 510h469v-131h-289v-379h-180v510zM209 588l141 179h184l-175 -179h-150z" />
    <glyph glyph-name="afii10101" unicode="&#x454;" horiz-adv-x="687" 
d="M36 254q0 151 77.5 210.5t237.5 59.5q144 0 222.5 -45.5t88.5 -136.5h-181q-7 29 -34.5 44.5t-94.5 15.5q-66 0 -100.5 -20t-38.5 -72h218v-103h-218q2 -58 36.5 -79t102.5 -21q67 0 94.5 16.5t36.5 45.5h181q-13 -91 -89.5 -137t-224.5 -46q-79 0 -138.5 13t-98.5 44
t-58 83t-19 128z" />
    <glyph glyph-name="afii10102" unicode="&#x455;" horiz-adv-x="668" 
d="M29 163h182q6 -38 38.5 -52.5t90.5 -14.5q64 0 92.5 11.5t28.5 38.5q0 42 -66 47t-145 11.5t-145 36t-66 120.5q0 86 78 124.5t211 38.5q140 0 215.5 -39t82.5 -128h-182q-6 34 -35.5 45.5t-80.5 11.5q-54 0 -82.5 -10.5t-28.5 -35.5q0 -38 66 -42t145 -11.5t145 -38
t66 -121.5q0 -90 -76.5 -129t-222.5 -39t-223.5 39.5t-87.5 136.5z" />
    <glyph glyph-name="afii10103" unicode="&#x456;" horiz-adv-x="303" 
d="M62 510h180v-510h-180v510zM52 663q0 40 26.5 60.5t73.5 20.5q48 0 74 -20.5t26 -60.5q0 -41 -26 -61.5t-74 -20.5q-47 0 -73.5 20.5t-26.5 61.5z" />
    <glyph glyph-name="afii10104" unicode="&#x457;" horiz-adv-x="303" 
d="M14 663q0 40 16 60.5t50 20.5t50 -20.5t16 -60.5t-16 -61t-50 -21t-50 21t-16 61zM158 663q0 40 16 60.5t50 20.5q33 0 49.5 -20.5t16.5 -60.5t-16.5 -61t-49.5 -21q-34 0 -50 21t-16 61zM62 510h180v-510h-180v510z" />
    <glyph glyph-name="afii10105" unicode="&#x458;" horiz-adv-x="303" 
d="M-54 -69h51q36 0 50.5 17.5t14.5 51.5v510h180v-533q0 -90 -38 -133.5t-139 -43.5h-119v131zM53 663q0 40 26.5 60.5t73.5 20.5q48 0 74 -20.5t26 -60.5q0 -41 -26 -61.5t-74 -20.5q-47 0 -73.5 20.5t-26.5 61.5z" />
    <glyph glyph-name="afii10106" unicode="&#x459;" horiz-adv-x="1046" 
d="M20 149h16q49 0 63 30.5t14 117.5v213h516v-146h196q97 0 148 -46.5t51 -133.5q0 -89 -51 -136.5t-148 -47.5h-376v379h-170v-86q0 -82 -10 -138.5t-35 -90.5t-67.5 -49t-106.5 -15h-40v149zM842 173v21q0 26 -16.5 39t-47.5 13h-149v-128h149q31 0 47.5 14t16.5 41z" />
    <glyph glyph-name="afii10107" unicode="&#x45a;" horiz-adv-x="1065" 
d="M470 0v209h-228v-209h-180v510h180v-172h228v172h180v-172h196q96 0 147.5 -42t51.5 -123q0 -84 -51.5 -128.5t-147.5 -44.5h-376zM863 161v19q0 22 -16.5 33t-48.5 11h-148v-111h148q32 0 48.5 12t16.5 36z" />
    <glyph glyph-name="afii10108" unicode="&#x45b;" horiz-adv-x="730" 
d="M494 0v311q0 51 -32 70.5t-92 19.5q-57 0 -92.5 -20.5t-35.5 -69.5v-311h-180v559h-60v99h60v72h180v-72h181v-99h-181v-127q27 47 83.5 69.5t125.5 22.5q108 0 165.5 -45.5t57.5 -149.5v-329h-180z" />
    <glyph glyph-name="afii10109" unicode="&#x45c;" horiz-adv-x="688" 
d="M62 510h180v-189h61l173 189h200l-222 -242l248 -268h-221l-177 190h-62v-190h-180v510zM253 588l141 179h184l-175 -179h-150z" />
    <glyph glyph-name="afii10110" unicode="&#x45e;" horiz-adv-x="664" 
d="M82 -72h68q46 0 66 11.5t38 51.5l3 7l-262 512h187l162 -331l159 331h163l-263 -551q-22 -44 -44 -75t-47.5 -49.5t-58 -26.5t-76.5 -8h-95v128zM123 767h141q0 -48 18.5 -69t58.5 -21q39 0 57.5 21t18.5 69h141q-2 -93 -54.5 -139.5t-162.5 -46.5t-163 46.5t-55 139.5z
" />
    <glyph glyph-name="afii10193" unicode="&#x45f;" horiz-adv-x="718" 
d="M275 -140v140h-213v510h180v-379h235v379h180v-510h-214v-140h-168z" />
    <glyph glyph-name="afii10050" unicode="&#x490;" horiz-adv-x="672" 
d="M71 690h407v150h179v-303h-398v-537h-188v690z" />
    <glyph glyph-name="afii10098" unicode="&#x491;" horiz-adv-x="546" 
d="M62 510h301v140h168v-271h-289v-379h-180v510z" />
    <glyph glyph-name="uni0492" unicode="&#x492;" horiz-adv-x="710" 
d="M25 269v131h84v291h586v-153h-398v-138h187v-131h-187v-268h-188v268h-84z" />
    <glyph glyph-name="uni0493" unicode="&#x493;" horiz-adv-x="575" 
d="M24 179v98h67v233h469v-131h-289v-102h157v-98h-157v-179h-180v179h-67z" />
    <glyph glyph-name="uni0496" unicode="&#x496;" horiz-adv-x="1246" 
d="M515 690h188v-265h60l239 265h211l-292 -324l183 -213h131v-303h-176v150h-57l-236 272h-63v-272h-188v272h-63l-236 -272h-226l308 360l-299 330h218l239 -265h59v265z" />
    <glyph glyph-name="uni0497" unicode="&#x497;" horiz-adv-x="996" 
d="M400 510h180v-190h50l147 190h187l-187 -241l112 -138h98v-271h-168v140h-38l-148 190h-53v-190h-180v190h-53l-149 -190h-202l205 263l-192 247h194l147 -190h50v190z" />
    <glyph glyph-name="uni0498" unicode="&#x498;" horiz-adv-x="820" 
d="M30 210h191q7 -48 58 -66t139 -18q94 0 134.5 17.5t40.5 58.5v17q0 36 -31.5 52t-87.5 16h-198v133h198q51 0 76 17t25 45v15q0 37 -36 52t-126 15q-82 0 -129.5 -17t-56.5 -62h-191q10 116 108 167.5t269 51.5q190 0 271.5 -48.5t81.5 -140.5q0 -57 -35 -95.5t-98 -54.5
q72 -15 111 -57t39 -100q0 -96 -65.5 -151t-208.5 -67v-140h-176v139q-136 11 -216 64t-87 157z" />
    <glyph glyph-name="uni0499" unicode="&#x499;" horiz-adv-x="675" 
d="M21 160h182q6 -34 41.5 -48.5t95.5 -14.5q66 0 93.5 12.5t27.5 40.5v12q0 25 -23 36.5t-70 11.5h-120v103h114q47 0 67 10.5t20 34.5v10q0 25 -24 34.5t-84 9.5q-63 0 -95 -14t-37 -45h-182q4 48 29 81t66 52.5t96.5 28.5t120.5 9q66 0 120 -8.5t91.5 -26t58.5 -44.5
t21 -65q0 -39 -24 -67.5t-84 -41.5q59 -13 89 -44.5t30 -77.5q0 -71 -52 -110t-159 -49v-130h-168v129q-111 9 -171.5 49.5t-69.5 121.5z" />
    <glyph glyph-name="uni049A" unicode="&#x49a;" horiz-adv-x="839" 
d="M650 -150v150h-58l-257 275h-76v-275h-188v690h188v-262h79l252 262h222l-315 -328l193 -209h136v-303h-176z" />
    <glyph glyph-name="uni049B" unicode="&#x49b;" horiz-adv-x="705" 
d="M62 510h180v-189h61l173 189h200l-221 -242l130 -137h110v-271h-168v140h-46l-177 190h-62v-190h-180v510z" />
    <glyph glyph-name="uni049C" unicode="&#x49c;" horiz-adv-x="960" 
d="M340 115v160h-81v-275h-188v690h188v-262h81v156h132v-156h10l252 262h222l-314 -328l333 -362h-239l-256 275h-8v-160h-132z" />
    <glyph glyph-name="uni049D" unicode="&#x49d;" horiz-adv-x="803" 
d="M304 70v120h-62v-190h-180v510h180v-189h62v117h106v-117h8l173 189h201l-222 -242l248 -268h-222l-176 190h-10v-120h-106z" />
    <glyph glyph-name="uni04A0" unicode="&#x4a0;" horiz-adv-x="1067" 
d="M15 690h495v-262h79l252 262h222l-315 -328l334 -362h-239l-257 275h-76v-275h-188v537h-307v153z" />
    <glyph glyph-name="uni04A1" unicode="&#x4a1;" horiz-adv-x="873" 
d="M15 510h412v-189h61l173 189h200l-222 -242l248 -268h-221l-177 190h-62v-190h-180v379h-232v131z" />
    <glyph glyph-name="uni04A2" unicode="&#x4a2;" horiz-adv-x="931" 
d="M71 690h188v-259h366v259h188v-537h92v-303h-176v150h-104v278h-366v-278h-188v690z" />
    <glyph glyph-name="uni04A3" unicode="&#x4a3;" horiz-adv-x="774" 
d="M62 510h180v-188h248v188h179v-379h85v-271h-168v140h-96v191h-248v-191h-180v510z" />
    <glyph glyph-name="uni04AA" unicode="&#x4aa;" horiz-adv-x="862" 
d="M41 344q0 100 27.5 169t79 111.5t126.5 61t169 18.5q173 0 274.5 -56.5t115.5 -196.5h-190q-11 66 -62 87t-138 21q-46 0 -85 -7.5t-67 -26.5t-43.5 -53t-15.5 -87v-80q0 -104 58 -139t153 -35q84 0 135 20.5t66 81.5h190q-14 -114 -90.5 -172t-207.5 -71v-140h-176v140
q-151 13 -235 93.5t-84 260.5z" />
    <glyph glyph-name="uni04AB" unicode="&#x4ab;" horiz-adv-x="678" 
d="M36 255q0 149 77 209t237 60q134 0 212.5 -41.5t88.5 -140.5h-181q-7 29 -32.5 44.5t-88.5 15.5q-67 0 -99 -22t-32 -82v-83q0 -63 33 -85.5t98 -22.5q63 0 89 16.5t34 45.5h182q-10 -77 -64.5 -121.5t-156.5 -56.5v-131h-168v130q-115 13 -172 73.5t-57 191.5z" />
    <glyph glyph-name="uni04AE" unicode="&#x4ae;" horiz-adv-x="823" 
d="M326 276l-334 414h214l222 -279l203 279h190l-307 -415v-275h-188v276z" />
    <glyph glyph-name="uni04AF" unicode="&#x4af;" horiz-adv-x="666" 
d="M248 0l-251 510h184l165 -343l157 343h164l-239 -510v-200h-180v200z" />
    <glyph glyph-name="uni04B0" unicode="&#x4b0;" horiz-adv-x="814" 
d="M150 142v134h171l-334 414h214l222 -279l203 279h190l-306 -414h170v-134h-171v-142h-188v142h-171z" />
    <glyph glyph-name="uni04B1" unicode="&#x4b1;" horiz-adv-x="666" 
d="M125 -102v102h123l-251 510h184l165 -343l157 343h164l-239 -510h122v-102h-122v-98h-180v98h-123z" />
    <glyph glyph-name="uni04B2" unicode="&#x4b2;" horiz-adv-x="846" 
d="M659 -150v150h-58l-200 232l-201 -232h-207l302 346l-298 344h225l192 -222l191 222h207l-293 -335l173 -202h143v-303h-176z" />
    <glyph glyph-name="uni04B3" unicode="&#x4b3;" horiz-adv-x="683" 
d="M505 -140v140h-47l-137 159l-143 -159h-184l232 256l-224 254h204l128 -146l134 146h183l-223 -243l119 -136h126v-271h-168z" />
    <glyph glyph-name="uni04B6" unicode="&#x4b6;" horiz-adv-x="886" 
d="M579 241q-37 -3 -85.5 -5.5t-97.5 -2.5q-99 0 -167 15t-109.5 46.5t-60 81t-18.5 118.5v196h188v-168q0 -86 46.5 -112t143.5 -26q39 0 80.5 2t79.5 5v299h188v-537h93v-303h-176v150h-105v241z" />
    <glyph glyph-name="uni04B7" unicode="&#x4b7;" horiz-adv-x="730" 
d="M446 177q-31 -4 -70.5 -6.5t-76.5 -2.5q-140 0 -203.5 49t-63.5 177v116h180v-107q0 -63 30.5 -84t104.5 -21q25 0 52.5 2t46.5 5v205h180v-379h84v-271h-168v140h-96v177z" />
    <glyph glyph-name="uni04B8" unicode="&#x4b8;" horiz-adv-x="853" 
d="M346 94v140q-167 8 -236 70t-69 190v196h188v-178q0 -63 28.5 -91t88.5 -35v152h132v-153q33 1 61 2.5t54 3.5v299h189v-690h-189v241q-24 -1 -53.5 -3t-61.5 -3v-141h-132z" />
    <glyph glyph-name="uni04B9" unicode="&#x4b9;" horiz-adv-x="702" 
d="M290 68v100q-136 3 -196.5 53.5t-60.5 172.5v116h180v-116q0 -48 18 -69t59 -25v113h106v-113q20 1 36 2.5t28 2.5v205h180v-510h-180v177q-14 -2 -30.5 -3.5t-33.5 -2.5v-103h-106z" />
    <glyph glyph-name="uni04BA" unicode="&#x4ba;" horiz-adv-x="839" 
d="M259 449q37 3 85.5 5.5t97.5 2.5q99 0 167 -15t109.5 -46.5t60 -81t18.5 -118.5v-196h-188v168q0 86 -46.5 112t-143.5 26q-39 0 -80.5 -2t-79.5 -5v-299h-188v690h188v-241z" />
    <glyph glyph-name="uni04BB" unicode="&#x4bb;" horiz-adv-x="730" 
d="M494 0v311q0 51 -32 70.5t-92 19.5q-57 0 -92.5 -20.5t-35.5 -69.5v-311h-180v730h180v-298q27 47 83.5 69.5t125.5 22.5q108 0 165.5 -45.5t57.5 -149.5v-329h-180z" />
    <glyph glyph-name="uni04C0" unicode="&#x4c0;" horiz-adv-x="331" 
d="M71 690h188v-690h-188v690z" />
    <glyph glyph-name="uni04C1" unicode="&#x4c1;" horiz-adv-x="1224" 
d="M515 690h188v-265h60l239 265h211l-292 -324l313 -366h-232l-236 272h-63v-272h-188v272h-63l-236 -272h-226l308 360l-299 330h218l239 -265h59v265zM377 915h150q3 -41 23 -57.5t60 -16.5t60 16.5t22 57.5h151q-3 -87 -60 -131t-173 -44t-173.5 44t-59.5 131z" />
    <glyph glyph-name="uni04C2" unicode="&#x4c2;" horiz-adv-x="981" 
d="M400 510h180v-190h50l147 190h187l-187 -241l208 -269h-204l-148 190h-53v-190h-180v190h-53l-149 -190h-202l205 263l-192 247h194l147 -190h50v190zM271 767h141q0 -48 18.5 -69t58.5 -21q39 0 57.5 21t18.5 69h141q-2 -93 -54.5 -139.5t-162.5 -46.5t-163 46.5
t-55 139.5z" />
    <glyph glyph-name="uni04CF" unicode="&#x4cf;" horiz-adv-x="312" 
d="M62 690h188v-690h-188v690z" />
    <glyph glyph-name="uni04D0" unicode="&#x4d0;" horiz-adv-x="852" 
d="M297 690h259l297 -690h-196l-65 153h-352l-65 -153h-176zM298 289h236l-118 278zM188 915h150q3 -41 23 -57.5t60 -16.5t60 16.5t22 57.5h151q-3 -87 -60 -131t-173 -44t-173.5 44t-59.5 131z" />
    <glyph glyph-name="uni04D1" unicode="&#x4d1;" horiz-adv-x="700" 
d="M31 141q0 76 55 117.5t177 45.5l202 7v17q0 46 -29 63.5t-86 17.5q-56 0 -83.5 -13.5t-34.5 -43.5h-181q11 84 84 128t215 44q146 0 220 -47.5t74 -148.5v-328h-173v78q-28 -43 -84 -67.5t-143 -24.5q-109 0 -161 41.5t-52 113.5zM212 153q0 -28 22 -40.5t72 -12.5
q70 0 114.5 25t44.5 78v18l-159 -6q-50 -2 -72 -13.5t-22 -39.5v-9zM136 767h141q0 -48 18.5 -69t58.5 -21q39 0 57.5 21t18.5 69h141q-2 -93 -54.5 -139.5t-162.5 -46.5t-163 46.5t-55 139.5z" />
    <glyph glyph-name="uni04D6" unicode="&#x4d6;" horiz-adv-x="746" 
d="M71 690h629v-144h-441v-124h340v-139h-340v-139h445v-144h-633v690zM155 915h150q3 -41 23 -57.5t60 -16.5t60 16.5t22 57.5h151q-3 -87 -60 -131t-173 -44t-173.5 44t-59.5 131z" />
    <glyph glyph-name="uni04D7" unicode="&#x4d7;" horiz-adv-x="695" 
d="M34 255q0 143 81 206.5t233 63.5q149 0 230.5 -58t81.5 -198v-32h-448v-18q0 -64 34.5 -90t101.5 -26q61 0 92.5 16t41.5 50h177q-20 -94 -98.5 -138t-212.5 -44q-153 0 -233.5 61t-80.5 207zM348 412q-62 0 -98 -20t-38 -68h273q-2 48 -35 68t-102 20zM130 767h141
q0 -48 18.5 -69t58.5 -21q39 0 57.5 21t18.5 69h141q-2 -93 -54.5 -139.5t-162.5 -46.5t-163 46.5t-55 139.5z" />
    <glyph glyph-name="uni04D8" unicode="&#x4d8;" horiz-adv-x="920" 
d="M41 323v61h648v10q0 94 -58 129t-165 35q-110 0 -161 -27t-66 -82h-195q26 131 130.5 192.5t291.5 61.5q204 0 308.5 -81t104.5 -275q0 -192 -105.5 -276.5t-307.5 -84.5q-204 0 -314.5 77t-110.5 260zM231 256q0 -68 61 -99t174 -31q111 0 167 32.5t56 98.5v11h-458v-12
z" />
    <glyph glyph-name="uni04D9" unicode="&#x4d9;" horiz-adv-x="695" 
d="M661 253q0 -143 -81 -206.5t-233 -63.5q-149 0 -230.5 58t-81.5 198v32h448v18q0 64 -34.5 90t-101.5 26q-61 0 -92.5 -16t-41.5 -50h-177q20 94 98.5 138t212.5 44q153 0 233.5 -61t80.5 -207zM347 96q62 0 98 20t38 68h-273q2 -48 35 -68t102 -20z" />
    <glyph glyph-name="uni04E2" unicode="&#x4e2;" horiz-adv-x="902" 
d="M642 459l-369 -459h-202v690h188v-459l369 459h202v-690h-188v459zM254 786v112h393v-112h-393z" />
    <glyph glyph-name="uni04E3" unicode="&#x4e3;" horiz-adv-x="742" 
d="M62 510h177v-320l244 320h198v-510h-178v319l-244 -319h-197v510zM179 624v106h387v-106h-387z" />
    <glyph glyph-name="uni04E6" unicode="&#x4e6;" horiz-adv-x="943" 
d="M41 350q0 100 28.5 168t83 109.5t135 59t184.5 17.5q103 0 183.5 -17.5t135 -59t83 -109.5t28.5 -168q0 -103 -28.5 -173t-83 -112.5t-135 -60.5t-183.5 -18q-104 0 -184.5 18t-135 60.5t-83 112.5t-28.5 173zM712 310v73q0 98 -60.5 137t-179.5 39t-180 -39t-61 -137
v-73q0 -104 61 -141.5t180 -37.5t179.5 37.5t60.5 141.5zM241 832q0 41 22.5 62t68.5 21t68 -21t22 -62t-22 -62t-68 -21t-68.5 21t-22.5 62zM521 832q0 41 22.5 62t67.5 21q46 0 68.5 -21t22.5 -62t-22.5 -62t-68.5 -21q-45 0 -67.5 21t-22.5 62z" />
    <glyph glyph-name="uni04E7" unicode="&#x4e7;" horiz-adv-x="731" 
d="M35 255q0 77 21 129t62.5 83t103.5 44t143 13t143.5 -13t104 -44t62.5 -83t21 -129q0 -78 -21 -130t-62.5 -83t-104 -43.5t-143.5 -12.5t-143 12.5t-103.5 43.5t-62.5 83t-21 130zM514 220v69q0 66 -37 89.5t-112 23.5q-74 0 -111 -23.5t-37 -89.5v-69q0 -65 37 -89
t111 -24q75 0 112 24t37 89zM140 679q0 41 22.5 62t68.5 21t68 -21t22 -62t-22 -62t-68 -21t-68.5 21t-22.5 62zM412 679q0 41 22.5 62t68.5 21q45 0 67.5 -21t22.5 -62t-22.5 -62t-67.5 -21q-46 0 -68.5 21t-22.5 62z" />
    <glyph glyph-name="uni04E8" unicode="&#x4e8;" horiz-adv-x="943" 
d="M41 350q0 100 28.5 168t83 109.5t135 59t184.5 17.5q103 0 183.5 -17.5t135 -59t83 -109.5t28.5 -168q0 -103 -28.5 -173t-83 -112.5t-135 -60.5t-183.5 -18q-104 0 -184.5 18t-135 60.5t-83 112.5t-28.5 173zM472 561q-117 0 -180 -34t-68 -119h495q-5 85 -68 119
t-179 34zM472 129q116 0 178 32t69 119h-495q6 -87 69 -119t179 -32z" />
    <glyph glyph-name="uni04E9" unicode="&#x4e9;" horiz-adv-x="731" 
d="M35 255q0 77 21 129t62.5 83t103.5 44t143 13t143.5 -13t104 -44t62.5 -83t21 -129q0 -78 -21 -130t-62.5 -83t-104 -43.5t-143.5 -12.5t-143 12.5t-103.5 43.5t-62.5 83t-21 130zM365 405q-74 0 -112.5 -21t-42.5 -80h311q-4 59 -42.5 80t-113.5 21zM365 104
q76 0 115 22.5t41 82.5h-311q2 -60 41 -82.5t114 -22.5z" />
    <glyph glyph-name="uni04EE" unicode="&#x4ee;" horiz-adv-x="825" 
d="M235 0l103 176l-336 514h207l227 -348l204 348h185l-406 -690h-184zM232 786v112h393v-112h-393z" />
    <glyph glyph-name="uni04EF" unicode="&#x4ef;" horiz-adv-x="664" 
d="M82 -72h68q46 0 66 11.5t38 51.5l3 7l-262 512h187l162 -331l159 331h163l-263 -551q-22 -44 -44 -75t-47.5 -49.5t-58 -26.5t-76.5 -8h-95v128zM150 624v106h387v-106h-387z" />
    <glyph glyph-name="uni04F2" unicode="&#x4f2;" horiz-adv-x="825" 
d="M235 0l103 176l-336 514h207l227 -348l204 348h185l-406 -690h-184zM241 758l85 166h167l-117 -166h-135zM451 758l120 166h175l-153 -166h-142z" />
    <glyph glyph-name="uni04F3" unicode="&#x4f3;" horiz-adv-x="664" 
d="M169 588l83 179h158l-113 -179h-128zM365 588l118 179h167l-149 -179h-136zM82 -72h68q46 0 66 11.5t38 51.5l3 7l-262 512h187l162 -331l159 331h163l-263 -551q-22 -44 -44 -75t-47.5 -49.5t-58 -26.5t-76.5 -8h-95v128z" />
    <glyph glyph-name="Wgrave" unicode="&#x1e80;" horiz-adv-x="1118" 
d="M14 690h188l118 -514l139 514h228l133 -513l122 513h163l-166 -690h-245l-134 513l-139 -513h-246zM490 758l-188 166h198l157 -166h-167z" />
    <glyph glyph-name="wgrave" unicode="&#x1e81;" horiz-adv-x="950" 
d="M163 0l-156 510h169l106 -359l106 359h196l107 -353l104 353h148l-156 -510h-204l-111 367l-109 -367h-200zM230 767h189l141 -179h-155z" />
    <glyph glyph-name="Wacute" unicode="&#x1e82;" horiz-adv-x="1118" 
d="M14 690h188l118 -514l139 514h228l133 -513l122 513h163l-166 -690h-245l-134 513l-139 -513h-246zM488 758l158 166h193l-191 -166h-160z" />
    <glyph glyph-name="wacute" unicode="&#x1e83;" horiz-adv-x="950" 
d="M163 0l-156 510h169l106 -359l106 359h196l107 -353l104 353h148l-156 -510h-204l-111 367l-109 -367h-200zM413 588l141 179h184l-175 -179h-150z" />
    <glyph glyph-name="Wdieresis" unicode="&#x1e84;" horiz-adv-x="1118" 
d="M14 690h188l118 -514l139 514h228l133 -513l122 513h163l-166 -690h-245l-134 513l-139 -513h-246zM331 832q0 41 22.5 62t68.5 21t68 -21t22 -62t-22 -62t-68 -21t-68.5 21t-22.5 62zM611 832q0 41 22.5 62t67.5 21q46 0 68.5 -21t22.5 -62t-22.5 -62t-68.5 -21
q-45 0 -67.5 21t-22.5 62z" />
    <glyph glyph-name="wdieresis" unicode="&#x1e85;" horiz-adv-x="950" 
d="M163 0l-156 510h169l106 -359l106 359h196l107 -353l104 353h148l-156 -510h-204l-111 367l-109 -367h-200zM249 679q0 41 22.5 62t68.5 21t68 -21t22 -62t-22 -62t-68 -21t-68.5 21t-22.5 62zM521 679q0 41 22.5 62t68.5 21q45 0 67.5 -21t22.5 -62t-22.5 -62t-67.5 -21
q-46 0 -68.5 21t-22.5 62z" />
    <glyph glyph-name="Ygrave" unicode="&#x1ef2;" horiz-adv-x="823" 
d="M326 276l-334 414h214l222 -279l203 279h190l-307 -415v-275h-188v276zM349 758l-188 166h198l157 -166h-167z" />
    <glyph glyph-name="ygrave" unicode="&#x1ef3;" horiz-adv-x="664" 
d="M82 -72h68q46 0 66 11.5t38 51.5l3 7l-262 512h187l162 -331l159 331h163l-263 -551q-22 -44 -44 -75t-47.5 -49.5t-58 -26.5t-76.5 -8h-95v128zM95 767h189l141 -179h-155z" />
    <glyph glyph-name="enquad" unicode="&#x2000;" horiz-adv-x="500" 
 />
    <glyph glyph-name="emquad" unicode="&#x2001;" horiz-adv-x="1000" 
 />
    <glyph glyph-name="enspace" unicode="&#x2002;" horiz-adv-x="500" 
 />
    <glyph glyph-name="emspace" unicode="&#x2003;" horiz-adv-x="1000" 
 />
    <glyph glyph-name="thirdemspace" unicode="&#x2004;" horiz-adv-x="333" 
 />
    <glyph glyph-name="quarteremspace" unicode="&#x2005;" horiz-adv-x="250" 
 />
    <glyph glyph-name="sixthemspace" unicode="&#x2006;" horiz-adv-x="167" 
 />
    <glyph glyph-name="figurespace" unicode="&#x2007;" 
 />
    <glyph glyph-name="punctuationspace" unicode="&#x2008;" horiz-adv-x="285" 
 />
    <glyph glyph-name="thinspace" unicode="&#x2009;" horiz-adv-x="125" 
 />
    <glyph glyph-name="hairspace" unicode="&#x200a;" horiz-adv-x="42" 
 />
    <glyph glyph-name="zerowidthspace" unicode="&#x200b;" horiz-adv-x="0" 
 />
    <glyph glyph-name="uni2010" unicode="&#x2010;" horiz-adv-x="474" 
d="M55 339h364v-155h-364v155z" />
    <glyph glyph-name="uni2011" unicode="&#x2011;" horiz-adv-x="474" 
d="M55 339h364v-155h-364v155z" />
    <glyph glyph-name="endash" unicode="&#x2013;" horiz-adv-x="764" 
d="M55 324h655v-132h-655v132z" />
    <glyph glyph-name="emdash" unicode="&#x2014;" horiz-adv-x="1034" 
d="M55 324h925v-132h-925v132z" />
    <glyph glyph-name="uni2015" unicode="&#x2015;" horiz-adv-x="1034" 
d="M55 324h925v-132h-925v132z" />
    <glyph glyph-name="quoteleft" unicode="&#x2018;" horiz-adv-x="287" 
d="M220 616q-40 0 -58 -12t-18 -38v-7h6q47 0 73 -22t26 -69q0 -43 -25.5 -65t-76.5 -22t-77 22.5t-26 72.5v72q0 84 41 120t135 36v-88z" />
    <glyph glyph-name="quoteright" unicode="&#x2019;" horiz-adv-x="287" 
d="M69 469q40 0 58 12t18 38v7h-6q-47 0 -73 22t-26 69q0 43 25.5 65t76.5 22t77 -22.5t26 -72.5v-72q0 -84 -41 -120t-135 -36v88z" />
    <glyph glyph-name="quotesinglbase" unicode="&#x201a;" horiz-adv-x="287" 
d="M68 -71q40 0 58 12t18 38v7h-6q-47 0 -73 22t-26 69q0 43 25.5 65t76.5 22t77 -22.5t26 -72.5v-72q0 -84 -41 -120t-135 -36v88z" />
    <glyph glyph-name="quotedblleft" unicode="&#x201c;" horiz-adv-x="546" 
d="M480 616q-40 0 -58 -12t-18 -38v-7h6q47 0 73 -22t26 -69q0 -43 -25.5 -65t-76.5 -22t-77 22.5t-26 72.5v72q0 84 41 120t135 36v-88zM220 616q-40 0 -58 -12t-18 -38v-7h6q47 0 73 -22t26 -69q0 -43 -25.5 -65t-76.5 -22t-77 22.5t-26 72.5v72q0 84 41 120t135 36v-88z
" />
    <glyph glyph-name="quotedblright" unicode="&#x201d;" horiz-adv-x="547" 
d="M69 469q40 0 58 12t18 38v7h-6q-47 0 -73 22t-26 69q0 43 25.5 65t76.5 22t77 -22.5t26 -72.5v-72q0 -84 -41 -120t-135 -36v88zM329 469q40 0 58 12t18 38v7h-6q-47 0 -73 22t-26 69q0 43 25.5 65t76.5 22t77 -22.5t26 -72.5v-72q0 -84 -41 -120t-135 -36v88z" />
    <glyph glyph-name="quotedblbase" unicode="&#x201e;" horiz-adv-x="547" 
d="M68 -71q40 0 58 12t18 38v7h-6q-47 0 -73 22t-26 69q0 43 25.5 65t76.5 22t77 -22.5t26 -72.5v-72q0 -84 -41 -120t-135 -36v88zM328 -71q40 0 58 12t18 38v7h-6q-47 0 -73 22t-26 69q0 43 25.5 65t76.5 22t77 -22.5t26 -72.5v-72q0 -84 -41 -120t-135 -36v88z" />
    <glyph glyph-name="dagger" unicode="&#x2020;" horiz-adv-x="606" 
d="M216 0v393h-187v147h187v150h173v-150h188v-147h-188v-393h-173z" />
    <glyph glyph-name="daggerdbl" unicode="&#x2021;" horiz-adv-x="606" 
d="M29 128v147h187v140h-187v147h187v128h173v-128h188v-147h-188v-140h188v-147h-188v-128h-173v128h-187z" />
    <glyph glyph-name="bullet" unicode="&#x2022;" horiz-adv-x="475" 
d="M74 359q0 74 42 107t122 33q79 0 121 -33t42 -107q0 -75 -42 -108.5t-121 -33.5q-80 0 -122 33.5t-42 108.5z" />
    <glyph glyph-name="ellipsis" unicode="&#x2026;" horiz-adv-x="836" 
d="M40 75q0 47 26.5 68t76.5 21t76 -21t26 -68q0 -46 -26 -67.5t-76 -21.5t-76.5 21.5t-26.5 67.5zM316 75q0 47 26.5 68t76.5 21t76 -21t26 -68q0 -46 -26 -67.5t-76 -21.5t-76.5 21.5t-26.5 67.5zM591 75q0 47 26.5 68t76.5 21t76 -21t26 -68q0 -46 -26 -67.5t-76 -21.5
t-76.5 21.5t-26.5 67.5z" />
    <glyph glyph-name="nonbreakingspace.narrow" unicode="&#x202f;" horiz-adv-x="173" 
 />
    <glyph glyph-name="perthousand" unicode="&#x2030;" horiz-adv-x="1676" 
d="M30 516q0 98 61.5 143t177.5 45t178 -45t62 -143q0 -99 -62 -144.5t-178 -45.5t-177.5 45.5t-61.5 144.5zM784 690h173l-579 -690h-173zM366 507v17q0 43 -23 56t-74 13t-73.5 -13t-22.5 -56v-17q0 -43 22.5 -56.5t73.5 -13.5t74 13.5t23 56.5zM1172 175q0 99 61.5 144
t175.5 45q113 0 174.5 -45t61.5 -144q0 -98 -61.5 -143.5t-174.5 -45.5q-114 0 -175.5 45.5t-61.5 143.5zM658 175q0 99 62 144t178 45q115 0 177 -45t62 -144q0 -98 -62 -143.5t-177 -45.5q-116 0 -178 45.5t-62 143.5zM1502 166v18q0 43 -22 56t-71 13t-71 -13t-22 -56
v-17q0 -43 22 -57t71 -14t71 13.5t22 56.5zM994 166v18q0 43 -22.5 56t-73.5 13t-74 -13t-23 -56v-17q0 -43 23 -57t74 -14t73.5 13.5t22.5 56.5z" />
    <glyph glyph-name="minute" unicode="&#x2032;" horiz-adv-x="290" 
d="M105 690h168l-88 -256h-153z" />
    <glyph glyph-name="second" unicode="&#x2033;" horiz-adv-x="536" 
d="M105 690h168l-88 -256h-153zM351 690h168l-88 -256h-153z" />
    <glyph glyph-name="guilsinglleft" unicode="&#x2039;" horiz-adv-x="370" 
d="M46 197v119l265 178v-149l-138 -86l138 -87v-153z" />
    <glyph glyph-name="guilsinglright" unicode="&#x203a;" horiz-adv-x="370" 
d="M324 315v-119l-265 -178v149l138 87l-138 86v153z" />
    <glyph glyph-name="fraction" unicode="&#x2044;" horiz-adv-x="329" 
d="M-200 0l570 690h160l-570 -690h-160z" />
    <glyph glyph-name="mathspacemedium" unicode="&#x205f;" horiz-adv-x="222" 
 />
    <glyph glyph-name="joinerspace" unicode="&#x2060;" horiz-adv-x="0" 
 />
    <glyph glyph-name="Euro" unicode="&#x20ac;" horiz-adv-x="967" 
d="M48 324h93v9.5v10.5v13.5t1 13.5h-94v97h106q31 129 131.5 182.5t254.5 53.5q169 0 268 -53.5t115 -185.5h-190q-10 55 -60 74.5t-133 19.5q-69 0 -121 -18.5t-73 -72.5h272v-97h-286v-47h286v-96h-275q20 -57 72 -77t125 -20q80 0 130 18t64 69h190q-19 -124 -117 -178
t-267 -54q-157 0 -258 53.5t-130 188.5h-104v96z" />
    <glyph glyph-name="uni20B4" unicode="&#x20b4;" horiz-adv-x="891" 
d="M50 369v92h531q12 8 19 19.5t7 26.5v10q0 31 -41 46.5t-124 15.5q-77 0 -117 -16t-48 -44h-190q8 89 99.5 137t255.5 48q192 0 273.5 -46t81.5 -121q0 -24 -8 -43t-21 -33h74v-92h-792zM87 147q0 25 9 44.5t23 34.5h-69v92h792v-92h-536q-13 -7 -21 -18.5t-8 -27.5v-9
q0 -32 42.5 -45t121.5 -13q84 0 127 14t50 39h190q-10 -87 -101.5 -133.5t-266.5 -46.5q-182 0 -267.5 44.5t-85.5 116.5z" />
    <glyph glyph-name="uni20B8" unicode="&#x20b8;" horiz-adv-x="819" 
d="M34 690h750v-115h-750v115zM318 391h-284v124h750v-124h-284v-391h-182v391z" />
    <glyph glyph-name="uni20BD" unicode="&#x20bd;" horiz-adv-x="936" 
d="M51 112v115h122v50h-122v123h122v290h503q109 0 163 -56.5t54 -154.5q0 -95 -54 -148.5t-163 -53.5h-321v-50h360v-115h-360v-112h-182v112h-122zM703 470v13q0 31 -19 48.5t-60 17.5h-269v-145h269q41 0 60 17.5t19 48.5z" />
    <glyph glyph-name="afii61352" unicode="&#x2116;" horiz-adv-x="1432" 
d="M912 514q0 99 61 144.5t174 45.5t174 -45.5t61 -144.5t-61 -145t-174 -46t-174 46t-61 145zM577 0l-325 503v-503h-173v690h258l324 -501v501h173v-690h-257zM1238 505v17q0 45 -21 58t-70 13t-70.5 -13t-21.5 -58v-17q0 -43 22 -57.5t70 -14.5q47 0 69 14.5t22 57.5z
M927 150v122h439v-122h-439z" />
    <glyph glyph-name="trademark" unicode="&#x2122;" horiz-adv-x="1076" 
d="M165 597h-135v93h397v-93h-126v-253h-136v253zM671 396l-72 186v-238h-125v346h194l74 -186l75 186h189v-346h-136v238l-74 -186h-125z" />
    <glyph glyph-name="uni2139" unicode="&#x2139;" horiz-adv-x="399" 
d="M139 660q0 41 29 62.5t80 21.5q52 0 81 -21.5t29 -62.5q0 -42 -29 -64t-81 -22q-51 0 -80 22t-29 64zM13 378v132h325v-510h-180v378h-145z" />
    <glyph glyph-name="onethird" unicode="&#x2153;" horiz-adv-x="1149" 
d="M32 612l121 78h141v-425h-141v299l-121 -79v127zM141 0l570 690h160l-570 -690h-160zM644 130h141q7 -22 29 -32t69 -10q41 0 61 8.5t20 28.5v9q0 20 -23 27.5t-69 7.5h-54v94h54q42 0 60 8.5t18 25.5v7q0 18 -17 25.5t-54 7.5t-59 -9.5t-26 -29.5h-140q6 75 67.5 108
t159.5 33q97 0 155 -27.5t58 -88.5q0 -38 -23 -63t-66 -37q48 -10 76 -34t28 -67q0 -71 -59.5 -103.5t-166.5 -32.5q-108 0 -171 32.5t-68 111.5z" />
    <glyph glyph-name="twothirds" unicode="&#x2154;" horiz-adv-x="1324" 
d="M320 0l570 690h160l-570 -690h-160zM819 130h141q7 -22 29 -32t69 -10q41 0 61 8.5t20 28.5v9q0 20 -23 27.5t-69 7.5h-54v94h54q42 0 60 8.5t18 25.5v7q0 18 -17 25.5t-54 7.5t-59 -9.5t-26 -29.5h-140q6 75 67.5 108t159.5 33q97 0 155 -27.5t58 -88.5q0 -38 -23 -63
t-66 -37q48 -10 76 -34t28 -67q0 -71 -59.5 -103.5t-166.5 -32.5q-108 0 -171 32.5t-68 111.5zM46 324q0 81 47.5 116.5t104 51.5t104 25.5t47.5 39.5v7q0 21 -19.5 29t-53.5 8q-38 0 -59 -11t-26 -34h-142q6 78 65.5 113t159.5 35q97 0 157 -30t60 -105q0 -65 -44 -92
t-98 -40t-102.5 -24.5t-57.5 -43.5h300v-104h-443v59z" />
    <glyph glyph-name="oneeighth" unicode="&#x215b;" horiz-adv-x="1180" 
d="M32 612l121 78h141v-425h-141v299l-121 -79v127zM144 0l570 690h160l-570 -690h-160zM653 121q0 41 24 68t73 38q-42 11 -61.5 35.5t-19.5 56.5q0 34 17 57t47.5 37t72 20t90.5 6t91 -6t72 -20t47 -37t17 -57q0 -32 -19 -56.5t-61 -35.5q48 -11 72.5 -38t24.5 -68
q0 -74 -64 -104.5t-180 -30.5t-179.5 30.5t-63.5 104.5zM987 304v6q0 21 -21 30t-70 9q-48 0 -69 -9t-21 -30v-6q0 -20 21 -29t69 -9q47 0 69 9t22 29zM998 118v10q0 24 -25 34t-77 10t-76.5 -10t-24.5 -33v-10q0 -23 25 -33t76 -10t76.5 9.5t25.5 32.5z" />
    <glyph glyph-name="threeeighths" unicode="&#x215c;" horiz-adv-x="1315" 
d="M36 395h141q7 -22 29 -32t69 -10q41 0 61 8.5t20 28.5v9q0 20 -23 27.5t-69 7.5h-54v94h54q42 0 60 8.5t18 25.5v7q0 18 -17 25.5t-54 7.5t-59 -9.5t-26 -29.5h-140q6 75 67.5 108t159.5 33q97 0 155 -27.5t58 -88.5q0 -38 -23 -63t-66 -37q48 -10 76 -34t28 -67
q0 -71 -59.5 -103.5t-166.5 -32.5q-108 0 -171 32.5t-68 111.5zM284 0l570 690h160l-570 -690h-160zM789 121q0 41 24 68t73 38q-42 11 -61.5 35.5t-19.5 56.5q0 34 17 57t47.5 37t72 20t90.5 6t91 -6t72 -20t47 -37t17 -57q0 -32 -19 -56.5t-61 -35.5q48 -11 72.5 -38
t24.5 -68q0 -74 -64 -104.5t-180 -30.5t-179.5 30.5t-63.5 104.5zM1123 304v6q0 21 -21 30t-70 9q-48 0 -69 -9t-21 -30v-6q0 -20 21 -29t69 -9q47 0 69 9t22 29zM1134 118v10q0 24 -25 34t-77 10t-76.5 -10t-24.5 -33v-10q0 -23 25 -33t76 -10t76.5 9.5t25.5 32.5z" />
    <glyph glyph-name="fiveeighths" unicode="&#x215d;" horiz-adv-x="1322" 
d="M289 0l570 690h160l-570 -690h-160zM796 121q0 41 24 68t73 38q-42 11 -61.5 35.5t-19.5 56.5q0 34 17 57t47.5 37t72 20t90.5 6t91 -6t72 -20t47 -37t17 -57q0 -32 -19 -56.5t-61 -35.5q48 -11 72.5 -38t24.5 -68q0 -74 -64 -104.5t-180 -30.5t-179.5 30.5t-63.5 104.5z
M1130 304v6q0 21 -21 30t-70 9q-48 0 -69 -9t-21 -30v-6q0 -20 21 -29t69 -9q47 0 69 9t22 29zM1141 118v10q0 24 -25 34t-77 10t-76.5 -10t-24.5 -33v-10q0 -23 25 -33t76 -10t76.5 9.5t25.5 32.5zM35 388h145q7 -18 27.5 -27.5t65.5 -9.5q47 0 67 10.5t20 35.5v10
q0 26 -21 36.5t-67 10.5q-34 0 -58.5 -7t-37.5 -17l-126 22l21 238h405v-104h-300l-7 -78q21 15 57.5 24t76.5 9q97 0 148.5 -33.5t51.5 -103.5q0 -81 -58 -117t-170 -36q-110 0 -171.5 33.5t-68.5 103.5z" />
    <glyph glyph-name="seveneighths" unicode="&#x215e;" horiz-adv-x="1192" 
d="M149 0l570 690h160l-570 -690h-160zM665 121q0 41 24 68t73 38q-42 11 -61.5 35.5t-19.5 56.5q0 34 17 57t47.5 37t72 20t90.5 6t91 -6t72 -20t47 -37t17 -57q0 -32 -19 -56.5t-61 -35.5q48 -11 72.5 -38t24.5 -68q0 -74 -64 -104.5t-180 -30.5t-179.5 30.5t-63.5 104.5z
M999 304v6q0 21 -21 30t-70 9q-48 0 -69 -9t-21 -30v-6q0 -20 21 -29t69 -9q47 0 69 9t22 29zM1010 118v10q0 24 -25 34t-77 10t-76.5 -10t-24.5 -33v-10q0 -23 25 -33t76 -10t76.5 9.5t25.5 32.5zM31 583v107h432v-89l-222 -336h-151l213 318h-272z" />
    <glyph glyph-name="minus" unicode="&#x2212;" horiz-adv-x="728" 
d="M56 432h616v-150h-616v150z" />
    <glyph glyph-name="approxequal" unicode="&#x2248;" horiz-adv-x="739" 
d="M238 577q42 0 75.5 -10t61 -22t52.5 -22t51 -10q31 0 45 16.5t14 44.5h145q0 -93 -43 -145t-131 -52q-40 0 -73.5 9.5t-62.5 20.5t-55 20.5t-51 9.5q-34 0 -48.5 -15t-14.5 -40h-145q0 94 45 144.5t135 50.5zM238 331q42 0 75.5 -10t61 -22.5t52.5 -22.5t51 -10
q31 0 45 17t14 44h145q0 -93 -43 -144.5t-131 -51.5q-40 0 -73.5 9t-62.5 20.5t-55 20.5t-51 9q-34 0 -48.5 -14.5t-14.5 -39.5h-145q0 93 45 144t135 51z" />
    <glyph glyph-name="notequal" unicode="&#x2260;" horiz-adv-x="762" 
d="M73 302h194l62 109h-256v150h342l67 118h167l-67 -118h107v-150h-192l-63 -109h255v-150h-340l-67 -118h-168l67 118h-108v150z" />
    <glyph glyph-name="lessequal" unicode="&#x2264;" horiz-adv-x="738" 
d="M58 364v189l616 148v-151l-423 -91l423 -88v-153zM58 183h616v-150h-616v150z" />
    <glyph glyph-name="greaterequal" unicode="&#x2265;" horiz-adv-x="738" 
d="M64 370l432 87l-432 92v152l616 -146v-195l-616 -142v152zM64 183h616v-150h-616v150z" />
    <glyph glyph-name="Pcircle" unicode="&#x24c5;" horiz-adv-x="940" 
d="M52 345q0 84 29 151t82.5 113t131.5 70.5t176 24.5q97 0 175 -24.5t131.5 -70.5t82 -113t28.5 -151t-28.5 -151t-82 -113t-131.5 -70.5t-175 -24.5q-98 0 -176 24.5t-131.5 70.5t-82.5 113t-29 151zM793 318v58q0 61 -23 107.5t-65 78t-101.5 47.5t-132.5 16
q-74 0 -134 -16t-102 -47.5t-65 -78.5t-23 -108v-57q0 -124 87.5 -188.5t236.5 -64.5t235.5 64.5t86.5 188.5zM304 527h228q85 0 118 -36t33 -94q0 -61 -33 -95t-118 -34h-106v-100h-122v359zM562 389v18q0 17 -11.5 25.5t-33.5 8.5h-91v-88h91q22 0 33.5 9.5t11.5 26.5z
" />
    <glyph glyph-name="uniF50A" unicode="&#xf50a;" horiz-adv-x="820" 
d="M30 210h191q7 -48 58 -66t139 -18q94 0 134.5 17.5t40.5 58.5v17q0 36 -31.5 52t-87.5 16h-198v133h198q51 0 76 17t25 45v15q0 37 -36 52t-126 15q-82 0 -129.5 -17t-56.5 -62h-191q10 116 108 167.5t269 51.5q190 0 271.5 -48.5t81.5 -140.5q0 -57 -35 -95.5t-98 -54.5
q72 -15 111 -57t39 -100q0 -110 -86.5 -166t-278.5 -56q-174 0 -276.5 52.5t-111.5 171.5zM345 -224v85q37 0 59 1t33 4t14 8t3 13q0 16 -18.5 20.5t-84.5 4.5v88h115v-33q57 -4 96 -20.5t39 -70.5q0 -50 -44.5 -75t-124.5 -25h-87z" />
    <glyph glyph-name="uniF50B" unicode="&#xf50b;" horiz-adv-x="675" 
d="M21 160h182q6 -34 41.5 -48.5t95.5 -14.5q66 0 93.5 12.5t27.5 40.5v12q0 25 -23 36.5t-70 11.5h-120v103h114q47 0 67 10.5t20 34.5v10q0 25 -24 34.5t-84 9.5q-63 0 -95 -14t-37 -45h-182q4 48 29 81t66 52.5t96.5 28.5t120.5 9q66 0 120 -8.5t91.5 -26t58.5 -44.5
t21 -65q0 -39 -24 -67.5t-84 -41.5q59 -13 89 -44.5t30 -77.5q0 -84 -74 -123.5t-227 -39.5q-149 0 -229 40t-90 134zM260 -224v85q37 0 59 1t33 4t14 8t3 13q0 16 -18.5 20.5t-84.5 4.5v88h115v-33q57 -4 96 -20.5t39 -70.5q0 -50 -44.5 -75t-124.5 -25h-87z" />
    <glyph glyph-name="uniF53E" unicode="&#xf53e;" horiz-adv-x="861" 
d="M40 344q0 100 27.5 169t79 111.5t126.5 61t169 18.5q173 0 274.5 -56.5t115.5 -196.5h-190q-11 66 -62 87t-138 21q-46 0 -85 -7.5t-67 -26.5t-43.5 -53t-15.5 -87v-80q0 -104 58 -139t153 -35q84 0 135 20.5t66 81.5h190q-16 -134 -117.5 -190.5t-273.5 -56.5
q-94 0 -169 18t-126.5 59t-79 110.5t-27.5 170.5zM352 -222v85q37 0 59 1t33 4t14 8t3 13q0 16 -18.5 20.5t-84.5 4.5v88h115v-33q57 -4 96 -20.5t39 -70.5q0 -50 -44.5 -75t-124.5 -25h-87z" />
    <glyph glyph-name="uniF53F" unicode="&#xf53f;" horiz-adv-x="679" 
d="M36 255q0 149 77 209t237 60q134 0 212.5 -41.5t88.5 -140.5h-181q-7 29 -32.5 44.5t-88.5 15.5q-67 0 -99 -22t-32 -82v-83q0 -63 33 -85.5t98 -22.5q63 0 89 16.5t34 45.5h182q-13 -91 -87 -137t-218 -46q-78 0 -137 13t-98 44t-58.5 83t-19.5 129zM257 -224v85
q37 0 59 1t33 4t14 8t3 13q0 16 -18.5 20.5t-84.5 4.5v88h115v-33q57 -4 96 -20.5t39 -70.5q0 -50 -44.5 -75t-124.5 -25h-87z" />
    <glyph glyph-name="dotlessj" unicode="&#xf6be;" horiz-adv-x="303" 
d="M-54 -69h51q36 0 50.5 17.5t14.5 51.5v510h180v-533q0 -90 -38 -133.5t-139 -43.5h-119v131z" />
    <glyph glyph-name="commaaccent" unicode="&#xf6c3;" horiz-adv-x="329" 
d="M93 -215q40 0 58 8.5t18 27.5h-6q-47 0 -73 14.5t-26 49.5t25.5 52.5t76.5 17.5t77 -20t26 -66v-22q0 -72 -41 -102.5t-135 -30.5v71z" />
    <glyph glyph-name="cyrbreve" unicode="&#xf6d4;" horiz-adv-x="455" 
d="M10 767h141q0 -48 18.5 -69t58.5 -21q39 0 57.5 21t18.5 69h141q-2 -93 -54.5 -139.5t-162.5 -46.5t-163 46.5t-55 139.5z" />
    <glyph glyph-name="f_f" unicode="&#xfb00;" horiz-adv-x="845" 
d="M24 510h69v29q0 92 43 141.5t165 49.5h128v-131h-93q-35 0 -49 -15t-14 -49v-25h194v29q0 46 9.5 81.5t33.5 60t64.5 37t101.5 12.5h157v-131h-122q-36 0 -50 -15t-14 -49v-25h186v-131h-186v-379h-180v379h-194v-379h-180v379h-69v131z" />
    <glyph glyph-name="f_i" unicode="&#xfb01;" horiz-adv-x="709" 
d="M24 510h69v29q0 42 9.5 77.5t33 60.5t63.5 39t101 14h347v-131h-311q-35 0 -49 -15t-14 -49v-25h374v-510h-180v379h-194v-379h-180v379h-69v131z" />
    <glyph glyph-name="f_l" unicode="&#xfb02;" horiz-adv-x="709" 
d="M24 510h69v29q0 44 9.5 79.5t33 60t63.5 38t101 13.5h347v-730h-180v379h-194v-379h-180v379h-69v131zM273 540v-30h194v103h-131q-35 0 -49 -17.5t-14 -55.5z" />
    <glyph glyph-name="f_f_i" unicode="&#xfb03;" horiz-adv-x="1083" 
d="M24 510h69v29q0 92 43 141.5t165 49.5h128v-131h-93q-35 0 -49 -15t-14 -49v-25h194v29q0 42 9.5 77.5t33 60.5t63.5 39t101 14h347v-131h-310q-36 0 -50 -15t-14 -49v-25h374v-510h-180v379h-194v-379h-180v379h-194v-379h-180v379h-69v131z" />
    <glyph glyph-name="f_f_l" unicode="&#xfb04;" horiz-adv-x="1083" 
d="M24 510h69v29q0 92 43 141.5t165 49.5h128v-131h-93q-35 0 -49 -15t-14 -49v-25h194v29q0 44 9.5 79.5t33 60t63.5 38t101 13.5h347v-730h-180v379h-194v-379h-180v379h-194v-379h-180v379h-69v131zM647 540v-30h194v103h-130q-36 0 -50 -17.5t-14 -55.5z" />
    <glyph glyph-name="zerowidthnobreak" unicode="&#xfeff;" horiz-adv-x="0" 
 />
    <glyph glyph-name="f_b" horiz-adv-x="1161" 
d="M24 510h69v29q0 44 9.5 79.5t33 60t63.5 38t101 13.5h347v-293q31 45 84.5 66t128.5 21q124 0 195 -63.5t71 -206.5q0 -142 -71 -205t-195 -63q-77 0 -131.5 22t-85.5 69v-77h-176v379h-194v-379h-180v379h-69v131zM273 540v-30h194v103h-131q-35 0 -49 -17.5t-14 -55.5z
M943 217v76q0 60 -37 84.5t-110 24.5q-76 0 -112.5 -24.5t-36.5 -84.5v-76q0 -62 37 -86t112 -24q73 0 110 24t37 86z" />
    <glyph glyph-name="f_f_b" horiz-adv-x="1535" 
d="M24 510h69v29q0 92 43 141.5t165 49.5h128v-131h-93q-35 0 -49 -15t-14 -49v-25h194v29q0 44 9.5 79.5t33 60t63.5 38t101 13.5h347v-294q31 46 85 67t128 21q124 0 195 -63.5t71 -206.5q0 -142 -71 -205t-195 -63q-77 0 -131.5 22t-85.5 70v-78h-176v379h-194v-379h-180
v379h-194v-379h-180v379h-69v131zM647 540v-30h194v103h-130q-36 0 -50 -17.5t-14 -55.5zM1318 217v76q0 60 -37.5 84.5t-110.5 24.5q-75 0 -112 -24.5t-37 -84.5v-76q0 -62 37 -86t112 -24q74 0 111 24t37 86z" />
    <glyph glyph-name="f_f_h" horiz-adv-x="1510" 
d="M24 510h69v29q0 92 43 141.5t165 49.5h128v-131h-93q-35 0 -49 -15t-14 -49v-25h194v29q0 44 9.5 79.5t33 60t63.5 38t101 13.5h347v-299q27 48 83.5 70.5t126.5 22.5q107 0 164.5 -45.5t57.5 -149.5v-329h-180v311q0 51 -31.5 70.5t-91.5 19.5q-58 0 -93.5 -20.5
t-35.5 -69.5v-311h-180v379h-194v-379h-180v379h-194v-379h-180v379h-69v131zM647 540v-30h194v103h-130q-36 0 -50 -17.5t-14 -55.5z" />
    <glyph glyph-name="f_f_j" horiz-adv-x="1083" 
d="M24 510h69v29q0 92 43 141.5t165 49.5h128v-131h-93q-35 0 -49 -15t-14 -49v-25h194v29q0 42 9.5 77.5t33 60.5t63.5 39t101 14h347v-131h-310q-36 0 -50 -15t-14 -49v-25h374v-533q0 -90 -38 -133.5t-139 -43.5h-118v131h51q36 0 50 17.5t14 51.5v379h-194v-379h-180
v379h-194v-379h-180v379h-69v131z" />
    <glyph glyph-name="f_f_k" horiz-adv-x="1467" 
d="M24 510h69v29q0 92 43 141.5t165 49.5h128v-131h-93q-35 0 -49 -15t-14 -49v-25h194v29q0 44 9.5 79.5t33 60t63.5 38t101 13.5h347v-409h61l173 189h201l-222 -242l248 -268h-222l-176 190h-63v-190h-180v379h-194v-379h-180v379h-194v-379h-180v379h-69v131zM647 540
v-30h194v103h-130q-36 0 -50 -17.5t-14 -55.5z" />
    <glyph glyph-name="f_h" horiz-adv-x="1136" 
d="M24 510h69v29q0 44 9.5 79.5t33 60t63.5 38t101 13.5h347v-299q27 48 83.5 70.5t126.5 22.5q107 0 164.5 -45.5t57.5 -149.5v-329h-180v311q0 51 -31.5 70.5t-91.5 19.5q-58 0 -93.5 -20.5t-35.5 -69.5v-311h-180v379h-194v-379h-180v379h-69v131zM273 540v-30h194v103
h-131q-35 0 -49 -17.5t-14 -55.5z" />
    <glyph glyph-name="f_j" horiz-adv-x="709" 
d="M352 -69h51q36 0 50 17.5t14 51.5v379h-194v-379h-180v379h-69v131h69v29q0 42 9.5 77.5t33 60.5t63.5 39t101 14h347v-131h-311q-35 0 -49 -15t-14 -49v-25h374v-533q0 -90 -38 -133.5t-139 -43.5h-118v131z" />
    <glyph glyph-name="f_k" horiz-adv-x="1093" 
d="M24 510h69v29q0 44 9.5 79.5t33 60t63.5 38t101 13.5h347v-409h61l173 189h201l-222 -242l248 -268h-222l-176 190h-63v-190h-180v379h-194v-379h-180v379h-69v131zM273 540v-30h194v103h-131q-35 0 -49 -17.5t-14 -55.5z" />
    <glyph glyph-name="acute.ucpl" horiz-adv-x="240" 
d="M6 758l57 166h171l-89 -166h-139z" />
    <glyph glyph-name="hyphen.uc" horiz-adv-x="480" 
d="M58 432h364v-155h-364v155z" />
    <glyph glyph-name="uni2010.uc" horiz-adv-x="480" 
d="M58 432h364v-155h-364v155z" />
    <glyph glyph-name="uni2011.uc" horiz-adv-x="480" 
d="M58 432h364v-155h-364v155z" />
    <glyph glyph-name="endash.uc" horiz-adv-x="773" 
d="M59 416h655v-132h-655v132z" />
    <glyph glyph-name="emdash.uc" horiz-adv-x="1043" 
d="M59 417h925v-132h-925v132z" />
    <glyph glyph-name="uni2015.uc" horiz-adv-x="1043" 
d="M59 417h925v-132h-925v132z" />
    <glyph glyph-name="parenleft.uc" horiz-adv-x="474" 
d="M41 345q0 123 29.5 211t82.5 145.5t127.5 87t164.5 36.5v-140q-106 -13 -164.5 -84.5t-58.5 -190.5v-129q0 -121 58.5 -192t164.5 -84v-140q-91 7 -165.5 36.5t-127.5 87t-82 146t-29 210.5z" />
    <glyph glyph-name="parenright.uc" horiz-adv-x="474" 
d="M433 346q0 -123 -29.5 -211t-82.5 -145.5t-127.5 -87t-164.5 -36.5v140q106 13 164.5 84.5t58.5 190.5v129q0 121 -58.5 192t-164.5 84v140q91 -7 165.5 -36.5t127.5 -87t82 -146t29 -210.5z" />
    <glyph glyph-name="bracketleft.uc" horiz-adv-x="477" 
d="M75 822h375v-131h-206v-688h206v-131h-375v950z" />
    <glyph glyph-name="bracketright.uc" horiz-adv-x="477" 
d="M402 -128h-375v131h206v688h-206v131h375v-950z" />
    <glyph glyph-name="braceleft.uc" horiz-adv-x="491" 
d="M126 28v141q0 50 -25.5 79t-84.5 30v137q59 1 84.5 31.5t25.5 77.5v140q0 83 38 120t130 37h170v-131h-117q-35 0 -46.5 -16.5t-11.5 -47.5v-124q0 -28 -3 -53t-14 -45t-33 -35t-59 -23q37 -6 59 -20t33 -33.5t14 -45t3 -54.5v-126q0 -32 11.5 -48.5t46.5 -16.5h117v-131
h-171q-92 0 -129.5 37t-37.5 120z" />
    <glyph glyph-name="braceright.uc" horiz-adv-x="491" 
d="M366 665v-141q0 -50 25.5 -79t84.5 -30v-137q-59 -1 -84.5 -31.5t-25.5 -77.5v-140q0 -83 -38 -120t-130 -37h-170v131h117q35 0 46.5 16.5t11.5 47.5v124q0 28 3 53t14 45t33 35t59 23q-37 6 -59 20t-33 33.5t-14 45t-3 54.5v126q0 32 -11.5 48.5t-46.5 16.5h-117v131
h171q92 0 129.5 -37t37.5 -120z" />
    <glyph glyph-name="guilsinglleft.uc" horiz-adv-x="391" 
d="M54 290v119l265 178v-149l-138 -86l138 -87v-153z" />
    <glyph glyph-name="guilsinglright.uc" horiz-adv-x="391" 
d="M337 409v-119l-265 -178v149l138 87l-138 86v153z" />
    <glyph glyph-name="guillemotleft.uc" horiz-adv-x="674" 
d="M54 290v119l265 178v-149l-138 -86l138 -87v-153zM337 290v119l265 178v-149l-138 -86l138 -87v-153z" />
    <glyph glyph-name="guillemotright.uc" horiz-adv-x="674" 
d="M619 409v-119l-265 -178v149l138 87l-138 86v153zM336 409v-119l-265 -178v149l138 87l-138 86v153z" />
    <glyph glyph-name="slash.uc" horiz-adv-x="598" 
d="M395 750h184l-375 -810h-184z" />
    <glyph glyph-name="backslash.uc" horiz-adv-x="600" 
d="M395 -60l-376 810h185l375 -810h-184z" />
    <glyph glyph-name="bar.uc" horiz-adv-x="321" 
d="M75 790h171v-890h-171v890z" />
    <glyph glyph-name="at.uc" horiz-adv-x="1205" 
d="M37 348q0 120 40 206t113.5 140.5t179.5 80t237 25.5q132 0 236.5 -24.5t176.5 -75t110 -128.5t38 -183q0 -137 -60.5 -206.5t-178.5 -69.5q-84 0 -133 29t-60 82q-23 -57 -73.5 -84t-127.5 -27q-106 0 -167 55t-61 180q0 123 61 178t167 55q61 0 106 -19t73 -56v57h155
v-245q0 -53 19 -69t53 -16q37 0 57 26.5t20 90.5v56q0 148 -105 211t-306 63q-202 0 -311 -68t-109 -231v-65q0 -87 29.5 -144.5t84 -91t132.5 -47t174 -13.5q30 0 68.5 2.5t77 7t73.5 11.5t57 17v-118q-20 -9 -51 -16.5t-68 -13t-77.5 -8.5t-79.5 -3q-125 0 -230.5 19.5
t-180.5 70t-117 138t-42 221.5zM709 325v44q0 51 -28.5 73t-88.5 22t-88 -22t-28 -73v-45q0 -49 28.5 -71.5t87.5 -22.5q60 0 88.5 22.5t28.5 72.5z" />
    <glyph glyph-name="exclamdown.uc" horiz-adv-x="326" 
d="M60 615q0 46 26.5 67.5t76.5 21.5t76 -21.5t26 -67.5q0 -47 -26 -68t-76 -21t-76.5 21t-26.5 68zM59 0l32 453h144l32 -453h-208z" />
    <glyph glyph-name="questiondown.uc" horiz-adv-x="731" 
d="M487 615q0 -47 -26.5 -68t-76.5 -21t-76 21t-26 68q0 46 26 67.5t76 21.5t76.5 -21.5t26.5 -67.5zM227 199v-16q0 -31 31.5 -44t105.5 -13q63 0 104 17t46 68h190q-2 -63 -27.5 -106.5t-70 -69.5t-106.5 -37.5t-137 -11.5q-163 0 -245.5 47.5t-82.5 147.5q0 76 42 109.5
t92.5 52t92.5 36t42 62.5v15h167v-16q0 -78 -38 -114t-84 -53.5t-84 -30t-38 -43.5z" />
    <glyph glyph-name="acute.uc" horiz-adv-x="362" 
d="M6 758l158 166h193l-191 -166h-160z" />
    <glyph glyph-name="grave.uc" horiz-adv-x="367" 
d="M194 758l-188 166h198l157 -166h-167z" />
    <glyph glyph-name="hungarumlaut.uc" horiz-adv-x="516" 
d="M6 758l85 166h167l-117 -166h-135zM216 758l120 166h175l-153 -166h-142z" />
    <glyph glyph-name="circumflex.uc" horiz-adv-x="553" 
d="M4 758l185 166h175l186 -166h-179l-98 80l-97 -80h-172z" />
    <glyph glyph-name="caron.uc" horiz-adv-x="553" 
d="M4 924h179l97 -80l97 80h173l-186 -166h-174z" />
    <glyph glyph-name="breve.uc" horiz-adv-x="483" 
d="M13 924h136q3 -37 24.5 -53t67.5 -16t68 16t25 53h136q-3 -87 -59 -131t-170 -44q-113 0 -169.5 44t-58.5 131z" />
    <glyph glyph-name="tilde.uc" horiz-adv-x="463" 
d="M135 926q35 0 59 -8.5t42.5 -19t34.5 -19t34 -8.5q17 0 26.5 14t9.5 37h116q0 -79 -31.5 -122.5t-91.5 -43.5q-36 0 -61.5 9t-44.5 19t-35 19t-32 9q-18 0 -28 -13.5t-10 -38.5h-116q0 78 31 122t97 44z" />
    <glyph glyph-name="macron.uc" horiz-adv-x="420" 
d="M13 785v112h393v-112h-393z" />
    <glyph glyph-name="dieresis.uc" horiz-adv-x="493" 
d="M16 832q0 41 22.5 62t68.5 21t68 -21t22 -62t-22 -62t-68 -21t-68.5 21t-22.5 62zM296 832q0 41 22.5 62t67.5 21q46 0 68.5 -21t22.5 -62t-22.5 -62t-68.5 -21q-45 0 -67.5 21t-22.5 62z" />
    <glyph glyph-name="dotaccent.uc" horiz-adv-x="217" 
d="M12 841q0 41 24 61.5t73 20.5t72.5 -20.5t23.5 -61.5q0 -42 -23.5 -62.5t-72.5 -20.5t-73 20.5t-24 62.5z" />
    <glyph glyph-name="ring.uc" horiz-adv-x="373" 
d="M9 841q0 49 39 73.5t138 24.5t138.5 -24.5t39.5 -73.5q0 -50 -39.5 -74t-138.5 -24t-138 24t-39 74zM187 815q47 0 60 6.5t13 19.5t-13 19.5t-60 6.5q-48 0 -61 -6.5t-13 -19.5t13 -19.5t61 -6.5z" />
    <glyph glyph-name="uni00AD.uc" horiz-adv-x="480" 
d="M58 432h364v-155h-364v155z" />
    <glyph glyph-name="cyrbreve.uc" horiz-adv-x="514" 
d="M22 915h150q3 -41 23 -57.5t60 -16.5t60 16.5t22 57.5h151q-3 -87 -60 -131t-173 -44t-173.5 44t-59.5 131z" />
    <glyph glyph-name="zero.den" horiz-adv-x="581" 
d="M290 -14q-55 0 -102 12t-80.5 38.5t-53 70.5t-19.5 107t19.5 106.5t53 69.5t80.5 37.5t102 11.5t102.5 -11.5t81 -37.5t53 -69.5t19.5 -106.5t-19.5 -107t-53 -70.5t-81 -38.5t-102.5 -12zM291 94q54 0 83.5 22t29.5 72v49q0 53 -29.5 73.5t-83.5 20.5t-84 -21t-30 -73
v-49q0 -51 30 -72.5t84 -21.5z" />
    <glyph glyph-name="one.den" horiz-adv-x="347" 
d="M26 347l121 78h141v-425h-141v299l-121 -79v127z" />
    <glyph glyph-name="two.den" horiz-adv-x="519" 
d="M35 59q0 81 47.5 116.5t104 51.5t104 25.5t47.5 39.5v7q0 21 -19.5 29t-53.5 8q-38 0 -59 -11t-26 -34h-142q6 78 65.5 113t159.5 35q97 0 157 -30t60 -105q0 -65 -44 -92t-98 -40t-102.5 -24.5t-57.5 -43.5h300v-104h-443v59z" />
    <glyph glyph-name="three.den" horiz-adv-x="527" 
d="M28 130h141q7 -22 29 -32t69 -10q41 0 61 8.5t20 28.5v9q0 20 -23 27.5t-69 7.5h-54v94h54q42 0 60 8.5t18 25.5v7q0 18 -17 25.5t-54 7.5t-59 -9.5t-26 -29.5h-140q6 75 67.5 108t159.5 33q97 0 155 -27.5t58 -88.5q0 -38 -23 -63t-66 -37q48 -10 76 -34t28 -67
q0 -71 -59.5 -103.5t-166.5 -32.5q-108 0 -171 32.5t-68 111.5z" />
    <glyph glyph-name="four.den" horiz-adv-x="557" 
d="M25 168l224 257h207v-247h76v-102h-76v-76h-137v76h-294v92zM174 178h145v167z" />
    <glyph glyph-name="five.den" horiz-adv-x="526" 
d="M28 123h145q7 -18 27.5 -27.5t65.5 -9.5q47 0 67 10.5t20 35.5v10q0 26 -21 36.5t-67 10.5q-34 0 -58.5 -7t-37.5 -17l-126 22l21 238h405v-104h-300l-7 -78q21 15 57.5 24t76.5 9q97 0 148.5 -33.5t51.5 -103.5q0 -81 -58 -117t-170 -36q-110 0 -171.5 33.5t-68.5 103.5
z" />
    <glyph glyph-name="six.den" horiz-adv-x="557" 
d="M35 202q0 70 19 116t52 72.5t79 37.5t100 11q110 0 166 -34.5t65 -94.5h-144q-7 15 -28.5 22t-55.5 7q-63 0 -89 -23t-26 -79v-7q22 25 60 36t87 11q98 0 152 -31.5t54 -109.5q0 -79 -62.5 -114.5t-179.5 -35.5q-59 0 -106 10t-78.5 34t-48 66t-16.5 106zM381 130v13
q0 28 -25 38t-74 10q-55 0 -77.5 -11.5t-22.5 -40.5q0 -30 22.5 -43t77.5 -13q50 0 74.5 10.5t24.5 36.5z" />
    <glyph glyph-name="seven.den" horiz-adv-x="471" 
d="M21 318v107h432v-89l-222 -336h-151l213 318h-272z" />
    <glyph glyph-name="eight.den" horiz-adv-x="554" 
d="M34 121q0 41 24 68t73 38q-42 11 -61.5 35.5t-19.5 56.5q0 34 17 57t47.5 37t72 20t90.5 6t91 -6t72 -20t47 -37t17 -57q0 -32 -19 -56.5t-61 -35.5q48 -11 72.5 -38t24.5 -68q0 -74 -64 -104.5t-180 -30.5t-179.5 30.5t-63.5 104.5zM368 304v6q0 21 -21 30t-70 9
q-48 0 -69 -9t-21 -30v-6q0 -20 21 -29t69 -9q47 0 69 9t22 29zM379 118v10q0 24 -25 34t-77 10t-76.5 -10t-24.5 -33v-10q0 -23 25 -33t76 -10t76.5 9.5t25.5 32.5z" />
    <glyph glyph-name="nine.den" horiz-adv-x="557" 
d="M522 223q0 -70 -19 -116t-52 -72.5t-79 -37.5t-100 -11q-110 0 -166 34.5t-65 94.5h144q7 -15 28.5 -22t55.5 -7q63 0 89 23t26 79v7q-22 -25 -60 -36t-87 -11q-98 0 -152 31.5t-54 109.5q0 79 62.5 114.5t179.5 35.5q59 0 106 -10t78.5 -34t48 -66t16.5 -106zM176 295
v-13q0 -28 25 -38t74 -10q55 0 77.5 11.5t22.5 40.5q0 30 -22.5 43t-77.5 13q-50 0 -74.5 -10.5t-24.5 -36.5z" />
    <glyph glyph-name="zero.num" horiz-adv-x="580" 
d="M290 251q-55 0 -102 12t-80.5 38.5t-53 70.5t-19.5 107t19.5 106.5t53 69.5t80.5 37.5t102 11.5t102.5 -11.5t81 -37.5t53 -69.5t19.5 -106.5t-19.5 -107t-53 -70.5t-81 -38.5t-102.5 -12zM291 359q54 0 83.5 22t29.5 72v49q0 53 -29.5 73.5t-83.5 20.5t-84 -21t-30 -73
v-49q0 -51 30 -72.5t84 -21.5z" />
    <glyph glyph-name="one.num" horiz-adv-x="347" 
d="M26 612l121 78h141v-425h-141v299l-121 -79v127z" />
    <glyph glyph-name="two.num" horiz-adv-x="519" 
d="M35 324q0 81 47.5 116.5t104 51.5t104 25.5t47.5 39.5v7q0 21 -19.5 29t-53.5 8q-38 0 -59 -11t-26 -34h-142q6 78 65.5 113t159.5 35q97 0 157 -30t60 -105q0 -65 -44 -92t-98 -40t-102.5 -24.5t-57.5 -43.5h300v-104h-443v59z" />
    <glyph glyph-name="three.num" horiz-adv-x="527" 
d="M28 395h141q7 -22 29 -32t69 -10q41 0 61 8.5t20 28.5v9q0 20 -23 27.5t-69 7.5h-54v94h54q42 0 60 8.5t18 25.5v7q0 18 -17 25.5t-54 7.5t-59 -9.5t-26 -29.5h-140q6 75 67.5 108t159.5 33q97 0 155 -27.5t58 -88.5q0 -38 -23 -63t-66 -37q48 -10 76 -34t28 -67
q0 -71 -59.5 -103.5t-166.5 -32.5q-108 0 -171 32.5t-68 111.5z" />
    <glyph glyph-name="four.num" horiz-adv-x="557" 
d="M25 434l224 257h207v-247h76v-102h-76v-76h-137v76h-294v92zM174 444h145v167z" />
    <glyph glyph-name="five.num" horiz-adv-x="525" 
d="M28 388h145q7 -18 27.5 -27.5t65.5 -9.5q47 0 67 10.5t20 35.5v10q0 26 -21 36.5t-67 10.5q-34 0 -58.5 -7t-37.5 -17l-126 22l21 238h405v-104h-300l-7 -78q21 15 57.5 24t76.5 9q97 0 148.5 -33.5t51.5 -103.5q0 -81 -58 -117t-170 -36q-110 0 -171.5 33.5t-68.5 103.5
z" />
    <glyph glyph-name="six.num" horiz-adv-x="557" 
d="M35 468q0 70 19 116t52 72.5t79 37.5t100 11q110 0 166 -34.5t65 -94.5h-144q-7 15 -28.5 22t-55.5 7q-63 0 -89 -23t-26 -79v-7q22 25 60 36t87 11q98 0 152 -31.5t54 -109.5q0 -79 -62.5 -114.5t-179.5 -35.5q-59 0 -106 10t-78.5 34t-48 66t-16.5 106zM381 396v13
q0 28 -25 38t-74 10q-55 0 -77.5 -11.5t-22.5 -40.5q0 -30 22.5 -43t77.5 -13q50 0 74.5 10.5t24.5 36.5z" />
    <glyph glyph-name="seven.num" horiz-adv-x="470" 
d="M21 583v107h432v-89l-222 -336h-151l213 318h-272z" />
    <glyph glyph-name="eight.num" horiz-adv-x="553" 
d="M34 386q0 41 24 68t73 38q-42 11 -61.5 35.5t-19.5 56.5q0 34 17 57t47.5 37t72 20t90.5 6t91 -6t72 -20t47 -37t17 -57q0 -32 -19 -56.5t-61 -35.5q48 -11 72.5 -38t24.5 -68q0 -74 -64 -104.5t-180 -30.5t-179.5 30.5t-63.5 104.5zM368 569v6q0 21 -21 30t-70 9
q-48 0 -69 -9t-21 -30v-6q0 -20 21 -29t69 -9q47 0 69 9t22 29zM379 383v10q0 24 -25 34t-77 10t-76.5 -10t-24.5 -33v-10q0 -23 25 -33t76 -10t76.5 9.5t25.5 32.5z" />
    <glyph glyph-name="nine.num" horiz-adv-x="556" 
d="M522 488q0 -70 -19 -116t-52 -72.5t-79 -37.5t-100 -11q-110 0 -166 34.5t-65 94.5h144q7 -15 28.5 -22t55.5 -7q63 0 89 23t26 79v7q-22 -25 -60 -36t-87 -11q-98 0 -152 31.5t-54 109.5q0 79 62.5 114.5t179.5 35.5q59 0 106 -10t78.5 -34t48 -66t16.5 -106zM176 560
v-13q0 -28 25 -38t74 -10q55 0 77.5 11.5t22.5 40.5q0 30 -22.5 43t-77.5 13q-50 0 -74.5 -10.5t-24.5 -36.5z" />
    <glyph glyph-name="zero.sub" horiz-adv-x="581" 
d="M290 -98q-55 0 -102 12t-80.5 38.5t-53 70.5t-19.5 107t19.5 106.5t53 69.5t80.5 37.5t102 11.5t102.5 -11.5t81 -37.5t53 -69.5t19.5 -106.5t-19.5 -107t-53 -70.5t-81 -38.5t-102.5 -12zM291 10q54 0 83.5 22t29.5 72v49q0 53 -29.5 73.5t-83.5 20.5t-84 -21t-30 -73
v-49q0 -51 30 -72.5t84 -21.5z" />
    <glyph glyph-name="one.sub" horiz-adv-x="347" 
d="M26 263l121 78h141v-425h-141v299l-121 -79v127z" />
    <glyph glyph-name="two.sub" horiz-adv-x="518" 
d="M35 -25q0 81 47.5 116.5t104 51.5t104 25.5t47.5 39.5v7q0 21 -19.5 29t-53.5 8q-38 0 -59 -11t-26 -34h-142q6 78 65.5 113t159.5 35q97 0 157 -30t60 -105q0 -65 -44 -92t-98 -40t-102.5 -24.5t-57.5 -43.5h300v-104h-443v59z" />
    <glyph glyph-name="three.sub" horiz-adv-x="527" 
d="M28 46h141q7 -22 29 -32t69 -10q41 0 61 8.5t20 28.5v9q0 20 -23 27.5t-69 7.5h-54v94h54q42 0 60 8.5t18 25.5v7q0 18 -17 25.5t-54 7.5t-59 -9.5t-26 -29.5h-140q6 75 67.5 108t159.5 33q97 0 155 -27.5t58 -88.5q0 -38 -23 -63t-66 -37q48 -10 76 -34t28 -67
q0 -71 -59.5 -103.5t-166.5 -32.5q-108 0 -171 32.5t-68 111.5z" />
    <glyph glyph-name="four.sub" horiz-adv-x="556" 
d="M25 84l224 257h207v-247h76v-102h-76v-76h-137v76h-294v92zM174 94h145v167z" />
    <glyph glyph-name="five.sub" horiz-adv-x="526" 
d="M28 39h145q7 -18 27.5 -27.5t65.5 -9.5q47 0 67 10.5t20 35.5v10q0 26 -21 36.5t-67 10.5q-34 0 -58.5 -7t-37.5 -17l-126 22l21 238h405v-104h-300l-7 -78q21 15 57.5 24t76.5 9q97 0 148.5 -33.5t51.5 -103.5q0 -81 -58 -117t-170 -36q-110 0 -171.5 33.5t-68.5 103.5z
" />
    <glyph glyph-name="six.sub" horiz-adv-x="557" 
d="M35 118q0 70 19 116t52 72.5t79 37.5t100 11q110 0 166 -34.5t65 -94.5h-144q-7 15 -28.5 22t-55.5 7q-63 0 -89 -23t-26 -79v-7q22 25 60 36t87 11q98 0 152 -31.5t54 -109.5q0 -79 -62.5 -114.5t-179.5 -35.5q-59 0 -106 10t-78.5 34t-48 66t-16.5 106zM381 46v13
q0 28 -25 38t-74 10q-55 0 -77.5 -11.5t-22.5 -40.5q0 -30 22.5 -43t77.5 -13q50 0 74.5 10.5t24.5 36.5z" />
    <glyph glyph-name="seven.sub" horiz-adv-x="470" 
d="M21 234v107h432v-89l-222 -336h-151l213 318h-272z" />
    <glyph glyph-name="eight.sub" horiz-adv-x="554" 
d="M34 37q0 41 24 68t73 38q-42 11 -61.5 35.5t-19.5 56.5q0 34 17 57t47.5 37t72 20t90.5 6t91 -6t72 -20t47 -37t17 -57q0 -32 -19 -56.5t-61 -35.5q48 -11 72.5 -38t24.5 -68q0 -74 -64 -104.5t-180 -30.5t-179.5 30.5t-63.5 104.5zM368 220v6q0 21 -21 30t-70 9
q-48 0 -69 -9t-21 -30v-6q0 -20 21 -29t69 -9q47 0 69 9t22 29zM379 34v10q0 24 -25 34t-77 10t-76.5 -10t-24.5 -33v-10q0 -23 25 -33t76 -10t76.5 9.5t25.5 32.5z" />
    <glyph glyph-name="nine.sub" horiz-adv-x="557" 
d="M522 138q0 -70 -19 -116t-52 -72.5t-79 -37.5t-100 -11q-110 0 -166 34.5t-65 94.5h144q7 -15 28.5 -22t55.5 -7q63 0 89 23t26 79v7q-22 -25 -60 -36t-87 -11q-98 0 -152 31.5t-54 109.5q0 79 62.5 114.5t179.5 35.5q59 0 106 -10t78.5 -34t48 -66t16.5 -106zM176 210
v-13q0 -28 25 -38t74 -10q55 0 77.5 11.5t22.5 40.5q0 30 -22.5 43t-77.5 13q-50 0 -74.5 -10.5t-24.5 -36.5z" />
    <glyph glyph-name="zero.sup" horiz-adv-x="581" 
d="M290 361q-55 0 -102 12t-80.5 38.5t-53 70.5t-19.5 107t19.5 106.5t53 69.5t80.5 37.5t102 11.5t102.5 -11.5t81 -37.5t53 -69.5t19.5 -106.5t-19.5 -107t-53 -70.5t-81 -38.5t-102.5 -12zM291 469q54 0 83.5 22t29.5 72v49q0 53 -29.5 73.5t-83.5 20.5t-84 -21t-30 -73
v-49q0 -51 30 -72.5t84 -21.5z" />
    <glyph glyph-name="one.sup" horiz-adv-x="347" 
d="M26 722l121 78h141v-425h-141v299l-121 -79v127z" />
    <glyph glyph-name="two.sup" horiz-adv-x="519" 
d="M35 434q0 81 47.5 116.5t104 51.5t104 25.5t47.5 39.5v7q0 21 -19.5 29t-53.5 8q-38 0 -59 -11t-26 -34h-142q6 78 65.5 113t159.5 35q97 0 157 -30t60 -105q0 -65 -44 -92t-98 -40t-102.5 -24.5t-57.5 -43.5h300v-104h-443v59z" />
    <glyph glyph-name="three.sup" horiz-adv-x="527" 
d="M28 505h141q7 -22 29 -32t69 -10q41 0 61 8.5t20 28.5v9q0 20 -23 27.5t-69 7.5h-54v94h54q42 0 60 8.5t18 25.5v7q0 18 -17 25.5t-54 7.5t-59 -9.5t-26 -29.5h-140q6 75 67.5 108t159.5 33q97 0 155 -27.5t58 -88.5q0 -38 -23 -63t-66 -37q48 -10 76 -34t28 -67
q0 -71 -59.5 -103.5t-166.5 -32.5q-108 0 -171 32.5t-68 111.5z" />
    <glyph glyph-name="four.sup" horiz-adv-x="557" 
d="M25 543l224 257h207v-247h76v-102h-76v-76h-137v76h-294v92zM174 553h145v167z" />
    <glyph glyph-name="five.sup" horiz-adv-x="526" 
d="M28 498h145q7 -18 27.5 -27.5t65.5 -9.5q47 0 67 10.5t20 35.5v10q0 26 -21 36.5t-67 10.5q-34 0 -58.5 -7t-37.5 -17l-126 22l21 238h405v-104h-300l-7 -78q21 15 57.5 24t76.5 9q97 0 148.5 -33.5t51.5 -103.5q0 -81 -58 -117t-170 -36q-110 0 -171.5 33.5t-68.5 103.5
z" />
    <glyph glyph-name="six.sup" horiz-adv-x="557" 
d="M35 578q0 70 19 116t52 72.5t79 37.5t100 11q110 0 166 -34.5t65 -94.5h-144q-7 15 -28.5 22t-55.5 7q-63 0 -89 -23t-26 -79v-7q22 25 60 36t87 11q98 0 152 -31.5t54 -109.5q0 -79 -62.5 -114.5t-179.5 -35.5q-59 0 -106 10t-78.5 34t-48 66t-16.5 106zM381 506v13
q0 28 -25 38t-74 10q-55 0 -77.5 -11.5t-22.5 -40.5q0 -30 22.5 -43t77.5 -13q50 0 74.5 10.5t24.5 36.5z" />
    <glyph glyph-name="seven.sup" horiz-adv-x="471" 
d="M21 693v107h432v-89l-222 -336h-151l213 318h-272z" />
    <glyph glyph-name="eight.sup" horiz-adv-x="554" 
d="M34 496q0 41 24 68t73 38q-42 11 -61.5 35.5t-19.5 56.5q0 34 17 57t47.5 37t72 20t90.5 6t91 -6t72 -20t47 -37t17 -57q0 -32 -19 -56.5t-61 -35.5q48 -11 72.5 -38t24.5 -68q0 -74 -64 -104.5t-180 -30.5t-179.5 30.5t-63.5 104.5zM368 679v6q0 21 -21 30t-70 9
q-48 0 -69 -9t-21 -30v-6q0 -20 21 -29t69 -9q47 0 69 9t22 29zM379 493v10q0 24 -25 34t-77 10t-76.5 -10t-24.5 -33v-10q0 -23 25 -33t76 -10t76.5 9.5t25.5 32.5z" />
    <glyph glyph-name="nine.sup" horiz-adv-x="557" 
d="M522 598q0 -70 -19 -116t-52 -72.5t-79 -37.5t-100 -11q-110 0 -166 34.5t-65 94.5h144q7 -15 28.5 -22t55.5 -7q63 0 89 23t26 79v7q-22 -25 -60 -36t-87 -11q-98 0 -152 31.5t-54 109.5q0 79 62.5 114.5t179.5 35.5q59 0 106 -10t78.5 -34t48 -66t16.5 -106zM176 670
v-13q0 -28 25 -38t74 -10q55 0 77.5 11.5t22.5 40.5q0 30 -22.5 43t-77.5 13q-50 0 -74.5 -10.5t-24.5 -36.5z" />
    <glyph glyph-name="three.tab.alt" 
d="M52 204h194q10 -38 45.5 -57t108.5 -19q72 0 107.5 18.5t35.5 62.5v17q0 40 -34.5 59t-112.5 19h-107v110l176 126h-360v150h582v-130l-196 -144q117 -10 175 -57.5t58 -141.5q0 -118 -82 -174.5t-242 -56.5q-159 0 -248 51.5t-100 166.5z" />
    <glyph glyph-name="four.tab.alt" 
d="M47 273l295 417h190l-281 -399h195v164h181v-164h114v-140h-114v-151h-181v151h-399v122z" />
    <glyph glyph-name="afii10021.bgr" horiz-adv-x="968" 
d="M22 -150v303h87l251 537h258l237 -537h89v-303h-176v150h-570v-150h-176zM291 153h369l-180 411z" />
    <glyph glyph-name="afii10024.bgr" horiz-adv-x="1224" 
d="M515 690h188v-265h60l239 265h211l-292 -324l313 -366h-232l-236 272h-63v-272h-188v272h-63l-236 -272h-226l308 360l-299 330h218l239 -265h59v265z" />
    <glyph glyph-name="afii10028.bgr" horiz-adv-x="815" 
d="M71 690h188v-262h79l252 262h222l-315 -328l334 -362h-239l-257 275h-76v-275h-188v690z" />
    <glyph glyph-name="afii10029.bgr" horiz-adv-x="844" 
d="M295 690h258l291 -690h-202l-225 541l-228 -541h-189z" />
    <glyph glyph-name="afii10067.bgr" horiz-adv-x="719" 
d="M54 230v262q0 55 17 101t54.5 79t97.5 51.5t145 18.5q157 0 230 -52t73 -153q0 -60 -32 -102.5t-98 -56.5q70 -13 107.5 -58t37.5 -114q0 -104 -79.5 -162t-237.5 -58q-160 0 -237.5 55t-77.5 189zM495 509v16q0 44 -29.5 65t-99.5 21q-73 0 -102.5 -28.5t-29.5 -87.5
v-72h138q62 0 92.5 20t30.5 66zM503 195v21q0 49 -28.5 69.5t-102.5 20.5h-138v-86q0 -59 30 -84.5t103 -25.5q72 0 104 21t32 64z" />
    <glyph glyph-name="afii10068.bgr" horiz-adv-x="671" 
d="M29 155q0 89 66.5 119t146 37.5t146 12t66.5 44.5q0 25 -29 35.5t-83 10.5q-51 0 -81 -11.5t-36 -44.5h-182q7 87 81.5 126.5t217.5 39.5q134 0 212 -38.5t78 -120.5q0 -88 -66.5 -117.5t-146 -37t-146 -13.5t-66.5 -47q0 -29 29.5 -41.5t93.5 -12.5q57 0 89 15.5
t39 57.5h182q-8 -101 -86 -141.5t-220 -40.5q-146 0 -225.5 39t-79.5 129z" />
    <glyph glyph-name="afii10069.bgr" horiz-adv-x="757" 
d="M57 -42h185q17 -29 47.5 -41.5t87.5 -12.5q75 0 107 27t32 108v38q-31 -41 -82.5 -60t-122.5 -19q-128 0 -201 60.5t-73 198.5q0 141 72.5 204t201.5 63q73 0 126 -21.5t84 -67.5v75h177v-468q0 -137 -82 -196.5t-242 -59.5q-149 0 -225.5 46t-91.5 126zM516 229v63
q0 62 -35 86t-113 24t-113.5 -25t-35.5 -86v-65q0 -58 36 -82.5t113 -24.5q78 0 113 24.5t35 85.5z" />
    <glyph glyph-name="afii10072.bgr" horiz-adv-x="981" 
d="M400 730h180v-410h50l147 190h187l-187 -241l208 -269h-205l-147 190h-53v-190h-180v190h-53l-149 -190h-202l204 262l-191 248h194l147 -190h50v410z" />
    <glyph glyph-name="afii10073.bgr" horiz-adv-x="656" 
d="M17 -8h180q10 -43 38 -62.5t88 -19.5q63 0 92 21.5t29 70.5v19q0 39 -26 62.5t-83 23.5h-118v123h113q57 0 80 18.5t23 52.5v24q0 42 -27.5 58.5t-79.5 16.5q-57 0 -85 -16.5t-35 -54.5h-180q5 56 29.5 93.5t63.5 60t91 32t113 9.5q62 0 115.5 -10.5t92 -33.5t60.5 -59.5
t22 -88.5q0 -57 -30.5 -97t-92.5 -57q71 -16 102.5 -61t31.5 -105q0 -117 -80.5 -171.5t-219.5 -54.5q-143 0 -217 49.5t-90 156.5z" />
    <glyph glyph-name="afii10074.bgr" horiz-adv-x="730" 
d="M57 184v326h180v-312q0 -51 31 -70t92 -19q55 0 92 20t37 71v310h180v-510h-176v86q-25 -51 -83 -75.5t-131 -24.5q-104 0 -163 44t-59 154z" />
    <glyph glyph-name="afii10075.bgr" horiz-adv-x="730" 
d="M57 184v326h180v-312q0 -51 31 -70t92 -19q55 0 92 20t37 71v310h180v-510h-176v86q-25 -51 -83 -75.5t-131 -24.5q-104 0 -163 44t-59 154zM145 767h141q0 -48 18.5 -69t58.5 -21q39 0 57.5 21t18.5 69h141q-2 -93 -54.5 -139.5t-162.5 -46.5t-163 46.5t-55 139.5z" />
    <glyph glyph-name="afii10076.bgr" horiz-adv-x="688" 
d="M476 510h200l-221 -242l247 -268h-221l-177 190h-62v-190h-180v730h180v-409h61z" />
    <glyph glyph-name="afii10077.bgr" horiz-adv-x="670" 
d="M3 0l226 510h210l229 -510h-185l-157 357l-154 -357h-169z" />
    <glyph glyph-name="afii10079.bgr" horiz-adv-x="731" 
d="M62 510h180v-188h248v188h179v-510h-179v191h-248v-191h-180v510z" />
    <glyph glyph-name="afii10081.bgr" horiz-adv-x="730" 
d="M494 0v311q0 51 -32 70.5t-92 19.5q-57 0 -92.5 -20.5t-35.5 -69.5v-311h-180v510h175v-88q25 52 83 77t131 25q108 0 165.5 -45.5t57.5 -149.5v-329h-180z" />
    <glyph glyph-name="afii10084.bgr" horiz-adv-x="1081" 
d="M453 0v312q0 52 -26.5 70.5t-76.5 18.5q-49 0 -78.5 -19.5t-29.5 -70.5v-311h-180v510h175v-84q23 49 74.5 73.5t117.5 24.5q69 0 117 -23.5t70 -77.5q24 50 78.5 75.5t126.5 25.5q100 0 151.5 -47t51.5 -151v-326h-180v312q0 52 -26.5 70.5t-77.5 18.5
q-48 0 -77.5 -19.5t-29.5 -71.5v-310h-180z" />
    <glyph glyph-name="afii10088.bgr" horiz-adv-x="773" 
d="M57 184v326h180v-312q0 -51 31 -70t92 -19q55 0 92 20t37 71v310h180v-379h84v-271h-168v140h-92v87q-25 -51 -83.5 -76t-130.5 -25q-104 0 -163 44t-59 154z" />
    <glyph glyph-name="afii10089.bgr" horiz-adv-x="687" 
d="M446 177q-31 -4 -70.5 -6.5t-76.5 -2.5q-140 0 -203.5 49t-63.5 177v116h180v-107q0 -63 30.5 -84t104.5 -21q25 0 52.5 2t46.5 5v205h180v-510h-180v177z" />
    <glyph glyph-name="afii10090.bgr" horiz-adv-x="1081" 
d="M57 184v326h180v-312q0 -52 26.5 -70.5t77.5 -18.5q48 0 77.5 19.5t29.5 71.5v310h180v-312q0 -52 26.5 -70.5t77.5 -18.5q49 0 78 19.5t29 70.5v311h180v-510h-176v83q-23 -48 -73.5 -72.5t-115.5 -24.5q-69 0 -117.5 24t-70.5 78q-23 -50 -77.5 -76t-126.5 -26
q-99 0 -152 48.5t-53 149.5z" />
    <glyph glyph-name="afii10091.bgr" horiz-adv-x="1123" 
d="M57 184v326h180v-312q0 -52 26.5 -70.5t77.5 -18.5q48 0 77.5 19.5t29.5 71.5v310h180v-312q0 -52 26.5 -70.5t77.5 -18.5q49 0 78 19.5t29 70.5v311h180v-379h84v-271h-168v140h-92v83q-23 -48 -73.5 -72.5t-115.5 -24.5q-69 0 -117.5 24t-70.5 78q-23 -50 -77.5 -76
t-126.5 -26q-99 0 -152 48.5t-53 149.5z" />
    <glyph glyph-name="afii10092.bgr" horiz-adv-x="768" 
d="M155 194v185h-143v131h323v-138h165q123 0 186 -47t63 -140q0 -98 -75 -148.5t-220 -50.5q-146 0 -222.5 48.5t-76.5 159.5zM565 174v19q0 34 -25 48.5t-83 14.5h-122v-67q0 -42 26 -60.5t94 -18.5q58 0 84 15.5t26 48.5z" />
    <glyph glyph-name="afii10094.bgr" horiz-adv-x="669" 
d="M56 194v316h180v-138h165q122 0 185 -47t63 -140q0 -98 -75 -148.5t-219 -50.5q-147 0 -223 48.5t-76 159.5zM465 173v22q0 34 -25 47.5t-83 13.5h-121v-70q0 -40 25.5 -58t92.5 -18q60 0 85.5 15.5t25.5 47.5z" />
    <glyph glyph-name="afii10096.bgr" horiz-adv-x="998" 
d="M62 730h180v-406h78q18 113 100 156.5t219 43.5q78 0 138.5 -13t101.5 -44t62.5 -83t21.5 -129q0 -78 -21.5 -130t-62.5 -82.5t-101.5 -43.5t-138.5 -13q-140 0 -222.5 45t-98.5 166h-76v-197h-180v730zM780 217v76q0 65 -35.5 87t-105.5 22q-71 0 -106.5 -22t-35.5 -87
v-76q0 -65 35.5 -87t106.5 -22q70 0 105.5 22t35.5 87z" />
    <glyph glyph-name="afii10066.locl" horiz-adv-x="729" 
d="M32 245q0 87 48 136t122 68q-65 15 -106 48.5t-41 90.5q0 70 51 108t173 38q143 0 233.5 2.5t134.5 7.5v-133q-19 -4 -54 -6.5t-81 -4t-102 -2t-117 -0.5q-33 0 -48.5 -8.5t-15.5 -26.5v-4q0 -38 73 -44t160 -22t160 -64t73 -170v-10q0 -141 -83.5 -202t-247.5 -61
q-165 0 -248.5 58t-83.5 201zM512 214v63q0 60 -35.5 83t-112.5 23q-75 0 -112 -22.5t-37 -83.5v-63q0 -60 35 -83.5t114 -23.5q78 0 113 23.5t35 83.5z" />
    <glyph glyph-name="i.dotaccent" horiz-adv-x="303" 
d="M62 510h180v-510h-180v510zM52 663q0 40 26.5 60.5t73.5 20.5q48 0 74 -20.5t26 -60.5q0 -41 -26 -61.5t-74 -20.5q-47 0 -73.5 20.5t-26.5 61.5z" />
    <glyph glyph-name="Cacute.pl" horiz-adv-x="862" 
d="M376 758l57 166h171l-89 -166h-139zM41 344q0 100 27.5 169t79 111.5t126.5 61t169 18.5q173 0 274.5 -56.5t115.5 -196.5h-190q-11 66 -62 87t-138 21q-46 0 -85 -7.5t-67 -26.5t-43.5 -53t-15.5 -87v-80q0 -104 58 -139t153 -35q84 0 135 20.5t66 81.5h190
q-16 -134 -117.5 -190.5t-273.5 -56.5q-94 0 -169 18t-126.5 59t-79 110.5t-27.5 170.5z" />
    <glyph glyph-name="Nacute.pl" horiz-adv-x="897" 
d="M386 758l57 166h171l-89 -166h-139zM569 0l-325 503v-503h-173v690h258l324 -501v501h173v-690h-257z" />
    <glyph glyph-name="Oacute.pl" horiz-adv-x="943" 
d="M41 350q0 100 28.5 168t83 109.5t135 59t184.5 17.5q103 0 183.5 -17.5t135 -59t83 -109.5t28.5 -168q0 -103 -28.5 -173t-83 -112.5t-135 -60.5t-183.5 -18q-104 0 -184.5 18t-135 60.5t-83 112.5t-28.5 173zM712 310v73q0 98 -60.5 137t-179.5 39t-180 -39t-61 -137
v-73q0 -104 61 -141.5t180 -37.5t179.5 37.5t60.5 141.5zM393 758l57 166h171l-89 -166h-139z" />
    <glyph glyph-name="Sacute.pl" horiz-adv-x="812" 
d="M34 215h191q10 -55 55 -73t132 -18q90 0 134.5 17t44.5 61q0 56 -85.5 63.5t-187.5 18t-187.5 49t-85.5 154.5t95 166.5t262 50.5q168 0 260.5 -51t102.5 -168h-191q-7 49 -52 65t-120 16q-89 0 -130.5 -15.5t-41.5 -60.5q0 -53 85.5 -60.5t187.5 -18t187.5 -48
t85.5 -148.5q0 -122 -90 -175.5t-274 -53.5q-188 0 -278 54t-100 175zM336 758l57 166h171l-89 -166h-139z" />
    <glyph glyph-name="Zacute.pl" horiz-adv-x="759" 
d="M42 153l433 386h-429v151h668v-153l-433 -386h437v-151h-676v153zM308 758l57 166h171l-89 -166h-139z" />
    <glyph glyph-name="cacute.pl" horiz-adv-x="679" 
d="M36 255q0 149 77 209t237 60q134 0 212.5 -41.5t88.5 -140.5h-181q-7 29 -32.5 44.5t-88.5 15.5q-67 0 -99 -22t-32 -82v-83q0 -63 33 -85.5t98 -22.5q63 0 89 16.5t34 45.5h182q-13 -91 -87 -137t-218 -46q-78 0 -137 13t-98 44t-58.5 83t-19.5 129zM283 588l42 179h164
l-76 -179h-130z" />
    <glyph glyph-name="nacute.pl" horiz-adv-x="730" 
d="M494 0v311q0 51 -32 70.5t-92 19.5q-57 0 -92.5 -20.5t-35.5 -69.5v-311h-180v510h175v-88q25 52 83 77t131 25q108 0 165.5 -45.5t57.5 -149.5v-329h-180zM308 588l42 179h164l-76 -179h-130z" />
    <glyph glyph-name="oacute.pl" horiz-adv-x="731" 
d="M35 255q0 77 21 129t62.5 83t103.5 44t143 13t143.5 -13t104 -44t62.5 -83t21 -129q0 -78 -21 -130t-62.5 -83t-104 -43.5t-143.5 -12.5t-143 12.5t-103.5 43.5t-62.5 83t-21 130zM514 220v69q0 66 -37 89.5t-112 23.5q-74 0 -111 -23.5t-37 -89.5v-69q0 -65 37 -89
t111 -24q75 0 112 24t37 89zM301 588l42 179h164l-76 -179h-130z" />
    <glyph glyph-name="sacute.pl" horiz-adv-x="668" 
d="M29 163h182q6 -38 38.5 -52.5t90.5 -14.5q64 0 92.5 11.5t28.5 38.5q0 42 -66 47t-145 11.5t-145 36t-66 120.5q0 86 78 124.5t211 38.5q140 0 215.5 -39t82.5 -128h-182q-6 34 -35.5 45.5t-80.5 11.5q-54 0 -82.5 -10.5t-28.5 -35.5q0 -38 66 -42t145 -11.5t145 -38
t66 -121.5q0 -90 -76.5 -129t-222.5 -39t-223.5 39.5t-87.5 136.5zM268 588l42 179h164l-76 -179h-130z" />
    <glyph glyph-name="zacute.pl" horiz-adv-x="618" 
d="M38 130l313 249h-308v131h527v-131l-313 -248h330v-131h-549v130zM247 588l42 179h164l-76 -179h-130z" />
    <glyph glyph-name="acute.pl" horiz-adv-x="216" 
d="M5 588l42 179h164l-76 -179h-130z" />
    <glyph glyph-name="M.alt" horiz-adv-x="1064" 
d="M420 0l-179 537v-537h-170v690h290l169 -517l166 517h297v-690h-188v541l-178 -541h-207z" />
    <glyph glyph-name="afii10030.alt" horiz-adv-x="1064" 
d="M420 0l-179 537v-537h-170v690h290l169 -517l166 517h297v-690h-188v541l-178 -541h-207z" />
    <glyph glyph-name="a.alt" horiz-adv-x="756" 
d="M35 253q0 142 73.5 206.5t198.5 64.5q75 0 128 -24.5t84 -72.5v83h175v-510h-176v83q-31 -47 -84 -72t-127 -25q-127 0 -199.5 63.5t-72.5 203.5zM514 217v76q0 58 -36.5 83.5t-111.5 25.5q-74 0 -111 -24.5t-37 -85.5v-76q0 -61 37 -85t111 -24t111 24t37 86z" />
    <glyph glyph-name="agrave.alt" horiz-adv-x="756" 
d="M35 253q0 142 73.5 206.5t198.5 64.5q75 0 128 -24.5t84 -72.5v83h175v-510h-176v83q-31 -47 -84 -72t-127 -25q-127 0 -199.5 63.5t-72.5 203.5zM514 217v76q0 58 -36.5 83.5t-111.5 25.5q-74 0 -111 -24.5t-37 -85.5v-76q0 -61 37 -85t111 -24t111 24t37 86zM138 767
h189l141 -179h-155z" />
    <glyph glyph-name="aacute.alt" horiz-adv-x="756" 
d="M35 253q0 142 73.5 206.5t198.5 64.5q75 0 128 -24.5t84 -72.5v83h175v-510h-176v83q-31 -47 -84 -72t-127 -25q-127 0 -199.5 63.5t-72.5 203.5zM514 217v76q0 58 -36.5 83.5t-111.5 25.5q-74 0 -111 -24.5t-37 -85.5v-76q0 -61 37 -85t111 -24t111 24t37 86zM296 588
l141 179h184l-175 -179h-150z" />
    <glyph glyph-name="acircumflex.alt" horiz-adv-x="756" 
d="M35 253q0 142 73.5 206.5t198.5 64.5q75 0 128 -24.5t84 -72.5v83h175v-510h-176v83q-31 -47 -84 -72t-127 -25q-127 0 -199.5 63.5t-72.5 203.5zM514 217v76q0 58 -36.5 83.5t-111.5 25.5q-74 0 -111 -24.5t-37 -85.5v-76q0 -61 37 -85t111 -24t111 24t37 86zM138 588
l162 179h167l162 -179h-164l-85 89l-85 -89h-157z" />
    <glyph glyph-name="atilde.alt" horiz-adv-x="756" 
d="M35 253q0 142 73.5 206.5t198.5 64.5q75 0 128 -24.5t84 -72.5v83h175v-510h-176v83q-31 -47 -84 -72t-127 -25q-127 0 -199.5 63.5t-72.5 203.5zM514 217v76q0 58 -36.5 83.5t-111.5 25.5q-74 0 -111 -24.5t-37 -85.5v-76q0 -61 37 -85t111 -24t111 24t37 86zM287 771
q33 0 55.5 -10.5t39.5 -23.5t31.5 -23.5t31.5 -10.5t26.5 17.5t9.5 45.5h111q0 -87 -31 -134.5t-92 -47.5q-34 0 -58 11t-41.5 23.5t-32 23.5t-29.5 11q-18 0 -28 -16.5t-10 -47.5h-111q0 85 31 133.5t97 48.5z" />
    <glyph glyph-name="adieresis.alt" horiz-adv-x="756" 
d="M35 253q0 142 73.5 206.5t198.5 64.5q75 0 128 -24.5t84 -72.5v83h175v-510h-176v83q-31 -47 -84 -72t-127 -25q-127 0 -199.5 63.5t-72.5 203.5zM514 217v76q0 58 -36.5 83.5t-111.5 25.5q-74 0 -111 -24.5t-37 -85.5v-76q0 -61 37 -85t111 -24t111 24t37 86zM160 677
q0 41 22.5 62t68.5 21t68 -21t22 -62t-22 -62t-68 -21t-68.5 21t-22.5 62zM432 677q0 41 22.5 62t68.5 21q45 0 67.5 -21t22.5 -62t-22.5 -62t-67.5 -21q-46 0 -68.5 21t-22.5 62z" />
    <glyph glyph-name="aring.alt" horiz-adv-x="756" 
d="M35 253q0 142 73.5 206.5t198.5 64.5q75 0 128 -24.5t84 -72.5v83h175v-510h-176v83q-31 -47 -84 -72t-127 -25q-127 0 -199.5 63.5t-72.5 203.5zM514 217v76q0 58 -36.5 83.5t-111.5 25.5q-74 0 -111 -24.5t-37 -85.5v-76q0 -61 37 -85t111 -24t111 24t37 86zM206 678
q0 50 39 77.5t124 27.5q87 0 126 -27.5t39 -77.5q0 -51 -39 -78.5t-126 -27.5q-85 0 -124 27.5t-39 78.5zM434 678q0 16 -13.5 24.5t-50.5 8.5t-50.5 -8.5t-13.5 -24.5t13.5 -25t50.5 -9t50.5 9t13.5 25z" />
    <glyph glyph-name="amacron.alt" horiz-adv-x="756" 
d="M35 253q0 142 73.5 206.5t198.5 64.5q75 0 128 -24.5t84 -72.5v83h175v-510h-176v83q-31 -47 -84 -72t-127 -25q-127 0 -199.5 63.5t-72.5 203.5zM514 217v76q0 58 -36.5 83.5t-111.5 25.5q-74 0 -111 -24.5t-37 -85.5v-76q0 -61 37 -85t111 -24t111 24t37 86zM181 624
v106h387v-106h-387z" />
    <glyph glyph-name="abreve.alt" horiz-adv-x="756" 
d="M35 253q0 142 73.5 206.5t198.5 64.5q75 0 128 -24.5t84 -72.5v83h175v-510h-176v83q-31 -47 -84 -72t-127 -25q-127 0 -199.5 63.5t-72.5 203.5zM514 217v76q0 58 -36.5 83.5t-111.5 25.5q-74 0 -111 -24.5t-37 -85.5v-76q0 -61 37 -85t111 -24t111 24t37 86zM158 767
h132q2 -43 21.5 -62t64.5 -19q44 0 63.5 19t21.5 62h132q0 -93 -53.5 -139.5t-163.5 -46.5t-164 46.5t-54 139.5z" />
    <glyph glyph-name="aogonek.alt" horiz-adv-x="756" 
d="M35 253q0 142 73.5 206.5t198.5 64.5q75 0 128 -24.5t84 -72.5v83h175v-510h-61q-40 -3 -56 -17t-16 -32q0 -19 19 -30t73 -11v-115h-61q-81 0 -129 27t-48 81q0 43 27 71t76 39v70q-31 -47 -84 -72t-127 -25q-127 0 -199.5 63.5t-72.5 203.5zM514 217v76
q0 58 -36.5 83.5t-111.5 25.5q-74 0 -111 -24.5t-37 -85.5v-76q0 -61 37 -85t111 -24t111 24t37 86z" />
    <glyph glyph-name="aringacute.alt" horiz-adv-x="756" 
d="M35 253q0 142 73.5 206.5t198.5 64.5q75 0 128 -24.5t84 -72.5v83h175v-510h-176v83q-31 -47 -84 -72t-127 -25q-127 0 -199.5 63.5t-72.5 203.5zM514 217v76q0 58 -36.5 83.5t-111.5 25.5q-74 0 -111 -24.5t-37 -85.5v-76q0 -61 37 -85t111 -24t111 24t37 86zM294 825
l158 166h193l-191 -166h-160zM212 677q0 50 39 77.5t124 27.5q87 0 126 -27.5t39 -77.5q0 -51 -39 -78.5t-126 -27.5q-85 0 -124 27.5t-39 78.5zM440 677q0 16 -13.5 24.5t-50.5 8.5t-50.5 -8.5t-13.5 -24.5t13.5 -25t50.5 -9t50.5 9t13.5 25z" />
    <glyph glyph-name="afii10065.alt" horiz-adv-x="755" 
d="M35 253q0 142 73.5 206.5t198.5 64.5q75 0 128 -24.5t84 -72.5v83h175v-510h-176v83q-31 -47 -84 -72t-127 -25q-127 0 -199.5 63.5t-72.5 203.5zM514 217v76q0 58 -36.5 83.5t-111.5 25.5q-74 0 -111 -24.5t-37 -85.5v-76q0 -61 37 -85t111 -24t111 24t37 86z" />
    <glyph glyph-name="uni04D1.alt" horiz-adv-x="755" 
d="M35 253q0 142 73.5 206.5t198.5 64.5q75 0 128 -24.5t84 -72.5v83h175v-510h-176v83q-31 -47 -84 -72t-127 -25q-127 0 -199.5 63.5t-72.5 203.5zM514 217v76q0 58 -36.5 83.5t-111.5 25.5q-74 0 -111 -24.5t-37 -85.5v-76q0 -61 37 -85t111 -24t111 24t37 86zM157 769
h141q0 -48 18.5 -69t58.5 -21q39 0 57.5 21t18.5 69h141q-2 -93 -54.5 -139.5t-162.5 -46.5t-163 46.5t-55 139.5z" />
    <glyph glyph-name="afii10078.alt" horiz-adv-x="928" 
d="M371 0l-148 387v-387h-161v510h263l137 -357l136 357h268v-510h-178v384l-147 -384h-170z" />
    <glyph glyph-name="caron.alt" horiz-adv-x="454" 
d="M141 546l11 192h145l-40 -192h-116z" />
    <glyph glyph-name="three.alt" horiz-adv-x="743" 
d="M26 202h194q10 -37 47.5 -55.5t109.5 -18.5q75 0 109 19.5t34 59.5v21q0 40 -35.5 58t-113.5 18h-102v110l178 126h-371v150h593v-130l-203 -142q113 -10 173 -57t60 -144q0 -119 -79 -175t-243 -56q-159 0 -249.5 51t-101.5 165z" />
    <glyph glyph-name="four.alt" horiz-adv-x="787" 
d="M23 273l326 417h189l-307 -398h221v178h188v-178h121v-141h-121v-151h-188v151h-429v122z" />
    <glyph glyph-name="commaaccent.alt" horiz-adv-x="439" 
d="M263 743q-40 0 -58 -8.5t-18 -27.5h6q47 0 73 -14.5t26 -49.5t-25.5 -52.5t-76.5 -17.5t-77 20t-26 66v22q0 72 41 102.5t135 30.5v-71z" />
    <glyph glyph-name="space.old" horiz-adv-x="230" 
 />
    <glyph glyph-name="zero.old" horiz-adv-x="764" 
d="M41 256q0 131 84 199.5t257 68.5q174 0 257.5 -68.5t83.5 -199.5q0 -134 -83.5 -202t-257.5 -68q-173 0 -257 68t-84 202zM543 238v37q0 54 -35.5 84.5t-125.5 30.5t-125.5 -30t-35.5 -85v-37q0 -57 35.5 -87.5t125.5 -30.5t125.5 30.5t35.5 87.5z" />
    <glyph glyph-name="one.old" horiz-adv-x="455" 
d="M32 430l173 80h180v-510h-180v354l-173 -79v155z" />
    <glyph glyph-name="two.old" horiz-adv-x="674" 
d="M43 79q0 94 64 134t139.5 57t139.5 29t64 51v11q0 23 -27.5 34.5t-78.5 11.5q-54 0 -84 -16.5t-33 -55.5h-180q6 105 84 147t213 42q140 0 213 -37t73 -125q0 -76 -56.5 -107.5t-127.5 -46.5t-137.5 -27.5t-85.5 -51.5h400v-129h-580v79z" />
    <glyph glyph-name="three.old" horiz-adv-x="689" 
d="M27 2h180q4 -37 36.5 -57.5t98.5 -20.5q67 0 98.5 20t31.5 65v24q0 40 -33 58.5t-94 18.5h-95v130h95q55 0 79 17t24 45v21q0 31 -24 47t-82 16q-51 0 -82 -13.5t-39 -54.5h-180q4 108 85.5 157t213.5 49q139 0 213.5 -47t74.5 -140q0 -58 -30.5 -96.5t-94.5 -56.5
q72 -18 110.5 -60.5t38.5 -114.5q0 -110 -79.5 -166.5t-230.5 -56.5t-230.5 54t-84.5 162z" />
    <glyph glyph-name="four.old" horiz-adv-x="737" 
d="M24 122l329 388h241v-382h117v-128h-117v-200h-177v200h-393v122zM203 128h214v261z" />
    <glyph glyph-name="five.old" horiz-adv-x="688" 
d="M31 0h181q8 -37 38 -58.5t97 -21.5q65 0 98 25t33 76v27q0 47 -33 69t-100 22q-50 0 -90.5 -12.5t-65.5 -32.5l-139 51l31 365l4 -1v1h531v-136h-393l-14 -154q26 20 70.5 33t110.5 13q132 0 200 -59t68 -167q0 -130 -79.5 -192t-229.5 -62q-149 0 -230.5 53t-87.5 161z
" />
    <glyph glyph-name="six.old" horiz-adv-x="740" 
d="M46 307q0 112 23.5 188.5t67 122.5t107.5 66t144 20q74 0 129.5 -14.5t93 -40t57.5 -60.5t23 -75h-180q-9 23 -39.5 37.5t-88.5 14.5q-76 0 -111.5 -38.5t-42.5 -148.5q36 32 89 48t117 16q60 0 110 -11.5t85 -37.5t54.5 -67.5t19.5 -100.5q0 -117 -80.5 -178.5
t-239.5 -61.5q-175 0 -257 78.5t-81 242.5zM524 212v27q0 50 -35.5 70.5t-104.5 20.5q-72 0 -110 -23t-38 -82q0 -57 36.5 -81t111.5 -24q72 0 106 20.5t34 71.5z" />
    <glyph glyph-name="seven.old" horiz-adv-x="605" 
d="M21 372v138h567v-128l-343 -582h-184l338 572h-378z" />
    <glyph glyph-name="eight.old" horiz-adv-x="751" 
d="M41 192q0 71 38 116.5t117 60.5q-72 16 -102 57t-30 94q0 49 23.5 84t64.5 57t98.5 32.5t125.5 10.5q66 0 123.5 -10.5t99 -32.5t65 -57t23.5 -84q0 -54 -28.5 -94.5t-97.5 -56.5q76 -16 112.5 -61t36.5 -116q0 -112 -89.5 -159t-244.5 -47q-159 0 -247 47t-88 159z
M507 482v19q0 38 -33 56t-98 18t-98.5 -18t-33.5 -56v-19q0 -35 33.5 -53t98.5 -18t98 18t33 53zM530 196v26q0 41 -37.5 61t-116.5 20t-117 -20t-38 -61v-26q0 -40 38 -60.5t117 -20.5t116.5 20.5t37.5 60.5z" />
    <glyph glyph-name="nine.old" horiz-adv-x="743" 
d="M43 -10h179q12 -30 43 -50t92 -20q42 0 72 10t49 35t28.5 68.5t12.5 108.5q-32 -38 -84.5 -56.5t-120.5 -18.5q-62 0 -113 11.5t-87 37.5t-56 67.5t-20 101.5q0 116 81.5 177.5t242.5 61.5q176 0 258 -80.5t82 -249.5q0 -115 -23.5 -194t-68 -126t-109 -67.5
t-145.5 -20.5q-76 0 -133.5 16t-96 43.5t-59 64.5t-24.5 80zM511 285q0 57 -38.5 81t-109.5 24q-69 0 -107 -23.5t-38 -69.5v-25q0 -46 38 -70t107 -24t108.5 23.5t39.5 83.5z" />
    <glyph glyph-name="parenleft.old" horiz-adv-x="470" 
d="M39 265q0 123 29.5 211t82.5 145.5t127.5 87t164.5 36.5v-140q-106 -13 -164.5 -84.5t-58.5 -190.5v-129q0 -121 58.5 -192t164.5 -84v-140q-91 7 -165.5 36.5t-127.5 87t-82 146t-29 210.5z" />
    <glyph glyph-name="parenright.old" horiz-adv-x="470" 
d="M431 265q0 -123 -29.5 -211t-82.5 -145.5t-127.5 -87t-164.5 -36.5v140q106 13 164.5 84.5t58.5 190.5v129q0 121 -58.5 192t-164.5 84v140q91 -7 165.5 -36.5t127.5 -87t82 -146t29 -210.5z" />
    <glyph glyph-name="bracketleft.old" horiz-adv-x="475" 
d="M75 740h375v-131h-206v-688h206v-131h-375v950z" />
    <glyph glyph-name="bracketright.old" horiz-adv-x="475" 
d="M400 -210h-375v131h206v688h-206v131h375v-950z" />
    <glyph glyph-name="braceleft.old" horiz-adv-x="487" 
d="M123 -53v141q0 50 -25.5 79t-84.5 30v137q59 1 84.5 31.5t25.5 77.5v140q0 83 38 120t130 37h170v-131h-117q-35 0 -46.5 -16.5t-11.5 -47.5v-124q0 -28 -3 -53t-14 -45t-33 -35t-59 -23q37 -6 59 -20t33 -33.5t14 -45t3 -54.5v-126q0 -32 11.5 -48.5t46.5 -16.5h117
v-131h-171q-92 0 -129.5 37t-37.5 120z" />
    <glyph glyph-name="braceright.old" horiz-adv-x="487" 
d="M364 583v-141q0 -50 25.5 -79t84.5 -30v-137q-59 -1 -84.5 -31.5t-25.5 -77.5v-140q0 -83 -38 -120t-130 -37h-170v131h117q35 0 46.5 16.5t11.5 47.5v124q0 28 3 53t14 45t33 35t59 23q-37 6 -59 20t-33 33.5t-14 45t-3 54.5v126q0 32 -11.5 48.5t-46.5 16.5h-117v131
h171q92 0 129.5 -37t37.5 -120z" />
    <glyph glyph-name="numbersign.old" horiz-adv-x="851" 
d="M34 86l32 123h103l23 95h-124l31 123h123l21 88h154l-21 -88h172l21 88h153l-21 -88h114l-31 -123h-113l-23 -95h134l-31 -123h-132l-21 -86h-154l21 86h-172l-21 -86h-153l21 86h-106zM323 209h172l23 95h-172z" />
    <glyph glyph-name="percent.old" horiz-adv-x="1053" 
d="M30 369q0 80 53.5 117.5t152.5 37.5t153 -37.5t54 -117.5q0 -82 -54 -119.5t-153 -37.5t-152.5 37.5t-53.5 119.5zM707 510h164l-520 -510h-164zM311 359v17q0 29 -18.5 39.5t-56.5 10.5q-37 0 -55.5 -10.5t-18.5 -39.5v-17q0 -29 18.5 -39.5t55.5 -10.5t56 10.5t19 39.5
zM610 142q0 81 53.5 118t152.5 37t153 -37t54 -118q0 -82 -54 -119t-153 -37t-152.5 37t-53.5 119zM891 133v17q0 29 -18.5 39.5t-56.5 10.5q-37 0 -55.5 -10.5t-18.5 -39.5v-17q0 -29 18.5 -39.5t55.5 -10.5t56 10.5t19 39.5z" />
    <glyph glyph-name="perthousand.old" horiz-adv-x="1506" 
d="M30 369q0 80 53.5 117.5t152.5 37.5t153 -37.5t54 -117.5q0 -82 -54 -119.5t-153 -37.5t-152.5 37.5t-53.5 119.5zM725 510h165l-548 -510h-165zM311 359v17q0 30 -18.5 40t-56.5 10q-37 0 -55.5 -10t-18.5 -40v-17q0 -28 18.5 -39t55.5 -11t56 10.5t19 39.5zM614 142
q0 81 54 118t153 37t153 -37t54 -118q0 -82 -54 -119t-153 -37t-153 37t-54 119zM1057 142q0 81 54 118t153 37t152.5 -37t53.5 -118q0 -82 -53.5 -119t-152.5 -37t-153 37t-54 119zM1340 133v17q0 30 -19 40.5t-57 10.5q-39 0 -57.5 -10.5t-18.5 -40.5v-17q0 -30 19 -41
t57 -11t57 11t19 41zM896 133v17q0 29 -18.5 39.5t-56.5 10.5t-56.5 -10.5t-18.5 -39.5v-17q0 -29 19 -39.5t56 -10.5t56 10.5t19 39.5z" />
    <glyph glyph-name="period.old" horiz-adv-x="285" 
d="M40 75q0 47 26.5 68t76.5 21t76 -21t26 -68q0 -46 -26 -67.5t-76 -21.5t-76.5 21.5t-26.5 67.5z" />
    <glyph glyph-name="comma.old" horiz-adv-x="289" 
d="M69 -71q40 0 58 12t18 38v7h-6q-47 0 -73 22t-26 69q0 43 25.5 65t76.5 22t77 -22.5t26 -72.5v-72q0 -84 -41 -120t-135 -36v88z" />
    <glyph glyph-name="colon.old" horiz-adv-x="313" 
d="M54 75q0 47 26.5 68t76.5 21t76 -21t26 -68q0 -46 -26 -67.5t-76 -21.5t-76.5 21.5t-26.5 67.5zM54 392q0 47 26.5 68t76.5 21t76 -21t26 -68q0 -46 -26 -67.5t-76 -21.5t-76.5 21.5t-26.5 67.5z" />
    <glyph glyph-name="semicolon.old" horiz-adv-x="313" 
d="M54 392q0 47 26.5 68t76.5 21t76 -21t26 -68q0 -46 -26 -67.5t-76 -21.5t-76.5 21.5t-26.5 67.5zM83 -71q40 0 58 12t18 38v7h-6q-47 0 -73 22t-26 69q0 43 25.5 65t76.5 22t77 -22.5t26 -72.5v-72q0 -84 -41 -120t-135 -36v88z" />
    <glyph glyph-name="plus.old" horiz-adv-x="675" 
d="M260 15v165h-217v150h217v165h156v-165h216v-150h-216v-165h-156z" />
    <glyph glyph-name="minus.old" horiz-adv-x="696" 
d="M53 330h590v-150h-590v150z" />
    <glyph glyph-name="plusminus.old" horiz-adv-x="700" 
d="M272 169v102h-217v120h217v104h156v-104h216v-120h-216v-102h-156zM55 134h589v-119h-589v119z" />
    <glyph glyph-name="divide.old" horiz-adv-x="678" 
d="M238 436q0 40 26 57.5t75 17.5t75.5 -17.5t26.5 -57.5q0 -39 -26.5 -57.5t-75.5 -18.5t-75 18.5t-26 57.5zM44 314h590v-118h-590v118zM238 75q0 39 26 56.5t75 17.5t75.5 -17.5t26.5 -56.5q0 -40 -26.5 -58.5t-75.5 -18.5t-75 18.5t-26 58.5z" />
    <glyph glyph-name="multiply.old" horiz-adv-x="634" 
d="M31 108l178 146l-178 146l87 107l199 -164l199 164l87 -107l-178 -146l178 -146l-88 -106l-198 163l-198 -163z" />
    <glyph glyph-name="equal.old" horiz-adv-x="711" 
d="M61 444h589v-145h-589v145zM61 209h589v-145h-589v145z" />
    <glyph glyph-name="less.old" horiz-adv-x="670" 
d="M42 173v164l573 174v-148l-369 -108l369 -108v-149z" />
    <glyph glyph-name="greater.old" horiz-adv-x="670" 
d="M55 146l371 107l-371 109v149l573 -176v-163l-573 -174v148z" />
    <glyph glyph-name="lessequal.old" horiz-adv-x="690" 
d="M53 246v157l580 108v-131l-375 -54l375 -54v-131zM53 128h580v-113h-580v113z" />
    <glyph glyph-name="greaterequal.old" horiz-adv-x="690" 
d="M57 271l394 53l-394 56v131l580 -108v-158l-580 -104v130zM57 128h580v-113h-580v113z" />
    <glyph glyph-name="approxequal.old" horiz-adv-x="718" 
d="M229 469q41 0 74 -10t60 -22.5t51.5 -22.5t49.5 -10q31 0 45 17t14 45h146q0 -93 -43.5 -145t-131.5 -52q-38 0 -71 9.5t-61.5 20.5t-54 20.5t-49.5 9.5q-34 0 -48.5 -15t-14.5 -40h-145q0 94 44.5 144.5t134.5 50.5zM229 242q41 0 74 -10t60 -22.5t51.5 -22.5t49.5 -10
q31 0 45.5 17t14.5 44h145q0 -93 -43.5 -145t-131.5 -52q-38 0 -71 9.5t-61.5 20.5t-54 20.5t-49.5 9.5q-34 0 -48.5 -15t-14.5 -40h-145q0 94 44.5 145t134.5 51z" />
    <glyph glyph-name="notequal.old" horiz-adv-x="697" 
d="M53 213h188l60 86h-248v128h338l58 82h167l-58 -82h85v-128h-174l-61 -86h235v-128h-324l-60 -85h-168l60 85h-98v128z" />
    <glyph glyph-name="dollar.old" horiz-adv-x="760" 
d="M41 166h186q10 -44 47.5 -58t112.5 -14t113 11.5t38 41.5q0 40 -76 44.5t-167 12t-167 36.5t-76 117q0 77 64 116t180 48v97h170v-98q110 -10 172 -51t69 -119h-187q-6 38 -43.5 50t-100.5 12q-75 0 -109.5 -9.5t-34.5 -38.5q0 -35 76 -39.5t167 -12t167 -37t76 -114.5
q0 -84 -63.5 -125.5t-188.5 -50.5v-98h-170v99q-125 10 -186.5 53.5t-68.5 126.5z" />
    <glyph glyph-name="cent.old" horiz-adv-x="702" 
d="M46 255q0 98 57 154t174 69v80h161v-80q99 -10 156.5 -52t66.5 -126h-181q-7 29 -32.5 44.5t-88.5 15.5q-67 0 -99 -20t-32 -72v-23q0 -54 33 -75t98 -21q63 0 89 16.5t34 45.5h182q-10 -78 -66 -123t-160 -56v-81h-161v81q-116 13 -173.5 67.5t-57.5 155.5z" />
    </font>
</defs>
</svg>
