<?xml version="1.0" standalone="no"?>
<!DOCTYPE svg PUBLIC "-//W3C//DTD SVG 1.1//EN" "http://www.w3.org/Graphics/SVG/1.1/DTD/svg11.dtd" >
<svg xmlns="http://www.w3.org/2000/svg" xmlns:xlink="http://www.w3.org/1999/xlink" version="1.1">
<metadata>
Created by FontForge 20170731 at Fri Sep 25 04:53:31 2020
 By Aleksey,,,
(c)2014-20 Ilya Ruderman and Yury Ostromentsky, under exclusive license to CSTM Fonts. All rights reserved.
</metadata>
<defs>
<font id="NormalidadText-Light" horiz-adv-x="790" >
  <font-face 
    font-family="Normalidad Text Light"
    font-weight="350"
    font-stretch="semi-condensed"
    units-per-em="1000"
    panose-1="2 11 4 4 2 1 2 2 3 3"
    ascent="765"
    descent="-235"
    x-height="494"
    cap-height="690"
    bbox="-181 -241 1275 1056"
    underline-thickness="40"
    underline-position="-125"
    unicode-range="U+0020-FEFF"
  />
<missing-glyph horiz-adv-x="500" 
d="M0 0v700h500v-700h-500zM250 395l170 255h-340zM280 350l170 -255v510zM50 605v-510l170 255zM80 50h340l-170 255z" />
    <glyph glyph-name=".notdef" horiz-adv-x="500" 
d="M0 0v700h500v-700h-500zM250 395l170 255h-340zM280 350l170 -255v510zM50 605v-510l170 255zM80 50h340l-170 255z" />
    <glyph glyph-name=".null" horiz-adv-x="0" 
 />
    <glyph glyph-name="nonmarkingreturn" horiz-adv-x="333" 
 />
    <glyph glyph-name="space" unicode=" " horiz-adv-x="227" 
 />
    <glyph glyph-name="exclam" unicode="!" horiz-adv-x="238" 
d="M74 690h91l-12 -514h-68zM66 40q0 25 13.5 37.5t39.5 12.5t40 -12.5t14 -37.5t-14 -38t-40 -13t-39.5 13t-13.5 38z" />
    <glyph glyph-name="quotedbl" unicode="&#x22;" horiz-adv-x="360" 
d="M57 690h75l-6 -242h-63zM227 690h75l-6 -242h-63z" />
    <glyph glyph-name="numbersign" unicode="#" horiz-adv-x="762" 
d="M34 173l15 64h129l44 205h-161l15 63h160l40 185h71l-40 -185h217l40 185h72l-40 -185h131l-14 -63h-131l-44 -205h162l-14 -64h-162l-38 -173h-72l38 173h-217l-38 -173h-71l38 173h-130zM249 237h217l44 205h-217z" />
    <glyph glyph-name="dollar" unicode="$" horiz-adv-x="616" 
d="M39 178h83q9 -72 55 -98t141 -26q90 0 133 31t43 97q0 87 -69.5 107.5t-152 32.5t-152 44.5t-69.5 142.5q0 91 56.5 138t163.5 53v110h74v-110q100 -6 155.5 -48t61.5 -130h-83q-5 66 -51 90t-123 24q-85 0 -129.5 -28.5t-44.5 -98.5q0 -82 69.5 -101t152.5 -31
t152.5 -46.5t69.5 -146.5q0 -96 -57.5 -143.5t-172.5 -51.5v-109h-75v110q-111 7 -167 49.5t-64 138.5z" />
    <glyph glyph-name="percent" unicode="%" horiz-adv-x="886" 
d="M31 523q0 93 46.5 135.5t135.5 42.5t135.5 -42.5t46.5 -135.5q0 -94 -46.5 -136.5t-135.5 -42.5t-135.5 42.5t-46.5 136.5zM673 690h79l-541 -690h-78zM325 511v21q0 63 -29 86.5t-83 23.5t-83 -23.5t-29 -86.5v-20q0 -63 29.5 -86t82.5 -23q52 0 82 22.5t30 85.5z
M491 168q0 93 47 135.5t136 42.5q88 0 135 -42.5t47 -135.5q0 -94 -47 -136.5t-135 -42.5q-89 0 -136 42.5t-47 136.5zM786 156v22q0 63 -29 86t-83 23t-83.5 -23t-29.5 -86v-21q0 -63 30 -86t83 -23q52 0 82 22.5t30 85.5z" />
    <glyph glyph-name="ampersand" unicode="&#x26;" horiz-adv-x="699" 
d="M31 178q-1 71 40.5 119t128.5 82q-38 39 -63.5 79.5t-25.5 91.5q0 68 46 109.5t143 41.5q99 0 145.5 -42t46.5 -110q0 -58 -45 -105.5t-132 -81.5l185 -193q18 34 28 77.5t11 98.5h76q-1 -74 -18.5 -130.5t-46.5 -97.5l16 -17q23 -23 44 -31t59 -8h24v-61h-40
q-47 0 -78 12.5t-58 40.5l-13 13q-47 -40 -106.5 -58.5t-119.5 -18.5q-66 0 -113.5 15t-77 40.5t-43 60t-13.5 73.5zM188 543q0 -36 25 -69.5t62 -70.5q66 25 102.5 59.5t36.5 80.5v11q0 43 -30.5 64.5t-82.5 21.5q-55 0 -84 -23t-29 -63v-11zM112 171q0 -59 47 -89.5
t122 -30.5q51 0 97 15t80 48l-207 214l-4.5 4.5l-4.5 4.5q-63 -25 -96.5 -58t-33.5 -86v-22z" />
    <glyph glyph-name="quotesingle" unicode="'" horiz-adv-x="190" 
d="M57 690h75l-6 -242h-63z" />
    <glyph glyph-name="parenleft" unicode="(" horiz-adv-x="331" 
d="M47 265q0 123 19.5 211t54.5 144.5t84.5 86.5t108.5 38v-65q-82 -15 -134 -105.5t-52 -241.5v-133q0 -154 52 -244.5t134 -105.5v-65q-60 8 -109.5 38t-84.5 87t-54 145t-19 210z" />
    <glyph glyph-name="parenright" unicode=")" horiz-adv-x="331" 
d="M284 265q0 -123 -19.5 -211t-54.5 -144.5t-84.5 -86.5t-108.5 -38v65q82 15 134 105.5t52 241.5v133q0 154 -52 244.5t-134 105.5v65q60 -8 109.5 -38t84.5 -87t54 -145t19 -210z" />
    <glyph glyph-name="asterisk" unicode="*" horiz-adv-x="437" 
d="M52 463l119 61l-119 60l28 48l113 -68l-5 126h61l-5 -126l113 68l28 -48l-119 -60l119 -61l-28 -48l-113 68l5 -126h-61l5 126l-113 -68z" />
    <glyph glyph-name="plus" unicode="+" horiz-adv-x="602" 
d="M266 102v217h-220v68h220v218h71v-218h219v-68h-219v-217h-71z" />
    <glyph glyph-name="comma" unicode="," horiz-adv-x="198" 
d="M52 -88q25 0 35 15t10 45v17h-3q-25 0 -38 13t-13 38t14 37.5t39 12.5t39.5 -12t14.5 -39v-61q0 -59 -23.5 -86t-74.5 -27v47z" />
    <glyph glyph-name="hyphen" unicode="-" horiz-adv-x="420" 
d="M51 293h319v-72h-319v72z" />
    <glyph glyph-name="period" unicode="." horiz-adv-x="206" 
d="M50 40q0 25 13.5 37.5t39.5 12.5t40 -12.5t14 -37.5t-14 -38t-40 -13t-39.5 13t-13.5 38z" />
    <glyph glyph-name="slash" unicode="/" horiz-adv-x="460" 
d="M363 740h77l-343 -835h-77z" />
    <glyph glyph-name="zero" unicode="0" horiz-adv-x="686" 
d="M54 346q0 180 73 267.5t216 87.5t215.5 -87.5t72.5 -267.5q0 -176 -72.5 -266.5t-215.5 -90.5t-216 90.5t-73 266.5zM549 309v79q0 121 -51 184t-155 63t-155 -63t-51 -185v-78q0 -120 51 -187t155 -67t155 67t51 187z" />
    <glyph glyph-name="one" unicode="1" horiz-adv-x="327" 
d="M27 586l134 104h82v-690h-82v610l-134 -105v81z" />
    <glyph glyph-name="two" unicode="2" horiz-adv-x="591" 
d="M48 32q0 135 63.5 192.5t139.5 89t139.5 63.5t63.5 116v33q0 57 -40 83t-109 26q-81 0 -121.5 -30t-46.5 -107h-82q6 110 71.5 156.5t178.5 46.5q105 0 168 -43.5t63 -147.5q0 -111 -62 -156t-137 -74.5t-139 -70t-68 -142.5h411v-67h-493v32z" />
    <glyph glyph-name="three" unicode="3" horiz-adv-x="612" 
d="M40 188h84q6 -63 50 -98t134 -35q86 0 128 32.5t42 89.5v35q0 60 -46 88.5t-118 28.5h-66v64h65q62 0 102 26t40 79v34q0 56 -38 79.5t-108 23.5q-74 0 -114 -26t-50 -90h-84q10 95 74 138.5t173 43.5q106 0 167.5 -42.5t61.5 -135.5q0 -64 -33 -104t-92 -53
q68 -13 108 -55.5t40 -114.5q0 -108 -65.5 -157.5t-186.5 -49.5q-127 0 -194 49.5t-74 149.5z" />
    <glyph glyph-name="four" unicode="4" horiz-adv-x="635" 
d="M21 240l354 450h122v-436h111v-65h-111v-189h-82v189h-394v51zM115 254h300v382z" />
    <glyph glyph-name="five" unicode="5" horiz-adv-x="601" 
d="M44 165h84q10 -55 54.5 -82.5t120.5 -27.5q82 0 127 37t45 114v40q0 71 -44.5 105.5t-123.5 34.5q-47 0 -90.5 -17t-73.5 -53l-78 13l37 361h417v-67h-354l-26 -246q25 28 71.5 49t111.5 21q114 0 174.5 -55t60.5 -167q0 -118 -64.5 -177t-189.5 -59q-118 0 -184.5 45.5
t-74.5 130.5z" />
    <glyph glyph-name="six" unicode="6" horiz-adv-x="642" 
d="M57 275q0 127 20 210t56 130.5t88.5 66.5t117.5 19q116 0 172.5 -45t64.5 -114h-82q-7 46 -45.5 69.5t-110.5 23.5q-46 0 -82 -12.5t-60.5 -44t-38.5 -85.5t-17 -137q30 43 84 65t126 22q113 0 179.5 -51.5t66.5 -171.5q0 -117 -69 -174t-194 -57q-142 0 -209.5 66
t-66.5 220zM514 198v42q0 73 -45 107.5t-135 34.5q-95 0 -144 -36.5t-49 -115.5q0 -88 45.5 -132t146.5 -44q92 0 136.5 36.5t44.5 107.5z" />
    <glyph glyph-name="seven" unicode="7" horiz-adv-x="518" 
d="M18 622v68h482v-52l-310 -638h-82l304 622h-394z" />
    <glyph glyph-name="eight" unicode="8" horiz-adv-x="652" 
d="M51 192q0 72 39.5 116.5t111.5 59.5q-66 15 -95 55t-29 100q0 96 69 137t179 41q54 0 100 -10t78.5 -31t51 -55t18.5 -82q0 -60 -29 -100t-94 -55q72 -15 110.5 -59.5t38.5 -116.5q0 -106 -71 -154.5t-203 -48.5q-133 0 -204 48.5t-71 154.5zM492 502v26q0 56 -41 82.5
t-125 26.5q-83 0 -125 -26.5t-42 -82.5v-26q0 -53 42 -80.5t125 -26.5q84 0 125 27t41 80zM519 176v32q0 66 -52 96t-141 30t-141 -30.5t-52 -94.5v-33q0 -65 52.5 -94t140.5 -29t140.5 29t52.5 94z" />
    <glyph glyph-name="nine" unicode="9" horiz-adv-x="642" 
d="M586 416q0 -127 -20 -210t-56 -130.5t-88.5 -66.5t-117.5 -19q-116 0 -172.5 45t-64.5 114h82q7 -46 45.5 -69.5t110.5 -23.5q46 0 82 12.5t60.5 44t38.5 85.5t17 137q-30 -43 -84 -65t-126 -22q-113 0 -179.5 51.5t-66.5 171.5q0 117 69 174t194 57q142 0 209.5 -66
t66.5 -220zM129 493v-42q0 -73 45 -107.5t135 -34.5q95 0 144 36.5t49 115.5q0 88 -45.5 132t-146.5 44q-92 0 -136.5 -36.5t-44.5 -107.5z" />
    <glyph glyph-name="colon" unicode=":" horiz-adv-x="231" 
d="M62 40q0 25 13.5 37.5t39.5 12.5t40 -12.5t14 -37.5t-14 -38t-40 -13t-39.5 13t-13.5 38zM62 405q0 25 13.5 37.5t39.5 12.5t40 -12.5t14 -37.5t-14 -38t-40 -13t-39.5 13t-13.5 38z" />
    <glyph glyph-name="semicolon" unicode=";" horiz-adv-x="234" 
d="M64 405q0 25 13.5 37.5t39.5 12.5t40 -12.5t14 -37.5t-14 -38t-40 -13t-39.5 13t-13.5 38zM72 -88q25 0 35 15t10 45v17h-3q-25 0 -38 13t-13 38t14 37.5t39 12.5t39.5 -12t14.5 -39v-61q0 -59 -23.5 -86t-74.5 -27v47z" />
    <glyph glyph-name="less" unicode="&#x3c;" horiz-adv-x="621" 
d="M42 315v79l510 218v-74l-434 -183l434 -183v-76z" />
    <glyph glyph-name="equal" unicode="=" horiz-adv-x="646" 
d="M68 489h510v-68h-510v68zM68 286h510v-68h-510v68z" />
    <glyph glyph-name="greater" unicode="&#x3e;" horiz-adv-x="621" 
d="M579 391v-79l-510 -218v74l434 183l-434 183v76z" />
    <glyph glyph-name="question" unicode="?" horiz-adv-x="553" 
d="M438 512v25q0 50 -40.5 74t-114.5 24q-81 0 -125.5 -29.5t-48.5 -104.5h-83q5 106 73.5 153t183.5 47q107 0 172.5 -41.5t65.5 -131.5q0 -74 -35.5 -106.5t-78 -55.5t-78 -54.5t-35.5 -103.5v-32h-70v32q0 82 33.5 122.5t73.5 65t73.5 47t33.5 69.5zM208 40
q0 25 13.5 37.5t39.5 12.5t40 -12.5t14 -37.5t-14 -38t-40 -13t-39.5 13t-13.5 38z" />
    <glyph glyph-name="at" unicode="@" horiz-adv-x="1002" 
d="M42 246q0 122 35 209t96.5 141.5t147 79.5t185.5 25q103 0 187.5 -25t143 -77t91 -133.5t32.5 -193.5q0 -76 -12.5 -128t-34.5 -82.5t-54 -43.5t-70 -13q-70 0 -103 33t-39 73q-22 -54 -67 -80t-105 -26q-96 0 -154.5 54.5t-58.5 183.5q0 132 57 188.5t156 56.5
q52 0 93 -18.5t66 -60.5v67h71v-272q0 -44 6 -72t17.5 -43t28 -20.5t38.5 -5.5q43 0 68 38.5t25 125.5v64q0 97 -28.5 164.5t-79 109t-121 60t-153.5 18.5q-79 0 -151 -19t-125 -61t-84.5 -111t-31.5 -168v-74q0 -104 35 -173t91 -110t126.5 -58t140.5 -17q26 0 58 2.5
t63 7.5t59 13t47 18v-59q-35 -18 -96.5 -28.5t-130.5 -10.5q-86 0 -170 20.5t-149 71t-105.5 138t-40.5 221.5zM633 219v55q0 82 -39.5 119t-108.5 37q-68 0 -107.5 -37.5t-39.5 -121.5v-56q0 -76 39.5 -114t108.5 -38q68 0 107.5 38.5t39.5 117.5z" />
    <glyph glyph-name="A" unicode="A" horiz-adv-x="651" 
d="M267 690h117l258 -690h-84l-74 200h-325l-74 -200h-76zM183 264h277l-139 372z" />
    <glyph glyph-name="B" unicode="B" horiz-adv-x="640" 
d="M81 690h303q90 0 139 -42t49 -128q0 -59 -26.5 -103t-80.5 -61q60 -13 92.5 -54t32.5 -110q0 -94 -49.5 -143t-145.5 -49h-314v690zM490 493v35q0 47 -28.5 73.5t-86.5 26.5h-213v-246h213q57 0 86 29.5t29 81.5zM509 169v44q0 51 -32.5 79.5t-98.5 28.5h-216v-259h216
q64 0 97.5 28t33.5 79z" />
    <glyph glyph-name="C" unicode="C" horiz-adv-x="667" 
d="M50 345q0 190 79 273t223 83q130 0 198 -49.5t81 -159.5h-82q-13 83 -60 113t-137 30q-101 0 -160.5 -59t-59.5 -190v-77q0 -128 58.5 -191t162.5 -63q86 0 134 28.5t63 107.5h82q-16 -107 -84 -154.5t-196 -47.5q-144 0 -223 83t-79 273z" />
    <glyph glyph-name="D" unicode="D" horiz-adv-x="715" 
d="M81 690h269q157 0 236.5 -82t79.5 -263q0 -175 -79.5 -260t-236.5 -85h-269v690zM349 68q113 0 174 61t61 183v72q0 123 -61 180.5t-174 57.5h-187v-554h187z" />
    <glyph glyph-name="E" unicode="E" horiz-adv-x="581" 
d="M81 690h454v-66h-373v-239h316v-66h-316v-253h377v-66h-458v690z" />
    <glyph glyph-name="F" unicode="F" horiz-adv-x="550" 
d="M81 690h444v-68h-363v-244h313v-68h-313v-310h-81v690z" />
    <glyph glyph-name="G" unicode="G" horiz-adv-x="697" 
d="M50 345q0 192 80 274t226 82q132 0 201 -50.5t83 -157.5h-82q-10 78 -59.5 110t-142.5 32q-106 0 -165 -59t-59 -193v-75q0 -129 58.5 -191t164.5 -62q115 0 164 53t52 158h-198v63h279v-46q0 -139 -71.5 -216.5t-225.5 -77.5q-146 0 -225.5 82t-79.5 274z" />
    <glyph glyph-name="H" unicode="H" horiz-adv-x="694" 
d="M81 690h81v-303h369v303h82v-690h-82v319h-369v-319h-81v690z" />
    <glyph glyph-name="I" unicode="I" horiz-adv-x="243" 
d="M81 690h81v-690h-81v690z" />
    <glyph glyph-name="J" unicode="J" horiz-adv-x="312" 
d="M13 66h70q38 0 53.5 19t15.5 61v544h82v-556q0 -69 -28.5 -101.5t-106.5 -32.5h-86v66z" />
    <glyph glyph-name="K" unicode="K" horiz-adv-x="615" 
d="M81 690h81v-309h91l255 309h92l-278 -337l295 -353h-101l-262 314h-92v-314h-81v690z" />
    <glyph glyph-name="L" unicode="L" horiz-adv-x="541" 
d="M81 690h81v-622h365v-68h-446v690z" />
    <glyph glyph-name="M" unicode="M" horiz-adv-x="851" 
d="M380 105l-225 518v-623h-74v690h123l221 -510l224 510h121v-690h-81v624l-227 -519h-82z" />
    <glyph glyph-name="N" unicode="N" horiz-adv-x="706" 
d="M517 0l-358 594v-594h-78v690h109l357 -594v594h78v-690h-108z" />
    <glyph glyph-name="O" unicode="O" horiz-adv-x="747" 
d="M50 346q0 191 81.5 273t242.5 82q160 0 242 -82t82 -273q0 -190 -82 -273.5t-242 -83.5q-161 0 -242.5 83.5t-81.5 273.5zM615 309v78q0 128 -60 188t-181 60t-181.5 -60t-60.5 -188v-78q0 -127 60.5 -190.5t181.5 -63.5t181 63.5t60 190.5z" />
    <glyph glyph-name="P" unicode="P" horiz-adv-x="623" 
d="M81 690h301q109 0 159.5 -55.5t50.5 -152.5t-50.5 -151t-159.5 -54h-220v-277h-81v690zM510 464v36q0 54 -32.5 88.5t-104.5 34.5h-211v-279h211q71 0 104 34t33 86z" />
    <glyph glyph-name="Q" unicode="Q" horiz-adv-x="747" 
d="M50 346q0 191 81.5 273t242.5 82q160 0 242 -82t82 -273q0 -100 -22.5 -169.5t-67.5 -112.5l102 -104l-58 -52l-109 112q-34 -16 -76.5 -23.5t-92.5 -7.5q-161 0 -242.5 83.5t-81.5 273.5zM615 309v78q0 128 -60 188t-181 60t-181.5 -60t-60.5 -188v-78
q0 -127 60.5 -190.5t181.5 -63.5t181 63.5t60 190.5z" />
    <glyph glyph-name="R" unicode="R" horiz-adv-x="649" 
d="M81 690h299q107 0 159.5 -54t52.5 -150q0 -76 -33 -125.5t-100 -67.5l162 -293h-91l-157 284h-211v-284h-81v690zM509 468v35q0 53 -32 87t-105 34h-210v-274h210q72 0 104.5 33.5t32.5 84.5z" />
    <glyph glyph-name="S" unicode="S" horiz-adv-x="622" 
d="M42 178h83q9 -72 55 -98t141 -26q90 0 133 31t43 97q0 87 -69.5 107.5t-152 32.5t-152 44.5t-69.5 142.5q0 98 65.5 145t188.5 47q119 0 184.5 -41.5t72.5 -137.5h-83q-5 66 -51 90t-123 24q-85 0 -129.5 -28.5t-44.5 -98.5q0 -82 69.5 -101t152.5 -31t152.5 -46.5
t69.5 -146.5q0 -101 -64 -148t-192 -47q-137 0 -204 42t-76 147z" />
    <glyph glyph-name="T" unicode="T" horiz-adv-x="578" 
d="M248 622h-235v68h551v-68h-234v-622h-82v622z" />
    <glyph glyph-name="U" unicode="U" horiz-adv-x="683" 
d="M75 246v444h81v-443q0 -105 48.5 -149t141.5 -44q92 0 140.5 44t48.5 149v443h74v-444q0 -123 -62.5 -190t-200.5 -67q-141 0 -206 67t-65 190z" />
    <glyph glyph-name="V" unicode="V" horiz-adv-x="646" 
d="M9 690h85l234 -629l234 629h75l-258 -690h-113z" />
    <glyph glyph-name="W" unicode="W" horiz-adv-x="887" 
d="M23 690h83l132 -614l161 614h103l154 -606l140 606h72l-159 -690h-108l-155 607l-160 -607h-114z" />
    <glyph glyph-name="X" unicode="X" horiz-adv-x="626" 
d="M529 0l-219 297l-221 -297h-85l260 350l-251 340h93l210 -283l210 283h85l-250 -335l261 -355h-93z" />
    <glyph glyph-name="Y" unicode="Y" horiz-adv-x="628" 
d="M275 306l-270 384h90l225 -321l219 321h80l-262 -385v-305h-82v306z" />
    <glyph glyph-name="Z" unicode="Z" horiz-adv-x="578" 
d="M35 68l418 554h-416v68h505v-68l-419 -554h421v-68h-509v68z" />
    <glyph glyph-name="bracketleft" unicode="[" horiz-adv-x="351" 
d="M80 740h253v-64h-179v-822h179v-64h-253v950z" />
    <glyph glyph-name="backslash" unicode="\" horiz-adv-x="457" 
d="M358 -95l-338 835h80l338 -835h-80z" />
    <glyph glyph-name="bracketright" unicode="]" horiz-adv-x="351" 
d="M271 -210h-253v64h179v822h-179v64h253v-950z" />
    <glyph glyph-name="asciicircum" unicode="^" horiz-adv-x="427" 
d="M318 447l-103 219l-104 -219h-74l136 283h82l135 -283h-72z" />
    <glyph glyph-name="underscore" unicode="_" horiz-adv-x="576" 
d="M0 -114v59h576v-59h-576z" />
    <glyph glyph-name="grave" unicode="`" horiz-adv-x="222" 
d="M5 734h100l112 -165h-74z" />
    <glyph glyph-name="a" unicode="a" horiz-adv-x="554" 
d="M42 132q0 67 41.5 104t148.5 44l178 12v15q0 76 -34 109t-105 33q-54 0 -89 -19.5t-46 -69.5h-78q12 72 65 108.5t148 36.5q108 0 161.5 -47t53.5 -151v-307h-72v86q-27 -46 -78.5 -71.5t-120.5 -25.5q-88 0 -130.5 37.5t-42.5 105.5zM120 128q0 -40 27.5 -61.5
t81.5 -21.5q35 0 68 8.5t58 28t40 51t15 76.5v32l-168 -12q-63 -5 -92.5 -24.5t-29.5 -63.5v-13z" />
    <glyph glyph-name="b" unicode="b" horiz-adv-x="599" 
d="M74 730h76v-313q27 46 72.5 67t105.5 21q109 0 168.5 -59t59.5 -199t-59.5 -199t-168.5 -59q-62 0 -108 22t-73 71v-82h-73v730zM478 216v63q0 90 -44 129.5t-119 39.5q-78 0 -121.5 -39.5t-43.5 -129.5v-63q0 -85 44.5 -127.5t120.5 -42.5t119.5 42.5t43.5 127.5z" />
    <glyph glyph-name="c" unicode="c" horiz-adv-x="525" 
d="M44 245q0 134 57 197t172 63q94 0 150 -35.5t67 -111.5h-78q-10 50 -46 70t-93 20q-77 0 -114.5 -40.5t-37.5 -127.5v-67q0 -92 43 -129.5t109 -37.5q63 0 96.5 23.5t43.5 66.5h77q-12 -74 -68 -110.5t-149 -36.5q-105 0 -167 55.5t-62 200.5z" />
    <glyph glyph-name="d" unicode="d" horiz-adv-x="599" 
d="M44 243q0 141 59.5 201.5t169.5 60.5q60 0 104.5 -19.5t71.5 -64.5v309h77v-730h-73v82q-26 -48 -72 -70.5t-108 -22.5q-107 0 -168 58.5t-61 195.5zM449 216v63q0 88 -44.5 128.5t-119.5 40.5t-119.5 -41t-44.5 -132v-63q0 -84 45 -125t119 -41q75 0 119.5 41.5
t44.5 128.5z" />
    <glyph glyph-name="e" unicode="e" horiz-adv-x="543" 
d="M44 247q0 137 59.5 197.5t168.5 60.5q110 0 170 -57.5t60 -179.5v-24h-382v-28q0 -86 39.5 -128.5t112.5 -42.5q64 0 100 23.5t47 68.5h76q-16 -72 -72 -110t-151 -38q-109 0 -168.5 60t-59.5 198zM272 449q-71 0 -110 -35.5t-42 -118.5h306q-3 84 -41.5 119t-112.5 35z
" />
    <glyph glyph-name="f" unicode="f" horiz-adv-x="321" 
d="M23 494h66v115q0 62 29.5 91.5t104.5 29.5h88v-60h-83q-36 0 -49 -16t-13 -45v-115h145v-60h-145v-434h-77v434h-66v60z" />
    <glyph glyph-name="g" unicode="g" horiz-adv-x="599" 
d="M65 -65h78q14 -50 53.5 -69.5t100.5 -19.5q87 0 120.5 40t33.5 136v61q-26 -43 -70.5 -63.5t-104.5 -20.5q-107 0 -168.5 58t-61.5 190q0 136 60 197t170 61q60 0 105.5 -20.5t72.5 -68.5v78h74v-469q0 -116 -54 -176t-177 -60q-103 0 -161 37t-71 109zM451 222v57
q0 88 -44.5 128.5t-119.5 40.5t-119.5 -41t-44.5 -132v-57q0 -81 45 -121t119 -40q77 0 120.5 39t43.5 126z" />
    <glyph glyph-name="h" unicode="h" horiz-adv-x="581" 
d="M437 0v309q0 82 -35 110.5t-100 28.5q-69 0 -110.5 -32t-41.5 -108v-308h-76v730h76v-311q23 46 68.5 66t102.5 20q93 0 143 -45.5t50 -146.5v-313h-77z" />
    <glyph glyph-name="i" unicode="i" horiz-adv-x="224" 
d="M74 494h76v-494h-76v494zM60 657q0 24 13 36.5t38 12.5q26 0 40 -12.5t14 -36.5q0 -25 -14 -38t-40 -13q-25 0 -38 13t-13 38z" />
    <glyph glyph-name="j" unicode="j" horiz-adv-x="224" 
d="M-23 -140h33q37 0 50.5 16.5t13.5 46.5v571h76v-575q0 -61 -27.5 -90t-97.5 -29h-48v60zM60 657q0 24 13 36.5t38 12.5q26 0 40 -12.5t14 -36.5q0 -25 -14 -38t-40 -13q-25 0 -38 13t-13 38z" />
    <glyph glyph-name="k" unicode="k" horiz-adv-x="504" 
d="M398 494h86l-204 -238l228 -256h-95l-197 219h-66v-219h-76v730h76v-450h65z" />
    <glyph glyph-name="l" unicode="l" horiz-adv-x="224" 
d="M74 730h76v-730h-76v730z" />
    <glyph glyph-name="m" unicode="m" horiz-adv-x="872" 
d="M401 0v310q0 83 -31.5 110.5t-85.5 27.5q-58 0 -96 -31.5t-38 -107.5v-309h-76v494h73v-81q22 49 65.5 70.5t94.5 21.5q60 0 99.5 -23t57.5 -73q21 50 66.5 73t102.5 23q83 0 127 -46t44 -147v-312h-77v310q0 83 -31.5 110.5t-85.5 27.5q-57 0 -95 -31t-38 -108v-309h-76
z" />
    <glyph glyph-name="n" unicode="n" horiz-adv-x="581" 
d="M437 0v309q0 82 -35 110.5t-100 28.5q-69 0 -110.5 -32t-41.5 -109v-307h-76v494h73v-81q22 49 69 70.5t105 21.5q93 0 143 -45.5t50 -146.5v-313h-77z" />
    <glyph glyph-name="o" unicode="o" horiz-adv-x="570" 
d="M44 247q0 140 63.5 199t177.5 59q116 0 178.5 -59t62.5 -199q0 -143 -62.5 -200.5t-178.5 -57.5q-114 0 -177.5 57.5t-63.5 200.5zM449 217v61q0 88 -43 129t-121 41t-121 -41t-43 -129v-62q0 -87 43 -128.5t121 -41.5t121 41.5t43 129.5z" />
    <glyph glyph-name="p" unicode="p" horiz-adv-x="599" 
d="M74 494h73v-82q27 49 73 71t108 22q110 0 169 -59t59 -199t-59 -199t-169 -59q-60 0 -105.5 20.5t-72.5 66.5v-276h-76v694zM478 216v63q0 90 -44 129.5t-120 39.5q-78 0 -121 -39.5t-43 -129.5v-63q0 -87 45 -128.5t119 -41.5q76 0 120 42t44 128z" />
    <glyph glyph-name="q" unicode="q" horiz-adv-x="597" 
d="M44 243q0 141 60 201.5t170 60.5q60 0 105.5 -20.5t72.5 -68.5v78h73v-694h-76v277q-27 -46 -72 -67t-103 -21q-107 0 -168.5 58.5t-61.5 195.5zM449 216v63q0 89 -44.5 129t-119.5 40t-119.5 -41t-44.5 -132v-63q0 -84 45 -125t119 -41q75 0 119.5 41.5t44.5 128.5z" />
    <glyph glyph-name="r" unicode="r" horiz-adv-x="366" 
d="M74 494h73v-95q19 48 59 71.5t95 23.5h50v-70h-55q-71 0 -108.5 -33t-37.5 -110v-281h-76v494z" />
    <glyph glyph-name="s" unicode="s" horiz-adv-x="508" 
d="M36 149h78q4 -58 41 -81t103 -23q69 0 104 21t35 69q0 56 -54.5 68.5t-119.5 21.5t-119.5 33.5t-54.5 104.5q0 69 53.5 106t149.5 37q90 0 145.5 -35t59.5 -111h-77q-4 53 -39.5 71.5t-88.5 18.5q-61 0 -94.5 -20.5t-33.5 -64.5q0 -54 54.5 -66.5t119 -21t119 -34
t54.5 -106.5q0 -78 -58 -112.5t-154 -34.5q-104 0 -161.5 39t-61.5 120z" />
    <glyph glyph-name="t" unicode="t" horiz-adv-x="327" 
d="M87 120v314h-65v60h65v159h76v-159h143v-60h-143v-310q0 -32 15 -48t49 -16h79v-60h-93q-69 0 -97.5 28t-28.5 92z" />
    <glyph glyph-name="u" unicode="u" horiz-adv-x="581" 
d="M68 184v310h76v-309q0 -82 35 -110t100 -28q66 0 109 31t43 109v307h77v-494h-76v76q-22 -46 -67 -66.5t-105 -20.5q-93 0 -142.5 45t-49.5 150z" />
    <glyph glyph-name="v" unicode="v" horiz-adv-x="509" 
d="M208 0l-198 494h80l169 -423l167 423h71l-196 -494h-93z" />
    <glyph glyph-name="w" unicode="w" horiz-adv-x="768" 
d="M164 0l-150 494h74l130 -434l123 434h92l123 -431l131 431h67l-151 -494h-98l-122 430l-122 -430h-97z" />
    <glyph glyph-name="x" unicode="x" horiz-adv-x="497" 
d="M402 0l-157 204l-160 -204h-78l196 251l-187 243h88l148 -190l149 190h78l-186 -237l197 -257h-88z" />
    <glyph glyph-name="y" unicode="y" horiz-adv-x="509" 
d="M49 -140h42q47 0 70.5 16.5t42.5 65.5l17 43l-212 509h81l170 -415l167 415h72l-231 -566q-29 -74 -64.5 -101t-104.5 -27h-50v60z" />
    <glyph glyph-name="z" unicode="z" horiz-adv-x="483" 
d="M34 60l321 374h-316v60h401v-59l-321 -375h338v-60h-423v60z" />
    <glyph glyph-name="braceleft" unicode="{" horiz-adv-x="363" 
d="M106 -93v202q0 55 -17 86.5t-69 32.5v74q52 1 69 34.5t17 84.5v202q0 62 26.5 89.5t92.5 27.5h121v-64h-103q-34 0 -48.5 -13.5t-14.5 -50.5v-197q0 -54 -16.5 -96.5t-82.5 -54.5q66 -8 82.5 -49t16.5 -98v-196q0 -38 14.5 -52.5t48.5 -14.5h103v-64h-121
q-66 0 -92.5 27.5t-26.5 89.5z" />
    <glyph glyph-name="bar" unicode="|" horiz-adv-x="234" 
d="M80 730h74v-930h-74v930z" />
    <glyph glyph-name="braceright" unicode="}" horiz-adv-x="363" 
d="M257 623v-202q0 -55 17 -86.5t69 -32.5v-74q-52 -1 -69 -34.5t-17 -84.5v-202q0 -62 -26.5 -89.5t-92.5 -27.5h-121v64h103q34 0 48.5 13.5t14.5 50.5v197q0 54 16.5 96.5t82.5 54.5q-66 8 -82.5 49t-16.5 98v196q0 38 -14.5 52.5t-48.5 14.5h-103v64h121
q66 0 92.5 -27.5t26.5 -89.5z" />
    <glyph glyph-name="asciitilde" unicode="~" horiz-adv-x="590" 
d="M182 431q38 0 69 -13.5t57 -30t50 -30t48 -13.5q34 0 50 20t16 61h67q0 -69 -32 -107t-97 -38q-33 0 -62.5 13.5t-56.5 29.5t-53 29.5t-51 13.5q-37 0 -53.5 -19.5t-16.5 -59.5h-66q0 69 32.5 106.5t98.5 37.5z" />
    <glyph glyph-name="nonbreakingspace" unicode="&#xa0;" horiz-adv-x="227" 
 />
    <glyph glyph-name="exclamdown" unicode="&#xa1;" horiz-adv-x="226" 
d="M60 454q0 25 13.5 38t39.5 13t40 -13t14 -38t-14 -37.5t-40 -12.5t-39.5 12.5t-13.5 37.5zM68 -196l11 514h68l12 -514h-91z" />
    <glyph glyph-name="cent" unicode="&#xa2;" horiz-adv-x="539" 
d="M52 245q0 123 48.5 186.5t146.5 72.5v110h73v-111q77 -6 122.5 -41.5t55.5 -103.5h-78q-10 50 -46 70t-93 20q-77 0 -114.5 -40.5t-37.5 -127.5v-67q0 -92 43 -129.5t109 -37.5q63 0 96.5 23.5t43.5 66.5h77q-10 -66 -56 -102t-122 -43v-111h-73v110q-90 7 -142.5 64.5
t-52.5 190.5z" />
    <glyph glyph-name="sterling" unicode="&#xa3;" horiz-adv-x="601" 
d="M40 66q31 0 59.5 8.5t50 25t34.5 40t13 52.5v28q0 14 -3.5 27.5t-9.5 26.5h-127v60h90q-25 35 -48 76t-24 98q-1 96 62.5 144.5t178.5 48.5q110 0 172.5 -44t68.5 -143h-80q-6 69 -47.5 95.5t-113.5 26.5q-74 0 -117.5 -28.5t-43.5 -92.5v-26q0 -45 26 -80t51 -75h217
v-60h-188q4 -15 7 -31t3 -35q0 -46 -22 -83t-62 -58h375v-67h-522v66z" />
    <glyph glyph-name="currency" unicode="&#xa4;" horiz-adv-x="558" 
d="M56 174l68 67q-16 21 -24 47.5t-8 57.5t8 58t24 49l-68 68l46 45l72 -71q21 11 47.5 17.5t57.5 6.5t57 -6.5t47 -17.5l72 72l46 -46l-68 -68q16 -22 25 -49t9 -58q0 -30 -8 -56.5t-24 -46.5l67 -68l-46 -46l-71 71q-22 -12 -48.5 -18t-57.5 -6t-58 6t-48 18l-71 -72z
M397 346q0 54 -32 84t-86 30t-86 -30t-32 -84q0 -53 32 -82t86 -29t86 29t32 82z" />
    <glyph glyph-name="yen" unicode="&#xa5;" horiz-adv-x="666" 
d="M104 127v60h189v83h-189v60h172l-253 360h91l224 -321l222 321h82l-251 -360h173v-60h-189v-83h189v-60h-189v-127h-82v127h-189z" />
    <glyph glyph-name="brokenbar" unicode="&#xa6;" horiz-adv-x="234" 
d="M80 730h74v-370h-74v370zM80 170h74v-370h-74v370z" />
    <glyph glyph-name="section" unicode="&#xa7;" horiz-adv-x="578" 
d="M56 9h82q4 -47 35 -74.5t116 -27.5q68 0 106.5 22t38.5 67v17q0 49 -62 74t-135.5 50t-135.5 63.5t-62 114.5q0 55 30 90t76 57q-31 21 -51 49.5t-20 69.5q0 76 57 118t158 42q110 0 165 -41.5t59 -122.5h-82q-4 48 -33.5 74t-108.5 26q-63 0 -100 -21.5t-37 -66.5v-17
q0 -49 60.5 -74.5t133 -51.5t133 -64t60.5 -113q0 -55 -29 -89t-72 -56q33 -21 54 -50t21 -70q0 -77 -60 -118.5t-164 -41.5q-115 0 -172 42t-61 123zM116 315q0 -35 25 -58t63.5 -40t85.5 -31.5t90 -32.5q31 13 57 37.5t26 62.5v17q0 35 -25 58t-63 39.5t-84 31.5t-88 33
q-33 -14 -60 -38.5t-27 -62.5v-16z" />
    <glyph glyph-name="dieresis" unicode="&#xa8;" horiz-adv-x="339" 
d="M17 652q0 24 13 36.5t38 12.5t38.5 -12.5t13.5 -36.5q0 -25 -13.5 -37.5t-38.5 -12.5t-38 12.5t-13 37.5zM219 652q0 24 13 36.5t38 12.5t38 -12.5t13 -36.5q0 -25 -13 -37.5t-38 -12.5t-38 12.5t-13 37.5z" />
    <glyph glyph-name="copyright" unicode="&#xa9;" horiz-adv-x="851" 
d="M53 346q0 85 27.5 151.5t77 111.5t118 68.5t150.5 23.5t150.5 -23.5t117.5 -68.5t76.5 -111.5t27.5 -151.5q0 -86 -27.5 -153t-76.5 -112t-117.5 -68.5t-150.5 -23.5t-150.5 23.5t-118 68.5t-77 112t-27.5 153zM739 316v59q0 66 -24 118t-65.5 87t-99 53.5t-124.5 18.5
t-124.5 -18.5t-99.5 -54t-66 -87.5t-24 -118v-59q0 -65 23.5 -116.5t65 -87t99.5 -54t126 -18.5t126 18.5t99 54t64.5 87t23.5 117.5zM233 343q0 105 47.5 156.5t145.5 51.5q77 0 124 -31.5t55 -99.5h-69q-7 42 -37 57.5t-73 15.5q-62 0 -92 -31.5t-30 -90.5v-56
q0 -61 35 -86t87 -25q49 0 76 18t34 55h70q-10 -67 -59 -99t-121 -32q-86 0 -139.5 43.5t-53.5 153.5z" />
    <glyph glyph-name="ordfeminine" unicode="&#xaa;" horiz-adv-x="500" 
d="M43 416q0 60 36.5 93.5t132.5 40.5l156 11v22q0 56 -29 84t-90 28q-48 0 -80 -17.5t-41 -64.5h-71q10 66 58.5 99.5t133.5 33.5q94 0 141 -40.5t47 -122.5v-280h-66v86q-23 -45 -68.5 -70t-106.5 -25q-75 0 -114 32t-39 90zM112 414q0 -31 23.5 -49.5t72.5 -18.5
q30 0 59 8t51.5 26t36 47.5t13.5 72.5v15l-148 -11q-57 -4 -82.5 -21.5t-25.5 -56.5v-12z" />
    <glyph glyph-name="guillemotleft" unicode="&#xab;" horiz-adv-x="512" 
d="M43 227v60l202 184v-80l-145 -131l146 -132v-84zM252 227v60l202 184v-80l-145 -131l146 -132v-84z" />
    <glyph glyph-name="logicalnot" unicode="&#xac;" horiz-adv-x="624" 
d="M44 433h510v-270h-71v203h-439v67z" />
    <glyph glyph-name="uni00AD" unicode="&#xad;" horiz-adv-x="420" 
d="M51 293h319v-72h-319v72z" />
    <glyph glyph-name="registered" unicode="&#xae;" horiz-adv-x="572" 
d="M53 477q0 105 64 164.5t169 59.5t169 -59.5t64 -164.5q0 -107 -64 -165t-169 -58t-169 58t-64 165zM472 468v31q0 78 -52 119.5t-134 41.5t-134 -41.5t-52 -119.5v-31q0 -85 51 -129t135 -44t135 44t51 129zM202 595h107q42 0 61.5 -19.5t19.5 -52.5q0 -25 -11 -42.5
t-33 -24.5l48 -89h-49l-45 84h-53v-84h-45v228zM343 527q0 16 -8.5 23.5t-26.5 7.5h-61v-69h61q18 0 26.5 7.5t8.5 23.5v7z" />
    <glyph glyph-name="macron" unicode="&#xaf;" horiz-adv-x="323" 
d="M16 624v55h290v-55h-290z" />
    <glyph glyph-name="degree" unicode="&#xb0;" horiz-adv-x="440" 
d="M41 541q0 77 46 118.5t133 41.5t133 -41.5t46 -118.5t-46 -118.5t-133 -41.5t-133 41t-46 119zM329 541q0 53 -29 78t-80 25q-52 0 -80.5 -25t-28.5 -78q0 -54 28.5 -78.5t80.5 -24.5q51 0 80 24.5t29 78.5z" />
    <glyph glyph-name="plusminus" unicode="&#xb1;" horiz-adv-x="636" 
d="M283 228v198h-220v67h220v197h71v-197h219v-67h-219v-198h-71zM63 165h510v-68h-510v68z" />
    <glyph glyph-name="twosuperior" unicode="&#xb2;" horiz-adv-x="432" 
d="M40 395q0 89 43 128t94.5 59t94.5 36t43 60v15q0 32 -25.5 46t-68.5 14q-49 0 -74 -17.5t-31 -54.5h-71q7 68 53.5 99t121.5 31q71 0 118.5 -27.5t47.5 -93.5q0 -65 -41 -91.5t-91 -43.5t-94.5 -40.5t-51.5 -81.5h280v-58h-348v20z" />
    <glyph glyph-name="threesuperior" unicode="&#xb3;" horiz-adv-x="443" 
d="M36 495h71q7 -36 33 -54.5t85 -18.5q49 0 76.5 14t27.5 45v23q0 33 -30 47.5t-76 14.5h-51v57h51q40 0 66 13t26 47v13q0 31 -23.5 44t-66.5 13q-51 0 -75.5 -16t-30.5 -44h-71q6 56 54 87t123 31q69 0 115 -28t46 -85q0 -40 -24 -65.5t-67 -34.5q47 -8 76 -33.5
t29 -71.5q0 -67 -48 -98t-127 -31q-87 0 -134.5 31t-54.5 100z" />
    <glyph glyph-name="acute" unicode="&#xb4;" horiz-adv-x="218" 
d="M5 569l112 165h96l-138 -165h-70z" />
    <glyph glyph-name="paragraph" unicode="&#xb6;" horiz-adv-x="642" 
d="M27 483q0 116 59 161.5t165 45.5h111v-840h-72v428h-33q-108 0 -169 44.5t-61 160.5zM483 690h72v-840h-72v840z" />
    <glyph glyph-name="periodcentered" unicode="&#xb7;" horiz-adv-x="228" 
d="M61 266q0 25 13.5 37.5t39.5 12.5t40 -12.5t14 -37.5t-14 -38t-40 -13t-39.5 13t-13.5 38z" />
    <glyph glyph-name="cedilla" unicode="&#xb8;" horiz-adv-x="500" 
d="M202 -205v48q37 0 58.5 1.5t32.5 5.5t14.5 11t3.5 18q0 21 -20 27t-77 7v87h54v-47q49 -4 81 -18t32 -60q0 -40 -29.5 -60t-89.5 -20h-60z" />
    <glyph glyph-name="onesuperior" unicode="&#xb9;" horiz-adv-x="260" 
d="M28 729l95 71h65v-425h-65v361l-95 -71v64z" />
    <glyph glyph-name="ordmasculine" unicode="&#xba;" horiz-adv-x="520" 
d="M43 521q0 119 56.5 172t160.5 53q105 0 161 -53t56 -172q0 -122 -56 -174.5t-161 -52.5q-104 0 -160.5 52.5t-56.5 174.5zM406 492v59q0 75 -38.5 108.5t-107.5 33.5q-72 0 -109 -36.5t-37 -105.5v-59q0 -76 38 -110.5t108 -34.5q72 0 109 37t37 108z" />
    <glyph glyph-name="guillemotright" unicode="&#xbb;" horiz-adv-x="512" 
d="M469 285v-60l-202 -184v80l145 131l-146 132v84zM260 285v-60l-202 -184v80l145 131l-146 132v84z" />
    <glyph glyph-name="onequarter" unicode="&#xbc;" horiz-adv-x="875" 
d="M29 619l95 71h65v-425h-65v361l-95 -71v64zM98 0l532 690h77l-532 -690h-77zM454 149l222 276h101v-268h70v-58h-70v-99h-69v99h-254v50zM531 157h177v221z" />
    <glyph glyph-name="onehalf" unicode="&#xbd;" horiz-adv-x="948" 
d="M30 619l95 71h65v-425h-65v361l-95 -71v64zM100 0l532 690h77l-532 -690h-77zM555 20q0 89 43 128t94.5 59t94.5 36t43 60v15q0 32 -25.5 46t-68.5 14q-49 0 -74 -17.5t-31 -54.5h-71q7 68 53.5 99t121.5 31q71 0 118.5 -27.5t47.5 -93.5q0 -65 -41 -91.5t-91 -43.5
t-94.5 -40.5t-51.5 -81.5h280v-58h-348v20z" />
    <glyph glyph-name="threequarters" unicode="&#xbe;" horiz-adv-x="1000" 
d="M32 385h71q7 -36 33 -54.5t85 -18.5q49 0 76.5 14t27.5 45v23q0 33 -30 47.5t-76 14.5h-51v57h51q40 0 66 13t26 47v13q0 31 -23.5 44t-66.5 13q-51 0 -75.5 -16t-30.5 -44h-71q6 56 54 87t123 31q69 0 115 -28t46 -85q0 -40 -24 -65.5t-67 -34.5q47 -8 76 -33.5
t29 -71.5q0 -67 -48 -98t-127 -31q-87 0 -134.5 31t-54.5 100zM233 0l532 690h77l-532 -690h-77zM578 149l222 276h101v-268h70v-58h-70v-99h-69v99h-254v50zM655 157h177v221z" />
    <glyph glyph-name="questiondown" unicode="&#xbf;" horiz-adv-x="549" 
d="M343 454q0 -25 -13.5 -37.5t-39.5 -12.5t-40 12.5t-14 37.5t14 38t40 13t39.5 -13t13.5 -38zM113 -18v-25q0 -50 40.5 -74t114.5 -24q81 0 125.5 29.5t48.5 104.5h83q-5 -106 -73.5 -153t-183.5 -47q-107 0 -172.5 41.5t-65.5 131.5q0 74 35.5 106.5t78 55.5t78 54.5
t35.5 103.5v32h70v-32q0 -82 -33.5 -122.5t-73.5 -65t-73.5 -47t-33.5 -69.5z" />
    <glyph glyph-name="Agrave" unicode="&#xc0;" horiz-adv-x="651" 
d="M267 690h117l258 -690h-84l-74 200h-325l-74 -200h-76zM183 264h277l-139 372zM286 758l-139 142h104l114 -142h-79z" />
    <glyph glyph-name="Aacute" unicode="&#xc1;" horiz-adv-x="651" 
d="M267 690h117l258 -690h-84l-74 200h-325l-74 -200h-76zM183 264h277l-139 372zM287 758l115 142h102l-142 -142h-75z" />
    <glyph glyph-name="Acircumflex" unicode="&#xc2;" horiz-adv-x="651" 
d="M267 690h117l258 -690h-84l-74 200h-325l-74 -200h-76zM183 264h277l-139 372zM142 758l147 142h71l148 -142h-87l-98 89l-97 -89h-84z" />
    <glyph glyph-name="Atilde" unicode="&#xc3;" horiz-adv-x="651" 
d="M267 690h117l258 -690h-84l-74 200h-325l-74 -200h-76zM183 264h277l-139 372zM254 893q28 0 47.5 -11t34.5 -24.5t27.5 -24.5t27.5 -11q20 0 28 20.5t8 49.5h56q0 -58 -20.5 -92.5t-66.5 -34.5q-28 0 -47.5 11.5t-34.5 24.5t-27.5 24.5t-27.5 11.5q-20 0 -28.5 -20
t-8.5 -51h-55q0 58 20.5 92.5t66.5 34.5z" />
    <glyph glyph-name="Adieresis" unicode="&#xc4;" horiz-adv-x="651" 
d="M267 690h117l258 -690h-84l-74 200h-325l-74 -200h-76zM183 264h277l-139 372zM165 826q0 24 13 36.5t38 12.5t38.5 -12.5t13.5 -36.5q0 -25 -13.5 -37.5t-38.5 -12.5t-38 12.5t-13 37.5zM382 826q0 24 13 36.5t38 12.5t38 -12.5t13 -36.5q0 -25 -13 -37.5t-38 -12.5
t-38 12.5t-13 37.5z" />
    <glyph glyph-name="Aring" unicode="&#xc5;" horiz-adv-x="651" 
d="M267 690h117l258 -690h-84l-74 200h-325l-74 -200h-76zM183 264h277l-139 372zM193 833q0 42 31.5 64t100.5 22q68 0 99.5 -22t31.5 -64q0 -43 -32 -64.5t-99 -21.5q-69 0 -100.5 21.5t-31.5 64.5zM325 794q44 0 59 10t15 29t-15 28.5t-59 9.5q-45 0 -59.5 -9.5
t-14.5 -28.5t14.5 -29t59.5 -10z" />
    <glyph glyph-name="AE" unicode="&#xc6;" horiz-adv-x="997" 
d="M458 690h493v-66h-373v-239h316v-66h-316v-253h377v-66h-459v219h-278l-151 -219h-85zM263 285h233v338z" />
    <glyph glyph-name="Ccedilla" unicode="&#xc7;" horiz-adv-x="667" 
d="M50 345q0 190 79 273t223 83q130 0 198 -49.5t81 -159.5h-82q-13 83 -60 113t-137 30q-101 0 -160.5 -59t-59.5 -190v-77q0 -128 58.5 -191t162.5 -63q86 0 134 28.5t63 107.5h82q-16 -107 -84 -154.5t-196 -47.5q-144 0 -223 83t-79 273zM295 -204v48q37 0 58.5 1.5
t32.5 5.5t14.5 11t3.5 18q0 21 -20 27t-77 7v87h54v-47q49 -4 81 -18t32 -60q0 -40 -29.5 -60t-89.5 -20h-60z" />
    <glyph glyph-name="Egrave" unicode="&#xc8;" horiz-adv-x="581" 
d="M81 690h454v-66h-373v-239h316v-66h-316v-253h377v-66h-458v690zM282 758l-139 142h104l114 -142h-79z" />
    <glyph glyph-name="Eacute" unicode="&#xc9;" horiz-adv-x="581" 
d="M81 690h454v-66h-373v-239h316v-66h-316v-253h377v-66h-458v690zM265 758l115 142h102l-142 -142h-75z" />
    <glyph glyph-name="Ecircumflex" unicode="&#xca;" horiz-adv-x="581" 
d="M81 690h454v-66h-373v-239h316v-66h-316v-253h377v-66h-458v690zM127 758l147 142h71l148 -142h-87l-98 89l-97 -89h-84z" />
    <glyph glyph-name="Edieresis" unicode="&#xcb;" horiz-adv-x="581" 
d="M81 690h454v-66h-373v-239h316v-66h-316v-253h377v-66h-458v690zM149 826q0 24 13 36.5t38 12.5t38.5 -12.5t13.5 -36.5q0 -25 -13.5 -37.5t-38.5 -12.5t-38 12.5t-13 37.5zM366 826q0 24 13 36.5t38 12.5t38 -12.5t13 -36.5q0 -25 -13 -37.5t-38 -12.5t-38 12.5
t-13 37.5z" />
    <glyph glyph-name="Igrave" unicode="&#xcc;" horiz-adv-x="243" 
d="M81 690h81v-690h-81v690zM81 758l-139 142h104l114 -142h-79z" />
    <glyph glyph-name="Iacute" unicode="&#xcd;" horiz-adv-x="243" 
d="M81 690h81v-690h-81v690zM83 758l115 142h102l-142 -142h-75z" />
    <glyph glyph-name="Icircumflex" unicode="&#xce;" horiz-adv-x="243" 
d="M81 690h81v-690h-81v690zM-62 758l147 142h71l148 -142h-87l-98 89l-97 -89h-84z" />
    <glyph glyph-name="Idieresis" unicode="&#xcf;" horiz-adv-x="243" 
d="M81 690h81v-690h-81v690zM-38 826q0 24 13 36.5t38 12.5t38.5 -12.5t13.5 -36.5q0 -25 -13.5 -37.5t-38.5 -12.5t-38 12.5t-13 37.5zM179 826q0 24 13 36.5t38 12.5t38 -12.5t13 -36.5q0 -25 -13 -37.5t-38 -12.5t-38 12.5t-13 37.5z" />
    <glyph glyph-name="Eth" unicode="&#xd0;" horiz-adv-x="764" 
d="M27 321v64h103v305h269q157 0 236.5 -82t79.5 -263q0 -175 -79.5 -260t-236.5 -85h-269v321h-103zM398 68q113 0 174 61t61 183v72q0 123 -61 180.5t-174 57.5h-187v-237h191v-64h-191v-253h187z" />
    <glyph glyph-name="Ntilde" unicode="&#xd1;" horiz-adv-x="706" 
d="M517 0l-358 594v-594h-78v690h109l357 -594v594h78v-690h-108zM283 893q28 0 47.5 -11t34.5 -24.5t27.5 -24.5t27.5 -11q20 0 28 20.5t8 49.5h56q0 -58 -20.5 -92.5t-66.5 -34.5q-28 0 -47.5 11.5t-34.5 24.5t-27.5 24.5t-27.5 11.5q-20 0 -28.5 -20t-8.5 -51h-55
q0 58 20.5 92.5t66.5 34.5z" />
    <glyph glyph-name="Ograve" unicode="&#xd2;" horiz-adv-x="747" 
d="M50 346q0 191 81.5 273t242.5 82q160 0 242 -82t82 -273q0 -190 -82 -273.5t-242 -83.5q-161 0 -242.5 83.5t-81.5 273.5zM615 309v78q0 128 -60 188t-181 60t-181.5 -60t-60.5 -188v-78q0 -127 60.5 -190.5t181.5 -63.5t181 63.5t60 190.5zM341 758l-139 142h104
l114 -142h-79z" />
    <glyph glyph-name="Oacute" unicode="&#xd3;" horiz-adv-x="747" 
d="M50 346q0 191 81.5 273t242.5 82q160 0 242 -82t82 -273q0 -190 -82 -273.5t-242 -83.5q-161 0 -242.5 83.5t-81.5 273.5zM615 309v78q0 128 -60 188t-181 60t-181.5 -60t-60.5 -188v-78q0 -127 60.5 -190.5t181.5 -63.5t181 63.5t60 190.5zM334 758l115 142h102
l-142 -142h-75z" />
    <glyph glyph-name="Ocircumflex" unicode="&#xd4;" horiz-adv-x="747" 
d="M50 346q0 191 81.5 273t242.5 82q160 0 242 -82t82 -273q0 -190 -82 -273.5t-242 -83.5q-161 0 -242.5 83.5t-81.5 273.5zM615 309v78q0 128 -60 188t-181 60t-181.5 -60t-60.5 -188v-78q0 -127 60.5 -190.5t181.5 -63.5t181 63.5t60 190.5zM190 758l147 142h71l148 -142
h-87l-98 89l-97 -89h-84z" />
    <glyph glyph-name="Otilde" unicode="&#xd5;" horiz-adv-x="747" 
d="M50 346q0 191 81.5 273t242.5 82q160 0 242 -82t82 -273q0 -190 -82 -273.5t-242 -83.5q-161 0 -242.5 83.5t-81.5 273.5zM615 309v78q0 128 -60 188t-181 60t-181.5 -60t-60.5 -188v-78q0 -127 60.5 -190.5t181.5 -63.5t181 63.5t60 190.5zM302 894q28 0 47.5 -11
t34.5 -24.5t27.5 -24.5t27.5 -11q20 0 28 20.5t8 49.5h56q0 -58 -20.5 -92.5t-66.5 -34.5q-28 0 -47.5 11.5t-34.5 24.5t-27.5 24.5t-27.5 11.5q-20 0 -28.5 -20t-8.5 -51h-55q0 58 20.5 92.5t66.5 34.5z" />
    <glyph glyph-name="Odieresis" unicode="&#xd6;" horiz-adv-x="747" 
d="M50 346q0 191 81.5 273t242.5 82q160 0 242 -82t82 -273q0 -190 -82 -273.5t-242 -83.5q-161 0 -242.5 83.5t-81.5 273.5zM615 309v78q0 128 -60 188t-181 60t-181.5 -60t-60.5 -188v-78q0 -127 60.5 -190.5t181.5 -63.5t181 63.5t60 190.5zM214 826q0 24 13 36.5
t38 12.5t38.5 -12.5t13.5 -36.5q0 -25 -13.5 -37.5t-38.5 -12.5t-38 12.5t-13 37.5zM431 826q0 24 13 36.5t38 12.5t38 -12.5t13 -36.5q0 -25 -13 -37.5t-38 -12.5t-38 12.5t-13 37.5z" />
    <glyph glyph-name="multiply" unicode="&#xd7;" horiz-adv-x="598" 
d="M49 160l201 193l-201 194l48 49l202 -195l202 194l48 -48l-200 -194l200 -193l-48 -50l-202 195l-202 -195z" />
    <glyph glyph-name="Oslash" unicode="&#xd8;" horiz-adv-x="748" 
d="M51 346q0 191 81.5 273t242.5 82q56 0 102.5 -9.5t83.5 -29.5l54 73h81l-82 -112q42 -42 63.5 -110.5t21.5 -166.5q0 -190 -82 -273.5t-242 -83.5q-60 0 -109.5 11t-86.5 34l-55 -74h-81l86 116q-39 43 -58.5 110t-19.5 160zM133 309q0 -54 10.5 -96t32.5 -73l342 464
q-28 16 -63.5 23.5t-79.5 7.5q-121 0 -181.5 -60t-60.5 -188v-78zM616 309v78q0 57 -12 101t-36 74l-345 -468q28 -19 66.5 -29t85.5 -10q121 0 181 63.5t60 190.5z" />
    <glyph glyph-name="Ugrave" unicode="&#xd9;" horiz-adv-x="683" 
d="M75 246v444h81v-443q0 -105 48.5 -149t141.5 -44q92 0 140.5 44t48.5 149v443h74v-444q0 -123 -62.5 -190t-200.5 -67q-141 0 -206 67t-65 190zM323 758l-139 142h104l114 -142h-79z" />
    <glyph glyph-name="Uacute" unicode="&#xda;" horiz-adv-x="683" 
d="M75 246v444h81v-443q0 -105 48.5 -149t141.5 -44q92 0 140.5 44t48.5 149v443h74v-444q0 -123 -62.5 -190t-200.5 -67q-141 0 -206 67t-65 190zM307 758l115 142h102l-142 -142h-75z" />
    <glyph glyph-name="Ucircumflex" unicode="&#xdb;" horiz-adv-x="683" 
d="M75 246v444h81v-443q0 -105 48.5 -149t141.5 -44q92 0 140.5 44t48.5 149v443h74v-444q0 -123 -62.5 -190t-200.5 -67q-141 0 -206 67t-65 190zM159 758l147 142h71l148 -142h-87l-98 89l-97 -89h-84z" />
    <glyph glyph-name="Udieresis" unicode="&#xdc;" horiz-adv-x="683" 
d="M75 246v444h81v-443q0 -105 48.5 -149t141.5 -44q92 0 140.5 44t48.5 149v443h74v-444q0 -123 -62.5 -190t-200.5 -67q-141 0 -206 67t-65 190zM187 826q0 24 13 36.5t38 12.5t38.5 -12.5t13.5 -36.5q0 -25 -13.5 -37.5t-38.5 -12.5t-38 12.5t-13 37.5zM404 826
q0 24 13 36.5t38 12.5t38 -12.5t13 -36.5q0 -25 -13 -37.5t-38 -12.5t-38 12.5t-13 37.5z" />
    <glyph glyph-name="Yacute" unicode="&#xdd;" horiz-adv-x="628" 
d="M275 306l-270 384h90l225 -321l219 321h80l-262 -385v-305h-82v306zM279 758l115 142h102l-142 -142h-75z" />
    <glyph glyph-name="Thorn" unicode="&#xde;" horiz-adv-x="634" 
d="M81 690h81v-122h222q108 0 159 -54t51 -149q0 -96 -51 -150t-159 -54h-222v-161h-81v690zM511 345v36q0 52 -32 86t-104 34h-213v-274h213q71 0 103.5 33.5t32.5 84.5z" />
    <glyph glyph-name="germandbls" unicode="&#xdf;" horiz-adv-x="592" 
d="M229 60h92q85 0 119 33t34 105v23q0 65 -33.5 101t-113.5 36h-100v59h67q84 0 115.5 28t31.5 91v18q0 60 -30.5 89.5t-107.5 29.5q-82 0 -117.5 -40t-35.5 -144v-489h-76v509q0 68 18 111.5t49 68.5t73 34.5t89 9.5q108 0 161.5 -46t53.5 -138q0 -49 -21.5 -94t-84.5 -61
q65 -9 102 -55t37 -135q0 -103 -56 -153.5t-166 -50.5h-100v60z" />
    <glyph glyph-name="agrave" unicode="&#xe0;" horiz-adv-x="554" 
d="M42 132q0 67 41.5 104t148.5 44l178 12v15q0 76 -34 109t-105 33q-54 0 -89 -19.5t-46 -69.5h-78q12 72 65 108.5t148 36.5q108 0 161.5 -47t53.5 -151v-307h-72v86q-27 -46 -78.5 -71.5t-120.5 -25.5q-88 0 -130.5 37.5t-42.5 105.5zM120 128q0 -40 27.5 -61.5
t81.5 -21.5q35 0 68 8.5t58 28t40 51t15 76.5v32l-168 -12q-63 -5 -92.5 -24.5t-29.5 -63.5v-13zM106 734h100l112 -165h-74z" />
    <glyph glyph-name="aacute" unicode="&#xe1;" horiz-adv-x="554" 
d="M42 132q0 67 41.5 104t148.5 44l178 12v15q0 76 -34 109t-105 33q-54 0 -89 -19.5t-46 -69.5h-78q12 72 65 108.5t148 36.5q108 0 161.5 -47t53.5 -151v-307h-72v86q-27 -46 -78.5 -71.5t-120.5 -25.5q-88 0 -130.5 37.5t-42.5 105.5zM120 128q0 -40 27.5 -61.5
t81.5 -21.5q35 0 68 8.5t58 28t40 51t15 76.5v32l-168 -12q-63 -5 -92.5 -24.5t-29.5 -63.5v-13zM234 569l112 165h96l-138 -165h-70z" />
    <glyph glyph-name="acircumflex" unicode="&#xe2;" horiz-adv-x="554" 
d="M42 132q0 67 41.5 104t148.5 44l178 12v15q0 76 -34 109t-105 33q-54 0 -89 -19.5t-46 -69.5h-78q12 72 65 108.5t148 36.5q108 0 161.5 -47t53.5 -151v-307h-72v86q-27 -46 -78.5 -71.5t-120.5 -25.5q-88 0 -130.5 37.5t-42.5 105.5zM120 128q0 -40 27.5 -61.5
t81.5 -21.5q35 0 68 8.5t58 28t40 51t15 76.5v32l-168 -12q-63 -5 -92.5 -24.5t-29.5 -63.5v-13zM104 563l133 165h69l134 -165h-80l-90 108l-89 -108h-77z" />
    <glyph glyph-name="atilde" unicode="&#xe3;" horiz-adv-x="554" 
d="M42 132q0 67 41.5 104t148.5 44l178 12v15q0 76 -34 109t-105 33q-54 0 -89 -19.5t-46 -69.5h-78q12 72 65 108.5t148 36.5q108 0 161.5 -47t53.5 -151v-307h-72v86q-27 -46 -78.5 -71.5t-120.5 -25.5q-88 0 -130.5 37.5t-42.5 105.5zM120 128q0 -40 27.5 -61.5
t81.5 -21.5q35 0 68 8.5t58 28t40 51t15 76.5v32l-168 -12q-63 -5 -92.5 -24.5t-29.5 -63.5v-13zM203 729q28 0 47 -15t33 -33t26 -33t27 -15q20 0 28.5 27t8.5 67h55q0 -69 -21 -110.5t-68 -41.5q-28 0 -47 15t-33 33t-26 33t-26 15q-21 0 -29 -27.5t-8 -67.5h-55
q0 69 21 111t67 42z" />
    <glyph glyph-name="adieresis" unicode="&#xe4;" horiz-adv-x="554" 
d="M42 132q0 67 41.5 104t148.5 44l178 12v15q0 76 -34 109t-105 33q-54 0 -89 -19.5t-46 -69.5h-78q12 72 65 108.5t148 36.5q108 0 161.5 -47t53.5 -151v-307h-72v86q-27 -46 -78.5 -71.5t-120.5 -25.5q-88 0 -130.5 37.5t-42.5 105.5zM120 128q0 -40 27.5 -61.5
t81.5 -21.5q35 0 68 8.5t58 28t40 51t15 76.5v32l-168 -12q-63 -5 -92.5 -24.5t-29.5 -63.5v-13zM119 653q0 24 13 36.5t38 12.5t38.5 -12.5t13.5 -36.5q0 -25 -13.5 -37.5t-38.5 -12.5t-38 12.5t-13 37.5zM321 653q0 24 13 36.5t38 12.5t38 -12.5t13 -36.5q0 -25 -13 -37.5
t-38 -12.5t-38 12.5t-13 37.5z" />
    <glyph glyph-name="aring" unicode="&#xe5;" horiz-adv-x="554" 
d="M42 132q0 67 41.5 104t148.5 44l178 12v15q0 76 -34 109t-105 33q-54 0 -89 -19.5t-46 -69.5h-78q12 72 65 108.5t148 36.5q108 0 161.5 -47t53.5 -151v-307h-72v86q-27 -46 -78.5 -71.5t-120.5 -25.5q-88 0 -130.5 37.5t-42.5 105.5zM120 128q0 -40 27.5 -61.5
t81.5 -21.5q35 0 68 8.5t58 28t40 51t15 76.5v32l-168 -12q-63 -5 -92.5 -24.5t-29.5 -63.5v-13zM158 651q0 43 28.5 67t84.5 24q57 0 86 -24t29 -67q0 -44 -29 -67.5t-86 -23.5q-56 0 -84.5 23.5t-28.5 67.5zM331 651q0 22 -13.5 34.5t-45.5 12.5q-33 0 -46 -12.5
t-13 -34.5t13 -34.5t46 -12.5q32 0 45.5 12.5t13.5 34.5z" />
    <glyph glyph-name="ae" unicode="&#xe6;" horiz-adv-x="916" 
d="M42 135q0 71 42 113.5t152 42.5h181v17q0 75 -35 108t-108 33q-54 0 -90.5 -19.5t-47.5 -69.5h-78q12 72 66 108.5t150 36.5q73 0 120.5 -23t68.5 -71q27 49 74 71.5t111 22.5q108 0 167.5 -58t59.5 -183v-24h-382v-24q0 -86 39.5 -128.5t112.5 -42.5q64 0 100 23.5
t47 68.5h76q-16 -72 -72 -110t-151 -38q-73 0 -123 29.5t-73 95.5q-22 -58 -79.5 -91.5t-142.5 -33.5q-94 0 -139.5 38.5t-45.5 107.5zM645 449q-72 0 -111 -36.5t-41 -121.5h306q-3 86 -41.5 122t-112.5 36zM238 45q35 0 67.5 8.5t57 27.5t39.5 50t15 75v34h-171
q-68 0 -97 -24t-29 -73v-13q0 -41 29.5 -63t88.5 -22z" />
    <glyph glyph-name="ccedilla" unicode="&#xe7;" horiz-adv-x="525" 
d="M44 245q0 134 57 197t172 63q94 0 150 -35.5t67 -111.5h-78q-10 50 -46 70t-93 20q-77 0 -114.5 -40.5t-37.5 -127.5v-67q0 -92 43 -129.5t109 -37.5q63 0 96.5 23.5t43.5 66.5h77q-12 -74 -68 -110.5t-149 -36.5q-105 0 -167 55.5t-62 200.5zM208 -205v48q37 0 58.5 1.5
t32.5 5.5t14.5 11t3.5 18q0 21 -20 27t-77 7v87h54v-47q49 -4 81 -18t32 -60q0 -40 -29.5 -60t-89.5 -20h-60z" />
    <glyph glyph-name="egrave" unicode="&#xe8;" horiz-adv-x="543" 
d="M44 247q0 137 59.5 197.5t168.5 60.5q110 0 170 -57.5t60 -179.5v-24h-382v-28q0 -86 39.5 -128.5t112.5 -42.5q64 0 100 23.5t47 68.5h76q-16 -72 -72 -110t-151 -38q-109 0 -168.5 60t-59.5 198zM272 449q-71 0 -110 -35.5t-42 -118.5h306q-3 84 -41.5 119t-112.5 35z
M103 734h100l112 -165h-74z" />
    <glyph glyph-name="eacute" unicode="&#xe9;" horiz-adv-x="543" 
d="M44 247q0 137 59.5 197.5t168.5 60.5q110 0 170 -57.5t60 -179.5v-24h-382v-28q0 -86 39.5 -128.5t112.5 -42.5q64 0 100 23.5t47 68.5h76q-16 -72 -72 -110t-151 -38q-109 0 -168.5 60t-59.5 198zM272 449q-71 0 -110 -35.5t-42 -118.5h306q-3 84 -41.5 119t-112.5 35z
M229 569l112 165h96l-138 -165h-70z" />
    <glyph glyph-name="ecircumflex" unicode="&#xea;" horiz-adv-x="543" 
d="M44 247q0 137 59.5 197.5t168.5 60.5q110 0 170 -57.5t60 -179.5v-24h-382v-28q0 -86 39.5 -128.5t112.5 -42.5q64 0 100 23.5t47 68.5h76q-16 -72 -72 -110t-151 -38q-109 0 -168.5 60t-59.5 198zM272 449q-71 0 -110 -35.5t-42 -118.5h306q-3 84 -41.5 119t-112.5 35z
M105 569l133 165h69l134 -165h-80l-90 108l-89 -108h-77z" />
    <glyph glyph-name="edieresis" unicode="&#xeb;" horiz-adv-x="543" 
d="M44 247q0 137 59.5 197.5t168.5 60.5q110 0 170 -57.5t60 -179.5v-24h-382v-28q0 -86 39.5 -128.5t112.5 -42.5q64 0 100 23.5t47 68.5h76q-16 -72 -72 -110t-151 -38q-109 0 -168.5 60t-59.5 198zM272 449q-71 0 -110 -35.5t-42 -118.5h306q-3 84 -41.5 119t-112.5 35z
M121 653q0 24 13 36.5t38 12.5t38.5 -12.5t13.5 -36.5q0 -25 -13.5 -37.5t-38.5 -12.5t-38 12.5t-13 37.5zM323 653q0 24 13 36.5t38 12.5t38 -12.5t13 -36.5q0 -25 -13 -37.5t-38 -12.5t-38 12.5t-13 37.5z" />
    <glyph glyph-name="igrave" unicode="&#xec;" horiz-adv-x="224" 
d="M74 494h76v-494h-76v494zM-64 734h100l112 -165h-74z" />
    <glyph glyph-name="iacute" unicode="&#xed;" horiz-adv-x="224" 
d="M74 494h76v-494h-76v494zM77 569l112 165h96l-138 -165h-70z" />
    <glyph glyph-name="icircumflex" unicode="&#xee;" horiz-adv-x="224" 
d="M74 494h76v-494h-76v494zM-55 569l133 165h69l134 -165h-80l-90 108l-89 -108h-77z" />
    <glyph glyph-name="idieresis" unicode="&#xef;" horiz-adv-x="224" 
d="M74 494h76v-494h-76v494zM-40 653q0 24 13 36.5t38 12.5t38.5 -12.5t13.5 -36.5q0 -25 -13.5 -37.5t-38.5 -12.5t-38 12.5t-13 37.5zM162 653q0 24 13 36.5t38 12.5t38 -12.5t13 -36.5q0 -25 -13 -37.5t-38 -12.5t-38 12.5t-13 37.5z" />
    <glyph glyph-name="eth" unicode="&#xf0;" horiz-adv-x="586" 
d="M43 245q0 124 65 178.5t169 54.5q70 0 114.5 -25t63.5 -72q-9 82 -37 137.5t-71 89.5l-172 -90l-25 44l147 77q-37 17 -80.5 26t-91.5 12v54q64 -3 125.5 -16t112.5 -42l126 66l24 -44l-104 -55q52 -45 84 -122t32 -196v-65q0 -140 -59 -204t-181 -64q-120 0 -181 60.5
t-61 195.5zM449 217v34q0 89 -41.5 131t-122.5 42q-90 0 -127 -38t-37 -118v-51q0 -78 38.5 -124.5t125.5 -46.5t125.5 46.5t38.5 124.5z" />
    <glyph glyph-name="ntilde" unicode="&#xf1;" horiz-adv-x="581" 
d="M437 0v309q0 82 -35 110.5t-100 28.5q-69 0 -110.5 -32t-41.5 -109v-307h-76v494h73v-81q22 49 69 70.5t105 21.5q93 0 143 -45.5t50 -146.5v-313h-77zM227 729q28 0 47 -15t33 -33t26 -33t27 -15q20 0 28.5 27t8.5 67h55q0 -69 -21 -110.5t-68 -41.5q-28 0 -47 15
t-33 33t-26 33t-26 15q-21 0 -29 -27.5t-8 -67.5h-55q0 69 21 111t67 42z" />
    <glyph glyph-name="ograve" unicode="&#xf2;" horiz-adv-x="570" 
d="M44 247q0 140 63.5 199t177.5 59q116 0 178.5 -59t62.5 -199q0 -143 -62.5 -200.5t-178.5 -57.5q-114 0 -177.5 57.5t-63.5 200.5zM449 217v61q0 88 -43 129t-121 41t-121 -41t-43 -129v-62q0 -87 43 -128.5t121 -41.5t121 41.5t43 129.5zM111 734h100l112 -165h-74z" />
    <glyph glyph-name="oacute" unicode="&#xf3;" horiz-adv-x="570" 
d="M44 247q0 140 63.5 199t177.5 59q116 0 178.5 -59t62.5 -199q0 -143 -62.5 -200.5t-178.5 -57.5q-114 0 -177.5 57.5t-63.5 200.5zM449 217v61q0 88 -43 129t-121 41t-121 -41t-43 -129v-62q0 -87 43 -128.5t121 -41.5t121 41.5t43 129.5zM238 569l112 165h96l-138 -165
h-70z" />
    <glyph glyph-name="ocircumflex" unicode="&#xf4;" horiz-adv-x="570" 
d="M44 247q0 140 63.5 199t177.5 59q116 0 178.5 -59t62.5 -199q0 -143 -62.5 -200.5t-178.5 -57.5q-114 0 -177.5 57.5t-63.5 200.5zM449 217v61q0 88 -43 129t-121 41t-121 -41t-43 -129v-62q0 -87 43 -128.5t121 -41.5t121 41.5t43 129.5zM118 569l133 165h69l134 -165
h-80l-90 108l-89 -108h-77z" />
    <glyph glyph-name="otilde" unicode="&#xf5;" horiz-adv-x="570" 
d="M44 247q0 140 63.5 199t177.5 59q116 0 178.5 -59t62.5 -199q0 -143 -62.5 -200.5t-178.5 -57.5q-114 0 -177.5 57.5t-63.5 200.5zM449 217v61q0 88 -43 129t-121 41t-121 -41t-43 -129v-62q0 -87 43 -128.5t121 -41.5t121 41.5t43 129.5zM216 729q28 0 47 -15t33 -33
t26 -33t27 -15q20 0 28.5 27t8.5 67h55q0 -69 -21 -110.5t-68 -41.5q-28 0 -47 15t-33 33t-26 33t-26 15q-21 0 -29 -27.5t-8 -67.5h-55q0 69 21 111t67 42z" />
    <glyph glyph-name="odieresis" unicode="&#xf6;" horiz-adv-x="570" 
d="M44 247q0 140 63.5 199t177.5 59q116 0 178.5 -59t62.5 -199q0 -143 -62.5 -200.5t-178.5 -57.5q-114 0 -177.5 57.5t-63.5 200.5zM449 217v61q0 88 -43 129t-121 41t-121 -41t-43 -129v-62q0 -87 43 -128.5t121 -41.5t121 41.5t43 129.5zM132 653q0 24 13 36.5t38 12.5
t38.5 -12.5t13.5 -36.5q0 -25 -13.5 -37.5t-38.5 -12.5t-38 12.5t-13 37.5zM334 653q0 24 13 36.5t38 12.5t38 -12.5t13 -36.5q0 -25 -13 -37.5t-38 -12.5t-38 12.5t-13 37.5z" />
    <glyph glyph-name="divide" unicode="&#xf7;" horiz-adv-x="627" 
d="M260 552q0 25 14 37.5t39 12.5q26 0 40 -12.5t14 -37.5t-14 -38t-40 -13q-25 0 -39 13t-14 38zM58 387h510v-68h-510v68zM260 155q0 25 14 37.5t39 12.5q26 0 40 -12.5t14 -37.5t-14 -37.5t-40 -12.5q-25 0 -39 12.5t-14 37.5z" />
    <glyph glyph-name="oslash" unicode="&#xf8;" horiz-adv-x="570" 
d="M44 247q0 140 63.5 199t177.5 59q32 0 60.5 -4t52.5 -13l40 64h68l-58 -92q38 -30 58 -82.5t20 -130.5q0 -143 -62.5 -200.5t-178.5 -57.5q-34 0 -64 4.5t-55 14.5l-33 -53h-68l52 82q-36 30 -54.5 81.5t-18.5 128.5zM120 216q0 -39 9 -68.5t25 -50.5l211 338
q-17 7 -37 10t-43 3q-79 0 -122 -41t-43 -129v-62zM450 217v61q0 41 -9.5 72t-28.5 52l-212 -340q17 -8 38.5 -12t46.5 -4q79 0 122 41.5t43 129.5z" />
    <glyph glyph-name="ugrave" unicode="&#xf9;" horiz-adv-x="581" 
d="M68 184v310h76v-309q0 -82 35 -110t100 -28q66 0 109 31t43 109v307h77v-494h-76v76q-22 -46 -67 -66.5t-105 -20.5q-93 0 -142.5 45t-49.5 150zM119 734h100l112 -165h-74z" />
    <glyph glyph-name="uacute" unicode="&#xfa;" horiz-adv-x="581" 
d="M68 184v310h76v-309q0 -82 35 -110t100 -28q66 0 109 31t43 109v307h77v-494h-76v76q-22 -46 -67 -66.5t-105 -20.5q-93 0 -142.5 45t-49.5 150zM245 569l112 165h96l-138 -165h-70z" />
    <glyph glyph-name="ucircumflex" unicode="&#xfb;" horiz-adv-x="581" 
d="M68 184v310h76v-309q0 -82 35 -110t100 -28q66 0 109 31t43 109v307h77v-494h-76v76q-22 -46 -67 -66.5t-105 -20.5q-93 0 -142.5 45t-49.5 150zM120 569l133 165h69l134 -165h-80l-90 108l-89 -108h-77z" />
    <glyph glyph-name="udieresis" unicode="&#xfc;" horiz-adv-x="581" 
d="M68 184v310h76v-309q0 -82 35 -110t100 -28q66 0 109 31t43 109v307h77v-494h-76v76q-22 -46 -67 -66.5t-105 -20.5q-93 0 -142.5 45t-49.5 150zM136 653q0 24 13 36.5t38 12.5t38.5 -12.5t13.5 -36.5q0 -25 -13.5 -37.5t-38.5 -12.5t-38 12.5t-13 37.5zM338 653
q0 24 13 36.5t38 12.5t38 -12.5t13 -36.5q0 -25 -13 -37.5t-38 -12.5t-38 12.5t-13 37.5z" />
    <glyph glyph-name="yacute" unicode="&#xfd;" horiz-adv-x="509" 
d="M49 -140h42q47 0 70.5 16.5t42.5 65.5l17 43l-212 509h81l170 -415l167 415h72l-231 -566q-29 -74 -64.5 -101t-104.5 -27h-50v60zM217 569l112 165h96l-138 -165h-70z" />
    <glyph glyph-name="thorn" unicode="&#xfe;" horiz-adv-x="599" 
d="M74 730h76v-313q27 46 72.5 67t105.5 21q109 0 168 -59t59 -199t-58.5 -199t-168.5 -59q-60 0 -105.5 20.5t-72.5 66.5v-276h-76v930zM478 216v63q0 90 -44.5 129.5t-119.5 39.5q-78 0 -121 -39.5t-43 -129.5v-63q0 -87 44.5 -128.5t119.5 -41.5t119.5 42t44.5 128z" />
    <glyph glyph-name="ydieresis" unicode="&#xff;" horiz-adv-x="509" 
d="M49 -140h42q47 0 70.5 16.5t42.5 65.5l17 43l-212 509h81l170 -415l167 415h72l-231 -566q-29 -74 -64.5 -101t-104.5 -27h-50v60zM104 653q0 24 13 36.5t38 12.5t38.5 -12.5t13.5 -36.5q0 -25 -13.5 -37.5t-38.5 -12.5t-38 12.5t-13 37.5zM306 653q0 24 13 36.5t38 12.5
t38 -12.5t13 -36.5q0 -25 -13 -37.5t-38 -12.5t-38 12.5t-13 37.5z" />
    <glyph glyph-name="Amacron" unicode="&#x100;" horiz-adv-x="651" 
d="M267 690h117l258 -690h-84l-74 200h-325l-74 -200h-76zM183 264h277l-139 372zM180 807v56h289v-56h-289z" />
    <glyph glyph-name="amacron" unicode="&#x101;" horiz-adv-x="554" 
d="M42 132q0 67 41.5 104t148.5 44l178 12v15q0 76 -34 109t-105 33q-54 0 -89 -19.5t-46 -69.5h-78q12 72 65 108.5t148 36.5q108 0 161.5 -47t53.5 -151v-307h-72v86q-27 -46 -78.5 -71.5t-120.5 -25.5q-88 0 -130.5 37.5t-42.5 105.5zM120 128q0 -40 27.5 -61.5
t81.5 -21.5q35 0 68 8.5t58 28t40 51t15 76.5v32l-168 -12q-63 -5 -92.5 -24.5t-29.5 -63.5v-13zM128 624v55h290v-55h-290z" />
    <glyph glyph-name="Abreve" unicode="&#x102;" horiz-adv-x="651" 
d="M267 690h117l258 -690h-84l-74 200h-325l-74 -200h-76zM183 264h277l-139 372zM172 900h66q0 -45 21 -65.5t67 -20.5q45 0 66 20.5t22 65.5h66q-1 -69 -39.5 -106.5t-114.5 -37.5t-115 37.5t-39 106.5z" />
    <glyph glyph-name="abreve" unicode="&#x103;" horiz-adv-x="554" 
d="M42 132q0 67 41.5 104t148.5 44l178 12v15q0 76 -34 109t-105 33q-54 0 -89 -19.5t-46 -69.5h-78q12 72 65 108.5t148 36.5q108 0 161.5 -47t53.5 -151v-307h-72v86q-27 -46 -78.5 -71.5t-120.5 -25.5q-88 0 -130.5 37.5t-42.5 105.5zM120 128q0 -40 27.5 -61.5
t81.5 -21.5q35 0 68 8.5t58 28t40 51t15 76.5v32l-168 -12q-63 -5 -92.5 -24.5t-29.5 -63.5v-13zM121 728h66q0 -51 20 -76.5t65 -25.5q44 0 65 25.5t21 76.5h66q0 -78 -38.5 -119t-113.5 -41q-74 0 -112.5 41t-38.5 119z" />
    <glyph glyph-name="Aogonek" unicode="&#x104;" horiz-adv-x="651" 
d="M620 -189q-65 0 -101.5 24t-36.5 70q0 36 20 60t55 39l-73 196h-325l-74 -200h-76l258 690h117l258 -690h-15q-43 -11 -61 -31.5t-18 -46.5q0 -28 24 -42.5t80 -14.5v-54h-32zM183 264h277l-139 372z" />
    <glyph glyph-name="aogonek" unicode="&#x105;" horiz-adv-x="554" 
d="M42 132q0 67 41.5 104t148.5 44l178 12v15q0 76 -34 109t-105 33q-54 0 -89 -19.5t-46 -69.5h-78q12 72 65 108.5t148 36.5q108 0 161.5 -47t53.5 -151v-307h-14q-42 -10 -59.5 -30.5t-17.5 -48.5t24 -42t78 -14v-54h-30q-63 0 -100.5 24t-37.5 72q0 40 23.5 66t61.5 37
v76q-27 -46 -78.5 -71.5t-120.5 -25.5q-88 0 -130.5 37.5t-42.5 105.5zM120 128q0 -40 27.5 -61.5t81.5 -21.5q35 0 68 8.5t58 28t40 51t15 76.5v32l-168 -12q-63 -5 -92.5 -24.5t-29.5 -63.5v-13z" />
    <glyph glyph-name="Cacute" unicode="&#x106;" horiz-adv-x="667" 
d="M50 345q0 190 79 273t223 83q130 0 198 -49.5t81 -159.5h-82q-13 83 -60 113t-137 30q-101 0 -160.5 -59t-59.5 -190v-77q0 -128 58.5 -191t162.5 -63q86 0 134 28.5t63 107.5h82q-16 -107 -84 -154.5t-196 -47.5q-144 0 -223 83t-79 273zM305 758l115 142h102l-142 -142
h-75z" />
    <glyph glyph-name="cacute" unicode="&#x107;" horiz-adv-x="525" 
d="M44 245q0 134 57 197t172 63q94 0 150 -35.5t67 -111.5h-78q-10 50 -46 70t-93 20q-77 0 -114.5 -40.5t-37.5 -127.5v-67q0 -92 43 -129.5t109 -37.5q63 0 96.5 23.5t43.5 66.5h77q-12 -74 -68 -110.5t-149 -36.5q-105 0 -167 55.5t-62 200.5zM227 569l112 165h96
l-138 -165h-70z" />
    <glyph glyph-name="Ccircumflex" unicode="&#x108;" horiz-adv-x="667" 
d="M50 345q0 190 79 273t223 83q130 0 198 -49.5t81 -159.5h-82q-13 83 -60 113t-137 30q-101 0 -160.5 -59t-59.5 -190v-77q0 -128 58.5 -191t162.5 -63q86 0 134 28.5t63 107.5h82q-16 -107 -84 -154.5t-196 -47.5q-144 0 -223 83t-79 273zM173 758l147 142h71l148 -142
h-87l-98 89l-97 -89h-84z" />
    <glyph glyph-name="ccircumflex" unicode="&#x109;" horiz-adv-x="525" 
d="M44 245q0 134 57 197t172 63q94 0 150 -35.5t67 -111.5h-78q-10 50 -46 70t-93 20q-77 0 -114.5 -40.5t-37.5 -127.5v-67q0 -92 43 -129.5t109 -37.5q63 0 96.5 23.5t43.5 66.5h77q-12 -74 -68 -110.5t-149 -36.5q-105 0 -167 55.5t-62 200.5zM101 563l133 165h69
l134 -165h-80l-90 108l-89 -108h-77z" />
    <glyph glyph-name="Cdotaccent" unicode="&#x10a;" horiz-adv-x="667" 
d="M50 345q0 190 79 273t223 83q130 0 198 -49.5t81 -159.5h-82q-13 83 -60 113t-137 30q-101 0 -160.5 -59t-59.5 -190v-77q0 -128 58.5 -191t162.5 -63q86 0 134 28.5t63 107.5h82q-16 -107 -84 -154.5t-196 -47.5q-144 0 -223 83t-79 273zM298 828q0 24 14.5 36.5
t42.5 12.5t43 -12.5t15 -36.5q0 -25 -15 -37t-43 -12t-42.5 12t-14.5 37z" />
    <glyph glyph-name="cdotaccent" unicode="&#x10b;" horiz-adv-x="525" 
d="M44 245q0 134 57 197t172 63q94 0 150 -35.5t67 -111.5h-78q-10 50 -46 70t-93 20q-77 0 -114.5 -40.5t-37.5 -127.5v-67q0 -92 43 -129.5t109 -37.5q63 0 96.5 23.5t43.5 66.5h77q-12 -74 -68 -110.5t-149 -36.5q-105 0 -167 55.5t-62 200.5zM220 658q0 24 13 36.5
t38 12.5q26 0 40 -12.5t14 -36.5q0 -25 -14 -38t-40 -13q-25 0 -38 13t-13 38z" />
    <glyph glyph-name="Ccaron" unicode="&#x10c;" horiz-adv-x="667" 
d="M50 345q0 190 79 273t223 83q130 0 198 -49.5t81 -159.5h-82q-13 83 -60 113t-137 30q-101 0 -160.5 -59t-59.5 -190v-77q0 -128 58.5 -191t162.5 -63q86 0 134 28.5t63 107.5h82q-16 -107 -84 -154.5t-196 -47.5q-144 0 -223 83t-79 273zM169 901h88l97 -89l97 89h84
l-146 -142h-72z" />
    <glyph glyph-name="ccaron" unicode="&#x10d;" horiz-adv-x="525" 
d="M44 245q0 134 57 197t172 63q94 0 150 -35.5t67 -111.5h-78q-10 50 -46 70t-93 20q-77 0 -114.5 -40.5t-37.5 -127.5v-67q0 -92 43 -129.5t109 -37.5q63 0 96.5 23.5t43.5 66.5h77q-12 -74 -68 -110.5t-149 -36.5q-105 0 -167 55.5t-62 200.5zM101 734h80l90 -108l89 108
h77l-133 -165h-69z" />
    <glyph glyph-name="Dcaron" unicode="&#x10e;" horiz-adv-x="715" 
d="M81 690h269q157 0 236.5 -82t79.5 -263q0 -175 -79.5 -260t-236.5 -85h-269v690zM349 68q113 0 174 61t61 183v72q0 123 -61 180.5t-174 57.5h-187v-554h187zM143 900h88l97 -89l97 89h84l-146 -142h-72z" />
    <glyph glyph-name="dcaron" unicode="&#x10f;" horiz-adv-x="620" 
d="M44 243q0 141 59.5 201.5t169.5 60.5q60 0 104.5 -19.5t71.5 -64.5v309h77v-730h-73v82q-26 -48 -72 -70.5t-108 -22.5q-107 0 -168 58.5t-61 195.5zM449 216v63q0 88 -44.5 128.5t-119.5 40.5t-119.5 -41t-44.5 -132v-63q0 -84 45 -125t119 -41q75 0 119.5 41.5
t44.5 128.5zM586 574l11 156h76l-31 -156h-56z" />
    <glyph glyph-name="Dcroat" unicode="&#x110;" horiz-adv-x="764" 
d="M27 321v64h103v305h269q157 0 236.5 -82t79.5 -263q0 -175 -79.5 -260t-236.5 -85h-269v321h-103zM398 68q113 0 174 61t61 183v72q0 123 -61 180.5t-174 57.5h-187v-237h191v-64h-191v-253h187z" />
    <glyph glyph-name="dcroat" unicode="&#x111;" horiz-adv-x="599" 
d="M44 243q0 141 59.5 201.5t169.5 60.5q60 0 104.5 -19.5t71.5 -64.5v156h-162v54h162v99h77v-99h81v-54h-81v-577h-73v82q-26 -48 -72 -70.5t-108 -22.5q-107 0 -168 58.5t-61 195.5zM449 216v63q0 88 -44.5 128.5t-119.5 40.5t-119.5 -41t-44.5 -132v-63q0 -84 45 -125
t119 -41q75 0 119.5 41.5t44.5 128.5z" />
    <glyph glyph-name="Emacron" unicode="&#x112;" horiz-adv-x="581" 
d="M81 690h454v-66h-373v-239h316v-66h-316v-253h377v-66h-458v690zM166 807v56h289v-56h-289z" />
    <glyph glyph-name="emacron" unicode="&#x113;" horiz-adv-x="543" 
d="M44 247q0 137 59.5 197.5t168.5 60.5q110 0 170 -57.5t60 -179.5v-24h-382v-28q0 -86 39.5 -128.5t112.5 -42.5q64 0 100 23.5t47 68.5h76q-16 -72 -72 -110t-151 -38q-109 0 -168.5 60t-59.5 198zM272 449q-71 0 -110 -35.5t-42 -118.5h306q-3 84 -41.5 119t-112.5 35z
M129 624v55h290v-55h-290z" />
    <glyph glyph-name="Ebreve" unicode="&#x114;" horiz-adv-x="581" 
d="M81 690h454v-66h-373v-239h316v-66h-316v-253h377v-66h-458v690zM157 900h66q0 -45 21 -65.5t67 -20.5q45 0 66 20.5t22 65.5h66q-1 -69 -39.5 -106.5t-114.5 -37.5t-115 37.5t-39 106.5z" />
    <glyph glyph-name="ebreve" unicode="&#x115;" horiz-adv-x="543" 
d="M44 247q0 137 59.5 197.5t168.5 60.5q110 0 170 -57.5t60 -179.5v-24h-382v-28q0 -86 39.5 -128.5t112.5 -42.5q64 0 100 23.5t47 68.5h76q-16 -72 -72 -110t-151 -38q-109 0 -168.5 60t-59.5 198zM272 449q-71 0 -110 -35.5t-42 -118.5h306q-3 84 -41.5 119t-112.5 35z
M122 728h66q0 -51 20 -76.5t65 -25.5q44 0 65 25.5t21 76.5h66q0 -78 -38.5 -119t-113.5 -41q-74 0 -112.5 41t-38.5 119z" />
    <glyph glyph-name="Edotaccent" unicode="&#x116;" horiz-adv-x="581" 
d="M81 690h454v-66h-373v-239h316v-66h-316v-253h377v-66h-458v690zM254 828q0 24 14.5 36.5t42.5 12.5t43 -12.5t15 -36.5q0 -25 -15 -37t-43 -12t-42.5 12t-14.5 37z" />
    <glyph glyph-name="edotaccent" unicode="&#x117;" horiz-adv-x="543" 
d="M44 247q0 137 59.5 197.5t168.5 60.5q110 0 170 -57.5t60 -179.5v-24h-382v-28q0 -86 39.5 -128.5t112.5 -42.5q64 0 100 23.5t47 68.5h76q-16 -72 -72 -110t-151 -38q-109 0 -168.5 60t-59.5 198zM272 449q-71 0 -110 -35.5t-42 -118.5h306q-3 84 -41.5 119t-112.5 35z
M221 658q0 24 13 36.5t38 12.5q26 0 40 -12.5t14 -36.5q0 -25 -14 -38t-40 -13q-25 0 -38 13t-13 38z" />
    <glyph glyph-name="Eogonek" unicode="&#x118;" horiz-adv-x="581" 
d="M516 -189q-63 0 -100.5 24t-37.5 72q0 35 23.5 59t63.5 34h-384v690h454v-66h-373v-239h316v-66h-316v-253h377v-66q-50 -9 -72.5 -29.5t-22.5 -48.5t22.5 -42.5t72.5 -14.5v-54h-23z" />
    <glyph glyph-name="eogonek" unicode="&#x119;" horiz-adv-x="543" 
d="M44 247q0 137 59.5 197.5t168.5 60.5q110 0 170 -57.5t60 -179.5v-24h-382v-28q0 -86 39.5 -128.5t112.5 -42.5q64 0 100 23.5t47 68.5h76q-10 -45 -35.5 -77t-66.5 -48q-47 -22 -69.5 -41t-22.5 -50q0 -28 24.5 -42t79.5 -14v-54h-32q-63 0 -100.5 24t-37.5 72
q0 28 13.5 49t37.5 33h-6.5h-7.5q-109 0 -168.5 60t-59.5 198zM272 449q-71 0 -110 -35.5t-42 -118.5h306q-3 84 -41.5 119t-112.5 35z" />
    <glyph glyph-name="Ecaron" unicode="&#x11a;" horiz-adv-x="581" 
d="M81 690h454v-66h-373v-239h316v-66h-316v-253h377v-66h-458v690zM127 900h88l97 -89l97 89h84l-146 -142h-72z" />
    <glyph glyph-name="ecaron" unicode="&#x11b;" horiz-adv-x="543" 
d="M44 247q0 137 59.5 197.5t168.5 60.5q110 0 170 -57.5t60 -179.5v-24h-382v-28q0 -86 39.5 -128.5t112.5 -42.5q64 0 100 23.5t47 68.5h76q-16 -72 -72 -110t-151 -38q-109 0 -168.5 60t-59.5 198zM272 449q-71 0 -110 -35.5t-42 -118.5h306q-3 84 -41.5 119t-112.5 35z
M105 734h80l90 -108l89 108h77l-133 -165h-69z" />
    <glyph glyph-name="Gcircumflex" unicode="&#x11c;" horiz-adv-x="697" 
d="M50 345q0 192 80 274t226 82q132 0 201 -50.5t83 -157.5h-82q-10 78 -59.5 110t-142.5 32q-106 0 -165 -59t-59 -193v-75q0 -129 58.5 -191t164.5 -62q115 0 164 53t52 158h-198v63h279v-46q0 -139 -71.5 -216.5t-225.5 -77.5q-146 0 -225.5 82t-79.5 274zM175 758
l147 142h71l148 -142h-87l-98 89l-97 -89h-84z" />
    <glyph glyph-name="gcircumflex" unicode="&#x11d;" horiz-adv-x="599" 
d="M65 -65h78q14 -50 53.5 -69.5t100.5 -19.5q87 0 120.5 40t33.5 136v61q-26 -43 -70.5 -63.5t-104.5 -20.5q-107 0 -168.5 58t-61.5 190q0 136 60 197t170 61q60 0 105.5 -20.5t72.5 -68.5v78h74v-469q0 -116 -54 -176t-177 -60q-103 0 -161 37t-71 109zM451 222v57
q0 88 -44.5 128.5t-119.5 40.5t-119.5 -41t-44.5 -132v-57q0 -81 45 -121t119 -40q77 0 120.5 39t43.5 126zM120 569l133 165h69l134 -165h-80l-90 108l-89 -108h-77z" />
    <glyph glyph-name="Gbreve" unicode="&#x11e;" horiz-adv-x="697" 
d="M50 345q0 192 80 274t226 82q132 0 201 -50.5t83 -157.5h-82q-10 78 -59.5 110t-142.5 32q-106 0 -165 -59t-59 -193v-75q0 -129 58.5 -191t164.5 -62q115 0 164 53t52 158h-198v63h279v-46q0 -139 -71.5 -216.5t-225.5 -77.5q-146 0 -225.5 82t-79.5 274zM204 900h66
q0 -45 21 -65.5t67 -20.5q45 0 66 20.5t22 65.5h66q-1 -69 -39.5 -106.5t-114.5 -37.5t-115 37.5t-39 106.5z" />
    <glyph glyph-name="gbreve" unicode="&#x11f;" horiz-adv-x="599" 
d="M65 -65h78q14 -50 53.5 -69.5t100.5 -19.5q87 0 120.5 40t33.5 136v61q-26 -43 -70.5 -63.5t-104.5 -20.5q-107 0 -168.5 58t-61.5 190q0 136 60 197t170 61q60 0 105.5 -20.5t72.5 -68.5v78h74v-469q0 -116 -54 -176t-177 -60q-103 0 -161 37t-71 109zM451 222v57
q0 88 -44.5 128.5t-119.5 40.5t-119.5 -41t-44.5 -132v-57q0 -81 45 -121t119 -40q77 0 120.5 39t43.5 126zM137 728h66q0 -51 20 -76.5t65 -25.5q44 0 65 25.5t21 76.5h66q0 -78 -38.5 -119t-113.5 -41q-74 0 -112.5 41t-38.5 119z" />
    <glyph glyph-name="Gdotaccent" unicode="&#x120;" horiz-adv-x="697" 
d="M50 345q0 192 80 274t226 82q132 0 201 -50.5t83 -157.5h-82q-10 78 -59.5 110t-142.5 32q-106 0 -165 -59t-59 -193v-75q0 -129 58.5 -191t164.5 -62q115 0 164 53t52 158h-198v63h279v-46q0 -139 -71.5 -216.5t-225.5 -77.5q-146 0 -225.5 82t-79.5 274zM301 828
q0 24 14.5 36.5t42.5 12.5t43 -12.5t15 -36.5q0 -25 -15 -37t-43 -12t-42.5 12t-14.5 37z" />
    <glyph glyph-name="gdotaccent" unicode="&#x121;" horiz-adv-x="599" 
d="M65 -65h78q14 -50 53.5 -69.5t100.5 -19.5q87 0 120.5 40t33.5 136v61q-26 -43 -70.5 -63.5t-104.5 -20.5q-107 0 -168.5 58t-61.5 190q0 136 60 197t170 61q60 0 105.5 -20.5t72.5 -68.5v78h74v-469q0 -116 -54 -176t-177 -60q-103 0 -161 37t-71 109zM451 222v57
q0 88 -44.5 128.5t-119.5 40.5t-119.5 -41t-44.5 -132v-57q0 -81 45 -121t119 -40q77 0 120.5 39t43.5 126zM237 658q0 24 13 36.5t38 12.5q26 0 40 -12.5t14 -36.5q0 -25 -14 -38t-40 -13q-25 0 -38 13t-13 38z" />
    <glyph glyph-name="Gcommaaccent" unicode="&#x122;" horiz-adv-x="697" 
d="M50 345q0 192 80 274t226 82q132 0 201 -50.5t83 -157.5h-82q-10 78 -59.5 110t-142.5 32q-106 0 -165 -59t-59 -193v-75q0 -129 58.5 -191t164.5 -62q115 0 164 53t52 158h-198v63h279v-46q0 -139 -71.5 -216.5t-225.5 -77.5q-146 0 -225.5 82t-79.5 274zM318 -196
q25 0 35.5 14t10.5 42v1h-4q-24 0 -37.5 11.5t-13.5 35.5t14 35.5t39 11.5q26 0 40.5 -12t14.5 -39v-36q0 -57 -23.5 -83t-75.5 -26v45z" />
    <glyph glyph-name="gcommaaccent" unicode="&#x123;" horiz-adv-x="599" 
d="M65 -65h78q14 -50 53.5 -69.5t100.5 -19.5q87 0 120.5 40t33.5 136v61q-26 -43 -70.5 -63.5t-104.5 -20.5q-107 0 -168.5 58t-61.5 190q0 136 60 197t170 61q60 0 105.5 -20.5t72.5 -68.5v78h74v-469q0 -116 -54 -176t-177 -60q-103 0 -161 37t-71 109zM451 222v57
q0 88 -44.5 128.5t-119.5 40.5t-119.5 -41t-44.5 -132v-57q0 -81 45 -121t119 -40q77 0 120.5 39t43.5 126zM332 729q-25 0 -35.5 -14t-10.5 -42v-1h4q24 0 37.5 -11.5t13.5 -35.5t-14 -35.5t-39 -11.5q-26 0 -40.5 12t-14.5 39v36q0 57 23.5 83t75.5 26v-45z" />
    <glyph glyph-name="Hcircumflex" unicode="&#x124;" horiz-adv-x="694" 
d="M81 690h81v-303h369v303h82v-690h-82v319h-369v-319h-81v690zM164 758l147 142h71l148 -142h-87l-98 89l-97 -89h-84z" />
    <glyph glyph-name="hcircumflex" unicode="&#x125;" horiz-adv-x="581" 
d="M437 0v309q0 82 -35 110.5t-100 28.5q-69 0 -110.5 -32t-41.5 -108v-308h-76v730h76v-311q23 46 68.5 66t102.5 20q93 0 143 -45.5t50 -146.5v-313h-77zM97 768l147 142h71l148 -142h-87l-98 89l-97 -89h-84z" />
    <glyph glyph-name="Hbar" unicode="&#x126;" horiz-adv-x="714" 
d="M16 518v60h75v112h81v-112h369v112h82v-112h75v-60h-75v-518h-82v319h-369v-319h-81v518h-75zM172 387h369v131h-369v-131z" />
    <glyph glyph-name="hbar" unicode="&#x127;" horiz-adv-x="581" 
d="M437 0v309q0 82 -35 110.5t-100 28.5q-69 0 -110.5 -32t-41.5 -108v-308h-76v577h-80v54h80v99h76v-99h162v-54h-162v-158q23 46 68.5 66t102.5 20q93 0 143 -45.5t50 -146.5v-313h-77z" />
    <glyph glyph-name="Itilde" unicode="&#x128;" horiz-adv-x="243" 
d="M81 690h81v-690h-81v690zM51 893q28 0 47.5 -11t34.5 -24.5t27.5 -24.5t27.5 -11q20 0 28 20.5t8 49.5h56q0 -58 -20.5 -92.5t-66.5 -34.5q-28 0 -47.5 11.5t-34.5 24.5t-27.5 24.5t-27.5 11.5q-20 0 -28.5 -20t-8.5 -51h-55q0 58 20.5 92.5t66.5 34.5z" />
    <glyph glyph-name="itilde" unicode="&#x129;" horiz-adv-x="224" 
d="M74 494h76v-494h-76v494zM44 729q28 0 47 -15t33 -33t26 -33t27 -15q20 0 28.5 27t8.5 67h55q0 -69 -21 -110.5t-68 -41.5q-28 0 -47 15t-33 33t-26 33t-26 15q-21 0 -29 -27.5t-8 -67.5h-55q0 69 21 111t67 42z" />
    <glyph glyph-name="Imacron" unicode="&#x12a;" horiz-adv-x="243" 
d="M81 690h81v-690h-81v690zM-23 807v56h289v-56h-289z" />
    <glyph glyph-name="imacron" unicode="&#x12b;" horiz-adv-x="224" 
d="M74 494h76v-494h-76v494zM-32 624v55h290v-55h-290z" />
    <glyph glyph-name="Ibreve" unicode="&#x12c;" horiz-adv-x="243" 
d="M81 690h81v-690h-81v690zM-32 900h66q0 -45 21 -65.5t67 -20.5q45 0 66 20.5t22 65.5h66q-1 -69 -39.5 -106.5t-114.5 -37.5t-115 37.5t-39 106.5z" />
    <glyph glyph-name="ibreve" unicode="&#x12d;" horiz-adv-x="224" 
d="M74 494h76v-494h-76v494zM-39 728h66q0 -51 20 -76.5t65 -25.5q44 0 65 25.5t21 76.5h66q0 -78 -38.5 -119t-113.5 -41q-74 0 -112.5 41t-38.5 119z" />
    <glyph glyph-name="Iogonek" unicode="&#x12e;" horiz-adv-x="243" 
d="M161 -189q-66 0 -103.5 24.5t-37.5 74.5q0 34 16.5 58t44.5 40v682h81v-690h1q-42 -11 -59.5 -31t-17.5 -47q0 -28 25 -42.5t82 -14.5v-54h-32z" />
    <glyph glyph-name="iogonek" unicode="&#x12f;" horiz-adv-x="225" 
d="M61 657q0 24 13 36.5t38 12.5q26 0 40 -12.5t14 -36.5q0 -25 -14 -38t-40 -13q-25 0 -38 13t-13 38zM150 -189q-63 0 -101 24t-38 73q0 34 18 59t46 39v488h76v-494q-40 -11 -57 -31.5t-17 -46.5q0 -28 24.5 -42.5t79.5 -14.5v-54h-31z" />
    <glyph glyph-name="Idotaccent" unicode="&#x130;" horiz-adv-x="243" 
d="M81 690h81v-690h-81v690zM64 828q0 24 14.5 36.5t42.5 12.5t43 -12.5t15 -36.5q0 -25 -15 -37t-43 -12t-42.5 12t-14.5 37z" />
    <glyph glyph-name="dotlessi" unicode="&#x131;" horiz-adv-x="224" 
d="M74 494h76v-494h-76v494z" />
    <glyph glyph-name="IJ" unicode="&#x132;" horiz-adv-x="552" 
d="M258 66h66q37 0 52.5 19t15.5 61v544h82v-556q0 -69 -28.5 -101.5t-106.5 -32.5h-81v66zM81 690h81v-690h-81v690z" />
    <glyph glyph-name="ij" unicode="&#x133;" horiz-adv-x="435" 
d="M74 494h76v-494h-76v494zM60 657q0 24 13 36.5t38 12.5q26 0 40 -12.5t14 -36.5q0 -25 -14 -38t-40 -13q-25 0 -38 13t-13 38zM187 -140h33q37 0 50.5 16.5t13.5 46.5v571h76v-575q0 -61 -27.5 -90t-97.5 -29h-48v60zM270 657q0 24 13 36.5t38 12.5q26 0 40 -12.5
t14 -36.5q0 -25 -14 -38t-40 -13q-25 0 -38 13t-13 38z" />
    <glyph glyph-name="Jcircumflex" unicode="&#x134;" horiz-adv-x="312" 
d="M13 66h70q38 0 53.5 19t15.5 61v544h82v-556q0 -69 -28.5 -101.5t-106.5 -32.5h-86v66zM9 758l147 142h71l148 -142h-87l-98 89l-97 -89h-84z" />
    <glyph glyph-name="jcircumflex" unicode="&#x135;" horiz-adv-x="224" 
d="M-23 -140h33q37 0 50.5 16.5t13.5 46.5v571h76v-575q0 -61 -27.5 -90t-97.5 -29h-48v60zM-56 569l133 165h69l134 -165h-80l-90 108l-89 -108h-77z" />
    <glyph glyph-name="Kcommaaccent" unicode="&#x136;" horiz-adv-x="615" 
d="M81 690h81v-309h91l255 309h92l-278 -337l295 -353h-101l-262 314h-92v-314h-81v690zM282 -196q25 0 35.5 14t10.5 42v1h-4q-24 0 -37.5 11.5t-13.5 35.5t14 35.5t39 11.5q26 0 40.5 -12t14.5 -39v-36q0 -57 -23.5 -83t-75.5 -26v45z" />
    <glyph glyph-name="kcommaaccent" unicode="&#x137;" horiz-adv-x="504" 
d="M398 494h86l-204 -238l228 -256h-95l-197 219h-66v-219h-76v730h76v-450h65zM228 -196q25 0 35.5 14t10.5 42v1h-4q-24 0 -37.5 11.5t-13.5 35.5t14 35.5t39 11.5q26 0 40.5 -12t14.5 -39v-36q0 -57 -23.5 -83t-75.5 -26v45z" />
    <glyph glyph-name="Lacute" unicode="&#x139;" horiz-adv-x="541" 
d="M81 690h81v-622h365v-68h-446v690zM83 758l115 142h102l-142 -142h-75z" />
    <glyph glyph-name="lacute" unicode="&#x13a;" horiz-adv-x="224" 
d="M74 730h76v-730h-76v730zM77 777l115 142h102l-142 -142h-75z" />
    <glyph glyph-name="Lcommaaccent" unicode="&#x13b;" horiz-adv-x="541" 
d="M81 690h81v-622h365v-68h-446v690zM261 -196q25 0 35.5 14t10.5 42v1h-4q-24 0 -37.5 11.5t-13.5 35.5t14 35.5t39 11.5q26 0 40.5 -12t14.5 -39v-36q0 -57 -23.5 -83t-75.5 -26v45z" />
    <glyph glyph-name="lcommaaccent" unicode="&#x13c;" horiz-adv-x="224" 
d="M74 730h76v-730h-76v730zM67 -196q25 0 35.5 14t10.5 42v1h-4q-24 0 -37.5 11.5t-13.5 35.5t14 35.5t39 11.5q26 0 40.5 -12t14.5 -39v-36q0 -57 -23.5 -83t-75.5 -26v45z" />
    <glyph glyph-name="Lcaron" unicode="&#x13d;" horiz-adv-x="558" 
d="M81 690h81v-622h365v-68h-446v690zM437 534l11 156h76l-31 -156h-56z" />
    <glyph glyph-name="lcaron" unicode="&#x13e;" horiz-adv-x="245" 
d="M74 730h76v-730h-76v730zM213 574l11 156h76l-31 -156h-56z" />
    <glyph glyph-name="Ldot" unicode="&#x13f;" horiz-adv-x="545" 
d="M81 690h81v-622h365v-68h-446v690zM341 369q0 25 13.5 37.5t39.5 12.5t40 -12.5t14 -37.5t-14 -38t-40 -13t-39.5 13t-13.5 38z" />
    <glyph glyph-name="ldot" unicode="&#x140;" horiz-adv-x="347" 
d="M74 730h76v-730h-76v730zM232 271q0 25 13.5 37.5t39.5 12.5t40 -12.5t14 -37.5t-14 -38t-40 -13t-39.5 13t-13.5 38z" />
    <glyph glyph-name="Lslash" unicode="&#x141;" horiz-adv-x="592" 
d="M33 321l99 56v313h81v-268l136 77v-74l-136 -77v-280h365v-68h-446v303l-99 -56v74z" />
    <glyph glyph-name="lslash" unicode="&#x142;" horiz-adv-x="264" 
d="M10 360l84 49v321h76v-278l84 49v-68l-84 -49v-384h-76v341l-84 -49v68z" />
    <glyph glyph-name="Nacute" unicode="&#x143;" horiz-adv-x="706" 
d="M517 0l-358 594v-594h-78v690h109l357 -594v594h78v-690h-108zM310 758l115 142h102l-142 -142h-75z" />
    <glyph glyph-name="nacute" unicode="&#x144;" horiz-adv-x="581" 
d="M437 0v309q0 82 -35 110.5t-100 28.5q-69 0 -110.5 -32t-41.5 -109v-307h-76v494h73v-81q22 49 69 70.5t105 21.5q93 0 143 -45.5t50 -146.5v-313h-77zM251 569l112 165h96l-138 -165h-70z" />
    <glyph glyph-name="Ncommaaccent" unicode="&#x145;" horiz-adv-x="706" 
d="M517 0l-358 594v-594h-78v690h109l357 -594v594h78v-690h-108zM307 -196q25 0 35.5 14t10.5 42v1h-4q-24 0 -37.5 11.5t-13.5 35.5t14 35.5t39 11.5q26 0 40.5 -12t14.5 -39v-36q0 -57 -23.5 -83t-75.5 -26v45z" />
    <glyph glyph-name="ncommaaccent" unicode="&#x146;" horiz-adv-x="581" 
d="M437 0v309q0 82 -35 110.5t-100 28.5q-69 0 -110.5 -32t-41.5 -109v-307h-76v494h73v-81q22 49 69 70.5t105 21.5q93 0 143 -45.5t50 -146.5v-313h-77zM249 -196q25 0 35.5 14t10.5 42v1h-4q-24 0 -37.5 11.5t-13.5 35.5t14 35.5t39 11.5q26 0 40.5 -12t14.5 -39v-36
q0 -57 -23.5 -83t-75.5 -26v45z" />
    <glyph glyph-name="Ncaron" unicode="&#x147;" horiz-adv-x="706" 
d="M517 0l-358 594v-594h-78v690h109l357 -594v594h78v-690h-108zM179 900h88l97 -89l97 89h84l-146 -142h-72z" />
    <glyph glyph-name="ncaron" unicode="&#x148;" horiz-adv-x="581" 
d="M437 0v309q0 82 -35 110.5t-100 28.5q-69 0 -110.5 -32t-41.5 -109v-307h-76v494h73v-81q22 49 69 70.5t105 21.5q93 0 143 -45.5t50 -146.5v-313h-77zM127 734h80l90 -108l89 108h77l-133 -165h-69z" />
    <glyph glyph-name="napostrophe" unicode="&#x149;" horiz-adv-x="581" 
d="M-6 575l11 156h76l-31 -156h-56zM437 0v309q0 82 -35 110.5t-100 28.5q-69 0 -110.5 -32t-41.5 -109v-307h-76v494h73v-81q22 49 69 70.5t105 21.5q93 0 143 -45.5t50 -146.5v-313h-77z" />
    <glyph glyph-name="Eng" unicode="&#x14a;" horiz-adv-x="706" 
d="M405 -136h74q35 0 49.5 16.5t14.5 54.5v46l-384 604v-585h-78v690h104l362 -574v574h78v-758q0 -69 -28 -101.5t-106 -32.5h-86v66z" />
    <glyph glyph-name="eng" unicode="&#x14b;" horiz-adv-x="581" 
d="M340 -140h34q36 0 49.5 16.5t13.5 46.5v386q0 82 -35 110.5t-100 28.5q-69 0 -110.5 -32t-41.5 -109v-307h-76v494h73v-81q22 49 69 70.5t105 21.5q92 0 142.5 -45.5t50.5 -146.5v-394q0 -61 -28 -90t-98 -29h-48v60z" />
    <glyph glyph-name="Omacron" unicode="&#x14c;" horiz-adv-x="747" 
d="M50 346q0 191 81.5 273t242.5 82q160 0 242 -82t82 -273q0 -190 -82 -273.5t-242 -83.5q-161 0 -242.5 83.5t-81.5 273.5zM615 309v78q0 128 -60 188t-181 60t-181.5 -60t-60.5 -188v-78q0 -127 60.5 -190.5t181.5 -63.5t181 63.5t60 190.5zM229 807v56h289v-56h-289z
" />
    <glyph glyph-name="omacron" unicode="&#x14d;" horiz-adv-x="570" 
d="M44 247q0 140 63.5 199t177.5 59q116 0 178.5 -59t62.5 -199q0 -143 -62.5 -200.5t-178.5 -57.5q-114 0 -177.5 57.5t-63.5 200.5zM449 217v61q0 88 -43 129t-121 41t-121 -41t-43 -129v-62q0 -87 43 -128.5t121 -41.5t121 41.5t43 129.5zM139 624v55h290v-55h-290z" />
    <glyph glyph-name="Obreve" unicode="&#x14e;" horiz-adv-x="747" 
d="M50 346q0 191 81.5 273t242.5 82q160 0 242 -82t82 -273q0 -190 -82 -273.5t-242 -83.5q-161 0 -242.5 83.5t-81.5 273.5zM615 309v78q0 128 -60 188t-181 60t-181.5 -60t-60.5 -188v-78q0 -127 60.5 -190.5t181.5 -63.5t181 63.5t60 190.5zM220 900h66q0 -45 21 -65.5
t67 -20.5q45 0 66 20.5t22 65.5h66q-1 -69 -39.5 -106.5t-114.5 -37.5t-115 37.5t-39 106.5z" />
    <glyph glyph-name="obreve" unicode="&#x14f;" horiz-adv-x="570" 
d="M44 247q0 140 63.5 199t177.5 59q116 0 178.5 -59t62.5 -199q0 -143 -62.5 -200.5t-178.5 -57.5q-114 0 -177.5 57.5t-63.5 200.5zM449 217v61q0 88 -43 129t-121 41t-121 -41t-43 -129v-62q0 -87 43 -128.5t121 -41.5t121 41.5t43 129.5zM133 728h66q0 -51 20 -76.5
t65 -25.5q44 0 65 25.5t21 76.5h66q0 -78 -38.5 -119t-113.5 -41q-74 0 -112.5 41t-38.5 119z" />
    <glyph glyph-name="Ohungarumlaut" unicode="&#x150;" horiz-adv-x="747" 
d="M50 346q0 191 81.5 273t242.5 82q160 0 242 -82t82 -273q0 -190 -82 -273.5t-242 -83.5q-161 0 -242.5 83.5t-81.5 273.5zM615 309v78q0 128 -60 188t-181 60t-181.5 -60t-60.5 -188v-78q0 -127 60.5 -190.5t181.5 -63.5t181 63.5t60 190.5zM257 758l79 142h95l-104 -142
h-70zM414 758l106 142h100l-133 -142h-73z" />
    <glyph glyph-name="ohungarumlaut" unicode="&#x151;" horiz-adv-x="570" 
d="M44 247q0 140 63.5 199t177.5 59q116 0 178.5 -59t62.5 -199q0 -143 -62.5 -200.5t-178.5 -57.5q-114 0 -177.5 57.5t-63.5 200.5zM449 217v61q0 88 -43 129t-121 41t-121 -41t-43 -129v-62q0 -87 43 -128.5t121 -41.5t121 41.5t43 129.5zM176 569l77 165h90l-103 -165
h-64zM309 569l106 165h93l-131 -165h-68z" />
    <glyph glyph-name="OE" unicode="&#x152;" horiz-adv-x="1024" 
d="M50 346q0 187 83 265.5t248 78.5h597v-66h-373v-239h316v-66h-316v-253h377v-66h-601q-165 0 -248 79t-83 267zM381 66h142v561h-142q-125 0 -187 -57.5t-62 -182.5v-78q0 -125 62 -184t187 -59z" />
    <glyph glyph-name="oe" unicode="&#x153;" horiz-adv-x="948" 
d="M44 247q0 140 63 199t178 59q70 0 121 -22t81 -69q28 48 76.5 69.5t114.5 21.5q110 0 170 -57.5t60 -179.5v-24h-382v-28q0 -86 39.5 -128.5t112.5 -42.5q64 0 100 23.5t46 68.5h77q-16 -72 -72 -110t-151 -38q-66 0 -114.5 21.5t-76.5 67.5q-29 -46 -80.5 -67.5
t-121.5 -21.5q-115 0 -178 57.5t-63 200.5zM678 449q-71 0 -110 -35.5t-42 -118.5h305q-3 84 -41.5 119t-111.5 35zM449 217v61q0 88 -43 129t-121 41t-121 -41t-43 -129v-62q0 -87 43 -128.5t121 -41.5t121 41.5t43 129.5z" />
    <glyph glyph-name="Racute" unicode="&#x154;" horiz-adv-x="649" 
d="M81 690h299q107 0 159.5 -54t52.5 -150q0 -76 -33 -125.5t-100 -67.5l162 -293h-91l-157 284h-211v-284h-81v690zM509 468v35q0 53 -32 87t-105 34h-210v-274h210q72 0 104.5 33.5t32.5 84.5zM264 758l115 142h102l-142 -142h-75z" />
    <glyph glyph-name="racute" unicode="&#x155;" horiz-adv-x="366" 
d="M74 494h73v-95q19 48 59 71.5t95 23.5h50v-70h-55q-71 0 -108.5 -33t-37.5 -110v-281h-76v494zM179 569l112 165h96l-138 -165h-70z" />
    <glyph glyph-name="Rcommaaccent" unicode="&#x156;" horiz-adv-x="649" 
d="M81 690h299q107 0 159.5 -54t52.5 -150q0 -76 -33 -125.5t-100 -67.5l162 -293h-91l-157 284h-211v-284h-81v690zM509 468v35q0 53 -32 87t-105 34h-210v-274h210q72 0 104.5 33.5t32.5 84.5zM285 -196q25 0 35.5 14t10.5 42v1h-4q-24 0 -37.5 11.5t-13.5 35.5t14 35.5
t39 11.5q26 0 40.5 -12t14.5 -39v-36q0 -57 -23.5 -83t-75.5 -26v45z" />
    <glyph glyph-name="rcommaaccent" unicode="&#x157;" horiz-adv-x="366" 
d="M74 494h73v-95q19 48 59 71.5t95 23.5h50v-70h-55q-71 0 -108.5 -33t-37.5 -110v-281h-76v494zM65 -196q25 0 35.5 14t10.5 42v1h-4q-24 0 -37.5 11.5t-13.5 35.5t14 35.5t39 11.5q26 0 40.5 -12t14.5 -39v-36q0 -57 -23.5 -83t-75.5 -26v45z" />
    <glyph glyph-name="Rcaron" unicode="&#x158;" horiz-adv-x="649" 
d="M81 690h299q107 0 159.5 -54t52.5 -150q0 -76 -33 -125.5t-100 -67.5l162 -293h-91l-157 284h-211v-284h-81v690zM509 468v35q0 53 -32 87t-105 34h-210v-274h210q72 0 104.5 33.5t32.5 84.5zM123 900h88l97 -89l97 89h84l-146 -142h-72z" />
    <glyph glyph-name="rcaron" unicode="&#x159;" horiz-adv-x="366" 
d="M74 494h73v-95q19 48 59 71.5t95 23.5h50v-70h-55q-71 0 -108.5 -33t-37.5 -110v-281h-76v494zM48 734h80l90 -108l89 108h77l-133 -165h-69z" />
    <glyph glyph-name="Sacute" unicode="&#x15a;" horiz-adv-x="622" 
d="M42 178h83q9 -72 55 -98t141 -26q90 0 133 31t43 97q0 87 -69.5 107.5t-152 32.5t-152 44.5t-69.5 142.5q0 98 65.5 145t188.5 47q119 0 184.5 -41.5t72.5 -137.5h-83q-5 66 -51 90t-123 24q-85 0 -129.5 -28.5t-44.5 -98.5q0 -82 69.5 -101t152.5 -31t152.5 -46.5
t69.5 -146.5q0 -101 -64 -148t-192 -47q-137 0 -204 42t-76 147zM269 758l115 142h102l-142 -142h-75z" />
    <glyph glyph-name="sacute" unicode="&#x15b;" horiz-adv-x="508" 
d="M36 149h78q4 -58 41 -81t103 -23q69 0 104 21t35 69q0 56 -54.5 68.5t-119.5 21.5t-119.5 33.5t-54.5 104.5q0 69 53.5 106t149.5 37q90 0 145.5 -35t59.5 -111h-77q-4 53 -39.5 71.5t-88.5 18.5q-61 0 -94.5 -20.5t-33.5 -64.5q0 -54 54.5 -66.5t119 -21t119 -34
t54.5 -106.5q0 -78 -58 -112.5t-154 -34.5q-104 0 -161.5 39t-61.5 120zM208 569l112 165h96l-138 -165h-70z" />
    <glyph glyph-name="Scircumflex" unicode="&#x15c;" horiz-adv-x="622" 
d="M42 178h83q9 -72 55 -98t141 -26q90 0 133 31t43 97q0 87 -69.5 107.5t-152 32.5t-152 44.5t-69.5 142.5q0 98 65.5 145t188.5 47q119 0 184.5 -41.5t72.5 -137.5h-83q-5 66 -51 90t-123 24q-85 0 -129.5 -28.5t-44.5 -98.5q0 -82 69.5 -101t152.5 -31t152.5 -46.5
t69.5 -146.5q0 -101 -64 -148t-192 -47q-137 0 -204 42t-76 147zM127 758l147 142h71l148 -142h-87l-98 89l-97 -89h-84z" />
    <glyph glyph-name="scircumflex" unicode="&#x15d;" horiz-adv-x="508" 
d="M36 149h78q4 -58 41 -81t103 -23q69 0 104 21t35 69q0 56 -54.5 68.5t-119.5 21.5t-119.5 33.5t-54.5 104.5q0 69 53.5 106t149.5 37q90 0 145.5 -35t59.5 -111h-77q-4 53 -39.5 71.5t-88.5 18.5q-61 0 -94.5 -20.5t-33.5 -64.5q0 -54 54.5 -66.5t119 -21t119 -34
t54.5 -106.5q0 -78 -58 -112.5t-154 -34.5q-104 0 -161.5 39t-61.5 120zM85 569l133 165h69l134 -165h-80l-90 108l-89 -108h-77z" />
    <glyph glyph-name="Scedilla" unicode="&#x15e;" horiz-adv-x="622" 
d="M42 178h83q9 -72 55 -98t141 -26q90 0 133 31t43 97q0 87 -69.5 107.5t-152 32.5t-152 44.5t-69.5 142.5q0 98 65.5 145t188.5 47q119 0 184.5 -41.5t72.5 -137.5h-83q-5 66 -51 90t-123 24q-85 0 -129.5 -28.5t-44.5 -98.5q0 -82 69.5 -101t152.5 -31t152.5 -46.5
t69.5 -146.5q0 -101 -64 -148t-192 -47q-137 0 -204 42t-76 147zM251 -201v48q37 0 58.5 1.5t32.5 5.5t14.5 11t3.5 18q0 21 -20 27t-77 7v87h54v-47q49 -4 81 -18t32 -60q0 -40 -29.5 -60t-89.5 -20h-60z" />
    <glyph glyph-name="scedilla" unicode="&#x15f;" horiz-adv-x="508" 
d="M36 149h78q4 -58 41 -81t103 -23q69 0 104 21t35 69q0 56 -54.5 68.5t-119.5 21.5t-119.5 33.5t-54.5 104.5q0 69 53.5 106t149.5 37q90 0 145.5 -35t59.5 -111h-77q-4 53 -39.5 71.5t-88.5 18.5q-61 0 -94.5 -20.5t-33.5 -64.5q0 -54 54.5 -66.5t119 -21t119 -34
t54.5 -106.5q0 -78 -58 -112.5t-154 -34.5q-104 0 -161.5 39t-61.5 120zM196 -203v48q37 0 58.5 1.5t32.5 5.5t14.5 11t3.5 18q0 21 -20 27t-77 7v87h54v-47q49 -4 81 -18t32 -60q0 -40 -29.5 -60t-89.5 -20h-60z" />
    <glyph glyph-name="Scaron" unicode="&#x160;" horiz-adv-x="622" 
d="M42 178h83q9 -72 55 -98t141 -26q90 0 133 31t43 97q0 87 -69.5 107.5t-152 32.5t-152 44.5t-69.5 142.5q0 98 65.5 145t188.5 47q119 0 184.5 -41.5t72.5 -137.5h-83q-5 66 -51 90t-123 24q-85 0 -129.5 -28.5t-44.5 -98.5q0 -82 69.5 -101t152.5 -31t152.5 -46.5
t69.5 -146.5q0 -101 -64 -148t-192 -47q-137 0 -204 42t-76 147zM126 900h88l97 -89l97 89h84l-146 -142h-72z" />
    <glyph glyph-name="scaron" unicode="&#x161;" horiz-adv-x="508" 
d="M36 149h78q4 -58 41 -81t103 -23q69 0 104 21t35 69q0 56 -54.5 68.5t-119.5 21.5t-119.5 33.5t-54.5 104.5q0 69 53.5 106t149.5 37q90 0 145.5 -35t59.5 -111h-77q-4 53 -39.5 71.5t-88.5 18.5q-61 0 -94.5 -20.5t-33.5 -64.5q0 -54 54.5 -66.5t119 -21t119 -34
t54.5 -106.5q0 -78 -58 -112.5t-154 -34.5q-104 0 -161.5 39t-61.5 120zM86 734h80l90 -108l89 108h77l-133 -165h-69z" />
    <glyph glyph-name="Tcedilla" unicode="&#x162;" horiz-adv-x="578" 
d="M248 622h-235v68h551v-68h-234v-622h-82v622zM243 -196q25 0 35.5 14t10.5 42v1h-4q-24 0 -37.5 11.5t-13.5 35.5t14 35.5t39 11.5q26 0 40.5 -12t14.5 -39v-36q0 -57 -23.5 -83t-75.5 -26v45z" />
    <glyph glyph-name="tcedilla" unicode="&#x163;" horiz-adv-x="327" 
d="M87 120v314h-65v60h65v159h76v-159h143v-60h-143v-310q0 -32 15 -48t49 -16h79v-60h-93q-69 0 -97.5 28t-28.5 92zM155 -196q25 0 35.5 14t10.5 42v1h-4q-24 0 -37.5 11.5t-13.5 35.5t14 35.5t39 11.5q26 0 40.5 -12t14.5 -39v-36q0 -57 -23.5 -83t-75.5 -26v45z" />
    <glyph glyph-name="Tcaron" unicode="&#x164;" horiz-adv-x="578" 
d="M248 622h-235v68h551v-68h-234v-622h-82v622zM106 900h88l97 -89l97 89h84l-146 -142h-72z" />
    <glyph glyph-name="tcaron" unicode="&#x165;" horiz-adv-x="327" 
d="M253 575l11 156h76l-31 -156h-56zM87 120v314h-65v60h65v159h76v-159h143v-60h-143v-310q0 -32 15 -48t49 -16h79v-60h-93q-69 0 -97.5 28t-28.5 92z" />
    <glyph glyph-name="Tbar" unicode="&#x166;" horiz-adv-x="578" 
d="M79 316v64h169v242h-235v68h551v-68h-234v-242h169v-64h-169v-316h-82v316h-169z" />
    <glyph glyph-name="tbar" unicode="&#x167;" horiz-adv-x="339" 
d="M93 120v123h-65v53h65v138h-65v60h65v159h76v-159h143v-60h-143v-138h142v-53h-142v-119q0 -32 15 -48t49 -16h79v-60h-93q-69 0 -97.5 28t-28.5 92z" />
    <glyph glyph-name="Utilde" unicode="&#x168;" horiz-adv-x="683" 
d="M75 246v444h81v-443q0 -105 48.5 -149t141.5 -44q92 0 140.5 44t48.5 149v443h74v-444q0 -123 -62.5 -190t-200.5 -67q-141 0 -206 67t-65 190zM279 893q28 0 47.5 -11t34.5 -24.5t27.5 -24.5t27.5 -11q20 0 28 20.5t8 49.5h56q0 -58 -20.5 -92.5t-66.5 -34.5
q-28 0 -47.5 11.5t-34.5 24.5t-27.5 24.5t-27.5 11.5q-20 0 -28.5 -20t-8.5 -51h-55q0 58 20.5 92.5t66.5 34.5z" />
    <glyph glyph-name="utilde" unicode="&#x169;" horiz-adv-x="581" 
d="M68 184v310h76v-309q0 -82 35 -110t100 -28q66 0 109 31t43 109v307h77v-494h-76v76q-22 -46 -67 -66.5t-105 -20.5q-93 0 -142.5 45t-49.5 150zM220 729q28 0 47 -15t33 -33t26 -33t27 -15q20 0 28.5 27t8.5 67h55q0 -69 -21 -110.5t-68 -41.5q-28 0 -47 15t-33 33
t-26 33t-26 15q-21 0 -29 -27.5t-8 -67.5h-55q0 69 21 111t67 42z" />
    <glyph glyph-name="Umacron" unicode="&#x16a;" horiz-adv-x="683" 
d="M75 246v444h81v-443q0 -105 48.5 -149t141.5 -44q92 0 140.5 44t48.5 149v443h74v-444q0 -123 -62.5 -190t-200.5 -67q-141 0 -206 67t-65 190zM204 807v56h289v-56h-289z" />
    <glyph glyph-name="umacron" unicode="&#x16b;" horiz-adv-x="581" 
d="M68 184v310h76v-309q0 -82 35 -110t100 -28q66 0 109 31t43 109v307h77v-494h-76v76q-22 -46 -67 -66.5t-105 -20.5q-93 0 -142.5 45t-49.5 150zM144 624v55h290v-55h-290z" />
    <glyph glyph-name="Ubreve" unicode="&#x16c;" horiz-adv-x="683" 
d="M75 246v444h81v-443q0 -105 48.5 -149t141.5 -44q92 0 140.5 44t48.5 149v443h74v-444q0 -123 -62.5 -190t-200.5 -67q-141 0 -206 67t-65 190zM196 900h66q0 -45 21 -65.5t67 -20.5q45 0 66 20.5t22 65.5h66q-1 -69 -39.5 -106.5t-114.5 -37.5t-115 37.5t-39 106.5z" />
    <glyph glyph-name="ubreve" unicode="&#x16d;" horiz-adv-x="581" 
d="M68 184v310h76v-309q0 -82 35 -110t100 -28q66 0 109 31t43 109v307h77v-494h-76v76q-22 -46 -67 -66.5t-105 -20.5q-93 0 -142.5 45t-49.5 150zM137 728h66q0 -51 20 -76.5t65 -25.5q44 0 65 25.5t21 76.5h66q0 -78 -38.5 -119t-113.5 -41q-74 0 -112.5 41t-38.5 119z
" />
    <glyph glyph-name="Uring" unicode="&#x16e;" horiz-adv-x="683" 
d="M75 246v444h81v-443q0 -105 48.5 -149t141.5 -44q92 0 140.5 44t48.5 149v443h74v-444q0 -123 -62.5 -190t-200.5 -67q-141 0 -206 67t-65 190zM218 833q0 42 31.5 64t100.5 22q68 0 99.5 -22t31.5 -64q0 -43 -32 -64.5t-99 -21.5q-69 0 -100.5 21.5t-31.5 64.5zM350 794
q44 0 59 10t15 29t-15 28.5t-59 9.5q-45 0 -59.5 -9.5t-14.5 -28.5t14.5 -29t59.5 -10z" />
    <glyph glyph-name="uring" unicode="&#x16f;" horiz-adv-x="581" 
d="M68 184v310h76v-309q0 -82 35 -110t100 -28q66 0 109 31t43 109v307h77v-494h-76v76q-22 -46 -67 -66.5t-105 -20.5q-93 0 -142.5 45t-49.5 150zM174 651q0 43 28.5 67t84.5 24q57 0 86 -24t29 -67q0 -44 -29 -67.5t-86 -23.5q-56 0 -84.5 23.5t-28.5 67.5zM347 651
q0 22 -13.5 34.5t-45.5 12.5q-33 0 -46 -12.5t-13 -34.5t13 -34.5t46 -12.5q32 0 45.5 12.5t13.5 34.5z" />
    <glyph glyph-name="Uhungarumlaut" unicode="&#x170;" horiz-adv-x="683" 
d="M75 246v444h81v-443q0 -105 48.5 -149t141.5 -44q92 0 140.5 44t48.5 149v443h74v-444q0 -123 -62.5 -190t-200.5 -67q-141 0 -206 67t-65 190zM224 758l79 142h95l-104 -142h-70zM381 758l106 142h100l-133 -142h-73z" />
    <glyph glyph-name="uhungarumlaut" unicode="&#x171;" horiz-adv-x="581" 
d="M68 184v310h76v-309q0 -82 35 -110t100 -28q66 0 109 31t43 109v307h77v-494h-76v76q-22 -46 -67 -66.5t-105 -20.5q-93 0 -142.5 45t-49.5 150zM180 569l77 165h90l-103 -165h-64zM313 569l106 165h93l-131 -165h-68z" />
    <glyph glyph-name="Uogonek" unicode="&#x172;" horiz-adv-x="683" 
d="M75 246v444h81v-443q0 -105 48.5 -149t141.5 -44q92 0 140.5 44t48.5 149v443h74v-444q0 -96 -38 -158.5t-119 -85.5h1q-46 -16 -65.5 -35t-19.5 -48q0 -27 25 -40.5t80 -13.5v-54h-33q-63 0 -100 24t-37 72q0 28 13 49t36 33h-6q-141 0 -206 67t-65 190z" />
    <glyph glyph-name="uogonek" unicode="&#x173;" horiz-adv-x="581" 
d="M68 184v310h76v-309q0 -82 35 -110t100 -28q66 0 109 31t43 109v307h77v-494h-14q-41 -11 -59 -31t-18 -48t24 -42t78 -14v-54h-30q-63 0 -100.5 24t-37.5 72q0 37 22.5 62.5t58.5 33.5v73q-22 -46 -67 -66.5t-105 -20.5q-93 0 -142.5 45t-49.5 150z" />
    <glyph glyph-name="Wcircumflex" unicode="&#x174;" horiz-adv-x="887" 
d="M23 690h83l132 -614l161 614h103l154 -606l140 606h72l-159 -690h-108l-155 607l-160 -607h-114zM264 758l147 142h71l148 -142h-87l-98 89l-97 -89h-84z" />
    <glyph glyph-name="wcircumflex" unicode="&#x175;" horiz-adv-x="768" 
d="M164 0l-150 494h74l130 -434l123 434h92l123 -431l131 431h67l-151 -494h-98l-122 430l-122 -430h-97zM216 569l133 165h69l134 -165h-80l-90 108l-89 -108h-77z" />
    <glyph glyph-name="Ycircumflex" unicode="&#x176;" horiz-adv-x="628" 
d="M275 306l-270 384h90l225 -321l219 321h80l-262 -385v-305h-82v306zM132 758l147 142h71l148 -142h-87l-98 89l-97 -89h-84z" />
    <glyph glyph-name="ycircumflex" unicode="&#x177;" horiz-adv-x="509" 
d="M49 -140h42q47 0 70.5 16.5t42.5 65.5l17 43l-212 509h81l170 -415l167 415h72l-231 -566q-29 -74 -64.5 -101t-104.5 -27h-50v60zM88 569l133 165h69l134 -165h-80l-90 108l-89 -108h-77z" />
    <glyph glyph-name="Ydieresis" unicode="&#x178;" horiz-adv-x="628" 
d="M275 306l-270 384h90l225 -321l219 321h80l-262 -385v-305h-82v306zM154 826q0 24 13 36.5t38 12.5t38.5 -12.5t13.5 -36.5q0 -25 -13.5 -37.5t-38.5 -12.5t-38 12.5t-13 37.5zM371 826q0 24 13 36.5t38 12.5t38 -12.5t13 -36.5q0 -25 -13 -37.5t-38 -12.5t-38 12.5
t-13 37.5z" />
    <glyph glyph-name="Zacute" unicode="&#x179;" horiz-adv-x="578" 
d="M35 68l418 554h-416v68h505v-68l-419 -554h421v-68h-509v68zM245 758l115 142h102l-142 -142h-75z" />
    <glyph glyph-name="zacute" unicode="&#x17a;" horiz-adv-x="483" 
d="M34 60l321 374h-316v60h401v-59l-321 -375h338v-60h-423v60zM197 569l112 165h96l-138 -165h-70z" />
    <glyph glyph-name="Zdotaccent" unicode="&#x17b;" horiz-adv-x="578" 
d="M35 68l418 554h-416v68h505v-68l-419 -554h421v-68h-509v68zM235 828q0 24 14.5 36.5t42.5 12.5t43 -12.5t15 -36.5q0 -25 -15 -37t-43 -12t-42.5 12t-14.5 37z" />
    <glyph glyph-name="zdotaccent" unicode="&#x17c;" horiz-adv-x="483" 
d="M34 60l321 374h-316v60h401v-59l-321 -375h338v-60h-423v60zM194 658q0 24 13 36.5t38 12.5q26 0 40 -12.5t14 -36.5q0 -25 -14 -38t-40 -13q-25 0 -38 13t-13 38z" />
    <glyph glyph-name="Zcaron" unicode="&#x17d;" horiz-adv-x="578" 
d="M35 68l418 554h-416v68h505v-68l-419 -554h421v-68h-509v68zM109 900h88l97 -89l97 89h84l-146 -142h-72z" />
    <glyph glyph-name="zcaron" unicode="&#x17e;" horiz-adv-x="483" 
d="M34 60l321 374h-316v60h401v-59l-321 -375h338v-60h-423v60zM79 734h80l90 -108l89 108h77l-133 -165h-69z" />
    <glyph glyph-name="florin" unicode="&#x192;" horiz-adv-x="624" 
d="M-8 -139h65q52 0 79 25t46 88l108 359h-139v60h157l53 176q24 78 59.5 119.5t99.5 41.5h109v-61h-101q-37 0 -58 -23t-37 -74l-53 -179h162v-60h-180l-109 -365q-12 -42 -26.5 -73.5t-36.5 -52.5t-54.5 -31.5t-80.5 -10.5h-63v61z" />
    <glyph glyph-name="Aringacute" unicode="&#x1fa;" horiz-adv-x="651" 
d="M267 690h117l258 -690h-84l-74 200h-325l-74 -200h-76zM183 264h277l-139 372zM193 807q0 42 31.5 64t100.5 22q68 0 99.5 -22t31.5 -64q0 -43 -32 -64.5t-99 -21.5q-69 0 -100.5 21.5t-31.5 64.5zM325 768q44 0 59 10t15 29t-15 28.5t-59 9.5q-45 0 -59.5 -9.5
t-14.5 -28.5t14.5 -29t59.5 -10zM286 914l115 142h102l-142 -142h-75z" />
    <glyph glyph-name="aringacute" unicode="&#x1fb;" horiz-adv-x="554" 
d="M42 132q0 67 41.5 104t148.5 44l178 12v15q0 76 -34 109t-105 33q-54 0 -89 -19.5t-46 -69.5h-78q12 72 65 108.5t148 36.5q108 0 161.5 -47t53.5 -151v-307h-72v86q-27 -46 -78.5 -71.5t-120.5 -25.5q-88 0 -130.5 37.5t-42.5 105.5zM120 128q0 -40 27.5 -61.5
t81.5 -21.5q35 0 68 8.5t58 28t40 51t15 76.5v32l-168 -12q-63 -5 -92.5 -24.5t-29.5 -63.5v-13zM230 781l115 142h102l-142 -142h-75zM158 644q0 43 28.5 67t84.5 24q57 0 86 -24t29 -67q0 -44 -29 -67.5t-86 -23.5q-56 0 -84.5 23.5t-28.5 67.5zM331 644q0 22 -13.5 34.5
t-45.5 12.5q-33 0 -46 -12.5t-13 -34.5t13 -34.5t46 -12.5q32 0 45.5 12.5t13.5 34.5z" />
    <glyph glyph-name="AEacute" unicode="&#x1fc;" horiz-adv-x="997" 
d="M458 690h493v-66h-373v-239h316v-66h-316v-253h377v-66h-459v219h-278l-151 -219h-85zM263 285h233v338zM640 758l115 142h102l-142 -142h-75z" />
    <glyph glyph-name="aeacute" unicode="&#x1fd;" horiz-adv-x="916" 
d="M42 135q0 71 42 113.5t152 42.5h181v17q0 75 -35 108t-108 33q-54 0 -90.5 -19.5t-47.5 -69.5h-78q12 72 66 108.5t150 36.5q73 0 120.5 -23t68.5 -71q27 49 74 71.5t111 22.5q108 0 167.5 -58t59.5 -183v-24h-382v-24q0 -86 39.5 -128.5t112.5 -42.5q64 0 100 23.5
t47 68.5h76q-16 -72 -72 -110t-151 -38q-73 0 -123 29.5t-73 95.5q-22 -58 -79.5 -91.5t-142.5 -33.5q-94 0 -139.5 38.5t-45.5 107.5zM645 449q-72 0 -111 -36.5t-41 -121.5h306q-3 86 -41.5 122t-112.5 36zM238 45q35 0 67.5 8.5t57 27.5t39.5 50t15 75v34h-171
q-68 0 -97 -24t-29 -73v-13q0 -41 29.5 -63t88.5 -22zM431 569l112 165h96l-138 -165h-70z" />
    <glyph glyph-name="Oslashacute" unicode="&#x1fe;" horiz-adv-x="748" 
d="M51 346q0 191 81.5 273t242.5 82q56 0 102.5 -9.5t83.5 -29.5l54 73h81l-82 -112q42 -42 63.5 -110.5t21.5 -166.5q0 -190 -82 -273.5t-242 -83.5q-60 0 -109.5 11t-86.5 34l-55 -74h-81l86 116q-39 43 -58.5 110t-19.5 160zM133 309q0 -54 10.5 -96t32.5 -73l342 464
q-28 16 -63.5 23.5t-79.5 7.5q-121 0 -181.5 -60t-60.5 -188v-78zM616 309v78q0 57 -12 101t-36 74l-345 -468q28 -19 66.5 -29t85.5 -10q121 0 181 63.5t60 190.5zM324 759l115 142h102l-142 -142h-75z" />
    <glyph glyph-name="oslashacute" unicode="&#x1ff;" horiz-adv-x="570" 
d="M44 247q0 140 63.5 199t177.5 59q32 0 60.5 -4t52.5 -13l40 64h68l-58 -92q38 -30 58 -82.5t20 -130.5q0 -143 -62.5 -200.5t-178.5 -57.5q-34 0 -64 4.5t-55 14.5l-33 -53h-68l52 82q-36 30 -54.5 81.5t-18.5 128.5zM120 216q0 -39 9 -68.5t25 -50.5l211 338
q-17 7 -37 10t-43 3q-79 0 -122 -41t-43 -129v-62zM450 217v61q0 41 -9.5 72t-28.5 52l-212 -340q17 -8 38.5 -12t46.5 -4q79 0 122 41.5t43 129.5zM237 569l112 165h96l-138 -165h-70z" />
    <glyph glyph-name="Scommaaccent" unicode="&#x218;" horiz-adv-x="622" 
d="M42 178h83q9 -72 55 -98t141 -26q90 0 133 31t43 97q0 87 -69.5 107.5t-152 32.5t-152 44.5t-69.5 142.5q0 98 65.5 145t188.5 47q119 0 184.5 -41.5t72.5 -137.5h-83q-5 66 -51 90t-123 24q-85 0 -129.5 -28.5t-44.5 -98.5q0 -82 69.5 -101t152.5 -31t152.5 -46.5
t69.5 -146.5q0 -101 -64 -148t-192 -47q-137 0 -204 42t-76 147zM266 -196q25 0 35.5 14t10.5 42v1h-4q-24 0 -37.5 11.5t-13.5 35.5t14 35.5t39 11.5q26 0 40.5 -12t14.5 -39v-36q0 -57 -23.5 -83t-75.5 -26v45z" />
    <glyph glyph-name="scommaaccent" unicode="&#x219;" horiz-adv-x="508" 
d="M36 149h78q4 -58 41 -81t103 -23q69 0 104 21t35 69q0 56 -54.5 68.5t-119.5 21.5t-119.5 33.5t-54.5 104.5q0 69 53.5 106t149.5 37q90 0 145.5 -35t59.5 -111h-77q-4 53 -39.5 71.5t-88.5 18.5q-61 0 -94.5 -20.5t-33.5 -64.5q0 -54 54.5 -66.5t119 -21t119 -34
t54.5 -106.5q0 -78 -58 -112.5t-154 -34.5q-104 0 -161.5 39t-61.5 120zM209 -196q25 0 35.5 14t10.5 42v1h-4q-24 0 -37.5 11.5t-13.5 35.5t14 35.5t39 11.5q26 0 40.5 -12t14.5 -39v-36q0 -57 -23.5 -83t-75.5 -26v45z" />
    <glyph glyph-name="Tcommaaccent" unicode="&#x21a;" horiz-adv-x="578" 
d="M248 622h-235v68h551v-68h-234v-622h-82v622zM244 -196q25 0 35.5 14t10.5 42v1h-4q-24 0 -37.5 11.5t-13.5 35.5t14 35.5t39 11.5q26 0 40.5 -12t14.5 -39v-36q0 -57 -23.5 -83t-75.5 -26v45z" />
    <glyph glyph-name="tcommaaccent" unicode="&#x21b;" horiz-adv-x="327" 
d="M87 120v314h-65v60h65v159h76v-159h143v-60h-143v-310q0 -32 15 -48t49 -16h79v-60h-93q-69 0 -97.5 28t-28.5 92zM155 -196q25 0 35.5 14t10.5 42v1h-4q-24 0 -37.5 11.5t-13.5 35.5t14 35.5t39 11.5q26 0 40.5 -12t14.5 -39v-36q0 -57 -23.5 -83t-75.5 -26v45z" />
    <glyph glyph-name="uni02BC" unicode="&#x2bc;" horiz-adv-x="207" 
d="M61 522q25 0 35 15t10 45v17h-3q-25 0 -38 13t-13 38t14 37.5t39 12.5t39.5 -12t14.5 -39v-61q0 -59 -23.5 -86t-74.5 -27v47z" />
    <glyph glyph-name="circumflex" unicode="&#x2c6;" horiz-adv-x="346" 
d="M5 569l133 165h69l134 -165h-80l-90 108l-89 -108h-77z" />
    <glyph glyph-name="caron" unicode="&#x2c7;" horiz-adv-x="346" 
d="M5 734h80l90 -108l89 108h77l-133 -165h-69z" />
    <glyph glyph-name="breve" unicode="&#x2d8;" horiz-adv-x="323" 
d="M10 728h66q0 -51 20 -76.5t65 -25.5q44 0 65 25.5t21 76.5h66q0 -78 -38.5 -119t-113.5 -41q-74 0 -112.5 41t-38.5 119z" />
    <glyph glyph-name="dotaccent" unicode="&#x2d9;" horiz-adv-x="276" 
d="M86 657q0 24 13 36.5t38 12.5q26 0 40 -12.5t14 -36.5q0 -25 -14 -38t-40 -13q-25 0 -38 13t-13 38z" />
    <glyph glyph-name="ring" unicode="&#x2da;" horiz-adv-x="250" 
d="M11 651q0 43 28.5 67t84.5 24q57 0 86 -24t29 -67q0 -44 -29 -67.5t-86 -23.5q-56 0 -84.5 23.5t-28.5 67.5zM184 651q0 22 -13.5 34.5t-45.5 12.5q-33 0 -46 -12.5t-13 -34.5t13 -34.5t46 -12.5q32 0 45.5 12.5t13.5 34.5z" />
    <glyph glyph-name="ogonek" unicode="&#x2db;" horiz-adv-x="295" 
d="M230 -189q-63 0 -100 24t-37 72q0 37 22.5 61.5t60.5 32.5l60 -1q-40 -12 -58.5 -32t-18.5 -47t24.5 -41.5t79.5 -14.5v-54h-33z" />
    <glyph glyph-name="tilde" unicode="&#x2dc;" horiz-adv-x="333" 
d="M98 729q28 0 47 -15t33 -33t26 -33t27 -15q20 0 28.5 27t8.5 67h55q0 -69 -21 -110.5t-68 -41.5q-28 0 -47 15t-33 33t-26 33t-26 15q-21 0 -29 -27.5t-8 -67.5h-55q0 69 21 111t67 42z" />
    <glyph glyph-name="hungarumlaut" unicode="&#x2dd;" horiz-adv-x="342" 
d="M5 569l77 165h90l-103 -165h-64zM138 569l106 165h93l-131 -165h-68z" />
    <glyph glyph-name="afii10023" unicode="&#x401;" horiz-adv-x="581" 
d="M81 690h454v-66h-373v-239h316v-66h-316v-253h377v-66h-458v690zM149 826q0 24 13 36.5t38 12.5t38.5 -12.5t13.5 -36.5q0 -25 -13.5 -37.5t-38.5 -12.5t-38 12.5t-13 37.5zM366 826q0 24 13 36.5t38 12.5t38 -12.5t13 -36.5q0 -25 -13 -37.5t-38 -12.5t-38 12.5
t-13 37.5z" />
    <glyph glyph-name="afii10051" unicode="&#x402;" horiz-adv-x="765" 
d="M492 -134h54q51 0 72 36.5t21 127.5v147q0 85 -50.5 120t-143.5 35q-29 0 -65.5 -2.5t-70.5 -6.5v-323h-81v622h-214v68h551v-68h-256v-233q33 4 71 7t68 3q153 0 213 -60.5t60 -184.5v-111q0 -119 -36 -181t-112 -62h-81v66z" />
    <glyph glyph-name="afii10052" unicode="&#x403;" horiz-adv-x="518" 
d="M229 758l115 142h102l-142 -142h-75zM81 690h423v-68h-342v-622h-81v690z" />
    <glyph glyph-name="afii10053" unicode="&#x404;" horiz-adv-x="666" 
d="M50 345q0 190 79 273t223 83q130 0 198 -49.5t81 -159.5h-82q-13 83 -60 113t-137 30q-101 0 -160.5 -59t-59.5 -190v-3h310v-64h-310v-10q0 -128 58.5 -191t162.5 -63q86 0 134 28.5t63 107.5h82q-16 -107 -84 -154.5t-196 -47.5q-144 0 -223 83t-79 273z" />
    <glyph glyph-name="afii10054" unicode="&#x405;" horiz-adv-x="622" 
d="M42 178h83q9 -72 55 -98t141 -26q90 0 133 31t43 97q0 87 -69.5 107.5t-152 32.5t-152 44.5t-69.5 142.5q0 98 65.5 145t188.5 47q119 0 184.5 -41.5t72.5 -137.5h-83q-5 66 -51 90t-123 24q-85 0 -129.5 -28.5t-44.5 -98.5q0 -82 69.5 -101t152.5 -31t152.5 -46.5
t69.5 -146.5q0 -101 -64 -148t-192 -47q-137 0 -204 42t-76 147z" />
    <glyph glyph-name="afii10055" unicode="&#x406;" horiz-adv-x="243" 
d="M81 690h81v-690h-81v690z" />
    <glyph glyph-name="afii10056" unicode="&#x407;" horiz-adv-x="243" 
d="M15 826q0 24 12 36.5t35 12.5t35.5 -12.5t12.5 -36.5q0 -25 -12.5 -37.5t-35.5 -12.5t-35 12.5t-12 37.5zM133 826q0 24 12.5 36.5t34.5 12.5q23 0 35.5 -12.5t12.5 -36.5q0 -25 -12.5 -37.5t-35.5 -12.5q-22 0 -34.5 12.5t-12.5 37.5zM81 690h81v-690h-81v690z" />
    <glyph glyph-name="afii10057" unicode="&#x408;" horiz-adv-x="312" 
d="M13 66h70q38 0 53.5 19t15.5 61v544h82v-556q0 -69 -28.5 -101.5t-106.5 -32.5h-86v66z" />
    <glyph glyph-name="afii10058" unicode="&#x409;" horiz-adv-x="1027" 
d="M13 74h15q35 0 57 16.5t34 54t16.5 100t4.5 152.5v293h429v-265h206q113 0 166.5 -56t53.5 -155t-53.5 -156.5t-166.5 -57.5h-288v622h-272v-225q0 -112 -7.5 -188t-27.5 -122.5t-55.5 -66.5t-91.5 -20h-20v74zM913 195v37q0 52 -32.5 89.5t-115.5 37.5h-196v-292h196
q83 0 115.5 37t32.5 91z" />
    <glyph glyph-name="afii10059" unicode="&#x40a;" horiz-adv-x="1044" 
d="M81 690h81v-292h343v292h82v-292h208q113 0 166.5 -52.5t53.5 -143.5q0 -93 -53.5 -147.5t-166.5 -54.5h-290v330h-343v-330h-81v690zM932 183v36q0 46 -32 79.5t-115 33.5h-198v-266h198q83 0 115 34t32 83z" />
    <glyph glyph-name="afii10060" unicode="&#x40b;" horiz-adv-x="766" 
d="M228 622h-214v68h551v-68h-256v-233q33 4 71 7t68 3q140 0 206 -47t66 -167v-187h-82v181q0 47 -12 77t-36 47t-60.5 23t-85.5 6q-28 0 -64.5 -2.5t-70.5 -6.5v-323h-81v622z" />
    <glyph glyph-name="afii10061" unicode="&#x40c;" horiz-adv-x="615" 
d="M266 758l115 142h102l-142 -142h-75zM81 690h81v-309h91l255 309h92l-278 -337l295 -353h-101l-262 314h-92v-314h-81v690z" />
    <glyph glyph-name="afii10062" unicode="&#x40e;" horiz-adv-x="593" 
d="M178 0l90 185l-259 505h86l214 -418l202 418h77l-333 -690h-77zM153 899h72q1 -49 20.5 -70t62.5 -21t62.5 21t20.5 70h73q-1 -70 -39.5 -107.5t-116.5 -37.5q-77 0 -115.5 37t-39.5 108z" />
    <glyph glyph-name="afii10145" unicode="&#x40f;" horiz-adv-x="683" 
d="M304 -150v150h-223v690h81v-622h359v622h81v-690h-223v-150h-75z" />
    <glyph glyph-name="afii10017" unicode="&#x410;" horiz-adv-x="651" 
d="M267 690h117l258 -690h-84l-74 200h-325l-74 -200h-76zM183 264h277l-139 372z" />
    <glyph glyph-name="afii10018" unicode="&#x411;" horiz-adv-x="626" 
d="M81 690h464v-66h-383v-224h212q110 0 163 -52t53 -145q0 -95 -53 -149t-163 -54h-293v690zM507 183v37q0 49 -34 83t-112 34h-199v-272h199q78 0 112 33.5t34 84.5z" />
    <glyph glyph-name="afii10019" unicode="&#x412;" horiz-adv-x="640" 
d="M81 690h303q90 0 139 -42t49 -128q0 -59 -26.5 -103t-80.5 -61q60 -13 92.5 -54t32.5 -110q0 -94 -49.5 -143t-145.5 -49h-314v690zM490 493v35q0 47 -28.5 73.5t-86.5 26.5h-213v-246h213q57 0 86 29.5t29 81.5zM509 169v44q0 51 -32.5 79.5t-98.5 28.5h-216v-259h216
q64 0 97.5 28t33.5 79z" />
    <glyph glyph-name="afii10020" unicode="&#x413;" horiz-adv-x="518" 
d="M81 690h423v-68h-342v-622h-81v690z" />
    <glyph glyph-name="afii10021" unicode="&#x414;" horiz-adv-x="734" 
d="M13 -150v218h67q26 42 48.5 126.5t22.5 239.5v256h475v-622h85v-218h-76v150h-547v-150h-75zM545 622h-319v-188q0 -156 -19.5 -240t-41.5 -126h380v554z" />
    <glyph glyph-name="afii10022" unicode="&#x415;" horiz-adv-x="581" 
d="M81 690h454v-66h-373v-239h316v-66h-316v-253h377v-66h-458v690z" />
    <glyph glyph-name="afii10024" unicode="&#x416;" horiz-adv-x="923" 
d="M419 690h82v-309h57l263 309h89l-286 -336l297 -354h-99l-264 313h-57v-313h-82v313h-56l-264 -313h-96l295 350l-291 340h93l263 -309h56v309z" />
    <glyph glyph-name="afii10025" unicode="&#x417;" horiz-adv-x="619" 
d="M39 184h82q4 -71 55 -100.5t135 -29.5q90 0 135 30.5t45 86.5v37q0 52 -37 82t-112 30h-135v64h135q62 0 95 29.5t33 79.5v33q0 55 -41.5 82.5t-122.5 27.5q-70 0 -120 -24t-55 -95h-82q6 99 76.5 141.5t180.5 42.5q119 0 182.5 -45t63.5 -138q0 -60 -31.5 -103
t-89.5 -56q65 -11 103.5 -51.5t38.5 -113.5q0 -101 -65 -153t-197 -52q-123 0 -194 44.5t-78 150.5z" />
    <glyph glyph-name="afii10026" unicode="&#x418;" horiz-adv-x="705" 
d="M543 579l-372 -579h-90v690h81v-579l373 579h90v-690h-82v579z" />
    <glyph glyph-name="afii10027" unicode="&#x419;" horiz-adv-x="705" 
d="M543 579l-372 -579h-90v690h81v-579l373 579h90v-690h-82v579zM198 899h72q1 -49 20.5 -70t62.5 -21t62.5 21t20.5 70h73q-1 -70 -39.5 -107.5t-116.5 -37.5q-77 0 -115.5 37t-39.5 108z" />
    <glyph glyph-name="afii10028" unicode="&#x41a;" horiz-adv-x="615" 
d="M81 690h81v-309h91l255 309h92l-278 -337l295 -353h-101l-262 314h-92v-314h-81v690z" />
    <glyph glyph-name="afii10029" unicode="&#x41b;" horiz-adv-x="681" 
d="M13 74h15q35 0 57 16.5t34 54t16.5 99.5t4.5 153v293h460v-690h-82v622h-303v-225q0 -112 -7.5 -188t-27.5 -122.5t-55.5 -66.5t-91.5 -20h-20v74z" />
    <glyph glyph-name="afii10030" unicode="&#x41c;" horiz-adv-x="851" 
d="M380 105l-225 518v-623h-74v690h123l221 -510l224 510h121v-690h-81v624l-227 -519h-82z" />
    <glyph glyph-name="afii10031" unicode="&#x41d;" horiz-adv-x="694" 
d="M81 690h81v-303h369v303h82v-690h-82v319h-369v-319h-81v690z" />
    <glyph glyph-name="afii10032" unicode="&#x41e;" horiz-adv-x="747" 
d="M50 346q0 191 81.5 273t242.5 82q160 0 242 -82t82 -273q0 -190 -82 -273.5t-242 -83.5q-161 0 -242.5 83.5t-81.5 273.5zM615 309v78q0 128 -60 188t-181 60t-181.5 -60t-60.5 -188v-78q0 -127 60.5 -190.5t181.5 -63.5t181 63.5t60 190.5z" />
    <glyph glyph-name="afii10033" unicode="&#x41f;" horiz-adv-x="683" 
d="M81 690h521v-690h-81v622h-359v-622h-81v690z" />
    <glyph glyph-name="afii10034" unicode="&#x420;" horiz-adv-x="623" 
d="M81 690h301q109 0 159.5 -55.5t50.5 -152.5t-50.5 -151t-159.5 -54h-220v-277h-81v690zM510 464v36q0 54 -32.5 88.5t-104.5 34.5h-211v-279h211q71 0 104 34t33 86z" />
    <glyph glyph-name="afii10035" unicode="&#x421;" horiz-adv-x="667" 
d="M50 345q0 190 79 273t223 83q130 0 198 -49.5t81 -159.5h-82q-13 83 -60 113t-137 30q-101 0 -160.5 -59t-59.5 -190v-77q0 -128 58.5 -191t162.5 -63q86 0 134 28.5t63 107.5h82q-16 -107 -84 -154.5t-196 -47.5q-144 0 -223 83t-79 273z" />
    <glyph glyph-name="afii10036" unicode="&#x422;" horiz-adv-x="578" 
d="M248 622h-235v68h551v-68h-234v-622h-82v622z" />
    <glyph glyph-name="afii10037" unicode="&#x423;" horiz-adv-x="593" 
d="M178 0l90 185l-259 505h86l214 -418l202 418h77l-333 -690h-77z" />
    <glyph glyph-name="afii10038" unicode="&#x424;" horiz-adv-x="863" 
d="M391 100q-179 1 -264.5 62t-85.5 198q0 142 85.5 200.5t264.5 59.5v81h81v-81q179 -1 264.5 -59.5t85.5 -200.5q0 -137 -85.5 -198t-264.5 -62v-111h-81v111zM391 555q-147 0 -207 -42t-60 -133v-44q0 -88 58 -129.5t209 -41.5v390zM739 336v44q0 91 -59 133t-208 42
v-390q151 0 209 41.5t58 129.5z" />
    <glyph glyph-name="afii10039" unicode="&#x425;" horiz-adv-x="626" 
d="M529 0l-219 297l-221 -297h-85l260 350l-251 340h93l210 -283l210 283h85l-250 -335l261 -355h-93z" />
    <glyph glyph-name="afii10040" unicode="&#x426;" horiz-adv-x="709" 
d="M611 -150v150h-530v690h81v-622h359v622h81v-622h84v-218h-75z" />
    <glyph glyph-name="afii10041" unicode="&#x427;" horiz-adv-x="645" 
d="M483 286q-36 -5 -78.5 -8t-76.5 -3q-146 0 -213.5 47.5t-67.5 167.5v200h82v-194q0 -94 50.5 -124t153.5 -30q32 0 72.5 3t77.5 7v338h81v-690h-81v286z" />
    <glyph glyph-name="afii10042" unicode="&#x428;" horiz-adv-x="955" 
d="M81 690h81v-622h275v622h82v-622h274v622h82v-690h-794v690z" />
    <glyph glyph-name="afii10043" unicode="&#x429;" horiz-adv-x="982" 
d="M81 690h81v-622h275v622h82v-622h274v622h82v-622h84v-218h-76v150h-802v690z" />
    <glyph glyph-name="afii10044" unicode="&#x42a;" horiz-adv-x="729" 
d="M15 690h253v-265h210q113 0 166 -56t53 -155t-53 -156.5t-166 -57.5h-291v622h-172v68zM615 195v37q0 52 -32.5 89.5t-115.5 37.5h-199v-292h199q83 0 115.5 37t32.5 91z" />
    <glyph glyph-name="afii10045" unicode="&#x42b;" horiz-adv-x="850" 
d="M81 690h81v-265h210q113 0 166 -56t53 -155t-53 -156.5t-166 -57.5h-291v690zM509 195v37q0 52 -32.5 89.5t-115.5 37.5h-199v-292h199q83 0 115.5 37t32.5 91zM688 690h81v-690h-81v690z" />
    <glyph glyph-name="afii10046" unicode="&#x42c;" horiz-adv-x="623" 
d="M81 690h81v-265h210q113 0 166 -56t53 -155t-53 -156.5t-166 -57.5h-291v690zM509 195v37q0 52 -32.5 89.5t-115.5 37.5h-199v-292h199q83 0 115.5 37t32.5 91z" />
    <glyph glyph-name="afii10047" unicode="&#x42d;" horiz-adv-x="665" 
d="M32 191h82q15 -75 63 -105.5t133 -30.5q104 0 163 60.5t59 192.5v11h-309v64h309v5q0 132 -56.5 189.5t-156.5 57.5q-83 0 -134.5 -30t-64.5 -113h-82q16 112 88 160.5t194 48.5q143 0 219 -81t76 -275q0 -193 -80 -274.5t-224 -81.5q-127 0 -195 50t-84 152z" />
    <glyph glyph-name="afii10048" unicode="&#x42e;" horiz-adv-x="951" 
d="M81 690h81v-304h115q8 169 87 242t225 73q155 0 233.5 -82.5t78.5 -273.5q0 -185 -78.5 -270.5t-233.5 -85.5q-150 0 -229 79.5t-84 251.5h-114v-320h-81v690zM819 312v73q0 129 -57.5 189.5t-172.5 60.5q-114 0 -172 -60.5t-58 -190.5v-72q0 -129 58 -193t172 -64
q115 0 172.5 64t57.5 193z" />
    <glyph glyph-name="afii10049" unicode="&#x42f;" horiz-adv-x="646" 
d="M484 284h-203l-163 -284h-89l168 291q-72 15 -108 65t-36 130q0 95 52 149.5t159 54.5h302v-690h-82v284zM484 624h-210q-72 0 -105.5 -33.5t-33.5 -87.5v-35q0 -52 33.5 -85.5t105.5 -33.5h210v275z" />
    <glyph glyph-name="afii10065" unicode="&#x430;" horiz-adv-x="554" 
d="M42 132q0 67 41.5 104t148.5 44l178 12v15q0 76 -34 109t-105 33q-54 0 -89 -19.5t-46 -69.5h-78q12 72 65 108.5t148 36.5q108 0 161.5 -47t53.5 -151v-307h-72v86q-27 -46 -78.5 -71.5t-120.5 -25.5q-88 0 -130.5 37.5t-42.5 105.5zM120 128q0 -40 27.5 -61.5
t81.5 -21.5q35 0 68 8.5t58 28t40 51t15 76.5v32l-168 -12q-63 -5 -92.5 -24.5t-29.5 -63.5v-13z" />
    <glyph glyph-name="afii10066" unicode="&#x431;" horiz-adv-x="587" 
d="M61 258q0 135 13 224t45.5 141t90 74t145.5 25q63 2 99 6t56 8v-66q-19 -5 -54.5 -8.5t-97.5 -4.5q-63 -2 -105.5 -14t-68.5 -41.5t-39 -81t-18 -131.5q25 50 73.5 77t118.5 27q110 0 167 -59t57 -188q0 -137 -61 -197t-180 -60q-117 0 -179 61.5t-62 207.5zM466 217v55
q0 89 -44 126t-120 37q-75 0 -119.5 -37t-44.5 -126v-55q0 -90 44.5 -130.5t119.5 -40.5q78 0 121 40.5t43 130.5z" />
    <glyph glyph-name="afii10067" unicode="&#x432;" horiz-adv-x="535" 
d="M74 494h245q80 0 116.5 -32.5t36.5 -85.5q0 -37 -17 -70t-67 -47q60 -13 82 -46t22 -73q0 -73 -40.5 -106.5t-123.5 -33.5h-254v494zM395 353v19q0 31 -17.5 49.5t-66.5 18.5h-161v-160h165q46 0 63 21t17 52zM415 132v23q0 37 -24 55.5t-75 18.5h-166v-175h166
q51 0 75 19t24 59z" />
    <glyph glyph-name="afii10068" unicode="&#x433;" horiz-adv-x="422" 
d="M74 494h334v-60h-258v-434h-76v494z" />
    <glyph glyph-name="afii10069" unicode="&#x434;" horiz-adv-x="599" 
d="M11 -140v200h56q28 47 39.5 117.5t11.5 166.5v150h384v-434h77v-200h-70v140h-428v-140h-70zM426 434h-239v-90q0 -96 -11 -167t-33 -117h283v374z" />
    <glyph glyph-name="afii10070" unicode="&#x435;" horiz-adv-x="543" 
d="M44 247q0 137 59.5 197.5t168.5 60.5q110 0 170 -57.5t60 -179.5v-24h-382v-28q0 -86 39.5 -128.5t112.5 -42.5q64 0 100 23.5t47 68.5h76q-16 -72 -72 -110t-151 -38q-109 0 -168.5 60t-59.5 198zM272 449q-71 0 -110 -35.5t-42 -118.5h306q-3 84 -41.5 119t-112.5 35z
" />
    <glyph glyph-name="afii10072" unicode="&#x436;" horiz-adv-x="739" 
d="M330 494h76v-214h60l165 214h81l-182 -237l204 -257h-91l-175 219h-62v-219h-76v219h-62l-175 -219h-88l201 251l-186 243h85l165 -214h60v214z" />
    <glyph glyph-name="afii10073" unicode="&#x437;" horiz-adv-x="502" 
d="M30 139h77q5 -49 39.5 -72t99.5 -23q68 0 102 20t34 69v17q0 40 -30 61t-87 21h-90v54h87q55 0 81 19t26 56v19q0 37 -30.5 53.5t-91.5 16.5q-63 0 -94 -19.5t-38 -61.5h-78q8 71 62 103.5t147 32.5q95 0 147.5 -32t52.5 -98q0 -38 -20.5 -68t-71.5 -43q54 -14 80 -46
t26 -74q0 -84 -55 -119.5t-159 -35.5q-92 0 -150.5 34.5t-65.5 115.5z" />
    <glyph glyph-name="afii10074" unicode="&#x438;" horiz-adv-x="582" 
d="M74 494h76v-405l269 405h89v-494h-76v406l-269 -406h-89v494z" />
    <glyph glyph-name="afii10075" unicode="&#x439;" horiz-adv-x="582" 
d="M139 728h69q0 -54 19.5 -81t62.5 -27q42 0 62.5 27t20.5 81h69q0 -78 -38.5 -119t-113.5 -41q-74 0 -112.5 41t-38.5 119zM74 494h76v-419l262 419h96v-494h-76v419l-263 -419h-95v494z" />
    <glyph glyph-name="afii10076" unicode="&#x43a;" horiz-adv-x="504" 
d="M74 494h76v-214h65l183 214h86l-205 -239l229 -255h-95l-197 219h-66v-219h-76v494z" />
    <glyph glyph-name="afii10077" unicode="&#x43b;" horiz-adv-x="559" 
d="M16 0v67h9q23 0 39.5 8t26.5 31.5t15 66t5 110.5v211h375v-494h-77v434h-228v-151q0 -90 -8.5 -145.5t-27 -86t-47.5 -41t-69 -10.5h-13z" />
    <glyph glyph-name="afii10078" unicode="&#x43c;" horiz-adv-x="707" 
d="M312 75l-169 354v-429h-69v494h110l169 -354l170 354h110v-494h-76v429l-169 -354h-76z" />
    <glyph glyph-name="afii10079" unicode="&#x43d;" horiz-adv-x="571" 
d="M74 494h76v-212h271v212h76v-494h-76v222h-271v-222h-76v494z" />
    <glyph glyph-name="afii10080" unicode="&#x43e;" horiz-adv-x="570" 
d="M44 247q0 140 63.5 199t177.5 59q116 0 178.5 -59t62.5 -199q0 -143 -62.5 -200.5t-178.5 -57.5q-114 0 -177.5 57.5t-63.5 200.5zM449 217v61q0 88 -43 129t-121 41t-121 -41t-43 -129v-62q0 -87 43 -128.5t121 -41.5t121 41.5t43 129.5z" />
    <glyph glyph-name="afii10081" unicode="&#x43f;" horiz-adv-x="564" 
d="M74 494h416v-494h-76v434h-264v-434h-76v494z" />
    <glyph glyph-name="afii10082" unicode="&#x440;" horiz-adv-x="599" 
d="M74 494h73v-82q27 49 73 71t108 22q110 0 169 -59t59 -199t-59 -199t-169 -59q-60 0 -105.5 20.5t-72.5 66.5v-276h-76v694zM478 216v63q0 90 -44 129.5t-120 39.5q-78 0 -121 -39.5t-43 -129.5v-63q0 -87 45 -128.5t119 -41.5q76 0 120 42t44 128z" />
    <glyph glyph-name="afii10083" unicode="&#x441;" horiz-adv-x="525" 
d="M44 245q0 134 57 197t172 63q94 0 150 -35.5t67 -111.5h-78q-10 50 -46 70t-93 20q-77 0 -114.5 -40.5t-37.5 -127.5v-67q0 -92 43 -129.5t109 -37.5q63 0 96.5 23.5t43.5 66.5h77q-12 -74 -68 -110.5t-149 -36.5q-105 0 -167 55.5t-62 200.5z" />
    <glyph glyph-name="afii10084" unicode="&#x442;" horiz-adv-x="464" 
d="M194 434h-180v60h435v-60h-179v-434h-76v434z" />
    <glyph glyph-name="afii10085" unicode="&#x443;" horiz-adv-x="509" 
d="M49 -140h42q47 0 70.5 16.5t42.5 65.5l17 43l-212 509h81l170 -415l167 415h72l-231 -566q-29 -74 -64.5 -101t-104.5 -27h-50v60z" />
    <glyph glyph-name="afii10086" unicode="&#x444;" horiz-adv-x="733" 
d="M328 -11q-133 -1 -209 57t-76 201q0 142 76 200t209 58v225h76v-225q133 0 209.5 -58t76.5 -200q0 -143 -76.5 -200.5t-209.5 -57.5v-189h-76v189zM328 448q-98 0 -153 -39.5t-55 -132.5v-53q0 -94 53.5 -135t154.5 -41v401zM613 223v54q0 93 -54.5 132t-154.5 39v-401
q99 0 154 41t55 135z" />
    <glyph glyph-name="afii10087" unicode="&#x445;" horiz-adv-x="497" 
d="M402 0l-157 204l-160 -204h-78l196 251l-187 243h88l148 -190l149 190h78l-186 -237l197 -257h-88z" />
    <glyph glyph-name="afii10088" unicode="&#x446;" horiz-adv-x="587" 
d="M497 -140v140h-423v494h76v-434h264v434h76v-434h77v-200h-70z" />
    <glyph glyph-name="afii10089" unicode="&#x447;" horiz-adv-x="524" 
d="M374 205q-31 -5 -62 -7.5t-71 -2.5q-110 0 -156 41t-46 137v121h76v-118q0 -69 32 -95t106 -26q36 0 64 2.5t57 7.5v229h76v-494h-76v205z" />
    <glyph glyph-name="afii10090" unicode="&#x448;" horiz-adv-x="789" 
d="M74 494h76v-434h206v434h77v-434h206v434h76v-494h-641v494z" />
    <glyph glyph-name="afii10091" unicode="&#x449;" horiz-adv-x="812" 
d="M74 494h76v-434h206v434h77v-434h206v434h76v-434h79v-200h-70v140h-650v494z" />
    <glyph glyph-name="afii10092" unicode="&#x44a;" horiz-adv-x="584" 
d="M142 0v434h-126v60h202v-177h174q81 0 122 -40t41 -113q0 -79 -41 -121.5t-122 -42.5h-250zM478 150v27q0 35 -22.5 59t-75.5 24h-162v-203h162q53 0 75.5 26.5t22.5 66.5z" />
    <glyph glyph-name="afii10093" unicode="&#x44b;" horiz-adv-x="704" 
d="M74 0v494h76v-177h174q81 0 122 -40t41 -113q0 -79 -41 -121.5t-122 -42.5h-250zM410 150v27q0 35 -22.5 59t-75.5 24h-162v-203h162q53 0 75.5 26.5t22.5 66.5zM553 494h76v-494h-76v494z" />
    <glyph glyph-name="afii10094" unicode="&#x44c;" horiz-adv-x="516" 
d="M74 0v494h76v-177h174q81 0 122 -40t41 -113q0 -79 -41 -121.5t-122 -42.5h-250zM410 150v27q0 35 -22.5 59t-75.5 24h-162v-203h162q53 0 75.5 26.5t22.5 66.5z" />
    <glyph glyph-name="afii10095" unicode="&#x44d;" horiz-adv-x="524" 
d="M32 137h77q11 -44 44 -67.5t99 -23.5q76 0 114 42.5t38 123.5v12h-222v54h222v3q0 80 -37 123.5t-115 43.5q-60 0 -95 -20.5t-47 -68.5h-77q13 71 68 108.5t151 37.5q114 0 171 -63t57 -197q0 -132 -57 -194t-171 -62q-93 0 -150 36.5t-70 111.5z" />
    <glyph glyph-name="afii10096" unicode="&#x44e;" horiz-adv-x="772" 
d="M74 494h76v-211h107q7 122 68 172t167 50q114 0 175 -58t61 -200q0 -141 -61 -199.5t-175 -58.5q-109 0 -170 53.5t-66 181.5h-106v-224h-76v494zM650 219v57q0 96 -42.5 134t-115.5 38t-116 -38t-43 -134v-57q0 -96 43 -134.5t116 -38.5t115.5 38.5t42.5 134.5z" />
    <glyph glyph-name="afii10097" unicode="&#x44f;" horiz-adv-x="525" 
d="M375 191h-132l-131 -191h-82l135 198q-60 11 -90 48.5t-30 94.5q0 72 41 112.5t122 40.5h244v-494h-77v191zM375 438h-159q-43 0 -68.5 -20.5t-25.5 -61.5v-30q0 -38 24.5 -58.5t69.5 -20.5h159v191z" />
    <glyph glyph-name="afii10071" unicode="&#x451;" horiz-adv-x="543" 
d="M44 247q0 137 59.5 197.5t168.5 60.5q110 0 170 -57.5t60 -179.5v-24h-382v-28q0 -86 39.5 -128.5t112.5 -42.5q64 0 100 23.5t47 68.5h76q-16 -72 -72 -110t-151 -38q-109 0 -168.5 60t-59.5 198zM272 449q-71 0 -110 -35.5t-42 -118.5h306q-3 84 -41.5 119t-112.5 35z
M121 653q0 24 13 36.5t38 12.5t38.5 -12.5t13.5 -36.5q0 -25 -13.5 -37.5t-38.5 -12.5t-38 12.5t-13 37.5zM323 653q0 24 13 36.5t38 12.5t38 -12.5t13 -36.5q0 -25 -13 -37.5t-38 -12.5t-38 12.5t-13 37.5z" />
    <glyph glyph-name="afii10099" unicode="&#x452;" horiz-adv-x="581" 
d="M340 -140h34q36 0 49.5 16.5t13.5 46.5v386q0 82 -35 110.5t-100 28.5q-69 0 -110.5 -32t-41.5 -108v-308h-76v577h-80v54h80v99h76v-99h162v-54h-162v-158q23 46 68.5 66t102.5 20q92 0 142.5 -45.5t50.5 -146.5v-394q0 -61 -28 -90t-98 -29h-48v60z" />
    <glyph glyph-name="afii10100" unicode="&#x453;" horiz-adv-x="422" 
d="M74 494h334v-60h-258v-434h-76v494zM191 569l112 165h96l-138 -165h-70z" />
    <glyph glyph-name="afii10101" unicode="&#x454;" horiz-adv-x="525" 
d="M45 245q0 140 59.5 200t169.5 60q97 0 151.5 -38t67.5 -109h-77q-13 48 -48.5 69t-92.5 21q-72 0 -113 -39t-41 -129v-2h222v-54h-222v-11q0 -92 41 -129.5t113 -37.5q63 0 95 22t46 68h78q-19 -75 -72.5 -111t-147.5 -36q-110 0 -169.5 56.5t-59.5 199.5z" />
    <glyph glyph-name="afii10102" unicode="&#x455;" horiz-adv-x="508" 
d="M36 149h78q4 -58 41 -81t103 -23q69 0 104 21t35 69q0 56 -54.5 68.5t-119.5 21.5t-119.5 33.5t-54.5 104.5q0 69 53.5 106t149.5 37q90 0 145.5 -35t59.5 -111h-77q-4 53 -39.5 71.5t-88.5 18.5q-61 0 -94.5 -20.5t-33.5 -64.5q0 -54 54.5 -66.5t119 -21t119 -34
t54.5 -106.5q0 -78 -58 -112.5t-154 -34.5q-104 0 -161.5 39t-61.5 120z" />
    <glyph glyph-name="afii10103" unicode="&#x456;" horiz-adv-x="224" 
d="M74 494h76v-494h-76v494zM60 657q0 24 13 36.5t38 12.5q26 0 40 -12.5t14 -36.5q0 -25 -14 -38t-40 -13q-25 0 -38 13t-13 38z" />
    <glyph glyph-name="afii10104" unicode="&#x457;" horiz-adv-x="224" 
d="M15 657q0 24 11 36.5t33 12.5t33.5 -12.5t11.5 -36.5q0 -25 -11.5 -37.5t-33.5 -12.5t-33 12.5t-11 37.5zM120 657q0 24 11.5 36.5t33.5 12.5t33 -12.5t11 -36.5q0 -25 -11 -37.5t-33 -12.5t-33.5 12.5t-11.5 37.5zM74 494h76v-494h-76v494z" />
    <glyph glyph-name="afii10105" unicode="&#x458;" horiz-adv-x="224" 
d="M-23 -140h33q37 0 50.5 16.5t13.5 46.5v571h76v-575q0 -61 -27.5 -90t-97.5 -29h-48v60zM60 657q0 24 13 36.5t38 12.5q26 0 40 -12.5t14 -36.5q0 -25 -14 -38t-40 -13q-25 0 -38 13t-13 38z" />
    <glyph glyph-name="afii10106" unicode="&#x459;" horiz-adv-x="823" 
d="M16 67h9q23 0 39.5 8t26.5 31.5t15 66t5 110.5v211h348v-177h172q81 0 122 -40t41 -113q0 -79 -41 -121.5t-122 -42.5h-248v434h-202v-151q0 -90 -8.5 -145.5t-27 -86t-47.5 -41t-69 -10.5h-13v67zM716 150v27q0 35 -22 59t-75 24h-160v-203h160q53 0 75 26.5t22 66.5z
" />
    <glyph glyph-name="afii10107" unicode="&#x45a;" horiz-adv-x="842" 
d="M404 0v234h-254v-234h-76v494h76v-200h254v200h76v-200h172q81 0 122 -37t41 -105q0 -73 -41 -112.5t-122 -39.5h-248zM737 138v27q0 31 -22 51.5t-75 20.5h-160v-180h160q53 0 75 23t22 58z" />
    <glyph glyph-name="afii10108" unicode="&#x45b;" horiz-adv-x="581" 
d="M437 0v309q0 82 -35 110.5t-100 28.5q-69 0 -110.5 -32t-41.5 -108v-308h-76v577h-80v54h80v99h76v-99h162v-54h-162v-158q23 46 68.5 66t102.5 20q93 0 143 -45.5t50 -146.5v-313h-77z" />
    <glyph glyph-name="afii10109" unicode="&#x45c;" horiz-adv-x="504" 
d="M74 494h76v-214h65l183 214h86l-205 -239l229 -255h-95l-197 219h-66v-219h-76v494zM209 569l112 165h96l-138 -165h-70z" />
    <glyph glyph-name="afii10110" unicode="&#x45e;" horiz-adv-x="509" 
d="M49 -140h42q47 0 70.5 16.5t42.5 65.5l17 43l-212 509h81l170 -415l167 415h72l-231 -566q-29 -74 -64.5 -101t-104.5 -27h-50v60zM106 728h69q0 -54 19.5 -81t62.5 -27q42 0 62.5 27t20.5 81h69q0 -78 -38.5 -119t-113.5 -41q-74 0 -112.5 41t-38.5 119z" />
    <glyph glyph-name="afii10193" unicode="&#x45f;" horiz-adv-x="564" 
d="M247 -140v140h-173v494h76v-434h264v434h76v-494h-173v-140h-70z" />
    <glyph glyph-name="afii10050" unicode="&#x490;" horiz-adv-x="518" 
d="M81 690h348v150h75v-218h-342v-622h-81v690z" />
    <glyph glyph-name="afii10098" unicode="&#x491;" horiz-adv-x="422" 
d="M74 494h264v140h70v-200h-258v-434h-76v494z" />
    <glyph glyph-name="uni0492" unicode="&#x492;" horiz-adv-x="570" 
d="M27 317v64h103v309h423v-68h-342v-241h208v-64h-208v-317h-81v317h-103z" />
    <glyph glyph-name="uni0493" unicode="&#x493;" horiz-adv-x="459" 
d="M28 214v54h83v226h334v-60h-258v-166h151v-54h-151v-214h-76v214h-83z" />
    <glyph glyph-name="uni0496" unicode="&#x496;" horiz-adv-x="954" 
d="M419 690h82v-309h57l263 309h89l-286 -336l242 -286h86v-218h-76v150h-54l-264 313h-57v-313h-82v313h-56l-264 -313h-96l295 350l-291 340h93l263 -309h56v309z" />
    <glyph glyph-name="uni0497" unicode="&#x497;" horiz-adv-x="756" 
d="M330 494h76v-214h60l165 214h81l-182 -237l159 -197h61v-200h-70v140h-37l-175 219h-62v-219h-76v219h-62l-175 -219h-88l201 251l-186 243h85l165 -214h60v214z" />
    <glyph glyph-name="uni0498" unicode="&#x498;" horiz-adv-x="619" 
d="M39 184h82q4 -71 55 -100.5t135 -29.5q90 0 135 30.5t45 86.5v37q0 52 -37 82t-112 30h-135v64h135q62 0 95 29.5t33 79.5v33q0 55 -41.5 82.5t-122.5 27.5q-70 0 -120 -24t-55 -95h-82q6 99 76.5 141.5t180.5 42.5q119 0 182.5 -45t63.5 -138q0 -60 -31.5 -103
t-89.5 -56q65 -11 103.5 -51.5t38.5 -113.5q0 -92 -54 -143.5t-164 -59.5v-141h-76v140q-109 4 -171 49.5t-69 144.5z" />
    <glyph glyph-name="uni0499" unicode="&#x499;" horiz-adv-x="502" 
d="M30 139h77q5 -49 39.5 -72t99.5 -23q68 0 102 20t34 69v17q0 40 -30 61t-87 21h-90v54h87q55 0 81 19t26 56v19q0 37 -30.5 53.5t-91.5 16.5q-63 0 -94 -19.5t-38 -61.5h-78q8 71 62 103.5t147 32.5q95 0 147.5 -32t52.5 -98q0 -38 -20.5 -68t-71.5 -43q54 -14 80 -46
t26 -74q0 -75 -44 -111t-127 -42v-131h-71v130q-81 4 -131.5 39t-56.5 110z" />
    <glyph glyph-name="uni049A" unicode="&#x49a;" horiz-adv-x="642" 
d="M563 -150v150h-47l-262 314h-92v-314h-81v690h81v-309h91l255 309h92l-278 -337l240 -285h76v-218h-75z" />
    <glyph glyph-name="uni049B" unicode="&#x49b;" horiz-adv-x="529" 
d="M454 -140v140h-41l-197 219h-66v-219h-76v494h76v-214h65l183 214h86l-205 -239l178 -195h67v-200h-70z" />
    <glyph glyph-name="uni049C" unicode="&#x49c;" horiz-adv-x="681" 
d="M246 134v180h-84v-314h-81v690h81v-309h84v169h65v-169h8l255 309h92l-278 -337l295 -353h-101l-262 314h-9v-180h-65z" />
    <glyph glyph-name="uni049D" unicode="&#x49d;" horiz-adv-x="566" 
d="M215 81v138h-65v-219h-76v494h76v-214h65v129h55v-129h6l184 214h86l-204 -238l228 -256h-96l-196 219h-8v-138h-55z" />
    <glyph glyph-name="uni04A0" unicode="&#x4a0;" horiz-adv-x="795" 
d="M13 690h329v-309h91l255 309h92l-278 -337l295 -353h-101l-262 314h-92v-314h-81v622h-248v68z" />
    <glyph glyph-name="uni04A1" unicode="&#x4a1;" horiz-adv-x="646" 
d="M13 494h278v-214h65l183 214h86l-205 -239l229 -255h-95l-197 219h-66v-219h-76v434h-202v60z" />
    <glyph glyph-name="uni04A2" unicode="&#x4a2;" horiz-adv-x="720" 
d="M621 -150v150h-90v319h-369v-319h-81v690h81v-303h369v303h82v-622h84v-218h-76z" />
    <glyph glyph-name="uni04A3" unicode="&#x4a3;" horiz-adv-x="594" 
d="M74 494h76v-212h271v212h76v-434h77v-200h-70v140h-83v222h-271v-222h-76v494z" />
    <glyph glyph-name="uni04AA" unicode="&#x4aa;" horiz-adv-x="667" 
d="M50 345q0 190 79 273t223 83q130 0 198 -49.5t81 -159.5h-82q-13 83 -60 113t-137 30q-101 0 -160.5 -59t-59.5 -190v-77q0 -128 58.5 -191t162.5 -63q86 0 134 28.5t63 107.5h82q-15 -97 -72 -145.5t-164 -55.5v-140h-75v140q-130 8 -200.5 92t-70.5 263z" />
    <glyph glyph-name="uni04AB" unicode="&#x4ab;" horiz-adv-x="525" 
d="M44 245q0 134 57 197t172 63q94 0 150 -35.5t67 -111.5h-78q-10 50 -46 70t-93 20q-77 0 -114.5 -40.5t-37.5 -127.5v-67q0 -92 43 -129.5t109 -37.5q63 0 96.5 23.5t43.5 66.5h77q-10 -66 -56.5 -102.5t-123.5 -42.5v-131h-71v130q-90 7 -142.5 64.5t-52.5 190.5z" />
    <glyph glyph-name="uni04AE" unicode="&#x4ae;" horiz-adv-x="628" 
d="M275 306l-270 384h90l225 -321l219 321h80l-262 -385v-305h-82v306z" />
    <glyph glyph-name="uni04AF" unicode="&#x4af;" horiz-adv-x="508" 
d="M217 0l-208 494h79l171 -407l168 407h72l-205 -494v-200h-77v200z" />
    <glyph glyph-name="uni04B0" unicode="&#x4b0;" horiz-adv-x="627" 
d="M112 242v64h162l-270 384h90l225 -321l219 321h80l-261 -384h161v-64h-162v-242h-82v242h-162z" />
    <glyph glyph-name="uni04B1" unicode="&#x4b1;" horiz-adv-x="508" 
d="M95 -54v54h122l-208 494h79l171 -407l168 407h72l-205 -494h121v-54h-121v-146h-77v146h-122z" />
    <glyph glyph-name="uni04B2" unicode="&#x4b2;" horiz-adv-x="661" 
d="M584 -150v150h-55l-219 297l-221 -297h-85l260 350l-251 340h93l210 -283l210 283h85l-250 -335l213 -287h85v-218h-75z" />
    <glyph glyph-name="uni04B3" unicode="&#x4b3;" horiz-adv-x="519" 
d="M442 -140v140h-40l-157 204l-160 -204h-78l196 251l-187 243h88l148 -190l149 190h78l-186 -237l151 -197h68v-200h-70z" />
    <glyph glyph-name="uni04B6" unicode="&#x4b6;" horiz-adv-x="672" 
d="M483 286q-36 -5 -78.5 -8t-76.5 -3q-146 0 -213.5 47.5t-67.5 167.5v200h82v-194q0 -94 50.5 -124t153.5 -30q32 0 72.5 3t77.5 7v338h81v-622h84v-218h-75v150h-90v286z" />
    <glyph glyph-name="uni04B7" unicode="&#x4b7;" horiz-adv-x="547" 
d="M374 205q-31 -5 -62 -7.5t-71 -2.5q-110 0 -156 41t-46 137v121h76v-118q0 -69 32 -95t106 -26q36 0 64 2.5t57 7.5v229h76v-434h78v-200h-71v140h-83v205z" />
    <glyph glyph-name="uni04B8" unicode="&#x4b8;" horiz-adv-x="650" 
d="M276 122v154q-118 7 -173.5 55.5t-55.5 158.5v200h82v-197q0 -78 36.5 -110.5t110.5 -38.5v164h66v-166q35 1 73 3.5t72 6.5v338h82v-690h-82v286q-32 -4 -71.5 -7t-73.5 -4v-153h-66z" />
    <glyph glyph-name="uni04B9" unicode="&#x4b9;" horiz-adv-x="529" 
d="M226 73v122q-101 3 -144 44.5t-43 133.5v121h76v-121q0 -61 26 -87.5t85 -29.5v124h55v-125q28 1 51 3.5t47 6.5v229h76v-494h-76v205q-24 -4 -47.5 -6t-50.5 -3v-123h-55z" />
    <glyph glyph-name="uni04BA" unicode="&#x4ba;" horiz-adv-x="645" 
d="M162 404q36 5 78.5 8t76.5 3q146 0 213.5 -47.5t67.5 -167.5v-200h-82v194q0 94 -50.5 124t-153.5 30q-32 0 -72.5 -3t-77.5 -7v-338h-81v690h81v-286z" />
    <glyph glyph-name="uni04BB" unicode="&#x4bb;" horiz-adv-x="581" 
d="M437 0v309q0 82 -35 110.5t-100 28.5q-69 0 -110.5 -32t-41.5 -108v-308h-76v730h76v-311q23 46 68.5 66t102.5 20q93 0 143 -45.5t50 -146.5v-313h-77z" />
    <glyph glyph-name="uni04C0" unicode="&#x4c0;" horiz-adv-x="243" 
d="M81 690h81v-690h-81v690z" />
    <glyph glyph-name="uni04C1" unicode="&#x4c1;" horiz-adv-x="923" 
d="M419 690h82v-309h57l263 309h89l-286 -336l297 -354h-99l-264 313h-57v-313h-82v313h-56l-264 -313h-96l295 350l-291 340h93l263 -309h56v309zM305 899h72q1 -49 20.5 -70t62.5 -21t62.5 21t20.5 70h73q-1 -70 -39.5 -107.5t-116.5 -37.5q-77 0 -115.5 37t-39.5 108z
" />
    <glyph glyph-name="uni04C2" unicode="&#x4c2;" horiz-adv-x="739" 
d="M330 494h76v-214h60l165 214h81l-182 -237l204 -257h-91l-175 219h-62v-219h-76v219h-62l-175 -219h-88l201 251l-186 243h85l165 -214h60v214zM217 729h69q0 -54 19.5 -81t62.5 -27q42 0 62.5 27t20.5 81h69q0 -78 -38.5 -119t-113.5 -41q-74 0 -112.5 41t-38.5 119z
" />
    <glyph glyph-name="uni04CF" unicode="&#x4cf;" horiz-adv-x="229" 
d="M74 690h81v-690h-81v690z" />
    <glyph glyph-name="uni04D0" unicode="&#x4d0;" horiz-adv-x="651" 
d="M267 690h117l258 -690h-84l-74 200h-325l-74 -200h-76zM183 264h277l-139 372zM168 899h72q1 -49 20.5 -70t62.5 -21t62.5 21t20.5 70h73q-1 -70 -39.5 -107.5t-116.5 -37.5q-77 0 -115.5 37t-39.5 108z" />
    <glyph glyph-name="uni04D1" unicode="&#x4d1;" horiz-adv-x="554" 
d="M42 132q0 67 41.5 104t148.5 44l178 12v15q0 76 -34 109t-105 33q-54 0 -89 -19.5t-46 -69.5h-78q12 72 65 108.5t148 36.5q108 0 161.5 -47t53.5 -151v-307h-72v86q-27 -46 -78.5 -71.5t-120.5 -25.5q-88 0 -130.5 37.5t-42.5 105.5zM120 128q0 -40 27.5 -61.5
t81.5 -21.5q35 0 68 8.5t58 28t40 51t15 76.5v32l-168 -12q-63 -5 -92.5 -24.5t-29.5 -63.5v-13zM121 729h69q0 -54 19.5 -81t62.5 -27q42 0 62.5 27t20.5 81h69q0 -78 -38.5 -119t-113.5 -41q-74 0 -112.5 41t-38.5 119z" />
    <glyph glyph-name="uni04D6" unicode="&#x4d6;" horiz-adv-x="581" 
d="M81 690h454v-66h-373v-239h316v-66h-316v-253h377v-66h-458v690zM155 899h72q1 -49 20.5 -70t62.5 -21t62.5 21t20.5 70h73q-1 -70 -39.5 -107.5t-116.5 -37.5q-77 0 -115.5 37t-39.5 108z" />
    <glyph glyph-name="uni04D7" unicode="&#x4d7;" horiz-adv-x="543" 
d="M44 248q0 137 59.5 197.5t168.5 60.5q110 0 170 -57.5t60 -179.5v-24h-382v-28q0 -86 39.5 -128.5t112.5 -42.5q64 0 100 23.5t47 68.5h76q-16 -72 -72 -110t-151 -38q-109 0 -168.5 60t-59.5 198zM272 450q-71 0 -110 -35.5t-42 -118.5h306q-3 84 -41.5 119t-112.5 35z
M122 729h69q0 -54 19.5 -81t62.5 -27q42 0 62.5 27t20.5 81h69q0 -78 -38.5 -119t-113.5 -41q-74 0 -112.5 41t-38.5 119z" />
    <glyph glyph-name="uni04D8" unicode="&#x4d8;" horiz-adv-x="734" 
d="M48 320v34h554v31q0 74 -17.5 122.5t-48.5 76.5t-74.5 39.5t-95.5 11.5q-107 0 -162.5 -47t-68.5 -139h-83q19 125 97 188.5t217 63.5q159 0 239 -81.5t80 -271.5t-82.5 -274.5t-236.5 -84.5q-157 0 -237.5 79.5t-80.5 251.5zM131 292q0 -122 61 -179.5t174 -57.5
t174.5 57.5t61.5 179.5v2h-471v-2z" />
    <glyph glyph-name="uni04D9" unicode="&#x4d9;" horiz-adv-x="543" 
d="M499 247q0 -137 -59.5 -197.5t-168.5 -60.5q-110 0 -170 57.5t-60 179.5v24h382v28q0 86 -39.5 128.5t-112.5 42.5q-64 0 -100 -23.5t-47 -68.5h-76q16 72 72 110t151 38q109 0 168.5 -60t59.5 -198zM271 45q71 0 110 35.5t42 118.5h-306q3 -84 41.5 -119t112.5 -35z" />
    <glyph glyph-name="uni04E2" unicode="&#x4e2;" horiz-adv-x="705" 
d="M543 579l-372 -579h-90v690h81v-579l373 579h90v-690h-82v579zM207 807v56h289v-56h-289z" />
    <glyph glyph-name="uni04E3" unicode="&#x4e3;" horiz-adv-x="582" 
d="M74 494h76v-405l269 405h89v-494h-76v406l-269 -406h-89v494zM146 624v55h290v-55h-290z" />
    <glyph glyph-name="uni04E6" unicode="&#x4e6;" horiz-adv-x="747" 
d="M50 346q0 191 81.5 273t242.5 82q160 0 242 -82t82 -273q0 -190 -82 -273.5t-242 -83.5q-161 0 -242.5 83.5t-81.5 273.5zM615 309v78q0 128 -60 188t-181 60t-181.5 -60t-60.5 -188v-78q0 -127 60.5 -190.5t181.5 -63.5t181 63.5t60 190.5zM215 826q0 24 13 36.5
t38 12.5t38.5 -12.5t13.5 -36.5q0 -25 -13.5 -37.5t-38.5 -12.5t-38 12.5t-13 37.5zM432 826q0 24 13 36.5t38 12.5t38 -12.5t13 -36.5q0 -25 -13 -37.5t-38 -12.5t-38 12.5t-13 37.5z" />
    <glyph glyph-name="uni04E7" unicode="&#x4e7;" horiz-adv-x="570" 
d="M44 247q0 140 63.5 199t177.5 59q116 0 178.5 -59t62.5 -199q0 -143 -62.5 -200.5t-178.5 -57.5q-114 0 -177.5 57.5t-63.5 200.5zM449 217v61q0 88 -43 129t-121 41t-121 -41t-43 -129v-62q0 -87 43 -128.5t121 -41.5t121 41.5t43 129.5zM134 653q0 24 13 36.5t38 12.5
t38.5 -12.5t13.5 -36.5q0 -25 -13.5 -37.5t-38.5 -12.5t-38 12.5t-13 37.5zM336 653q0 24 13 36.5t38 12.5t38 -12.5t13 -36.5q0 -25 -13 -37.5t-38 -12.5t-38 12.5t-13 37.5z" />
    <glyph glyph-name="uni04E8" unicode="&#x4e8;" horiz-adv-x="747" 
d="M50 346q0 191 81.5 273t242.5 82q160 0 242 -82t82 -273q0 -190 -82 -273.5t-242 -83.5q-161 0 -242.5 83.5t-81.5 273.5zM130 388v-12h487v12q0 128 -60.5 188t-182.5 60t-183 -60t-61 -188zM617 308v4h-487v-4q0 -127 61 -190.5t183 -63.5t182.5 63.5t60.5 190.5z" />
    <glyph glyph-name="uni04E9" unicode="&#x4e9;" horiz-adv-x="570" 
d="M44 247q0 140 63.5 199t177.5 59q116 0 178.5 -59t62.5 -199q0 -143 -62.5 -200.5t-178.5 -57.5q-114 0 -177.5 57.5t-63.5 200.5zM119 278v-6h332v6q0 88 -43.5 129t-122.5 41t-122.5 -41t-43.5 -129zM451 216v3h-332v-3q0 -87 43.5 -128.5t122.5 -41.5t122.5 41.5
t43.5 128.5z" />
    <glyph glyph-name="uni04EE" unicode="&#x4ee;" horiz-adv-x="593" 
d="M178 0l90 185l-259 505h86l214 -418l202 418h77l-333 -690h-77zM161 807v56h289v-56h-289z" />
    <glyph glyph-name="uni04EF" unicode="&#x4ef;" horiz-adv-x="509" 
d="M49 -140h42q47 0 70.5 16.5t42.5 65.5l17 43l-212 509h81l170 -415l167 415h72l-231 -566q-29 -74 -64.5 -101t-104.5 -27h-50v60zM114 624v55h290v-55h-290z" />
    <glyph glyph-name="uni04F2" unicode="&#x4f2;" horiz-adv-x="593" 
d="M178 0l90 185l-259 505h86l214 -418l202 418h77l-333 -690h-77zM174 758l79 142h95l-104 -142h-70zM331 758l106 142h100l-133 -142h-73z" />
    <glyph glyph-name="uni04F3" unicode="&#x4f3;" horiz-adv-x="509" 
d="M149 569l77 165h90l-103 -165h-64zM282 569l106 165h93l-131 -165h-68zM49 -140h42q47 0 70.5 16.5t42.5 65.5l17 43l-212 509h81l170 -415l167 415h72l-231 -566q-29 -74 -64.5 -101t-104.5 -27h-50v60z" />
    <glyph glyph-name="Wgrave" unicode="&#x1e80;" horiz-adv-x="887" 
d="M23 690h83l132 -614l161 614h103l154 -606l140 606h72l-159 -690h-108l-155 607l-160 -607h-114zM415 758l-139 142h104l114 -142h-79z" />
    <glyph glyph-name="wgrave" unicode="&#x1e81;" horiz-adv-x="768" 
d="M164 0l-150 494h74l130 -434l123 434h92l123 -431l131 431h67l-151 -494h-98l-122 430l-122 -430h-97zM210 734h100l112 -165h-74z" />
    <glyph glyph-name="Wacute" unicode="&#x1e82;" horiz-adv-x="887" 
d="M23 690h83l132 -614l161 614h103l154 -606l140 606h72l-159 -690h-108l-155 607l-160 -607h-114zM409 758l115 142h102l-142 -142h-75z" />
    <glyph glyph-name="wacute" unicode="&#x1e83;" horiz-adv-x="768" 
d="M164 0l-150 494h74l130 -434l123 434h92l123 -431l131 431h67l-151 -494h-98l-122 430l-122 -430h-97zM355 569l112 165h96l-138 -165h-70z" />
    <glyph glyph-name="Wdieresis" unicode="&#x1e84;" horiz-adv-x="887" 
d="M23 690h83l132 -614l161 614h103l154 -606l140 606h72l-159 -690h-108l-155 607l-160 -607h-114zM286 826q0 24 13 36.5t38 12.5t38.5 -12.5t13.5 -36.5q0 -25 -13.5 -37.5t-38.5 -12.5t-38 12.5t-13 37.5zM503 826q0 24 13 36.5t38 12.5t38 -12.5t13 -36.5
q0 -25 -13 -37.5t-38 -12.5t-38 12.5t-13 37.5z" />
    <glyph glyph-name="wdieresis" unicode="&#x1e85;" horiz-adv-x="768" 
d="M164 0l-150 494h74l130 -434l123 434h92l123 -431l131 431h67l-151 -494h-98l-122 430l-122 -430h-97zM231 653q0 24 13 36.5t38 12.5t38.5 -12.5t13.5 -36.5q0 -25 -13.5 -37.5t-38.5 -12.5t-38 12.5t-13 37.5zM433 653q0 24 13 36.5t38 12.5t38 -12.5t13 -36.5
q0 -25 -13 -37.5t-38 -12.5t-38 12.5t-13 37.5z" />
    <glyph glyph-name="Ygrave" unicode="&#x1ef2;" horiz-adv-x="628" 
d="M275 306l-270 384h90l225 -321l219 321h80l-262 -385v-305h-82v306zM290 758l-139 142h104l114 -142h-79z" />
    <glyph glyph-name="ygrave" unicode="&#x1ef3;" horiz-adv-x="509" 
d="M49 -140h42q47 0 70.5 16.5t42.5 65.5l17 43l-212 509h81l170 -415l167 415h72l-231 -566q-29 -74 -64.5 -101t-104.5 -27h-50v60zM89 734h100l112 -165h-74z" />
    <glyph glyph-name="enquad" unicode="&#x2000;" horiz-adv-x="500" 
 />
    <glyph glyph-name="emquad" unicode="&#x2001;" horiz-adv-x="1000" 
 />
    <glyph glyph-name="enspace" unicode="&#x2002;" horiz-adv-x="500" 
 />
    <glyph glyph-name="emspace" unicode="&#x2003;" horiz-adv-x="1000" 
 />
    <glyph glyph-name="thirdemspace" unicode="&#x2004;" horiz-adv-x="333" 
 />
    <glyph glyph-name="quarteremspace" unicode="&#x2005;" horiz-adv-x="250" 
 />
    <glyph glyph-name="sixthemspace" unicode="&#x2006;" horiz-adv-x="167" 
 />
    <glyph glyph-name="figurespace" unicode="&#x2007;" 
 />
    <glyph glyph-name="punctuationspace" unicode="&#x2008;" horiz-adv-x="206" 
 />
    <glyph glyph-name="thinspace" unicode="&#x2009;" horiz-adv-x="125" 
 />
    <glyph glyph-name="hairspace" unicode="&#x200a;" horiz-adv-x="42" 
 />
    <glyph glyph-name="zerowidthspace" unicode="&#x200b;" horiz-adv-x="0" 
 />
    <glyph glyph-name="uni2010" unicode="&#x2010;" horiz-adv-x="420" 
d="M51 293h319v-72h-319v72z" />
    <glyph glyph-name="uni2011" unicode="&#x2011;" horiz-adv-x="420" 
d="M51 293h319v-72h-319v72z" />
    <glyph glyph-name="endash" unicode="&#x2013;" horiz-adv-x="647" 
d="M46 288h555v-63h-555v63z" />
    <glyph glyph-name="emdash" unicode="&#x2014;" horiz-adv-x="863" 
d="M46 288h772v-63h-772v63z" />
    <glyph glyph-name="uni2015" unicode="&#x2015;" horiz-adv-x="863" 
d="M46 288h772v-63h-772v63z" />
    <glyph glyph-name="quoteleft" unicode="&#x2018;" horiz-adv-x="207" 
d="M150 654q-25 0 -35 -15t-10 -45v-17h3q25 0 38 -13t13 -38t-14 -37.5t-39 -12.5t-39.5 12t-14.5 39v61q0 59 23.5 86t74.5 27v-47z" />
    <glyph glyph-name="quoteright" unicode="&#x2019;" horiz-adv-x="207" 
d="M61 522q25 0 35 15t10 45v17h-3q-25 0 -38 13t-13 38t14 37.5t39 12.5t39.5 -12t14.5 -39v-61q0 -59 -23.5 -86t-74.5 -27v47z" />
    <glyph glyph-name="quotesinglbase" unicode="&#x201a;" horiz-adv-x="198" 
d="M52 -88q25 0 35 15t10 45v17h-3q-25 0 -38 13t-13 38t14 37.5t39 12.5t39.5 -12t14.5 -39v-61q0 -59 -23.5 -86t-74.5 -27v47z" />
    <glyph glyph-name="quotedblleft" unicode="&#x201c;" horiz-adv-x="380" 
d="M322 654q-25 0 -35 -15t-10 -45v-17h3q25 0 38 -13t13 -38t-14 -37.5t-39 -12.5t-39.5 12t-14.5 39v61q0 59 23.5 86t74.5 27v-47zM150 654q-25 0 -35 -15t-10 -45v-17h3q25 0 38 -13t13 -38t-14 -37.5t-39 -12.5t-39.5 12t-14.5 39v61q0 59 23.5 86t74.5 27v-47z" />
    <glyph glyph-name="quotedblright" unicode="&#x201d;" horiz-adv-x="380" 
d="M61 522q25 0 35 15t10 45v17h-3q-25 0 -38 13t-13 38t14 37.5t39 12.5t39.5 -12t14.5 -39v-61q0 -59 -23.5 -86t-74.5 -27v47zM233 522q25 0 35 15t10 45v17h-3q-25 0 -38 13t-13 38t14 37.5t39 12.5t39.5 -12t14.5 -39v-61q0 -59 -23.5 -86t-74.5 -27v47z" />
    <glyph glyph-name="quotedblbase" unicode="&#x201e;" horiz-adv-x="371" 
d="M52 -88q25 0 35 15t10 45v17h-3q-25 0 -38 13t-13 38t14 37.5t39 12.5t39.5 -12t14.5 -39v-61q0 -59 -23.5 -86t-74.5 -27v47zM224 -88q25 0 35 15t10 45v17h-3q-25 0 -38 13t-13 38t14 37.5t39 12.5t39.5 -12t14.5 -39v-61q0 -59 -23.5 -86t-74.5 -27v47z" />
    <glyph glyph-name="dagger" unicode="&#x2020;" horiz-adv-x="459" 
d="M190 0v469h-166v64h166v157h79v-157h166v-64h-166v-469h-79z" />
    <glyph glyph-name="daggerdbl" unicode="&#x2021;" horiz-adv-x="459" 
d="M24 153v65h166v254h-166v65h166v153h79v-153h166v-65h-166v-254h166v-65h-166v-153h-79v153h-166z" />
    <glyph glyph-name="bullet" unicode="&#x2022;" horiz-adv-x="414" 
d="M77 358q0 62 34 90t96 28t95.5 -28t33.5 -90t-33.5 -90t-95.5 -28t-96 28t-34 90z" />
    <glyph glyph-name="ellipsis" unicode="&#x2026;" horiz-adv-x="584" 
d="M50 40q0 25 13.5 37.5t39.5 12.5t40 -12.5t14 -37.5t-14 -38t-40 -13t-39.5 13t-13.5 38zM239 40q0 25 13.5 37.5t39.5 12.5t40 -12.5t14 -37.5t-14 -38t-40 -13t-39.5 13t-13.5 38zM428 40q0 25 13.5 37.5t39.5 12.5t40 -12.5t14 -37.5t-14 -38t-40 -13t-39.5 13
t-13.5 38z" />
    <glyph glyph-name="nonbreakingspace.narrow" unicode="&#x202f;" horiz-adv-x="170" 
 />
    <glyph glyph-name="perthousand" unicode="&#x2030;" horiz-adv-x="1304" 
d="M31 523q0 93 46.5 135.5t135.5 42.5t135.5 -42.5t46.5 -135.5q0 -94 -46.5 -136.5t-135.5 -42.5t-135.5 42.5t-46.5 136.5zM673 690h79l-541 -690h-78zM325 511v21q0 63 -29 86.5t-83 23.5t-83 -23.5t-29 -86.5v-20q0 -63 29.5 -86t82.5 -23q52 0 82 22.5t30 85.5z
M911 168q0 93 46.5 135.5t135.5 42.5q88 0 135 -42.5t47 -135.5q0 -94 -47 -136.5t-135 -42.5q-89 0 -135.5 42.5t-46.5 136.5zM491 168q0 93 47 135.5t136 42.5q88 0 135 -42.5t47 -135.5q0 -94 -47 -136.5t-135 -42.5q-89 0 -136 42.5t-47 136.5zM1205 156v22q0 63 -29 86
t-83 23t-83 -23t-29 -86v-21q0 -63 29.5 -86t82.5 -23q52 0 82 22.5t30 85.5zM786 156v22q0 63 -29 86t-83 23t-83.5 -23t-29.5 -86v-21q0 -63 30 -86t83 -23q52 0 82 22.5t30 85.5z" />
    <glyph glyph-name="minute" unicode="&#x2032;" horiz-adv-x="214" 
d="M105 690h80l-73 -256h-70z" />
    <glyph glyph-name="second" unicode="&#x2033;" horiz-adv-x="391" 
d="M105 690h80l-73 -256h-70zM283 690h80l-73 -256h-70z" />
    <glyph glyph-name="guilsinglleft" unicode="&#x2039;" horiz-adv-x="303" 
d="M43 227v60l202 184v-80l-145 -131l146 -132v-84z" />
    <glyph glyph-name="guilsinglright" unicode="&#x203a;" horiz-adv-x="303" 
d="M261 285v-60l-202 -184v80l145 131l-146 132v84z" />
    <glyph glyph-name="fraction" unicode="&#x2044;" horiz-adv-x="245" 
d="M-181 0l532 690h77l-532 -690h-77z" />
    <glyph glyph-name="mathspacemedium" unicode="&#x205f;" horiz-adv-x="222" 
 />
    <glyph glyph-name="joinerspace" unicode="&#x2060;" horiz-adv-x="0" 
 />
    <glyph glyph-name="Euro" unicode="&#x20ac;" horiz-adv-x="756" 
d="M46 306h89q-1 9 -1 19v20v21.5t1 20.5h-89v56h94q19 137 94 197.5t197 60.5q128 0 195 -48t80 -155h-83q-11 79 -57.5 108t-134.5 29t-143.5 -46t-68.5 -146h277v-56h-280v-1v-77v-3h280v-56h-276q12 -99 67.5 -147t144.5 -48q84 0 131.5 27.5t60.5 102.5h83
q-16 -103 -83 -149.5t-193 -46.5q-122 0 -197 61.5t-94 199.5h-94v56z" />
    <glyph glyph-name="uni20B4" unicode="&#x20b4;" horiz-adv-x="683" 
d="M50 387v55h407q23 14 39 34.5t16 49.5v19q0 43 -39.5 68.5t-129.5 25.5q-81 0 -126.5 -28.5t-48.5 -81.5h-81q4 83 72.5 127.5t183.5 44.5q131 0 190.5 -43t59.5 -116q0 -33 -14 -58t-33 -42h86v-55h-582zM79 149q0 34 15 59.5t36 41.5h-80v55h582v-55h-417
q-25 -14 -39 -35t-14 -48v-18q0 -46 42.5 -71.5t135.5 -25.5q87 0 136 27.5t52 80.5h80q-3 -83 -74.5 -127t-193.5 -44q-134 0 -197.5 42.5t-63.5 117.5z" />
    <glyph glyph-name="uni20B8" unicode="&#x20b8;" horiz-adv-x="631" 
d="M30 690h571v-60h-571v60zM275 485h-245v61h571v-61h-245v-485h-81v485z" />
    <glyph glyph-name="uni20BD" unicode="&#x20bd;" horiz-adv-x="710" 
d="M46 149v60h99v80h-99v63h99v338h324q99 0 148 -54t49 -149q0 -93 -49 -145.5t-148 -52.5h-243v-80h301v-60h-301v-149h-81v149h-99zM584 475v24q0 58 -31 91.5t-98 33.5h-229v-272h229q68 0 98.5 34t30.5 89z" />
    <glyph glyph-name="afii61352" unicode="&#x2116;" horiz-adv-x="1134" 
d="M729 523q0 93 46.5 135.5t133.5 42.5t133 -42.5t46 -135.5q0 -94 -46 -136.5t-133 -42.5t-133.5 42.5t-46.5 136.5zM519 0l-358 594v-594h-78v690h109l357 -594v594h78v-690h-108zM1018 511v21q0 63 -28 86.5t-81 23.5q-54 0 -82 -23.5t-28 -86.5v-20q0 -63 29.5 -86
t80.5 -23t80 22.5t29 85.5zM742 209v61h333v-61h-333z" />
    <glyph glyph-name="trademark" unicode="&#x2122;" horiz-adv-x="813" 
d="M141 639h-112v51h290v-51h-112v-277h-66v277zM513 413l-94 212v-263h-60v328h88l104 -230l104 230h85v-328h-66v262l-95 -211h-66z" />
    <glyph glyph-name="uni2139" unicode="&#x2139;" horiz-adv-x="324" 
d="M152 652q0 26 15.5 40t43.5 14q30 0 45.5 -14t15.5 -40t-15.5 -40.5t-45.5 -14.5q-28 0 -43.5 14.5t-15.5 40.5zM8 430v64h242v-494h-76v430h-166z" />
    <glyph glyph-name="onethird" unicode="&#x2153;" horiz-adv-x="942" 
d="M29 619l95 71h65v-425h-65v361l-95 -71v64zM101 0l532 690h77l-532 -690h-77zM540 120h71q7 -36 33 -54.5t85 -18.5q49 0 76.5 14t27.5 45v23q0 33 -30 47.5t-76 14.5h-51v57h51q40 0 66 13t26 47v13q0 31 -23.5 44t-66.5 13q-51 0 -75.5 -16t-30.5 -44h-71q6 56 54 87
t123 31q69 0 115 -28t46 -85q0 -40 -24 -65.5t-67 -34.5q47 -8 76 -33.5t29 -71.5q0 -67 -48 -98t-127 -31q-87 0 -134.5 31t-54.5 100z" />
    <glyph glyph-name="twothirds" unicode="&#x2154;" horiz-adv-x="1079" 
d="M254 0l532 690h77l-532 -690h-77zM679 120h71q7 -36 33 -54.5t85 -18.5q49 0 76.5 14t27.5 45v23q0 33 -30 47.5t-76 14.5h-51v57h51q40 0 66 13t26 47v13q0 31 -23.5 44t-66.5 13q-51 0 -75.5 -16t-30.5 -44h-71q6 56 54 87t123 31q69 0 115 -28t46 -85q0 -40 -24 -65.5
t-67 -34.5q47 -8 76 -33.5t29 -71.5q0 -67 -48 -98t-127 -31q-87 0 -134.5 31t-54.5 100zM41 285q0 89 43 128t94.5 59t94.5 36t43 60v15q0 32 -25.5 46t-68.5 14q-49 0 -74 -17.5t-31 -54.5h-71q7 68 53.5 99t121.5 31q71 0 118.5 -27.5t47.5 -93.5q0 -65 -41 -91.5
t-91 -43.5t-94.5 -40.5t-51.5 -81.5h280v-58h-348v20z" />
    <glyph glyph-name="oneeighth" unicode="&#x215b;" horiz-adv-x="964" 
d="M29 619l95 71h65v-425h-65v361l-95 -71v64zM97 0l532 690h77l-532 -690h-77zM537 119q0 43 26.5 69t73.5 36q-43 10 -63.5 36.5t-20.5 60.5q0 62 50 88.5t128 26.5t128 -26.5t50 -88.5q0 -34 -20 -60.5t-63 -36.5q47 -10 73 -36t26 -69q0 -67 -50 -98.5t-144 -31.5
q-93 0 -143.5 31.5t-50.5 98.5zM840 312v9q0 30 -27 45t-82 15q-54 0 -81.5 -15t-27.5 -45v-9q0 -31 27.5 -46.5t81.5 -15.5t81.5 15.5t27.5 46.5zM855 112v14q0 35 -32 51.5t-92 16.5q-58 0 -91 -16t-33 -51v-15q0 -36 33.5 -52t90.5 -16t90.5 15.5t33.5 52.5z" />
    <glyph glyph-name="threeeighths" unicode="&#x215c;" horiz-adv-x="1079" 
d="M32 385h71q7 -36 33 -54.5t85 -18.5q49 0 76.5 14t27.5 45v23q0 33 -30 47.5t-76 14.5h-51v57h51q40 0 66 13t26 47v13q0 31 -23.5 44t-66.5 13q-51 0 -75.5 -16t-30.5 -44h-71q6 56 54 87t123 31q69 0 115 -28t46 -85q0 -40 -24 -65.5t-67 -34.5q47 -8 76 -33.5
t29 -71.5q0 -67 -48 -98t-127 -31q-87 0 -134.5 31t-54.5 100zM225 0l532 690h77l-532 -690h-77zM653 119q0 43 26.5 69t73.5 36q-43 10 -63.5 36.5t-20.5 60.5q0 62 50 88.5t128 26.5t128 -26.5t50 -88.5q0 -34 -20 -60.5t-63 -36.5q47 -10 73 -36t26 -69q0 -67 -50 -98.5
t-144 -31.5q-93 0 -143.5 31.5t-50.5 98.5zM956 312v9q0 30 -27 45t-82 15q-54 0 -81.5 -15t-27.5 -45v-9q0 -31 27.5 -46.5t81.5 -15.5t81.5 15.5t27.5 46.5zM971 112v14q0 35 -32 51.5t-92 16.5q-58 0 -91 -16t-33 -51v-15q0 -36 33.5 -52t90.5 -16t90.5 15.5t33.5 52.5z
" />
    <glyph glyph-name="fiveeighths" unicode="&#x215d;" horiz-adv-x="1080" 
d="M226 0l532 690h77l-532 -690h-77zM654 119q0 43 26.5 69t73.5 36q-43 10 -63.5 36.5t-20.5 60.5q0 62 50 88.5t128 26.5t128 -26.5t50 -88.5q0 -34 -20 -60.5t-63 -36.5q47 -10 73 -36t26 -69q0 -67 -50 -98.5t-144 -31.5q-93 0 -143.5 31.5t-50.5 98.5zM957 312v9
q0 30 -27 45t-82 15q-54 0 -81.5 -15t-27.5 -45v-9q0 -31 27.5 -46.5t81.5 -15.5t81.5 15.5t27.5 46.5zM972 112v14q0 35 -32 51.5t-92 16.5q-58 0 -91 -16t-33 -51v-15q0 -36 33.5 -52t90.5 -16t90.5 15.5t33.5 52.5zM33 375h70q8 -34 36 -48.5t77 -14.5q55 0 83.5 18.5
t28.5 62.5v20q0 43 -29.5 60t-84.5 17q-33 0 -62.5 -9t-49.5 -28l-55 10l25 227h299v-58h-244l-14 -120q19 13 49 22.5t71 9.5q73 0 119 -32.5t46 -106.5q0 -79 -48 -115t-134 -36q-79 0 -127.5 29.5t-55.5 91.5z" />
    <glyph glyph-name="seveneighths" unicode="&#x215e;" horiz-adv-x="966" 
d="M106 0l532 690h77l-532 -690h-77zM539 119q0 43 26.5 69t73.5 36q-43 10 -63.5 36.5t-20.5 60.5q0 62 50 88.5t128 26.5t128 -26.5t50 -88.5q0 -34 -20 -60.5t-63 -36.5q47 -10 73 -36t26 -69q0 -67 -50 -98.5t-144 -31.5q-93 0 -143.5 31.5t-50.5 98.5zM842 312v9
q0 30 -27 45t-82 15q-54 0 -81.5 -15t-27.5 -45v-9q0 -31 27.5 -46.5t81.5 -15.5t81.5 15.5t27.5 46.5zM857 112v14q0 35 -32 51.5t-92 16.5q-58 0 -91 -16t-33 -51v-15q0 -36 33.5 -52t90.5 -16t90.5 15.5t33.5 52.5zM28 631v59h342v-43l-215 -382h-71l206 366h-262z" />
    <glyph glyph-name="minus" unicode="&#x2212;" horiz-adv-x="602" 
d="M46 387h510v-68h-510v68z" />
    <glyph glyph-name="approxequal" unicode="&#x2248;" horiz-adv-x="646" 
d="M199 513q39 0 72.5 -10t63 -22.5t57 -22.5t54.5 -10q36 0 52.5 15.5t16.5 46.5h67q0 -60 -32 -93t-97 -33q-35 0 -66.5 10t-61 22t-58.5 22t-58 10q-38 0 -56 -14.5t-18 -45.5h-67q0 60 32.5 92.5t98.5 32.5zM199 324q39 0 72.5 -10t63 -22.5t57 -22.5t54.5 -10
q36 0 53 15.5t17 46.5h66q0 -60 -32 -93t-97 -33q-35 0 -67 10t-61 22.5t-58 22.5t-58 10q-39 0 -56.5 -15t-17.5 -46h-67q0 60 32.5 92.5t98.5 32.5z" />
    <glyph glyph-name="notequal" unicode="&#x2260;" horiz-adv-x="646" 
d="M68 286h182l70 135h-252v68h287l78 150h74l-78 -150h149v-68h-184l-69 -135h253v-68h-289l-76 -148h-75l77 148h-147v68z" />
    <glyph glyph-name="lessequal" unicode="&#x2264;" horiz-adv-x="635" 
d="M61 417v83l509 192v-72l-428 -161l428 -162v-72zM61 165h510v-68h-510v68z" />
    <glyph glyph-name="greaterequal" unicode="&#x2265;" horiz-adv-x="635" 
d="M65 296l432 162l-432 161v73l509 -192v-84l-509 -191v71zM64 165h510v-68h-510v68z" />
    <glyph glyph-name="Pcircle" unicode="&#x24c5;" horiz-adv-x="851" 
d="M53 346q0 85 27.5 151.5t77 111.5t118 68.5t150.5 23.5t150.5 -23.5t117.5 -68.5t76.5 -111.5t27.5 -151.5q0 -86 -27.5 -153t-76.5 -112t-117.5 -68.5t-150.5 -23.5t-150.5 23.5t-118 68.5t-77 112t-27.5 153zM739 316v59q0 66 -24 118t-65.5 87t-99 53.5t-124.5 18.5
t-124.5 -18.5t-99.5 -54t-66 -87.5t-24 -118v-59q0 -65 23.5 -116.5t65 -87t99.5 -54t126 -18.5t126 18.5t99 54t64.5 87t23.5 117.5zM300 546h160q74 0 107.5 -35t33.5 -92q0 -60 -33.5 -93t-107.5 -33h-93v-139h-67v392zM533 407v25q0 28 -20.5 43.5t-63.5 15.5h-82v-144
h82q43 0 63.5 16t20.5 44z" />
    <glyph glyph-name="uniF50A" unicode="&#xf50a;" horiz-adv-x="619" 
d="M39 184h82q4 -71 55 -100.5t135 -29.5q90 0 135 30.5t45 86.5v37q0 52 -37 82t-112 30h-135v64h135q62 0 95 29.5t33 79.5v33q0 55 -41.5 82.5t-122.5 27.5q-70 0 -120 -24t-55 -95h-82q6 99 76.5 141.5t180.5 42.5q119 0 182.5 -45t63.5 -138q0 -60 -31.5 -103
t-89.5 -56q65 -11 103.5 -51.5t38.5 -113.5q0 -101 -65 -153t-197 -52q-123 0 -194 44.5t-78 150.5zM260 -205v48q37 0 58.5 1.5t32.5 5.5t14.5 11t3.5 18q0 21 -20 27t-77 7v87h54v-47q49 -4 81 -18t32 -60q0 -40 -29.5 -60t-89.5 -20h-60z" />
    <glyph glyph-name="uniF50B" unicode="&#xf50b;" horiz-adv-x="502" 
d="M30 139h77q5 -49 39.5 -72t99.5 -23q68 0 102 20t34 69v17q0 40 -30 61t-87 21h-90v54h87q55 0 81 19t26 56v19q0 37 -30.5 53.5t-91.5 16.5q-63 0 -94 -19.5t-38 -61.5h-78q8 71 62 103.5t147 32.5q95 0 147.5 -32t52.5 -98q0 -38 -20.5 -68t-71.5 -43q54 -14 80 -46
t26 -74q0 -84 -55 -119.5t-159 -35.5q-92 0 -150.5 34.5t-65.5 115.5zM204 -205v48q37 0 58.5 1.5t32.5 5.5t14.5 11t3.5 18q0 21 -20 27t-77 7v87h54v-47q49 -4 81 -18t32 -60q0 -40 -29.5 -60t-89.5 -20h-60z" />
    <glyph glyph-name="uniF53E" unicode="&#xf53e;" horiz-adv-x="667" 
d="M50 345q0 190 79 273t223 83q130 0 198 -49.5t81 -159.5h-82q-13 83 -60 113t-137 30q-101 0 -160.5 -59t-59.5 -190v-77q0 -128 58.5 -191t162.5 -63q86 0 134 28.5t63 107.5h82q-16 -107 -84 -154.5t-196 -47.5q-144 0 -223 83t-79 273zM295 -204v48q37 0 58.5 1.5
t32.5 5.5t14.5 11t3.5 18q0 21 -20 27t-77 7v87h54v-47q49 -4 81 -18t32 -60q0 -40 -29.5 -60t-89.5 -20h-60z" />
    <glyph glyph-name="uniF53F" unicode="&#xf53f;" horiz-adv-x="525" 
d="M44 245q0 134 57 197t172 63q94 0 150 -35.5t67 -111.5h-78q-10 50 -46 70t-93 20q-77 0 -114.5 -40.5t-37.5 -127.5v-67q0 -92 43 -129.5t109 -37.5q63 0 96.5 23.5t43.5 66.5h77q-12 -74 -68 -110.5t-149 -36.5q-105 0 -167 55.5t-62 200.5zM208 -205v48q37 0 58.5 1.5
t32.5 5.5t14.5 11t3.5 18q0 21 -20 27t-77 7v87h54v-47q49 -4 81 -18t32 -60q0 -40 -29.5 -60t-89.5 -20h-60z" />
    <glyph glyph-name="dotlessj" unicode="&#xf6be;" horiz-adv-x="224" 
d="M-23 -140h33q37 0 50.5 16.5t13.5 46.5v571h76v-575q0 -61 -27.5 -90t-97.5 -29h-48v60z" />
    <glyph glyph-name="commaaccent" unicode="&#xf6c3;" horiz-adv-x="307" 
d="M116 -196q25 0 35.5 14t10.5 42v1h-4q-24 0 -37.5 11.5t-13.5 35.5t14 35.5t39 11.5q26 0 40.5 -12t14.5 -39v-36q0 -57 -23.5 -83t-75.5 -26v45z" />
    <glyph glyph-name="cyrbreve" unicode="&#xf6d4;" horiz-adv-x="323" 
d="M10 728h69q0 -54 19.5 -81t62.5 -27q42 0 62.5 27t20.5 81h69q0 -78 -38.5 -119t-113.5 -41q-74 0 -112.5 41t-38.5 119z" />
    <glyph glyph-name="f_f" unicode="&#xfb00;" horiz-adv-x="600" 
d="M23 494h66v115q0 62 29.5 91.5t104.5 29.5h84v-60h-79q-36 0 -49 -16t-13 -45v-115h202v115q0 62 29 91.5t104 29.5h89v-60h-83q-36 0 -49 -16t-13 -45v-115h145v-60h-145v-434h-77v434h-202v-434h-77v434h-66v60z" />
    <glyph glyph-name="f_i" unicode="&#xfb01;" horiz-adv-x="518" 
d="M23 494h66v115q0 60 29 90.5t104 30.5h223v-60h-217q-36 0 -49 -16t-13 -45v-115h279v-494h-77v434h-202v-434h-77v434h-66v60z" />
    <glyph glyph-name="f_l" unicode="&#xfb02;" horiz-adv-x="518" 
d="M23 494h66v115q0 60 29 90.5t104 30.5h223v-730h-77v434h-202v-434h-77v434h-66v60zM166 610v-116h202v180h-140q-36 0 -49 -16.5t-13 -47.5z" />
    <glyph glyph-name="f_f_i" unicode="&#xfb03;" horiz-adv-x="797" 
d="M23 494h66v115q0 62 29.5 91.5t104.5 29.5h84v-60h-79q-36 0 -49 -16t-13 -45v-115h202v115q0 60 29 90.5t104 30.5h222v-60h-216q-36 0 -49 -16t-13 -45v-115h278v-494h-76v434h-202v-434h-77v434h-202v-434h-77v434h-66v60z" />
    <glyph glyph-name="f_f_l" unicode="&#xfb04;" horiz-adv-x="797" 
d="M23 494h66v115q0 62 29.5 91.5t104.5 29.5h84v-60h-79q-36 0 -49 -16t-13 -45v-115h202v115q0 60 29 90.5t104 30.5h222v-730h-76v434h-202v-434h-77v434h-202v-434h-77v434h-66v60zM445 610v-116h202v180h-140q-36 0 -49 -16.5t-13 -47.5z" />
    <glyph glyph-name="zerowidthnobreak" unicode="&#xfeff;" horiz-adv-x="0" 
 />
    <glyph glyph-name="f_b" horiz-adv-x="894" 
d="M23 494h66v115q0 60 29 90.5t104 30.5h223v-313q27 46 72 67t105 21q109 0 168.5 -59t59.5 -199t-59.5 -199t-168.5 -59q-62 0 -108.5 22.5t-72.5 71.5v-83h-73v434h-202v-434h-77v434h-66v60zM166 610v-116h202v180h-140q-36 0 -49 -16.5t-13 -47.5zM772 216v63
q0 90 -44 129.5t-119 39.5q-78 0 -121 -39.5t-43 -129.5v-63q0 -85 44 -127.5t120 -42.5t119.5 42.5t43.5 127.5z" />
    <glyph glyph-name="f_f_b" horiz-adv-x="1172" 
d="M23 494h66v115q0 62 29.5 91.5t104.5 29.5h84v-60h-79q-36 0 -49 -16t-13 -45v-115h202v115q0 60 29 90.5t104 30.5h222v-313q27 46 72.5 67t105.5 21q109 0 168 -59t59 -199t-59 -199t-168 -59q-62 0 -108 22t-73 71v-82h-73v434h-202v-434h-77v434h-202v-434h-77v434
h-66v60zM445 610v-116h202v180h-140q-36 0 -49 -16.5t-13 -47.5zM1051 216v63q0 90 -44 129.5t-119 39.5q-78 0 -121.5 -39.5t-43.5 -129.5v-63q0 -85 44.5 -127.5t120.5 -42.5t119.5 42.5t43.5 127.5z" />
    <glyph glyph-name="f_f_h" horiz-adv-x="1154" 
d="M23 494h66v115q0 62 29.5 91.5t104.5 29.5h84v-60h-79q-36 0 -49 -16t-13 -45v-115h202v115q0 60 29 90.5t104 30.5h222v-311q23 46 68.5 66t102.5 20q92 0 142.5 -45.5t50.5 -146.5v-313h-77v309q0 82 -35 110.5t-100 28.5q-69 0 -110.5 -32t-41.5 -108v-308h-76v434
h-202v-434h-77v434h-202v-434h-77v434h-66v60zM445 610v-116h202v180h-140q-36 0 -49 -16.5t-13 -47.5z" />
    <glyph glyph-name="f_f_j" horiz-adv-x="797" 
d="M23 494h66v115q0 62 29.5 91.5t104.5 29.5h84v-60h-79q-36 0 -49 -16t-13 -45v-115h202v115q0 60 29 90.5t104 30.5h222v-60h-216q-36 0 -49 -16t-13 -45v-115h278v-575q0 -61 -27.5 -90t-97.5 -29h-48v60h33q37 0 50.5 16.5t13.5 46.5v511h-202v-434h-77v434h-202v-434
h-77v434h-66v60z" />
    <glyph glyph-name="f_f_k" horiz-adv-x="1077" 
d="M23 494h66v115q0 62 29.5 91.5t104.5 29.5h84v-60h-79q-36 0 -49 -16t-13 -45v-115h202v115q0 60 29 90.5t104 30.5h222v-450h64l184 214h86l-204 -238l228 -256h-96l-196 219h-66v-219h-76v434h-202v-434h-77v434h-202v-434h-77v434h-66v60zM445 610v-116h202v180h-140
q-36 0 -49 -16.5t-13 -47.5z" />
    <glyph glyph-name="f_h" horiz-adv-x="876" 
d="M23 494h66v115q0 60 29 90.5t104 30.5h223v-311q23 46 68.5 66t102.5 20q92 0 142 -45.5t50 -146.5v-313h-77v309q0 82 -35 110.5t-99 28.5q-69 0 -110.5 -32t-41.5 -108v-308h-77v434h-202v-434h-77v434h-66v60zM166 610v-116h202v180h-140q-36 0 -49 -16.5t-13 -47.5z
" />
    <glyph glyph-name="f_j" horiz-adv-x="518" 
d="M271 -140h34q36 0 49.5 16.5t13.5 46.5v511h-202v-434h-77v434h-66v60h66v115q0 60 29 90.5t104 30.5h223v-60h-217q-36 0 -49 -16t-13 -45v-115h279v-575q0 -61 -28 -90t-98 -29h-48v60z" />
    <glyph glyph-name="f_k" horiz-adv-x="799" 
d="M23 494h66v115q0 60 29 90.5t104 30.5h223v-450h64l183 214h86l-204 -238l229 -256h-97l-195 219h-66v-219h-77v434h-202v-434h-77v434h-66v60zM166 610v-116h202v180h-140q-36 0 -49 -16.5t-13 -47.5z" />
    <glyph glyph-name="acute.ucpl" horiz-adv-x="174" 
d="M9 758l64 142h92l-89 -142h-67z" />
    <glyph glyph-name="hyphen.uc" horiz-adv-x="424" 
d="M53 387h319v-72h-319v72z" />
    <glyph glyph-name="uni2010.uc" horiz-adv-x="424" 
d="M53 387h319v-72h-319v72z" />
    <glyph glyph-name="uni2011.uc" horiz-adv-x="424" 
d="M53 387h319v-72h-319v72z" />
    <glyph glyph-name="endash.uc" horiz-adv-x="659" 
d="M52 382h555v-63h-555v63z" />
    <glyph glyph-name="emdash.uc" horiz-adv-x="870" 
d="M49 382h772v-63h-772v63z" />
    <glyph glyph-name="uni2015.uc" horiz-adv-x="870" 
d="M49 382h772v-63h-772v63z" />
    <glyph glyph-name="parenleft.uc" horiz-adv-x="335" 
d="M50 345q0 123 19.5 211t54.5 144.5t84.5 86.5t108.5 38v-65q-82 -15 -134 -105.5t-52 -241.5v-133q0 -154 52 -244.5t134 -105.5v-65q-60 8 -109.5 38t-84.5 87t-54 145t-19 210z" />
    <glyph glyph-name="parenright.uc" horiz-adv-x="335" 
d="M285 346q0 -123 -19.5 -211t-54.5 -144.5t-84.5 -86.5t-108.5 -38v65q82 15 134 105.5t52 241.5v133q0 154 -52 244.5t-134 105.5v65q60 -8 109.5 -38t84.5 -87t54 -145t19 -210z" />
    <glyph glyph-name="bracketleft.uc" horiz-adv-x="355" 
d="M82 822h253v-64h-179v-822h179v-64h-253v950z" />
    <glyph glyph-name="bracketright.uc" horiz-adv-x="355" 
d="M273 -128h-253v64h179v822h-179v64h253v-950z" />
    <glyph glyph-name="braceleft.uc" horiz-adv-x="370" 
d="M112 -12v202q0 55 -17 86.5t-69 32.5v74q52 1 69 34.5t17 84.5v202q0 62 26.5 89.5t92.5 27.5h121v-64h-103q-34 0 -48.5 -13.5t-14.5 -50.5v-197q0 -54 -16.5 -96.5t-82.5 -54.5q66 -8 82.5 -49t16.5 -98v-196q0 -38 14.5 -52.5t48.5 -14.5h103v-64h-121
q-66 0 -92.5 27.5t-26.5 89.5z" />
    <glyph glyph-name="braceright.uc" horiz-adv-x="370" 
d="M258 705v-202q0 -55 17 -86.5t69 -32.5v-74q-52 -1 -69 -34.5t-17 -84.5v-202q0 -62 -26.5 -89.5t-92.5 -27.5h-121v64h103q34 0 48.5 13.5t14.5 50.5v197q0 54 16.5 96.5t82.5 54.5q-66 8 -82.5 49t-16.5 98v196q0 38 -14.5 52.5t-48.5 14.5h-103v64h121
q66 0 92.5 -27.5t26.5 -89.5z" />
    <glyph glyph-name="guilsinglleft.uc" horiz-adv-x="332" 
d="M57 320v60l202 184v-80l-145 -131l146 -132v-84z" />
    <glyph glyph-name="guilsinglright.uc" horiz-adv-x="331" 
d="M275 379v-60l-202 -184v80l145 131l-146 132v84z" />
    <glyph glyph-name="guillemotleft.uc" horiz-adv-x="541" 
d="M57 320v60l202 184v-80l-145 -131l146 -132v-84zM266 320v60l202 184v-80l-145 -131l146 -132v-84z" />
    <glyph glyph-name="guillemotright.uc" horiz-adv-x="540" 
d="M484 379v-60l-202 -184v80l145 131l-146 132v84zM275 379v-60l-202 -184v80l145 131l-146 132v84z" />
    <glyph glyph-name="slash.uc" horiz-adv-x="451" 
d="M350 750h82l-330 -810h-81z" />
    <glyph glyph-name="backslash.uc" horiz-adv-x="451" 
d="M349 -60l-329 810h81l330 -810h-82z" />
    <glyph glyph-name="bar.uc" horiz-adv-x="237" 
d="M81 790h75v-890h-75v890z" />
    <glyph glyph-name="at.uc" horiz-adv-x="1002" 
d="M42 343q0 122 35 209t96.5 141.5t147 79.5t185.5 25q103 0 187.5 -25t143 -77t91 -133.5t32.5 -193.5q0 -76 -12.5 -128t-34.5 -82.5t-54 -43.5t-70 -13q-70 0 -103 33t-39 73q-22 -54 -67 -80t-105 -26q-96 0 -154.5 54.5t-58.5 183.5q0 132 57 188.5t156 56.5
q52 0 93 -18.5t66 -60.5v67h71v-272q0 -44 6 -72t17.5 -43t28 -20.5t38.5 -5.5q43 0 68 38.5t25 125.5v64q0 97 -28.5 164.5t-79 109t-121 60t-153.5 18.5q-79 0 -151 -19t-125 -61t-84.5 -111t-31.5 -168v-74q0 -104 35 -173t91 -110t126.5 -58t140.5 -17q26 0 58 2.5
t63 7.5t59 13t47 18v-59q-35 -18 -96.5 -28.5t-130.5 -10.5q-86 0 -170 20.5t-149 71t-105.5 138t-40.5 221.5zM633 316v55q0 82 -39.5 119t-108.5 37q-68 0 -107.5 -37.5t-39.5 -121.5v-56q0 -76 39.5 -114t108.5 -38q68 0 107.5 38.5t39.5 117.5z" />
    <glyph glyph-name="exclamdown.uc" horiz-adv-x="243" 
d="M68 650q0 25 13.5 38t39.5 13t40 -13t14 -38t-14 -37.5t-40 -12.5t-39.5 12.5t-13.5 37.5zM76 0l11 514h68l12 -514h-91z" />
    <glyph glyph-name="questiondown.uc" horiz-adv-x="553" 
d="M344 650q0 -25 -13.5 -37.5t-39.5 -12.5t-40 12.5t-14 37.5t14 38t40 13t39.5 -13t13.5 -38zM114 178v-25q0 -50 40.5 -74t114.5 -24q81 0 125.5 29.5t48.5 104.5h83q-5 -106 -73.5 -153t-183.5 -47q-107 0 -172.5 41.5t-65.5 131.5q0 74 35.5 106.5t78 55.5t78 54.5
t35.5 103.5v32h70v-32q0 -82 -33.5 -122.5t-73.5 -65t-73.5 -47t-33.5 -69.5z" />
    <glyph glyph-name="acute.uc" horiz-adv-x="234" 
d="M9 758l115 142h102l-142 -142h-75z" />
    <glyph glyph-name="grave.uc" horiz-adv-x="235" 
d="M148 758l-139 142h104l114 -142h-79z" />
    <glyph glyph-name="hungarumlaut.uc" horiz-adv-x="380" 
d="M9 758l79 142h95l-104 -142h-70zM166 758l106 142h100l-133 -142h-73z" />
    <glyph glyph-name="circumflex.uc" horiz-adv-x="382" 
d="M8 758l147 142h71l148 -142h-87l-98 89l-97 -89h-84z" />
    <glyph glyph-name="caron.uc" horiz-adv-x="382" 
d="M8 900h88l97 -89l97 89h84l-146 -142h-72z" />
    <glyph glyph-name="breve.uc" horiz-adv-x="332" 
d="M12 900h66q0 -45 21 -65.5t67 -20.5q45 0 66 20.5t22 65.5h66q-1 -69 -39.5 -106.5t-114.5 -37.5t-115 37.5t-39 106.5z" />
    <glyph glyph-name="tilde.uc" horiz-adv-x="336" 
d="M97 893q28 0 47.5 -11t34.5 -24.5t27.5 -24.5t27.5 -11q20 0 28 20.5t8 49.5h56q0 -58 -20.5 -92.5t-66.5 -34.5q-28 0 -47.5 11.5t-34.5 24.5t-27.5 24.5t-27.5 11.5q-20 0 -28.5 -20t-8.5 -51h-55q0 58 20.5 92.5t66.5 34.5z" />
    <glyph glyph-name="macron.uc" horiz-adv-x="314" 
d="M12 807v56h289v-56h-289z" />
    <glyph glyph-name="dieresis.uc" horiz-adv-x="362" 
d="M21 826q0 24 13 36.5t38 12.5t38.5 -12.5t13.5 -36.5q0 -25 -13.5 -37.5t-38.5 -12.5t-38 12.5t-13 37.5zM238 826q0 24 13 36.5t38 12.5t38 -12.5t13 -36.5q0 -25 -13 -37.5t-38 -12.5t-38 12.5t-13 37.5z" />
    <glyph glyph-name="dotaccent.uc" horiz-adv-x="135" 
d="M10 828q0 24 14.5 36.5t42.5 12.5t43 -12.5t15 -36.5q0 -25 -15 -37t-43 -12t-42.5 12t-14.5 37z" />
    <glyph glyph-name="ring.uc" horiz-adv-x="284" 
d="M10 833q0 42 31.5 64t100.5 22q68 0 99.5 -22t31.5 -64q0 -43 -32 -64.5t-99 -21.5q-69 0 -100.5 21.5t-31.5 64.5zM142 794q44 0 59 10t15 29t-15 28.5t-59 9.5q-45 0 -59.5 -9.5t-14.5 -28.5t14.5 -29t59.5 -10z" />
    <glyph glyph-name="uni00AD.uc" horiz-adv-x="424" 
d="M53 387h319v-72h-319v72z" />
    <glyph glyph-name="cyrbreve.uc" horiz-adv-x="342" 
d="M15 899h72q1 -49 20.5 -70t62.5 -21t62.5 21t20.5 70h73q-1 -70 -39.5 -107.5t-116.5 -37.5q-77 0 -115.5 37t-39.5 108z" />
    <glyph glyph-name="zero.den" horiz-adv-x="488" 
d="M244 -11q-97 0 -148.5 56.5t-51.5 167.5q0 113 51.5 168t148.5 55t148.5 -55t51.5 -168q0 -111 -51.5 -167.5t-148.5 -56.5zM244 47q64 0 97 38t33 105v48q0 69 -33.5 104.5t-96.5 35.5q-64 0 -97 -35.5t-33 -104.5v-48q0 -68 32.5 -105.5t97.5 -37.5z" />
    <glyph glyph-name="one.den" horiz-adv-x="259" 
d="M27 354l95 71h65v-425h-65v361l-95 -71v64z" />
    <glyph glyph-name="two.den" horiz-adv-x="432" 
d="M40 20q0 89 43 128t94.5 59t94.5 36t43 60v15q0 32 -25.5 46t-68.5 14q-49 0 -74 -17.5t-31 -54.5h-71q7 68 53.5 99t121.5 31q71 0 118.5 -27.5t47.5 -93.5q0 -65 -41 -91.5t-91 -43.5t-94.5 -40.5t-51.5 -81.5h280v-58h-348v20z" />
    <glyph glyph-name="three.den" horiz-adv-x="443" 
d="M36 120h71q7 -36 33 -54.5t85 -18.5q49 0 76.5 14t27.5 45v23q0 33 -30 47.5t-76 14.5h-51v57h51q40 0 66 13t26 47v13q0 31 -23.5 44t-66.5 13q-51 0 -75.5 -16t-30.5 -44h-71q6 56 54 87t123 31q69 0 115 -28t46 -85q0 -40 -24 -65.5t-67 -34.5q47 -8 76 -33.5
t29 -71.5q0 -67 -48 -98t-127 -31q-87 0 -134.5 31t-54.5 100z" />
    <glyph glyph-name="four.den" horiz-adv-x="447" 
d="M25 149l222 276h101v-268h70v-58h-70v-99h-69v99h-254v50zM102 157h177v221z" />
    <glyph glyph-name="five.den" horiz-adv-x="438" 
d="M36 110h70q8 -34 36 -48.5t77 -14.5q55 0 83.5 18.5t28.5 62.5v20q0 43 -29.5 60t-84.5 17q-33 0 -62.5 -9t-49.5 -28l-55 10l25 227h299v-58h-244l-14 -120q19 13 49 22.5t71 9.5q73 0 119 -32.5t46 -106.5q0 -79 -48 -115t-134 -36q-79 0 -127.5 29.5t-55.5 91.5z" />
    <glyph glyph-name="six.den" horiz-adv-x="466" 
d="M45 199q0 69 14 115t39.5 73t62.5 38t83 11q83 0 124 -29t49 -75h-69q-7 23 -33 34.5t-71 11.5q-63 0 -97.5 -29.5t-34.5 -113.5v-16q21 29 58.5 43t87.5 14q76 0 121.5 -33t45.5 -108t-48.5 -110.5t-136.5 -35.5q-96 0 -145.5 44t-49.5 166zM355 120v28q0 38 -29.5 56
t-85.5 18q-65 0 -93.5 -21.5t-28.5 -65.5q0 -43 28.5 -66.5t92.5 -23.5q57 0 86.5 19.5t29.5 55.5z" />
    <glyph glyph-name="seven.den" horiz-adv-x="384" 
d="M23 366v59h342v-43l-215 -382h-71l206 366h-262z" />
    <glyph glyph-name="eight.den" horiz-adv-x="472" 
d="M42 119q0 43 26.5 69t73.5 36q-43 10 -63.5 36.5t-20.5 60.5q0 62 50 88.5t128 26.5t128 -26.5t50 -88.5q0 -34 -20 -60.5t-63 -36.5q47 -10 73 -36t26 -69q0 -67 -50 -98.5t-144 -31.5q-93 0 -143.5 31.5t-50.5 98.5zM345 312v9q0 30 -27 45t-82 15q-54 0 -81.5 -15
t-27.5 -45v-9q0 -31 27.5 -46.5t81.5 -15.5t81.5 15.5t27.5 46.5zM360 112v14q0 35 -32 51.5t-92 16.5q-58 0 -91 -16t-33 -51v-15q0 -36 33.5 -52t90.5 -16t90.5 15.5t33.5 52.5z" />
    <glyph glyph-name="nine.den" horiz-adv-x="466" 
d="M421 226q0 -69 -14 -115t-39.5 -73t-62.5 -38t-83 -11q-83 0 -124 29t-49 75h69q7 -23 33 -34.5t71 -11.5q63 0 97.5 29.5t34.5 113.5v16q-21 -29 -58.5 -43t-87.5 -14q-76 0 -121.5 33t-45.5 108t48.5 110.5t136.5 35.5q96 0 145.5 -44t49.5 -166zM111 305v-28
q0 -38 29.5 -56t85.5 -18q65 0 93.5 21.5t28.5 65.5q0 43 -28.5 66.5t-92.5 23.5q-57 0 -86.5 -19.5t-29.5 -55.5z" />
    <glyph glyph-name="zero.num" horiz-adv-x="486" 
d="M243 254q-97 0 -148.5 56.5t-51.5 167.5q0 113 51.5 168t148.5 55t148.5 -55t51.5 -168q0 -111 -51.5 -167.5t-148.5 -56.5zM243 312q64 0 97 38t33 105v48q0 69 -33.5 104.5t-96.5 35.5q-64 0 -97 -35.5t-33 -104.5v-48q0 -68 32.5 -105.5t97.5 -37.5z" />
    <glyph glyph-name="one.num" horiz-adv-x="259" 
d="M27 619l95 71h65v-425h-65v361l-95 -71v64z" />
    <glyph glyph-name="two.num" horiz-adv-x="432" 
d="M40 285q0 89 43 128t94.5 59t94.5 36t43 60v15q0 32 -25.5 46t-68.5 14q-49 0 -74 -17.5t-31 -54.5h-71q7 68 53.5 99t121.5 31q71 0 118.5 -27.5t47.5 -93.5q0 -65 -41 -91.5t-91 -43.5t-94.5 -40.5t-51.5 -81.5h280v-58h-348v20z" />
    <glyph glyph-name="three.num" horiz-adv-x="442" 
d="M35 385h71q7 -36 33 -54.5t85 -18.5q49 0 76.5 14t27.5 45v23q0 33 -30 47.5t-76 14.5h-51v57h51q40 0 66 13t26 47v13q0 31 -23.5 44t-66.5 13q-51 0 -75.5 -16t-30.5 -44h-71q6 56 54 87t123 31q69 0 115 -28t46 -85q0 -40 -24 -65.5t-67 -34.5q47 -8 76 -33.5
t29 -71.5q0 -67 -48 -98t-127 -31q-87 0 -134.5 31t-54.5 100z" />
    <glyph glyph-name="four.num" horiz-adv-x="448" 
d="M26 414l222 276h101v-268h70v-58h-70v-99h-69v99h-254v50zM103 422h177v221z" />
    <glyph glyph-name="five.num" horiz-adv-x="438" 
d="M36 375h70q8 -34 36 -48.5t77 -14.5q55 0 83.5 18.5t28.5 62.5v20q0 43 -29.5 60t-84.5 17q-33 0 -62.5 -9t-49.5 -28l-55 10l25 227h299v-58h-244l-14 -120q19 13 49 22.5t71 9.5q73 0 119 -32.5t46 -106.5q0 -79 -48 -115t-134 -36q-79 0 -127.5 29.5t-55.5 91.5z" />
    <glyph glyph-name="six.num" horiz-adv-x="466" 
d="M45 465q0 69 14 115t39.5 73t62.5 38t83 11q83 0 124 -29t49 -75h-69q-7 23 -33 34.5t-71 11.5q-63 0 -97.5 -29.5t-34.5 -113.5v-16q21 29 58.5 43t87.5 14q76 0 121.5 -33t45.5 -108t-48.5 -110.5t-136.5 -35.5q-96 0 -145.5 44t-49.5 166zM355 386v28q0 38 -29.5 56
t-85.5 18q-65 0 -93.5 -21.5t-28.5 -65.5q0 -43 28.5 -66.5t92.5 -23.5q57 0 86.5 19.5t29.5 55.5z" />
    <glyph glyph-name="seven.num" horiz-adv-x="383" 
d="M22 631v59h342v-43l-215 -382h-71l206 366h-262z" />
    <glyph glyph-name="eight.num" horiz-adv-x="472" 
d="M42 384q0 43 26.5 69t73.5 36q-43 10 -63.5 36.5t-20.5 60.5q0 62 50 88.5t128 26.5t128 -26.5t50 -88.5q0 -34 -20 -60.5t-63 -36.5q47 -10 73 -36t26 -69q0 -67 -50 -98.5t-144 -31.5q-93 0 -143.5 31.5t-50.5 98.5zM345 577v9q0 30 -27 45t-82 15q-54 0 -81.5 -15
t-27.5 -45v-9q0 -31 27.5 -46.5t81.5 -15.5t81.5 15.5t27.5 46.5zM360 377v14q0 35 -32 51.5t-92 16.5q-58 0 -91 -16t-33 -51v-15q0 -36 33.5 -52t90.5 -16t90.5 15.5t33.5 52.5z" />
    <glyph glyph-name="nine.num" horiz-adv-x="465" 
d="M421 491q0 -69 -14 -115t-39.5 -73t-62.5 -38t-83 -11q-83 0 -124 29t-49 75h69q7 -23 33 -34.5t71 -11.5q63 0 97.5 29.5t34.5 113.5v16q-21 -29 -58.5 -43t-87.5 -14q-76 0 -121.5 33t-45.5 108t48.5 110.5t136.5 35.5q96 0 145.5 -44t49.5 -166zM111 570v-28
q0 -38 29.5 -56t85.5 -18q65 0 93.5 21.5t28.5 65.5q0 43 -28.5 66.5t-92.5 23.5q-57 0 -86.5 -19.5t-29.5 -55.5z" />
    <glyph glyph-name="zero.sub" horiz-adv-x="488" 
d="M244 -95q-97 0 -148.5 56.5t-51.5 167.5q0 113 51.5 168t148.5 55t148.5 -55t51.5 -168q0 -111 -51.5 -167.5t-148.5 -56.5zM244 -37q64 0 97 38t33 105v48q0 69 -33.5 104.5t-96.5 35.5q-64 0 -97 -35.5t-33 -104.5v-48q0 -68 32.5 -105.5t97.5 -37.5z" />
    <glyph glyph-name="one.sub" horiz-adv-x="260" 
d="M28 270l95 71h65v-425h-65v361l-95 -71v64z" />
    <glyph glyph-name="two.sub" horiz-adv-x="432" 
d="M40 -64q0 89 43 128t94.5 59t94.5 36t43 60v15q0 32 -25.5 46t-68.5 14q-49 0 -74 -17.5t-31 -54.5h-71q7 68 53.5 99t121.5 31q71 0 118.5 -27.5t47.5 -93.5q0 -65 -41 -91.5t-91 -43.5t-94.5 -40.5t-51.5 -81.5h280v-58h-348v20z" />
    <glyph glyph-name="three.sub" horiz-adv-x="443" 
d="M36 36h71q7 -36 33 -54.5t85 -18.5q49 0 76.5 14t27.5 45v23q0 33 -30 47.5t-76 14.5h-51v57h51q40 0 66 13t26 47v13q0 31 -23.5 44t-66.5 13q-51 0 -75.5 -16t-30.5 -44h-71q6 56 54 87t123 31q69 0 115 -28t46 -85q0 -40 -24 -65.5t-67 -34.5q47 -8 76 -33.5t29 -71.5
q0 -67 -48 -98t-127 -31q-87 0 -134.5 31t-54.5 100z" />
    <glyph glyph-name="four.sub" horiz-adv-x="447" 
d="M25 65l222 276h101v-268h70v-58h-70v-99h-69v99h-254v50zM102 73h177v221z" />
    <glyph glyph-name="five.sub" horiz-adv-x="439" 
d="M36 26h70q8 -34 36 -48.5t77 -14.5q55 0 83.5 18.5t28.5 62.5v20q0 43 -29.5 60t-84.5 17q-33 0 -62.5 -9t-49.5 -28l-55 10l25 227h299v-58h-244l-14 -120q19 13 49 22.5t71 9.5q73 0 119 -32.5t46 -106.5q0 -79 -48 -115t-134 -36q-79 0 -127.5 29.5t-55.5 91.5z" />
    <glyph glyph-name="six.sub" horiz-adv-x="466" 
d="M45 115q0 69 14 115t39.5 73t62.5 38t83 11q83 0 124 -29t49 -75h-69q-7 23 -33 34.5t-71 11.5q-63 0 -97.5 -29.5t-34.5 -113.5v-16q21 29 58.5 43t87.5 14q76 0 121.5 -33t45.5 -108t-48.5 -110.5t-136.5 -35.5q-96 0 -145.5 44t-49.5 166zM355 36v28q0 38 -29.5 56
t-85.5 18q-65 0 -93.5 -21.5t-28.5 -65.5q0 -43 28.5 -66.5t92.5 -23.5q57 0 86.5 19.5t29.5 55.5z" />
    <glyph glyph-name="seven.sub" horiz-adv-x="384" 
d="M23 282v59h342v-43l-215 -382h-71l206 366h-262z" />
    <glyph glyph-name="eight.sub" horiz-adv-x="472" 
d="M42 35q0 43 26.5 69t73.5 36q-43 10 -63.5 36.5t-20.5 60.5q0 62 50 88.5t128 26.5t128 -26.5t50 -88.5q0 -34 -20 -60.5t-63 -36.5q47 -10 73 -36t26 -69q0 -67 -50 -98.5t-144 -31.5q-93 0 -143.5 31.5t-50.5 98.5zM345 228v9q0 30 -27 45t-82 15q-54 0 -81.5 -15
t-27.5 -45v-9q0 -31 27.5 -46.5t81.5 -15.5t81.5 15.5t27.5 46.5zM360 28v14q0 35 -32 51.5t-92 16.5q-58 0 -91 -16t-33 -51v-15q0 -36 33.5 -52t90.5 -16t90.5 15.5t33.5 52.5z" />
    <glyph glyph-name="nine.sub" horiz-adv-x="466" 
d="M421 141q0 -69 -14 -115t-39.5 -73t-62.5 -38t-83 -11q-83 0 -124 29t-49 75h69q7 -23 33 -34.5t71 -11.5q63 0 97.5 29.5t34.5 113.5v16q-21 -29 -58.5 -43t-87.5 -14q-76 0 -121.5 33t-45.5 108t48.5 110.5t136.5 35.5q96 0 145.5 -44t49.5 -166zM111 220v-28
q0 -38 29.5 -56t85.5 -18q65 0 93.5 21.5t28.5 65.5q0 43 -28.5 66.5t-92.5 23.5q-57 0 -86.5 -19.5t-29.5 -55.5z" />
    <glyph glyph-name="zero.sup" horiz-adv-x="488" 
d="M244 364q-97 0 -148.5 56.5t-51.5 167.5q0 113 51.5 168t148.5 55t148.5 -55t51.5 -168q0 -111 -51.5 -167.5t-148.5 -56.5zM244 422q64 0 97 38t33 105v48q0 69 -33.5 104.5t-96.5 35.5q-64 0 -97 -35.5t-33 -104.5v-48q0 -68 32.5 -105.5t97.5 -37.5z" />
    <glyph glyph-name="one.sup" horiz-adv-x="260" 
d="M28 729l95 71h65v-425h-65v361l-95 -71v64z" />
    <glyph glyph-name="two.sup" horiz-adv-x="432" 
d="M40 395q0 89 43 128t94.5 59t94.5 36t43 60v15q0 32 -25.5 46t-68.5 14q-49 0 -74 -17.5t-31 -54.5h-71q7 68 53.5 99t121.5 31q71 0 118.5 -27.5t47.5 -93.5q0 -65 -41 -91.5t-91 -43.5t-94.5 -40.5t-51.5 -81.5h280v-58h-348v20z" />
    <glyph glyph-name="three.sup" horiz-adv-x="443" 
d="M36 495h71q7 -36 33 -54.5t85 -18.5q49 0 76.5 14t27.5 45v23q0 33 -30 47.5t-76 14.5h-51v57h51q40 0 66 13t26 47v13q0 31 -23.5 44t-66.5 13q-51 0 -75.5 -16t-30.5 -44h-71q6 56 54 87t123 31q69 0 115 -28t46 -85q0 -40 -24 -65.5t-67 -34.5q47 -8 76 -33.5
t29 -71.5q0 -67 -48 -98t-127 -31q-87 0 -134.5 31t-54.5 100z" />
    <glyph glyph-name="four.sup" horiz-adv-x="447" 
d="M25 524l222 276h101v-268h70v-58h-70v-99h-69v99h-254v50zM102 532h177v221z" />
    <glyph glyph-name="five.sup" horiz-adv-x="439" 
d="M36 485h70q8 -34 36 -48.5t77 -14.5q55 0 83.5 18.5t28.5 62.5v20q0 43 -29.5 60t-84.5 17q-33 0 -62.5 -9t-49.5 -28l-55 10l25 227h299v-58h-244l-14 -120q19 13 49 22.5t71 9.5q73 0 119 -32.5t46 -106.5q0 -79 -48 -115t-134 -36q-79 0 -127.5 29.5t-55.5 91.5z" />
    <glyph glyph-name="six.sup" horiz-adv-x="466" 
d="M45 575q0 69 14 115t39.5 73t62.5 38t83 11q83 0 124 -29t49 -75h-69q-7 23 -33 34.5t-71 11.5q-63 0 -97.5 -29.5t-34.5 -113.5v-16q21 29 58.5 43t87.5 14q76 0 121.5 -33t45.5 -108t-48.5 -110.5t-136.5 -35.5q-96 0 -145.5 44t-49.5 166zM355 496v28q0 38 -29.5 56
t-85.5 18q-65 0 -93.5 -21.5t-28.5 -65.5q0 -43 28.5 -66.5t92.5 -23.5q57 0 86.5 19.5t29.5 55.5z" />
    <glyph glyph-name="seven.sup" horiz-adv-x="385" 
d="M23 741v59h342v-43l-215 -382h-71l206 366h-262z" />
    <glyph glyph-name="eight.sup" horiz-adv-x="472" 
d="M42 494q0 43 26.5 69t73.5 36q-43 10 -63.5 36.5t-20.5 60.5q0 62 50 88.5t128 26.5t128 -26.5t50 -88.5q0 -34 -20 -60.5t-63 -36.5q47 -10 73 -36t26 -69q0 -67 -50 -98.5t-144 -31.5q-93 0 -143.5 31.5t-50.5 98.5zM345 687v9q0 30 -27 45t-82 15q-54 0 -81.5 -15
t-27.5 -45v-9q0 -31 27.5 -46.5t81.5 -15.5t81.5 15.5t27.5 46.5zM360 487v14q0 35 -32 51.5t-92 16.5q-58 0 -91 -16t-33 -51v-15q0 -36 33.5 -52t90.5 -16t90.5 15.5t33.5 52.5z" />
    <glyph glyph-name="nine.sup" horiz-adv-x="466" 
d="M421 601q0 -69 -14 -115t-39.5 -73t-62.5 -38t-83 -11q-83 0 -124 29t-49 75h69q7 -23 33 -34.5t71 -11.5q63 0 97.5 29.5t34.5 113.5v16q-21 -29 -58.5 -43t-87.5 -14q-76 0 -121.5 33t-45.5 108t48.5 110.5t136.5 35.5q96 0 145.5 -44t49.5 -166zM111 680v-28
q0 -38 29.5 -56t85.5 -18q65 0 93.5 21.5t28.5 65.5q0 43 -28.5 66.5t-92.5 23.5q-57 0 -86.5 -19.5t-29.5 -55.5z" />
    <glyph glyph-name="three.tab.alt" 
d="M97 188h84q9 -66 60 -99.5t156 -33.5q99 0 150.5 33.5t51.5 96.5v37q0 66 -57 97.5t-157 31.5h-76v51l237 220h-396v68h503v-52l-245 -228q147 -6 209 -58t62 -147q0 -114 -73 -165t-209 -51q-139 0 -214 47.5t-86 151.5z" />
    <glyph glyph-name="four.tab.alt" 
d="M91 240l316 450h83l-305 -436h298v215h82v-215h132v-65h-132v-189h-82v189h-392v51z" />
    <glyph glyph-name="afii10021.bgr" horiz-adv-x="767" 
d="M17 -150v218h73l240 622h113l235 -622h72v-218h-75v150h-582v-150h-76zM169 68h425l-211 560z" />
    <glyph glyph-name="afii10024.bgr" horiz-adv-x="923" 
d="M419 690h82v-309h57l263 309h89l-286 -336l297 -354h-99l-264 313h-57v-313h-82v313h-56l-264 -313h-96l295 350l-291 340h93l263 -309h56v309z" />
    <glyph glyph-name="afii10028.bgr" horiz-adv-x="615" 
d="M81 690h81v-309h91l255 309h92l-278 -337l295 -353h-101l-262 314h-92v-314h-81v690z" />
    <glyph glyph-name="afii10029.bgr" horiz-adv-x="648" 
d="M267 690h114l258 -690h-85l-232 624l-233 -624h-80z" />
    <glyph glyph-name="afii10067.bgr" horiz-adv-x="554" 
d="M67 205v309q0 99 49.5 162.5t173.5 63.5q108 0 157.5 -51t49.5 -142q0 -63 -29.5 -111.5t-87.5 -64.5q66 -13 99.5 -60t33.5 -116q0 -93 -55.5 -149.5t-168.5 -56.5q-118 0 -170 52.5t-52 163.5zM422 533v22q0 66 -34.5 95.5t-98.5 29.5q-81 0 -113.5 -41.5t-32.5 -131.5
v-113h128q75 0 113 33.5t38 105.5zM436 175v31q0 66 -38.5 99t-128.5 33h-126v-145q0 -74 32.5 -110t113.5 -36q69 0 108 33.5t39 94.5z" />
    <glyph glyph-name="afii10068.bgr" horiz-adv-x="511" 
d="M37 130q0 82 55 108.5t120 36.5t120 25t55 74q0 40 -34 58t-95 18q-54 0 -90 -18.5t-39 -71.5h-77q4 75 58.5 110.5t147.5 35.5q97 0 150.5 -35t53.5 -98q0 -82 -55 -108t-120.5 -36.5t-120.5 -25.5t-55 -74q0 -44 36 -64t105 -20q65 0 102.5 23t41.5 83h78
q-4 -83 -61.5 -122t-160.5 -39q-97 0 -156 32.5t-59 107.5z" />
    <glyph glyph-name="afii10069.bgr" horiz-adv-x="599" 
d="M65 -65h78q14 -50 53.5 -69.5t100.5 -19.5q87 0 120.5 40t33.5 136v61q-26 -43 -70.5 -63.5t-104.5 -20.5q-107 0 -168.5 58t-61.5 190q0 136 60 197t170 61q60 0 105.5 -20.5t72.5 -68.5v78h74v-469q0 -116 -54 -176t-177 -60q-103 0 -161 37t-71 109zM451 222v57
q0 88 -44.5 128.5t-119.5 40.5t-119.5 -41t-44.5 -132v-57q0 -81 45 -121t119 -40q77 0 120.5 39t43.5 126z" />
    <glyph glyph-name="afii10072.bgr" horiz-adv-x="739" 
d="M330 730h76v-450h60l165 214h81l-182 -237l204 -257h-91l-175 219h-62v-219h-76v219h-62l-175 -219h-88l200 251l-186 243h86l165 -214h60v450z" />
    <glyph glyph-name="afii10073.bgr" horiz-adv-x="487" 
d="M18 -46h76q6 -54 39 -80.5t97 -26.5q69 0 105 33t36 111v20q0 61 -32.5 95t-93.5 34h-100v58h97q59 0 87.5 30.5t28.5 84.5v24q0 59 -31 84.5t-91 25.5t-90 -24t-38 -75h-76q9 81 61.5 119t142.5 38q91 0 144.5 -42t53.5 -132q0 -56 -22.5 -98.5t-84.5 -59.5
q66 -17 93 -64t27 -106q0 -115 -57.5 -164.5t-159.5 -49.5q-89 0 -147 39t-65 126z" />
    <glyph glyph-name="afii10074.bgr" horiz-adv-x="581" 
d="M68 184v310h76v-309q0 -82 35 -110t100 -28q66 0 109 31t43 109v307h77v-494h-76v76q-22 -46 -67 -66.5t-105 -20.5q-93 0 -142.5 45t-49.5 150z" />
    <glyph glyph-name="afii10075.bgr" horiz-adv-x="581" 
d="M68 184v310h76v-309q0 -82 35 -110t100 -28q66 0 109 31t43 109v307h77v-494h-76v76q-22 -46 -67 -66.5t-105 -20.5q-93 0 -142.5 45t-49.5 150zM137 728h69q0 -54 19.5 -81t62.5 -27q42 0 62.5 27t20.5 81h69q0 -78 -38.5 -119t-113.5 -41q-74 0 -112.5 41t-38.5 119z
" />
    <glyph glyph-name="afii10076.bgr" horiz-adv-x="504" 
d="M398 494h86l-204 -238l228 -256h-95l-197 219h-66v-219h-76v730h76v-450h65z" />
    <glyph glyph-name="afii10077.bgr" horiz-adv-x="509" 
d="M11 0l197 494h92l198 -494h-80l-167 421l-166 -421h-74z" />
    <glyph glyph-name="afii10079.bgr" horiz-adv-x="571" 
d="M74 494h76v-212h271v212h76v-494h-76v222h-271v-222h-76v494z" />
    <glyph glyph-name="afii10081.bgr" horiz-adv-x="581" 
d="M437 0v309q0 82 -35 110.5t-100 28.5q-69 0 -110.5 -32t-41.5 -109v-307h-76v494h73v-81q22 49 69 70.5t105 21.5q93 0 143 -45.5t50 -146.5v-313h-77z" />
    <glyph glyph-name="afii10084.bgr" horiz-adv-x="872" 
d="M401 0v310q0 83 -31.5 110.5t-85.5 27.5q-58 0 -96 -31.5t-38 -107.5v-309h-76v494h73v-81q22 49 65.5 70.5t94.5 21.5q60 0 99.5 -23t57.5 -73q21 50 66.5 73t102.5 23q83 0 127 -46t44 -147v-312h-77v310q0 83 -31.5 110.5t-85.5 27.5q-57 0 -95 -31t-38 -108v-309h-76
z" />
    <glyph glyph-name="afii10088.bgr" horiz-adv-x="604" 
d="M68 184v310h76v-309q0 -82 35 -110t100 -28q66 0 109 31t43 109v307h77v-434h77v-200h-71v140h-82v76q-22 -46 -67 -66.5t-105 -20.5q-93 0 -142.5 45t-49.5 150z" />
    <glyph glyph-name="afii10089.bgr" horiz-adv-x="524" 
d="M374 205q-31 -5 -62 -7.5t-71 -2.5q-110 0 -156 41t-46 137v121h76v-118q0 -69 32 -95t106 -26q36 0 64 2.5t57 7.5v229h76v-494h-76v205z" />
    <glyph glyph-name="afii10090.bgr" horiz-adv-x="872" 
d="M68 182v312h76v-310q0 -82 32 -109.5t86 -27.5q57 0 95 30.5t38 107.5v309h76v-310q0 -82 32 -109.5t86 -27.5q57 0 94.5 31t37.5 107v309h77v-494h-75v77q-22 -45 -64 -66.5t-92 -21.5q-60 0 -101 23.5t-58 74.5q-21 -50 -65.5 -74t-101.5 -24q-84 0 -128.5 46
t-44.5 147z" />
    <glyph glyph-name="afii10091.bgr" horiz-adv-x="895" 
d="M68 182v312h76v-310q0 -82 32 -109.5t86 -27.5q57 0 95 30.5t38 107.5v309h76v-310q0 -82 31.5 -109.5t86.5 -27.5q57 0 94.5 31t37.5 107v309h77v-434h77v-200h-70v140h-82v77q-22 -45 -64 -66.5t-92 -21.5q-60 0 -101 23.5t-58 74.5q-21 -50 -65.5 -74t-101.5 -24
q-84 0 -128.5 46t-44.5 147z" />
    <glyph glyph-name="afii10092.bgr" horiz-adv-x="599" 
d="M137 172v262h-126v60h202v-174h152q104 0 156 -40t52 -123q0 -84 -57 -126t-162 -42q-106 0 -161.5 40.5t-55.5 142.5zM495 150v19q0 50 -32.5 72t-107.5 22h-142v-95q0 -64 31 -92.5t110 -28.5q77 0 109 25.5t32 77.5z" />
    <glyph glyph-name="afii10094.bgr" horiz-adv-x="530" 
d="M68 172v322h76v-174h152q104 0 156 -40t52 -123q0 -84 -57 -126t-162 -42q-106 0 -161.5 40.5t-55.5 142.5zM427 150v19q0 50 -33 72t-108 22h-142v-95q0 -64 31 -92.5t110 -28.5q77 0 109.5 25.5t32.5 77.5z" />
    <glyph glyph-name="afii10096.bgr" horiz-adv-x="772" 
d="M74 730h76v-447h107q7 122 68 172t167 50q114 0 175 -58t61 -200q0 -141 -61 -199.5t-175 -58.5q-109 0 -170 53.5t-66 181.5h-106v-224h-76v730zM650 219v57q0 96 -42.5 134t-115.5 38t-116 -38t-43 -134v-57q0 -96 43 -134.5t116 -38.5t115.5 38.5t42.5 134.5z" />
    <glyph glyph-name="afii10066.locl" horiz-adv-x="570" 
d="M43 244q0 99 44 156t112 74q-56 13 -93.5 44t-37.5 82q0 61 44 96t142 35q96 0 148 1.5t86 8.5v-62q-32 -7 -87.5 -9t-142.5 -2q-60 0 -87 -17t-27 -51v-9q0 -62 59.5 -72.5t131 -25.5t131 -61t59.5 -178v-9q0 -140 -62 -198t-179 -58q-116 0 -178.5 57.5t-62.5 197.5z
M448 215v59q0 87 -42 127.5t-122 40.5q-76 0 -120 -40.5t-44 -127.5v-59q0 -85 41.5 -127t122.5 -42t122.5 42t41.5 127z" />
    <glyph glyph-name="i.dotaccent" horiz-adv-x="224" 
d="M74 494h76v-494h-76v494zM60 657q0 24 13 36.5t38 12.5q26 0 40 -12.5t14 -36.5q0 -25 -14 -38t-40 -13q-25 0 -38 13t-13 38z" />
    <glyph glyph-name="Cacute.pl" horiz-adv-x="667" 
d="M308 758l64 142h92l-89 -142h-67zM50 345q0 190 79 273t223 83q130 0 198 -49.5t81 -159.5h-82q-13 83 -60 113t-137 30q-101 0 -160.5 -59t-59.5 -190v-77q0 -128 58.5 -191t162.5 -63q86 0 134 28.5t63 107.5h82q-16 -107 -84 -154.5t-196 -47.5q-144 0 -223 83
t-79 273z" />
    <glyph glyph-name="Nacute.pl" horiz-adv-x="706" 
d="M330 758l64 142h92l-89 -142h-67zM517 0l-358 594v-594h-78v690h109l357 -594v594h78v-690h-108z" />
    <glyph glyph-name="Oacute.pl" horiz-adv-x="747" 
d="M50 346q0 191 81.5 273t242.5 82q160 0 242 -82t82 -273q0 -190 -82 -273.5t-242 -83.5q-161 0 -242.5 83.5t-81.5 273.5zM615 309v78q0 128 -60 188t-181 60t-181.5 -60t-60.5 -188v-78q0 -127 60.5 -190.5t181.5 -63.5t181 63.5t60 190.5zM335 758l64 142h92l-89 -142
h-67z" />
    <glyph glyph-name="Sacute.pl" horiz-adv-x="622" 
d="M42 178h83q9 -72 55 -98t141 -26q90 0 133 31t43 97q0 87 -69.5 107.5t-152 32.5t-152 44.5t-69.5 142.5q0 98 65.5 145t188.5 47q119 0 184.5 -41.5t72.5 -137.5h-83q-5 66 -51 90t-123 24q-85 0 -129.5 -28.5t-44.5 -98.5q0 -82 69.5 -101t152.5 -31t152.5 -46.5
t69.5 -146.5q0 -101 -64 -148t-192 -47q-137 0 -204 42t-76 147zM274 758l64 142h92l-89 -142h-67z" />
    <glyph glyph-name="Zacute.pl" horiz-adv-x="578" 
d="M35 68l418 554h-416v68h505v-68l-419 -554h421v-68h-509v68zM253 758l64 142h92l-89 -142h-67z" />
    <glyph glyph-name="cacute.pl" horiz-adv-x="525" 
d="M44 245q0 134 57 197t172 63q94 0 150 -35.5t67 -111.5h-78q-10 50 -46 70t-93 20q-77 0 -114.5 -40.5t-37.5 -127.5v-67q0 -92 43 -129.5t109 -37.5q63 0 96.5 23.5t43.5 66.5h77q-12 -74 -68 -110.5t-149 -36.5q-105 0 -167 55.5t-62 200.5zM238 569l42 165h87
l-66 -165h-63z" />
    <glyph glyph-name="nacute.pl" horiz-adv-x="581" 
d="M437 0v309q0 82 -35 110.5t-100 28.5q-69 0 -110.5 -32t-41.5 -109v-307h-76v494h73v-81q22 49 69 70.5t105 21.5q93 0 143 -45.5t50 -146.5v-313h-77zM269 569l42 165h87l-66 -165h-63z" />
    <glyph glyph-name="oacute.pl" horiz-adv-x="570" 
d="M44 247q0 140 63.5 199t177.5 59q116 0 178.5 -59t62.5 -199q0 -143 -62.5 -200.5t-178.5 -57.5q-114 0 -177.5 57.5t-63.5 200.5zM449 217v61q0 88 -43 129t-121 41t-121 -41t-43 -129v-62q0 -87 43 -128.5t121 -41.5t121 41.5t43 129.5zM251 569l42 165h87l-66 -165
h-63z" />
    <glyph glyph-name="sacute.pl" horiz-adv-x="508" 
d="M36 149h78q4 -58 41 -81t103 -23q69 0 104 21t35 69q0 56 -54.5 68.5t-119.5 21.5t-119.5 33.5t-54.5 104.5q0 69 53.5 106t149.5 37q90 0 145.5 -35t59.5 -111h-77q-4 53 -39.5 71.5t-88.5 18.5q-61 0 -94.5 -20.5t-33.5 -64.5q0 -54 54.5 -66.5t119 -21t119 -34
t54.5 -106.5q0 -78 -58 -112.5t-154 -34.5q-104 0 -161.5 39t-61.5 120zM221 569l42 165h87l-66 -165h-63z" />
    <glyph glyph-name="zacute.pl" horiz-adv-x="483" 
d="M34 60l321 374h-316v60h401v-59l-321 -375h338v-60h-423v60zM212 569l42 165h87l-66 -165h-63z" />
    <glyph glyph-name="acute.pl" horiz-adv-x="139" 
d="M5 569l42 165h87l-66 -165h-63z" />
    <glyph glyph-name="M.alt" horiz-adv-x="851" 
d="M379 0l-224 618v-618h-74v690h122l221 -613l223 613h123v-690h-81v616l-226 -616h-84z" />
    <glyph glyph-name="afii10030.alt" horiz-adv-x="851" 
d="M379 0l-224 618v-618h-74v690h122l221 -613l223 613h123v-690h-81v616l-226 -616h-84z" />
    <glyph glyph-name="a.alt" horiz-adv-x="599" 
d="M44 243q0 138 60.5 200t168.5 62q62 0 108 -22.5t72 -71.5v83h73v-494h-73v87q-26 -49 -72 -73.5t-108 -24.5q-109 0 -169 59.5t-60 194.5zM449 216v63q0 87 -43.5 128t-120.5 41q-73 0 -118.5 -41t-45.5 -132v-63q0 -84 44.5 -125t119.5 -41t119.5 41.5t44.5 128.5z" />
    <glyph glyph-name="agrave.alt" horiz-adv-x="599" 
d="M44 243q0 138 60.5 200t168.5 62q62 0 108 -22.5t72 -71.5v83h73v-494h-73v87q-26 -49 -72 -73.5t-108 -24.5q-109 0 -169 59.5t-60 194.5zM449 216v63q0 87 -43.5 128t-120.5 41q-73 0 -118.5 -41t-45.5 -132v-63q0 -84 44.5 -125t119.5 -41t119.5 41.5t44.5 128.5z
M113 734h100l112 -165h-74z" />
    <glyph glyph-name="aacute.alt" horiz-adv-x="599" 
d="M44 243q0 138 60.5 200t168.5 62q62 0 108 -22.5t72 -71.5v83h73v-494h-73v87q-26 -49 -72 -73.5t-108 -24.5q-109 0 -169 59.5t-60 194.5zM449 216v63q0 87 -43.5 128t-120.5 41q-73 0 -118.5 -41t-45.5 -132v-63q0 -84 44.5 -125t119.5 -41t119.5 41.5t44.5 128.5z
M252 569l112 165h96l-138 -165h-70z" />
    <glyph glyph-name="acircumflex.alt" horiz-adv-x="599" 
d="M44 243q0 138 60.5 200t168.5 62q62 0 108 -22.5t72 -71.5v83h73v-494h-73v87q-26 -49 -72 -73.5t-108 -24.5q-109 0 -169 59.5t-60 194.5zM449 216v63q0 87 -43.5 128t-120.5 41q-73 0 -118.5 -41t-45.5 -132v-63q0 -84 44.5 -125t119.5 -41t119.5 41.5t44.5 128.5z
M126 569l133 165h69l134 -165h-80l-90 108l-89 -108h-77z" />
    <glyph glyph-name="atilde.alt" horiz-adv-x="599" 
d="M44 243q0 138 60.5 200t168.5 62q62 0 108 -22.5t72 -71.5v83h73v-494h-73v87q-26 -49 -72 -73.5t-108 -24.5q-109 0 -169 59.5t-60 194.5zM449 216v63q0 87 -43.5 128t-120.5 41q-73 0 -118.5 -41t-45.5 -132v-63q0 -84 44.5 -125t119.5 -41t119.5 41.5t44.5 128.5z
M223 729q28 0 47 -15t33 -33t26 -33t27 -15q20 0 28.5 27t8.5 67h55q0 -69 -21 -110.5t-68 -41.5q-28 0 -47 15t-33 33t-26 33t-26 15q-21 0 -29 -27.5t-8 -67.5h-55q0 69 21 111t67 42z" />
    <glyph glyph-name="adieresis.alt" horiz-adv-x="599" 
d="M44 243q0 138 60.5 200t168.5 62q62 0 108 -22.5t72 -71.5v83h73v-494h-73v87q-26 -49 -72 -73.5t-108 -24.5q-109 0 -169 59.5t-60 194.5zM449 216v63q0 87 -43.5 128t-120.5 41q-73 0 -118.5 -41t-45.5 -132v-63q0 -84 44.5 -125t119.5 -41t119.5 41.5t44.5 128.5z
M141 652q0 24 13 36.5t38 12.5t38.5 -12.5t13.5 -36.5q0 -25 -13.5 -37.5t-38.5 -12.5t-38 12.5t-13 37.5zM343 652q0 24 13 36.5t38 12.5t38 -12.5t13 -36.5q0 -25 -13 -37.5t-38 -12.5t-38 12.5t-13 37.5z" />
    <glyph glyph-name="aring.alt" horiz-adv-x="599" 
d="M44 243q0 138 60.5 200t168.5 62q62 0 108 -22.5t72 -71.5v83h73v-494h-73v87q-26 -49 -72 -73.5t-108 -24.5q-109 0 -169 59.5t-60 194.5zM449 216v63q0 87 -43.5 128t-120.5 41q-73 0 -118.5 -41t-45.5 -132v-63q0 -84 44.5 -125t119.5 -41t119.5 41.5t44.5 128.5z
M174 651q0 43 28.5 67t84.5 24q57 0 86 -24t29 -67q0 -44 -29 -67.5t-86 -23.5q-56 0 -84.5 23.5t-28.5 67.5zM347 651q0 22 -13.5 34.5t-45.5 12.5q-33 0 -46 -12.5t-13 -34.5t13 -34.5t46 -12.5q32 0 45.5 12.5t13.5 34.5z" />
    <glyph glyph-name="amacron.alt" horiz-adv-x="599" 
d="M44 243q0 138 60.5 200t168.5 62q62 0 108 -22.5t72 -71.5v83h73v-494h-73v87q-26 -49 -72 -73.5t-108 -24.5q-109 0 -169 59.5t-60 194.5zM449 216v63q0 87 -43.5 128t-120.5 41q-73 0 -118.5 -41t-45.5 -132v-63q0 -84 44.5 -125t119.5 -41t119.5 41.5t44.5 128.5z
M150 624v55h290v-55h-290z" />
    <glyph glyph-name="abreve.alt" horiz-adv-x="599" 
d="M44 243q0 138 60.5 200t168.5 62q62 0 108 -22.5t72 -71.5v83h73v-494h-73v87q-26 -49 -72 -73.5t-108 -24.5q-109 0 -169 59.5t-60 194.5zM449 216v63q0 87 -43.5 128t-120.5 41q-73 0 -118.5 -41t-45.5 -132v-63q0 -84 44.5 -125t119.5 -41t119.5 41.5t44.5 128.5z
M135 728h66q0 -51 20 -76.5t65 -25.5q44 0 65 25.5t21 76.5h66q0 -78 -38.5 -119t-113.5 -41q-74 0 -112.5 41t-38.5 119z" />
    <glyph glyph-name="aogonek.alt" horiz-adv-x="599" 
d="M44 243q0 138 60.5 200t168.5 62q62 0 108 -22.5t72 -71.5v83h73v-494h-15q-42 -10 -59.5 -30.5t-17.5 -48.5t24 -42t78 -14v-54h-30q-63 0 -100.5 24t-37.5 72q0 40 23 66t62 37v77q-26 -49 -72 -73.5t-108 -24.5q-109 0 -169 59.5t-60 194.5zM449 216v63
q0 87 -43.5 128t-120.5 41q-73 0 -118.5 -41t-45.5 -132v-63q0 -84 44.5 -125t119.5 -41t119.5 41.5t44.5 128.5z" />
    <glyph glyph-name="aringacute.alt" horiz-adv-x="599" 
d="M44 243q0 138 60.5 200t168.5 62q62 0 108 -22.5t72 -71.5v83h73v-494h-73v87q-26 -49 -72 -73.5t-108 -24.5q-109 0 -169 59.5t-60 194.5zM449 216v63q0 87 -43.5 128t-120.5 41q-73 0 -118.5 -41t-45.5 -132v-63q0 -84 44.5 -125t119.5 -41t119.5 41.5t44.5 128.5z
M252 781l115 142h102l-142 -142h-75zM179 644q0 43 28.5 67t84.5 24q57 0 86 -24t29 -67q0 -44 -29 -67.5t-86 -23.5q-56 0 -84.5 23.5t-28.5 67.5zM352 644q0 22 -13.5 34.5t-45.5 12.5q-33 0 -46 -12.5t-13 -34.5t13 -34.5t46 -12.5q32 0 45.5 12.5t13.5 34.5z" />
    <glyph glyph-name="afii10065.alt" horiz-adv-x="599" 
d="M44 243q0 138 60.5 200t168.5 62q62 0 108 -22.5t72 -71.5v83h73v-494h-73v87q-26 -49 -72 -73.5t-108 -24.5q-109 0 -169 59.5t-60 194.5zM449 216v63q0 87 -43.5 128t-120.5 41q-73 0 -118.5 -41t-45.5 -132v-63q0 -84 44.5 -125t119.5 -41t119.5 41.5t44.5 128.5z" />
    <glyph glyph-name="uni04D1.alt" horiz-adv-x="599" 
d="M44 243q0 138 60.5 200t168.5 62q62 0 108 -22.5t72 -71.5v83h73v-494h-73v87q-26 -49 -72 -73.5t-108 -24.5q-109 0 -169 59.5t-60 194.5zM449 216v63q0 87 -43.5 128t-120.5 41q-73 0 -118.5 -41t-45.5 -132v-63q0 -84 44.5 -125t119.5 -41t119.5 41.5t44.5 128.5z
M134 730h69q0 -54 19.5 -81t62.5 -27q42 0 62.5 27t20.5 81h69q0 -78 -38.5 -119t-113.5 -41q-74 0 -112.5 41t-38.5 119z" />
    <glyph glyph-name="afii10078.alt" horiz-adv-x="727" 
d="M321 0l-178 425v-425h-69v494h110l179 -425l179 425h111v-494h-76v425l-178 -425h-78z" />
    <glyph glyph-name="caron.alt" horiz-adv-x="469" 
d="M148 575l11 156h76l-31 -156h-56z" />
    <glyph glyph-name="three.alt" horiz-adv-x="600" 
d="M34 188h84q7 -66 52 -99.5t134 -33.5q84 0 127.5 33.5t43.5 93.5v43q0 65 -47 95.5t-130 30.5h-73v51l207 220h-362v68h461v-52l-217 -228q129 -4 184.5 -56.5t55.5 -148.5q0 -114 -64.5 -165t-185.5 -51q-124 0 -192 47.5t-78 151.5z" />
    <glyph glyph-name="four.alt" horiz-adv-x="624" 
d="M21 240l314 450h84l-303 -436h291v218h81v-218h112v-65h-112v-189h-81v189h-386v51z" />
    <glyph glyph-name="commaaccent.alt" horiz-adv-x="468" 
d="M240 728q-25 0 -35.5 -14t-10.5 -42v-1h4q24 0 37.5 -11.5t13.5 -35.5t-14 -35.5t-39 -11.5q-26 0 -40.5 12t-14.5 39v36q0 57 23.5 83t75.5 26v-45z" />
    <glyph glyph-name="space.old" horiz-adv-x="227" 
 />
    <glyph glyph-name="zero.old" horiz-adv-x="645" 
d="M48 248q0 128 68 192.5t207 64.5q138 0 206.5 -64.5t68.5 -192.5q0 -125 -68.5 -192t-206.5 -67q-139 0 -207 67t-68 192zM521 226v49q0 82 -49 126t-149 44q-101 0 -150 -44t-49 -127v-48q0 -82 49 -129t150 -47q100 0 149 47t49 129z" />
    <glyph glyph-name="one.old" horiz-adv-x="319" 
d="M30 402l138 92h76v-494h-76v420l-138 -95v77z" />
    <glyph glyph-name="two.old" horiz-adv-x="551" 
d="M46 38q0 106 59.5 146.5t131 58t131 33.5t59.5 73v16q0 45 -37.5 64t-103.5 19q-75 0 -114 -27t-43 -96h-77q6 97 67 138.5t167 41.5q100 0 159 -33t59 -112q0 -83 -58.5 -109.5t-129 -41.5t-131 -41t-65.5 -108h376v-60h-450v38z" />
    <glyph glyph-name="three.old" horiz-adv-x="579" 
d="M31 -12h76q6 -64 50 -100.5t133 -36.5q85 0 126.5 34t41.5 94v36q0 62 -45.5 91.5t-116.5 29.5h-77v60h77q60 0 99.5 26.5t39.5 79.5v35q0 57 -37.5 82t-106.5 25q-74 0 -113.5 -27t-49.5 -93h-76q9 93 71 137t167 44q103 0 162.5 -42t59.5 -135q0 -64 -32.5 -104
t-92.5 -53q68 -13 108 -56t40 -116q0 -110 -64 -160t-181 -50q-123 0 -187.5 50t-71.5 149z" />
    <glyph glyph-name="four.old" horiz-adv-x="610" 
d="M20 51l327 443h114v-434h128v-60h-128v-200h-76v200h-365v51zM105 60h280v383z" />
    <glyph glyph-name="five.old" horiz-adv-x="574" 
d="M35 -34h78q9 -57 53.5 -86.5t119.5 -29.5q84 0 129.5 38.5t45.5 118.5v40q0 73 -44.5 109t-126.5 36q-46 0 -89.5 -18.5t-73.5 -56.5l-73 17l38 360h1v0h408v-60h-349l-27 -251q25 27 70 47.5t110 20.5q113 0 173 -55.5t60 -167.5q0 -119 -63.5 -179t-187.5 -60
q-115 0 -179.5 45.5t-72.5 131.5z" />
    <glyph glyph-name="six.old" horiz-adv-x="624" 
d="M53 275q0 127 19.5 210t54.5 131t86.5 66.5t114.5 18.5q116 0 171.5 -45t63.5 -114h-77q-7 47 -46 72t-113 25q-46 0 -81 -12.5t-59.5 -45t-38.5 -88t-17 -140.5q29 45 82.5 67.5t125.5 22.5q112 0 177.5 -51t65.5 -172q0 -117 -67.5 -174t-191.5 -57q-140 0 -205.5 66
t-64.5 220zM506 197v44q0 75 -45.5 110.5t-136.5 35.5q-95 0 -143.5 -38t-48.5 -119q0 -90 45 -135t146 -45q93 0 138 37.5t45 109.5z" />
    <glyph glyph-name="seven.old" horiz-adv-x="498" 
d="M14 433v61h471v-51l-314 -643h-76l310 633h-391z" />
    <glyph glyph-name="eight.old" horiz-adv-x="631" 
d="M47 192q0 73 38.5 117t110.5 59q-66 14 -94.5 54.5t-28.5 100.5q0 95 68 136.5t175 41.5t174.5 -41.5t67.5 -136.5q0 -60 -28.5 -100.5t-91.5 -54.5q71 -15 109 -59t38 -117q0 -106 -70 -154.5t-199 -48.5q-131 0 -200 48.5t-69 154.5zM482 502v26q0 57 -41 85.5
t-125 28.5q-83 0 -125 -28.5t-42 -85.5v-26q0 -54 42 -83t125 -28q84 1 125 29t41 82zM508 176v31q0 66 -51 97.5t-141 31.5t-141.5 -31t-51.5 -96v-33q0 -67 51.5 -97.5t141.5 -30.5t141 30.5t51 97.5z" />
    <glyph glyph-name="nine.old" horiz-adv-x="625" 
d="M65 -49h77q8 -49 47 -75t113 -26q46 0 81.5 12.5t60 45t38.5 88.5t17 141q-30 -43 -82.5 -64t-124.5 -21q-112 0 -178 51t-66 171q0 117 67.5 174t192.5 57q139 0 204.5 -67t64.5 -221q0 -128 -19 -211t-54.5 -131t-86.5 -67t-115 -19q-117 0 -173 46t-64 116zM498 265
q0 90 -44.5 135t-145.5 45q-93 0 -138.5 -38.5t-45.5 -109.5v-44q0 -73 45.5 -109.5t137.5 -36.5q94 0 142.5 38t48.5 120z" />
    <glyph glyph-name="parenleft.old" horiz-adv-x="331" 
d="M47 265q0 123 19.5 211t54.5 144.5t84.5 86.5t108.5 38v-65q-82 -15 -134 -105.5t-52 -241.5v-133q0 -154 52 -244.5t134 -105.5v-65q-60 8 -109.5 38t-84.5 87t-54 145t-19 210z" />
    <glyph glyph-name="parenright.old" horiz-adv-x="331" 
d="M284 265q0 -123 -19.5 -211t-54.5 -144.5t-84.5 -86.5t-108.5 -38v65q82 15 134 105.5t52 241.5v133q0 154 -52 244.5t-134 105.5v65q60 -8 109.5 -38t84.5 -87t54 -145t19 -210z" />
    <glyph glyph-name="bracketleft.old" horiz-adv-x="351" 
d="M80 740h253v-64h-179v-822h179v-64h-253v950z" />
    <glyph glyph-name="bracketright.old" horiz-adv-x="351" 
d="M271 -210h-253v64h179v822h-179v64h253v-950z" />
    <glyph glyph-name="braceleft.old" horiz-adv-x="363" 
d="M106 -93v202q0 55 -17 86.5t-69 32.5v74q52 1 69 34.5t17 84.5v202q0 62 26.5 89.5t92.5 27.5h121v-64h-103q-34 0 -48.5 -13.5t-14.5 -50.5v-197q0 -54 -16.5 -96.5t-82.5 -54.5q66 -8 82.5 -49t16.5 -98v-196q0 -38 14.5 -52.5t48.5 -14.5h103v-64h-121
q-66 0 -92.5 27.5t-26.5 89.5z" />
    <glyph glyph-name="braceright.old" horiz-adv-x="363" 
d="M257 623v-202q0 -55 17 -86.5t69 -32.5v-74q-52 -1 -69 -34.5t-17 -84.5v-202q0 -62 -26.5 -89.5t-92.5 -27.5h-121v64h103q34 0 48.5 13.5t14.5 50.5v197q0 54 16.5 96.5t82.5 54.5q-66 8 -82.5 49t-16.5 98v196q0 38 -14.5 52.5t-48.5 14.5h-103v64h121
q66 0 92.5 -27.5t26.5 -89.5z" />
    <glyph glyph-name="numbersign.old" horiz-adv-x="696" 
d="M32 111l14 58h110l37 157h-130l14 59h130l27 111h67l-27 -111h203l27 111h67l-27 -111h118l-14 -59h-118l-37 -157h138l-14 -58h-138l-27 -111h-67l27 111h-204l-27 -111h-66l27 111h-110zM222 169h204l37 157h-203z" />
    <glyph glyph-name="percent.old" horiz-adv-x="831" 
d="M32 360q0 76 43 110.5t121 34.5t120.5 -34.5t42.5 -110.5q0 -77 -42.5 -110.5t-120.5 -33.5t-121 33.5t-43 110.5zM625 494h82l-496 -494h-82zM294 349v21q0 47 -26 64.5t-72 17.5q-47 0 -73.5 -17.5t-26.5 -64.5v-20q0 -47 27 -64.5t73 -17.5q45 0 71.5 17t26.5 64z
M472 134q0 75 42.5 110t120.5 35t121 -35t43 -110q0 -78 -43 -111.5t-121 -33.5t-120.5 33.5t-42.5 111.5zM734 123v20q0 47 -26 65t-73 18t-73 -18t-26 -65v-20q0 -46 27 -63.5t72 -17.5t72 17t27 64z" />
    <glyph glyph-name="perthousand.old" horiz-adv-x="1202" 
d="M32 360q0 76 43 110.5t121 34.5t120.5 -34.5t42.5 -110.5q0 -77 -42.5 -110.5t-120.5 -33.5t-121 33.5t-43 110.5zM631 494h82l-505 -494h-82zM294 349v21q0 47 -26 64.5t-72 17.5q-47 0 -73.5 -17.5t-26.5 -64.5v-20q0 -47 27 -64.5t73 -17.5q45 0 71.5 17t26.5 64z
M474 134q0 75 42.5 110t120.5 35t120.5 -35t42.5 -110q0 -78 -42.5 -111.5t-120.5 -33.5t-120.5 33.5t-42.5 111.5zM844 134q0 75 42.5 110t120.5 35t121 -35t43 -110q0 -78 -43 -111.5t-121 -33.5t-120.5 33.5t-42.5 111.5zM736 123v20q0 47 -26 65t-73 18t-73 -18t-26 -65
v-20q0 -46 27 -63.5t72 -17.5t72 17t27 64zM1107 123v20q0 47 -26.5 65t-73.5 18t-73 -18t-26 -65v-20q0 -47 27 -64.5t72 -17.5q46 0 73 17t27 65z" />
    <glyph glyph-name="period.old" horiz-adv-x="206" 
d="M50 40q0 25 13.5 37.5t39.5 12.5t40 -12.5t14 -37.5t-14 -38t-40 -13t-39.5 13t-13.5 38z" />
    <glyph glyph-name="comma.old" horiz-adv-x="206" 
d="M57 -88q25 0 35 15t10 45v17h-3q-25 0 -38 13t-13 38t14 37.5t39 12.5t39.5 -12t14.5 -39v-61q0 -59 -23.5 -86t-74.5 -27v47z" />
    <glyph glyph-name="colon.old" horiz-adv-x="231" 
d="M62 40q0 25 13.5 37.5t39.5 12.5t40 -12.5t14 -37.5t-14 -38t-40 -13t-39.5 13t-13.5 38zM62 405q0 25 13.5 37.5t39.5 12.5t40 -12.5t14 -37.5t-14 -38t-40 -13t-39.5 13t-13.5 38z" />
    <glyph glyph-name="semicolon.old" horiz-adv-x="234" 
d="M64 405q0 25 13.5 37.5t39.5 12.5t40 -12.5t14 -37.5t-14 -38t-40 -13t-39.5 13t-13.5 38zM72 -88q25 0 35 15t10 45v17h-3q-25 0 -38 13t-13 38t14 37.5t39 12.5t39.5 -12t14.5 -39v-61q0 -59 -23.5 -86t-74.5 -27v47z" />
    <glyph glyph-name="plus.old" horiz-adv-x="541" 
d="M236 32v182h-195v67h195v181h71v-181h194v-67h-194v-182h-71z" />
    <glyph glyph-name="minus.old" horiz-adv-x="552" 
d="M46 281h460v-67h-460v67z" />
    <glyph glyph-name="plusminus.old" horiz-adv-x="574" 
d="M252 133v134h-195v61h195v134h71v-134h194v-61h-194v-134h-71zM57 93h460v-61h-460v61z" />
    <glyph glyph-name="divide.old" horiz-adv-x="569" 
d="M231 427q0 24 14 36t39 12q26 0 40 -12t14 -36t-14 -36t-40 -12q-25 0 -39 12t-14 36zM54 278h460v-61h-460v61zM231 69q0 24 14 35.5t39 11.5q26 0 40 -11.5t14 -35.5q0 -25 -14 -37t-40 -12q-25 0 -39 12t-14 37z" />
    <glyph glyph-name="multiply.old" horiz-adv-x="540" 
d="M39 74l183 174l-184 175l46 48l186 -177l185 176l46 -47l-183 -174l183 -175l-46 -48l-185 177l-186 -177z" />
    <glyph glyph-name="equal.old" horiz-adv-x="585" 
d="M63 378h460v-66h-460v66zM63 182h460v-66h-460v66z" />
    <glyph glyph-name="less.old" horiz-adv-x="536" 
d="M39 207v77l443 190v-71l-369 -157l369 -156v-73z" />
    <glyph glyph-name="greater.old" horiz-adv-x="537" 
d="M54 88l370 156l-370 157v73l444 -191v-77l-444 -189v71z" />
    <glyph glyph-name="lessequal.old" horiz-adv-x="574" 
d="M55 262v77l459 135v-67l-372 -105l372 -106v-68zM55 92h459v-60h-459v60z" />
    <glyph glyph-name="greaterequal.old" horiz-adv-x="574" 
d="M60 195l375 105l-375 106v68l459 -135v-77l-459 -134v67zM60 92h459v-60h-459v60z" />
    <glyph glyph-name="approxequal.old" horiz-adv-x="607" 
d="M192 404q35 0 64.5 -10.5t55 -22.5t50 -22.5t48.5 -10.5q35 0 52 15.5t17 46.5h67q0 -60 -32.5 -93t-97.5 -33q-31 0 -59 10t-53.5 22.5t-51 22.5t-50.5 10q-39 0 -56.5 -15t-17.5 -46h-67q0 60 32.5 93t98.5 33zM192 221q35 0 64.5 -10t55 -22.5t50 -22.5t48.5 -10
q36 0 53 15.5t17 46.5h66q0 -60 -32.5 -93t-97.5 -33q-31 0 -59 10t-53.5 22t-51 22t-50.5 10q-39 0 -56.5 -14.5t-17.5 -45.5h-67q0 60 32.5 92.5t98.5 32.5z" />
    <glyph glyph-name="notequal.old" horiz-adv-x="568" 
d="M54 185h153l84 126h-237v63h279l61 92h74l-61 -92h107v-63h-149l-83 -126h232v-64h-275l-61 -92h-75l61 92h-110v64z" />
    <glyph glyph-name="dollar.old" horiz-adv-x="597" 
d="M39 159h79q10 -67 54 -91t137 -24q85 0 128.5 22t43.5 72q0 59 -67.5 71.5t-147.5 19.5t-147.5 30t-67.5 102q0 70 56 104.5t160 38.5v107h71v-107q96 -6 148.5 -42.5t58.5 -113.5h-79q-5 59 -49.5 80t-120.5 21q-83 0 -126 -18.5t-43 -66.5q0 -53 67.5 -63t148 -17.5
t148 -33t67.5 -107.5q0 -76 -57 -113t-163 -41v-107h-71v107q-110 5 -164 44t-64 126z" />
    <glyph glyph-name="cent.old" horiz-adv-x="529" 
d="M44 245q0 94 48 149t147 63v87h72v-88q77 -6 122.5 -42t55.5 -104h-77q-10 51 -46 70.5t-93 19.5q-77 0 -114.5 -33t-37.5 -95v-51q0 -66 43 -96.5t109 -30.5q63 0 96.5 23t43.5 67h77q-10 -66 -56.5 -102t-122.5 -43v-88h-72v87q-90 7 -142.5 56.5t-52.5 150.5z" />
    <glyph glyph-name="sterling.old" horiz-adv-x="585" 
d="M38 56q29 0 56.5 6.5t49 17.5t34.5 26t13 32v11q0 14 -5 26.5t-13 23.5h-119v52h71q-20 22 -36.5 48t-16.5 61q0 72 62.5 108.5t169.5 36.5t167.5 -39t66.5 -126h-73q-5 60 -46.5 82.5t-113.5 22.5q-73 0 -116.5 -19.5t-43.5 -62.5v-14q0 -30 20.5 -52t42.5 -46h226v-52
h-188q6 -11 9 -24.5t3 -28.5q0 -28 -18 -51.5t-51 -37.5h355v-57h-506v56z" />
    <glyph glyph-name="yen.old" horiz-adv-x="620" 
d="M85 73v52h188v51h-188v52h173l-236 266h86l207 -236l205 236h78l-233 -266h173v-52h-190v-51h190v-52h-190v-73h-75v73h-188z" />
    <glyph glyph-name="Euro.old" horiz-adv-x="728" 
d="M44 223h87q-1 6 -1 12v12v14t1 14h-87v48h93q19 96 92 139t190 43q124 0 188 -48t77 -143h-76q-11 72 -56.5 104t-132.5 32q-86 0 -141 -29t-68 -98h270v-48h-274v-52h274v-48h-270q13 -69 68 -99.5t142 -30.5q84 0 130 32.5t59 95.5h76q-14 -81 -79 -132.5t-187 -51.5
q-119 0 -191.5 43.5t-91.5 142.5h-92v48z" />
    <glyph glyph-name="florin.old" horiz-adv-x="625" 
d="M-7 -139h65q52 0 79 25t46 88l108 359h-139v60h157l53 176q24 78 59.5 119.5t99.5 41.5h109v-61h-101q-37 0 -58 -23t-37 -74l-53 -179h162v-60h-180l-109 -365q-12 -42 -26.5 -73.5t-36.5 -52.5t-54.5 -31.5t-80.5 -10.5h-63v61z" />
    <glyph glyph-name="uni20B4.old" horiz-adv-x="657" 
d="M45 275v47h399q23 10 38 24t15 33v13q0 28 -39.5 44t-128.5 16q-78 0 -123 -18t-48 -53h-76q4 60 70 92t177 32q126 0 184.5 -30.5t58.5 -84.5q0 -22 -11.5 -38.5t-29.5 -29.5h80v-47h-566zM74 104q0 25 13.5 42t32.5 29h-75v48h566v-48h-405q-26 -9 -41 -24t-15 -33v-16
q0 -28 43 -44t136 -16q84 0 132 21t51 56h74q-2 -62 -71.5 -96t-185.5 -34q-130 0 -192.5 31t-62.5 84z" />
    <glyph glyph-name="uni20B8.old" horiz-adv-x="619" 
d="M32 494h554v-52h-554v52zM272 336h-240v55h554v-55h-240v-336h-74v336z" />
    <glyph glyph-name="uni20BD.old" horiz-adv-x="674" 
d="M44 87v52h93v52h-93v54h93v249h309q96 0 142 -41t46 -113q0 -70 -46 -109.5t-142 -39.5h-234v-52h291v-52h-291v-87h-75v87h-93zM559 327v24q0 40 -30 64t-97 24h-220v-194h220q68 0 97.5 22.5t29.5 59.5z" />
    <glyph glyph-name="space.tab" 
 />
    <glyph glyph-name="zero.tab" 
d="M85 346q0 180 79.5 267.5t230.5 87.5q152 0 231 -87.5t79 -267.5q0 -177 -79 -267t-231 -90q-151 0 -230.5 90t-79.5 267zM622 309v79q0 122 -56 184.5t-171 62.5q-116 0 -171.5 -62.5t-55.5 -184.5v-79q0 -120 55.5 -187t171.5 -67t171.5 67.5t55.5 186.5z" />
    <glyph glyph-name="one.tab" 
d="M147 0v68h238v547l-236 -118v76l236 117h82v-622h213v-68h-533z" />
    <glyph glyph-name="two.tab" 
d="M116 32q0 139 73.5 197.5t161 89t161 60.5t73.5 114v33q0 57 -49.5 83t-136.5 26q-94 0 -139.5 -30.5t-55.5 -107.5h-83q11 109 82 156.5t196 47.5q122 0 195 -43.5t73 -147.5q0 -112 -71.5 -156t-157 -72.5t-159.5 -69t-78 -145.5h471v-67h-556v32z" />
    <glyph glyph-name="three.tab" 
d="M97 188h84q7 -63 58.5 -98t157.5 -35q101 0 151.5 33.5t50.5 90.5v31q0 61 -55.5 90.5t-141.5 29.5h-94v64h94q74 0 123 26.5t49 80.5v29q0 57 -46 81t-131 24q-87 0 -134.5 -26t-60.5 -90h-83q11 95 83.5 138.5t194.5 43.5q119 0 189 -42t70 -135q0 -65 -36 -105
t-100 -53q74 -13 117.5 -55t43.5 -114q0 -109 -73.5 -158.5t-210.5 -49.5q-142 0 -216.5 49.5t-83.5 149.5z" />
    <glyph glyph-name="four.tab" 
d="M82 240l367 450h122v-436h132v-65h-132v-189h-81v189h-408v51zM179 254h311v383z" />
    <glyph glyph-name="five.tab" 
d="M107 166h84q11 -55 63.5 -83t142.5 -28q94 0 148 38t54 116v34q0 72 -52.5 107.5t-145.5 35.5q-54 0 -104.5 -17.5t-85.5 -53.5l-79 13l38 362h1v0h473v-67h-410l-26 -243q31 28 82.5 47.5t125.5 19.5q127 0 196 -55t69 -166q0 -118 -73 -177.5t-211 -59.5
q-131 0 -205.5 45.5t-84.5 131.5z" />
    <glyph glyph-name="six.tab" 
d="M104 328q0 107 23 179.5t63.5 115t98 60.5t127.5 18q127 0 188.5 -45t70.5 -114h-82q-9 46 -52.5 69.5t-125.5 23.5q-104 0 -166.5 -58.5t-62.5 -208.5v-14q31 45 89 67t146 22q125 0 199.5 -51t74.5 -171q0 -118 -75.5 -175t-213.5 -57q-78 0 -135.5 17t-94.5 56
t-54.5 104.5t-17.5 161.5zM613 200v38q0 75 -51 109.5t-155 34.5q-112 0 -164.5 -37t-52.5 -114q0 -83 51.5 -130t164.5 -47q105 0 156 37.5t51 108.5z" />
    <glyph glyph-name="seven.tab" 
d="M116 622v68h560v-52l-374 -638h-84l366 622h-468z" />
    <glyph glyph-name="eight.tab" 
d="M97 192q0 72 40 116.5t119 59.5q-72 15 -102.5 55t-30.5 98q0 96 73.5 138t198.5 42t198.5 -42t73.5 -138q0 -58 -31 -98t-104 -55q80 -15 120.5 -59.5t40.5 -116.5q0 -106 -75 -154.5t-223 -48.5q-149 0 -223.5 48.5t-74.5 154.5zM585 502v26q0 56 -45 82.5t-145 26.5
q-99 0 -144.5 -26.5t-45.5 -82.5v-26q0 -53 45.5 -80.5t144.5 -26.5q100 0 145 27t45 80zM611 176v31q0 66 -55.5 96.5t-160.5 30.5q-104 0 -160 -30.5t-56 -94.5v-33q0 -65 56 -94t160 -29t160 29t56 94z" />
    </font>
</defs>
</svg>
