<?xml version="1.0" encoding="utf-8"?>
<!-- Generator: Adobe Illustrator 23.0.2, SVG Export Plug-In . SVG Version: 6.00 Build 0)  -->
<svg version="1.1" id="line" xmlns="http://www.w3.org/2000/svg" xmlns:xlink="http://www.w3.org/1999/xlink" x="0px" y="0px"
	 viewBox="0 0 62 62" style="enable-background:new 0 0 62 62;" xml:space="preserve">
<style type="text/css">
	.st0{fill:#C4A2FC;}
	.st1{fill:#151A6A;}
</style>
<g>
	<path class="st0" d="M27.1,34.9h7.8v5.8h-7.8V34.9z"/>
	<path class="st0" d="M27.1,42.6h7.8v5.8h-7.8V42.6z"/>
	<path class="st0" d="M27.1,50.4h7.8v5.8h-7.8V50.4z"/>
	<path class="st0" d="M36.8,42.6h7.7v5.8h-7.7V42.6z"/>
	<path class="st0" d="M36.8,50.4h7.7v5.8h-7.7V50.4z"/>
	<path class="st0" d="M20.4,58.1c0,1.6,1.3,2.9,2.9,2.9h34.8c1.6,0,2.9-1.3,2.9-2.9V30H20.4V58.1z M25.2,33.9c0-0.5,0.4-1,1-1h29
		c0.5,0,1,0.4,1,1v23.2c0,0.5-0.4,1-1,1h-29c-0.5,0-1-0.4-1-1V33.9z"/>
	<path class="st0" d="M46.5,34.9h7.7v5.8h-7.7V34.9z"/>
	<path class="st0" d="M46.5,42.6h7.7v5.8h-7.7V42.6z"/>
	<path class="st0" d="M36.8,34.9h7.7v5.8h-7.7V34.9z"/>
	<path class="st0" d="M46.5,50.4h7.7v5.8h-7.7V50.4z"/>
	<path class="st0" d="M58.1,22.3h-3.9v1.9c0,0.5-0.4,1-1,1s-1-0.4-1-1v-3.9c0-0.5-0.4-1-1-1c-0.5,0-1,0.4-1,1v1.9H31v1.9
		c0,0.5-0.4,1-1,1c-0.5,0-1-0.4-1-1v-3.9c0-0.5-0.4-1-1-1c-0.5,0-1,0.4-1,1v1.9h-3.9c-1.6,0-2.9,1.3-2.9,2.9v2.9H61v-2.9
		C61,23.6,59.7,22.3,58.1,22.3z"/>
</g>
<path class="st1" d="M21.3,1C10.1,1,1,10.1,1,21.3s9.1,20.3,20.3,20.3s20.3-9.1,20.3-20.3C41.6,10.1,32.5,1,21.3,1z M22.3,39.7v-2.9
	c0-0.5-0.4-1-1-1c-0.5,0-1,0.4-1,1v2.9C11,39.2,3.5,31.7,3,22.3h2.9c0.5,0,1-0.4,1-1c0-0.5-0.4-1-1-1H3C3.5,11,11,3.5,20.4,3v2.9
	c0,0.5,0.4,1,1,1c0.5,0,1-0.4,1-1V3c9.4,0.5,16.9,8,17.4,17.4h-2.9c-0.5,0-1,0.4-1,1c0,0.5,0.4,1,1,1h2.9
	C39.2,31.7,31.7,39.2,22.3,39.7L22.3,39.7z"/>
<path class="st1" d="M30.6,16.6l-8.9,3.6L15.4,9.2c-0.2-0.5-0.8-0.7-1.3-0.4c-0.5,0.2-0.7,0.8-0.4,1.3c0,0,0,0.1,0.1,0.1l6.8,11.6
	c0.2,0.4,0.8,0.6,1.2,0.4l9.7-3.9c0.5-0.2,0.7-0.8,0.5-1.3C31.7,16.6,31.1,16.3,30.6,16.6L30.6,16.6L30.6,16.6z"/>
</svg>
