<?xml version="1.0" encoding="utf-8"?>
<!-- Generator: Adobe Illustrator 23.0.2, SVG Export Plug-In . SVG Version: 6.00 Build 0)  -->
<svg version="1.1" id="Line" xmlns="http://www.w3.org/2000/svg" xmlns:xlink="http://www.w3.org/1999/xlink" x="0px" y="0px"
	 viewBox="0 0 62 62" style="enable-background:new 0 0 62 62;" xml:space="preserve">
<style type="text/css">
	.st0{fill:#C4A2FC;}
	.st1{fill:#151A6A;}
</style>
<path class="st0" d="M58.5,23.5H21.2c-1.6,0-3,1.3-3,3l0,0V53c0,1.6,1.3,3,3,3h18.4l7.1,4.7c0.9,0.6,2.1,0.4,2.7-0.5
	c0.2-0.3,0.3-0.7,0.3-1.1V56h8.9c1.6,0,3-1.3,3-3V26.5C61.5,24.8,60.2,23.5,58.5,23.5L58.5,23.5z M51.7,47.1H28c-0.5,0-1-0.4-1-1
	c0-0.5,0.4-1,1-1h23.6c0.5,0,1,0.4,1,1C52.6,46.7,52.2,47.1,51.7,47.1z M51.7,40.7H28c-0.5,0-1-0.4-1-1s0.4-1,1-1h23.6
	c0.5,0,1,0.4,1,1S52.2,40.7,51.7,40.7z M51.7,34.3H28c-0.5,0-1-0.4-1-1c0-0.5,0.4-1,1-1h23.6c0.5,0,1,0.4,1,1
	C52.6,33.9,52.2,34.3,51.7,34.3z"/>
<g>
	<path class="st1" d="M43.8,29.5V4c0-1.6-1.3-3-3-3H3.5c-1.6,0-3,1.3-3,3v25.6c0,1.6,1.3,3,3,3h8.9v3.1c0,1.1,0.9,2,2,2
		c0.4,0,0.8-0.1,1.1-0.3l7.1-4.7h18.4C42.5,32.5,43.8,31.2,43.8,29.5z M22.1,30.5c-0.2,0-0.4,0.1-0.5,0.2l-7.3,4.9v-4.1
		c0-0.5-0.4-1-1-1H3.5c-0.5,0-1-0.4-1-1V4c0-0.5,0.4-1,1-1h37.4c0.5,0,1,0.4,1,1v25.6c0,0.5-0.4,1-1,1H22.1z"/>
	<path class="st1" d="M34,9.9H10.3c-0.5,0-1,0.4-1,1s0.4,1,1,1H34c0.5,0,1-0.4,1-1S34.5,9.9,34,9.9z"/>
	<path class="st1" d="M34,15.8H10.3c-0.5,0-1,0.4-1,1c0,0.5,0.4,1,1,1H34c0.5,0,1-0.4,1-1C34.9,16.2,34.5,15.8,34,15.8z"/>
	<path class="st1" d="M25.1,21.7H10.3c-0.5,0-1,0.4-1,1c0,0.5,0.4,1,1,1h14.8c0.5,0,1-0.4,1-1C26.1,22.1,25.6,21.7,25.1,21.7z"/>
</g>
</svg>
