<?xml version="1.0" encoding="utf-8"?>
<!-- Generator: Adobe Illustrator 23.0.2, SVG Export Plug-In . SVG Version: 6.00 Build 0)  -->
<svg version="1.1" id="line" xmlns="http://www.w3.org/2000/svg" xmlns:xlink="http://www.w3.org/1999/xlink" x="0px" y="0px"
	 viewBox="0 0 64 62" style="enable-background:new 0 0 64 62;" xml:space="preserve">
<style type="text/css">
	.st0{fill:#C4A2FC;}
	.st1{fill:#151A6A;}
</style>
<g>
	<path class="st0" d="M45,41.1c-4.6-1.3-9.5-1.1-14,0.5v19l14-7V41.1z"/>
	<path class="st0" d="M29,42.3c-2.3,0.9-4.4,2.1-6.4,3.5c-0.4,0.3-1.1,0.2-1.4-0.2c-0.3-0.4-0.2-1,0.2-1.4c2.4-1.7,4.9-3,7.6-4V26.4
		l-14.6-7.3c-0.5-0.2-1.1,0-1.3,0.4C13,19.7,13,19.8,13,20v32c0,0.4,0.2,0.7,0.6,0.9L29,60.6V42.3z"/>
	<path class="st0" d="M45,39V19.4l-11.8,5.9C31.9,26,31,27.3,31,28.9v10.7C35.5,38.1,40.4,37.9,45,39z"/>
	<path class="st0" d="M62.4,27.1L47,19.4v20.3c2.8,1.1,5.4,2.6,7.7,4.6c0.4,0.4,0.5,1,0.1,1.4s-1,0.5-1.4,0.1c-1.9-1.7-4-3-6.3-4
		v11.8l14.6,7.3c0.5,0.2,1.1,0,1.3-0.4C63,60.3,63,60.2,63,60V28C63,27.6,62.8,27.3,62.4,27.1L62.4,27.1z M56,35.8V39
		c0,0.6-0.4,1-1,1c-0.6,0-1-0.4-1-1v-3.2c-1.6-0.6-2.4-2.3-1.8-3.8c0.6-1.6,2.3-2.4,3.8-1.8c1.6,0.6,2.4,2.3,1.8,3.8
		C57.5,34.8,56.9,35.5,56,35.8z"/>
	<circle class="st0" cx="55" cy="33" r="1"/>
</g>
<path class="st1" d="M24.2,41.7C28.9,36.6,35,28.1,35,18c0-9.4-7.6-17-17-17S1,8.6,1,18c0,10.1,6.1,18.6,10.8,23.7
	C8.1,42.5,6,44.1,6,46c0,3.3,6,5,12,5s12-1.7,12-5C30,44.1,27.9,42.5,24.2,41.7z M18,3c8.3,0,15,6.7,15,15c0,13.6-12.1,24.4-15,26.7
	C15.1,42.4,3,31.6,3,18C3,9.7,9.7,3,18,3L18,3z M18,49c-6,0-10-1.8-10-3c0-0.7,1.7-2,5.5-2.6c1.2,1.2,2.5,2.4,3.9,3.4
	c0.4,0.3,0.8,0.3,1.2,0c1.4-1.1,2.7-2.2,3.9-3.4C26.3,44,28,45.3,28,46C28,47.2,24,49,18,49z"/>
<path class="st1" d="M27,18c0-5-4-9-9-9s-9,4-9,9s4,9,9,9C23,27,27,23,27,18z M11,18c0-3.9,3.1-7,7-7s7,3.1,7,7s-3.1,7-7,7
	C14.1,25,11,21.9,11,18z"/>
</svg>
