<?xml version="1.0" encoding="utf-8"?>
<!-- Generator: Adobe Illustrator 23.0.2, SVG Export Plug-In . SVG Version: 6.00 Build 0)  -->
<svg version="1.1" id="line" xmlns="http://www.w3.org/2000/svg" xmlns:xlink="http://www.w3.org/1999/xlink" x="0px" y="0px"
	 viewBox="0 0 62 62" style="enable-background:new 0 0 62 62;" xml:space="preserve">
<style type="text/css">
	.st0{fill:#C3A1FB;}
	.st1{fill:#151A6A;}
</style>
<path class="st0" d="M53.4,16.2l-1,8.1h8.1L53.4,16.2z"/>
<path class="st0" d="M51.3,26.2c-0.5,0-1-0.4-1-1c0,0,0-0.1,0-0.1l1.2-9.6H27.1c-1.6,0-2.9,1.3-2.9,2.9v39.7c0,1.6,1.3,2.9,2.9,2.9
	h31c1.6,0,2.9-1.3,2.9-2.9V26.2H51.3z M30,24.2h15.5c0.5,0,1,0.4,1,1c0,0.5-0.4,1-1,1H30c-0.5,0-1-0.4-1-1
	C29.1,24.7,29.5,24.2,30,24.2z M55.2,52.3H30c-0.5,0-1-0.4-1-1c0-0.5,0.4-1,1-1h25.2c0.5,0,1,0.4,1,1C56.2,51.9,55.7,52.3,55.2,52.3
	z M55.2,43.6H30c-0.5,0-1-0.4-1-1s0.4-1,1-1h25.2c0.5,0,1,0.4,1,1S55.7,43.6,55.2,43.6z M55.2,34.9H30c-0.5,0-1-0.4-1-1s0.4-1,1-1
	h25.2c0.5,0,1,0.4,1,1S55.7,34.9,55.2,34.9z"/>
<g>
	<path class="st1" d="M12.6,17.5c0-0.5-0.4-1-1-1H3.8c-0.5,0-1,0.4-1,1c0,0.5,0.4,1,1,1h7.7C12.1,18.4,12.6,18,12.6,17.5z"/>
	<path class="st1" d="M6.2,23.3H10c0.5,0,1-0.4,1-1c0-0.5-0.4-1-1-1H6.2c-0.5,0-1,0.4-1,1C5.2,22.8,5.6,23.3,6.2,23.3z"/>
	<path class="st1" d="M14.5,12.6c0-0.5-0.4-1-1-1H2c-0.5,0-1,0.4-1,1s0.4,1,1,1h11.6C14.1,13.6,14.5,13.1,14.5,12.6z"/>
	<path class="st1" d="M46.1,1H11.3C9.9,1,8.6,2.1,8.5,3.5L7.9,7.7c-0.1,0.5,0.3,1,0.8,1.1c0.5,0.1,1-0.3,1.1-0.8c0,0,0,0,0-0.1
		L10.3,4l13.1,12.4L7.2,29.7l0.3-2.4c0.1-0.5-0.3-1-0.8-1.1s-1,0.3-1.1,0.8c0,0,0,0,0,0.1l-0.3,2.7c-0.2,1.6,0.9,3,2.5,3.2
		c0.1,0,0.2,0,0.4,0h34.8c1.5,0,2.7-1.1,2.9-2.5L49,4.3c0.2-1.6-0.9-3-2.5-3.2C46.4,1,46.3,1,46.1,1L46.1,1z M27,17.1L12,2.9h33.4
		L27,17.1z M26.3,19.1c0.3,0.3,0.9,0.4,1.3,0.1l1.9-1.4L42.3,31H8.6l16.2-13.2l0,0L26.3,19.1z M43.9,29.9l-13-13.3L47.1,4.1
		L43.9,29.9z"/>
</g>
</svg>
