<?xml version="1.0" encoding="utf-8"?>
<!-- Generator: Adobe Illustrator 23.0.2, SVG Export Plug-In . SVG Version: 6.00 Build 0)  -->
<svg version="1.1" id="line" xmlns="http://www.w3.org/2000/svg" xmlns:xlink="http://www.w3.org/1999/xlink" x="0px" y="0px"
	 viewBox="0 0 64 62" style="enable-background:new 0 0 64 62;" xml:space="preserve">
<style type="text/css">
	.st0{fill:#C4A2FC;}
	.st1{fill:#151A6A;}
</style>
<g>
	<path class="st0" d="M61.6,27.3c-14.9-12.6-36.8-12.6-51.7,0C8.2,28.7,8,31.3,9.4,33c1.4,1.7,3.9,1.9,5.6,0.5c0,0,0,0,0.1-0.1
		c11.9-10,29.4-10,41.3,0c1.7,1.5,4.2,1.3,5.7-0.4C63.5,31.4,63.4,28.8,61.6,27.3C61.7,27.4,61.6,27.3,61.6,27.3L61.6,27.3z"/>
	<path class="st0" d="M54.3,35.3c-10.9-8.6-26.2-8.6-37.1,0c-1.8,1.3-2.1,3.8-0.8,5.6c1.3,1.8,3.8,2.1,5.6,0.8c0,0,0.1-0.1,0.1-0.1
		c8-6.2,19.1-6.2,27.1,0c1.7,1.4,4.3,1.1,5.6-0.6C56.3,39.2,56,36.7,54.3,35.3L54.3,35.3z"/>
	<path class="st0" d="M47,43.3c-6.8-4.5-15.6-4.5-22.4,0c-1.8,1.2-2.3,3.7-1.1,5.6c1.2,1.8,3.7,2.3,5.6,1.1c0,0,0,0,0,0
		c4.1-2.7,9.3-2.7,13.4,0c1.8,1.3,4.3,0.8,5.6-1C49.3,47.1,48.8,44.6,47,43.3C47,43.4,47,43.3,47,43.3z"/>
	<path class="st0" d="M35.8,50.9c-2.9,0-5.2,2.3-5.2,5.2c0,2.9,2.3,5.2,5.2,5.2c2.9,0,5.2-2.3,5.2-5.2C41,53.3,38.7,50.9,35.8,50.9z
		"/>
</g>
<path class="st1" d="M48,21.3h-2.7l4.7-15.7c0.5-1.8-0.6-3.7-2.4-4.2c-1.7-0.5-3.5,0.5-4.1,2.2l-5.3,17.6H13.7L8.4,3.7
	C7.8,2,5.9,1,4.1,1.6C2.4,2.2,1.5,4,1.9,5.7l4.7,15.7H4c-1.7,0-3,1.3-3,3v8c0,1.7,1.3,3,3,3h0.1c0.6,2.7,3.2,4.5,5.9,3.9
	c2-0.4,3.5-1.9,3.9-3.9h24.2c0.6,2.7,3.2,4.5,5.9,3.9c2-0.4,3.5-1.9,3.9-3.9H48c1.7,0,3-1.3,3-3v-8C51,22.7,49.7,21.3,48,21.3z
	 M45.5,4.3c0.2-0.7,1-1.1,1.8-0.9c0.7,0.2,1.1,1,0.9,1.7l-4.9,16.2h-2.9L45.5,4.3z M3.8,5.1c-0.2-0.7,0.3-1.5,1-1.7
	c0.7-0.2,1.4,0.2,1.7,0.9l5.1,17H8.7L3.8,5.1z M9,37.4c-1.3,0-2.4-0.8-2.8-2h5.7C11.4,36.6,10.2,37.4,9,37.4z M43,37.4
	c-1.3,0-2.4-0.8-2.8-2h5.7C45.4,36.6,44.3,37.4,43,37.4L43,37.4z M49,32.4c0,0.6-0.4,1-1,1H4c-0.6,0-1-0.4-1-1v-8c0-0.6,0.4-1,1-1
	H48c0.6,0,1,0.4,1,1V32.4z"/>
<path class="st1" d="M14,25.4H9c-0.6,0-1,0.4-1,1v4c0,0.6,0.4,1,1,1h5c0.6,0,1-0.4,1-1v-4C15,25.8,14.5,25.4,14,25.4z M13,29.4h-3
	v-2h3V29.4z"/>
<path class="st1" d="M45,27.4H34c-0.6,0-1,0.4-1,1s0.4,1,1,1h11c0.6,0,1-0.4,1-1S45.6,27.4,45,27.4z"/>
</svg>
