<?xml version="1.0" standalone="no"?>
<!DOCTYPE svg PUBLIC "-//W3C//DTD SVG 20010904//EN"
 "http://www.w3.org/TR/2001/REC-SVG-20010904/DTD/svg10.dtd">
<svg version="1.0" xmlns="http://www.w3.org/2000/svg"
 width="1626.000000pt" height="1626.000000pt" viewBox="0 0 1626.000000 1626.000000"
 preserveAspectRatio="xMidYMid meet">
<metadata>
Created by potrace 1.14, written by Peter Selinger 2001-2017
</metadata>
<g transform="translate(0.000000,1626.000000) scale(0.100000,-0.100000)"
fill="#000000" stroke="none">
<path d="M11070 11904 c-47 -42 -119 -103 -160 -136 -41 -34 -80 -66 -85 -72
-17 -19 -262 -204 -325 -246 -12 -8 -32 -22 -44 -31 -54 -41 -236 -159 -245
-159 -5 0 -11 -4 -13 -8 -1 -5 -36 -28 -76 -52 -40 -23 -74 -46 -77 -49 -2 -4
26 -25 63 -46 91 -53 366 -236 370 -246 2 -5 8 -9 14 -9 14 0 358 -261 414
-315 6 -5 32 -28 59 -50 26 -22 53 -45 59 -50 6 -6 39 -35 74 -65 l63 -54 23
25 c13 13 47 44 76 69 30 25 58 50 64 55 14 13 125 106 150 125 10 8 33 27 50
41 89 73 441 329 453 329 3 0 26 15 52 33 25 18 69 46 96 62 28 16 52 32 55
35 3 3 16 11 30 18 14 7 34 20 44 28 20 14 20 14 0 29 -10 8 -34 22 -52 30
-46 23 -345 222 -471 314 -176 129 -449 353 -553 454 -10 9 -19 17 -20 17 -2
-1 -41 -35 -88 -76z"/>
<path d="M3289 9990 c-45 -102 -92 -207 -104 -235 -13 -27 -38 -84 -55 -125
-18 -41 -45 -102 -60 -135 -15 -33 -46 -103 -68 -155 -22 -52 -55 -126 -72
-165 -49 -108 -57 -126 -80 -180 -33 -75 -43 -99 -45 -105 -1 -3 -13 -31 -28
-64 -15 -32 -27 -60 -27 -61 0 -4 -69 -157 -81 -177 -5 -10 -9 -25 -9 -33 0
-8 -5 -15 -11 -15 -6 0 -9 -6 -6 -14 3 -8 2 -16 -2 -18 -4 -2 -52 -104 -106
-228 -54 -124 -105 -241 -113 -260 -9 -19 -16 -37 -17 -40 0 -3 -15 -36 -33
-73 -18 -38 -32 -70 -32 -72 0 -3 -11 -28 -24 -57 -13 -29 -34 -75 -46 -103
-23 -51 -70 -157 -93 -210 l-14 -29 -129 -2 c-150 -2 -329 -13 -464 -29 -154
-18 -185 -22 -227 -29 -18 -3 -48 -8 -65 -11 -18 -3 -44 -7 -58 -10 -14 -3
-38 -7 -55 -10 -16 -3 -41 -7 -55 -10 -14 -3 -46 -10 -71 -15 -25 -5 -65 -14
-90 -20 l-44 -11 0 -390 c0 -253 3 -389 10 -390 14 -2 15 -2 120 26 52 14 116
30 142 35 27 5 59 12 73 15 14 3 34 8 45 9 11 2 47 8 80 14 33 6 83 14 110 17
28 3 60 8 73 11 12 2 48 7 80 9 31 3 85 7 120 10 34 3 62 4 62 2 0 -4 -244
-562 -285 -652 -40 -89 -87 -196 -90 -205 -2 -6 -26 -61 -53 -120 -11 -25 -35
-79 -52 -120 -36 -84 -70 -160 -106 -236 -13 -28 -24 -54 -24 -57 0 -6 -11
-31 -79 -180 -17 -37 -30 -71 -27 -75 5 -8 982 -10 989 -2 2 3 20 46 41 95 21
50 43 104 51 120 7 17 131 309 275 650 144 341 271 640 282 665 11 24 24 54
29 67 5 15 15 21 28 18 10 -2 41 -7 68 -10 38 -6 161 -30 303 -60 8 -2 44 -11
80 -20 36 -9 76 -19 89 -21 13 -3 34 -10 45 -16 12 -6 23 -11 26 -10 15 4 330
-103 425 -144 22 -10 42 -18 45 -19 3 -1 23 -9 45 -18 98 -43 168 -76 285
-136 69 -36 135 -69 147 -75 13 -6 23 -14 23 -18 0 -5 5 -8 10 -8 19 0 349
-210 388 -248 8 -6 23 -17 34 -23 11 -6 27 -17 36 -24 9 -8 55 -44 102 -81
228 -182 406 -351 605 -579 39 -44 76 -87 84 -95 13 -13 82 -15 514 -15 274 0
500 2 502 5 2 3 -6 25 -17 50 -11 25 -26 59 -33 75 -8 17 -32 70 -54 118 -23
49 -41 91 -41 93 0 2 -14 34 -31 71 -17 38 -37 82 -44 98 -7 17 -27 60 -44 98
-17 37 -31 69 -31 72 0 2 -22 53 -49 112 -40 88 -151 337 -191 428 -5 11 -27
59 -49 108 -23 48 -41 89 -41 92 0 3 -32 76 -71 162 -38 87 -74 167 -79 178
-5 11 -27 60 -49 108 -23 49 -41 90 -41 93 0 2 -16 39 -36 81 -20 43 -76 170
-126 283 -50 113 -102 230 -115 260 -14 30 -43 96 -65 145 -22 50 -48 106 -56
125 -9 19 -16 37 -17 40 -1 3 -11 25 -22 50 -11 25 -57 127 -101 226 -44 100
-88 199 -98 220 -9 22 -18 41 -19 44 -1 3 -14 32 -30 65 -15 33 -29 65 -31 70
-2 10 -163 372 -215 483 -16 35 -29 65 -29 67 0 2 -16 38 -35 79 -19 42 -35
78 -35 80 0 2 -15 37 -34 78 -45 97 -76 167 -116 258 -17 41 -42 98 -55 125
-13 28 -42 93 -65 145 -22 52 -52 120 -66 150 -14 30 -33 73 -43 95 l-17 40
-497 0 -497 0 -81 -185z m637 -935 c47 -111 333 -784 339 -800 5 -11 7 -23 7
-27 -1 -5 3 -8 8 -8 6 0 10 -5 10 -10 0 -6 70 -176 156 -378 452 -1060 490
-1151 499 -1181 8 -27 15 -29 -88 36 -37 24 -69 43 -72 43 -2 0 -28 14 -57 31
-75 45 -396 205 -482 240 -39 16 -118 48 -176 70 -58 23 -114 44 -125 49 -44
18 -91 35 -100 36 -5 1 -46 14 -90 29 -80 26 -227 68 -312 89 -114 28 -194 46
-223 51 -19 3 -42 8 -50 10 -8 2 -28 6 -44 9 -16 3 -30 7 -32 9 -3 3 65 176
96 242 18 40 48 112 78 185 16 41 41 100 55 130 14 30 45 105 70 165 25 61 56
133 68 160 13 28 24 52 24 55 3 9 25 65 35 85 9 19 140 329 281 663 l64 152
24 -52 c13 -29 30 -66 37 -83z"/>
<path d="M7470 7593 c0 -1421 3 -2584 8 -2584 4 -1 213 -2 465 -3 402 -1 457
1 458 14 0 8 1 986 1 2173 1 1186 5 2157 9 2157 32 0 421 -192 552 -272 43
-26 81 -48 84 -48 10 0 315 -212 405 -281 203 -158 468 -404 615 -574 28 -33
62 -71 74 -85 126 -146 279 -365 351 -500 80 -153 157 -364 184 -505 2 -11 6
-31 9 -45 3 -14 8 -43 11 -65 3 -22 8 -51 11 -65 4 -14 8 -445 8 -958 1 -513
5 -936 9 -940 12 -11 866 -9 867 3 0 5 2 420 4 920 2 501 6 928 9 950 6 46 17
111 22 140 2 11 7 34 9 50 10 53 47 186 72 254 13 36 25 71 26 76 2 6 29 64
61 130 71 146 152 272 259 405 15 19 31 40 35 45 26 37 118 144 195 229 99
109 277 283 397 386 14 12 39 34 55 49 68 61 340 261 356 261 5 0 9 3 9 8 0 4
16 16 35 26 19 11 35 23 35 28 0 4 4 8 9 8 5 0 57 30 117 66 139 86 295 167
472 248 l142 65 0 -2177 0 -2177 465 0 465 0 0 2585 0 2585 -472 0 c-408 -1
-479 -3 -513 -17 -51 -21 -79 -31 -85 -32 -18 -5 -107 -41 -116 -48 -6 -4 -19
-9 -30 -11 -10 -2 -46 -16 -79 -31 -33 -16 -80 -37 -105 -48 -128 -57 -372
-185 -503 -265 -49 -29 -90 -53 -92 -53 -2 0 -66 -42 -142 -93 -361 -242 -669
-505 -963 -823 -104 -112 -212 -240 -297 -353 -41 -53 -82 -107 -92 -121 -41
-54 -112 -158 -148 -217 -21 -35 -41 -63 -45 -63 -3 0 -17 17 -29 38 -13 20
-27 39 -31 40 -4 2 -8 8 -8 12 0 19 -282 402 -337 457 -12 12 -28 31 -35 42
-31 44 -150 172 -283 306 -177 178 -253 247 -410 375 -44 36 -82 67 -85 70 -3
3 -39 30 -80 60 -41 30 -77 57 -80 60 -23 28 -469 310 -489 310 -6 0 -11 3
-11 8 0 4 -10 12 -23 18 -12 6 -92 47 -177 90 -85 44 -211 103 -280 133 -69
29 -137 60 -152 68 -16 8 -28 12 -28 8 0 -3 -18 4 -40 15 -22 11 -40 18 -40
14 0 -4 -6 -2 -12 4 -7 5 -35 18 -63 28 -45 16 -96 18 -522 19 l-473 1 0
-2583z"/>
</g>
</svg>
