<svg width="697" height="697" viewBox="0 0 697 697" fill="none" xmlns="http://www.w3.org/2000/svg">
<g clip-path="url(#clip0)">
<path d="M348.5 697C540.971 697 697 540.971 697 348.5C697 156.029 540.971 0 348.5 0C156.029 0 0 156.029 0 348.5C0 540.971 156.029 697 348.5 697Z" fill="#F0F0F0"/>
<path d="M333.348 348.502H696.999C696.999 317.048 692.806 286.576 684.994 257.589H333.348V348.502Z" fill="#D80027"/>
<path d="M333.348 166.68H645.849C624.515 131.868 597.238 101.098 565.435 75.7661H333.348V166.68Z" fill="#D80027"/>
<path d="M348.477 697.015C430.496 697.015 505.882 668.666 565.413 621.254H131.541C191.072 668.666 266.458 697.015 348.477 697.015Z" fill="#D80027"/>
<path d="M51.1391 530.335H645.838C662.965 502.389 676.247 471.841 684.983 439.422H11.9941C20.7298 471.841 34.0123 502.389 51.1391 530.335Z" fill="#D80027"/>
<path d="M161.432 54.4232H193.19L163.649 75.8845L174.933 110.611L145.394 89.1493L115.854 110.611L125.602 80.611C99.592 102.277 76.7952 127.66 58.0089 155.943H68.1848L49.3808 169.604C46.4512 174.491 43.6415 179.456 40.9487 184.494L49.9281 212.13L33.1756 199.959C29.0113 208.781 25.2023 217.803 21.7785 227.012L31.6713 257.463H68.1848L38.644 278.924L49.9281 313.65L20.3886 292.189L2.69407 305.045C0.92298 319.282 0 333.783 0 348.5H348.5C348.5 156.03 348.5 133.339 348.5 0C279.655 0 215.478 19.9707 161.432 54.4232ZM174.933 313.65L145.394 292.189L115.854 313.65L127.139 278.924L97.5977 257.463H134.111L145.394 222.736L156.677 257.463H193.19L163.649 278.924L174.933 313.65ZM163.649 177.404L174.933 212.13L145.394 190.669L115.854 212.13L127.139 177.404L97.5977 155.943H134.111L145.394 121.217L156.677 155.943H193.19L163.649 177.404ZM299.939 313.65L270.399 292.189L240.86 313.65L252.144 278.924L222.603 257.463H259.117L270.399 222.736L281.682 257.463H318.195L288.655 278.924L299.939 313.65ZM288.655 177.404L299.939 212.13L270.399 190.669L240.86 212.13L252.144 177.404L222.603 155.943H259.117L270.399 121.217L281.682 155.943H318.195L288.655 177.404ZM288.655 75.8845L299.939 110.611L270.399 89.1493L240.86 110.611L252.144 75.8845L222.603 54.4232H259.117L270.399 19.6971L281.682 54.4232H318.195L288.655 75.8845Z" fill="#0052B4"/>
</g>
<defs>
<clipPath id="clip0">
<rect width="697" height="697" fill="white"/>
</clipPath>
</defs>
</svg>
