<svg width="697" height="697" viewBox="0 0 697 697" fill="none" xmlns="http://www.w3.org/2000/svg">
<path d="M348.5 697C540.971 697 697 540.971 697 348.5C697 156.029 540.971 0 348.5 0C156.029 0 0 156.029 0 348.5C0 540.971 156.029 697 348.5 697Z" fill="#F0F0F0"/>
<path d="M675.324 469.717C689.333 431.963 697 391.129 697 348.5C697 305.871 689.333 265.037 675.324 227.283H21.6764C7.66836 265.037 0 305.871 0 348.5C0 391.129 7.66836 431.963 21.6764 469.717L348.5 500.021L675.324 469.717Z" fill="#0052B4"/>
<path d="M348.499 697C498.342 697 626.082 602.426 675.323 469.717H21.6758C70.9164 602.426 198.657 697 348.499 697Z" fill="#D80027"/>
</svg>
