<?xml version="1.0" encoding="utf-8"?>
<!-- Generator: Adobe Illustrator 24.2.1, SVG Export Plug-In . SVG Version: 6.00 Build 0)  -->
<svg version="1.1" id="Capa_1" xmlns="http://www.w3.org/2000/svg" xmlns:xlink="http://www.w3.org/1999/xlink" x="0px" y="0px"
	 viewBox="0 0 39 37" style="enable-background:new 0 0 39 37;" xml:space="preserve">
<style type="text/css">
	.st0{fill:#000;}
</style>
<g>
	<g>
		<path class="st0" d="M9.5,7.4l15-4.1l-0.8-1.6c-0.5-1-1.8-1.5-2.8-1L7.5,7.4H9.5z"/>
		<path class="st0" d="M29.1,3.4c-0.2,0-0.4,0-0.6,0.1l-3.5,1L14.3,7.4h12.2h5.3l-0.7-2.4C30.9,4,30,3.4,29.1,3.4z"/>
		<path class="st0" d="M34,8.8h-0.5h-0.7h-0.7h-5H8.9H6.5h-2H4.1H2.9c-0.7,0-1.3,0.3-1.6,0.8C1,9.8,0.9,10.1,0.8,10.4
			c0,0.2-0.1,0.4-0.1,0.6v0.3v2.4v20.8c0,1.2,0.9,2.1,2.1,2.1H34c1.2,0,2.1-0.9,2.1-2.1v-5.9H23.6c-2,0-3.6-1.6-3.6-3.6V23v-0.7
			v-0.7v-1.4c0-1,0.4-1.8,1-2.5c0.6-0.6,1.3-1,2.1-1.1c0.1,0,0.3,0,0.4,0h10.7H35h0.7h0.4v-5.7C36.1,9.8,35.1,8.8,34,8.8z"/>
		<path class="st0" d="M37.6,18.7c-0.2-0.2-0.5-0.3-0.7-0.4c-0.2-0.1-0.4-0.1-0.7-0.1h-0.1h0h-0.7H33h-9.5c-1.2,0-2.1,0.9-2.1,2.1v1
			v0.7v0.7v2.3c0,1.2,0.9,2.1,2.1,2.1h12.5h0.1c0.2,0,0.5,0,0.7-0.1c0.3-0.1,0.5-0.2,0.7-0.4c0.4-0.4,0.7-0.9,0.7-1.6v-4.7
			C38.3,19.6,38,19.1,37.6,18.7z M28,23c0,0.6-0.5,1.1-1.1,1.1h-0.7c-0.6,0-1.1-0.5-1.1-1.1v-0.7c0-0.3,0.2-0.6,0.4-0.8
			c0.2-0.1,0.4-0.2,0.6-0.2h0.2h0.5c0.6,0,1.1,0.5,1.1,1.1V23L28,23z"/>
	</g>
</g>
</svg>
