<svg xmlns="http://www.w3.org/2000/svg" width="28" height="20" viewBox="0 0 28 20">
  <defs>
    <style>
      .cls-1 {
        fill: #000;
        fill-rule: evenodd;
      }
    </style>
  </defs>
  <path id="Forma_1_копия_2" data-name="Forma 1 копия 2" class="cls-1" d="M24.82-.005H3.179A2.28,2.28,0,0,0,2.19.227L13.949,11.985l2.635-2.533h0l9.225-9.225A2.282,2.282,0,0,0,24.82-.005ZM26.9,1.315l-8.681,8.68L26.9,18.676a2.281,2.281,0,0,0,.232-0.989V2.3A2.278,2.278,0,0,0,26.9,1.315ZM1.1,1.313a2.287,2.287,0,0,0-.231.99V17.687a2.287,2.287,0,0,0,.231.989L9.784,9.995Zm16.025,9.77-2.636,2.533a0.766,0.766,0,0,1-1.088,0l-2.533-2.533L2.19,19.764A2.273,2.273,0,0,0,3.179,20H24.82a2.281,2.281,0,0,0,.989-0.23Z"/>
</svg>
