<?xml version="1.0" encoding="utf-8"?>
<!-- Generator: Adobe Illustrator 24.2.1, SVG Export Plug-In . SVG Version: 6.00 Build 0)  -->
<svg version="1.1" id="Capa_1" xmlns="http://www.w3.org/2000/svg" xmlns:xlink="http://www.w3.org/1999/xlink" x="0px" y="0px"
	 viewBox="0 0 15 15" style="enable-background:new 0 0 15 15;" xml:space="preserve">
<style type="text/css">
	.st0{fill:#000;}
</style>
<g>
	<g>
		<path class="st0" d="M12,9.3c-0.5-0.5-1.1-0.5-1.6,0C10,9.6,9.6,10,9.3,10.4c-0.1,0.1-0.2,0.1-0.3,0.1c-0.2-0.1-0.5-0.2-0.8-0.4
			c-1.1-0.7-2-1.6-2.9-2.6c-0.4-0.5-0.8-1-1-1.6c-0.1-0.1,0-0.2,0.1-0.3c0.4-0.4,0.8-0.8,1.1-1.1C6,3.9,6,3.2,5.5,2.7
			C5.2,2.4,4.9,2.1,4.6,1.8C4.3,1.5,4,1.2,3.7,0.9C3.2,0.4,2.5,0.4,2,0.9C1.6,1.3,1.3,1.6,0.9,2C0.5,2.4,0.3,2.8,0.3,3.3
			C0.2,4.1,0.4,4.8,0.7,5.6c0.6,1.5,1.4,2.9,2.5,4.1c1.4,1.7,3.1,3,5.1,4c0.9,0.4,1.8,0.8,2.8,0.8c0.7,0,1.3-0.1,1.8-0.7
			c0.3-0.4,0.7-0.7,1-1.1c0.5-0.5,0.5-1.2,0-1.7C13.3,10.5,12.7,9.9,12,9.3z"/>
	</g>
</g>
</svg>
