<?xml version="1.0" encoding="utf-8"?>
<!-- Generator: Adobe Illustrator 24.2.1, SVG Export Plug-In . SVG Version: 6.00 Build 0)  -->
<svg version="1.1" id="Capa_1" xmlns="http://www.w3.org/2000/svg" xmlns:xlink="http://www.w3.org/1999/xlink" x="0px" y="0px"
	 viewBox="0 0 72 72" style="enable-background:new 0 0 72 72;" xml:space="preserve">
<style type="text/css">
	.st0{fill:#000;}
	.st1{display:none;fill:#000;}
</style>
<g>
	<path class="st0" d="M48.3,33.3c0.8,0,1.4-0.6,1.4-1.4v-4.1c0-0.8-0.6-1.4-1.4-1.4H31.9c-0.8,0-1.4,0.6-1.4,1.4v32.8
		c0,0.8,0.6,1.4,1.4,1.4h16.4c0.8,0,1.4-0.6,1.4-1.4s-0.6-1.4-1.4-1.4h-15v-5.5h6.8c0.8,0,1.4-0.6,1.4-1.4S40.9,51,40.1,51h-6.8
		v-5.5h13.7v6.8c0,0.8,0.6,1.4,1.4,1.4s1.4-0.6,1.4-1.4V40.1c0-0.8-0.6-1.4-1.4-1.4s-1.4,0.6-1.4,1.4v2.7H33.3V29.2h5.5V36
		c0,0.8,0.6,1.4,1.4,1.4s1.4-0.6,1.4-1.4v-6.8h5.5v2.7C46.9,32.7,47.5,33.3,48.3,33.3z"/>
	<circle class="st1" cx="41.5" cy="69.6" r="1.4"/>
	<path class="st0" d="M63.5,10c-4.1,0-7.5,3.4-7.5,7.5v0.7H24.2v-5.6C24.2,6.2,19,1,12.6,1S1,6.2,1,12.6v46.8C1,65.8,6.2,71,12.6,71
		h37.7c0.8,0,1.4-0.6,1.4-1.4c0-0.8-0.6-1.4-1.4-1.4H20.1c2.6-2.2,4.1-5.4,4.1-8.9V21H56v42.5c0,0.8,0.6,1.4,1.4,1.4
		s1.4-0.6,1.4-1.4c0-2.6,2.1-4.8,4.8-4.8c2.6,0,4.8,2.1,4.8,4.8s-2.1,4.8-4.8,4.8H47.6c-0.8,0-1.4,0.6-1.4,1.4
		c0,0.8,0.6,1.4,1.4,1.4h15.9c4.1,0,7.5-3.4,7.5-7.5V17.5C71,13.4,67.6,10,63.5,10z M12.6,68.3c-4.9,0-8.9-4-8.9-8.9
		c0-3.6,2.2-6.8,5.5-8.2v6.2c0,3,2.5,5.5,5.5,5.5h6.2C19.5,66,16.2,68.3,12.6,68.3z M21.5,60.1h-6.8c-1.5,0-2.7-1.2-2.7-2.7v-6.8
		c0.2,0,0.5,0,0.7,0c4.9,0,8.9,4,8.9,8.9C21.5,59.6,21.5,59.8,21.5,60.1z M21.5,51.9c-2.1-2.5-5.3-4.1-8.9-4.1
		c-3.5,0-6.7,1.5-8.9,4.1V12.6c0-4.9,4-8.9,8.9-8.9s8.9,4,8.9,8.9V51.9z M68.3,57.7c-1.3-1.1-3-1.7-4.8-1.7c-1.8,0-3.5,0.6-4.8,1.7
		V17.5c0-2.6,2.1-4.8,4.8-4.8c2.6,0,4.8,2.1,4.8,4.8V57.7z"/>
</g>
</svg>
