<?xml version="1.0" encoding="utf-8"?>
<!-- Generator: Adobe Illustrator 24.2.1, SVG Export Plug-In . SVG Version: 6.00 Build 0)  -->
<svg version="1.1" id="Capa_1" xmlns="http://www.w3.org/2000/svg" xmlns:xlink="http://www.w3.org/1999/xlink" x="0px" y="0px"
	 viewBox="0 0 55 55" style="enable-background:new 0 0 55 55;" xml:space="preserve">
<style type="text/css">
	.st0{fill:#000;}
</style>
<g>
	<path class="st0" d="M14.7,41.7h13.4v-5.8c0-2.6,2.1-4.7,4.7-4.7h1c-3.7-2.7-7.3-2-8.1-2.1v1.6c0,3.5-2.8,6.3-6.3,6.3
		s-6.3-2.8-6.3-6.3v-1.6h-1.6c-6.1,0-11.1,5-11.1,11.1v12.8c0,0.9,0.7,1.6,1.6,1.6h4.7V43.3c0-0.9,0.7-1.6,1.6-1.6s1.6,0.7,1.6,1.6
		v11.2h18.4c-0.4-1.1-0.2-1.8-0.3-3.3H14.7c-0.9,0-1.6-0.7-1.6-1.6s0.7-1.6,1.6-1.6h13.4v-3.2H14.7c-0.9,0-1.6-0.7-1.6-1.6
		S13.9,41.7,14.7,41.7L14.7,41.7z"/>
	<path class="st0" d="M41.4,34.4h3.2v4.2h-3.2V34.4z"/>
	<path class="st0" d="M52.9,34.4h-5.2v5.8c0,0.9-0.7,1.6-1.6,1.6h-6.3c-0.9,0-1.6-0.7-1.6-1.6v-5.8H33c-0.9,0-1.6,0.7-1.6,1.6v17
		c0,0.9,0.7,1.6,1.6,1.6h19.9c0.9,0,1.6-0.7,1.6-1.6v-17C54.5,35.1,53.8,34.4,52.9,34.4z"/>
	<path class="st0" d="M8.4,18.7L8.4,18.7c0.3,4.6,3.5,8.6,7.9,9.9v2c0,1.7,1.4,3.2,3.2,3.2s3.2-1.4,3.2-3.2v-2
		c4.3-1.3,7.6-5.1,7.9-9.9h0c1.9,0,3.4-1.5,3.4-3.4c0-1.9-1.5-3.4-3.4-3.4h0l0,0c-3.8-4.9-14.2,1.9-22.1,0h0C6.5,12,5,13.5,5,15.3
		C5,17.2,6.5,18.7,8.4,18.7L8.4,18.7z"/>
	<path class="st0" d="M29.8,7.6c-1.6-4.1-5.6-7.1-10.3-7.1C14.3,0.5,10,4,8.8,8.8C14.7,10.6,23.7,5.2,29.8,7.6L29.8,7.6z"/>
</g>
</svg>
