<?xml version="1.0" encoding="utf-8"?>
<!-- Generator: Adobe Illustrator 24.2.1, SVG Export Plug-In . SVG Version: 6.00 Build 0)  -->
<svg version="1.1" id="Capa_1" xmlns="http://www.w3.org/2000/svg" xmlns:xlink="http://www.w3.org/1999/xlink" x="0px" y="0px"
	 viewBox="0 0 42 42" style="enable-background:new 0 0 42 42;" xml:space="preserve">
<style type="text/css">
	.st0{fill:#000;}
</style>
<g>
	<g>
		<path class="st0" d="M39,19.8L21.3,2c-0.7-0.7-1.6-1-2.5-1c-0.9,0-1.8,0.3-2.5,1l-9.7,9.7c-1.4,1.4-1.4,3.7,0,5.1l1.6,1.7h3.7
			L8.4,15c-0.2-0.2-0.3-0.5-0.3-0.7c0-0.1,0-0.4,0.3-0.7l1.3-1.2l6.1,6.1h5.8l-9-9l5.5-5.5c0.2-0.2,0.5-0.3,0.7-0.3s0.4,0,0.7,0.3
			l17.7,17.7c0.2,0.2,0.3,0.5,0.3,0.7c0,0.1-0.1,0.4-0.3,0.7l-1,1v3.7l2.9-2.8C40.4,23.4,40.4,21.1,39,19.8z"/>
		<path class="st0" d="M31.9,20.1H4.2c-1.2,0-2.3,1-2.3,2.3v10.8h32.2V22.4C34.2,21.2,33.2,20.1,31.9,20.1z M12.4,29.4
			c-1.3,0.9-2.6,0.6-3.5-0.2c-0.8,0.8-2.2,1.1-3.5,0.2C5.3,29.3,5.1,29.2,5,29c-1.3-2.1,0.1-4.2,2.1-4.2c0.7,0,1.3,0.3,1.8,0.7
			c0.5-0.4,1.1-0.7,1.8-0.7c2,0,3.4,2.2,2.1,4.3C12.7,29.2,12.6,29.3,12.4,29.4z"/>
		<path class="st0" d="M2,38.7C2,40,3,41,4.3,41h27.8c1.2,0,2.1-1,2.1-2.1v-1.7H2V38.7z"/>
	</g>
</g>
</svg>
