<?xml version="1.0" encoding="utf-8"?>
<!-- Generator: Adobe Illustrator 24.2.1, SVG Export Plug-In . SVG Version: 6.00 Build 0)  -->
<svg version="1.1" id="Слой_1" xmlns="http://www.w3.org/2000/svg" xmlns:xlink="http://www.w3.org/1999/xlink" x="0px" y="0px"
	 viewBox="0 0 17 17" style="enable-background:new 0 0 17 17;" xml:space="preserve">
<style type="text/css">
	.st0{fill:#000;}
</style>
<path class="st0" d="M14.2,2.8c-1.5-1.5-3.5-2.3-5.7-2.3S4.4,1.3,2.8,2.8S0.5,6.4,0.5,8.5s0.8,4.1,2.3,5.7s3.5,2.3,5.7,2.3
	s4.1-0.8,5.7-2.3s2.3-3.5,2.3-5.7S15.7,4.4,14.2,2.8z M8.5,14.6c-3.4,0-6.1-2.7-6.1-6.1s2.7-6.1,6.1-6.1s6.1,2.7,6.1,6.1
	S11.9,14.6,8.5,14.6z"/>
<path class="st0" d="M8.5,3.3c-2.9,0-5.2,2.3-5.2,5.2s2.3,5.2,5.2,5.2s5.2-2.3,5.2-5.2S11.4,3.3,8.5,3.3z M10.8,9H8.5
	C8.2,9,8,8.8,8,8.5V5.2C8,5,8.2,4.8,8.5,4.8S9,5,9,5.2V8h1.8c0.3,0,0.5,0.2,0.5,0.5C11.3,8.8,11,9,10.8,9z"/>
</svg>
