<?xml version="1.0" encoding="utf-8"?>
<!-- Generator: Adobe Illustrator 24.2.1, SVG Export Plug-In . SVG Version: 6.00 Build 0)  -->
<svg version="1.1" id="Слой_1" xmlns="http://www.w3.org/2000/svg" xmlns:xlink="http://www.w3.org/1999/xlink" x="0px" y="0px"
	 viewBox="0 0 12 17" style="enable-background:new 0 0 12 17;" xml:space="preserve">
<style type="text/css">
	.st0{fill:#000;}
</style>
<path class="st0" d="M6,0.6c-3,0-5.5,2.5-5.5,5.5C0.5,9.9,6,16.4,6,16.4s5.5-6.7,5.5-10.3C11.5,3.1,9,0.6,6,0.6z M7.7,7.7
	C7.2,8.2,6.6,8.4,6,8.4c-0.6,0-1.2-0.2-1.7-0.7c-0.9-0.9-0.9-2.4,0-3.3c0.4-0.4,1-0.7,1.7-0.7s1.2,0.2,1.7,0.7
	C8.6,5.3,8.6,6.8,7.7,7.7z"/>
</svg>
