<?xml version="1.0" encoding="utf-8"?>
<!-- Generator: Adobe Illustrator 24.2.1, SVG Export Plug-In . SVG Version: 6.00 Build 0)  -->
<svg version="1.1" id="Слой_1" xmlns="http://www.w3.org/2000/svg" xmlns:xlink="http://www.w3.org/1999/xlink" x="0px" y="0px"
	 viewBox="0 0 62 46" style="enable-background:new 0 0 62 46;" xml:space="preserve">
<style type="text/css">
	.st0{fill:#000;}
</style>
<path class="st0" d="M34.1,2.4h-4.4v7c0,1-0.9,1.9-1.9,1.9S26,10.4,26,9.4v-7h-5.6c-1,0-1.9,0.9-1.9,1.9v3.1h1.9
	c2.4,0,4.4,2,4.4,4.4v10.6h10.6c0.2,0,0.4,0,0.6,0.1V4.3C36,3.3,35.2,2.4,34.1,2.4L34.1,2.4z"/>
<path class="st0" d="M20.4,9.9H16v7.2c0,1.1-0.9,1.9-1.9,1.9s-1.9-0.8-1.9-1.9V9.9H7.9c-1,0-1.9,0.9-1.9,1.9v10.6h16.3V11.8
	C22.3,10.8,21.4,9.9,20.4,9.9z"/>
<path class="st0" d="M35.4,24.9H2.9c-1,0-1.9,0.9-1.9,1.9V38c0,1,0.9,1.9,1.9,1.9h0.8c-0.1-0.6-0.2-1.2-0.2-1.9
	c0-5.2,4.2-9.4,9.4-9.4s9.4,4.2,9.4,9.4c0,0.6-0.1,1.3-0.2,1.9h13.3c1,0,1.9-0.9,1.9-1.9V26.8C37.3,25.8,36.4,24.9,35.4,24.9z"/>
<path class="st0" d="M49.1,9.9h-7.5c-1,0-1.9,0.9-1.9,1.9V38c0-5.2,4.2-9.4,9.4-9.4s9.4,4.2,9.4,9.4c0,0.6-0.1,1.3-0.2,1.9h0.8
	c1,0,1.9-0.9,1.9-1.9V21.8C61,15.2,55.7,9.9,49.1,9.9z"/>
<path class="st0" d="M49.1,44.9c-3.8,0-6.9-3.1-6.9-6.9c0-3.8,3.1-6.9,6.9-6.9S56,34.2,56,38C56,41.8,52.9,44.9,49.1,44.9z"/>
<path class="st0" d="M12.9,44.9C9.1,44.9,6,41.8,6,38c0-3.8,3.1-6.9,6.9-6.9s6.9,3.1,6.9,6.9C19.8,41.8,16.7,44.9,12.9,44.9z"/>
</svg>
