<?xml version="1.0" encoding="utf-8"?>
<!-- Generator: Adobe Illustrator 24.2.1, SVG Export Plug-In . SVG Version: 6.00 Build 0)  -->
<svg version="1.1" id="icons" xmlns="http://www.w3.org/2000/svg" xmlns:xlink="http://www.w3.org/1999/xlink" x="0px" y="0px"
	 viewBox="0 0 70 80" style="enable-background:new 0 0 70 80;" xml:space="preserve">
<style type="text/css">
	.st0{fill:#D2AB67;}
</style>
<g>
	<g>
		<path class="st0" d="M63,78c-0.6,0-1.2-0.5-1.2-1.2c0-0.6,0.5-1.2,1.2-1.2c1.9,0,3.5-1.6,3.5-3.5S65,68.7,63,68.7
			c-0.6,0-1.2-0.5-1.2-1.2s0.5-1.2,1.2-1.2c3.2,0,5.8,2.6,5.8,5.8S66.3,78,63,78z"/>
	</g>
	<g>
		<path class="st0" d="M67.7,38.5c-0.6,0-1.2-0.5-1.2-1.2c0-1.9-1.6-3.5-3.5-3.5c-0.6,0-1.2-0.5-1.2-1.2c0-0.6,0.5-1.2,1.2-1.2
			c3.2,0,5.8,2.6,5.8,5.8C68.9,38,68.3,38.5,67.7,38.5z"/>
	</g>
	<g>
		<path class="st0" d="M63,68.7c-0.6,0-1.2-0.5-1.2-1.2V32.7c0-0.6,0.5-1.2,1.2-1.2c0.6,0,1.2,0.5,1.2,1.2v34.9
			C64.2,68.2,63.7,68.7,63,68.7z"/>
	</g>
	<g>
		<path class="st0" d="M67.7,73.4c-0.6,0-1.2-0.5-1.2-1.2V37.3c0-0.6,0.5-1.2,1.2-1.2c0.6,0,1.2,0.5,1.2,1.2v34.9
			C68.9,72.8,68.3,73.4,67.7,73.4z"/>
	</g>
	<g>
		<path class="st0" d="M7.3,78c-3.2,0-5.8-2.6-5.8-5.8s2.6-5.8,5.8-5.8c0.6,0,1.2,0.5,1.2,1.2s-0.5,1.2-1.2,1.2
			c-1.9,0-3.5,1.6-3.5,3.5s1.6,3.5,3.5,3.5c0.6,0,1.2,0.5,1.2,1.2C8.4,77.5,7.9,78,7.3,78z"/>
	</g>
	<g>
		<path class="st0" d="M2.6,38.5c-0.6,0-1.2-0.5-1.2-1.2c0-3.2,2.6-5.8,5.8-5.8c0.6,0,1.2,0.5,1.2,1.2c0,0.6-0.5,1.2-1.2,1.2
			c-1.9,0-3.5,1.6-3.5,3.5C3.8,38,3.3,38.5,2.6,38.5z"/>
	</g>
	<g>
		<path class="st0" d="M7.3,68.7c-0.6,0-1.2-0.5-1.2-1.2V32.7c0-0.6,0.5-1.2,1.2-1.2s1.2,0.5,1.2,1.2v34.9
			C8.4,68.2,7.9,68.7,7.3,68.7z"/>
	</g>
	<g>
		<path class="st0" d="M2.6,73.4c-0.6,0-1.2-0.5-1.2-1.2V37.3c0-0.6,0.5-1.2,1.2-1.2s1.2,0.5,1.2,1.2v34.9
			C3.8,72.8,3.3,73.4,2.6,73.4z"/>
	</g>
	<g>
		<path class="st0" d="M23.2,43.1h-16c-0.6,0-1.2-0.5-1.2-1.2c0-0.6,0.5-1.2,1.2-1.2h16c0.6,0-0.3,0.5-0.3,1.2
			C23,42.6,23.9,43.1,23.2,43.1z"/>
	</g>
	<g>
		<path class="st0" d="M63,78H7.3c-0.6,0-1.2-0.5-1.2-1.2c0-0.6,0.5-1.2,1.2-1.2H63c0.6,0,1.2,0.5,1.2,1.2C64.2,77.5,63.7,78,63,78z
			"/>
	</g>
	<g>
		<g>
			<path class="st0" d="M23.3,66.5c-0.7,0-1.3-0.6-1.3-1.3V23.1c0-0.7,0.6-1.3,1.3-1.3c0.7,0,1.3,0.6,1.3,1.3v42.1
				C24.6,65.9,24,66.5,23.3,66.5z"/>
		</g>
		<g>
			<path class="st0" d="M47,66.5c-0.7,0-1.3-0.6-1.3-1.3V23.1c0-0.7,0.6-1.3,1.3-1.3c0.7,0,1.3,0.6,1.3,1.3v42.1
				C48.3,65.9,47.7,66.5,47,66.5z"/>
		</g>
		<g>
			<path class="st0" d="M47,24.4H23.3c-0.7,0-1.3-0.6-1.3-1.3s0.6-1.3,1.3-1.3H47c0.7,0,1.3,0.6,1.3,1.3S47.7,24.4,47,24.4z"/>
		</g>
		<g>
			<path class="st0" d="M52.3,66.5H18c-0.7,0-1.3-0.6-1.3-1.3c0-0.7,0.6-1.3,1.3-1.3h34.2c0.7,0,1.3,0.6,1.3,1.3
				C53.6,65.9,53,66.5,52.3,66.5z"/>
		</g>
		<g>
			<path class="st0" d="M29.9,59.9c-0.7,0-1.3-0.6-1.3-1.3V28.3c0-0.7,0.6-1.3,1.3-1.3s1.3,0.6,1.3,1.3v30.3
				C31.2,59.4,30.6,59.9,29.9,59.9z"/>
		</g>
		<g>
			<path class="st0" d="M35.2,54.7c-0.7,0-1.3-0.6-1.3-1.3v-25c0-0.7,0.6-1.3,1.3-1.3s1.3,0.6,1.3,1.3v25
				C36.5,54.1,35.9,54.7,35.2,54.7z"/>
		</g>
		<g>
			<path class="st0" d="M40.4,59.9c-0.7,0-1.3-0.6-1.3-1.3V28.3c0-0.7,0.6-1.3,1.3-1.3s1.3,0.6,1.3,1.3v30.3
				C41.7,59.4,41.2,59.9,40.4,59.9z"/>
		</g>
		<g>
			<path class="st0" d="M32.5,24.4c-0.7,0-1.3-0.6-1.3-1.3v-4c0-0.7,0.6-1.3,1.3-1.3s1.3,0.6,1.3,1.3v4
				C33.8,23.8,33.3,24.4,32.5,24.4z"/>
		</g>
		<g>
			<path class="st0" d="M37.8,24.4c-0.7,0-1.3-0.6-1.3-1.3v-4c0-0.7,0.6-1.3,1.3-1.3c0.7,0,1.3,0.6,1.3,1.3v4
				C39.1,23.8,38.5,24.4,37.8,24.4z"/>
		</g>
		<g>
			<path class="st0" d="M27.3,24.4c-0.7,0-1.3-0.6-1.3-1.3v-9.2c0-0.7,0.6-1.3,1.3-1.3c0.7,0,1.3,0.6,1.3,1.3v9.2
				C28.6,23.8,28,24.4,27.3,24.4z"/>
		</g>
		<g>
			<path class="st0" d="M43.1,24.4c-0.7,0-1.3-0.6-1.3-1.3v-9.2c0-0.7,0.6-1.3,1.3-1.3s1.3,0.6,1.3,1.3v9.2
				C44.4,23.8,43.8,24.4,43.1,24.4z"/>
		</g>
		<g>
			<path class="st0" d="M43.1,15.2H27.3c-0.7,0-1.3-0.6-1.3-1.3c0-0.7,0.6-1.3,1.3-1.3h15.8c0.7,0,1.3,0.6,1.3,1.3
				C44.4,14.6,43.8,15.2,43.1,15.2z"/>
		</g>
		<g>
			<path class="st0" d="M31.2,15.2c-0.7,0-1.3-0.6-1.3-1.3V8.6c0-0.7,0.6-1.3,1.3-1.3s1.3,0.6,1.3,1.3v5.3
				C32.5,14.6,31.9,15.2,31.2,15.2z"/>
		</g>
		<g>
			<path class="st0" d="M39.1,15.2c-0.7,0-1.3-0.6-1.3-1.3V8.6c0-0.7,0.6-1.3,1.3-1.3c0.7,0,1.3,0.6,1.3,1.3v5.3
				C40.4,14.6,39.8,15.2,39.1,15.2z"/>
		</g>
		<g>
			<path class="st0" d="M39.1,9.9h-7.9c-0.7,0-1.3-0.6-1.3-1.3c0-0.7,0.6-1.3,1.3-1.3h7.9c0.7,0,1.3,0.6,1.3,1.3
				C40.4,9.3,39.8,9.9,39.1,9.9z"/>
		</g>
		<g>
			<path class="st0" d="M35.2,9.9c-0.7,0-1.3-0.6-1.3-1.3V3.3c0-0.7,0.6-1.3,1.3-1.3s1.3,0.6,1.3,1.3v5.3
				C36.5,9.3,35.9,9.9,35.2,9.9z"/>
		</g>
		<g>
			<path class="st0" d="M35.2,66.5c-0.7,0-1.3-0.6-1.3-1.3v-5.3c0-0.7,0.6-1.3,1.3-1.3s1.3,0.6,1.3,1.3v5.3
				C36.5,65.9,35.9,66.5,35.2,66.5z"/>
		</g>
	</g>
	<g>
		<path class="st0" d="M63,43.2h-16c-0.6,0-1.2-0.5-1.2-1.2c0-0.6,0.5-1.2,1.2-1.2h16c0.6,0,1.2,0.5,1.2,1.2
			C64.2,42.7,63.7,43.2,63,43.2z"/>
	</g>
</g>
</svg>
