<?xml version="1.0" encoding="utf-8"?>
<!-- Generator: Adobe Illustrator 24.2.1, SVG Export Plug-In . SVG Version: 6.00 Build 0)  -->
<svg version="1.1" id="Capa_1" xmlns="http://www.w3.org/2000/svg" xmlns:xlink="http://www.w3.org/1999/xlink" x="0px" y="0px"
	 viewBox="0 0 40 40" style="enable-background:new 0 0 40 40;" xml:space="preserve">
<style type="text/css">
	.st0{fill:#000;}
</style>
<g>
	<path class="st0" d="M25.2,34.4H14.8l-0.5,2.4h-2V39h15.4v-2.2h-2L25.2,34.4z"/>
	<path class="st0" d="M22.2,11.8c0,1.8,1.5,3.3,3.3,3.3h6.3V8.4h-6.3C23.7,8.4,22.2,9.9,22.2,11.8z M26.7,11.8
		c0,0.6-0.5,1.1-1.1,1.1s-1.1-0.5-1.1-1.1s0.5-1.1,1.1-1.1S26.7,11.1,26.7,11.8z"/>
	<path class="st0" d="M11.5,22.5h17.1c1.8,0,3.3-1.5,3.3-3.3v-1.9h-6.3c-3.1,0-5.6-2.5-5.6-5.6s2.5-5.6,5.6-5.6h6.3V4.3
		c0-1.8-1.5-3.3-3.3-3.3H11.5C9.6,1,8.1,2.5,8.1,4.3v14.8C8.1,21,9.6,22.5,11.5,22.5z"/>
	<path class="st0" d="M34.1,10.6v8.5c0,3.1-2.5,5.6-5.6,5.6H11.5c-3.1,0-5.6-2.5-5.6-5.6v-8.5H2.2v21.5h35.6V10.6H34.1z M32.2,27.7
		c-0.6,0-1.1-0.5-1.1-1.1s0.5-1.1,1.1-1.1c0.6,0,1.1,0.5,1.1,1.1S32.9,27.7,32.2,27.7z"/>
</g>
</svg>
