<?xml version="1.0" encoding="utf-8"?>
<!-- Generator: Adobe Illustrator 24.2.1, SVG Export Plug-In . SVG Version: 6.00 Build 0)  -->
<svg version="1.1" id="Слой_1" xmlns="http://www.w3.org/2000/svg" xmlns:xlink="http://www.w3.org/1999/xlink" x="0px" y="0px"
	 viewBox="0 0 67 67" style="enable-background:new 0 0 67 67;" xml:space="preserve">
<style type="text/css">
	.st0{fill:#000;}
</style>
<path class="st0" d="M63,66.5V48.7l-11.8-3.4l-11.8,3.4v17.8h7.1V55.9c0-0.7,0.5-1.2,1.2-1.2h7.1c0.7,0,1.2,0.5,1.2,1.2v10.6H63z"/>
<path class="st0" d="M66.5,45l-15.3-4.4L35.9,45v2.3l15-4.3c0.2-0.1,0.4-0.1,0.6,0l15,4.3V45z"/>
<path class="st0" d="M48.8,57.1h4.7v9.4h-4.7V57.1z"/>
<path class="st0" d="M0.5,0.5h5.9v1.2H0.5V0.5z"/>
<path class="st0" d="M13.5,0.5h5.9v1.2h-5.9V0.5z"/>
<path class="st0" d="M0.5,19.4h18.9V4h-5.9v1.2c0,0.5-0.4,1-0.9,1.1L7.9,7.5c-0.1,0-0.2,0-0.3,0c-0.6,0-1.2-0.5-1.2-1.2c0,0,0,0,0,0
	V4H0.5V19.4z M2.9,13.5h4.7v2.4H2.9V13.5z"/>
<path class="st0" d="M11.1,4.3V0.5H8.8v4.4L11.1,4.3z"/>
<path class="st0" d="M11.1,45.9c0-6.2,5-11.2,11.2-11.2h24.2c4.6,0,8.3-3.7,8.3-8.3s-3.7-8.3-8.3-8.3l0,0h-4.7v2.4h4.7
	c3.3,0,5.9,2.6,5.9,5.9s-2.6,5.9-5.9,5.9H22.3c-7.5,0-13.6,6.1-13.6,13.6s6.1,13.6,13.6,13.6h1.8v-2.4h-1.8
	C16.1,57.1,11.1,52.1,11.1,45.9z"/>
<path class="st0" d="M33.5,12.5c1.7-2.7,3.5-6,3.5-7.3c0-2-1.6-3.5-3.5-3.5S30,3.3,30,5.2C30,6.5,31.8,9.9,33.5,12.5z M33.5,2.9
	c1.3,0,2.4,1.1,2.4,2.4s-1.1,2.4-2.4,2.4c-1.3,0-2.4-1.1-2.4-2.4S32.2,2.9,33.5,2.9z"/>
<path class="st0" d="M26.4,57.1h2.4v2.4h-2.4V57.1z"/>
<path class="st0" d="M31.1,57.1h2.4v2.4h-2.4V57.1z"/>
<path class="st0" d="M32.3,18.2h2.4v2.4h-2.4V18.2z"/>
<path class="st0" d="M37,18.2h2.4v2.4H37V18.2z"/>
</svg>
