<?xml version="1.0" encoding="utf-8"?>
<!-- Generator: Adobe Illustrator 24.2.1, SVG Export Plug-In . SVG Version: 6.00 Build 0)  -->
<svg version="1.1" id="Capa_1" xmlns="http://www.w3.org/2000/svg" xmlns:xlink="http://www.w3.org/1999/xlink" x="0px" y="0px"
	 viewBox="0 0 65 72" style="enable-background:new 0 0 65 72;" xml:space="preserve">
<style type="text/css">
	.st0{fill:#D2AB67;}
</style>
<g>
	<g>
		<path class="st0" d="M42.5,9.6c-0.7-4.9-5-8.6-10-8.6c-3.2,0-6.3,1.5-8.1,4.1c-0.4,0.5-0.3,1.3,0.3,1.7c0.5,0.4,1.3,0.3,1.7-0.3
			c1.4-2,3.8-3.2,6.2-3.2c3.8,0,7.1,2.8,7.6,6.6c0.1,0.6,0.6,1,1.2,1c0.1,0,0.1,0,0.2,0C42.1,10.9,42.6,10.3,42.5,9.6z"/>
	</g>
</g>
<g>
	<g>
		<path class="st0" d="M59.6,22.9L56.1,17c-0.2-0.4-0.6-0.6-1-0.6h-3.4c-0.7,0-1.2,0.5-1.2,1.2c0,0.7,0.5,1.2,1.2,1.2h2.7l2.1,3.6
			h-48l2.1-3.6h1.3c0.7,0,1.2-0.5,1.2-1.2s-0.5-1.2-1.2-1.2H10c-0.4,0-0.8,0.2-1,0.6l-3.6,5.9c-0.2,0.4-0.2,0.8,0,1.2
			c0.2,0.4,0.6,0.6,1,0.6h52.2c0.4,0,0.8-0.2,1-0.6C59.8,23.8,59.8,23.3,59.6,22.9z"/>
	</g>
</g>
<g>
	<g>
		<path class="st0" d="M53.7,12c-0.2-0.3-0.4-0.5-0.7-0.5L36.8,7.7c-0.3-0.1-0.6,0-0.9,0.1c-0.3,0.2-0.5,0.4-0.5,0.7l-1.2,5.2
			c-0.1,0.6,0.2,1.3,0.9,1.4c0.6,0.1,1.3-0.2,1.4-0.9l0.9-4.1l13.9,3.2l-2.2,9.3c-0.1,0.6,0.2,1.3,0.9,1.4c0.1,0,0.2,0,0.3,0
			c0.5,0,1-0.4,1.2-0.9l2.4-10.5C53.9,12.6,53.9,12.3,53.7,12z"/>
	</g>
</g>
<g>
	<g>
		<path class="st0" d="M33.1,14.8L32,5.7c0-0.3-0.2-0.6-0.4-0.8c-0.2-0.2-0.6-0.3-0.9-0.2L10.9,7c-0.7,0.1-1.1,0.7-1,1.3l1.8,15.2
			c0.1,0.6,0.6,1,1.2,1c0,0,0.1,0,0.1,0c0.6-0.1,1.1-0.7,1-1.3L12.3,9.2l17.5-2.1l0.9,8c0.1,0.7,0.7,1.1,1.3,1
			C32.7,16,33.2,15.4,33.1,14.8z"/>
	</g>
</g>
<g>
	<g>
		<path class="st0" d="M42.5,23.1l-2.4-9.8c-0.1-0.3-0.3-0.6-0.5-0.7c-0.3-0.2-0.6-0.2-0.9-0.1L19.6,17c-0.6,0.2-1,0.8-0.9,1.4
			l1.2,4.9c0.2,0.6,0.8,1,1.4,0.9c0.6-0.2,1-0.8,0.9-1.4L21.3,19l16.8-4l2.1,8.6c0.1,0.5,0.6,0.9,1.2,0.9c0.1,0,0.2,0,0.3,0
			C42.3,24.4,42.7,23.7,42.5,23.1z"/>
	</g>
</g>
<g>
	<g>
		<path class="st0" d="M59.8,23.5c0-0.6-0.6-1.1-1.2-1.1H6.4c-0.6,0-1.2,0.5-1.2,1.1L2.8,69.8c0,0.3,0.1,0.6,0.3,0.9
			C3.4,70.9,3.7,71,4,71H61c0.3,0,0.6-0.1,0.9-0.4c0.2-0.2,0.3-0.6,0.3-0.9L59.8,23.5z M5.3,68.6l2.3-43.9h49.9l2.3,43.9H5.3z"/>
	</g>
</g>
<g>
	<g>
		<path class="st0" d="M41.4,27.1c-2,0-3.6,1.6-3.6,3.6c0,2,1.6,3.6,3.6,3.6c2,0,3.6-1.6,3.6-3.6C45,28.7,43.4,27.1,41.4,27.1z
			 M41.4,31.8c-0.7,0-1.2-0.5-1.2-1.2s0.5-1.2,1.2-1.2s1.2,0.5,1.2,1.2S42.1,31.8,41.4,31.8z"/>
	</g>
</g>
<g>
	<g>
		<path class="st0" d="M23.6,27.1c-2,0-3.6,1.6-3.6,3.6c0,2,1.6,3.6,3.6,3.6c2,0,3.6-1.6,3.6-3.6C27.2,28.7,25.6,27.1,23.6,27.1z
			 M23.6,31.8c-0.7,0-1.2-0.5-1.2-1.2s0.5-1.2,1.2-1.2s1.2,0.5,1.2,1.2S24.3,31.8,23.6,31.8z"/>
	</g>
</g>
<g>
	<g>
		<path class="st0" d="M41.4,30.7L41.4,30.7c-0.7,0-1.3,0.5-1.3,1.2c0,0.2,0,0.3,0.1,0.5v6.1c0,4.3-3.5,7.7-7.7,7.7
			s-7.7-3.5-7.7-7.7v-6.5c0-0.7-0.5-1.2-1.2-1.2s-1.2,0.5-1.2,1.2v6.5c0,5.6,4.5,10.1,10.1,10.1s10.1-4.5,10.1-10.1v-6.5
			C42.6,31.2,42.1,30.7,41.4,30.7z"/>
	</g>
</g>
</svg>
