<?xml version="1.0" standalone="no"?>
<!DOCTYPE svg PUBLIC "-//W3C//DTD SVG 20010904//EN"
 "http://www.w3.org/TR/2001/REC-SVG-20010904/DTD/svg10.dtd">
<svg version="1.0" xmlns="http://www.w3.org/2000/svg"
 width="512.000000pt" height="512.000000pt" viewBox="0 0 512.000000 512.000000"
 preserveAspectRatio="xMidYMid meet">
<metadata>
Created by potrace 1.14, written by Peter Selinger 2001-2017
</metadata>
<g transform="translate(0.000000,512.000000) scale(0.100000,-0.100000)"
fill="#000000" stroke="none">
<path d="M1878 4765 c-2 -2 -28 -6 -58 -10 -136 -17 -291 -88 -380 -177 -178
-175 -247 -461 -174 -718 25 -88 26 -90 61 -158 53 -102 77 -131 203 -242 47
-41 87 -77 90 -80 3 -3 39 -34 80 -70 41 -36 84 -74 96 -85 11 -11 49 -45 84
-75 35 -30 73 -64 84 -75 12 -11 55 -49 96 -85 41 -36 80 -69 86 -75 16 -15
154 -137 178 -158 19 -17 145 -129 170 -152 65 -59 145 -125 152 -125 5 0 77
71 161 158 83 86 193 200 243 252 705 727 661 681 704 743 112 163 156 402
110 606 -58 265 -254 459 -509 507 -11 2 -36 7 -55 10 -68 14 -282 8 -363 -10
-135 -30 -206 -74 -340 -208 -65 -65 -119 -118 -121 -118 -1 0 -1 39 -1 86 l1
85 -45 38 c-74 62 -175 106 -291 127 -36 6 -257 14 -262 9z"/>
<path d="M131 4580 c-49 -21 -84 -55 -107 -104 l-24 -51 0 -1101 c1 -1065 1
-1102 20 -1154 42 -115 78 -158 407 -488 415 -415 469 -482 481 -591 3 -24 -1
-124 -9 -220 -7 -97 -13 -212 -14 -256 l0 -80 617 -3 617 -2 -3 597 c-2 329
-6 614 -10 633 -43 210 -111 370 -221 515 -126 167 -260 271 -440 344 -91 36
-103 46 -156 121 -51 72 -269 285 -340 332 -71 47 -147 77 -207 82 -69 5 -84
-5 -163 -111 -21 -29 -49 -63 -61 -76 -53 -56 -74 -91 -82 -144 -8 -47 15
-104 68 -163 17 -20 108 -151 201 -292 94 -140 179 -260 190 -265 14 -7 36 -6
70 3 28 7 60 13 73 14 50 1 12 -57 -92 -138 l-63 -50 -275 271 c-151 150 -291
294 -311 320 -75 98 -128 250 -121 347 11 164 236 381 459 445 33 10 62 19 64
21 2 2 -35 79 -82 171 l-85 168 -6 140 c-3 77 -8 149 -10 160 -2 11 -7 47 -11
80 -4 32 -8 66 -10 75 -57 283 -162 447 -292 456 -26 2 -59 -1 -72 -6z"/>
<path d="M4855 4569 c-105 -52 -186 -211 -229 -449 -18 -98 -23 -148 -32 -319
l-6 -123 -85 -170 c-47 -93 -83 -171 -81 -173 2 -2 16 -6 31 -9 45 -8 178 -69
239 -110 75 -49 192 -176 224 -243 31 -63 37 -133 18 -216 -17 -73 -66 -178
-108 -232 -17 -22 -156 -164 -310 -317 l-279 -277 -46 37 c-65 51 -131 118
-131 131 0 21 28 23 93 8 47 -10 67 -11 78 -3 8 6 92 128 188 271 96 143 186
272 200 287 89 96 87 193 -6 294 -20 21 -54 64 -76 94 -47 63 -53 70 -85 92
-48 33 -171 2 -278 -68 -75 -49 -281 -250 -337 -328 -59 -83 -69 -90 -160
-127 -142 -56 -218 -108 -342 -233 -163 -164 -258 -343 -311 -581 -16 -71 -18
-149 -21 -678 l-3 -597 618 2 617 3 -1 95 c-1 52 -5 140 -10 195 -5 55 -9 147
-9 205 0 91 3 111 24 150 42 81 126 174 436 482 308 305 363 369 413 475 l27
58 3 1105 c2 811 0 1115 -8 1144 -35 118 -153 176 -255 125z"/>
</g>
</svg>
