<svg width="100" height="100" viewBox="0 0 100 100" fill="none" xmlns="http://www.w3.org/2000/svg">
<path d="M86.8333 19.2081C84.7052 17.079 82.1784 15.39 79.3973 14.2376C76.6162 13.0853 73.6354 12.4922 70.625 12.4922C67.6146 12.4922 64.6338 13.0853 61.8527 14.2376C59.0716 15.39 56.5448 17.079 54.4167 19.2081L50 23.6248L45.5833 19.2081C41.2846 14.9094 35.4543 12.4944 29.375 12.4944C23.2957 12.4944 17.4654 14.9094 13.1667 19.2081C8.86794 23.5068 6.45294 29.3372 6.45294 35.4165C6.45294 41.4958 8.86794 47.3261 13.1667 51.6248L17.5833 56.0415L50 88.4581L82.4167 56.0415L86.8333 51.6248C88.9625 49.4966 90.6515 46.9699 91.8038 44.1888C92.9561 41.4077 93.5493 38.4268 93.5493 35.4165C93.5493 32.4061 92.9561 29.4252 91.8038 26.6441C90.6515 23.8631 88.9625 21.3363 86.8333 19.2081V19.2081Z" stroke="white" stroke-width="4" stroke-linecap="round" stroke-linejoin="round"/>
</svg>
