<svg width="30" height="30" viewBox="0 0 30 30" fill="none" xmlns="http://www.w3.org/2000/svg">
<path d="M4.30371 6.99316L7.42383 3.87598C7.80469 3.49512 8.31446 3.28125 8.85352 3.28125C9.39258 3.28125 9.90235 3.49219 10.2832 3.87598L13.6436 7.23047C14.0244 7.61133 14.2383 8.12402 14.2383 8.66309C14.2383 9.20508 14.0273 9.71191 13.6436 10.0957L11.0186 12.7236C11.6166 14.1169 12.4758 15.3829 13.5498 16.4531C14.625 17.5342 15.8818 18.3867 17.2764 18.9902L19.9014 16.3623C20.2822 15.9814 20.792 15.7676 21.3311 15.7676C21.5969 15.7666 21.8604 15.8187 22.1059 15.9208C22.3514 16.0229 22.574 16.173 22.7607 16.3623L26.124 19.7168C26.5049 20.0977 26.7188 20.6104 26.7188 21.1494C26.7188 21.6914 26.5078 22.1982 26.124 22.582L23.0068 25.6992C22.3564 26.3496 21.46 26.7217 20.54 26.7217C20.3496 26.7217 20.165 26.707 19.9775 26.6748C16.0986 26.0361 12.249 23.9707 9.14063 20.8652C6.03516 17.7539 3.97266 13.9043 3.32813 10.0225C3.14356 8.9209 3.5127 7.78711 4.30371 6.99316V6.99316ZM5.40528 9.67383C5.97657 13.1279 7.83399 16.5732 10.6318 19.3711C13.4297 22.1689 16.8721 24.0264 20.3262 24.5977C20.7598 24.6709 21.2051 24.5244 21.5215 24.2109L24.583 21.1494L21.3369 17.9004L17.8271 21.416L17.8008 21.4424L17.168 21.208C15.2492 20.5026 13.5068 19.3883 12.0616 17.9425C10.6163 16.4967 9.50263 14.7539 8.79785 12.835L8.56348 12.2021L12.1025 8.66601L8.85645 5.41699L5.79492 8.47852C5.47852 8.79492 5.33203 9.24023 5.40528 9.67383Z" fill="#8AB6D6" stroke="white"/>
</svg>
