<svg width="26" height="26" viewBox="0 0 26 26" fill="none" xmlns="http://www.w3.org/2000/svg">
<path d="M3.25 6.5H22.75" stroke="#E8F0F2" stroke-width="2" stroke-linecap="round" stroke-linejoin="round"/>
<path d="M8.66602 6.49984V4.33317C8.66602 3.75853 8.89429 3.20743 9.30062 2.80111C9.70695 2.39478 10.258 2.1665 10.8327 2.1665H15.166C15.7407 2.1665 16.2918 2.39478 16.6981 2.80111C17.1044 3.20743 17.3327 3.75853 17.3327 4.33317V6.49984M20.5827 6.49984V21.6665C20.5827 22.2411 20.3544 22.7922 19.9481 23.1986C19.5418 23.6049 18.9907 23.8332 18.416 23.8332H7.58268C7.00805 23.8332 6.45695 23.6049 6.05062 23.1986C5.64429 22.7922 5.41602 22.2411 5.41602 21.6665V6.49984H20.5827Z" stroke="#E8F0F2" stroke-width="2" stroke-linecap="round" stroke-linejoin="round"/>
</svg>
