<svg width="26" height="26" viewBox="0 0 26 26" fill="none" xmlns="http://www.w3.org/2000/svg">
<g clip-path="url(#clip0)">
<path d="M13 4.46558L11.8348 3.26795C9.09995 0.456704 4.0852 1.42683 2.27495 4.9612C1.42508 6.62358 1.23333 9.0237 2.7852 12.0868C4.2802 15.0362 7.39045 18.569 13 22.417C18.6094 18.569 21.7181 15.0362 23.2147 12.0868C24.7666 9.02208 24.5765 6.62358 23.725 4.9612C21.9147 1.42683 16.9 0.455079 14.1651 3.26633L13 4.46558ZM13 24.3751C-11.9162 7.91058 5.32833 -4.93992 12.714 1.85745C12.8115 1.94683 12.9073 2.03945 13 2.13533C13.0916 2.03954 13.187 1.94739 13.2859 1.85908C20.67 -4.94317 37.9161 7.90895 13 24.3751Z" fill="#8AB6D6"/>
</g>
<defs>
<clipPath id="clip0">
<rect width="26" height="26" fill="white"/>
</clipPath>
</defs>
</svg>
