<svg width="30" height="30" viewBox="0 0 30 30" fill="none" xmlns="http://www.w3.org/2000/svg">
<circle cx="15" cy="15" r="15" fill="#8AB6D6"/>
<path d="M15 7C17.1736 7 17.4448 7.008 18.2976 7.048C19.1496 7.088 19.7296 7.2216 20.24 7.42C20.768 7.6232 21.2128 7.8984 21.6576 8.3424C22.0644 8.74232 22.3792 9.22607 22.58 9.76C22.7776 10.2696 22.912 10.8504 22.952 11.7024C22.9896 12.5552 23 12.8264 23 15C23 17.1736 22.992 17.4448 22.952 18.2976C22.912 19.1496 22.7776 19.7296 22.58 20.24C22.3797 20.7742 22.0649 21.2581 21.6576 21.6576C21.2576 22.0643 20.7738 22.379 20.24 22.58C19.7304 22.7776 19.1496 22.912 18.2976 22.952C17.4448 22.9896 17.1736 23 15 23C12.8264 23 12.5552 22.992 11.7024 22.952C10.8504 22.912 10.2704 22.7776 9.76 22.58C9.22586 22.3796 8.74202 22.0648 8.3424 21.6576C7.93553 21.2577 7.62075 20.774 7.42 20.24C7.2216 19.7304 7.088 19.1496 7.048 18.2976C7.0104 17.4448 7 17.1736 7 15C7 12.8264 7.008 12.5552 7.048 11.7024C7.088 10.8496 7.2216 10.2704 7.42 9.76C7.62019 9.22574 7.93504 8.74186 8.3424 8.3424C8.74214 7.93538 9.22594 7.62058 9.76 7.42C10.2704 7.2216 10.8496 7.088 11.7024 7.048C12.5552 7.0104 12.8264 7 15 7ZM15 11C13.9391 11 12.9217 11.4214 12.1716 12.1716C11.4214 12.9217 11 13.9391 11 15C11 16.0609 11.4214 17.0783 12.1716 17.8284C12.9217 18.5786 13.9391 19 15 19C16.0609 19 17.0783 18.5786 17.8284 17.8284C18.5786 17.0783 19 16.0609 19 15C19 13.9391 18.5786 12.9217 17.8284 12.1716C17.0783 11.4214 16.0609 11 15 11V11ZM20.2 10.8C20.2 10.5348 20.0946 10.2804 19.9071 10.0929C19.7196 9.90536 19.4652 9.8 19.2 9.8C18.9348 9.8 18.6804 9.90536 18.4929 10.0929C18.3054 10.2804 18.2 10.5348 18.2 10.8C18.2 11.0652 18.3054 11.3196 18.4929 11.5071C18.6804 11.6946 18.9348 11.8 19.2 11.8C19.4652 11.8 19.7196 11.6946 19.9071 11.5071C20.0946 11.3196 20.2 11.0652 20.2 10.8ZM15 12.6C15.6365 12.6 16.247 12.8529 16.6971 13.3029C17.1471 13.753 17.4 14.3635 17.4 15C17.4 15.6365 17.1471 16.247 16.6971 16.6971C16.247 17.1471 15.6365 17.4 15 17.4C14.3635 17.4 13.753 17.1471 13.3029 16.6971C12.8529 16.247 12.6 15.6365 12.6 15C12.6 14.3635 12.8529 13.753 13.3029 13.3029C13.753 12.8529 14.3635 12.6 15 12.6V12.6Z" fill="#FCFCFC"/>
</svg>
