<svg width="30" height="30" viewBox="0 0 30 30" fill="none" xmlns="http://www.w3.org/2000/svg">
<circle cx="15" cy="15" r="15" fill="#8AB6D6"/>
<path d="M18.5 14.3125H17.375C17.3746 13.8651 17.1966 13.4361 16.8802 13.1198C16.5639 12.8034 16.1349 12.6254 15.6875 12.625V11.5C16.4331 11.5009 17.148 11.7975 17.6753 12.3247C18.2025 12.852 18.4991 13.5669 18.5 14.3125Z" fill="white"/>
<path d="M20.75 14.3125H19.625C19.6238 13.2686 19.2086 12.2677 18.4704 11.5296C17.7323 10.7914 16.7314 10.3762 15.6875 10.375V9.25C17.0297 9.25149 18.3165 9.78534 19.2656 10.7344C20.2147 11.6835 20.7485 12.9703 20.75 14.3125Z" fill="white"/>
<path d="M16.4373 19.0836L17.6973 17.8236C17.8659 17.6549 18.0804 17.5394 18.314 17.4914C18.5477 17.4434 18.7903 17.4651 19.0118 17.5536L20.5463 18.1679C20.7725 18.2584 20.9664 18.4146 21.1029 18.6163C21.2395 18.818 21.3125 19.056 21.3124 19.2996V22.0902C21.3128 22.2561 21.2794 22.4202 21.2141 22.5727C21.1489 22.7252 21.0532 22.8628 20.9329 22.977C20.8126 23.0912 20.6703 23.1797 20.5147 23.237C20.359 23.2943 20.1933 23.3192 20.0277 23.3103C9.27157 22.6409 7.0992 13.5306 6.69589 10.042C6.67635 9.87145 6.69315 9.6987 6.74517 9.5351C6.79719 9.37151 6.88326 9.22078 6.99771 9.09283C7.11216 8.96488 7.2524 8.86261 7.40921 8.79275C7.56602 8.72289 7.73585 8.68703 7.90751 8.6875H10.6486C10.8922 8.6875 11.1302 8.76048 11.3319 8.89704C11.5336 9.03359 11.6898 9.22746 11.7803 9.45363L12.394 10.9881C12.4826 11.2096 12.5042 11.4522 12.4562 11.6859C12.4082 11.9196 12.2927 12.134 12.124 12.3027L10.864 13.5627C10.864 13.5627 11.5626 18.4744 16.4373 19.0836Z" fill="white"/>
</svg>
