<svg width="30" height="30" viewBox="0 0 30 30" fill="none" xmlns="http://www.w3.org/2000/svg">
<circle cx="15" cy="15" r="15" fill="#3AA2DB"/>
<path d="M23.5444 11.181C23.4682 10.908 23.3227 10.6556 23.1201 10.4447C22.9174 10.2338 22.6634 10.0704 22.3789 9.96805C19.625 8.99084 15.2394 8.999 15 9.00019C14.7607 8.99841 10.375 8.99084 7.62121 9.96805C7.33671 10.0704 7.08265 10.2338 6.87998 10.4447C6.67732 10.6556 6.53187 10.9079 6.45562 11.1809C6.24774 11.9179 6 13.2654 6 15.5C6 17.7347 6.24774 19.0821 6.45562 19.819C6.53185 20.092 6.67729 20.3444 6.87993 20.5553C7.08258 20.7662 7.33663 20.9296 7.62112 21.032C10.2573 21.9675 14.389 22 14.947 22H15.053C15.6114 22 19.7428 21.9673 22.3788 21.032C22.6633 20.9296 22.9174 20.7663 23.12 20.5554C23.3227 20.3445 23.4681 20.0921 23.5444 19.8191C23.7523 19.0822 24 17.7347 24 15.5C24 13.2654 23.7523 11.918 23.5444 11.181ZM17.7497 15.747L13.8926 18.1216C13.8442 18.1514 13.7879 18.1685 13.7298 18.1711C13.6717 18.1737 13.6139 18.1617 13.5626 18.1363C13.5113 18.111 13.4684 18.0732 13.4385 18.0271C13.4086 17.981 13.3929 17.9283 13.3929 17.8746V13.1254C13.3929 13.0717 13.4086 13.019 13.4385 12.9729C13.4684 12.9268 13.5113 12.8891 13.5626 12.8637C13.6139 12.8384 13.6717 12.8264 13.7298 12.829C13.7879 12.8316 13.8442 12.8487 13.8926 12.8785L17.7497 15.2531C17.7938 15.2802 17.8299 15.3169 17.8548 15.36C17.8798 15.4031 17.8928 15.4512 17.8928 15.5C17.8928 15.5489 17.8798 15.597 17.8548 15.6401C17.8299 15.6831 17.7938 15.7199 17.7497 15.747Z" fill="#FCFCFC"/>
</svg>
