<svg width="50" height="50" viewBox="0 0 50 50" fill="none" xmlns="http://www.w3.org/2000/svg">
<g clip-path="url(#clip0_209:10757)">
<path d="M31.7953 10.8674H36.3514C37.3274 10.8674 38.1217 10.0732 38.1217 9.09707V1.77607C38.1217 0.799902 37.3275 0.00576172 36.3514 0.00576172H30.095C30.0351 0.00322266 29.9309 0 29.7849 0C28.6044 0 24.4994 0.23291 21.2427 3.22891C17.6879 6.49971 18.028 10.4122 18.1776 11.3769V16.1464H13.6492C12.6731 16.1464 11.8789 16.9405 11.8789 17.9167V25.7906C11.8789 26.7669 12.673 27.5611 13.6492 27.5611H17.9156V48.2298C17.9156 49.2059 18.7098 50.0001 19.6859 50.0001H28.6086C29.5847 50.0001 30.3789 49.2059 30.3789 48.2298V27.6632H35.4325C36.3323 27.6632 37.0884 26.9891 37.1912 26.0952L38.1101 18.1194C38.1678 17.6184 38.0085 17.115 37.6728 16.7386C37.3372 16.3623 36.8557 16.1465 36.3516 16.1465H30.3793V12.1429C30.3791 11.3156 30.6048 10.8674 31.7953 10.8674ZM29.3832 18.1386H36.1026L35.2349 25.6712H29.3829C28.8329 25.6712 28.3869 26.1171 28.3869 26.6672V48.008H19.9075V26.565C19.9075 26.0149 19.4615 25.569 18.9115 25.569H13.8708V18.1384H19.1736C19.7236 18.1384 20.1696 17.6925 20.1696 17.1424V11.2959C20.1696 11.2388 20.1647 11.1816 20.155 11.1253C20.05 10.5223 19.6747 7.37871 22.5915 4.69492C25.3176 2.18701 28.7867 1.99209 29.785 1.99209C29.9249 1.99209 30.0082 1.9958 30.0234 1.99658C30.0398 1.99736 30.0562 1.99775 30.0727 1.99775H36.1299V8.87549H31.7954C29.6612 8.87549 28.3871 10.097 28.3871 12.1429V17.1425C28.3871 17.6927 28.8332 18.1386 29.3832 18.1386Z" fill="#000"/>
<path d="M21.9101 33.5659C21.3601 33.5659 20.9141 34.0118 20.9141 34.5619V35.06C20.9141 35.6101 21.3601 36.056 21.9101 36.056C22.4601 36.056 22.9061 35.6101 22.9061 35.06V34.5619C22.9061 34.0118 22.46 33.5659 21.9101 33.5659Z" fill="#000"/>
<path d="M21.9101 37.2508C21.3601 37.2508 20.9141 37.6967 20.9141 38.2468V45.8165C20.9141 46.3666 21.3601 46.8125 21.9101 46.8125C22.4601 46.8125 22.9061 46.3666 22.9061 45.8165V38.2468C22.9061 37.6967 22.46 37.2508 21.9101 37.2508Z" fill="#000"/>
</g>
<defs>
<clipPath id="clip0_209:10757">
<rect width="50" height="50" fill="white"/>
</clipPath>
</defs>
</svg>
