<svg width="8" height="4" viewBox="0 0 8 4" fill="none" xmlns="http://www.w3.org/2000/svg">
<path fill-rule="evenodd" clip-rule="evenodd" d="M0.427644 0.0114678C0.26572 0.044924 0.118836 0.152566 0.0453862 0.291605C0.00845004 0.361536 0.00195491 0.391507 0.00228358 0.490585C0.00300352 0.710027 -0.147229 0.56182 1.86883 2.33202C3.08474 3.39964 3.68428 3.9168 3.73283 3.93988C3.84619 3.99377 3.98007 4.0127 4.09784 3.9915C4.15165 3.98181 4.22787 3.95858 4.26722 3.93988C4.31577 3.9168 4.9153 3.39964 6.13122 2.33202C8.14745 0.561669 7.99717 0.70993 7.99762 0.490585C7.99783 0.391246 7.99126 0.361248 7.95329 0.288394C7.82191 0.0363336 7.4718 -0.0702926 7.18498 0.0544064C7.14421 0.0721225 6.57787 0.558513 5.5612 1.44894L4.00002 2.81628L2.43885 1.44894C1.41821 0.555028 0.855993 0.0722324 0.815066 0.0545025C0.695932 0.00290484 0.548359 -0.0134802 0.427644 0.0114678Z" fill="black"/>
</svg>
