<svg width="368" height="367" viewBox="0 0 368 367" fill="none" xmlns="http://www.w3.org/2000/svg">
<path fill-rule="evenodd" clip-rule="evenodd" d="M312.5 0.746001C306.196 2.1565 300.698 4.511 295.25 8.133C291.522 10.6115 124.967 176.825 123.28 179.75C122.527 181.056 119.047 194.113 113.255 217.362C103.177 257.817 103.428 256.059 107.181 259.813C108.522 261.153 110.057 262.111 111.477 262.493C113.59 263.062 115.228 262.704 149.218 254.233C168.76 249.362 185.65 244.979 186.75 244.492C189.428 243.307 356.962 75.613 359.69 71.386C366.377 61.0265 368.924 48.5565 366.613 37.5C362.887 19.6735 351.212 6.797 334.148 1.6935C328.619 0.0399953 317.777 -0.434499 312.5 0.746001ZM328 19.0405C337.654 21.254 345.772 29.4335 348.305 39.5C349.979 46.1525 348.466 54.846 344.591 60.8395C343.734 62.165 305.944 100.332 260.613 145.653L178.193 228.056L152.48 234.495C138.338 238.037 126.697 240.864 126.611 240.778C126.525 240.692 129.334 229.015 132.852 214.828L139.25 189.034L222.25 106.105C311.6 16.8315 306.99 21.1905 314.056 19.2905C317.218 18.44 324.789 18.304 328 19.0405ZM38.25 37.0545C20.8725 39.5605 6.2265 52.7535 1.8795 69.8175L0.75 74.25V201.75V329.25L1.881 333.5C5.961 348.834 17.4775 360.775 32.2645 365.004C34.1315 365.538 37.9295 366.208 40.7045 366.494C44.089 366.843 86.404 366.967 169.25 366.872L292.75 366.73L297.535 365.417C313.047 361.158 324.38 350.207 329.109 334.907L330.24 331.25L330.375 265.25C330.502 203.075 330.459 199.15 329.63 197.535C326.575 191.584 318.291 190.908 314.196 196.276L312.75 198.172L312.5 262.961L312.25 327.75L310.95 331.089C307.304 340.454 299.948 346.612 290.75 347.997C288.349 348.359 248.39 348.481 163.5 348.387L39.75 348.25L36.5 347.137C28.17 344.286 21.232 336.618 19.5295 328.381C19.144 326.516 19.024 289.201 19.118 200.25L19.25 74.75L20.48 71.6105C23.0855 64.9595 28.875 59.233 35.83 56.428L38.75 55.25L103.75 55C153.356 54.809 169 54.6065 169.806 54.144C171.654 53.084 173.939 50.082 174.509 47.9645C175.759 43.3225 172.843 38.3365 168.109 37.022C165.806 36.3825 42.6975 36.413 38.25 37.0545Z" fill="black"/>
</svg>
