<svg width="69" height="29" viewBox="0 0 69 29" fill="none" xmlns="http://www.w3.org/2000/svg">
<path d="M7.32876 25C6.42538 24.9552 5.57527 24.5945 4.95394 23.9925C4.2106 23.3378 3.54726 22.6109 2.97564 21.8249C2.08272 20.6542 1.3769 19.3729 0.879538 18.0197C0.316654 16.5638 0.0205378 15.0328 0.00316666 13.4885C-0.0405622 11.9732 0.369317 10.4758 1.18842 9.15847C1.78834 8.20894 2.64404 7.41602 3.67387 6.85537C4.6923 6.29711 5.85447 5.99661 7.04143 5.98464C7.93622 6.0331 8.81551 6.22035 9.64181 6.53838C10.3012 6.80407 10.9937 6.99085 11.7049 7.09344C12.4893 6.94299 13.2558 6.72273 13.9935 6.43579C14.8665 6.12371 15.7909 5.94894 16.7275 5.91887C16.8525 5.91887 16.976 5.91887 17.0953 5.93202C19.1497 5.98595 21.0605 6.9093 22.2673 8.4311C21.3255 8.89229 20.5418 9.58356 20.0033 10.4281C19.4649 11.2726 19.1927 12.2373 19.2172 13.2149C19.2078 13.9624 19.3716 14.7033 19.6978 15.3886C20.0239 16.074 20.505 16.6883 21.1093 17.191C21.6596 17.6711 22.3003 18.0552 23 18.3261C22.8563 18.7207 22.6911 19.1022 22.5158 19.4862C22.1179 20.335 21.6269 21.1445 21.0504 21.9025C20.5053 22.6617 19.8708 23.3639 19.1583 23.9964C18.5084 24.5868 17.6421 24.9351 16.7275 24.9737C15.9522 24.9422 15.1906 24.7757 14.4834 24.4831C13.7208 24.179 12.9013 24.0124 12.0698 23.9925C11.2148 24.0079 10.371 24.1736 9.58434 24.4805C8.90486 24.7611 8.17892 24.9358 7.43651 24.9974L7.32876 25ZM11.8543 5.91887C11.7465 5.91887 11.6388 5.91887 11.531 5.90703C11.5084 5.75047 11.4964 5.59277 11.4951 5.43484C11.5421 4.12103 12.1029 2.86636 13.0755 1.8993C13.6194 1.34352 14.2787 0.892385 15.015 0.572158C15.7011 0.248796 16.4509 0.0542649 17.2203 0C17.2418 0.172305 17.2418 0.340664 17.2418 0.501131C17.2216 1.7943 16.6909 3.03707 15.7477 3.99984C15.291 4.56045 14.7058 5.02275 14.0332 5.35427C13.3606 5.68579 12.6169 5.8785 11.8543 5.91887Z" fill="#002B4E"/>
<path d="M30.4023 6.19531V23H33.0391V17H37.1172C38.7109 17 40.0586 16.4844 41.1367 15.4297C42.2148 14.3867 42.7656 13.1094 42.7656 11.6094C42.7656 10.1094 42.2148 8.83203 41.1367 7.77734C40.0586 6.72266 38.7109 6.20703 37.1172 6.20703L30.4023 6.19531ZM37.1172 8.60938C37.9375 8.60938 38.6523 8.89062 39.2383 9.47656C39.8242 10.0508 40.1172 10.7656 40.1172 11.6094C40.1172 12.4531 39.8242 13.168 39.2383 13.7422C38.6523 14.3164 37.9375 14.5977 37.1172 14.5977H33.0391V8.59766L37.1172 8.60938ZM54.5078 23V15.5586C54.5078 14.3398 54.0508 13.3203 53.1602 12.4883C52.2578 11.6562 51.1094 11.2344 49.7031 11.2344C49.1406 11.2344 48.5898 11.3164 48.0625 11.4688C47.5352 11.6211 47.1133 11.7969 46.7969 11.9844C46.4688 12.1836 46.1641 12.4062 45.8828 12.6523C45.6016 12.8984 45.4141 13.0742 45.332 13.168C45.25 13.2617 45.1914 13.3438 45.1445 13.4023L46.7031 14.9609L47.0195 14.5508C47.207 14.293 47.5469 14.0469 48.0391 13.7891C48.5312 13.5312 49.0938 13.4023 49.7031 13.4023C50.4062 13.4023 50.9805 13.6133 51.4258 14.0234C51.8711 14.4453 52.1055 14.9492 52.1055 15.5586L47.8984 16.2852C46.8555 16.4609 46.0352 16.8711 45.4375 17.5039C44.8398 18.1484 44.5469 18.9453 44.5469 19.8945C44.5469 20.7617 44.9336 21.5469 45.707 22.2266C46.4805 22.9062 47.4531 23.2461 48.625 23.2461C49.0234 23.2461 49.4102 23.1875 49.8086 23.0938C50.1953 22.9883 50.5234 22.8711 50.7812 22.7422C51.0391 22.6133 51.2734 22.4727 51.4961 22.3086C51.7188 22.1445 51.8711 22.0391 51.9414 21.9688C52.0117 21.8984 52.0703 21.8398 52.1055 21.8164V23.0117L54.5078 23ZM48.9883 21.0898C48.3555 21.0898 47.8633 20.9375 47.4883 20.6562C47.1133 20.3633 46.9375 20.0234 46.9375 19.6367C46.9375 19.2266 47.0664 18.8867 47.3359 18.6172C47.5938 18.3359 47.9453 18.1602 48.3789 18.0898L52.1055 17.4922V17.7266C52.1055 18.8047 51.8242 19.625 51.2734 20.2109C50.7227 20.7969 49.9609 21.0898 48.9883 21.0898ZM60.6367 24.1953C60.1914 25.3203 59.5117 25.8828 58.5977 25.8828C58.1875 25.8828 57.7891 25.8008 57.3906 25.6367V27.8047L57.5547 27.8516C57.6836 27.8984 57.8945 27.9453 58.1758 27.9805C58.457 28.0273 58.75 28.0391 59.0781 28.0391C59.9453 28.0391 60.6719 27.7578 61.2578 27.1836C61.8438 26.6211 62.4297 25.625 63.0273 24.1953L68.1953 11.4805H65.6758L62.3125 19.8828L58.9492 11.4805H56.4297L61.1172 23L60.6367 24.1953Z" fill="#002B4E"/>
</svg>
