<svg width="73" height="74" viewBox="0 0 73 74" fill="none" xmlns="http://www.w3.org/2000/svg">
<path fill-rule="evenodd" clip-rule="evenodd" d="M32.201 1.24302C21.0495 3.66902 13.133 14.4605 14.1715 25.82C14.582 30.3105 16.8225 36.5575 19.778 41.454L22.3715 45.75L16.8385 46L11.306 46.25L7.67101 55C5.67151 59.8125 4.02801 64.0315 4.01801 64.375C3.98101 65.659 5.88351 64.9885 6.50001 63.5C7.10501 62.039 7.21051 62 10.5605 62C12.4525 62 14 62.2035 14 62.4515C14 62.7 13.2475 64.669 12.3275 66.8265L10.655 70.75L7.07751 70.897C5.11001 70.9775 3.50001 70.932 3.50001 70.7955C3.50001 70.659 3.76401 69.968 4.08651 69.26C4.84001 67.6065 3.91451 66.337 2.81901 67.5215C1.57451 68.867 0.502512 72.3025 1.13151 72.9315C1.99351 73.7935 72.187 73.738 72.8775 72.875C73.231 72.4325 71.804 68.4505 67.995 59.25L62.613 46.25L57.0565 46.1085C52.062 45.9815 50.6165 45.605 51.9525 44.7795C52.976 44.1465 57.02 36.492 58.1755 33C59.907 27.766 60.2505 23.5725 59.313 19.112C58.326 14.4155 56.429 10.925 53.002 7.49802C49.63 4.12552 46.1015 2.18102 41.64 1.23552C37.5715 0.373523 36.1915 0.374524 32.201 1.24302ZM43.6635 3.97002C51.0115 6.49852 56.2115 12.738 57.467 20.5345C59.029 30.2335 53.2515 42.252 41.518 53.713L36.949 58.176L32.9175 54.213C23.254 44.713 18.0045 36.1215 16.47 27.2935C14.737 17.3245 20.546 7.42952 30.1645 3.96702C33.722 2.68602 39.9355 2.68752 43.6635 3.97002ZM33.185 14.6925C31.319 15.5375 30.6935 16.3935 31.4145 17.1145C31.784 17.484 32.4585 17.3965 33.6715 16.821C38.672 14.448 44.5 18.132 44.5 23.6665C44.5 31.293 34.9785 34.3305 30.7195 28.0625C29.4155 26.144 29.0425 22.289 29.9895 20.5195C30.3415 19.8615 30.281 19.4405 29.773 19.019C28.636 18.0755 27.357 20.528 27.357 23.651C27.357 31.0005 34.708 35.667 41.276 32.4875C47.824 29.3175 48.439 19.866 42.3715 15.661C40.024 14.034 35.656 13.574 33.185 14.6925ZM20 48.217C20 48.3365 19.408 49.799 18.6845 51.467L17.3695 54.5H13.9345C12.0455 54.5 10.5 54.2815 10.5 54.0145C10.5 53.747 11.05 52.2845 11.7225 50.7645L12.945 48H16.4725C18.4125 48 20 48.0975 20 48.217ZM28.596 52.77C31.104 55.393 34.031 58.2325 35.1 59.0795L37.0445 60.619L39.4685 58.575L41.893 56.5305L48.3215 56.3905C53.64 56.274 54.75 56.1205 54.75 55.5C54.75 54.8915 53.784 54.723 49.625 54.6075C46.8065 54.529 44.5 54.3425 44.5 54.193C44.5 54.0435 45.6585 52.589 47.075 50.9605L49.65 48H55.3315H61.0125L62.2565 50.812C62.9405 52.359 63.5 53.8105 63.5 54.0385C63.5 54.266 62.094 54.5195 60.375 54.601C57.9965 54.7145 57.25 54.929 57.25 55.5C57.25 56.084 58.051 56.2825 60.8735 56.397C64.305 56.536 64.537 56.621 65.2485 57.997C65.662 58.7965 66 59.574 66 59.725C66 59.8765 60.951 60 54.7795 60C46.7205 60 43.4565 60.1655 43.1955 60.588C42.971 60.952 44.147 62.333 46.283 64.213C48.1805 65.8835 50.637 68.088 51.7415 69.1125L53.75 70.975L50.668 70.9875L47.586 71L36.7175 61.728C30.7395 56.6285 25.527 52.522 25.1335 52.603C24.729 52.686 22.7725 56.721 20.6365 61.875L16.8555 71H14.874C13.491 71 12.9675 70.8115 13.14 70.375C13.276 70.0315 14.2085 67.7735 15.2125 65.358C16.2165 62.942 16.9035 60.7485 16.7395 60.483C16.575 60.217 14.5175 60 12.167 60C8.29251 60 7.92651 59.918 8.25301 59.125C8.45151 58.6435 8.72651 57.8565 8.86501 57.375C9.08251 56.6185 9.77851 56.5 14.004 56.5H18.8915L19.6505 54.625C21.7885 49.3455 22.5195 48 23.2505 48C23.6825 48 26.088 50.1465 28.596 52.77ZM35.328 63.25L44.171 70.75L32.011 70.884C25.3235 70.958 19.744 70.911 19.613 70.78C19.3565 70.523 19.862 69.1815 23.356 60.8535C24.601 57.885 25.8145 55.5225 26.0525 55.6035C26.29 55.684 30.464 59.125 35.328 63.25ZM68.491 65.875C69.3875 68.006 70.2305 70.0315 70.364 70.375C70.551 70.856 69.047 71 63.825 71H57.0425L52.3965 66.9225C49.841 64.68 47.675 62.655 47.5835 62.4225C47.4915 62.19 51.7915 62 57.139 62H66.8615L68.491 65.875Z" fill="black"/>
</svg>
