<svg width="204" height="204" viewBox="0 0 204 204" fill="none" xmlns="http://www.w3.org/2000/svg">
<path fill-rule="evenodd" clip-rule="evenodd" d="M84.6501 0.05806C72.1879 1.32727 61.5503 4.36741 50.9931 9.6771C41.7425 14.3296 34.3109 19.6948 27.0487 26.9639C13.0086 41.0174 4.19999 58.4083 0.94879 78.4946C0.0578902 83.9997 -0.276826 94.6747 0.253697 100.679C2.64998 127.808 17.0609 152.709 39.467 168.438C52.002 177.238 66.3906 182.685 82.1398 184.591C87.3563 185.223 97.7414 185.224 102.92 184.594C118.354 182.715 132.205 177.522 144.899 168.854C147.963 166.762 152.719 163.064 153.396 162.248C153.592 162.011 153.895 161.817 154.069 161.817C154.242 161.817 163.86 171.302 175.442 182.896C187.024 194.49 196.59 203.944 196.7 203.905C197.028 203.79 203.892 196.983 203.892 196.772C203.892 196.665 194.385 187.061 182.765 175.429C166.62 159.268 161.702 154.19 161.915 153.902C162.067 153.694 163.298 152.155 164.649 150.482C175.64 136.864 182.338 120.818 184.535 102.836C185.159 97.7313 185.155 87.3051 184.527 82.1071C181.422 56.4093 168.648 33.9711 148.385 18.6222C135.901 9.16506 122.329 3.4134 106.407 0.831703C102.478 0.194864 100.976 0.0982642 93.8548 0.0262324C89.4059 -0.0187177 85.2638 -0.00447932 84.6501 0.05806ZM98.5966 10.508C106.008 11.1443 111.684 12.3004 118.401 14.5423C135.716 20.3216 150.198 31.2847 160.446 46.3704C173.559 65.6732 177.807 89.8131 172.091 112.539C169.178 124.12 163.795 134.883 156.102 144.507C153.196 148.142 146.266 154.795 142.24 157.815C130.308 166.764 118.212 171.762 103.059 174.003C98.8482 174.626 86.8802 174.71 82.8371 174.145C59.4146 170.874 40.1986 159.709 26.6147 141.479C8.17389 116.73 5.20831 83.5882 18.9604 55.9383C26.5324 40.7139 38.0701 28.689 53.1311 20.3241C66.481 12.9099 83.5774 9.21867 98.5966 10.508Z" fill="black"/>
</svg>
