<svg width="50" height="50" viewBox="0 0 50 50" fill="none" xmlns="http://www.w3.org/2000/svg">
<path d="M45.9237 11.3285H48.1983C48.7376 11.3285 49.1747 10.8914 49.1747 10.3522C49.1747 9.81296 48.7376 9.37585 48.1983 9.37585H43.935C43.3958 9.37585 42.9587 9.81296 42.9587 10.3522V14.6155C42.9587 15.1547 43.3958 15.5918 43.935 15.5918C44.4742 15.5918 44.9113 15.1547 44.9113 14.6155V13.404C50.0805 22.2942 48.7065 33.8702 41.2869 41.2898C34.7437 47.833 24.9679 49.8292 16.3821 46.3751C15.8818 46.1739 15.3132 46.4161 15.1119 46.9164C14.9105 47.4167 15.153 47.9854 15.6532 48.1866C18.6864 49.4068 21.8557 50 24.997 50C31.5008 50 37.8817 47.4565 42.6677 42.6706C46.9415 38.3968 49.5207 32.726 49.9303 26.7028C50.3008 21.2553 48.8834 15.8545 45.9237 11.3285Z" fill="#000"/>
<path d="M13.0412 44.7022L13.0052 44.6803C12.5451 44.3995 11.9442 44.5447 11.6632 45.005C11.3822 45.4652 11.5276 46.066 11.9878 46.347L12.0282 46.3716C12.1866 46.4677 12.3613 46.5134 12.5338 46.5134C12.8637 46.5134 13.1858 46.3461 13.3694 46.0434C13.649 45.5824 13.5022 44.9819 13.0412 44.7022Z" fill="#000"/>
<path d="M37.0617 5.36106L37.109 5.39025C37.269 5.48916 37.4463 5.53631 37.6215 5.53631C37.9487 5.53631 38.2683 5.3719 38.4529 5.07334C38.7365 4.61476 38.5945 4.01305 38.136 3.72942L38.0865 3.69886C37.6277 3.41592 37.0261 3.55847 36.743 4.01754C36.4601 4.47651 36.6027 5.07803 37.0617 5.36106Z" fill="#000"/>
<path d="M6.18341 34.4431C5.64419 34.4431 5.20708 34.8802 5.20708 35.4194V36.8089C-0.113412 27.8905 1.22064 16.1851 8.70126 8.70446C15.2895 2.1162 25.118 0.141482 33.7401 3.67354C34.2392 3.87808 34.8092 3.63908 35.0137 3.14027C35.218 2.64127 34.9792 2.0711 34.4803 1.86675C29.9761 0.0214912 25.0603 -0.467649 20.2639 0.452345C15.3488 1.39509 10.873 3.77117 7.32054 7.32364C3.04677 11.5975 0.467503 17.2683 0.0578359 23.2914C-0.316195 28.7913 1.13267 34.2434 4.1508 38.7958H1.83055C1.29133 38.7958 0.854226 39.2329 0.854226 39.7722C0.854226 40.3114 1.29133 40.7485 1.83055 40.7485H6.18331C6.72254 40.7485 7.15964 40.3114 7.15964 39.7722V35.4194C7.15974 34.8802 6.72264 34.4431 6.18341 34.4431Z" fill="#000"/>
<path d="M24.9944 42.7579C29.5446 42.7579 34.095 41.0259 37.5591 37.5618C44.4872 30.6336 44.4872 19.3605 37.5591 12.4323C34.685 9.55817 31.0353 7.79766 27.0046 7.34122C23.0934 6.89817 19.0993 7.77618 15.757 9.81299C15.2966 10.0936 15.1508 10.6943 15.4314 11.1548C15.7121 11.6153 16.313 11.7609 16.7733 11.4804C23.0191 7.67405 30.9989 8.63339 36.1784 13.813C42.3453 19.9799 42.3453 30.0141 36.1784 36.181C30.0116 42.3478 19.9773 42.3478 13.8104 36.181C8.62603 30.9966 7.66982 23.012 11.4852 16.7639C11.7662 16.3037 11.621 15.7028 11.1608 15.4218C10.7007 15.1408 10.0998 15.2861 9.81871 15.7462C7.77741 19.0892 6.89637 23.0857 7.33787 26.9997C7.79293 31.0333 9.55364 34.6856 12.4298 37.5618C15.8937 41.0258 20.4441 42.7579 24.9944 42.7579Z" fill="#000"/>
<path d="M38.0546 25.989C38.5938 25.989 39.0309 25.5519 39.0309 25.0127C39.0309 24.4735 38.5938 24.0364 38.0546 24.0364H37.4631C36.9239 24.0364 36.4868 24.4735 36.4868 25.0127C36.4868 25.5519 36.9239 25.989 37.4631 25.989H38.0546Z" fill="#000"/>
<path d="M11.9329 24.0052C11.3936 24.0052 10.9565 24.4424 10.9565 24.9816C10.9565 25.5208 11.3936 25.9579 11.9329 25.9579H12.5243C13.0636 25.9579 13.5007 25.5208 13.5007 24.9816C13.5007 24.4424 13.0636 24.0052 12.5243 24.0052H11.9329Z" fill="#000"/>
<path d="M25.9859 12.5282V11.9368C25.9859 11.3976 25.5488 10.9604 25.0095 10.9604C24.4703 10.9604 24.0332 11.3976 24.0332 11.9368V12.5282C24.0332 13.0675 24.4703 13.5046 25.0095 13.5046C25.5488 13.5046 25.9859 13.0675 25.9859 12.5282Z" fill="#000"/>
<path d="M24.0034 37.4662V38.0576C24.0034 38.5969 24.4405 39.034 24.9797 39.034C25.519 39.034 25.9561 38.5969 25.9561 38.0576V37.4662C25.9561 36.927 25.519 36.4899 24.9797 36.4899C24.4405 36.4899 24.0034 36.9271 24.0034 37.4662Z" fill="#000"/>
<path d="M20.1989 18.8207C19.8176 18.4394 19.1994 18.4394 18.8182 18.8207C18.4369 19.2019 18.4369 19.8201 18.8182 20.2014L22.0601 23.4432C21.8134 23.9071 21.673 24.4358 21.673 24.9969C21.673 26.8284 23.163 28.3184 24.9945 28.3184C26.8259 28.3184 28.316 26.8284 28.316 24.9969C28.316 24.4358 28.1756 23.9071 27.929 23.4432L34.4791 16.8931C34.8604 16.5118 34.8604 15.8936 34.4791 15.5124C34.0979 15.1311 33.4798 15.1311 33.0983 15.5124L26.5481 22.0626C26.0842 21.8159 25.5555 21.6755 24.9945 21.6755C24.4334 21.6755 23.9047 21.8159 23.4408 22.0626L20.1989 18.8207ZM26.3632 24.997C26.3632 25.7517 25.7492 26.3658 24.9944 26.3658C24.2396 26.3658 23.6256 25.7517 23.6256 24.997C23.6256 24.2423 24.2397 23.6282 24.9944 23.6282C25.7491 23.6282 26.3632 24.2423 26.3632 24.997Z" fill="#000"/>
<path d="M13.0935 14.1251C13.6327 14.1251 14.0698 13.688 14.0698 13.1488C14.0698 12.6096 13.6327 12.1725 13.0935 12.1725C12.5543 12.1725 12.1172 12.6096 12.1172 13.1488C12.1172 13.688 12.5543 14.1251 13.0935 14.1251Z" fill="#000"/>
</svg>
