<svg width="64" height="64" viewBox="0 0 64 64" fill="none" xmlns="http://www.w3.org/2000/svg">
<path d="M34.9286 50.2273V50.7273H35.4286V50.2273H34.9286ZM34.9286 33.3617V32.8617H34.4286V33.3617H34.9286ZM27.9503 50.2273H27.4503V50.7273H27.9503V50.2273ZM27.9503 33.3623H28.4503V32.8623H27.9503V33.3623ZM24.464 33.3623H23.964V33.8623H24.464V33.3623ZM24.464 27.5504V27.0504H23.964V27.5504H24.464ZM27.9503 27.5504V28.0504H28.4503V27.5504H27.9503ZM40.1682 16.5H40.6682V16H40.1682V16.5ZM40.1682 22.3127V22.8127H40.6682V22.3127H40.1682ZM34.9365 24.6407L35.4365 24.6421V24.6407H34.9365ZM34.9286 27.5497L34.4286 27.5483L34.4272 28.0497H34.9286V27.5497ZM40.2012 27.5497L40.6984 27.6025L40.7571 27.0497H40.2012V27.5497ZM39.5842 33.3617V33.8617H40.0339L40.0814 33.4145L39.5842 33.3617ZM1.19727 32C1.19727 15.1553 14.8526 1.5 31.6973 1.5V0.5C14.3003 0.5 0.197266 14.603 0.197266 32H1.19727ZM31.6973 62.5C14.8526 62.5 1.19727 48.8447 1.19727 32H0.197266C0.197266 49.397 14.3003 63.5 31.6973 63.5V62.5ZM62.1973 32C62.1973 48.8447 48.542 62.5 31.6973 62.5V63.5C49.0942 63.5 63.1973 49.397 63.1973 32H62.1973ZM31.6973 1.5C48.542 1.5 62.1973 15.1553 62.1973 32H63.1973C63.1973 14.603 49.0942 0.5 31.6973 0.5V1.5ZM35.4286 50.2273V33.3617H34.4286V50.2273H35.4286ZM27.9503 50.7273H34.9286V49.7273H27.9503V50.7273ZM27.4503 33.3623V50.2273H28.4503V33.3623H27.4503ZM24.464 33.8623H27.9503V32.8623H24.464V33.8623ZM23.964 27.5504V33.3623H24.964V27.5504H23.964ZM27.9503 27.0504H24.464V28.0504H27.9503V27.0504ZM27.4503 24.0609V27.5504H28.4503V24.0609H27.4503ZM35.5119 16C32.6378 16 30.5867 16.7252 29.2654 18.1642C27.9521 19.5948 27.4503 21.6342 27.4503 24.0609H28.4503C28.4503 21.7461 28.9329 20.0051 30.0021 18.8405C31.0634 17.6845 32.7931 17 35.5119 17V16ZM40.1682 16H35.5119V17H40.1682V16ZM40.6682 22.3127V16.5H39.6682V22.3127H40.6682ZM37.2577 22.8127H40.1682V21.8127H37.2577V22.8127ZM35.4365 24.6407C35.4365 24.2629 35.4461 23.9639 35.4864 23.7185C35.526 23.4771 35.5901 23.3237 35.6739 23.217C35.8295 23.0188 36.1948 22.8127 37.2577 22.8127V21.8127C36.1434 21.8127 35.3481 22.0126 34.8873 22.5995C34.6629 22.8853 34.555 23.2192 34.4996 23.5564C34.4449 23.8897 34.4365 24.2607 34.4365 24.6407H35.4365ZM35.4286 27.5511L35.4365 24.6421L34.4365 24.6394L34.4286 27.5483L35.4286 27.5511ZM40.2012 27.0497H34.9286V28.0497H40.2012V27.0497ZM40.0814 33.4145L40.6984 27.6025L39.704 27.4969L39.087 33.3089L40.0814 33.4145ZM34.9286 33.8617H39.5842V32.8617H34.9286V33.8617Z" fill="#000"/>
</svg>
