<svg width="14" height="14" viewBox="0 0 14 14" fill="none" xmlns="http://www.w3.org/2000/svg">
<path d="M8.10273 6.96534L13.3068 1.74954C13.4238 1.61267 13.4849 1.4366 13.4779 1.25654C13.471 1.07647 13.3965 0.905658 13.2694 0.778236C13.1422 0.650814 12.9718 0.576166 12.7921 0.569211C12.6125 0.562256 12.4368 0.623505 12.3003 0.740719L7.09619 5.95652L1.89212 0.733564C1.75556 0.61635 1.57989 0.555102 1.40023 0.562057C1.22057 0.569012 1.05014 0.643659 0.923005 0.771081C0.795869 0.898503 0.72139 1.06931 0.71445 1.24938C0.707511 1.42945 0.768622 1.60551 0.885572 1.74238L6.08964 6.96534L0.878433 12.1811C0.803705 12.2453 0.743012 12.3242 0.700163 12.413C0.657315 12.5017 0.633236 12.5984 0.629438 12.697C0.625641 12.7955 0.642207 12.8938 0.678096 12.9856C0.713985 13.0774 0.768423 13.1608 0.837993 13.2305C0.907562 13.3002 0.990761 13.3548 1.08237 13.3907C1.17397 13.4267 1.27201 13.4433 1.37032 13.4395C1.46864 13.4357 1.5651 13.4116 1.65367 13.3686C1.74223 13.3257 1.82098 13.2649 1.88498 13.19L7.09619 7.97416L12.3003 13.19C12.4368 13.3072 12.6125 13.3684 12.7921 13.3615C12.9718 13.3545 13.1422 13.2799 13.2694 13.1524C13.3965 13.025 13.471 12.8542 13.4779 12.6741C13.4849 12.4941 13.4238 12.318 13.3068 12.1811L8.10273 6.96534Z" fill="#002B4E"/>
</svg>
