<svg width="50" height="50" viewBox="0 0 50 50" fill="none" xmlns="http://www.w3.org/2000/svg">
<path d="M37.1669 0.664734H12.8317C6.12239 0.664734 0.664062 6.12306 0.664062 12.8324V37.1676C0.664062 43.8769 6.12239 49.3352 12.8317 49.3352H19.8338C20.4678 49.3352 20.9817 48.8213 20.9817 48.1874C20.9817 47.5534 20.4678 47.0395 19.8338 47.0395H12.8317C7.3884 47.0395 2.95984 42.6109 2.95984 37.1676V12.8324C2.95984 7.38907 7.3884 2.96051 12.8317 2.96051H37.1669C42.6102 2.96051 47.0388 7.38907 47.0388 12.8324V37.1676C47.0388 42.6109 42.6102 47.0395 37.1669 47.0395H30.2414C29.6074 47.0395 29.0935 47.5534 29.0935 48.1874C29.0935 48.8213 29.6074 49.3352 30.2414 49.3352H37.1669C43.8762 49.3352 49.3346 43.8769 49.3346 37.1676V12.8324C49.3346 6.12306 43.8762 0.664734 37.1669 0.664734Z" fill="#000"/>
<path d="M25.811 47.3758C25.5975 47.1623 25.3013 47.0395 24.9995 47.0395C24.6976 47.0395 24.4014 47.1623 24.1879 47.3758C23.9744 47.5893 23.8516 47.8855 23.8516 48.1874C23.8516 48.4893 23.9744 48.7854 24.1879 48.9989C24.4014 49.2125 24.6976 49.3353 24.9995 49.3353C25.3013 49.3353 25.5975 49.2125 25.811 48.9989C26.0245 48.7854 26.1473 48.4893 26.1473 48.1874C26.1473 47.8855 26.0245 47.5893 25.811 47.3758Z" fill="#000"/>
<path d="M15.7991 13.4876C15.3656 13.025 14.6393 13.0014 14.1766 13.4347L14.1257 13.4826C13.6646 13.9176 13.6435 14.6441 14.0787 15.1052C14.3045 15.3446 14.6088 15.4653 14.9138 15.4653C15.1964 15.4653 15.4796 15.3616 15.7013 15.1523L15.7462 15.1102C16.2088 14.6767 16.2326 13.9502 15.7991 13.4876Z" fill="#000"/>
<path d="M25.001 9.15912C22.4798 9.15912 19.9705 9.76647 17.7444 10.9155C17.1811 11.2063 16.9602 11.8987 17.2509 12.4621C17.5418 13.0253 18.2342 13.2462 18.7975 12.9555C20.7265 11.9597 22.8137 11.4549 25.001 11.4549C32.4698 11.4549 38.5461 17.5312 38.5461 25C38.5461 32.4687 32.4698 38.5451 25.001 38.5451C17.5323 38.5451 11.4559 32.4687 11.4559 25C11.4559 22.6561 12.0637 20.3468 13.2137 18.3218C13.5267 17.7706 13.3337 17.0699 12.7823 16.7568C12.231 16.4439 11.5304 16.6368 11.2173 17.1881C9.8715 19.5581 9.16016 22.2594 9.16016 25C9.16016 33.7346 16.2664 40.8409 25.001 40.8409C33.7357 40.8409 40.8419 33.7346 40.8419 25C40.8419 16.2654 33.7357 9.15912 25.001 9.15912Z" fill="#000"/>
<path d="M24.999 14.669C19.3025 14.669 14.668 19.3035 14.668 25C14.668 30.6965 19.3025 35.331 24.999 35.331C30.6955 35.331 35.33 30.6965 35.33 25C35.33 19.3035 30.6955 14.669 24.999 14.669ZM24.999 33.0352C20.5683 33.0352 16.9637 29.4306 16.9637 25C16.9637 20.5694 20.5683 16.9648 24.999 16.9648C29.4296 16.9648 33.0342 20.5694 33.0342 25C33.0342 29.4306 29.4296 33.0352 24.999 33.0352Z" fill="#000"/>
<path d="M40.0651 5.57196C37.6599 5.57196 35.7031 7.52877 35.7031 9.93394C35.7031 12.3391 37.6599 14.2959 40.0651 14.2959C42.4703 14.2959 44.4271 12.3391 44.4271 9.93394C44.4271 7.52877 42.4703 5.57196 40.0651 5.57196ZM40.0651 12.0001C38.9258 12.0001 37.9989 11.0732 37.9989 9.93394C37.9989 8.79466 38.9258 7.86774 40.0651 7.86774C41.2044 7.86774 42.1313 8.79466 42.1313 9.93394C42.1313 11.0732 41.2044 12.0001 40.0651 12.0001Z" fill="#000"/>
</svg>
