<svg width="33" height="32" viewBox="0 0 33 32" fill="none" xmlns="http://www.w3.org/2000/svg">
<path d="M10.382 25.2049C8.50549 25.2049 6.98438 26.7261 6.98438 28.6025C6.98438 30.4789 8.50556 32.0001 10.382 32.0001C12.2584 32.0001 13.7796 30.4789 13.7796 28.6025C13.7796 26.7261 12.2584 25.2049 10.382 25.2049ZM10.382 30.4901C9.33949 30.4901 8.49443 29.645 8.49443 28.6025C8.49443 27.5601 9.33949 26.715 10.382 26.715C11.4244 26.715 12.2695 27.5601 12.2695 28.6025C12.2696 29.645 11.4244 30.4901 10.382 30.4901Z" fill="#000"/>
<path d="M24.7257 25.2049C22.8492 25.2049 21.3281 26.7261 21.3281 28.6025C21.3281 30.4789 22.8493 32.0001 24.7257 32.0001C26.6021 32.0001 28.1233 30.4789 28.1233 28.6025C28.1233 26.7261 26.6022 25.2049 24.7257 25.2049ZM24.7257 30.4901C23.6832 30.4901 22.8382 29.645 22.8382 28.6025C22.8382 27.5601 23.6832 26.715 24.7257 26.715C25.7682 26.715 26.6132 27.5601 26.6132 28.6025C26.6133 29.645 25.7682 30.4901 24.7257 30.4901Z" fill="#000"/>
<path d="M32.3906 5.38553C32.2334 5.21378 32.0183 5.10626 31.7866 5.08349L7.21052 4.74374L6.531 2.66739C6.05229 1.27938 4.75251 0.342333 3.28436 0.326797H0.755028C0.338025 0.326797 0 0.664822 0 1.08183C0 1.49883 0.338025 1.83685 0.755028 1.83685H3.28436C4.10529 1.85499 4.82816 2.38211 5.09646 3.15817L9.89088 17.6169L9.5134 18.4852C9.09235 19.5709 9.2188 20.793 9.85316 21.7695C10.4814 22.7287 11.5384 23.3206 12.6845 23.3551H27.3698C27.7868 23.3551 28.1249 23.0171 28.1249 22.6001C28.1249 22.1831 27.7868 21.8451 27.3698 21.8451H12.6845C12.0372 21.8289 11.4415 21.4884 11.0989 20.939C10.7601 20.3963 10.6906 19.7278 10.9102 19.1269L11.2122 18.4474L27.1055 16.7863C28.8513 16.594 30.2873 15.3243 30.6919 13.6152L32.504 6.02719C32.5857 5.80868 32.5423 5.56293 32.3906 5.38553ZM29.2196 13.2755C28.9745 14.3757 28.0404 15.1872 26.9168 15.2763L11.2122 16.8996L7.7013 6.25379L30.8429 6.59355L29.2196 13.2755Z" fill="#000"/>
</svg>
