<svg width="294" height="303" viewBox="0 0 294 303" fill="none" xmlns="http://www.w3.org/2000/svg">
<path fill-rule="evenodd" clip-rule="evenodd" d="M103.893 0.126205C67.2325 4.10271 40.6895 34.5027 42.279 70.6912C42.73 80.9602 44.9285 89.2997 49.625 98.5617C57.534 114.157 70.9635 125.988 87.2985 131.751C95.289 134.57 100.907 135.49 110.143 135.49C116.798 135.49 119.403 135.274 123.621 134.37C153.392 127.994 174.794 103.945 177.608 73.7057C178.759 61.3362 176.555 49.5687 170.93 38.0617C167.35 30.7392 163.089 24.8807 157.149 19.1172C147.353 9.6112 135.824 3.61571 122.401 1.04771C118.438 0.289206 107.438 -0.258295 103.893 0.126205ZM124.781 10.9777C140.614 15.1337 154.774 26.5162 162.219 41.0712C180.066 75.9607 159.307 118.198 120.712 125.519C115.414 126.524 105.134 126.549 99.5225 125.57C79.5625 122.09 62.229 107.504 54.8945 88.0182C50.3705 75.9997 50.3005 60.9927 54.71 48.4242C60.666 31.4472 74.572 17.7317 91.545 12.0942C98.2245 9.87571 102.539 9.31321 111.393 9.50771C118.515 9.66421 120.685 9.90221 124.781 10.9777ZM229.143 148.453C228.455 148.832 220.58 153.148 211.643 158.046C202.705 162.943 194.268 167.569 192.893 168.325C181.685 174.493 176.461 177.312 176.241 177.312C176.099 177.312 174.05 175.993 171.688 174.382C139.35 152.323 96.765 149.413 61.4845 166.851C44.052 175.467 29.7495 188.166 19.0175 204.558C7.5205 222.118 1.175 242.296 0.301502 264.076L0 271.59L1.2785 273.076L2.557 274.562L95.778 274.36L188.999 274.159L195.446 280.656C202.226 287.488 206.147 290.636 212.836 294.617C217.961 297.667 228.325 302.34 230.699 302.672C232.157 302.876 233.989 302.281 240.199 299.586C252.987 294.037 260.513 289.024 269.143 280.307C279.567 269.777 286.579 257.535 290.393 243.205C292.891 233.819 293.137 230.377 293.14 204.742C293.143 182.779 293.075 180.842 292.268 179.895C290.983 178.387 234.223 148.273 232.143 147.997C231.156 147.865 229.848 148.064 229.143 148.453ZM258.242 171.663L284.221 185.514L284.002 208.288C283.803 228.932 283.686 231.506 282.75 235.812C279.387 251.284 272.708 263.746 262.086 274.368C255.018 281.436 247.528 286.379 236.865 291.01L231.339 293.411L225.058 290.429C209.473 283.03 198.992 273.531 190.57 259.174C188.094 254.952 184.959 247.474 183.622 242.604C181.184 233.715 181.055 232.149 180.797 208.259L180.55 185.456L187.971 181.438C192.053 179.228 198.543 175.686 202.393 173.567C206.243 171.447 211.193 168.737 213.393 167.544C215.593 166.351 220.43 163.682 224.143 161.614C227.855 159.545 231.201 157.844 231.579 157.832C231.956 157.821 243.954 164.045 258.242 171.663ZM123.074 165.553C139.764 167.754 154.956 173.712 168.568 183.394L171.616 185.562L171.629 206.661C171.643 229.601 172.05 235.024 174.411 243.804C175.987 249.667 178.625 256.418 181.193 261.163C182.265 263.144 183.143 264.888 183.143 265.038C183.143 265.189 144.009 265.312 96.1785 265.312H9.215L9.455 262.437C10.357 251.648 11.896 243.587 14.729 234.812C24.1935 205.498 45.538 182.58 73.8305 171.354C80.5025 168.707 92.1665 165.956 100.143 165.149C104.993 164.658 118.033 164.888 123.074 165.553ZM256.643 207.471C255.955 207.831 248.559 213.697 240.208 220.507C231.856 227.317 224.764 232.989 224.446 233.111C224.128 233.233 220.997 229.955 217.488 225.827C213.487 221.12 210.65 218.207 209.876 218.013C206.874 217.259 204.143 219.319 204.143 222.337C204.143 224.444 203.98 224.219 213.837 235.718C221.216 244.327 222.471 245.251 225.236 244.114C225.975 243.81 234.687 236.966 244.595 228.904C260.39 216.053 262.647 214.043 262.92 212.59C263.342 210.342 262.109 208.072 260.083 207.366C258.114 206.679 258.161 206.678 256.643 207.471Z" fill="black"/>
</svg>
