<svg width="40" height="40" viewBox="0 0 40 40" fill="none" xmlns="http://www.w3.org/2000/svg">
<path d="M20 0C8.95374 0 0 8.95374 0 20C0 31.0463 8.95374 40 20 40C31.045 40 40 31.045 40 20C40 8.95374 31.045 0 20 0ZM20 37.5C10.335 37.5 2.50004 29.665 2.50004 20C2.50004 10.335 10.335 2.50004 20 2.50004C29.665 2.50004 37.5 10.335 37.5 20C37.5 29.665 29.665 37.5 20 37.5Z" fill="#000"/>
<path d="M29.1254 12.9912L16.2653 25.7362L10.9141 20.4912C10.4216 20.0025 9.62161 20.0025 9.1291 20.4912C8.63535 20.98 8.63535 21.7712 9.1291 22.2588L15.3778 28.3825C15.8903 28.8337 16.6565 28.8837 17.1628 28.3825L30.9115 14.7587C31.404 14.2712 31.404 13.4787 30.9115 12.9912C30.4178 12.5037 29.6191 12.5037 29.1254 12.9912Z" fill="#000"/>
</svg>
