<svg width="65" height="63" viewBox="0 0 65 63" fill="none" xmlns="http://www.w3.org/2000/svg">
<path d="M37.5454 25.2045L37.2092 25.5746L37.5522 25.8861L37.8889 25.5679L37.5454 25.2045ZM41.3737 21.586L41.7171 21.9494L42.1112 21.577L41.7081 21.2144L41.3737 21.586ZM20.1827 25.4088L19.7391 25.1781L19.5436 25.554L19.8823 25.8085L20.1827 25.4088ZM20.1842 37.1979L19.74 37.4274L20.0112 37.9524L20.4841 37.5981L20.1842 37.1979ZM20.1983 37.1979L19.8978 36.7982L19.5593 37.0528L19.7547 37.4286L20.1983 37.1979ZM41.2838 41.2541L41.6176 41.6263L42.0713 41.2196L41.5838 40.854L41.2838 41.2541ZM37.0034 38.0441L37.3034 37.6441L37.0186 37.4306L36.7236 37.6297L37.0034 38.0441ZM24.5852 33.9005L24.8845 34.301L25.1785 34.0814L25.0571 33.7351L24.5852 33.9005ZM24.5702 28.7063L25.0447 28.8638L25.1579 28.5228L24.8708 28.3068L24.5702 28.7063ZM24.5686 28.7062L24.2681 29.1059L24.8156 29.5175L25.0408 28.8706L24.5686 28.7062ZM20.1842 25.4088L20.4847 25.0092L20.0115 24.6534L19.7399 25.1795L20.1842 25.4088ZM24.5842 33.9004L25.0564 33.736L24.8312 33.0892L24.2837 33.5008L24.5842 33.9004ZM45.0375 28.9105L45.5237 28.7939L45.4318 28.4105H45.0375V28.9105ZM41.2846 41.2541L40.9846 41.6541L41.3124 41.8999L41.6179 41.6268L41.2846 41.2541ZM37.0042 38.0442L36.7237 37.6302L36.1433 38.0236L36.7042 38.4442L37.0042 38.0442ZM39.7774 33.7837L40.2736 33.8455L40.3435 33.2837H39.7774V33.7837ZM32.3018 33.7837H31.8018V34.2837H32.3018V33.7837ZM32.3018 28.9105V28.4105H31.8018V28.9105H32.3018ZM32.3483 0.5C14.7751 0.5 0.5 14.2753 0.5 31.3034H1.5C1.5 14.8593 15.2951 1.5 32.3483 1.5V0.5ZM64.1966 31.3034C64.1966 14.2753 49.9215 0.5 32.3483 0.5V1.5C49.4015 1.5 63.1966 14.8593 63.1966 31.3034H64.1966ZM32.3483 62.1067C49.9215 62.1067 64.1966 48.3314 64.1966 31.3034H63.1966C63.1966 47.7475 49.4015 61.1067 32.3483 61.1067V62.1067ZM0.5 31.3034C0.5 48.3314 14.7751 62.1067 32.3483 62.1067V61.1067C15.2951 61.1067 1.5 47.7475 1.5 31.3034H0.5ZM37.8817 24.8344C36.8325 23.8813 34.9993 22.7494 32.3004 22.7494V23.7494C34.6958 23.7494 36.299 24.7477 37.2092 25.5746L37.8817 24.8344ZM41.0302 21.2227L37.202 24.8411L37.8889 25.5679L41.7171 21.9494L41.0302 21.2227ZM32.3004 18.6719C35.8364 18.6719 38.7776 19.9227 41.0392 21.9577L41.7081 21.2144C39.2673 19.0181 36.0893 17.6719 32.3004 17.6719V18.6719ZM20.6263 25.6394C22.7716 21.5139 27.1832 18.6719 32.3004 18.6719V17.6719C26.8071 17.6719 22.055 20.7244 19.7391 25.1781L20.6263 25.6394ZM20.4841 25.0099L20.483 25.009L19.8823 25.8085L19.8835 25.8094L20.4841 25.0099ZM19.7396 25.1802C18.786 27.0268 18.2373 29.1037 18.2373 31.3034H19.2373C19.2373 29.2724 19.7434 27.3521 20.6281 25.639L19.7396 25.1802ZM18.2373 31.3034C18.2373 33.5034 18.7861 35.5806 19.74 37.4274L20.6285 36.9685C19.7436 35.2552 19.2373 33.3346 19.2373 31.3034H18.2373ZM20.4841 37.5981L24.5684 34.5379L23.9687 33.7376L19.8844 36.7978L20.4841 37.5981ZM23.9681 33.7381L19.8978 36.7982L20.4988 37.5975L24.569 34.5374L23.9681 33.7381ZM19.7547 37.4286C22.0704 41.8817 26.807 44.9348 32.301 44.9348V43.9348C27.1844 43.9348 22.7875 41.0933 20.6419 36.9672L19.7547 37.4286ZM32.301 44.9348C36.0725 44.9348 39.2701 43.7311 41.6176 41.6263L40.95 40.8818C38.8061 42.804 35.8544 43.9348 32.301 43.9348V44.9348ZM41.5838 40.854L37.3034 37.6441L36.7034 38.4442L40.9838 41.6541L41.5838 40.854ZM36.7236 37.6297C35.6655 38.3441 34.2267 38.8573 32.301 38.8573V39.8573C34.4145 39.8573 36.0504 39.2908 37.2832 38.4585L36.7236 37.6297ZM32.301 38.8573C28.9308 38.8573 26.0745 36.7055 25.0574 33.7389L24.1114 34.0632C25.2651 37.4283 28.4975 39.8573 32.301 39.8573V38.8573ZM24.8837 34.3016L24.8845 34.301L24.286 33.4999L24.2852 33.5005L24.8837 34.3016ZM25.0571 33.7351C24.7876 32.9663 24.6331 32.1467 24.6331 31.3034H23.6331C23.6331 32.2693 23.8101 33.2006 24.1134 34.0659L25.0571 33.7351ZM24.6331 31.3034C24.6331 30.4599 24.7877 29.6378 25.0447 28.8638L24.0956 28.5487C23.81 29.4089 23.6331 30.3377 23.6331 31.3034H24.6331ZM24.8708 28.3068L24.8696 28.3058L24.2682 29.1048L24.2695 29.1058L24.8708 28.3068ZM32.3004 22.7494C28.4966 22.7494 25.2656 25.1784 24.0966 28.5411L25.0412 28.8695C26.0732 25.9009 28.9307 23.7494 32.3004 23.7494V22.7494ZM24.0967 28.541L24.0963 28.5419L25.0408 28.8706L25.0411 28.8696L24.0967 28.541ZM24.869 28.3066L20.4843 25.01L19.8834 25.8093L24.2681 29.1059L24.869 28.3066ZM19.7399 25.1795L19.7395 25.1803L20.6281 25.6389L20.6286 25.6381L19.7399 25.1795ZM24.8694 28.3057L20.4847 25.0092L19.8838 25.8084L24.2684 29.105L24.8694 28.3057ZM25.0566 33.7367L25.0564 33.736L24.112 34.0649L24.1122 34.0655L25.0566 33.7367ZM24.2837 33.5008L23.9681 33.7381L24.569 34.5374L24.8847 34.3001L24.2837 33.5008ZM24.5684 34.5379L24.8842 34.3012L24.2846 33.5009L23.9687 33.7376L24.5684 34.5379ZM45.8239 31.5952C45.8239 30.4829 45.7303 29.6552 45.5237 28.7939L44.5513 29.0271C44.7366 29.8 44.8239 30.548 44.8239 31.5952H45.8239ZM41.6179 41.6268C44.2969 39.2317 45.8239 35.7202 45.8239 31.5952H44.8239C44.8239 35.4657 43.3968 38.6951 40.9514 40.8813L41.6179 41.6268ZM36.7042 38.4442L40.9846 41.6541L41.5846 40.8541L37.3042 37.6441L36.7042 38.4442ZM39.2813 33.722C39.1468 34.8025 38.4031 36.4923 36.7237 37.6302L37.2847 38.4581C39.2226 37.1449 40.1066 35.187 40.2736 33.8455L39.2813 33.722ZM32.3018 34.2837H39.7774V33.2837H32.3018V34.2837ZM31.8018 28.9105V33.7837H32.8018V28.9105H31.8018ZM45.0375 28.4105H32.3018V29.4105H45.0375V28.4105Z" fill="#000"/>
</svg>
