<svg width="50" height="44" viewBox="0 0 50 44" fill="none" xmlns="http://www.w3.org/2000/svg">
<path d="M37.621 8.90633L17.0576 21.5714C15.894 22.2897 15.3433 23.7086 15.7182 25.0209L17.9416 32.8334C18.1316 33.4995 18.7243 33.9423 19.4064 33.9423C19.4444 33.9423 19.4827 33.9409 19.5212 33.9381C20.2503 33.8851 20.8273 33.3421 20.9242 32.6182L21.5024 28.3345C21.5803 27.7581 21.858 27.222 22.2837 26.8257L39.2529 11.0518C39.7657 10.5764 39.8335 9.79774 39.411 9.24081C38.9877 8.68338 38.2187 8.53924 37.621 8.90633ZM20.9269 25.3672C20.1644 26.0769 19.6676 27.036 19.5281 28.0679L19.2478 30.1458L17.6338 24.4747C17.5027 24.0153 17.6958 23.5185 18.1031 23.2672L33.1673 13.9891L20.9269 25.3672Z" fill="#000"/>
<path d="M49.1866 0.650612C48.5441 0.106081 47.6575 -0.0438215 46.8723 0.259499L1.47268 17.7734C0.573562 18.1201 -0.00456271 18.9667 2.71305e-05 19.9301C0.00471463 20.8944 0.591336 21.7363 1.49573 22.0751L12.1002 26.033L16.2368 39.3363C16.464 40.0676 17.0373 40.6359 17.7703 40.8564C18.503 41.0767 19.2942 40.9192 19.8856 40.4355L26.0516 35.4088C26.3477 35.1674 26.7705 35.1555 27.0797 35.38L38.2011 43.4543C38.6012 43.7451 39.0734 43.8948 39.551 43.8948C39.8308 43.8948 40.1124 43.8435 40.3827 43.739C41.1138 43.4563 41.6454 42.8296 41.8046 42.0629L49.952 2.87258C50.1231 2.04739 49.8298 1.19602 49.1866 0.650612ZM48.0016 2.4678L39.8543 41.658C39.8248 41.7996 39.7229 41.8585 39.6647 41.8811C39.6061 41.9037 39.4904 41.9288 39.372 41.8427L28.2502 33.768C27.7531 33.4071 27.1685 33.2279 26.585 33.2279C25.9485 33.2279 25.3128 33.4412 24.7933 33.8645L18.6259 38.8923C18.5161 38.9821 18.4022 38.9661 18.3442 38.9487C18.2858 38.9311 18.1816 38.8813 18.1392 38.7449L13.8574 24.9748C13.7659 24.6806 13.5433 24.4452 13.2546 24.3374L2.19358 20.2092C2.02796 20.1472 1.9927 20.018 1.99221 19.9204C1.99173 19.8238 2.02571 19.6951 2.18977 19.6319L47.5895 2.11809C47.5897 2.11799 47.59 2.1179 47.5903 2.1178C47.7377 2.06087 47.8468 2.1263 47.8988 2.17024C47.9509 2.21467 48.0339 2.31233 48.0016 2.4678Z" fill="#000"/>
</svg>
