<svg width="105" height="105" viewBox="0 0 105 105" fill="none" xmlns="http://www.w3.org/2000/svg">
<path fill-rule="evenodd" clip-rule="evenodd" d="M51.9428 1C50.9703 1.9725 50.9428 2.6665 50.9428 26.25V50.5H26.6703H2.39734L1.17034 51.7275C-0.32816 53.2255 -0.38166 54.4525 0.975341 56.178L2.00784 57.4905L26.3503 57.6205L50.6928 57.75L50.8229 80.3425L50.9528 102.936L52.3014 103.996C53.8794 105.237 55.7203 105.016 57.0678 103.424C57.8728 102.472 57.9428 100.593 57.9428 79.9445V57.5H80.6154C101.945 57.5 103.337 57.446 104.115 56.5855C105.405 55.16 105.172 52.753 103.625 51.5365C102.337 50.5235 101.81 50.5 80.1253 50.5H57.9428V26.25C57.9428 2.6665 57.9153 1.9725 56.9428 1C56.3873 0.4445 55.2763 0 54.4428 0C53.6093 0 52.4983 0.4445 51.9428 1Z" fill="black"/>
</svg>
