<svg width="56" height="56" viewBox="0 0 56 56" fill="none" xmlns="http://www.w3.org/2000/svg">
<g clip-path="url(#clip0_356:12500)">
<path d="M20.625 13.125H26.75C27.7149 13.125 28.5 13.9101 28.5 14.875C28.5 15.3582 28.8918 15.75 29.375 15.75C29.8582 15.75 30.25 15.3582 30.25 14.875C30.25 12.9451 28.6799 11.375 26.75 11.375H20.625C20.1425 11.375 19.75 10.9825 19.75 10.5C19.75 10.0175 20.1425 9.625 20.625 9.625H34.625C36.0724 9.625 37.25 8.44736 37.25 7C37.25 5.55264 36.0724 4.375 34.625 4.375H27.625C25.6951 4.375 24.125 2.80492 24.125 0.875C24.125 0.391781 23.7332 0 23.25 0C22.7668 0 22.375 0.391781 22.375 0.875C22.375 3.76983 24.7302 6.125 27.625 6.125H34.625C35.1075 6.125 35.5 6.51755 35.5 7C35.5 7.48245 35.1075 7.875 34.625 7.875H20.625C19.1776 7.875 18 9.05264 18 10.5C18 11.9474 19.1776 13.125 20.625 13.125Z" fill="#000"/>
<path d="M55.125 45.5H36.8446C38.7298 44.4334 40.3354 42.9287 41.5229 41.125H43.75C49.5398 41.125 54.25 36.4148 54.25 30.625C54.25 24.8352 49.5398 20.125 43.75 20.125C43.75 18.6776 42.5724 17.5 41.125 17.5H14.875C13.4276 17.5 12.25 18.6776 12.25 20.125V33.6875C12.25 35.8087 12.7498 37.904 13.6974 39.7855C13.5776 39.948 13.4643 40.1156 13.3577 40.2878C12.0786 37.1879 9.02497 35 5.46875 35H2.625C2.14178 35 1.75 35.3918 1.75 35.875V38.7188C1.75 41.4811 3.0707 43.9399 5.11284 45.5H0.875C0.391781 45.5 0 45.8918 0 46.375C0 49.7523 2.74772 52.5 6.125 52.5H7.08805C7.49448 54.4946 9.2622 56 11.375 56H44.625C46.7596 56 48.513 54.4809 48.9127 52.5H49.875C53.259 52.5 56 49.7623 56 46.375C56 45.8918 55.6082 45.5 55.125 45.5ZM43.75 25.375C46.6448 25.375 49 27.7302 49 30.625C49 33.3449 46.8849 35.875 43.5727 35.875C43.8237 34.3338 43.75 33.9664 43.75 25.375ZM52.5 30.625C52.5 35.4497 48.5747 39.375 43.75 39.375H42.4981C42.7595 38.8114 42.9834 38.2271 43.1664 37.625H43.75C47.6098 37.625 50.75 34.4848 50.75 30.625C50.75 26.7652 47.6098 23.625 43.75 23.625V21.875C48.5747 21.875 52.5 25.8003 52.5 30.625ZM14 20.125C14 19.6425 14.3925 19.25 14.875 19.25H41.125C41.6075 19.25 42 19.6425 42 20.125V33.6875C42 35.7481 41.4691 37.6868 40.5378 39.375H28C27.5168 39.375 27.125 39.7668 27.125 40.25C27.125 40.7332 27.5168 41.125 28 41.125H39.3573C37.1897 43.7923 33.8845 45.5 30.1875 45.5H25.8125C24.177 45.5 22.5594 45.16 21.0736 44.51C22.1207 43.2283 22.75 41.5927 22.75 39.8125V37.625C22.75 37.1418 22.3582 36.75 21.875 36.75H19.6875C17.9073 36.75 16.2717 37.3793 14.99 38.4264C14.34 36.9406 14 35.323 14 33.6875V20.125ZM18.1187 41.3813C17.777 41.0396 17.2231 41.0396 16.8814 41.3813L14 44.2626C14 40.9245 16.6491 38.5 19.6875 38.5H21V39.8125C21 42.8501 18.5768 45.5 15.2374 45.5L18.1186 42.6187C18.4604 42.277 18.4604 41.723 18.1187 41.3813ZM3.5 38.7188V36.75H5.46875C9.20795 36.75 12.25 39.792 12.25 43.5312V44.1875C12.25 44.296 12.7668 44.7794 7.61873 39.6313C7.27705 39.2896 6.72306 39.2896 6.38138 39.6313C6.03958 39.973 6.03958 40.5269 6.38138 40.8686L11.0126 45.5H10.2812C6.54205 45.5 3.5 42.458 3.5 38.7188ZM49.875 50.75C48.5552 50.75 29.1811 50.75 28 50.75C27.5168 50.75 27.125 51.1418 27.125 51.625C27.125 52.1082 27.5168 52.5 28 52.5H47.1015C46.7495 53.4994 45.7897 54.25 44.625 54.25H11.375C10.2342 54.25 9.26111 53.5185 8.89995 52.5H14.875C15.3582 52.5 15.75 52.1082 15.75 51.625C15.75 51.1418 15.3582 50.75 14.875 50.75C13.7931 50.75 7.23723 50.75 6.125 50.75C4.01231 50.75 2.24448 49.2445 1.83794 47.25H54.1632C53.7693 49.2021 52.0361 50.75 49.875 50.75Z" fill="#000"/>
</g>
<defs>
<clipPath id="clip0_356:12500">
<rect width="56" height="56" fill="white"/>
</clipPath>
</defs>
</svg>
