<svg width="43" height="45" viewBox="0 0 43 45" fill="none" xmlns="http://www.w3.org/2000/svg">
<path d="M35.3064 5.10442H28.2536V3.85787C28.2537 1.73057 26.5999 0 24.5673 0H19.2079C17.1752 0 15.5215 1.73057 15.5215 3.85787V5.10451H8.46881C6.00471 5.10451 4 7.20246 4 9.78117V12.4588C4 12.9442 4.37608 13.3378 4.83984 13.3378H7.22475L9.35442 39.8021C9.46881 41.2235 10.0843 42.5378 11.0878 43.5031C12.0911 44.4683 13.3942 45 14.7572 45H29.018C30.381 45 31.6841 44.4683 32.6875 43.5031C33.6908 42.5378 34.3064 41.2234 34.4207 39.8021L36.5504 13.3378H38.9353C39.3991 13.3378 39.7752 12.9442 39.7752 12.4588V9.78117C39.7752 7.20237 37.7705 5.10442 35.3064 5.10442ZM17.2012 3.85787C17.2012 2.69991 18.1014 1.75781 19.2079 1.75781H24.5673C25.6738 1.75781 26.574 2.69991 26.574 3.85787V5.10451H17.2012V3.85787ZM38.0955 11.5799H25.6082C25.1444 11.5799 24.7683 11.9734 24.7683 12.4588C24.7683 12.9441 25.1444 13.3377 25.6082 13.3377H34.8648L32.7469 39.6547C32.5851 41.6664 30.9471 43.2422 29.018 43.2422H14.7572C12.8281 43.2422 11.1902 41.6663 11.0283 39.6547L8.91048 13.3377L20.3867 13.3378C29.5556 13.5001 26.7266 12.9441 26.7266 12.4588C26.7266 11.9734 26.3505 11.5799 25.8867 11.5799H5.67969V9.78108C5.67969 8.17154 6.9308 6.86224 8.46881 6.86224H35.3064C36.8444 6.86224 38.0956 8.17154 38.0956 9.78108L38.0955 11.5799Z" fill="#002B4E"/>
<path d="M17.0959 20.1614C16.7678 19.8183 16.2362 19.8183 15.9081 20.1614C15.5801 20.5046 15.5801 21.0611 15.9081 21.4044L20.6986 26.4178L15.9081 31.4312C15.5801 31.7744 15.5801 32.3309 15.9081 32.6742C16.0721 32.8458 16.287 32.9316 16.5019 32.9316C16.7168 32.9316 16.9318 32.8458 17.0958 32.6742L21.8864 27.6607L26.677 32.6741C26.841 32.8457 27.0559 32.9315 27.2708 32.9315C27.4857 32.9315 27.7007 32.8457 27.8647 32.6741C28.1926 32.3309 28.1926 31.7744 27.8647 31.4311L23.0741 26.4177L27.8647 21.4043C28.1926 21.0611 28.1926 20.5046 27.8647 20.1613C27.5366 19.8182 27.005 19.8182 26.6769 20.1613L21.8864 25.1748L17.0959 20.1614Z" fill="#002B4E"/>
</svg>
