<svg width="168" height="244" viewBox="0 0 168 244" fill="none" xmlns="http://www.w3.org/2000/svg">
<path fill-rule="evenodd" clip-rule="evenodd" d="M5.11463 0.886565C3.98263 1.40056 2.40763 2.67207 1.61463 3.71157C0.354128 5.36407 0.172627 6.02756 0.172627 8.97956C0.172627 11.6081 0.40213 12.6696 1.20863 13.7686C1.77813 14.5451 32.7546 39.4801 70.0451 69.1801C107.336 98.8801 137.977 123.313 138.137 123.474C138.463 123.804 139.539 122.971 60.0271 183.906C28.3216 208.204 1.89563 228.766 1.30213 229.599C-0.183372 231.685 -0.44887 236.079 0.77013 238.395C2.99563 242.622 8.58163 244.622 12.4226 242.565C13.7461 241.857 152.278 135.968 165.084 125.877L167.495 123.977L143.775 105.079C130.729 94.6846 109.282 77.6036 96.1136 67.1216C82.9461 56.6396 59.1226 37.6606 43.1726 24.9466C27.2226 12.2321 13.2726 1.40706 12.1726 0.890563C9.64513 -0.295437 7.72063 -0.296935 5.11463 0.886565Z" fill="black"/>
</svg>
