<svg width="50" height="34" viewBox="0 0 50 34" fill="none" xmlns="http://www.w3.org/2000/svg">
<path d="M46.0938 0.103394H17.7801C17.2407 0.103394 16.8035 0.540601 16.8035 1.07996C16.8035 1.61931 17.2407 2.05652 17.7801 2.05652H46.0938C46.1443 2.05652 46.194 2.06033 46.2437 2.06414L43.5148 4.79294H30.7764C30.237 4.79294 29.7998 5.23015 29.7998 5.76951C29.7998 6.30886 30.237 6.74607 30.7764 6.74607H41.5617L27.9495 20.3583C26.3231 21.9846 23.6769 21.9847 22.0505 20.3583L3.75635 2.06414C3.80596 2.06033 3.85566 2.05652 3.90625 2.05652H9.08203C9.62139 2.05652 10.0586 1.61931 10.0586 1.07996C10.0586 0.540601 9.62139 0.103394 9.08203 0.103394H3.90625C1.75234 0.103394 0 1.85574 0 4.00964V29.9903C0 32.1442 1.75234 33.8966 3.90625 33.8966H46.0938C48.2477 33.8966 50 32.1442 50 29.9903V4.00964C50 1.85574 48.2477 0.103394 46.0938 0.103394ZM1.95312 29.9903V4.00964C1.95312 3.72087 2.01777 3.44753 2.13076 3.20066L15.7228 16.7927L2.02139 30.494C1.97832 30.333 1.95312 30.1647 1.95312 29.9903ZM46.0938 31.9434H3.90625C3.73184 31.9434 3.56357 31.9182 3.40254 31.8752L17.1039 18.1738L20.6695 21.7394C21.8634 22.9333 23.4316 23.5302 25 23.5302C26.5684 23.5302 28.1366 22.9333 29.3306 21.7394L32.8961 18.1738L46.5975 31.8752C46.4364 31.9182 46.2682 31.9434 46.0938 31.9434ZM48.0469 29.9903C48.0469 30.1647 48.0217 30.333 47.9786 30.494L34.2772 16.7928L47.8692 3.20066C47.9822 3.44753 48.0469 3.72087 48.0469 4.00964V29.9903Z" fill="#000"/>
</svg>
