<svg width="56" height="56" viewBox="0 0 56 56" fill="none" xmlns="http://www.w3.org/2000/svg">
<g clip-path="url(#clip0_356:12504)">
<path d="M21.9214 54.3593H14.0108C12.9776 54.3593 12.1369 53.5186 12.1369 52.4853V51.4397C12.1369 50.4064 12.9776 49.5658 14.0108 49.5658H20.6998C21.1528 49.5658 21.5202 49.1985 21.5202 48.7454C21.5202 48.2923 21.1528 47.925 20.6998 47.925H14.0108C12.9776 47.925 12.1369 47.0843 12.1369 46.051V45.0054C12.1369 43.9721 12.9776 43.1315 14.0108 43.1315H20.3938C20.8469 43.1315 21.2142 42.7642 21.2142 42.3111C21.2142 41.858 20.8469 41.4907 20.3938 41.4907H14.0108C12.9776 41.4907 12.1369 40.65 12.1369 39.6168V38.5711C12.1369 37.5378 12.9776 36.6972 14.0108 36.6972H20.0879C20.5409 36.6972 20.9083 36.3299 20.9083 35.8768C20.9083 35.4237 20.5409 35.0564 20.0879 35.0564H14.0108C12.9776 35.0564 12.1369 34.2157 12.1369 33.1825V32.1368C12.1369 31.1042 12.9766 30.264 14.009 30.263C14.0094 30.263 14.0097 30.2631 14.0101 30.2631C14.0108 30.2631 14.0116 30.263 14.0125 30.263H19.7819C20.235 30.263 20.6023 29.8957 20.6023 29.4426C20.6023 28.9895 20.235 28.6222 19.7819 28.6222H14.2254C12.9332 27.8754 12.1369 26.5072 12.1369 25.0042V22.9088C12.1369 22.4557 11.7696 22.0884 11.3165 22.0884C10.8634 22.0884 10.4961 22.4557 10.4961 22.9088V25.0042C10.4961 26.5798 11.1239 28.0504 12.2019 29.1247C11.1806 29.7404 10.4961 30.8601 10.4961 32.1369V33.1826C10.4961 34.2635 10.9869 35.2316 11.757 35.8769C10.9869 36.5222 10.4961 37.4903 10.4961 38.5712V39.6169C10.4961 40.6978 10.9869 41.6659 11.757 42.3112C10.9869 42.9565 10.4961 43.9246 10.4961 45.0055V46.0512C10.4961 47.1321 10.9869 48.1002 11.757 48.7455C10.9869 49.3908 10.4961 50.3588 10.4961 51.4398V52.4854C10.4961 54.4235 12.0728 56.0002 14.0108 56.0002H21.9214C22.3745 56.0002 22.7418 55.6329 22.7418 55.1798C22.7418 54.7267 22.3746 54.3593 21.9214 54.3593Z" fill="#000"/>
<path d="M11.3165 20.2331C11.7696 20.2331 12.1369 19.8658 12.1369 19.4127V17.6617C12.1369 16.0927 13.0024 14.6695 14.3955 13.9479L19.5925 11.2558C19.8647 11.1148 20.0356 10.8339 20.0356 10.5272V8.99188H29.0692V10.5272C29.0692 10.8337 29.2401 11.1148 29.5123 11.2558L34.7094 13.9479C36.1025 14.6696 36.968 16.0927 36.968 17.6617V24.0791C36.968 24.5321 37.3352 24.8995 37.7884 24.8995C38.2416 24.8995 38.6088 24.5321 38.6088 24.0791V17.6617C38.6088 15.477 37.4038 13.4958 35.464 12.4909L30.71 10.0282V8.91979C31.9009 8.63987 32.7906 7.56929 32.7906 6.29416V2.69772C32.7905 1.21016 31.5803 0 30.0928 0H18.697C17.2095 0 15.9994 1.21016 15.9994 2.69772V6.29416C15.9994 7.67945 17.0491 8.82375 18.3948 8.97449V10.0282L13.6409 12.4909C11.7011 13.4957 10.4961 15.477 10.4961 17.6617V19.4127C10.4961 19.8658 10.8634 20.2331 11.3165 20.2331ZM17.6402 6.29416V2.69772C17.6402 2.1149 18.1143 1.64081 18.697 1.64081H30.0928C30.6756 1.64081 31.1497 2.1149 31.1497 2.69772V6.29416C31.1497 6.87698 30.6756 7.35107 30.0928 7.35107H18.697C18.1143 7.35107 17.6402 6.87698 17.6402 6.29416Z" fill="#000"/>
<path d="M45.1042 26.9862C44.8338 26.7028 44.4542 26.5402 44.0625 26.5402H23.619C23.2272 26.5402 22.8477 26.7027 22.5774 26.9861C22.3071 27.2696 22.1627 27.6566 22.1813 28.0478L22.3646 31.9022C22.3862 32.3549 22.7701 32.7051 23.2231 32.6827C23.6756 32.6612 24.0251 32.2769 24.0036 31.8242L23.8303 28.181H43.8513L42.7397 51.5571C42.6649 53.1285 41.3742 54.3593 39.8011 54.3593H27.8804C26.3074 54.3593 25.0166 53.1285 24.9419 51.5571L24.1698 35.3206C24.1483 34.8681 23.7652 34.5204 23.3114 34.5401C22.8588 34.5617 22.5093 34.9459 22.5309 35.3986L23.3029 51.6351C23.4193 54.0828 25.43 56.0001 27.8805 56.0001H39.8012C42.2516 56.0001 44.2624 54.0828 44.3788 51.6351L45.5004 28.0478C45.5188 27.6567 45.3745 27.2697 45.1042 26.9862Z" fill="#000"/>
<path d="M28.1935 52.7183H39.4881C40.3593 52.7183 41.0742 52.0366 41.1155 51.1663L41.8408 35.9159C41.8515 35.6917 41.7699 35.4731 41.6151 35.3107C41.4603 35.1484 41.2457 35.0565 41.0214 35.0565H26.6603C26.4359 35.0565 26.2214 35.1484 26.0665 35.3107C25.9116 35.4731 25.8302 35.6917 25.8408 35.9159L26.5659 51.1663C26.6074 52.0366 27.3222 52.7183 28.1935 52.7183ZM39.4772 51.0775H28.2044L27.9063 44.8078L29.41 44.222C30.7537 43.6986 32.2396 43.8132 33.4872 44.5365C34.4627 45.1021 35.5712 45.3895 36.6823 45.3895C37.4942 45.3895 38.3074 45.236 39.0708 44.9255L39.7835 44.6355L39.4772 51.0775ZM40.161 36.6973L39.8694 42.8292L38.4524 43.4055C37.1113 43.951 35.5629 43.8432 34.3101 43.117C32.6285 42.1419 30.625 41.9875 28.8142 42.6931L27.8241 43.0788L27.5206 36.6972H40.161V36.6973Z" fill="#000"/>
</g>
<defs>
<clipPath id="clip0_356:12504">
<rect width="56" height="56" fill="white"/>
</clipPath>
</defs>
</svg>
