<svg width="69" height="49" viewBox="0 0 69 49" fill="none" xmlns="http://www.w3.org/2000/svg">
<path fill-rule="evenodd" clip-rule="evenodd" d="M62.0772 0.169703C60.6571 0.614376 60.6134 0.655405 42.5855 18.4435L24.8474 35.9459L16.8212 28.0306C9.36581 20.6783 8.73034 20.0855 7.88795 19.6961C5.7467 18.7066 3.46961 19.0193 1.7708 20.536C0.42298 21.7394 -0.243244 23.6541 0.0810324 25.3923C0.412998 27.1716 0.204456 26.9398 11.3962 37.9665C21.1862 47.6122 21.7923 48.183 22.6211 48.5399C23.6705 48.9918 25.123 49.1295 26.0946 48.8693C27.7367 48.4295 27.0333 49.0878 48.0576 28.3121C69.8378 6.78917 68.5939 8.10733 68.9249 6.19916C69.383 3.55763 67.7049 0.98538 64.9934 0.1725C64.2296 -0.0563635 62.8036 -0.0576951 62.0772 0.169703Z" fill="black"/>
</svg>
