<svg width="50" height="50" viewBox="0 0 50 50" fill="none" xmlns="http://www.w3.org/2000/svg">
<g clip-path="url(#clip0_209_10572)">
<path d="M22.7033 38.1176C22.3222 38.4983 22.3222 39.1166 22.7033 39.4981C23.0851 39.8792 23.7031 39.8792 24.0838 39.4981C24.4657 39.1166 24.4657 38.4983 24.0838 38.1176C23.7031 37.7357 23.0851 37.7357 22.7033 38.1176Z" fill="#000"/>
<path d="M47.7468 36.4216L40.3325 30.117C40.2982 30.088 40.262 30.0613 40.2242 30.0373C38.2791 28.7991 35.7816 29.0733 34.1508 30.7037L30.1084 34.7458C29.8284 35.0262 29.4107 35.109 29.0445 34.9579C24.4798 33.0696 20.7299 30.2269 17.8991 26.5095C15.7403 23.6748 14.9621 21.4222 14.8595 21.1048C14.8473 21.0369 14.8278 20.9694 14.8004 20.9034C14.6489 20.5372 14.7317 20.1202 15.0125 19.8403L19.0545 15.7971C20.6853 14.1663 20.9592 11.6688 19.721 9.72367C19.711 9.70803 19.7007 9.69277 19.6901 9.67752L14.3358 2.23695C12.6512 -0.376498 8.98182 -0.771319 6.7796 1.43052L5.97012 2.24C5.96974 2.24077 5.96898 2.24153 5.96821 2.24191L3.0782 5.13192C-0.367997 8.5785 -0.931809 13.7573 1.44818 20.1096C3.48675 25.5508 7.56772 31.506 12.9392 36.8774C18.4377 42.3759 24.5538 46.5324 30.1606 48.5813C35.7103 50.6088 41.6135 50.8587 45.7917 46.6801L48.5173 43.9548C50.7097 41.7622 50.327 38.1168 47.7468 36.4216ZM39.1225 31.6513L46.5303 37.9505C46.5642 37.9795 46.6005 38.0062 46.6382 38.0302C48.2206 39.0377 48.4601 41.2502 47.136 42.5739L46.9339 42.7765L34.2992 33.3168L35.5317 32.0847C36.4949 31.1211 37.9628 30.9467 39.1225 31.6513ZM12.7042 3.31002C12.7141 3.32566 12.7244 3.34131 12.7351 3.35618L18.0871 10.7941C18.8142 11.9579 18.646 13.4438 17.6736 14.4161L16.4792 15.6109L7.93126 3.04071L8.16052 2.81144C9.48994 1.48202 11.7006 1.73341 12.7042 3.31002ZM30.8305 46.7468C25.4853 44.7937 19.6218 40.7982 14.3201 35.4965C9.14128 30.3181 5.21939 24.6101 3.27656 19.4244C1.81821 15.5319 0.839736 10.1322 4.45912 6.51323L6.52554 4.44642L15.0735 17.0166L13.6319 18.4589C12.8118 19.2776 12.5539 20.4891 12.9632 21.5679C13.2715 22.8329 14.6898 25.4585 16.1206 27.3933C18.2264 30.2406 22.0483 34.177 28.2979 36.7626C29.3962 37.217 30.6485 36.9675 31.4893 36.1271L32.9042 34.7118L45.5388 44.1715L44.4108 45.2991C40.5309 49.1795 34.8844 48.2281 30.8305 46.7468Z" fill="#000"/>
<path d="M20.8714 35.7861C19.8399 34.8816 18.0558 33.326 17.1162 32.3593C14.8121 29.9916 12.3947 27.1214 10.9574 25.0477C10.6503 24.6044 10.0418 24.4938 9.59857 24.8013C9.15531 25.1084 9.04506 25.7168 9.35215 26.1601C11.1649 28.7754 13.8283 31.7807 15.7162 33.7208C16.708 34.7416 18.5074 36.311 19.5835 37.2544C19.9883 37.6091 20.6051 37.5702 20.9618 37.164C21.3173 36.7588 21.2769 36.1416 20.8714 35.7861Z" fill="#000"/>
</g>
<defs>
<clipPath id="clip0_209_10572">
<rect width="50" height="50" fill="white"/>
</clipPath>
</defs>
</svg>
