<?xml version="1.0" standalone="no"?>
<!DOCTYPE svg PUBLIC "-//W3C//DTD SVG 20010904//EN"
 "http://www.w3.org/TR/2001/REC-SVG-20010904/DTD/svg10.dtd">
<svg version="1.0" xmlns="http://www.w3.org/2000/svg"
 width="86.000000pt" height="86.000000pt" viewBox="0 0 86.000000 86.000000"
 preserveAspectRatio="xMidYMid meet">
<metadata>
Created by potrace 1.14, written by Peter Selinger 2001-2017
</metadata>
<g transform="translate(0.000000,86.000000) scale(0.100000,-0.100000)"
fill="#000000" stroke="none">
<path d="M136 767 c-8 -12 -42 -115 -76 -229 l-62 -207 20 -33 c46 -74 54 -77
195 -79 l127 -1 0 -29 c0 -23 -7 -32 -38 -48 -49 -25 -64 -44 -60 -73 l3 -23
189 0 c179 0 189 1 192 19 4 30 -13 54 -56 76 -33 17 -40 26 -40 50 l0 30 90
0 c79 0 91 2 100 20 16 30 130 409 130 433 0 11 -11 35 -25 53 -53 69 -26 65
-366 64 -307 -1 -309 -1 -323 -23z m126 -62 c-8 -30 -20 -55 -26 -56 -6 0 -33
-1 -59 -2 l-49 -2 5 30 c3 17 10 42 16 58 10 25 14 27 69 27 l59 0 -15 -55z
m173 28 c-3 -15 -12 -41 -19 -57 -12 -30 -16 -31 -69 -30 -32 0 -60 3 -63 7
-3 3 2 28 11 56 l17 51 65 0 65 0 -7 -27z m148 -25 c-8 -29 -17 -55 -18 -57
-6 -5 -114 -6 -119 0 -3 3 2 28 11 57 l17 52 62 0 63 0 -16 -52z m182 43 c3
-5 -3 -31 -13 -57 l-17 -48 -59 -1 c-32 0 -63 3 -68 6 -7 4 -5 24 7 58 l17 51
63 0 c35 0 66 -4 70 -9z m55 -80 c0 -9 -21 -83 -46 -166 -25 -82 -53 -174 -61
-203 l-16 -52 -302 0 c-289 0 -303 1 -320 20 -18 20 -17 20 277 20 227 0 298
3 306 13 6 7 36 96 66 197 72 236 63 215 81 200 8 -7 15 -20 15 -29z m-590
-65 c0 -5 -8 -33 -17 -63 l-17 -53 -58 0 c-32 0 -58 3 -58 8 0 10 28 101 34
111 8 12 116 9 116 -3z m165 -7 c-3 -9 -11 -36 -18 -60 l-13 -44 -67 -3 c-37
-2 -67 -1 -67 1 0 6 32 112 36 119 2 3 33 6 69 5 56 -1 64 -4 60 -18z m155 9
c0 -5 -7 -34 -16 -64 l-15 -54 -65 0 c-36 0 -63 3 -61 8 3 4 12 32 21 63 l16
56 60 1 c35 0 60 -4 60 -10z m161 -52 l-16 -61 -73 -3 c-39 -2 -72 -1 -72 1 0
6 32 112 36 118 2 4 35 6 73 6 l69 0 -17 -61z m-533 -128 c-5 -18 -14 -50 -20
-70 l-10 -38 -59 0 c-33 0 -59 4 -59 8 0 11 31 115 37 125 2 4 31 7 63 7 l59
0 -11 -32z m172 28 c0 -2 -9 -34 -20 -70 l-21 -66 -64 0 c-36 0 -65 3 -65 8 0
7 25 94 35 120 3 8 27 12 70 12 36 0 65 -2 65 -4z m148 -28 c-5 -18 -14 -50
-20 -70 l-10 -38 -64 0 -63 0 15 48 c8 26 17 57 20 70 6 20 12 22 69 22 l64 0
-11 -32z m182 28 c0 -2 -9 -34 -20 -70 l-21 -66 -69 0 c-39 0 -70 4 -70 8 0 5
7 31 16 58 9 27 17 55 20 62 2 8 26 12 74 12 38 0 70 -2 70 -4z m-182 -261 c8
-54 14 -63 51 -80 39 -17 56 -38 45 -56 -3 -5 -77 -9 -165 -9 l-160 0 3 22 c2
14 15 28 33 37 49 23 65 42 65 78 l0 34 62 -3 c54 -3 63 -6 66 -23z"/>
</g>
</svg>
