<svg width="71" height="71" viewBox="0 0 71 71" fill="none" xmlns="http://www.w3.org/2000/svg">
<g clip-path="url(#clip0)">
<path d="M10 32C9.35593 32 9 31.6572 9 31V27C9 15.8403 18.0642 7 29 7C29.6441 7 30 7.34278 30 8C30 8.65722 29.6441 9 29 9C19.3507 9 11 17.1531 11 27V31C11 31.6572 10.6441 32 10 32Z" fill="#59AC80"/>
<path d="M11.6037 30.8815C11.2477 30.8815 10.8014 31.1482 10.5622 30.8815L5.35481 25.2074C4.93545 24.7413 4.83089 23.6876 5.35481 23.316C5.87818 22.9419 7.01841 22.8499 7.43778 23.316L12.6452 28.9901C13.0645 29.4562 13.1691 30.5099 12.6452 30.8815C12.4194 31.0408 11.8696 30.8815 11.6037 30.8815Z" fill="#59AC80"/>
<path d="M10.3961 30.8815C10.1297 30.8815 9.57819 31.0408 9.3546 30.8815C8.83122 30.5089 8.93523 29.4562 9.3546 28.9901L14.5622 23.316C14.981 22.8499 16.1207 22.9419 16.6452 23.316C17.1691 23.6886 17.0646 24.7413 16.6452 25.2074L11.4376 30.8815C11.1968 31.1482 10.7532 30.8815 10.3961 30.8815Z" fill="#59AC80"/>
<path d="M41 64C40.3559 64 40 63.6572 40 63C40 62.3428 40.3559 62 41 62C50.6493 62 59 53.8463 59 44V40C59 39.3428 59.3559 39 60 39C60.6441 39 61 39.3428 61 40V44C61 55.1597 51.9358 64 41 64Z" fill="#59AC80"/>
<path d="M65.604 46.8815C65.2474 46.8815 64.8021 47.1482 64.5624 46.8815L59.3544 41.207C58.9356 40.7408 58.831 39.6871 59.3544 39.3155C59.8784 38.9424 61.0182 38.8498 61.4376 39.3155L66.6456 44.99C67.0644 45.4561 67.169 46.5098 66.6456 46.8815C66.4197 47.0408 65.8699 46.8815 65.604 46.8815Z" fill="#59AC80"/>
<path d="M55.3963 46.8815C55.1299 46.8815 54.5784 47.0408 54.3548 46.8815C53.8309 46.5089 53.9354 45.4562 54.3548 44.9901L59.5624 39.3158C59.9817 38.8493 61.1204 38.9428 61.6454 39.3158C62.1688 39.6884 62.0648 40.7412 61.6454 41.2072L56.4378 46.8815C56.1976 47.1482 55.7534 46.8815 55.3963 46.8815Z" fill="#59AC80"/>
<path d="M20 61H13C12.3559 61 12 60.6704 12 60C12 59.3296 12.3559 59 13 59H20C21.2871 59 23 57.3396 23 56C23 54.6609 21.2871 54 20 54H16C13.4263 54 11 51.6787 11 49C11 46.3213 13.4263 44 16 44H23C23.6441 44 24 44.3296 24 45C24 45.6704 23.6441 46 23 46H16C14.7129 46 13 47.6604 13 49C13 50.3391 14.7129 51 16 51H20C22.5737 51 25 53.3213 25 56C25 58.6787 22.5737 61 20 61Z" fill="#59AC80"/>
<path d="M18 63C17.4481 63 17 62.6441 17 62V43C17 42.3559 17.4481 42 18 42C18.5519 42 19 42.3559 19 43V62C19 62.6441 18.5519 63 18 63Z" fill="#59AC80"/>
<path d="M18 71C8.07495 71 0 62.9256 0 53C0 43.075 8.07495 35 18 35C27.925 35 36 43.075 36 53C36 62.9256 27.925 71 18 71ZM18 37C9.39825 37 2 44.3988 2 53C2 61.6017 9.39825 69 18 69C26.6017 69 34 61.6017 34 53C34 44.3988 26.6017 37 18 37Z" fill="#59AC80"/>
<path d="M68 32H39C38.3418 32 38 31.6556 38 31V14C38 13.3444 38.3418 13 39 13H68C68.6582 13 69 13.3444 69 14V31C69 31.6556 68.6582 32 68 32ZM40 30H67V15H40V30Z" fill="#59AC80"/>
<path d="M71 15H37C36.3375 15 36 14.6441 36 14V9C36 8.35592 36.3375 8 37 8H71C71.6625 8 72 8.35592 72 9V14C72 14.6441 71.6625 15 71 15ZM38 13H70V10H38V13Z" fill="#59AC80"/>
<path d="M55 10H51C49.0154 10 47 8.92958 47 7C47 5.06989 49.0154 3 51 3H55C56.9846 3 59 5.06989 59 7C59 8.92958 56.9846 10 55 10ZM51 5C50.3375 5 49 6.35698 49 7C49 7.64248 50.3375 8 51 8H55C55.6625 8 57 7.64248 57 7C57 6.35698 55.6625 5 55 5H51Z" fill="#59AC80"/>
<path d="M68.0007 10H56.0091C55.3498 10 55.0098 9.62108 55.0098 9C55.0098 8.44072 55.422 8.07982 56.0091 8C56.6018 7.92018 57.0084 7.55877 57.0084 7C57.0084 6.52827 56.4908 6.15862 56.0091 6C55.6511 5.88155 55.1208 5.34195 55.0098 5C54.8972 4.65805 55.7834 4.28788 56.0091 4C56.844 2.94015 58.1534 1 62.0049 1C63.5313 1 64.8245 1.16108 66.0021 2C67.6165 3.15101 69 5.01419 69 7V9C69 9.62108 68.66 10 68.0007 10ZM59.007 8H67.0014V7C67.0014 5.71407 66.0251 4.72768 65.0028 4C64.2489 3.46338 62.9983 3 62.0049 3C60.156 3 58.7901 3.43608 58.0077 4C58.6075 4.60975 59.007 6.13378 59.007 7C59.007 7.39242 59.1421 7.64672 59.007 8Z" fill="#59AC80"/>
<path d="M50.9909 10H38.9993C38.34 10 38 9.62108 38 9V7C38 5.01316 39.3835 3.15101 40.9979 2C42.1771 1.16108 43.4687 1 44.9951 1C48.8466 1 50.1571 2.93912 50.9909 4C51.2166 4.28685 52.1028 4.65702 51.9902 5C51.8781 5.34195 51.349 5.88207 50.9909 6C50.5092 6.15759 49.9916 6.52827 49.9916 7C49.9916 7.55877 50.3982 7.92018 50.9909 8C51.578 8.07982 51.9902 8.44123 51.9902 9C51.9902 9.62108 51.6513 10 50.9909 10ZM39.9986 8H47.993C47.8579 7.64672 47.993 7.39242 47.993 7C47.993 6.13378 48.3914 4.60975 48.9923 4C48.2099 3.43608 46.844 3 44.9951 3C44.0017 3 42.7522 3.46235 41.9972 4C40.9749 4.72665 39.9986 5.7151 39.9986 7V8Z" fill="#59AC80"/>
<path d="M57 32H50C49.3794 32 49 31.6556 49 31V14C49 13.3444 49.3794 13 50 13H57C57.6206 13 58 13.3444 58 14V31C58 31.6556 57.6206 32 57 32ZM51 30H56V15H51V30Z" fill="#59AC80"/>
</g>
<defs>
<clipPath id="clip0">
<rect width="71" height="71" fill="white"/>
</clipPath>
</defs>
</svg>
