<svg width="72" height="72" viewBox="0 0 72 72" fill="none" xmlns="http://www.w3.org/2000/svg">
<path d="M14.8901 64C14.1418 64 13.4089 63.5769 13.0901 63.0284C12.7557 62.4523 13.4187 61.4225 13.9901 61.0853C14.5618 60.7481 14.5557 61.4811 14.8901 62.0569C14.9967 62.2404 15.7089 61.9287 15.7901 62.0569C16.3044 62.8677 15.8238 64 14.8901 64V64Z" fill="#59AC80"/>
<path d="M33.5503 72H29.5763C24.4551 72 20.3324 69.5954 16.6605 66C16.2181 65.5669 16.2301 65.4454 16.6605 65C17.0906 64.5548 17.2113 64.5666 17.654 65C20.9062 68.1843 25.0404 70 29.5763 70H33.5503C38.6208 70 43.8721 67.6063 47.4596 64L68.3235 42C70.2917 39.8974 68.6916 37 66.3365 37C63.4325 37 60.4481 37.9434 58.3883 40L52.4272 48C50.6244 50.158 46.4661 48.2171 46.4661 45V39C46.4661 38.7695 46.5686 40.473 54.4142 11C55.0775 8.50573 53.0123 6 50.4402 6C48.8162 6 47.0161 7.08356 46.4661 9L38.5179 36C38.1628 37.2479 36.5309 37.2963 36.5309 36V6C36.5309 2.47973 32.0209 0.54286 29.5763 3C28.8387 3.74363 28.5827 4.94855 28.5827 6V35C28.5827 36.3096 26.9318 36.2631 26.5957 35L19.6411 11C19.3703 9.98441 19.5525 8.52594 18.6475 8C16.0289 6.47858 12.6864 9.00117 12.6864 12C12.6864 12.737 12.2303 10.1606 19.6411 38C19.9777 39.2649 18.3035 40.1325 17.654 39L8.71234 23C7.02299 20.0567 1.7577 21.5247 1.7577 25C1.7577 25.5875 2.45702 26.4871 2.75122 27L8.71234 38C11.2604 42.4437 12.6864 46.8713 12.6864 52C12.6864 53.6823 13.2114 55.4008 13.6799 57C13.8544 57.596 13.2785 58.8242 12.6864 59C12.0954 59.1762 10.8741 58.596 10.6994 58C10.1705 56.1941 10.6994 53.8979 10.6994 52C10.6994 47.2656 9.07751 43.102 6.7253 39L0.764182 28C-0.803772 25.2655 0.130235 21.524 2.75122 20C5.41789 18.4489 8.16431 19.3138 9.70586 22L14.6735 30L10.6994 13C9.81231 9.68181 11.4163 6.87623 14.6735 6C17.9524 5.11434 21.7417 6.697 22.6216 10L26.5957 27V6C26.5957 2.60503 29.1358 0 32.5568 0C35.9461 0 38.5179 2.58816 38.5179 6V28L44.479 9C45.2011 6.30478 47.6676 4 50.4402 4C54.4895 4 57.4406 8.09133 56.4013 12L48.4531 39V45C48.4531 45.9938 49.7389 46.6653 50.4402 46C54.646 40.9866 57.3426 39.053 57.3948 39C59.8806 36.4979 62.8202 35 66.3365 35C70.7443 35 72.6302 40.6464 69.317 44C47.7859 66.8367 48.4724 65.9803 48.4531 66C44.4423 70.0375 39.2223 72 33.5503 72V72Z" fill="#59AC80"/>
<path d="M29.9994 65C29.3739 65 29 64.6223 29 64.0005C29 55.0071 36.0359 47.1949 44.991 46.0092C45.6131 45.9281 45.908 46.3924 45.9904 47.0087C46.0731 47.6251 45.611 47.9262 44.991 48.0082C37.1568 49.0455 30.9989 56.1311 30.9989 64.0005C30.999 64.6223 30.625 65 29.9994 65V65Z" fill="#59AC80"/>
</svg>
