<svg width="35" height="36" viewBox="0 0 35 36" fill="none" xmlns="http://www.w3.org/2000/svg">
<path d="M34 0H1C0.496506 0 0 0.486446 0 0.999971V34.999C0 35.5126 0.496506 35.999 1 35.999H12C12.4978 35.9931 12.9825 35.4799 13 34.999C13.0452 33.7489 13 33.2076 13 31.9991C12.1117 32.0413 10.8385 32.0484 10 31.9991C8.15069 31.8905 6.737 30.8461 6 28.9992C5.56343 27.905 5.02451 26.6237 4 25.9992C3.80868 25.8825 4.14639 26.1738 4 25.9992C3.80868 25.7716 3.6977 25.0618 4 24.9993C4.30497 24.936 4.69926 24.9419 5 24.9993C6.18116 25.2254 6.37478 25.9943 7 26.9992C8.23627 28.9873 10.8591 29.9173 13 28.9992C13.1194 28.948 12.9775 29.1124 13 28.9992C13.1726 28.1191 13.3501 26.7028 14 25.9992C13.2775 25.8627 12.6564 26.1545 12 25.9992C10.11 25.5532 8.24162 24.5931 7 22.9993C5.98699 21.6993 6.21294 19.6192 6 17.9995C5.66651 15.4625 5.2918 14.027 7 11.9997C7.08631 11.8972 7.0384 11.1273 7 10.9997C6.57219 9.57394 6.57598 8.40963 7 6.9998C7.22251 6.25939 7.25921 5.89665 8 5.99983C8.0453 6.00604 7.95508 5.99203 8 5.99983C9.48494 6.25041 11.7409 7.2124 13 7.99977C13.1693 8.10567 12.814 8.04591 13 7.99977C16.0072 7.2555 18.9931 7.25588 22 7.99977C22.1745 8.0428 22.8331 8.08894 23 7.99977C23.6845 7.63479 24.3067 7.34582 25 6.9998C25.8065 6.59762 26.0854 5.98316 27 5.99983C27.1601 6.00293 27.9464 5.85552 28 5.99983C28.5503 7.48685 28.4385 9.45214 28 10.9997C27.9532 11.1649 27.9129 11.8368 28 11.9997C28.4328 12.8095 28.7262 13.1406 29 13.9996C29.8347 16.618 30.1363 19.5385 29 21.9994C27.9588 24.2551 26.2858 25.4097 24 25.9992C23.228 26.1982 21.8328 25.8324 21 25.9992C22.0914 27.162 22.0194 28.5129 22 29.9991C21.9799 31.5323 22.0008 33.4654 22 34.999C21.9996 35.7417 22.4452 35.9749 23 35.999C22.9996 36.0013 35 35.999 35 35.999V0.999971C34.9999 0.486446 34.5031 0 34 0Z" fill="#59AC80"/>
</svg>
