<svg width="25" height="24" viewBox="0 0 25 24" fill="none" xmlns="http://www.w3.org/2000/svg">
<path d="M25 4C24.0703 4.40154 23.0328 4.87077 22 5C23.0625 4.37538 23.6187 3.18308 24 2C23.0094 2.58154 22.1656 3.77077 21 4C20.0594 3.01385 18.4625 2 17 2C14.1625 2 12 4.22 12 7C12 7.4 11.9156 7.63385 12 8C7.73906 7.79538 4.53281 6.06308 2 3C1.55781 3.75538 1 4.06923 1 5C1 6.74769 1.6375 9.10308 3 10C2.17656 9.98462 1.68438 9.37077 1 9C1 9.01538 1 8.98 1 9C1 11.4523 2.67031 13.5308 5 14C4.58281 14.1123 4.47188 14 4 14C3.67188 14 3.31094 14.0677 3 14C3.66406 15.9985 5.75938 17.9523 8 18C6.25625 19.3431 3.39688 20 1 20C0.579687 20 0.403125 20.0508 0 20C2.27031 21.4415 5.09844 22 8 22C17.4312 22 22 14.6677 22 8C22 7.77692 22.0109 7.21385 22 7C23.0172 6.28923 24.3031 5.02154 25 4Z" fill="#59AC80"/>
</svg>
