<svg width="72" height="72" viewBox="0 0 72 72" fill="none" xmlns="http://www.w3.org/2000/svg">
<path d="M15.8739 69.9924L13.9748 67.0978C13.5419 66.4651 12.6856 65.6839 12.0757 66.133C11.4658 66.5821 10.693 67.43 11.1261 68.0627L13.0252 70.9573C13.2893 71.3432 14.5003 71.9221 14.9243 71.9221C15.1955 71.9221 14.6864 72.0973 14.9243 71.9221C15.5342 71.473 16.307 70.6252 15.8739 69.9924Z" fill="#59AC80"/>
<path d="M31.9644 69.9954L29.9667 59.02C28.8369 53.692 25.542 49.0867 20.9767 46.049L15.9822 43.0557C13.9932 41.7326 11.6513 42.3761 9.98888 44.0535V27.0915C9.98888 24.8723 8.18271 22.5835 5.99333 22.1026C4.5803 21.792 3.12664 22.2042 1.99778 23.1004C0.869054 23.9966 0 25.6594 0 27.0915V49.0423C0 51.8925 1.32925 53.7024 2.99667 56.0267L4.99444 60.0178C5.27095 60.4032 5.54936 61.0155 5.99333 61.0155C6.27721 61.0155 6.74308 60.1927 6.99222 60.0178C7.63074 59.5692 7.44569 58.6542 6.99222 58.0222L4.99444 55.0289C3.66947 53.182 2.99667 51.3073 2.99667 49.0423V27.0915C2.99667 26.5151 3.54123 25.4568 3.99555 25.0959C4.44974 24.7352 4.42526 24.9709 4.99444 25.0959C5.87572 25.2894 6.99222 26.1981 6.99222 27.0915V44.0535C6.99222 46.4969 7.34186 49.2267 8.99 51.0379C9.06061 51.1216 8.91328 50.9575 8.99 51.0379C9.93168 52.0252 11.9428 52.9345 12.9855 54.0312L13.9844 56.0267C13.9891 56.0316 13.9796 56.0219 13.9844 56.0267C15.2333 57.341 15.9629 58.002 15.9822 58.0222C16.5181 58.587 17.4091 58.5527 17.98 58.0222C18.5509 57.4917 18.5163 56.5916 17.98 56.0267C17.9542 55.9995 16.8789 54.0293 14.9833 52.0356L10.9878 49.0423C10.9795 49.0336 10.996 49.051 10.9878 49.0423C10.2255 48.1401 10.1887 46.9417 10.9878 46.049C11.6946 45.2596 13.1 44.4629 13.9844 45.0513L18.9789 49.0423C22.9277 51.6697 25.993 55.4096 26.97 60.0178L28.9678 70.9932C29.108 71.6545 30.3089 71.991 30.9655 71.991C31.062 71.991 30.8674 72.0113 30.9655 71.991C31.732 71.8318 32.1252 70.7538 31.9644 69.9954Z" fill="#59AC80"/>
<path d="M10.8678 63.0638C10.4301 62.4399 9.65692 61.6893 9.04408 62.1345C8.43124 62.5796 7.69498 63.3694 8.13222 63.9932C8.39835 64.3727 9.53029 64.9225 9.95594 64.9225C10.23 64.9225 9.71584 65.0969 9.95594 64.9225C10.5686 64.4773 11.305 63.6876 10.8678 63.0638Z" fill="#59AC80"/>
<path d="M70.0022 23.0987C68.8735 22.2037 67.419 21.7926 66.0067 22.1023C63.8173 22.5823 62.0111 24.8681 62.0111 27.0843V44.0231C60.3488 42.3479 58.0066 41.7053 56.0178 43.0267L51.0233 46.0159C46.4579 49.0493 43.1631 53.6484 42.0333 58.9691L40.0356 69.9295C39.8748 70.6869 40.268 71.7634 41.0345 71.9223C41.1326 71.9427 40.9382 71.9223 41.0345 71.9223C41.6913 71.9223 42.892 71.5863 43.0322 70.9259L45.03 59.9655C46.0071 55.3638 49.0723 51.6287 53.0211 49.0051L58.0156 45.0195C58.8997 44.4318 60.3051 45.2276 61.0122 46.0159C61.8103 46.9062 61.7717 48.1041 61.0122 49.0051C61.0032 49.0149 61.0213 48.9953 61.0122 49.0051C61.0122 49.0051 54.0457 55.953 54.02 55.9799C53.4839 56.544 53.4493 57.4429 54.02 57.9727C54.5909 58.5025 55.4816 58.5368 56.0178 57.9727C56.0371 57.9525 62.0683 51.9839 63.01 50.9979C63.0867 50.9176 62.9394 51.0816 63.01 50.9979C64.658 49.1892 65.0078 46.4632 65.0078 44.0231V27.0843C65.0078 26.1921 66.1241 25.2847 67.0056 25.0915C67.5746 24.9668 67.55 24.7314 68.0044 25.0915C68.4588 25.4517 69.0033 26.5085 69.0033 27.0843V49.0051C69.0033 51.267 68.3305 53.1391 67.0056 54.9835L56.0178 69.9295C55.5645 70.5605 56.3782 71.4744 57.0167 71.9223C57.266 72.0971 57.7317 71.9223 58.0156 71.9223C58.4594 71.9223 58.7379 71.3107 59.0145 70.9259L69.0033 55.9799C70.6707 53.6588 72 51.8514 72 49.0051V27.0843C71.9996 25.6542 71.1309 23.9936 70.0022 23.0987Z" fill="#59AC80"/>
<path d="M54 27H51V26C52.6349 24.8547 54 23.1434 54 21V18C54 14.5104 51.4893 12 48 12C46.4341 12 45.1061 12.0543 44 13C42.7685 9.98391 39.4532 8 36 8C32.5425 8 29.2287 9.97812 28 13C26.8922 12.0475 25.5722 12 24 12C20.5107 12 18 14.5104 18 18V21C18 23.1434 19.3651 24.8547 21 26V27H18C14.9966 27.7176 13 30.9118 13 34V37C13 37.781 13.2193 38 14 38H21C20.99 38.1715 21 38.8262 21 39V44C21 44.781 21.2193 45 22 45H31C31.7807 45 32 44.781 32 44C32 43.219 31.7807 42 31 42H29V39C29 38.219 28.7807 38 28 38C27.2193 38 27 38.219 27 39V42H24V39C24 36.2728 25.3484 33.6355 28 33L32 32L35 38C35.2257 38.5134 35.4394 39 36 39C36.5607 39 36.7743 38.5134 37 38L40 32L44 33C46.6541 33.6342 48 36.2708 48 39V42H45V39C45 38.219 44.7807 38 44 38C43.2193 38 43 38.219 43 39V42H41C40.2193 42 40 43.219 40 44C40 44.781 40.2193 45 41 45H50C50.7807 45 51 44.781 51 44V39C51 38.8248 51.0102 38.1729 51 38H58C58.7807 38 59 37.781 59 37V34C59 30.9118 57.0035 27.7175 54 27ZM48 14C49.8525 14 50.8807 16.1771 51 18H49C47.3475 18 46.4618 17.7576 45 17C45.5377 15.7574 46.5622 14 48 14ZM44 21C44.0017 20.9311 44 21.0693 44 21V20C45.5865 20.6567 47.2708 21 49 21H51C51 22.9301 49.9301 25 48 25C46.0699 25 44 22.9303 44 21ZM31 16C31 13.0053 33.0054 11 36 11C38.7009 11 40.5852 12.4141 41 15L39 14C38.4046 13.6502 37.4435 13.4705 37 14C35.8368 15.3883 34.8112 16 33 16H31ZM24 14C25.4378 14 26.4622 15.7576 27 17C25.5381 17.7576 24.6525 18 23 18H21C21.1193 16.1772 22.1477 14 24 14ZM21 21H23C24.731 21 26.4119 20.6581 28 20V21C28 22.9301 25.9301 25 24 25C22.0699 25 21 22.9303 21 21ZM28 30C25.2183 30.6666 23.0405 32.4906 22 35H16V34C16 32.226 17.2746 30.4122 19 30L22 29C22.6364 28.848 23 28.6544 23 28C23.2602 28.0327 23.7312 28 24 28C24.2668 28 24.7418 28.0322 25 28C24.999 28.0211 25.0001 27.9789 25 28C24.9997 28.4639 25.5812 28.7291 26 29C26.1578 29.1022 25.826 28.9668 26 29L28 30ZM32 28C31.6368 27.8398 30.3902 27.0935 30 27H28V26C28.4558 25.6814 28.6426 25.4245 29 25C29.6314 25.9728 31.0287 27.3664 32 28ZM38 30L36 34L34 30V29C34.5397 29.1113 35.4279 29 36 29C36.5623 29 37.4689 29.1076 38 29V30ZM36 26C33.0054 26.0001 31 23.9949 31 21V19H33C35.2421 19 37.3661 18.4873 39 17L41 19V21C40.8908 23.8991 38.9253 26 36 26ZM40 28C40.9792 27.3668 42.3636 25.9771 43 25C43.355 25.4197 43.5485 25.6844 44 26V27H42C41.6064 27.0945 40.3663 27.8378 40 28ZM56 35H50C48.9585 32.4906 46.7834 30.665 44 30L46 29C46.1765 28.9672 45.8401 29.1035 46 29C46.4181 28.7295 47 28.4639 47 28C47 27.989 47.0003 28.011 47 28C47.2583 28.0322 47.7332 28 48 28C48.2688 28 48.7398 28.0327 49 28C49 28.6544 49.3636 28.848 50 29L53 30C54.7254 30.4123 56 32.226 56 34V35Z" fill="#59AC80"/>
<path d="M37.8854 42.1145C37.6265 41.8568 37.3263 42.1145 36.962 42.1145C36.5962 42.1145 35.3728 41.8568 35.1151 42.1145C34.8561 42.3736 35.1151 43.5961 35.1151 43.9618C35.1151 44.3262 34.8561 44.6264 35.1151 44.8855C35.3728 45.1432 36.5963 44.8855 36.962 44.8855C37.3263 44.8855 37.6265 45.1432 37.8854 44.8855C38.1431 44.6264 37.8854 44.3262 37.8854 43.9618C37.8854 43.5961 38.1432 42.3736 37.8854 42.1145Z" fill="#59AC80"/>
<path d="M36 0C35.1717 0 35 0.210165 35 1V4C35 4.78983 35.1717 5 36 5C36.8283 5 38 4.78983 38 4V1C38 0.210165 36.8284 0 36 0Z" fill="#59AC80"/>
<path d="M31.5972 5.12023L29.5001 3.34181C28.9626 2.88624 27.94 2.88589 27.4029 3.34181C26.8659 3.79773 26.8655 4.66478 27.4029 5.12023L29.5001 6.89866C29.7686 7.12633 30.1969 6.89866 30.5486 6.89866C30.9009 6.89866 31.3285 7.12668 31.5972 6.89866C32.1339 6.44273 32.1346 5.57569 31.5972 5.12023Z" fill="#59AC80"/>
<path d="M45.5962 3.34241C45.0576 2.88616 44.038 2.88557 43.5 3.34241L41.4038 5.12042C40.8657 5.57714 40.8651 6.44217 41.4038 6.89843C41.673 7.1265 42.0992 6.89843 42.4519 6.89843C42.805 6.89843 43.2309 7.12696 43.5 6.89843L45.5962 5.12042C46.1343 4.6637 46.1349 3.79867 45.5962 3.34241Z" fill="#59AC80"/>
</svg>
