<svg width="72" height="72" viewBox="0 0 72 72" fill="none" xmlns="http://www.w3.org/2000/svg">
<path d="M54 54C53.4475 54 53 54.4062 53 55V58C53 58.5939 53.4477 59 54 59C54.5525 59 55 58.5938 55 58V55C55 54.4062 54.5522 54 54 54Z" fill="#59AC80"/>
<path d="M54 62C53.4475 62 53 62.4062 53 63V66C53 66.5939 53.4477 67 54 67C54.5525 67 55 66.5938 55 66V63C55 62.4062 54.5522 62 54 62Z" fill="#59AC80"/>
<path d="M60 60H57C56.4059 60 56 60.4478 56 61C56 61.5523 56.4061 62 57 62H60C60.5941 62 61 61.5522 61 61C61 60.4478 60.5941 60 60 60Z" fill="#59AC80"/>
<path d="M52 60H49C48.4059 60 48 60.4478 48 61C48 61.5523 48.4061 62 49 62H52C52.5941 62 53 61.5522 53 61C53 60.4478 52.5939 60 52 60Z" fill="#59AC80"/>
<path d="M49.9906 28.101C49.416 27.9819 49.1162 28.5147 48.9977 29.0918C48.602 31.0212 47.4026 32.8225 45.0261 34.0459C44.1924 34.4751 43.0475 34.6941 42.0474 35.0367C42.418 34.3607 42.8534 32.977 43.0403 32.0642C43.5221 29.7101 42.4432 28.4697 41.0545 27.1102C39.342 25.4333 36.4244 24.9043 32.1184 25.1286C29.1815 25.2813 27.4611 25.0585 27.1539 25.1286C23.761 25.7341 20.7192 26.1194 18.2178 26.1194C8.07658 26.1188 4.37818 22.3165 3.32436 20.1745C2.3688 18.2322 2.70086 15.5638 3.32436 13.2388C3.94102 10.9392 4.38789 9.05377 6.30306 7.29393C6.73589 6.89622 7.69222 5.74687 7.29595 5.31231C6.89969 4.87774 5.74285 4.91446 5.31016 5.31231C3.10076 7.34233 1.06603 10.5522 0.345663 13.2388C-0.414066 16.0727 0.150464 18.7506 1.33856 21.1653C2.82899 24.1951 6.25044 25.9061 10.2746 27.1102C14.7881 28.4607 20.2262 28.3494 27.1539 27.1102C27.1717 27.1071 27.1363 27.1143 27.1539 27.1102C29.8507 26.4842 37.4576 25.5497 40.0616 28.101C40.9093 28.9314 41.3857 30.4465 41.0545 32.0642C40.3678 35.4181 37.8518 36.8649 32.1184 37.0183C31.5316 37.0341 31.1098 37.4201 31.1255 38.0091C31.141 38.5885 31.5446 38.9999 32.1184 38.9999C32.1281 38.9999 32.1088 39.0001 32.1184 38.9999C33.8341 38.954 35.5593 38.3945 37.0829 38.0091C43.6466 36.545 49.8637 34.5524 50.9835 29.0918C51.1017 28.5149 50.5655 28.2198 49.9906 28.101Z" fill="#59AC80"/>
<path d="M51.9937 15.8583C49.1786 15.4857 46.3987 14.8498 43.0065 14.8498C39.9404 14.8498 36.9787 14.6246 34.0194 14.8498C30.0635 15.1507 25.2787 16.4099 23.0351 15.8583C22.9724 15.8353 23.1029 14.8607 23.0351 14.8498C22.4419 14.6822 22.2992 15.1731 22.0365 14.8498C21.9242 14.7117 21.7219 14.0463 22.0365 12.8326C23.0439 8.94669 28.0186 7.62186 32.0222 6.78124C36.5825 5.82387 40.9673 5.77253 41.0094 5.77268C41.5199 5.78213 41.9035 5.27768 42.008 4.76411C42.1124 4.25083 41.4837 3.95567 41.0094 3.75555C40.8262 3.67819 36.0879 1.75326 30.0251 0.729848C24.3852 -0.222083 17.0712 -0.819933 10.0536 2.74698C9.52587 3.0153 8.79251 3.21633 9.05505 3.75555C9.31746 4.2949 10.5246 5.03243 11.0522 4.76411C17.5448 1.46408 24.7094 1.85536 30.0251 2.74698C31.7869 3.04266 33.6074 3.38108 35.0179 3.75555C29.3304 4.43873 21.5949 5.82397 20.0394 11.8241C19.8333 12.6191 18.9307 14.208 19.0408 14.8498C17.1407 13.9895 16.0451 12.0388 16.0451 8.79837C16.0451 8.19599 15.6358 7.78981 15.0465 7.78981C14.4571 7.78981 14.0479 8.19613 14.0479 8.79837C14.0479 15.2113 18.9575 17.4034 23.0351 17.8755C24.1531 18.1557 25.4867 17.8755 27.0294 17.8755C29.0479 17.8755 31.4693 18.0696 34.0194 17.8755C36.9396 17.6533 40.0198 16.8669 43.0065 16.8669C46.3073 16.8669 49.2691 17.5149 51.9937 17.8755C52.5761 17.9518 52.9166 17.4643 52.9923 16.8669C53.0679 16.2695 52.5783 15.9357 51.9937 15.8583Z" fill="#59AC80"/>
<path d="M70.0113 25.0396C68.6007 22.7271 66.9247 20.5592 64.0452 19.0601C63.5071 18.7799 62.3489 19.5417 62.0565 20.0567C61.7639 20.5718 61.5184 20.7732 62.0565 21.0533C66.8726 23.5606 70.0113 27.1204 70.0113 32.0156C70.0113 37.4828 67.1413 42.4554 62.0565 44.9711C61.5123 45.2402 60.7812 45.4468 61.0622 45.9677C61.2591 46.3327 61.655 46.9642 62.0565 46.9642C62.2279 46.9642 62.8881 47.0447 63.0509 46.9642C68.8868 44.0771 72 38.2925 72 32.0156C72 29.3096 71.3059 27.1623 70.0113 25.0396Z" fill="#59AC80"/>
<path d="M58.9798 46.9741C58.8456 46.3978 58.5516 45.8405 57.9835 45.9772C56.6232 46.303 54.4743 46.9741 53.0018 46.9741C47.6814 46.9741 43.1916 46.4866 40.0492 47.971C36.6962 49.1079 33.2471 52.2461 32.0784 55.9463C31.9002 56.5103 31.5218 56.7628 32.0784 56.9432C32.1856 56.978 32.9678 56.9432 33.0748 56.9432C33.5227 56.9432 33.9273 56.4016 34.0711 55.9463C34.4376 54.7862 35.4379 53.2009 37.0602 51.9587C36.7056 53.5263 36.3569 55.6656 37.0602 57.9401C37.7532 60.1812 38.05 62.166 37.0602 63.9215C35.5132 66.6655 32.1348 68.1339 30.0857 68.9061C30.8513 65.5229 29.7504 62.326 28.0931 59.9339C26.0519 56.9876 22.7853 55.9463 18.1296 55.9463C15.7214 55.9463 13.7162 55.1651 12.1515 53.9525C10.7755 52.8861 9.49079 51.6386 9.16244 49.9649C8.82825 48.2616 9.27063 46.5504 10.1588 44.9803C11.1569 43.2161 12.9495 40.9145 15.1405 39.9958C16.7357 39.327 18.8991 39.2266 21.1186 38.9989C21.7001 38.9393 22.174 38.5911 22.115 38.002C22.0562 37.4127 20.7033 36.9458 20.1223 37.0051C17.6949 37.2542 15.9326 37.2523 14.1442 38.002C8.22608 40.4831 6.39002 45.9904 7.16975 49.9649C7.5986 52.1505 9.36992 54.563 11.1551 55.9463C13.0923 57.4476 15.2525 57.9401 18.1296 57.9401C22.0756 57.9401 25.4633 59.5698 27.0967 61.9277C28.6667 64.1942 28.3364 67.4251 27.0967 70.8999C26.9649 71.2691 26.8394 71.603 27.0967 71.8968C27.3001 72.129 27.7942 71.8968 28.0931 71.8968C28.1723 71.8968 28.0138 71.9154 28.0931 71.8968C28.3858 71.8282 35.2458 69.8924 38.0565 64.9184C39.3542 62.622 39.9301 59.7802 39.0529 56.9432C38.2049 54.2011 38.1216 52.2459 39.0529 50.9618C39.4652 50.3938 40.3069 50.3164 41.0456 49.9649C41.0493 49.9632 41.0418 49.9667 41.0456 49.9649C43.7732 48.6725 48.0826 48.968 53.0018 48.968C54.6379 48.968 56.4639 48.335 57.9835 47.971C58.5522 47.8349 59.1144 47.5504 58.9798 46.9741Z" fill="#59AC80"/>
<path d="M67 10L65 9C62.9291 8.58012 61.4199 7.07103 61 5L60 3C59.7921 1.97519 59.0455 1 58 1C56.9545 1 56.2079 1.97533 56 3L55 5C54.5801 7.07089 53.071 8.58026 51 9L49 10C47.9752 10.2077 47 10.9543 47 12C47 13.0455 47.9753 13.7921 49 14L51 15C53.071 15.4199 54.5801 16.929 55 19L56 21C56.2079 22.0248 56.9546 23 58 23C59.0455 23 59.7921 22.0247 60 21L61 19C61.4199 16.9292 62.9291 15.4199 65 15L67 14C68.0248 13.7923 69 13.0457 69 12C69 10.9543 68.0248 10.2079 67 10ZM67 12C66.9974 12.0018 67.0231 11.9954 67 12L64 13C61.0938 13.5894 59.5894 15.0937 59 18L58 21C57.9956 21.0225 57.9989 21 58 21C57.9821 21.0127 58.0147 21.0093 58 21C57.9982 20.9974 58.0046 21.0231 58 21L57 18C56.4108 15.0937 54.9064 13.5894 52 13L49 12C48.9794 11.996 49.0019 12 49 12C48.9997 12 49 11.9997 49 12C48.9872 11.9819 48.9904 12.0147 49 12C49.0026 11.9982 48.9769 12.0046 49 12L52 11C54.9065 10.4108 56.4109 8.90634 57 6L58 3C58.0053 2.97414 58 2.99986 58 3C58.0181 2.98721 57.9857 2.99055 58 3C58.0019 3.00264 57.9954 2.97692 58 3L59 6C59.5894 8.90634 61.0938 10.4109 64 11L67 12C66.9997 12.0015 67.0239 12.0049 67 12C67.0096 11.9851 67.0128 12.0179 67 12Z" fill="#59AC80"/>
<path d="M35 41L33 40C30.9291 39.5801 29.4199 38.0709 29 36L28 34C27.7923 32.9752 27.0457 32 26 32C24.9543 32 24.2077 32.9753 24 34L23 36C22.5801 38.0709 21.0709 39.5801 19 40L17 41C15.9752 41.2077 15 41.9543 15 43C15 44.0455 15.9753 44.7921 17 45L19 46C21.0709 46.4199 22.5801 47.9291 23 50L24 52C24.2077 53.0248 24.9543 54 26 54C27.0455 54 27.7921 53.0247 28 52L29 50C29.4199 47.9291 30.9291 46.4199 33 46L35 45C36.0247 44.7923 37 44.0457 37 43C37 41.9543 36.0247 41.2077 35 41ZM35 43C34.9974 43.0018 35.0231 42.9954 35 43L32 44C29.0937 44.5894 27.5894 46.0937 27 49L26 52C25.9956 52.0225 25.999 52 26 52C25.9821 52.0128 26.0147 52.0097 26 52C25.9982 51.9974 26.0046 52.0231 26 52L25 49C24.4106 46.0937 22.9063 44.5894 20 44L17 43C16.9794 42.9958 17.0019 43 17 43C16.9997 43 17 42.9999 17 43C16.9873 42.9819 16.9905 43.0147 17 43C17.0026 42.9982 16.9769 43.0046 17 43L20 42C22.9063 41.4106 24.4106 39.9063 25 37L26 34C26.0046 33.9775 26.001 34 26 34C26.0182 33.9872 25.9854 33.9905 26 34C26.0018 34.0026 25.9954 33.9769 26 34L27 37C27.5894 39.9063 29.0937 41.4106 32 42L35 43C35.0006 43.001 35.0239 43.0049 35 43C35.0093 42.9853 35.0125 43.0182 35 43Z" fill="#59AC80"/>
</svg>
