<svg width="26" height="22" viewBox="0 0 26 22" fill="none" xmlns="http://www.w3.org/2000/svg">
<path d="M16 0.31594C15.5672 -0.0947247 14.4122 -0.115771 14 0.31594C13.5872 0.747651 13.5672 1.86703 14 2.27824L23 10.1274H1C0.402 10.1274 0 10.5128 0 11.1086C0 11.7043 0.402 12.0897 1 12.0897H23L14 19.9389C13.5667 20.3501 13.5872 21.4695 14 21.9012C14.2129 22.1235 14.714 21.9012 15 21.9012C15.2687 21.9012 15.7904 22.1003 16 21.9012L25 13.0709C25.4095 12.6634 26 11.6854 26 11.1086C26 10.5317 25.4285 9.57204 25 9.14627L16 0.31594Z" fill="#59AC80" fill-opacity="0.6"/>
</svg>
