<svg width="40" height="29" viewBox="0 0 40 29" fill="none" xmlns="http://www.w3.org/2000/svg">
<path d="M37.8862 5.35686L37.4023 5.48281L37.4024 5.48312L37.8862 5.35686ZM34.5853 1.96785L34.4527 2.44993L34.453 2.45003L34.5853 1.96785ZM19.9997 1.16675V0.666748V1.16675ZM5.4138 1.96785L5.54611 2.45003L5.54645 2.44994L5.4138 1.96785ZM2.11298 5.35686L2.59678 5.48309L2.59685 5.48281L2.11298 5.35686ZM1.33301 14.5834H1.83301H1.33301ZM2.11298 23.81L2.59685 23.684L2.59678 23.6837L2.11298 23.81ZM5.4138 27.1992L5.54641 26.7171L5.54617 26.717L5.4138 27.1992ZM19.9997 28.0001V28.5001V28.0001ZM34.5853 27.1992L34.453 26.717L34.4527 26.7171L34.5853 27.1992ZM37.8862 23.81L37.4024 23.6837L37.4023 23.684L37.8862 23.81ZM38.6663 14.5834H39.1663H38.6663ZM38.37 5.23091C37.8969 3.41339 36.5014 1.97514 34.7177 1.48568L34.453 2.45003C35.8821 2.84217 37.0167 4.00156 37.4023 5.48281L38.37 5.23091ZM34.718 1.48577C33.937 1.27086 32.6155 1.11847 31.1155 1.00611C29.6012 0.892671 27.8607 0.817291 26.2161 0.767119C24.5706 0.716921 23.0169 0.691836 21.8748 0.679295C21.3036 0.673024 20.8352 0.669887 20.5094 0.668319C20.3465 0.667534 20.2192 0.667141 20.1326 0.666945C20.0893 0.666847 20.0562 0.666797 20.0338 0.666773C20.0226 0.66676 20.0141 0.666754 20.0084 0.666751C20.0056 0.66675 20.0034 0.666749 20.0019 0.666748C20.0012 0.666748 20.0007 0.666748 20.0003 0.666748C20.0001 0.666748 19.9999 0.666748 19.9998 0.666748C19.9997 0.666748 19.9997 0.666748 19.9997 1.16675C19.9997 1.66675 19.9997 1.66675 19.9998 1.66675C19.9999 1.66675 20 1.66675 20.0001 1.66675C20.0005 1.66675 20.001 1.66675 20.0017 1.66675C20.003 1.66675 20.0051 1.66675 20.0079 1.66675C20.0134 1.66675 20.0217 1.66676 20.0327 1.66677C20.0547 1.6668 20.0875 1.66685 20.1304 1.66694C20.2162 1.66714 20.3426 1.66753 20.5046 1.66831C20.8286 1.66987 21.295 1.67299 21.8638 1.67924C23.0017 1.69173 24.5485 1.71671 26.1856 1.76665C27.8234 1.81662 29.5474 1.89145 31.0408 2.00332C32.5486 2.11627 33.7781 2.26429 34.4527 2.44993L34.718 1.48577ZM19.9997 1.16675C19.9997 0.666748 19.9996 0.666748 19.9995 0.666748C19.9994 0.666748 19.9993 0.666748 19.9991 0.666748C19.9987 0.666748 19.9981 0.666748 19.9974 0.666748C19.996 0.666749 19.9938 0.66675 19.9909 0.666751C19.9852 0.666754 19.9767 0.66676 19.9655 0.666773C19.9432 0.666797 19.91 0.666847 19.8667 0.666945C19.7801 0.667141 19.6528 0.667534 19.4899 0.668319C19.1641 0.669887 18.6957 0.673024 18.1246 0.679295C16.9825 0.691836 15.4287 0.716921 13.7832 0.767119C12.1386 0.817291 10.3981 0.892671 8.88372 1.00611C7.38373 1.11847 6.06215 1.27086 5.28114 1.48577L5.54645 2.44994C6.22112 2.26429 7.45062 2.11626 8.95842 2.00332C10.4518 1.89145 12.1759 1.81662 13.8137 1.76665C15.4508 1.71671 16.9977 1.69173 18.1355 1.67924C18.7044 1.67299 19.1707 1.66987 19.4948 1.66831C19.6568 1.66753 19.7832 1.66714 19.869 1.66694C19.9119 1.66685 19.9447 1.6668 19.9666 1.66677C19.9776 1.66676 19.9859 1.66675 19.9915 1.66675C19.9942 1.66675 19.9963 1.66675 19.9977 1.66675C19.9984 1.66675 19.9989 1.66675 19.9992 1.66675C19.9994 1.66675 19.9995 1.66675 19.9996 1.66675C19.9996 1.66675 19.9997 1.66675 19.9997 1.16675ZM5.28148 1.48568C3.49776 1.97514 2.1022 3.41339 1.6291 5.23091L2.59685 5.48281C2.98242 4.00156 4.11704 2.84217 5.54611 2.45003L5.28148 1.48568ZM1.62917 5.23063C1.2247 6.78081 1.02855 9.1347 0.931139 11.0659C0.882065 12.0389 0.857547 12.9173 0.845288 13.5525C0.839156 13.8702 0.836087 14.1273 0.83455 14.3053C0.833781 14.3942 0.833396 14.4635 0.833202 14.5106C0.833106 14.5342 0.833057 14.5522 0.833033 14.5644C0.83302 14.5705 0.833014 14.5752 0.833011 14.5784C0.833009 14.58 0.833009 14.5812 0.833008 14.582C0.833008 14.5824 0.833008 14.5828 0.833008 14.583C0.833008 14.5831 0.833008 14.5832 0.833008 14.5833C0.833008 14.5834 0.833008 14.5834 1.33301 14.5834C1.83301 14.5834 1.83301 14.5834 1.83301 14.5834C1.83301 14.5834 1.83301 14.5833 1.83301 14.5833C1.83301 14.5831 1.83301 14.5829 1.83301 14.5825C1.83301 14.5818 1.83301 14.5808 1.83301 14.5794C1.83301 14.5765 1.83302 14.5722 1.83303 14.5664C1.83305 14.5549 1.8331 14.5375 1.83319 14.5147C1.83338 14.469 1.83376 14.4013 1.83451 14.3139C1.83602 14.1391 1.83905 13.8855 1.8451 13.5718C1.85722 12.9441 1.88145 12.0763 1.92987 11.1163C2.02745 9.18161 2.22128 6.92223 2.59678 5.48309L1.62917 5.23063ZM1.33301 14.5834C0.833008 14.5834 0.833008 14.5835 0.833008 14.5835C0.833008 14.5836 0.833008 14.5837 0.833008 14.5838C0.833008 14.5841 0.833008 14.5844 0.833008 14.5848C0.833009 14.5856 0.833009 14.5869 0.833011 14.5884C0.833014 14.5916 0.83302 14.5963 0.833033 14.6024C0.833057 14.6146 0.833106 14.6327 0.833202 14.6562C0.833396 14.7034 0.833781 14.7726 0.83455 14.8616C0.836087 15.0395 0.839156 15.2966 0.845288 15.6143C0.857547 16.2495 0.882065 17.1279 0.931139 18.1008C1.02855 20.032 1.2247 22.3859 1.62917 23.9362L2.59678 23.6837C2.22128 22.2445 2.02745 19.9851 1.92987 18.0504C1.88145 17.0904 1.85722 16.2227 1.8451 15.595C1.83905 15.2813 1.83602 15.0277 1.83451 14.8529C1.83376 14.7655 1.83338 14.6978 1.83319 14.6521C1.8331 14.6293 1.83305 14.6119 1.83303 14.6004C1.83302 14.5946 1.83301 14.5903 1.83301 14.5875C1.83301 14.586 1.83301 14.585 1.83301 14.5843C1.83301 14.584 1.83301 14.5837 1.83301 14.5836C1.83301 14.5835 1.83301 14.5835 1.83301 14.5834C1.83301 14.5834 1.83301 14.5834 1.33301 14.5834ZM1.6291 23.9359C2.1022 25.7534 3.49776 27.1917 5.28142 27.6814L5.54617 26.717C4.11704 26.3247 2.98242 25.1653 2.59685 23.684L1.6291 23.9359ZM5.28118 27.6813C6.06217 27.8961 7.38374 28.0485 8.88373 28.1608C10.3981 28.2742 12.1386 28.3496 13.7833 28.3997C15.4288 28.4499 16.9825 28.475 18.1246 28.4875C18.6957 28.4938 19.1641 28.4969 19.4899 28.4985C19.6528 28.4993 19.7801 28.4997 19.8667 28.4999C19.91 28.5 19.9432 28.5 19.9655 28.5001C19.9767 28.5001 19.9852 28.5001 19.9909 28.5001C19.9938 28.5001 19.996 28.5001 19.9974 28.5001C19.9981 28.5001 19.9987 28.5001 19.9991 28.5001C19.9993 28.5001 19.9994 28.5001 19.9995 28.5001C19.9996 28.5001 19.9997 28.5001 19.9997 28.0001C19.9997 27.5001 19.9996 27.5001 19.9996 27.5001C19.9995 27.5001 19.9994 27.5001 19.9992 27.5001C19.9989 27.5001 19.9984 27.5001 19.9977 27.5001C19.9963 27.5001 19.9942 27.5001 19.9915 27.5001C19.9859 27.5001 19.9776 27.5001 19.9666 27.5001C19.9447 27.5 19.9119 27.5 19.869 27.4999C19.7832 27.4997 19.6568 27.4993 19.4948 27.4985C19.1707 27.497 18.7044 27.4938 18.1355 27.4876C16.9977 27.4751 15.4508 27.4501 13.8137 27.4002C12.1759 27.3502 10.4518 27.2754 8.95841 27.1636C7.45061 27.0507 6.2211 26.9027 5.54641 26.7171L5.28118 27.6813ZM19.9997 28.0001C19.9997 28.5001 19.9997 28.5001 19.9998 28.5001C19.9999 28.5001 20.0001 28.5001 20.0003 28.5001C20.0007 28.5001 20.0012 28.5001 20.0019 28.5001C20.0034 28.5001 20.0056 28.5001 20.0084 28.5001C20.0141 28.5001 20.0226 28.5001 20.0338 28.5001C20.0562 28.5 20.0893 28.5 20.1326 28.4999C20.2192 28.4997 20.3465 28.4993 20.5094 28.4985C20.8352 28.4969 21.3036 28.4938 21.8748 28.4875C23.0169 28.475 24.5706 28.4499 26.2161 28.3997C27.8607 28.3496 29.6012 28.2742 31.1155 28.1608C32.6155 28.0485 33.937 27.8961 34.718 27.6813L34.4527 26.7171C33.7781 26.9027 32.5486 27.0507 31.0408 27.1636C29.5475 27.2754 27.8234 27.3502 26.1856 27.4002C24.5485 27.4501 23.0017 27.4751 21.8638 27.4876C21.295 27.4938 20.8286 27.497 20.5046 27.4985C20.3426 27.4993 20.2162 27.4997 20.1304 27.4999C20.0875 27.5 20.0547 27.5 20.0327 27.5001C20.0217 27.5001 20.0134 27.5001 20.0079 27.5001C20.0051 27.5001 20.003 27.5001 20.0017 27.5001C20.001 27.5001 20.0005 27.5001 20.0001 27.5001C20 27.5001 19.9999 27.5001 19.9998 27.5001C19.9997 27.5001 19.9997 27.5001 19.9997 28.0001ZM34.7177 27.6814C36.5014 27.1917 37.8969 25.7534 38.37 23.9359L37.4023 23.684C37.0167 25.1653 35.8821 26.3247 34.453 26.717L34.7177 27.6814ZM38.37 23.9362C38.7745 22.3859 38.9707 20.032 39.0682 18.1008C39.1173 17.1279 39.1418 16.2495 39.1541 15.6143C39.1602 15.2966 39.1633 15.0395 39.1648 14.8616C39.1656 14.7726 39.166 14.7034 39.1661 14.6562C39.1662 14.6327 39.1663 14.6146 39.1663 14.6024C39.1663 14.5963 39.1663 14.5916 39.1663 14.5884C39.1663 14.5869 39.1663 14.5856 39.1663 14.5848C39.1663 14.5844 39.1663 14.5841 39.1663 14.5838C39.1663 14.5837 39.1663 14.5836 39.1663 14.5835C39.1663 14.5835 39.1663 14.5834 38.6663 14.5834C38.1663 14.5834 38.1663 14.5834 38.1663 14.5834C38.1663 14.5835 38.1663 14.5835 38.1663 14.5836C38.1663 14.5837 38.1663 14.584 38.1663 14.5843C38.1663 14.585 38.1663 14.586 38.1663 14.5875C38.1663 14.5903 38.1663 14.5946 38.1663 14.6004C38.1663 14.6119 38.1662 14.6293 38.1662 14.6521C38.166 14.6978 38.1656 14.7655 38.1648 14.8529C38.1633 15.0277 38.1603 15.2813 38.1542 15.595C38.1421 16.2227 38.1179 17.0904 38.0695 18.0504C37.9718 19.9851 37.778 22.2445 37.4024 23.6837L38.37 23.9362ZM38.6663 14.5834C39.1663 14.5834 39.1663 14.5834 39.1663 14.5833C39.1663 14.5832 39.1663 14.5831 39.1663 14.583C39.1663 14.5828 39.1663 14.5824 39.1663 14.582C39.1663 14.5812 39.1663 14.58 39.1663 14.5784C39.1663 14.5752 39.1663 14.5705 39.1663 14.5644C39.1663 14.5522 39.1662 14.5342 39.1661 14.5106C39.166 14.4635 39.1656 14.3942 39.1648 14.3052C39.1633 14.1273 39.1602 13.8702 39.1541 13.5525C39.1418 12.9173 39.1173 12.0389 39.0682 11.0659C38.9707 9.13469 38.7745 6.78079 38.3699 5.23059L37.4024 5.48312C37.778 6.92225 37.9718 9.18162 38.0695 11.1163C38.1179 12.0764 38.1421 12.9441 38.1542 13.5718C38.1603 13.8855 38.1633 14.1391 38.1648 14.3139C38.1656 14.4013 38.166 14.469 38.1662 14.5147C38.1662 14.5375 38.1663 14.5549 38.1663 14.5664C38.1663 14.5722 38.1663 14.5765 38.1663 14.5794C38.1663 14.5808 38.1663 14.5818 38.1663 14.5825C38.1663 14.5829 38.1663 14.5831 38.1663 14.5833C38.1663 14.5833 38.1663 14.5834 38.1663 14.5834C38.1663 14.5834 38.1663 14.5834 38.6663 14.5834Z" fill="#0A2B36"/>
<path d="M16.4998 20.9999V9.33325L25.8331 15.1668L16.4998 20.9999Z" fill="#0A2B36"/>
</svg>
