<svg width="38" height="37" viewBox="0 0 38 37" fill="none" xmlns="http://www.w3.org/2000/svg">
<path d="M15.0024 10.7646L15.0021 10.7638C14.3912 8.9125 14.0798 6.96806 14.0798 4.98796C14.0798 3.55699 12.9154 2.39263 11.4845 2.39263H5.54534C4.11437 2.39263 2.95 3.55699 2.95 4.98796C2.95 21.3888 16.2947 34.7335 32.6956 34.7335C34.1265 34.7335 35.2909 33.5691 35.2909 32.1382V26.2161C35.2909 24.7851 34.1265 23.6207 32.6956 23.6207C30.7121 23.6207 28.7695 23.311 26.9268 22.7019C26.0102 22.3862 24.9699 22.6277 24.3614 23.2445L20.7296 25.9872C16.5657 23.76 13.8948 21.0907 11.6946 16.954L14.3629 13.4085C15.0513 12.7166 15.2977 11.7092 15.0024 10.7646ZM33.4942 32.0882H33.494L13.3375 11.3004L13.2897 11.3152C13.2898 11.3153 13.2898 11.3155 13.2899 11.3156C13.3816 11.6121 13.31 11.9211 13.0096 12.2329L13.0094 12.2327L13.0057 12.2375L9.91738 16.327L9.91731 16.3271C9.71078 16.6019 9.67835 16.9701 9.83469 17.2757C12.3559 22.2282 15.4197 25.2936 20.4075 27.8487C20.7115 28.007 21.0835 27.9745 21.3584 27.7662L25.5361 24.5998L25.5364 24.6001L25.541 24.5955C25.7551 24.3847 26.0697 24.3113 26.354 24.4054L26.354 24.4054C28.3886 25.0774 30.5218 25.4176 32.6957 25.4176C33.1348 25.4176 33.4942 25.7754 33.4942 26.2161V32.0882Z" fill="url(#paint0_linear)" stroke="url(#paint1_linear)" stroke-width="0.1"/>
<defs>
<linearGradient id="paint0_linear" x1="1.52229" y1="19.5661" x2="35.6952" y2="19.6606" gradientUnits="userSpaceOnUse">
<stop offset="0.317708" stop-color="#0B3442"/>
<stop offset="0.572917" stop-color="#0B3442"/>
<stop offset="1" stop-color="#031D25"/>
</linearGradient>
<linearGradient id="paint1_linear" x1="1.52229" y1="19.5661" x2="35.6952" y2="19.6606" gradientUnits="userSpaceOnUse">
<stop offset="0.317708" stop-color="#0B3442"/>
<stop offset="0.572917" stop-color="#0B3442"/>
<stop offset="1" stop-color="#031D25"/>
</linearGradient>
</defs>
</svg>
