<svg width="34" height="33" viewBox="0 0 34 33" fill="none" xmlns="http://www.w3.org/2000/svg">
<path d="M13.0024 8.76455L13.0021 8.76381C12.3912 6.9125 12.0798 4.96806 12.0798 2.98796C12.0798 1.55699 10.9154 0.392627 9.48448 0.392627H3.54534C2.11437 0.392627 0.95 1.55699 0.95 2.98796C0.95 19.3888 14.2947 32.7335 30.6956 32.7335C32.1265 32.7335 33.2909 31.5691 33.2909 30.1382V24.2161C33.2909 22.7851 32.1265 21.6207 30.6956 21.6207C28.7121 21.6207 26.7695 21.311 24.9268 20.7019C24.0102 20.3862 22.9699 20.6277 22.3614 21.2445L18.7296 23.9872C14.5657 21.76 11.8948 19.0907 9.69461 14.954L12.3629 11.4085C13.0513 10.7166 13.2977 9.70919 13.0024 8.76455ZM31.4942 30.0882H31.494L11.3375 9.30039L11.2897 9.3152C11.2898 9.31534 11.2898 9.31549 11.2899 9.31563C11.3816 9.61208 11.31 9.92113 11.0096 10.2329L11.0094 10.2327L11.0057 10.2375L7.91738 14.327L7.91731 14.3271C7.71078 14.6019 7.67835 14.9701 7.83469 15.2757C10.3559 20.2282 13.4197 23.2936 18.4075 25.8487C18.7115 26.007 19.0835 25.9745 19.3584 25.7662L23.5361 22.5998L23.5364 22.6001L23.541 22.5955C23.7551 22.3847 24.0697 22.3113 24.354 22.4054L24.354 22.4054C26.3886 23.0774 28.5218 23.4176 30.6957 23.4176C31.1348 23.4176 31.4942 23.7754 31.4942 24.2161V30.0882Z" fill="url(#paint0_linear)" stroke="url(#paint1_linear)" stroke-width="0.1"/>
<defs>
<linearGradient id="paint0_linear" x1="-0.477707" y1="17.5661" x2="33.6952" y2="17.6606" gradientUnits="userSpaceOnUse">
<stop offset="0.317708" stop-color="#0B3442"/>
<stop offset="0.572917" stop-color="#0B3442"/>
<stop offset="1" stop-color="#031D25"/>
</linearGradient>
<linearGradient id="paint1_linear" x1="-0.477707" y1="17.5661" x2="33.6952" y2="17.6606" gradientUnits="userSpaceOnUse">
<stop offset="0.317708" stop-color="#0B3442"/>
<stop offset="0.572917" stop-color="#0B3442"/>
<stop offset="1" stop-color="#031D25"/>
</linearGradient>
</defs>
</svg>
