<svg width="23" height="23" viewBox="0 0 23 23" fill="none" xmlns="http://www.w3.org/2000/svg">
<g clip-path="url(#clip0)">
<path d="M20.4227 4.2568C20.3813 4.20469 20.3382 4.15258 20.2933 4.10047C19.2342 2.83727 17.9152 1.81737 16.4261 1.11035C14.937 0.403327 13.3129 0.0258245 11.6647 0.00359375C11.609 0.00179687 11.5551 0 11.4994 0C11.4437 0 11.3898 0.00179687 11.3341 0.00359375C9.67961 0.0260409 8.04962 0.406417 6.55612 1.11858C5.06262 1.83075 3.74101 2.85782 2.68211 4.12922C2.65194 4.16164 2.62373 4.19584 2.59766 4.23164C2.59631 4.23434 2.59449 4.23678 2.59227 4.23883C0.915604 6.28728 -0.000488281 8.85286 -0.000488281 11.5C-0.000488281 14.1471 0.915604 16.7127 2.59227 18.7612C2.59449 18.7632 2.59631 18.7657 2.59766 18.7684C2.62374 18.8042 2.65194 18.8384 2.68211 18.8708L2.68391 18.8726C3.74268 20.1435 5.06406 21.1702 6.55724 21.8821C8.05043 22.5939 9.68003 22.9741 11.3341 22.9964C11.4444 23 11.5544 23 11.6647 22.9964C13.3129 22.9742 14.937 22.5967 16.4261 21.8897C17.9152 21.1826 19.2342 20.1627 20.2933 18.8995C20.3382 18.8474 20.3813 18.7953 20.4227 18.7432C22.0893 16.6972 22.9994 14.1389 22.9994 11.5C22.9994 8.86105 22.0893 6.30284 20.4227 4.2568ZM17.8765 11.1855C17.8587 9.48155 17.6127 7.78761 17.1452 6.14891C18.1688 5.82585 19.1465 5.3723 20.0543 4.79945C21.4906 6.62463 22.3009 8.86388 22.3651 11.1855H17.8765ZM11.8138 0.645078C13.7347 0.842734 15.4058 2.82648 16.3707 5.73023C14.8854 6.13791 13.354 6.35408 11.8138 6.37352V0.645078ZM11.1849 6.37352C9.64476 6.35408 8.1134 6.13791 6.62805 5.73023C7.59297 2.82648 9.26406 0.842734 11.1849 0.645078V6.37352ZM11.1849 7.00242V11.1855H5.75117C5.76832 9.54386 6.00091 7.91153 6.44297 6.33039C7.98832 6.75655 9.58201 6.98241 11.1849 7.00242ZM11.1849 11.8145V15.9976C9.58201 16.0176 7.98832 16.2435 6.44297 16.6696C6.00091 15.0885 5.76832 13.4561 5.75117 11.8145H11.1849ZM11.1849 16.6265V22.3549C9.26406 22.1573 7.59297 20.1735 6.62805 17.2698C8.1134 16.8621 9.64476 16.6459 11.1849 16.6265ZM11.8138 16.6265C13.354 16.6459 14.8854 16.8621 16.3707 17.2698C15.4058 20.1735 13.7347 22.1573 11.8138 22.3549V16.6265ZM11.8138 15.9976V11.8145H17.2476C17.2304 13.4567 16.9978 15.0897 16.5558 16.6714C15.0108 16.243 13.4169 16.0165 11.8138 15.9976ZM11.8138 11.1855V7.00242C13.4169 6.98348 15.0109 6.75699 16.5558 6.32859C16.9978 7.91035 17.2304 9.54327 17.2476 11.1855H11.8138ZM19.6482 4.3107C18.8063 4.83525 17.902 5.25237 16.9565 5.55234C16.2665 3.50031 15.2297 1.86875 13.9952 0.918203C16.1848 1.43773 18.1597 2.6229 19.6482 4.3107ZM9.00352 0.918203C7.76906 1.86875 6.73227 3.50031 6.04227 5.55234C5.09741 5.25144 4.19333 4.83501 3.35055 4.3125C4.83813 2.62323 6.81329 1.43726 9.00352 0.918203ZM2.94445 4.79766C3.85206 5.3717 4.82981 5.82645 5.85359 6.1507C5.38591 7.78876 5.13994 9.48212 5.12227 11.1855H0.633672C0.697872 8.86333 1.50811 6.62351 2.94445 4.79766ZM5.12227 11.8145C5.13994 13.5179 5.38591 15.2112 5.85359 16.8493V16.8511C4.8296 17.174 3.85174 17.6282 2.94445 18.2023C1.50811 16.3765 0.697872 14.1367 0.633672 11.8145H5.12227ZM3.35055 18.6875C4.19333 18.165 5.09741 17.7486 6.04227 17.4477C6.73227 19.4997 7.76906 21.1313 9.00352 22.0818C6.81329 21.5627 4.83813 20.3768 3.35055 18.6875ZM13.9952 22.0818C15.2297 21.1313 16.2665 19.4997 16.9565 17.4477C17.902 17.7476 18.8063 18.1648 19.6482 18.6893C18.1597 20.3771 16.1848 21.5623 13.9952 22.0818ZM20.0543 18.2005C19.1465 17.6277 18.1688 17.1742 17.1452 16.8511C17.6127 15.2124 17.8587 13.5185 17.8765 11.8145H22.3651C22.3009 14.1361 21.4906 16.3754 20.0543 18.2005Z" fill="black"/>
</g>
<defs>
<clipPath id="clip0">
<rect width="23" height="23" fill="white"/>
</clipPath>
</defs>
</svg>
