<svg width="25" height="35" viewBox="0 0 25 35" fill="none" xmlns="http://www.w3.org/2000/svg">
<path d="M12.104 5.62109C10.9392 5.62109 9.80064 5.96649 8.83217 6.6136C7.8637 7.26071 7.10887 8.18047 6.66313 9.25657C6.2174 10.3327 6.10077 11.5168 6.32801 12.6592C6.55524 13.8016 7.11613 14.8509 7.93974 15.6745C8.76336 16.4981 9.81271 17.059 10.9551 17.2863C12.0975 17.5135 13.2816 17.3969 14.3577 16.9511C15.4338 16.5054 16.3536 15.7506 17.0007 14.7821C17.6478 13.8136 17.9932 12.675 17.9932 11.5103C17.9932 9.94836 17.3727 8.45042 16.2683 7.34599C15.1638 6.24156 13.6659 5.62109 12.104 5.62109ZM12.104 15.3439C11.3458 15.3439 10.6046 15.119 9.97417 14.6978C9.34374 14.2766 8.85238 13.6778 8.56222 12.9773C8.27206 12.2768 8.19614 11.506 8.34406 10.7624C8.49198 10.0187 8.8571 9.33563 9.39324 8.79949C9.92938 8.26335 10.6125 7.89823 11.3561 7.75031C12.0998 7.60239 12.8706 7.67831 13.5711 7.96847C14.2716 8.25862 14.8703 8.74999 15.2915 9.38042C15.7128 10.0109 15.9376 10.752 15.9376 11.5103C15.9349 12.5252 15.5298 13.4977 14.8112 14.2144C14.0925 14.9311 13.119 15.3336 12.104 15.3336V15.3439Z" fill="#0A2B36"/>
<path d="M12.1072 0.771484C8.9059 0.774158 5.83571 2.04355 3.56722 4.30241C1.29873 6.56127 0.0162906 9.62603 0 12.8273C0 17.627 2.69278 21.6456 4.66611 24.5748L5.02583 25.1093C6.98918 27.9548 9.09539 30.699 11.3364 33.3315L12.1175 34.2462L12.8986 33.3315C15.1393 30.6988 17.2455 27.9546 19.2092 25.1093L19.5689 24.5645C21.5319 21.6354 24.2247 17.627 24.2247 12.8273C24.2084 9.62425 22.9246 6.55794 20.6539 4.29879C18.3832 2.03964 15.3103 0.771443 12.1072 0.771484ZM17.8525 23.3826L17.4825 23.9273C15.7147 26.579 13.3714 29.5493 12.1072 31.019C10.8944 29.5493 8.49972 26.579 6.73195 23.9273L6.37222 23.3826C4.55306 20.6693 2.05556 16.959 2.05556 12.7862C2.05556 11.4662 2.31555 10.1591 2.82069 8.9396C3.32584 7.72008 4.06624 6.61199 4.99962 5.6786C5.933 4.74522 7.04109 4.00482 8.26062 3.49968C9.48014 2.99453 10.7872 2.73454 12.1072 2.73454C13.4272 2.73454 14.7343 2.99453 15.9538 3.49968C17.1734 4.00482 18.2814 4.74522 19.2148 5.6786C20.1482 6.61199 20.8886 7.72008 21.3938 8.9396C21.8989 10.1591 22.1589 11.4662 22.1589 12.7862C22.1589 17.0001 19.6717 20.7104 17.8525 23.3826Z" fill="#0A2B36"/>
</svg>
