<svg width="35" height="28" viewBox="0 0 35 28" fill="none" xmlns="http://www.w3.org/2000/svg">
<path d="M31.2375 2.9856L31.4082 2.81489H31.1667H3.47383H3.23093L3.40343 2.9859L17.3095 16.7728L17.3802 16.8429L17.4506 16.7725L31.2375 2.9856ZM1.92915 23.8008V24.0422L2.09986 23.8715L11.8722 14.0992L11.9432 14.0282L11.8719 13.9574L2.09955 4.26894L1.92915 4.1V4.33996V23.8008ZM3.39325 25.1648L3.22254 25.3355H3.46396H31.1668H31.4082L31.2375 25.1648L21.512 15.4393L21.4413 15.3686L21.3706 15.4393L18.0298 18.7801L18.1005 18.8509L18.0297 18.7802C17.6737 19.1363 17.0967 19.1374 16.7392 18.783L13.3128 15.386L13.2421 15.3159L13.1717 15.3863L3.39325 25.1648ZM32.5309 23.8714L32.7016 24.0421V23.8007V4.34963V4.10821L32.5309 4.27892L22.8054 14.0045L22.7347 14.0752L22.8054 14.1459L32.5309 23.8714ZM3.04372 0.985742H31.5871C33.2139 0.985742 34.5308 2.31245 34.5308 3.92946V24.2209C34.5308 25.8478 33.2041 27.1646 31.5871 27.1646H3.04372C1.41687 27.1646 0.1 25.8379 0.1 24.2209V3.92946C0.1 2.30702 1.42271 0.985742 3.04372 0.985742Z" fill="#0A2B36" stroke="#0A2B36" stroke-width="0.2"/>
</svg>
