<svg width="40" height="34" viewBox="0 0 40 34" fill="none" xmlns="http://www.w3.org/2000/svg">
<path fill-rule="evenodd" clip-rule="evenodd" d="M39.4579 4.00829L33.7186 31.054C33.7185 31.0543 33.7185 31.0546 33.7184 31.055C33.5038 32.0831 33.0559 32.8689 32.3018 33.2089C31.5501 33.5479 30.6785 33.3603 29.8154 32.8841L29.7864 32.8681L29.7598 32.8484L21.3552 26.6389L17.4555 30.4309L17.4555 30.4309C17.4395 30.4465 17.4233 30.4623 17.4069 30.4782C17.1877 30.692 16.9384 30.9352 16.6332 31.1173C16.2851 31.3251 15.8804 31.4474 15.357 31.4474H14.8225L14.8581 30.9141L15.4354 22.2649L15.1635 22.0634L15.617 21.6541L31.4186 7.39435C31.3938 7.40791 31.3687 7.42231 31.3434 7.4376L11.3177 20.0716L11.1224 20.1948L10.9019 20.126L2.25281 17.4265C2.25236 17.4263 2.25191 17.4262 2.25146 17.426C1.74261 17.2701 1.31308 17.0526 1.0097 16.7662C0.697514 16.4716 0.503461 16.0842 0.547785 15.6407C0.590238 15.216 0.841739 14.8443 1.18841 14.5379C1.53832 14.2286 2.02459 13.9491 2.63253 13.7053L2.63876 13.7028L2.63878 13.7028L36.3396 0.707965C37.2466 0.301485 38.229 0.381433 38.897 1.02744C39.5598 1.6685 39.774 2.73232 39.4579 4.00829ZM16.4379 22.2603L15.897 30.3647C15.9796 30.3352 16.0528 30.2991 16.1207 30.2586C16.3215 30.1388 16.4919 29.9731 16.7385 29.7333L16.7584 29.7139L16.7584 29.7139L20.9623 25.6261L21.2666 25.3302L21.608 25.5824L30.3268 32.024C31.058 32.421 31.5632 32.445 31.8907 32.2973C32.2199 32.1489 32.5532 31.7439 32.7396 30.8498L32.74 30.8481L38.4815 3.79225L38.4833 3.78361L38.4854 3.77504C38.754 2.69817 38.5185 2.05258 38.2017 1.74625C37.892 1.44668 37.3681 1.33922 36.7391 1.62476L36.7259 1.63077L36.7123 1.636L3.0048 14.6334C3.00379 14.6338 3.00277 14.6342 3.00176 14.6346C2.46071 14.8519 2.08664 15.0786 1.85065 15.2872C1.61099 15.499 1.55113 15.6571 1.54283 15.7402C1.5364 15.8046 1.55219 15.9032 1.69609 16.039C1.84853 16.1829 2.12083 16.3402 2.54558 16.4703L2.54817 16.4711L10.9794 19.1026L30.8137 6.58936L30.8212 6.58464L30.8213 6.58471C31.1024 6.41423 31.3871 6.30339 31.6508 6.24907C31.9049 6.19673 32.1778 6.18937 32.415 6.27072C32.5364 6.31238 32.6717 6.38568 32.7781 6.51223C32.8913 6.64672 32.9493 6.81544 32.9427 6.99311C32.9309 7.31196 32.7209 7.5688 32.5152 7.75173C32.5146 7.75223 32.5141 7.75273 32.5135 7.75323L16.4379 22.2603Z" fill="#0A2B36"/>
</svg>
