<svg width="38" height="37" viewBox="0 0 38 37" fill="none" xmlns="http://www.w3.org/2000/svg">
<path d="M15.0024 10.7643L15.0021 10.7636C14.3912 8.91225 14.0798 6.96782 14.0798 4.98772C14.0798 3.55675 12.9154 2.39238 11.4845 2.39238H5.54534C4.11437 2.39238 2.95 3.55675 2.95 4.98772C2.95 21.3886 16.2947 34.7333 32.6956 34.7333C34.1265 34.7333 35.2909 33.5689 35.2909 32.1379V26.2158C35.2909 24.7848 34.1265 23.6205 32.6956 23.6205C30.7121 23.6205 28.7695 23.3108 26.9268 22.7017C26.0102 22.3859 24.9699 22.6275 24.3614 23.2442L20.7296 25.987C16.5657 23.7598 13.8948 21.0905 11.6946 16.9538L14.3629 13.4083C15.0513 12.7164 15.2977 11.7089 15.0024 10.7643ZM33.4942 32.0879H33.494L13.3375 11.3001L13.2897 11.315C13.2898 11.3151 13.2898 11.3152 13.2899 11.3154C13.3816 11.6118 13.31 11.9209 13.0096 12.2327L13.0094 12.2324L13.0057 12.2372L9.91738 16.3267L9.91731 16.3268C9.71078 16.6016 9.67835 16.9699 9.83469 17.2755C12.3559 22.2279 15.4197 25.2933 20.4075 27.8485C20.7115 28.0068 21.0835 27.9743 21.3584 27.7659L25.5361 24.5995L25.5364 24.5999L25.541 24.5953C25.7551 24.3844 26.0697 24.311 26.354 24.4052L26.354 24.4052C28.3886 25.0772 30.5218 25.4173 32.6957 25.4173C33.1348 25.4173 33.4942 25.7752 33.4942 26.2158V32.0879Z" fill="#0A2B36" stroke="#0A2B36" stroke-width="0.1"/>
</svg>
