<svg width="23" height="22" viewBox="0 0 23 22" fill="none" xmlns="http://www.w3.org/2000/svg">
<path d="M16.7171 0H6.62755C3.34381 0 0.672363 2.67144 0.672363 5.95519V16.0449C0.672363 19.3285 3.34381 22 6.62755 22H16.7173C20.0009 22 22.6723 19.3285 22.6723 16.0449V5.95519C22.6723 2.67144 20.0009 0 16.7171 0V0ZM11.6723 17.0154C8.35536 17.0154 5.6569 14.317 5.6569 11C5.6569 7.683 8.35536 4.98453 11.6723 4.98453C14.9893 4.98453 17.6878 7.683 17.6878 11C17.6878 14.317 14.9893 17.0154 11.6723 17.0154ZM17.8316 6.40317C16.8514 6.40317 16.0541 5.6059 16.0541 4.62568C16.0541 3.64545 16.8514 2.84802 17.8316 2.84802C18.8119 2.84802 19.6093 3.64545 19.6093 4.62568C19.6093 5.6059 18.8119 6.40317 17.8316 6.40317Z" fill="#DBE8AD"/>
<path d="M11.6724 9C10.5696 9 9.67236 9.89718 9.67236 11C9.67236 12.1028 10.5696 13 11.6724 13C12.7752 13 13.6724 12.1028 13.6724 11C13.6724 9.89718 12.7752 9 11.6724 9Z" fill="#DBE8AD"/>
<path d="M17.8315 4.1377C17.5626 4.1377 17.3438 4.35657 17.3438 4.62546C17.3438 4.89435 17.5626 5.11322 17.8315 5.11322C18.1006 5.11322 18.3194 4.89451 18.3194 4.62546C18.3194 4.3564 18.1006 4.1377 17.8315 4.1377Z" fill="#DBE8AD"/>
</svg>
