<svg width="36" height="33" viewBox="0 0 36 33" fill="none" xmlns="http://www.w3.org/2000/svg">
<path d="M16.9393 13.0607C17.5251 13.6464 18.4749 13.6464 19.0607 13.0607L28.6066 3.51472C29.1924 2.92893 29.1924 1.97919 28.6066 1.3934C28.0208 0.807612 27.0711 0.807612 26.4853 1.3934L18 9.87868L9.51472 1.3934C8.92893 0.807611 7.97919 0.807611 7.3934 1.3934C6.80761 1.97918 6.80761 2.92893 7.3934 3.51472L16.9393 13.0607ZM16.5 9L16.5 12L19.5 12L19.5 9L16.5 9Z" fill="white"/>
<path d="M16.9393 24.0607C17.5251 24.6464 18.4749 24.6464 19.0607 24.0607L28.6066 14.5147C29.1924 13.9289 29.1924 12.9792 28.6066 12.3934C28.0208 11.8076 27.0711 11.8076 26.4853 12.3934L18 20.8787L9.51472 12.3934C8.92893 11.8076 7.97919 11.8076 7.3934 12.3934C6.80761 12.9792 6.80761 13.9289 7.3934 14.5147L16.9393 24.0607ZM16.5 20L16.5 23L19.5 23L19.5 20L16.5 20Z" fill="white"/>
</svg>
