<svg width="53" height="44" viewBox="0 0 53 44" fill="none" xmlns="http://www.w3.org/2000/svg">
<path d="M7.34999 31.176L6.08313 29.9092L20.0463 15.9461L21.3131 17.2129L7.34999 31.176Z" fill="#DBE8AD" stroke="#0A2B36" stroke-width="0.4"/>
<path d="M45.2499 31.176L31.2867 17.2129L32.5536 15.946L46.5167 29.9092L45.2499 31.176Z" fill="#DBE8AD" stroke="#0A2B36" stroke-width="0.4"/>
<path d="M1.52222 3.05904L25.6306 21.6882C25.8222 21.8365 26.0579 21.9167 26.3001 21.9161C26.5424 21.9167 26.778 21.8365 26.9696 21.6882L51.078 3.05904M1.52222 3.05904L1.68057 3.18121L1.80264 3.02298M1.52222 3.05904L1.64451 2.90078L1.80264 3.02298M1.52222 3.05904L2.73919 1.48159L2.89745 1.60388M1.80264 3.02298L25.7529 21.5299L25.753 21.53C25.9094 21.6511 26.1018 21.7166 26.2996 21.7161L26.3006 21.7161C26.4984 21.7166 26.6908 21.6511 26.8472 21.53L26.8473 21.5299L50.7976 3.02298M1.80264 3.02298L2.89745 1.60388M50.7976 3.02298L50.9196 3.18121L51.078 3.05904M50.7976 3.02298L50.9557 2.90078L51.078 3.05904M50.7976 3.02298L49.7027 1.60389M51.078 3.05904L49.861 1.48159L49.7027 1.60389M49.7027 1.60389L26.4224 19.5935L26.3001 19.688L26.1778 19.5935L2.89745 1.60388M49.7027 1.60389L49.5806 1.44553L26.3001 19.4352L3.01962 1.44553L2.89745 1.60388" fill="#DBE8AD" stroke="#0A2B36" stroke-width="0.4"/>
<path d="M18.8291 37.2584V37.0584H18.6291H3.2875C1.58233 37.0584 0.2 35.676 0.2 33.9709V3.2875C0.2 1.58233 1.58233 0.2 3.2875 0.2H49.3125C51.0177 0.2 52.4 1.58223 52.4 3.2875V33.9709C52.4 35.676 51.0177 37.0584 49.3125 37.0584H26.7536H26.6707L26.6121 37.1169L20.3582 43.3709C20.1902 43.5389 19.9624 43.6333 19.7248 43.6334H19.7243C19.6068 43.6337 19.4905 43.6106 19.3822 43.5655L19.3818 43.5653C19.0472 43.4266 18.829 43.0999 18.8291 42.7375V37.2584ZM20.6209 40.0921V40.5749L20.9623 40.2335L25.6667 35.5291C25.8347 35.3611 26.0624 35.2667 26.3 35.2666C26.3 35.2666 26.3 35.2666 26.3001 35.2666H49.3125C50.0282 35.2666 50.6084 34.6864 50.6084 33.9708V3.2875C50.6084 2.57183 50.0282 1.99163 49.3125 1.99163H3.2875C2.57183 1.99163 1.99163 2.57183 1.99163 3.2875V33.9707C1.99163 34.6863 2.57184 35.2665 3.2875 35.2665H19.725C20.2197 35.2665 20.6209 35.6676 20.6209 36.1624V40.0921Z" fill="#DBE8AD" stroke="#0A2B36" stroke-width="0.4"/>
</svg>
