<svg width="70" height="70" viewBox="0 0 70 70" fill="none" xmlns="http://www.w3.org/2000/svg">
<path d="M34.3795 19.6973L34.3793 20.1973H34.3794L34.3795 19.6973ZM33.3271 19.6975H32.8271V20.1983L33.3279 20.1975L33.3271 19.6975ZM35.0017 19.6975L35.0015 20.1975H35.0017V19.6975ZM42.5446 19.8048L42.5675 19.3053L42.5673 19.3053L42.5446 19.8048ZM46.0104 20.4477L46.1915 19.9816L46.1914 19.9816L46.0104 20.4477ZM48.1556 21.8438L47.8019 22.1972L47.802 22.1973L48.1556 21.8438ZM49.5525 23.9905L50.0185 23.8093L50.0184 23.8091L49.5525 23.9905ZM50.1953 27.4555L50.6948 27.4328L50.6948 27.4328L50.1953 27.4555ZM50.1953 42.5368L50.6948 42.5596L50.6948 42.5595L50.1953 42.5368ZM49.5525 46.0018L49.0865 45.8206L49.0864 45.8208L49.5525 46.0018ZM48.1556 48.1462L47.8021 47.7925L47.802 47.7926L48.1556 48.1462ZM46.0104 49.5423L45.8295 49.0762L45.8286 49.0765L46.0104 49.5423ZM42.5446 50.1855L42.5673 50.685L42.5675 50.685L42.5446 50.1855ZM27.4587 50.1855L27.4356 50.685L27.436 50.685L27.4587 50.1855ZM23.9925 49.5419L23.8115 50.008L23.8116 50.008L23.9925 49.5419ZM21.8458 48.1458L21.4923 48.4993L21.8458 48.1458ZM20.4489 46.0002L19.9829 46.1814L19.9829 46.1816L20.4489 46.0002ZM19.8061 42.5352L19.3066 42.5579L19.3066 42.5579L19.8061 42.5352ZM19.8061 27.4508L19.3066 27.428L19.3066 27.4281L19.8061 27.4508ZM20.4489 23.985L19.9828 23.804L19.9828 23.804L20.4489 23.985ZM21.8458 21.8383L21.4923 21.4848L21.8458 21.8383ZM23.9925 20.4414L24.1739 20.9074L24.1742 20.9072L23.9925 20.4414ZM27.4587 19.7978L27.4361 19.2983L27.4358 19.2983L27.4587 19.7978ZM33.3271 19.6928H33.8271V19.1923L33.3265 19.1928L33.3271 19.6928ZM44.9654 22.7969V23.2969H45.4654V22.7969H44.9654ZM44.9654 22.7961V22.2961H44.4654V22.7961H44.9654ZM34.3797 19.1973C34.0024 19.1971 33.6521 19.197 33.3263 19.1975L33.3279 20.1975C33.6524 20.197 34.0017 20.1971 34.3793 20.1973L34.3797 19.1973ZM35.0018 19.1975L34.3797 19.1973L34.3794 20.1973L35.0015 20.1975L35.0018 19.1975ZM42.5673 19.3053C40.5875 19.2154 39.9876 19.1975 35.0017 19.1975V20.1975C39.9838 20.1975 40.5654 20.2154 42.5219 20.3043L42.5673 19.3053ZM46.1914 19.9816C45.4838 19.7068 44.4427 19.3911 42.5675 19.3053L42.5218 20.3043C44.2866 20.385 45.2211 20.6775 45.8295 20.9137L46.1914 19.9816ZM48.5092 21.4903C47.8067 20.7874 47.1267 20.3448 46.1915 19.9816L45.8294 20.9137C46.6365 21.2272 47.1986 21.5935 47.8019 22.1972L48.5092 21.4903ZM50.0184 23.8091C49.6546 22.8744 49.2122 22.1933 48.5091 21.4902L47.802 22.1973C48.4056 22.8009 48.7722 23.3643 49.0865 24.1718L50.0184 23.8091ZM50.6948 27.4328C50.6095 25.5575 50.2933 24.5162 50.0185 23.8093L49.0865 24.1716C49.3226 24.7792 49.6155 25.7135 49.6958 27.4782L50.6948 27.4328ZM50.8042 34.9961C50.8042 30.0122 50.7848 29.4121 50.6948 27.4328L49.6958 27.4782C49.7848 29.4345 49.8042 30.0167 49.8042 34.9961H50.8042ZM50.6948 42.5595C50.7848 40.5802 50.8042 39.9801 50.8042 34.9961H49.8042C49.8042 39.9756 49.7848 40.5577 49.6958 42.5141L50.6948 42.5595ZM50.0185 46.183C50.2934 45.476 50.6091 44.4347 50.6948 42.5596L49.6958 42.5139C49.6151 44.2788 49.3226 45.2132 49.0865 45.8206L50.0185 46.183ZM48.509 48.4998C49.2117 47.7976 49.6552 47.1184 50.0186 46.1828L49.0864 45.8208C48.7731 46.6274 48.4062 47.1888 47.8021 47.7925L48.509 48.4998ZM46.1914 50.0084C47.1272 49.6451 47.8064 49.2025 48.5091 48.4997L47.802 47.7926C47.1981 48.3965 46.6367 48.7628 45.8295 49.0762L46.1914 50.0084ZM42.5675 50.685C44.4422 50.5993 45.4845 50.2845 46.1923 50.008L45.8286 49.0765C45.2219 49.3135 44.2871 49.6053 42.5218 49.686L42.5675 50.685ZM35.0017 50.7944C39.988 50.7944 40.5881 50.775 42.5673 50.685L42.5219 49.686C40.5656 49.775 39.9835 49.7944 35.0017 49.7944V50.7944ZM27.436 50.685C29.4153 50.775 30.015 50.7944 35.0017 50.7944V49.7944C30.0195 49.7944 29.4377 49.775 27.4814 49.686L27.436 50.685ZM23.8116 50.008C24.5195 50.2827 25.5605 50.5984 27.4356 50.685L27.4818 49.686C25.7168 49.6046 24.7823 49.3121 24.1734 49.0758L23.8116 50.008ZM21.4923 48.4993C22.1953 49.2024 22.8765 49.6448 23.8115 50.008L24.1735 49.0758C23.3662 48.7623 22.803 48.3958 22.1994 47.7922L21.4923 48.4993ZM19.9829 46.1816C20.3469 47.117 20.7894 47.7965 21.4923 48.4993L22.1994 47.7922C21.5955 47.1884 21.2291 46.6265 20.9149 45.8189L19.9829 46.1816ZM19.3066 42.5579C19.3919 44.4333 19.7081 45.4745 19.9829 46.1814L20.9149 45.8191C20.6787 45.2115 20.3859 44.2772 20.3055 42.5125L19.3066 42.5579ZM19.1987 34.9915C19.1987 39.9782 19.2166 40.5785 19.3066 42.5579L20.3055 42.5125C20.2166 40.5564 20.1987 39.9744 20.1987 34.9915H19.1987ZM19.3066 27.4281C19.2166 29.4076 19.1987 30.0047 19.1987 34.9915H20.1987C20.1987 30.0086 20.2166 29.4297 20.3055 27.4735L19.3066 27.4281ZM19.9828 23.804C19.708 24.5117 19.3923 25.5528 19.3066 27.428L20.3055 27.4737C20.3862 25.7088 20.6788 24.7744 20.915 24.166L19.9828 23.804ZM21.4923 21.4848C20.7894 22.1877 20.3461 22.8688 19.9828 23.804L20.915 24.166C21.2284 23.359 21.5956 22.7957 22.1994 22.1919L21.4923 21.4848ZM23.8111 19.9755C22.8764 20.3394 22.1953 20.7817 21.4923 21.4848L22.1994 22.1919C22.803 21.5883 23.3663 21.2217 24.1739 20.9074L23.8111 19.9755ZM27.4358 19.2983C25.561 19.3845 24.5192 19.6993 23.8108 19.9756L24.1742 20.9072C24.7818 20.6702 25.7164 20.3784 27.4816 20.2973L27.4358 19.2983ZM33.3265 19.1928C29.8427 19.1967 29.1676 19.2201 27.4361 19.2983L27.4813 20.2973C29.1938 20.22 29.8534 20.1967 33.3277 20.1928L33.3265 19.1928ZM33.8271 19.6975V19.6928H32.8271V19.6975H33.8271ZM43.2254 25.0362C43.2254 24.0755 44.0046 23.2969 44.9654 23.2969V22.2969C43.4529 22.2969 42.2254 23.5227 42.2254 25.0362H43.2254ZM44.9654 26.7762C44.0049 26.7762 43.2254 25.9967 43.2254 25.0362H42.2254C42.2254 26.549 43.4526 27.7762 44.9654 27.7762V26.7762ZM46.7055 25.0362C46.7055 25.9967 45.926 26.7762 44.9654 26.7762V27.7762C46.4783 27.7762 47.7055 26.549 47.7055 25.0362H46.7055ZM44.9654 23.2961C45.926 23.2961 46.7055 24.0756 46.7055 25.0362H47.7055C47.7055 23.5233 46.4783 22.2961 44.9654 22.2961V23.2961ZM45.4654 22.7969V22.7961H44.4654V22.7969H45.4654ZM35.0016 24.914C29.4315 24.914 24.9154 29.4301 24.9154 35.0002H25.9154C25.9154 29.9824 29.9838 25.914 35.0016 25.914V24.914ZM35.0012 25.914H35.0016V24.914H35.0012V25.914ZM45.0863 35.0002C45.0863 29.4302 40.5714 24.914 35.0012 24.914V25.914C40.019 25.914 44.0863 29.9823 44.0863 35.0002H45.0863ZM35.0016 45.0845C40.5717 45.0845 45.0863 40.5704 45.0863 35.0002H44.0863C44.0863 40.0181 40.0195 44.0845 35.0016 44.0845V45.0845ZM24.9154 35.0002C24.9154 40.5705 29.4316 45.0845 35.0016 45.0845V44.0845C29.9836 44.0845 25.9154 40.018 25.9154 35.0002H24.9154Z" fill="#0A2B36"/>
<path d="M35.0016 28.7779C38.4378 28.7779 41.2239 31.5635 41.2239 35.0002C41.2239 38.4364 38.4378 41.2225 35.0016 41.2225C31.5649 41.2225 28.7793 38.4364 28.7793 35.0002C28.7793 31.5635 31.5649 28.7779 35.0016 28.7779V28.7779Z" stroke="#0A2B36"/>
</svg>
