<svg width="23" height="22" viewBox="0 0 23 22" fill="none" xmlns="http://www.w3.org/2000/svg">
<path d="M22.667 21.9996V21.9986H22.6725V13.9301C22.6725 9.98297 21.8228 6.94238 17.2083 6.94238C14.9899 6.94238 13.5013 8.15972 12.8935 9.3138H12.8294V7.31088H8.4541V21.9986H13.0099V14.7258C13.0099 12.8109 13.3729 10.9592 15.7444 10.9592C18.0809 10.9592 18.1158 13.1445 18.1158 14.8486V21.9996H22.667Z" fill="#DBE8AD"/>
<path d="M1.03528 7.3125H5.59661V22.0002H1.03528V7.3125Z" fill="#DBE8AD"/>
<path d="M3.3142 0C1.85578 0 0.672363 1.18342 0.672363 2.64183C0.672363 4.10025 1.85578 5.30842 3.3142 5.30842C4.77261 5.30842 5.95603 4.10025 5.95603 2.64183C5.95511 1.18342 4.7717 0 3.3142 0V0Z" fill="#DBE8AD"/>
</svg>
