<svg width="23" height="23" viewBox="0 0 23 23" fill="none" xmlns="http://www.w3.org/2000/svg">
<path d="M22.6451 19.7623L17.1383 14.0734C16.7434 13.6653 16.2499 13.5019 16.0361 13.7105C15.8215 13.9177 15.3277 13.7547 14.9328 13.3466L14.854 13.2649C17.3186 10.0234 17.0795 5.38225 14.1198 2.42262C10.8897 -0.807539 5.65236 -0.807539 2.42262 2.42262C-0.807538 5.65277 -0.807538 10.8893 2.42262 14.1195C5.43266 17.1299 10.1835 17.3316 13.4316 14.7315L13.4662 14.7676C13.8603 15.1757 14.0072 15.6744 13.7919 15.8819C13.5777 16.0895 13.7235 16.5885 14.1187 16.9959L19.6225 22.687C20.0174 23.0941 20.668 23.1062 21.0766 22.711L22.6212 21.2164C23.0282 20.8222 23.0392 20.1719 22.6451 19.7623ZM12.3022 12.3017C10.0793 14.5249 6.46208 14.5249 4.23956 12.3025C2.01671 10.0796 2.01704 6.46195 4.23956 4.2395C6.46208 2.01664 10.0793 2.01698 12.3015 4.23984C14.5246 6.46236 14.5246 10.0793 12.3022 12.3017Z" fill="#DBE8AD"/>
</svg>
