<svg width="54" height="27" viewBox="0 0 54 27" fill="none" xmlns="http://www.w3.org/2000/svg">
<path d="M21.36 10.04V11.224L16.16 13.4L21.36 15.576V16.76L14.96 13.96V12.84L21.36 10.04Z" fill="#4D90F4"/>
<path d="M23.7525 20.6H22.9525L29.3525 6.2H30.1525L23.7525 20.6Z" fill="#4D90F4"/>
<path d="M31.7568 10.04L38.1568 12.84V13.96L31.7568 16.76V15.576L36.9568 13.4L31.7568 11.224V10.04Z" fill="#4D90F4"/>
<path fill-rule="evenodd" clip-rule="evenodd" d="M49 1H5C2.79086 1 1 2.79086 1 5V22C1 24.2091 2.79086 26 5 26H49C51.2091 26 53 24.2091 53 22V5C53 2.79086 51.2091 1 49 1ZM5 0C2.23858 0 0 2.23858 0 5V22C0 24.7614 2.23858 27 5 27H49C51.7614 27 54 24.7614 54 22V5C54 2.23858 51.7614 0 49 0H5Z" fill="#4D90F4"/>
</svg>
