<svg width="60" height="60" viewBox="0 0 60 60" fill="none" xmlns="http://www.w3.org/2000/svg">
<circle cx="30" cy="30" r="30" fill="#4D90F4"/>
<path d="M42 31.1166V39.3901H37.157V31.6211C37.157 29.704 36.4507 28.3924 34.7354 28.3924C33.4238 28.3924 32.6166 29.3005 32.3139 30.1076C32.213 30.4103 32.1121 30.8139 32.1121 31.3184V39.3901H27.2691C27.2691 39.3901 27.37 26.2735 27.2691 24.9619H32.1121V26.9798C32.7175 25.9709 33.9282 24.5583 36.4507 24.5583C39.5785 24.5583 42 26.6771 42 31.1166ZM22.2242 18C20.6099 18 19.5 19.1099 19.5 20.5224C19.5 21.935 20.509 23.0448 22.1233 23.0448C23.8386 23.0448 24.8475 21.935 24.8475 20.5224C24.9484 19.009 23.9395 18 22.2242 18ZM19.8027 39.3901H24.6457V24.9619H19.8027V39.3901Z" fill="white"/>
</svg>
