<svg width="60" height="60" viewBox="0 0 60 60" fill="none" xmlns="http://www.w3.org/2000/svg">
<circle cx="30" cy="30" r="30" fill="#4D90F4"/>
<path d="M28.3082 27.8295C28.8826 26.9678 29.1698 25.9625 29.1698 24.8136C29.1698 21.7978 26.5848 19.5 23.7126 19.5H15.3831C14.9523 19.5 14.665 19.7872 14.665 20.2181V38.4568C14.665 38.8876 14.9523 39.1748 15.3831 39.1748H24.5743C28.0209 39.1748 30.8932 36.4462 30.8932 32.9995C30.8932 30.8453 29.8879 28.9784 28.3082 27.8295ZM18.2553 23.2339H23.7126C24.7179 23.2339 25.4359 24.0956 25.4359 24.9573C25.4359 25.9625 24.5743 26.6806 23.7126 26.6806H18.2553V23.2339ZM24.7179 35.5845H18.2553V30.4145H24.7179C26.154 30.4145 27.3029 31.5634 27.3029 32.9995C27.3029 34.4356 26.154 35.5845 24.7179 35.5845Z" fill="white"/>
<path d="M46.8341 31.707C46.8341 27.3987 43.531 23.952 39.3663 23.952C35.2015 23.952 31.8985 27.3987 31.8985 31.707C31.8985 36.0154 35.2015 39.4621 39.3663 39.4621C41.8077 39.4621 44.1055 38.1696 45.5416 36.0154C45.6852 35.7282 45.8288 35.4409 45.9724 35.1537C46.116 35.0101 45.9724 34.7229 45.6852 34.7229H42.0949C41.9513 34.7229 41.9513 34.7229 41.8077 34.8665C41.0896 35.5845 40.228 35.8718 39.3663 35.8718C37.4993 35.8718 36.0632 34.5793 35.6324 32.7123H46.116C46.5469 32.7123 46.8341 32.4251 46.8341 31.9942V31.707ZM39.3663 27.6859C40.6588 27.6859 41.8077 28.4039 42.5257 29.5528H36.2068C36.7813 28.4039 38.0738 27.6859 39.3663 27.6859Z" fill="white"/>
<path d="M42.3821 23.0903H35.776C35.4888 23.0903 35.2015 22.8031 35.2015 22.5159V20.9361C35.2015 20.6489 35.4888 20.3617 35.776 20.3617H42.3821C42.6694 20.3617 42.9566 20.6489 42.9566 20.9361V22.6595C42.9566 22.8031 42.813 23.0903 42.3821 23.0903Z" fill="white"/>
</svg>
