<svg width="168" height="96" viewBox="0 0 168 96" fill="none" xmlns="http://www.w3.org/2000/svg">
<path fill-rule="evenodd" clip-rule="evenodd" d="M13.8754 80.4625C20.4043 84.1021 30.5605 87.0138 39.9912 89.9254C50.1474 92.8371 59.5781 94.2929 69.7343 95.0208C79.8905 95.7488 90.0466 95.7488 100.203 95.0208C110.359 94.2929 120.515 92.1092 129.946 89.9254C140.102 87.0138 149.533 84.1021 156.062 80.4625C162.591 76.823 166.943 74.6392 167.669 70.2717C168.394 65.9042 164.767 60.0809 158.964 50.618C153.16 40.4272 145.18 26.5968 139.377 17.1339C133.573 7.67101 130.671 1.84769 125.593 0.39186C120.515 -1.06397 113.986 1.84769 107.457 4.03144C101.654 5.48727 96.5756 6.9431 91.4975 7.67102C86.4194 8.39893 81.3413 8.39893 76.2633 7.67102C71.1852 6.9431 66.1071 6.21519 60.3036 4.03144C54.5 2.57561 47.2456 -1.06397 42.1675 0.39186C37.0895 1.84769 33.4623 6.9431 28.3842 17.1339C22.5806 26.5968 14.6008 41.1551 8.79727 50.618C2.99374 60.8088 -0.63346 65.9042 0.0919807 70.2717C2.99374 74.6392 7.34639 77.5509 13.8754 80.4625Z" fill="#000"/>
</svg>
