<svg width="175" height="124" viewBox="0 0 175 124" fill="none" xmlns="http://www.w3.org/2000/svg">
<path fill-rule="evenodd" clip-rule="evenodd" d="M3.92678 104.738C9.46762 118.497 19.8567 124 30.9384 124C42.02 124 52.4091 118.497 57.9499 110.241C63.4907 102.674 63.4907 90.9792 65.5686 83.4119C67.6464 75.8447 73.1872 69.6533 79.4206 67.5895C84.9615 65.5257 90.5023 65.5257 95.3505 67.5895C100.891 69.6533 106.432 75.1567 109.203 83.4119C111.28 90.9792 111.28 102.674 116.821 110.241C122.362 117.809 132.751 124 143.833 124C154.914 124 165.304 118.497 170.844 104.738C176.385 90.9792 176.385 69.6533 170.844 51.0791C165.304 32.5049 154.914 15.9945 143.833 7.73925C132.751 0.171984 122.362 0.171984 116.821 7.73925C111.28 15.3065 111.28 32.5049 109.203 40.0721C107.125 47.6394 101.584 47.6394 98.1209 42.1359C96.0431 36.6325 96.0431 26.3135 96.0431 17.3703C96.0431 9.80305 96.0431 3.61165 93.9653 1.54785C91.8875 -0.51595 86.3467 -0.51595 82.8837 1.54785C80.8058 3.61165 80.8058 9.11512 80.8058 17.3703C80.8058 25.6255 80.8058 36.6325 78.728 42.1359C76.6502 47.6394 71.1094 47.6394 67.6464 40.0721C65.5686 32.5049 65.5686 15.3065 60.0277 7.73925C54.4869 0.171984 44.0978 0.171984 33.0162 7.73925C21.9345 15.3065 11.5454 32.5049 6.0046 51.0791C-1.61405 70.3412 -1.61405 91.6671 3.92678 104.738Z" fill="#000"/>
</svg>
