<svg width="44" height="44" viewBox="0 0 44 44" fill="none" xmlns="http://www.w3.org/2000/svg">
<path fill-rule="evenodd" clip-rule="evenodd" d="M0.585786 0.585786C1.36683 -0.195262 2.63317 -0.195262 3.41421 0.585786L43.4142 40.5858C44.1953 41.3668 44.1953 42.6332 43.4142 43.4142C42.6332 44.1953 41.3668 44.1953 40.5858 43.4142L0.585786 3.41421C-0.195262 2.63317 -0.195262 1.36683 0.585786 0.585786Z" fill="black"/>
<path fill-rule="evenodd" clip-rule="evenodd" d="M43.4142 0.585786C44.1953 1.36683 44.1953 2.63317 43.4142 3.41421L3.41421 43.4142C2.63317 44.1953 1.36683 44.1953 0.585786 43.4142C-0.195262 42.6332 -0.195262 41.3668 0.585786 40.5858L40.5858 0.585786C41.3668 -0.195262 42.6332 -0.195262 43.4142 0.585786Z" fill="black"/>
</svg>
