<svg width="82" height="20" viewBox="0 0 82 20" fill="none" xmlns="http://www.w3.org/2000/svg">
<path d="M23.848 9.272C23.848 9.48533 23.9867 9.66133 24.264 9.8C24.552 9.928 24.8987 10.0453 25.304 10.152C25.7093 10.248 26.1147 10.376 26.52 10.536C26.9253 10.6853 27.2667 10.9413 27.544 11.304C27.832 11.6667 27.976 12.12 27.976 12.664C27.976 13.4853 27.6667 14.12 27.048 14.568C26.44 15.0053 25.6773 15.224 24.76 15.224C23.1173 15.224 21.9973 14.5893 21.4 13.32L23.192 12.312C23.4267 13.0053 23.9493 13.352 24.76 13.352C25.496 13.352 25.864 13.1227 25.864 12.664C25.864 12.4507 25.72 12.28 25.432 12.152C25.1547 12.0133 24.8133 11.8907 24.408 11.784C24.0027 11.6773 23.5973 11.544 23.192 11.384C22.7867 11.224 22.44 10.9733 22.152 10.632C21.8747 10.28 21.736 9.84267 21.736 9.32C21.736 8.53067 22.024 7.912 22.6 7.464C23.1867 7.00533 23.912 6.776 24.776 6.776C25.4267 6.776 26.0187 6.92533 26.552 7.224C27.0853 7.512 27.5067 7.928 27.816 8.472L26.056 9.432C25.8 8.888 25.3733 8.616 24.776 8.616C24.5093 8.616 24.2853 8.67467 24.104 8.792C23.9333 8.90933 23.848 9.06933 23.848 9.272ZM36.01 14.008C35.1887 14.8187 34.186 15.224 33.002 15.224C31.818 15.224 30.8153 14.8187 29.994 14.008C29.1833 13.1867 28.778 12.184 28.778 11C28.778 9.816 29.1833 8.81867 29.994 8.008C30.8153 7.18667 31.818 6.776 33.002 6.776C34.186 6.776 35.1887 7.18667 36.01 8.008C36.8313 8.81867 37.242 9.816 37.242 11C37.242 12.184 36.8313 13.1867 36.01 14.008ZM31.45 12.584C31.866 13 32.3833 13.208 33.002 13.208C33.6207 13.208 34.138 13 34.554 12.584C34.97 12.168 35.178 11.64 35.178 11C35.178 10.36 34.97 9.832 34.554 9.416C34.138 9 33.6207 8.792 33.002 8.792C32.3833 8.792 31.866 9 31.45 9.416C31.0447 9.832 30.842 10.36 30.842 11C30.842 11.64 31.0447 12.168 31.45 12.584ZM38.694 15V3.32H40.758V15H38.694ZM48.7271 7H50.7911V15H48.7271V14.056C48.1085 14.8347 47.2391 15.224 46.1191 15.224C45.0525 15.224 44.1351 14.8187 43.3671 14.008C42.6098 13.1867 42.2311 12.184 42.2311 11C42.2311 9.816 42.6098 8.81867 43.3671 8.008C44.1351 7.18667 45.0525 6.776 46.1191 6.776C47.2391 6.776 48.1085 7.16533 48.7271 7.944V7ZM44.9191 12.632C45.3351 13.048 45.8631 13.256 46.5031 13.256C47.1431 13.256 47.6711 13.048 48.0871 12.632C48.5138 12.2053 48.7271 11.6613 48.7271 11C48.7271 10.3387 48.5138 9.8 48.0871 9.384C47.6711 8.95733 47.1431 8.744 46.5031 8.744C45.8631 8.744 45.3351 8.95733 44.9191 9.384C44.5031 9.8 44.2951 10.3387 44.2951 11C44.2951 11.6613 44.5031 12.2053 44.9191 12.632ZM54.7268 8.376C54.9188 7.864 55.2334 7.48 55.6708 7.224C56.1188 6.968 56.6148 6.84 57.1588 6.84V9.144C56.5294 9.06933 55.9641 9.19733 55.4628 9.528C54.9721 9.85867 54.7268 10.408 54.7268 11.176V15H52.6628V7H54.7268V8.376ZM58.3659 15V3.32H60.4299V15H58.3659ZM68.399 7H70.463V15H68.399V14.056C67.7803 14.8347 66.911 15.224 65.791 15.224C64.7243 15.224 63.807 14.8187 63.039 14.008C62.2817 13.1867 61.903 12.184 61.903 11C61.903 9.816 62.2817 8.81867 63.039 8.008C63.807 7.18667 64.7243 6.776 65.791 6.776C66.911 6.776 67.7803 7.16533 68.399 7.944V7ZM64.591 12.632C65.007 13.048 65.535 13.256 66.175 13.256C66.815 13.256 67.343 13.048 67.759 12.632C68.1857 12.2053 68.399 11.6613 68.399 11C68.399 10.3387 68.1857 9.8 67.759 9.384C67.343 8.95733 66.815 8.744 66.175 8.744C65.535 8.744 65.007 8.95733 64.591 9.384C64.175 9.8 63.967 10.3387 63.967 11C63.967 11.6613 64.175 12.2053 64.591 12.632ZM76.9906 6.776C78.068 6.776 78.9853 7.18667 79.7426 8.008C80.5106 8.81867 80.8946 9.816 80.8946 11C80.8946 12.184 80.5106 13.1867 79.7426 14.008C78.9853 14.8187 78.068 15.224 76.9906 15.224C75.8706 15.224 75.0066 14.8347 74.3986 14.056V15H72.3346V3.8H74.3986V7.944C75.0066 7.16533 75.8706 6.776 76.9906 6.776ZM75.0226 12.632C75.4386 13.048 75.9666 13.256 76.6066 13.256C77.2466 13.256 77.7746 13.048 78.1906 12.632C78.6173 12.2053 78.8306 11.6613 78.8306 11C78.8306 10.3387 78.6173 9.8 78.1906 9.384C77.7746 8.95733 77.2466 8.744 76.6066 8.744C75.9666 8.744 75.4386 8.95733 75.0226 9.384C74.6066 9.8 74.3986 10.3387 74.3986 11C74.3986 11.6613 74.6066 12.2053 75.0226 12.632Z" fill="#000"/>
<path fill-rule="evenodd" clip-rule="evenodd" d="M3.00263 4.06053C2.81032 4.14822 2.66864 4.27901 2.59244 4.43924C2.49283 4.64866 0.0230491 12.8223 0.00528543 13.0013C-0.0239333 13.2956 0.0473206 13.4185 0.753651 14.2923C1.11404 14.7381 1.45942 15.1368 1.52117 15.1783C1.58297 15.2198 1.68756 15.2687 1.7536 15.2871C1.8291 15.308 2.78993 15.3205 4.33906 15.3206L6.80439 15.3208L6.80366 15.7939C6.80286 16.3155 6.76189 16.4734 6.59302 16.6063C6.54521 16.6439 6.2491 16.7847 5.93497 16.9191C5.47328 17.1167 5.3304 17.1942 5.18913 17.3233C4.93127 17.5589 4.8388 17.7714 4.81947 18.1727C4.79334 18.7155 4.92762 19.0086 5.28352 19.186L5.45611 19.272H8.60832C10.9283 19.272 11.795 19.2617 11.8909 19.2329C12.062 19.1817 12.2931 18.9752 12.3797 18.7963C12.4785 18.5923 12.4794 17.9947 12.3814 17.7327C12.2418 17.3597 12.0477 17.2145 11.2204 16.8648C10.5196 16.5686 10.4899 16.5262 10.4899 15.8216V15.3231L12.1916 15.3137C13.867 15.3043 13.8954 15.3031 14.0283 15.2319C14.2064 15.1366 14.3855 14.9344 14.4526 14.7532C14.4823 14.6727 15.0682 12.7542 15.7545 10.4897C16.8987 6.71435 17.001 6.35716 16.9871 6.18702C16.9787 6.08499 16.9461 5.95171 16.9146 5.89085C16.8519 5.76959 15.7061 4.32901 15.571 4.20154C15.5248 4.15798 15.4272 4.09483 15.3542 4.06116C15.2267 4.00246 14.979 4 9.17841 4C3.4012 4 3.1296 4.00266 3.00263 4.06053ZM5.54267 4.59902C5.54267 4.63172 5.28575 5.49148 4.99037 6.44727L4.87492 6.8208H3.66483C2.99931 6.8208 2.45478 6.81044 2.45478 6.79779C2.45478 6.74344 3.06319 4.77128 3.10476 4.69089C3.13 4.64212 3.16964 4.59457 3.19285 4.5852C3.28273 4.54905 5.54267 4.56233 5.54267 4.59902ZM8.59115 5.31836C8.46485 5.73383 8.31178 6.23809 8.25098 6.43897L8.14045 6.8042L6.80466 6.81287C5.74116 6.81981 5.47178 6.81303 5.48317 6.77967C5.49104 6.75666 5.645 6.24848 5.82533 5.65039L6.15318 4.56299H7.48698H8.82082L8.59115 5.31836ZM11.9177 4.59902C11.9177 4.63172 11.6607 5.49148 11.3654 6.44727L11.2499 6.8208H9.98648C8.98942 6.8208 8.72642 6.81204 8.73894 6.7793C8.74764 6.75649 8.9024 6.24858 9.08282 5.65063L9.41084 4.56346L10.6643 4.56322C11.5432 4.56306 11.9177 4.57375 11.9177 4.59902ZM15.1981 4.63033C15.2379 4.66735 15.2789 4.7316 15.2893 4.77307C15.3009 4.81932 15.1933 5.22689 15.0112 5.82634L14.7143 6.8042L13.2791 6.81287C12.1356 6.81974 11.847 6.813 11.8591 6.77967C11.8675 6.75662 12.0216 6.24848 12.2015 5.65039L12.5286 4.56299H13.8273C15.0859 4.56299 15.1281 4.56505 15.1981 4.63033ZM16.1011 5.7431C16.2838 5.97213 16.4333 6.18835 16.4333 6.22358C16.4333 6.25881 15.866 8.15945 15.1727 10.4473C14.0831 14.0425 13.9004 14.6171 13.8261 14.6816L13.7401 14.7563H7.82964C4.04581 14.7563 1.89737 14.7447 1.85855 14.7239C1.79965 14.6924 1.19306 13.9539 1.19306 13.9137C1.19306 13.9027 3.80525 13.8897 6.99793 13.885L12.8028 13.8765L12.9662 13.7757C13.0731 13.7097 13.164 13.617 13.2292 13.5074C13.3004 13.3878 13.6748 12.1962 14.5407 9.33348C15.2073 7.12989 15.7563 5.32686 15.7608 5.3268C15.7652 5.32673 15.9184 5.51406 16.1011 5.7431ZM4.59881 7.74219C4.53977 7.93849 4.36638 8.51376 4.21352 9.02051L3.93561 9.9419H2.71533H1.49508L1.53774 9.80078C1.56122 9.72315 1.73533 9.14794 1.92469 8.52246L2.26898 7.38526H3.48756H4.70615L4.59881 7.74219ZM7.95707 7.42839C7.94794 7.45209 7.772 8.02734 7.56607 8.70671L7.19164 9.9419H5.86909C4.94495 9.9419 4.54658 9.93111 4.54658 9.90607C4.54658 9.86686 5.27535 7.45053 5.29936 7.41016C5.30749 7.39648 5.91255 7.38526 6.64389 7.38526C7.72066 7.38526 7.97045 7.39346 7.95707 7.42839ZM10.9738 7.74219C10.9148 7.93849 10.7414 8.51376 10.5885 9.02051L10.3106 9.9419H9.05553C8.36527 9.9419 7.80048 9.92895 7.80048 9.91314C7.80048 9.88841 8.50499 7.54174 8.54692 7.42676C8.55868 7.39455 8.84419 7.38526 9.82163 7.38526H11.0812L10.9738 7.74219ZM14.4949 7.52637C14.4714 7.604 14.2973 8.17921 14.1079 8.80469L13.7636 9.9419H12.3426C11.3811 9.9419 10.9216 9.93074 10.9216 9.90737C10.9216 9.86961 11.6511 7.4506 11.6747 7.41016C11.6826 7.39648 12.3301 7.38526 13.1134 7.38526H14.5375L14.4949 7.52637ZM3.74193 10.5645C3.7334 10.5964 3.54212 11.2314 3.3168 11.9756L2.90721 13.3286H1.82395C0.781708 13.3286 0.738012 13.3261 0.668485 13.2613C0.628741 13.2243 0.587336 13.1586 0.576479 13.1153C0.563696 13.0645 0.687444 12.6038 0.926207 11.813C1.12944 11.14 1.30203 10.5707 1.30974 10.5479C1.32063 10.5156 1.59678 10.5063 2.54061 10.5063C3.68326 10.5063 3.75651 10.5099 3.74193 10.5645ZM7.00361 10.5337C7.00361 10.5487 6.81684 11.1765 6.58857 11.9288C6.3603 12.6811 6.17353 13.3038 6.17353 13.3126C6.17353 13.3214 5.57587 13.3286 4.84541 13.3286C4.08718 13.3286 3.51728 13.3159 3.51728 13.2989C3.51728 13.2826 3.70405 12.6529 3.93232 11.8996C4.16059 11.1462 4.34736 10.5246 4.34736 10.5181C4.34736 10.5116 4.94502 10.5063 5.67548 10.5063C6.40595 10.5063 7.00361 10.5186 7.00361 10.5337ZM10.1169 10.5645C10.1084 10.5964 9.91712 11.2314 9.6918 11.9756L9.28221 13.3286H8.0267C7.33617 13.3286 6.77119 13.3182 6.77119 13.3054C6.77119 13.2926 6.96045 12.6576 7.19177 11.8943L7.61236 10.5063H8.87241C10.0562 10.5063 10.1315 10.5099 10.1169 10.5645ZM13.5658 10.5811C13.5552 10.6222 13.3749 11.222 13.165 11.9141C12.8981 12.794 12.7613 13.1958 12.71 13.2505L12.6366 13.3286H11.2644C10.4803 13.3286 9.89228 13.3159 9.89228 13.2989C9.89228 13.2826 10.079 12.6529 10.3073 11.8996C10.5356 11.1462 10.7224 10.5246 10.7224 10.5181C10.7224 10.5116 11.3665 10.5063 12.1537 10.5063H13.585L13.5658 10.5811ZM9.9313 15.9102C9.94219 16.4816 9.94534 16.5049 10.036 16.6773C10.2063 17.0016 10.3532 17.1088 11.0206 17.3957C11.3511 17.5378 11.6563 17.6815 11.6989 17.7151C11.8335 17.8209 11.8845 17.9781 11.8845 18.2868C11.8845 18.755 12.2503 18.7075 8.6454 18.7075C6.96015 18.7075 5.55712 18.6982 5.52756 18.6869C5.43802 18.6525 5.37666 18.4892 5.37685 18.2858C5.37725 17.84 5.47563 17.7291 6.10712 17.4623C6.94172 17.1097 7.08818 17.0046 7.25831 16.6362C7.34743 16.4433 7.35267 16.4053 7.3633 15.877L7.37446 15.3208H8.64726H9.92011L9.9313 15.9102Z" fill="#000"/>
</svg>
