<svg width="44" height="23" viewBox="0 0 44 23" fill="none" xmlns="http://www.w3.org/2000/svg">
<path fill-rule="evenodd" clip-rule="evenodd" d="M32.7009 0.0842443C32.1646 0.244861 31.8617 0.791166 32.0002 1.3483C32.0393 1.50608 33.4695 2.99881 36.2815 5.81696L40.5039 10.0486L20.5977 10.0709L0.691587 10.093L0.448899 10.2727C0.315438 10.3715 0.150009 10.6116 0.0812586 10.8062C-0.0308039 11.1236 -0.0289992 11.1911 0.0993914 11.4603C0.17811 11.6254 0.34861 11.83 0.478376 11.915C0.703618 12.0625 1.62134 12.0706 20.6099 12.0918L40.5055 12.114L36.324 16.3027C34.0242 18.6065 32.1015 20.6003 32.0514 20.7334C31.841 21.2916 32.0555 21.8133 32.5873 22.0369C33.1877 22.2894 33.0708 22.3903 38.675 16.7799C42.1956 13.2555 43.914 11.4771 43.9527 11.3176C43.9842 11.1877 43.9842 10.9749 43.9526 10.845C43.9139 10.6859 42.2045 8.91337 38.7226 5.42216C34.3044 0.992001 33.1859 -0.062193 32.9727 0.00277573C32.9594 0.00681479 32.8371 0.0435099 32.7009 0.0842443Z" fill="#000"/>
</svg>
